<svg width="20" height="20" viewBox="0 0 20 20" fill="none" xmlns="http://www.w3.org/2000/svg">
<path d="M10.7917 6.62499C10.7917 6.21078 10.456 5.87499 10.0417 5.87499C9.62753 5.87499 9.29175 6.21078 9.29175 6.62499H10.7917ZM9.29175 13.4583C9.29175 13.8725 9.62753 14.2083 10.0417 14.2083C10.456 14.2083 10.7917 13.8725 10.7917 13.4583H9.29175ZM7.01142 8.51133C6.71852 8.80422 6.71852 9.27909 7.01142 9.57199C7.30431 9.86488 7.77918 9.86488 8.07208 9.57199L7.01142 8.51133ZM10.0417 6.54166L10.581 6.02039C10.4412 5.87579 10.2492 5.79339 10.0481 5.79168C9.84699 5.78998 9.65363 5.86912 9.51142 6.01133L10.0417 6.54166ZM11.9192 9.56292C12.2071 9.86074 12.6819 9.86879 12.9797 9.5809C13.2775 9.29301 13.2855 8.8182 12.9977 8.52039L11.9192 9.56292ZM16.7917 10.0417C16.7917 13.7696 13.7697 16.7917 10.0417 16.7917V18.2917C14.5981 18.2917 18.2917 14.598 18.2917 10.0417H16.7917ZM10.0417 16.7917C6.31383 16.7917 3.29175 13.7696 3.29175 10.0417H1.79175C1.79175 14.598 5.4854 18.2917 10.0417 18.2917V16.7917ZM3.29175 10.0417C3.29175 6.31373 6.31383 3.29166 10.0417 3.29166V1.79166C5.4854 1.79166 1.79175 5.48531 1.79175 10.0417H3.29175ZM10.0417 3.29166C13.7697 3.29166 16.7917 6.31373 16.7917 10.0417H18.2917C18.2917 5.48531 14.5981 1.79166 10.0417 1.79166V3.29166ZM9.29175 6.62499V13.4583H10.7917V6.62499H9.29175ZM8.07208 9.57199L10.5721 7.07199L9.51142 6.01133L7.01142 8.51133L8.07208 9.57199ZM9.50251 7.06292L11.9192 9.56292L12.9977 8.52039L10.581 6.02039L9.50251 7.06292Z" fill="#C0C0C0"/>
</svg>
