<svg width="20" height="20" viewBox="0 0 20 20" fill="none" xmlns="http://www.w3.org/2000/svg">
<path d="M6.66675 9.49996L4.33341 13.1666C4.33341 13.1666 1.66675 9.91662 1.66675 8.16662C1.66675 5.91662 3.08341 5.16663 4.33341 5.16663C4.9508 5.18248 5.54207 5.419 6.00008 5.8333M13.3334 9.49996L15.6667 13.1666C15.6667 13.1666 18.3334 9.91662 18.3334 8.16662C18.3334 5.91662 16.9167 5.16663 15.6667 5.16663C15.0494 5.18248 14.4581 5.419 14.0001 5.8333M14 6.83333C14 3.69666 11.7433 2.5 10 2.5C8.89676 2.54939 7.85762 3.03233 7.10856 3.8438C6.35951 4.65528 5.96111 5.72967 6 6.83333C6 9.27333 10 14.1667 10 14.1667C10 14.1667 14 9.27333 14 6.83333ZM9.99999 7.72422C10.1826 7.72422 10.3635 7.68825 10.5323 7.61835C10.701 7.54845 10.8543 7.446 10.9835 7.31684C11.1127 7.18769 11.2151 7.03435 11.285 6.8656C11.3549 6.69684 11.3909 6.51598 11.3909 6.33333C11.3909 6.15067 11.3549 5.9698 11.285 5.80105C11.2151 5.6323 11.1127 5.47896 10.9835 5.3498C10.8544 5.22064 10.701 5.11819 10.5323 5.04829C10.3635 4.9784 10.1826 4.94242 9.99999 4.94242C9.81734 4.94242 9.63647 4.9784 9.46771 5.0483C9.29896 5.1182 9.14563 5.22065 9.01647 5.34981C8.88732 5.47896 8.78486 5.6323 8.71496 5.80105C8.64506 5.9698 8.60909 6.15067 8.60909 6.33333C8.60909 6.51598 8.64506 6.69684 8.71496 6.8656C8.78486 7.03435 8.88732 7.18768 9.01647 7.31684C9.14563 7.44599 9.29896 7.54845 9.46771 7.61835C9.63647 7.68825 9.81734 7.72422 9.99999 7.72422ZM10 17.5C11.6569 17.5 13 17.0523 13 16.5C13 15.9477 11.6569 15.5 10 15.5C8.34314 15.5 7 15.9477 7 16.5C7 17.0523 8.34314 17.5 10 17.5Z" stroke="#C0C0C0" stroke-width="1.5" stroke-linecap="round" stroke-linejoin="round"/>
</svg>
