<svg width="14" height="14" viewBox="0 0 14 14" fill="none" xmlns="http://www.w3.org/2000/svg">
<path d="M4.18058 5.00186C4.44672 4.9282 4.60275 4.65274 4.52908 4.3866C4.45542 4.12046 4.17996 3.96443 3.91383 4.03809L4.18058 5.00186ZM1.4772 5.23131L0.99532 5.36469C1.06898 5.63082 1.34444 5.78685 1.61058 5.71319L1.4772 5.23131ZM1.24775 2.52793C1.17409 2.2618 0.898628 2.10576 0.632492 2.17943C0.366356 2.25309 0.210325 2.52855 0.283987 2.79469L1.24775 2.52793ZM1.05951 4.96411C0.973072 5.22638 1.11561 5.50906 1.37788 5.59549C1.64014 5.68193 1.92282 5.53939 2.00926 5.27712L1.05951 4.96411ZM2.59782 9.96014C2.44918 9.72742 2.14002 9.65926 1.9073 9.8079C1.67457 9.95655 1.60642 10.2657 1.75506 10.4984L2.59782 9.96014ZM3.91383 4.03809L1.34383 4.74943L1.61058 5.71319L4.18058 5.00186L3.91383 4.03809ZM1.95908 5.09793L1.24775 2.52793L0.283987 2.79469L0.99532 5.36469L1.95908 5.09793ZM2.00926 5.27712C2.40013 4.09111 3.1829 3.07338 4.22889 2.39124L3.68264 1.55362C2.44651 2.35976 1.52144 3.5625 1.05951 4.96411L2.00926 5.27712ZM4.22889 2.39124C5.27488 1.7091 6.52183 1.40315 7.76477 1.52368L7.86128 0.528345C6.39241 0.385908 4.91877 0.74748 3.68264 1.55362L4.22889 2.39124ZM7.76477 1.52368C9.0077 1.6442 10.1726 2.18404 11.0681 3.05444L11.7651 2.33738C10.7069 1.30875 9.33016 0.670783 7.86128 0.528345L7.76477 1.52368ZM11.0681 3.05444C11.9635 3.92484 12.5362 5.074 12.6919 6.31302L13.6841 6.18832C13.5 4.72407 12.8233 3.366 11.7651 2.33738L11.0681 3.05444ZM12.6919 6.31302C12.8476 7.55203 12.5771 8.80716 11.9249 9.87207L12.7777 10.3944C13.5485 9.13586 13.8681 7.65257 13.6841 6.18832L12.6919 6.31302ZM11.9249 9.87207C11.2727 10.937 10.2776 11.7483 9.10313 12.1726L9.44295 13.1131C10.8309 12.6116 12.0069 11.6528 12.7777 10.3944L11.9249 9.87207ZM9.10313 12.1726C7.92868 12.597 6.6448 12.6091 5.46254 12.207L5.14055 13.1538C6.53772 13.6289 8.055 13.6146 9.44295 13.1131L9.10313 12.1726ZM5.46254 12.207C4.28029 11.8049 3.27002 11.0125 2.59782 9.96014L1.75506 10.4984C2.54946 11.7421 3.74338 12.6786 5.14055 13.1538L5.46254 12.207Z" fill="white"/>
</svg>
