<svg width="20" height="20" viewBox="0 0 20 20" fill="none" xmlns="http://www.w3.org/2000/svg">
<path fill-rule="evenodd" clip-rule="evenodd" d="M12.9375 18.4125C14.6375 19.4125 16.6375 19.2125 18.0375 17.8125L18.7375 17.1125C19.1375 16.7125 19.1375 16.1125 18.7375 15.8125L15.9375 13.0125C15.5375 12.6125 14.9375 12.6125 14.6375 13.0125C13.8375 13.8125 12.3375 13.8125 11.5375 13.0125L6.93745 8.61246C6.13745 7.71246 6.13745 6.31246 6.93745 5.41246C7.13745 5.31246 7.23745 5.01246 7.23745 4.81246C7.23745 4.51246 7.13745 4.31246 6.93745 4.11246L4.13745 1.31246C3.83745 1.01246 3.23745 1.01246 2.83745 1.31246L2.23745 2.01246C0.837451 3.41246 0.637451 5.51246 1.63745 7.11246C4.63745 11.6125 8.43745 15.4125 12.9375 18.4125Z" stroke="#C0C0C0" stroke-width="1.5" stroke-miterlimit="10" stroke-linecap="round" stroke-linejoin="round"/>
</svg>
