<svg width="6" height="13" viewBox="0 0 6 13" fill="none" xmlns="http://www.w3.org/2000/svg">
<path d="M2.608 12.54V11.154C2.16 11.1073 1.726 10.986 1.306 10.79C0.886 10.5847 0.526667 10.3467 0.228 10.076L0.76 9.278C1.05867 9.53933 1.38533 9.76333 1.74 9.95C2.104 10.1273 2.50067 10.216 2.93 10.216C3.45267 10.216 3.84 10.0853 4.092 9.824C4.35333 9.56267 4.484 9.21267 4.484 8.774C4.484 8.40067 4.386 8.09267 4.19 7.85C4.00333 7.598 3.76533 7.38333 3.476 7.206C3.18667 7.01933 2.86933 6.84667 2.524 6.688C2.188 6.52933 1.87533 6.34733 1.586 6.142C1.29667 5.93667 1.054 5.68933 0.858 5.4C0.671333 5.10133 0.578 4.72333 0.578 4.266C0.578 3.64067 0.76 3.12267 1.124 2.712C1.49733 2.292 1.992 2.03533 2.608 1.942V0.528H3.448V1.914C3.896 1.96067 4.274 2.082 4.582 2.278C4.89933 2.474 5.184 2.70733 5.436 2.978L4.82 3.664C4.55867 3.412 4.302 3.216 4.05 3.076C3.80733 2.936 3.49467 2.866 3.112 2.866C2.68267 2.866 2.342 2.98733 2.09 3.23C1.838 3.47267 1.712 3.79933 1.712 4.21C1.712 4.546 1.80533 4.82133 1.992 5.036C2.188 5.25067 2.43067 5.442 2.72 5.61C3.00933 5.76867 3.322 5.92733 3.658 6.086C4.00333 6.23533 4.32067 6.422 4.61 6.646C4.89933 6.86067 5.13733 7.13133 5.324 7.458C5.52 7.77533 5.618 8.186 5.618 8.69C5.618 9.362 5.422 9.91267 5.03 10.342C4.64733 10.7713 4.12 11.0327 3.448 11.126V12.54H2.608Z" fill="#C0C0C0"/>
</svg>
