<svg width="24" height="24" viewBox="0 0 24 24" fill="none" xmlns="http://www.w3.org/2000/svg">
<path fill-rule="evenodd" clip-rule="evenodd" d="M21.75 12C21.75 17.3848 17.3848 21.75 12 21.75C6.61522 21.75 2.25 17.3848 2.25 12C2.25 6.61522 6.61522 2.25 12 2.25C17.3848 2.25 21.75 6.61522 21.75 12ZM16.4802 8.96138C16.7252 8.62998 16.6551 8.16275 16.3237 7.9178C15.9923 7.67285 15.5251 7.74294 15.2801 8.07434L10.7388 14.2184L8.46589 11.7887C8.18436 11.4878 7.71217 11.472 7.41123 11.7536C7.11028 12.0351 7.09454 12.5073 7.37607 12.8082L10.2613 15.8924C10.4126 16.0542 10.6281 16.1404 10.8493 16.1276C11.0705 16.1148 11.2745 16.0044 11.4062 15.8262L16.4802 8.96138Z" fill="#41D3BD"/>
</svg>
