<svg width="20" height="22" viewBox="0 0 20 22" fill="none" xmlns="http://www.w3.org/2000/svg">
<path d="M3.9999 7.35C3.58569 7.35 3.2499 7.68579 3.2499 8.1C3.2499 8.51421 3.58569 8.85 3.9999 8.85L3.9999 7.35ZM11.9999 8.85C12.4141 8.85 12.7499 8.51421 12.7499 8.1C12.7499 7.68579 12.4141 7.35 11.9999 7.35V8.85ZM3.9999 10.65C3.58569 10.65 3.2499 10.9858 3.2499 11.4C3.2499 11.8142 3.58569 12.15 3.9999 12.15L3.9999 10.65ZM11.9999 12.15C12.4141 12.15 12.7499 11.8142 12.7499 11.4C12.7499 10.9858 12.4141 10.65 11.9999 10.65V12.15ZM3.9999 13.85C3.58569 13.85 3.2499 14.1858 3.2499 14.6C3.2499 15.0142 3.58569 15.35 3.9999 15.35V13.85ZM10.0999 15.35C10.5141 15.35 10.8499 15.0142 10.8499 14.6C10.8499 14.1858 10.5141 13.85 10.0999 13.85V15.35ZM5.7999 1V0.25C5.38569 0.25 5.0499 0.585786 5.0499 1H5.7999ZM10.2999 1H11.0499C11.0499 0.585786 10.7141 0.25 10.2999 0.25V1ZM10.2999 3.6V4.35C10.7141 4.35 11.0499 4.01421 11.0499 3.6L10.2999 3.6ZM5.7999 3.6H5.0499C5.0499 4.01421 5.38569 4.35 5.7999 4.35L5.7999 3.6ZM14.2499 9.3C14.2499 9.71421 14.5857 10.05 14.9999 10.05C15.4141 10.05 15.7499 9.71421 15.7499 9.3H14.2499ZM12.3999 1.35C11.9857 1.35 11.6499 1.68579 11.6499 2.1C11.6499 2.51421 11.9857 2.85 12.3999 2.85V1.35ZM3.4999 2.85C3.91412 2.85 4.2499 2.51421 4.2499 2.1C4.2499 1.68579 3.91412 1.35 3.4999 1.35L3.4999 2.85ZM6.7999 18.75C7.21412 18.75 7.5499 18.4142 7.5499 18C7.5499 17.5858 7.21412 17.25 6.7999 17.25V18.75ZM10.0999 18.5L9.56957 17.9697L9.37757 18.1617L9.35298 18.4321L10.0999 18.5ZM16.4999 12.1L15.9696 11.5697L16.4999 12.1ZM18.6999 14.3L18.1696 13.7697L18.6999 14.3ZM12.2999 20.7L12.406 21.4425L12.6535 21.4071L12.8302 21.2303L12.2999 20.7ZM10.1999 21V21.75H10.2532L10.306 21.7425L10.1999 21ZM9.8999 20.7L9.15298 20.6321L9.1499 20.666V20.7H9.8999ZM3.9999 8.85L11.9999 8.85V7.35L3.9999 7.35L3.9999 8.85ZM3.9999 12.15L11.9999 12.15V10.65L3.9999 10.65L3.9999 12.15ZM3.9999 15.35L10.0999 15.35V13.85L3.9999 13.85V15.35ZM5.7999 1.75L10.2999 1.75V0.25L5.7999 0.25V1.75ZM9.5499 1V3.6L11.0499 3.6V1L9.5499 1ZM10.2999 2.85L5.7999 2.85L5.7999 4.35L10.2999 4.35V2.85ZM6.5499 3.6V1L5.0499 1V3.6H6.5499ZM15.7499 9.3L15.7499 3.9H14.2499L14.2499 9.3H15.7499ZM15.7499 3.9C15.7499 2.48579 14.6141 1.35 13.1999 1.35V2.85C13.7857 2.85 14.2499 3.31421 14.2499 3.9H15.7499ZM13.1999 1.35L12.3999 1.35V2.85H13.1999V1.35ZM3.4999 1.35L2.6999 1.35V2.85L3.4999 2.85L3.4999 1.35ZM2.6999 1.35C1.28569 1.35 0.149902 2.48579 0.149902 3.9H1.6499C1.6499 3.31421 2.11412 2.85 2.6999 2.85V1.35ZM0.149902 3.9L0.149902 16.2H1.6499L1.6499 3.9H0.149902ZM0.149902 16.2C0.149902 17.6142 1.28569 18.75 2.6999 18.75V17.25C2.11412 17.25 1.6499 16.7858 1.6499 16.2H0.149902ZM2.6999 18.75H6.7999V17.25H2.6999V18.75ZM15.082 13.5425L17.282 15.6425L18.3178 14.5575L16.1178 12.4575L15.082 13.5425ZM10.6302 19.0303L17.0302 12.6303L15.9696 11.5697L9.56957 17.9697L10.6302 19.0303ZM17.0302 12.6303C17.1373 12.5232 17.3625 12.5232 17.4696 12.6303L18.5302 11.5697C17.8373 10.8768 16.6625 10.8768 15.9696 11.5697L17.0302 12.6303ZM17.4696 12.6303L18.1696 13.3303L19.2302 12.2697L18.5302 11.5697L17.4696 12.6303ZM18.1696 13.3303C18.2767 13.4374 18.2767 13.6626 18.1696 13.7697L19.2302 14.8303C19.9231 14.1374 19.9231 12.9626 19.2302 12.2697L18.1696 13.3303ZM18.1696 13.7697L11.7696 20.1697L12.8302 21.2303L19.2302 14.8303L18.1696 13.7697ZM12.1938 19.9575L10.0938 20.2575L10.306 21.7425L12.406 21.4425L12.1938 19.9575ZM10.1999 20.25C10.2155 20.25 10.365 20.2544 10.5052 20.3947C10.6455 20.5349 10.6499 20.6844 10.6499 20.7H9.1499C9.1499 20.9156 9.20431 21.2151 9.44457 21.4553C9.68483 21.6956 9.9843 21.75 10.1999 21.75V20.25ZM10.6468 20.7679L10.8468 18.5679L9.35298 18.4321L9.15298 20.6321L10.6468 20.7679Z" fill="#C0C0C0"/>
</svg>
