<svg width="20" height="20" viewBox="0 0 20 20" fill="none" xmlns="http://www.w3.org/2000/svg">
<path d="M11.1795 2.19689L12.8795 5.69689C13.0795 6.09689 13.4795 6.39689 13.8795 6.39689L17.7795 6.99689C18.8795 7.19689 19.2795 8.49689 18.4795 9.29689L15.6795 11.9969C15.3795 12.2969 15.1795 12.6969 15.2795 13.1969L15.9795 16.9969C16.1795 18.0969 14.9795 18.8969 13.9795 18.3969L10.4795 16.5969C10.0795 16.3969 9.57951 16.3969 9.17951 16.5969L5.67951 18.3969C4.67951 18.8969 3.57951 18.0969 3.67951 16.9969L4.37951 13.1969C4.57951 12.6969 4.47951 12.1969 4.17951 11.8969L1.37951 9.19689C0.579509 8.39689 0.979509 7.09689 2.07951 6.89689L5.97951 6.29689C6.37951 6.19689 6.77951 5.99689 6.97951 5.59689L8.67951 2.09689C9.17951 1.19689 10.6795 1.19689 11.1795 2.19689Z" stroke="#C0C0C0" stroke-width="1.5" stroke-miterlimit="10" stroke-linecap="round" stroke-linejoin="round"/>
</svg>
