<svg width="22" height="20" viewBox="0 0 22 20" fill="none" xmlns="http://www.w3.org/2000/svg">
<path d="M4.03955 1.74993L4.03955 6.34993C4.03955 7.24993 3.33955 7.84993 2.53955 7.84993M2.53955 7.84993C1.73955 7.84993 1.03955 7.14993 1.03955 6.34993L1.03955 1.74993M2.53955 7.84993L2.53955 18.3499M18.2396 11.9499H20.9396C20.9396 11.9499 21.3396 3.04993 18.6396 1.74993C18.4396 1.64993 18.2396 1.84993 18.2396 2.04993L18.2396 18.2499M5.63955 13.9499C6.93955 15.3499 8.83955 16.2499 11.0396 16.2499C12.9396 16.2499 14.7396 15.4499 16.0396 14.2499M15.8396 5.44993C14.6396 4.14993 12.9396 3.34993 11.0396 3.34993C9.13955 3.34993 7.33955 4.14993 6.23955 5.44993" stroke="#C0C0C0" stroke-width="1.5" stroke-miterlimit="10" stroke-linecap="round" stroke-linejoin="round"/>
</svg>
