<svg width="24" height="24" viewBox="0 0 24 24" fill="none" xmlns="http://www.w3.org/2000/svg">
<path d="M7.77099 9.00288C8.1702 8.89239 8.40424 8.47919 8.29375 8.07999C8.18326 7.68079 7.77006 7.44674 7.37086 7.55723L7.77099 9.00288ZM3.71593 9.34706L2.9931 9.54712C3.1036 9.94633 3.51679 10.1804 3.91599 10.0699L3.71593 9.34706ZM3.37175 5.29199C3.26126 4.89279 2.84806 4.65874 2.44886 4.76923C2.04966 4.87973 1.81561 5.29292 1.9261 5.69212L3.37175 5.29199ZM3.08938 8.94626C2.95973 9.33966 3.17354 9.76367 3.56694 9.89333C3.96034 10.023 4.38436 9.80917 4.51401 9.41577L3.08938 8.94626ZM5.39685 16.4403C5.17389 16.0912 4.71015 15.989 4.36107 16.2119C4.01198 16.4349 3.90975 16.8987 4.13272 17.2477L5.39685 16.4403ZM7.37086 7.55723L3.51586 8.62423L3.91599 10.0699L7.77099 9.00288L7.37086 7.55723ZM4.43875 9.14699L3.37175 5.29199L1.9261 5.69212L2.9931 9.54712L4.43875 9.14699ZM4.51401 9.41577C5.10032 7.63676 6.27448 6.11016 7.84346 5.08696L7.02408 3.83053C5.16988 5.03974 3.78228 6.84384 3.08938 8.94626L4.51401 9.41577ZM7.84346 5.08696C9.41244 4.06375 11.2829 3.60482 13.1473 3.78561L13.292 2.29261C11.0887 2.07895 8.87828 2.62131 7.02408 3.83053L7.84346 5.08696ZM13.1473 3.78561C15.0117 3.9664 16.7591 4.77615 18.1022 6.08175L19.1477 5.00616C17.5604 3.46322 15.4954 2.50627 13.292 2.29261L13.1473 3.78561ZM18.1022 6.08175C19.4454 7.38735 20.3044 9.11109 20.5379 10.9696L22.0262 10.7826C21.7502 8.58619 20.7351 6.5491 19.1477 5.00616L18.1022 6.08175ZM20.5379 10.9696C20.7715 12.8281 20.3658 14.7108 19.3875 16.3082L20.6667 17.0916C21.8228 15.2039 22.3023 12.9789 22.0262 10.7826L20.5379 10.9696ZM19.3875 16.3082C18.4092 17.9056 16.9165 19.1225 15.1548 19.759L15.6645 21.1698C17.7465 20.4176 19.5105 18.9794 20.6667 17.0916L19.3875 16.3082ZM15.1548 19.759C13.3931 20.3956 11.4673 20.4137 9.69394 19.8106L9.21095 21.2307C11.3067 21.9435 13.5826 21.922 15.6645 21.1698L15.1548 19.759ZM9.69394 19.8106C7.92056 19.2075 6.40515 18.0189 5.39685 16.4403L4.13272 17.2477C5.32431 19.1133 7.11519 20.5179 9.21095 21.2307L9.69394 19.8106Z" fill="#9AA6DB"/>
<path d="M12.0001 8.00006V13.0001L15.5001 16.0001" stroke="#9AA6DB" stroke-width="1.5" stroke-linecap="round" stroke-linejoin="round"/>
</svg>
