<svg width="18" height="19" viewBox="0 0 18 19" fill="none" xmlns="http://www.w3.org/2000/svg">
<path d="M1.5 8.33317C1.5 7.89114 1.67559 7.46722 1.98816 7.15466C2.30072 6.8421 2.72464 6.6665 3.16667 6.6665H14.8333C15.2754 6.6665 15.6993 6.8421 16.0118 7.15466C16.3244 7.46722 16.5 7.89114 16.5 8.33317V15.8332C16.5 16.2752 16.3244 16.6991 16.0118 17.0117C15.6993 17.3242 15.2754 17.4998 14.8333 17.4998H3.16667C2.72464 17.4998 2.30072 17.3242 1.98816 17.0117C1.67559 16.6991 1.5 16.2752 1.5 15.8332V8.33317Z" stroke="#C0C0C0" stroke-width="1.5" stroke-linecap="round" stroke-linejoin="round"/>
<path d="M1.5 10L3.92833 11.9425C4.9175 12.7342 6.345 12.655 7.24083 11.7592C7.47183 11.5281 7.74608 11.3448 8.04792 11.2198C8.34976 11.0947 8.67328 11.0304 9 11.0304C9.32672 11.0304 9.65024 11.0947 9.95208 11.2198C10.2539 11.3448 10.5282 11.5281 10.7592 11.7592V11.7592C11.192 12.1919 11.7692 12.4499 12.3804 12.4837C12.9915 12.5175 13.5937 12.3248 14.0717 11.9425L16.5 10" stroke="#C0C0C0" stroke-width="1.5" stroke-linecap="round"/>
<path d="M9.00016 5.83317C8.55814 5.83317 8.13421 5.65758 7.82165 5.34501C7.50909 5.03245 7.3335 4.60853 7.3335 4.1665C7.3335 3.4365 7.89766 2.85317 8.39433 2.319L9.00016 1.6665L9.606 2.319C10.1027 2.85317 10.6668 3.4365 10.6668 4.1665C10.6668 4.60853 10.4912 5.03245 10.1787 5.34501C9.86611 5.65758 9.44219 5.83317 9.00016 5.83317Z" stroke="#C0C0C0" stroke-width="1.5" stroke-linecap="round" stroke-linejoin="round"/>
</svg>
