<svg width="16" height="16" viewBox="0 0 16 16" fill="none" xmlns="http://www.w3.org/2000/svg">
<path fill-rule="evenodd" clip-rule="evenodd" d="M14.5 8C14.5 11.5899 11.5899 14.5 8 14.5C4.41015 14.5 1.5 11.5899 1.5 8C1.5 4.41015 4.41015 1.5 8 1.5C11.5899 1.5 14.5 4.41015 14.5 8ZM10.9868 5.97425C11.1501 5.75332 11.1034 5.44183 10.8825 5.27854C10.6615 5.11524 10.35 5.16196 10.1867 5.38289L7.15922 9.47894L5.64393 7.85914C5.45624 7.65851 5.14145 7.64802 4.94082 7.83571C4.74019 8.02339 4.72969 8.33819 4.91738 8.53882L6.84085 10.5949C6.94176 10.7028 7.08539 10.7603 7.23285 10.7517C7.38032 10.7432 7.51636 10.6696 7.60416 10.5508L10.9868 5.97425Z" fill="#41D3BD"/>
</svg>
