<svg width="20" height="20" viewBox="0 0 20 20" fill="none" xmlns="http://www.w3.org/2000/svg">
<path fill-rule="evenodd" clip-rule="evenodd" d="M19.75 10C19.75 15.3848 15.3848 19.75 10 19.75C4.61522 19.75 0.25 15.3848 0.25 10C0.25 4.61522 4.61522 0.25 10 0.25C15.3848 0.25 19.75 4.61522 19.75 10ZM7.78033 6.71967C7.48744 6.42678 7.01256 6.42678 6.71967 6.71967C6.42678 7.01256 6.42678 7.48744 6.71967 7.78033L8.93934 10L6.71967 12.2197C6.42678 12.5126 6.42678 12.9874 6.71967 13.2803C7.01256 13.5732 7.48744 13.5732 7.78033 13.2803L10 11.0607L12.2197 13.2803C12.5126 13.5732 12.9874 13.5732 13.2803 13.2803C13.5732 12.9874 13.5732 12.5126 13.2803 12.2197L11.0607 10L13.2803 7.78033C13.5732 7.48744 13.5732 7.01256 13.2803 6.71967C12.9874 6.42678 12.5126 6.42678 12.2197 6.71967L10 8.93934L7.78033 6.71967Z" fill="#C0C0C0"/>
</svg>
