<svg width="16" height="16" viewBox="0 0 16 16" fill="none" xmlns="http://www.w3.org/2000/svg">
<path d="M9.23333 9.3667C9.23333 9.03337 9.1 8.83337 8.9 8.63337C8.7 8.43337 8.43333 8.3667 8.1 8.3667C7.76667 8.3667 7.5 8.43337 7.3 8.5667C7.1 8.70003 6.96667 8.9667 6.96667 9.23337C6.96667 9.50003 7.03333 9.70003 7.23333 9.83337C7.43333 9.9667 7.63333 10.0334 7.96667 10.1667C8.3 10.2334 8.56667 10.3667 8.7 10.5C8.9 10.6334 9.03333 10.9 9.03333 11.1667C9.03333 11.4334 8.9 11.7 8.7 11.8334C8.5 11.9667 8.23333 12.0334 7.9 12.0334C7.56667 12.0334 7.3 11.9667 7.1 11.8334C6.83333 11.7 6.7 11.4334 6.7 11.1M8.16667 7.7667V8.30003M8.1 12.1V12.6334M11.0333 7.3667C11.0333 7.3667 12.5667 9.03337 12.5667 11.0334C12.5667 13.0334 11.1 14.7 9.3 14.7H6.76667C4.96667 14.7 3.5 13.0334 3.5 11.0334C3.5 9.03337 5.03333 7.3667 5.03333 7.3667M4.9 5.5667H11.2333M5.96667 4.03337L5.3 1.83337L7.3 2.23337L8.03333 1.3667L8.9 2.23337L10.7667 1.83337L10.1667 4.03337" stroke="#41D3BD" stroke-miterlimit="10" stroke-linecap="round" stroke-linejoin="round"/>
</svg>
