<svg width="16" height="16" viewBox="0 0 16 16" fill="none" xmlns="http://www.w3.org/2000/svg">
<path fill-rule="evenodd" clip-rule="evenodd" d="M9.9583 13.6081C11.0916 14.2748 12.425 14.1414 13.3583 13.2081L13.825 12.7414C14.0916 12.4748 14.0916 12.0748 13.825 11.8748L11.9583 10.0081C11.6916 9.74144 11.2916 9.74144 11.0916 10.0081C10.5583 10.5414 9.5583 10.5414 9.02497 10.0081L5.9583 7.07477C5.42497 6.47477 5.42497 5.54144 5.9583 4.94144C6.09163 4.87477 6.1583 4.67477 6.1583 4.54144C6.1583 4.34144 6.09163 4.20811 5.9583 4.07477L4.09163 2.20811C3.89163 2.00811 3.49163 2.00811 3.22497 2.20811L2.82497 2.67477C1.89163 3.60811 1.7583 5.00811 2.42497 6.07477C4.42497 9.07477 6.9583 11.6081 9.9583 13.6081Z" stroke="#C0C0C0" stroke-width="1.5" stroke-miterlimit="10" stroke-linecap="round" stroke-linejoin="round"/>
</svg>
