<svg width="24" height="24" viewBox="0 0 24 24" fill="none" xmlns="http://www.w3.org/2000/svg">
<path d="M10.2215 5.32959C11.0465 4.01709 12.959 4.01709 13.784 5.32959L17.3465 11.0671L20.684 16.4671C21.5465 17.8546 20.534 19.6546 18.9215 19.6546H11.984H5.08399C3.43399 19.6546 2.45899 17.8546 3.32149 16.4671L6.65899 11.0671L10.2215 5.32959Z" stroke="#5069C3" stroke-width="1.125" stroke-linecap="round" stroke-linejoin="round"/>
<path d="M11.984 8.81714V12.9046" stroke="#FF4C00" stroke-width="1.125" stroke-linecap="round"/>
<path d="M11.984 16.8796C12.481 16.8796 12.884 16.4766 12.884 15.9796C12.884 15.4825 12.481 15.0796 11.984 15.0796C11.4869 15.0796 11.084 15.4825 11.084 15.9796C11.084 16.4766 11.4869 16.8796 11.984 16.8796Z" fill="#FF4C00"/>
</svg>
