<svg width="180" height="146" viewBox="0 0 180 146" fill="none" xmlns="http://www.w3.org/2000/svg">
<g clip-path="url(#clip0_383_21217)">
<path d="M86.8889 145.169C92.1132 145.169 96.3483 140.934 96.3483 135.709C96.3483 130.485 92.1132 126.25 86.8889 126.25C81.6647 126.25 77.4296 130.485 77.4296 135.709C77.4296 140.934 81.6647 145.169 86.8889 145.169Z" fill="#E5E5E5"/>
<path d="M116.78 108.376C113.041 104.134 108.442 100.736 103.288 98.4091C98.1341 96.0818 92.544 94.8782 86.8891 94.8782C81.2341 94.8782 75.644 96.0818 70.4902 98.4091C65.3364 100.736 60.737 104.134 56.9977 108.376" stroke="#E5E5E5" stroke-width="4" stroke-linecap="round" stroke-linejoin="round"/>
<path d="M1.16501 57.9613C1.16501 57.9613 27.3786 18.9321 81.2621 18.9321C101.942 18.9321 113.301 25.0486 113.301 25.0486" stroke="#E5E5E5" stroke-width="4" stroke-linecap="round"/>
<path d="M27.9611 84.466C27.9611 84.466 51.2154 57.0874 85.8929 57.0874C120.57 57.0874 145.049 84.466 145.049 84.466" stroke="#E5E5E5" stroke-width="4" stroke-linecap="round"/>
<path d="M146.089 11.1954C148.274 7.55465 153.371 7.55465 155.555 11.1954L165.264 26.7294L174.245 41.2925C176.672 44.9333 173.759 49.7877 169.39 49.7877H150.701H132.254C127.885 49.7877 125.215 44.9333 127.4 41.2925L136.38 26.7294L146.089 11.1954Z" stroke="#FF4C00" stroke-width="2.62136" stroke-miterlimit="10" stroke-linecap="round" stroke-linejoin="round"/>
<path d="M150.701 20.6616V31.5839" stroke="#FF4C00" stroke-width="2.62136" stroke-miterlimit="10" stroke-linecap="round" stroke-linejoin="round"/>
<path d="M150.701 42.6576C152.041 42.6576 153.128 41.5709 153.128 40.2304C153.128 38.8899 152.041 37.8032 150.701 37.8032C149.36 37.8032 148.274 38.8899 148.274 40.2304C148.274 41.5709 149.36 42.6576 150.701 42.6576Z" fill="#FF4C00"/>
</g>
<defs>
<clipPath id="clip0_383_21217">
<rect width="180" height="145.631" fill="white"/>
</clipPath>
</defs>
</svg>
