<svg width="24" height="24" viewBox="0 0 24 24" fill="none" xmlns="http://www.w3.org/2000/svg">
<path d="M15.8 10.7C14.9 9.6 13.6 8.9 12 8.9C10.5 8.9 9.2 9.6 8.3 10.7M10.6 20.5C9.7 19.4 8.4 18.7 6.8 18.7C5.3 18.7 3.9 19.4 3 20.5M21 20.5C20.1 19.4 18.8 18.7 17.2 18.7C15.7 18.7 14.3 19.4 13.4 20.5M14.8 6.2C14.8 7.69117 13.5912 8.9 12.1 8.9C10.6088 8.9 9.4 7.69117 9.4 6.2C9.4 4.70883 10.6088 3.5 12.1 3.5C13.5912 3.5 14.8 4.70883 14.8 6.2ZM9.5 15.9C9.5 17.3912 8.29117 18.6 6.8 18.6C5.30883 18.6 4.1 17.3912 4.1 15.9C4.1 14.4088 5.30883 13.2 6.8 13.2C8.29117 13.2 9.5 14.4088 9.5 15.9ZM20 15.9C20 17.3912 18.7912 18.6 17.3 18.6C15.8088 18.6 14.6 17.3912 14.6 15.9C14.6 14.4088 15.8088 13.2 17.3 13.2C18.7912 13.2 20 14.4088 20 15.9Z" stroke="#C0C0C0" stroke-width="1.5" stroke-miterlimit="10" stroke-linecap="round" stroke-linejoin="round"/>
</svg>
