<svg width="24" height="24" viewBox="0 0 24 24" fill="none" xmlns="http://www.w3.org/2000/svg">
<path fill-rule="evenodd" clip-rule="evenodd" d="M12.0041 5.09065C13.7641 3.03065 17.0241 2.19065 19.6641 3.99065C21.0641 4.95065 21.9441 6.57065 22.0041 8.27065C22.1341 12.1507 18.7041 15.2607 13.4541 20.0207L13.3441 20.1207C12.5841 20.8207 11.4141 20.8207 10.6541 20.1307L10.5541 20.0407L10.4937 19.9858C5.27775 15.2468 1.86466 12.1458 2.00412 8.28065C2.06412 6.57065 2.94412 4.95065 4.34412 3.99065C6.98412 2.18065 10.2441 3.03065 12.0041 5.09065ZM12.0041 18.6507L12.1041 18.5507C16.8641 14.2407 20.0041 11.3907 20.0041 8.50065C20.0041 6.50065 18.5041 5.00065 16.5041 5.00065C14.9641 5.00065 13.4641 5.99065 12.9441 7.36065H11.0741C10.5441 5.99065 9.04412 5.00065 7.50412 5.00065C5.50412 5.00065 4.00412 6.50065 4.00412 8.50065C4.00412 11.3907 7.14412 14.2407 11.9041 18.5507L12.0041 18.6507Z" fill="#C0C0C0"/>
</svg>
