<svg width="16" height="16" viewBox="0 0 16 16" fill="none" xmlns="http://www.w3.org/2000/svg">
<path d="M7.53331 12.7L7.53331 8.53337L3.36664 8.53337C3.0905 8.53337 2.86664 8.30951 2.86664 8.03337C2.86664 7.75722 3.0905 7.53337 3.36664 7.53337L7.53331 7.53337L7.53331 3.3667C7.53331 3.09056 7.75716 2.8667 8.03331 2.8667C8.30945 2.8667 8.53331 3.09056 8.53331 3.3667L8.53331 7.53337L12.7 7.53337C12.9761 7.53337 13.2 7.75722 13.2 8.03337C13.2 8.30951 12.9761 8.53337 12.7 8.53337H8.53331V12.7C8.53331 12.9762 8.30945 13.2 8.03331 13.2C7.75716 13.2 7.53331 12.9762 7.53331 12.7Z" fill="#181818"/>
</svg>
