<svg width="16" height="16" viewBox="0 0 16 16" fill="none" xmlns="http://www.w3.org/2000/svg">
<path d="M9.96615 2.97856C10.6081 2.34051 11.6491 2.34045 12.291 2.97856L13.0176 3.70122C13.6609 4.34116 13.661 5.38166 13.0176 6.02153L13.0169 6.02088L6.03581 13.0196L5.91732 13.1381L3.4056 13.4948L3.37044 13.5H3.33529C3.1457 13.5 2.93913 13.4375 2.77344 13.2911C2.59848 13.1363 2.5 12.9144 2.5 12.6667V12.6309L2.50521 12.5958L2.84049 10.2624L2.86393 10.0977L2.98112 9.98052L9.96419 2.98052L9.96615 2.97856ZM3.80599 10.5684L3.5332 12.4668L5.44531 12.1954L11.0111 6.61593L9.3737 4.98768L3.80599 10.5684ZM11.5859 3.6882C11.334 3.4377 10.9231 3.4377 10.6712 3.6882L10.6706 3.68755L10.0801 4.28L11.7174 5.9076L12.3125 5.3119C12.5625 5.06297 12.5626 4.65909 12.3125 4.4102L11.5859 3.6882Z" fill="#181818"/>
</svg>
