<svg width="16" height="16" viewBox="0 0 16 16" fill="none" xmlns="http://www.w3.org/2000/svg">
<g clip-path="url(#clip0_7194_119096)">
<path d="M8.00053 1.4375C8.28946 1.43753 8.57511 1.49838 8.83907 1.61589L8.97123 1.68294C9.27016 1.85355 9.50282 2.12052 9.71537 2.42122C9.96003 2.76738 10.231 3.23709 10.5663 3.81771L14.2037 10.1178C14.5394 10.6993 14.8107 11.1689 14.9882 11.554C15.1644 11.9365 15.2896 12.3193 15.2479 12.7155C15.2177 13.0029 15.1275 13.281 14.9829 13.5312C14.8564 13.7502 14.6907 13.9441 14.4947 14.1029L14.4087 14.1686C14.0865 14.403 13.6926 14.4856 13.274 14.5241C12.8522 14.5628 12.3101 14.5625 11.6398 14.5625L4.3625 14.5625C3.69147 14.5625 3.14918 14.5628 2.72709 14.5241C2.30795 14.4856 1.91417 14.4028 1.59167 14.1686H1.59102C1.35741 13.9988 1.16187 13.7814 1.01745 13.5312C0.873186 13.2813 0.782784 13.0038 0.752478 12.7168V12.7161C0.710861 12.3197 0.835954 11.9366 1.01224 11.554C1.18974 11.1689 1.46106 10.6995 1.79675 10.1185L5.43542 3.81706L5.89441 3.03125C6.03454 2.79808 6.16342 2.59423 6.28568 2.42122C6.5284 2.07777 6.79737 1.77795 7.16133 1.61589C7.42539 1.49831 7.71148 1.4375 8.00053 1.4375ZM8.00053 2.5625C7.86914 2.5625 7.73904 2.59044 7.61901 2.64388C7.53828 2.67985 7.41373 2.77398 7.2043 3.07031C6.99656 3.36427 6.75582 3.7807 6.40938 4.38021L6.40873 4.37956L2.77136 10.681V10.6816C2.42468 11.2817 2.18434 11.6985 2.03373 12.0254C1.88226 12.3542 1.86239 12.5095 1.87162 12.5983L1.88724 12.6953C1.90766 12.7912 1.94285 12.8835 1.99206 12.9688C2.05768 13.0824 2.14635 13.1813 2.25248 13.2585L2.32214 13.2988C2.40999 13.3394 2.55901 13.3794 2.82995 13.4043C3.18842 13.4372 3.66932 13.4375 4.3625 13.4375L11.6398 13.4375C12.3323 13.4375 12.8129 13.4372 13.1711 13.4043C13.532 13.3711 13.6759 13.3104 13.7473 13.2585L13.8241 13.1966C13.897 13.131 13.9591 13.054 14.0083 12.9687C14.0741 12.855 14.115 12.7283 14.1288 12.5977C14.138 12.5094 14.1185 12.3542 13.9667 12.0247C13.816 11.6978 13.5757 11.2807 13.229 10.6803L9.59167 4.38021C9.24541 3.78063 9.00446 3.36487 8.79675 3.07096C8.58735 2.7747 8.46305 2.67992 8.38204 2.64388H8.38138C8.26145 2.5905 8.1318 2.56253 8.00053 2.5625ZM8.03829 10.4375C8.34891 10.4375 8.60079 10.6894 8.60079 11V11.0749C8.60079 11.3855 8.34891 11.6373 8.03829 11.6374H7.96342C7.65275 11.6374 7.40092 11.3855 7.40092 11.0749V11C7.40092 10.6893 7.65275 10.4375 7.96342 10.4375H8.03829ZM7.43737 8.75L7.43737 5.75C7.43737 5.43936 7.68925 5.18754 7.99987 5.1875C8.31054 5.1875 8.56237 5.43934 8.56237 5.75L8.56237 8.75C8.56236 9.06065 8.31053 9.3125 7.99987 9.3125C7.68925 9.31246 7.43739 9.06063 7.43737 8.75Z" fill="#181818"/>
</g>
<defs>
<clipPath id="clip0_7194_119096">
<rect width="16" height="16" fill="white"/>
</clipPath>
</defs>
</svg>
