<svg width="20" height="20" viewBox="0 0 20 20" fill="none" xmlns="http://www.w3.org/2000/svg">
<path d="M15.8333 5.83333H4.16667C3.70833 5.83333 3.33333 6.20833 3.33333 6.66667V8.33333C4.25 8.33333 5 9.08333 5 10C5 10.9167 4.25 11.6667 3.33333 11.6667V13.3333C3.33333 13.7917 3.70833 14.1667 4.16667 14.1667H15.8333C16.2917 14.1667 16.6667 13.7917 16.6667 13.3333V11.6667C15.75 11.6667 15 10.9167 15 10C15 9.08333 15.75 8.33333 16.6667 8.33333V6.66667C16.6667 6.20833 16.2917 5.83333 15.8333 5.83333ZM12.5 12.9167L10 11.25L7.5 12.9167L8.33333 10L5.83333 8.33333H8.75L10 5.41667L11.25 8.33333H14.1667L11.6667 10L12.5 12.9167Z" fill="currentColor"/>
</svg>
