<svg width="24" height="24" viewBox="0 0 24 24" fill="none" xmlns="http://www.w3.org/2000/svg">
<g clip-path="url(#clip0_7478_86341)">
<path d="M17.1585 6.84375C16.7686 6.45366 16.5403 5.93075 16.5192 5.37958C16.4982 4.8284 16.686 4.28961 17.0451 3.87094C17.0748 3.83612 17.0902 3.79136 17.0883 3.74563C17.0864 3.69991 17.0673 3.65659 17.0348 3.62438L14.9662 1.55344C14.932 1.51926 14.8856 1.50006 14.8373 1.50006C14.7889 1.50006 14.7426 1.51926 14.7084 1.55344L11.4112 4.85063C11.2895 4.97223 11.1979 5.12053 11.1435 5.28375C11.0894 5.44733 10.9978 5.59605 10.8762 5.7181C10.7546 5.84015 10.6062 5.93217 10.4428 5.98688C10.2794 6.0413 10.131 6.13292 10.0092 6.25453L1.55338 14.7084C1.5192 14.7426 1.5 14.789 1.5 14.8373C1.5 14.8857 1.5192 14.9321 1.55338 14.9663L3.62197 17.0348C3.65419 17.0673 3.6975 17.0865 3.74323 17.0884C3.78895 17.0903 3.83371 17.0749 3.86853 17.0452C4.28711 16.6857 4.82603 16.4976 5.37739 16.5185C5.92875 16.5394 6.45187 16.7678 6.84203 17.1579C7.23218 17.5481 7.46057 18.0712 7.48148 18.6226C7.50239 19.1739 7.31427 19.7128 6.95478 20.1314C6.92508 20.1662 6.90964 20.211 6.91155 20.2567C6.91347 20.3024 6.93259 20.3458 6.9651 20.378L9.03369 22.4466C9.06788 22.4807 9.11425 22.4999 9.1626 22.4999C9.21094 22.4999 9.25731 22.4807 9.2915 22.4466L17.7478 13.9908C17.8694 13.8689 17.961 13.7205 18.0154 13.5572C18.0696 13.3936 18.1611 13.2449 18.2827 13.1228C18.4044 13.0008 18.5528 12.9088 18.7162 12.8541C18.8794 12.7997 19.0277 12.7081 19.1493 12.5864L22.4465 9.28922C22.4807 9.25503 22.4999 9.20866 22.4999 9.16031C22.4999 9.11197 22.4807 9.0656 22.4465 9.03141L20.3779 6.96281C20.3457 6.93031 20.3024 6.91118 20.2567 6.90927C20.2109 6.90736 20.1662 6.9228 20.1313 6.9525C19.7133 7.31221 19.1748 7.50084 18.6236 7.48067C18.0725 7.46051 17.5492 7.23304 17.1585 6.84375Z" stroke="#B6BCCB" stroke-width="1.5" stroke-miterlimit="10"/>
<path d="M11.7422 6.58313L10.9683 5.80922M13.8056 8.64656L13.2895 8.13094M15.869 10.7105L15.3534 10.1944M18.1908 13.0317L17.4169 12.2578" stroke="#B6BCCB" stroke-width="1.5" stroke-miterlimit="10" stroke-linecap="round"/>
</g>
<defs>
<clipPath id="clip0_7478_86341">
<rect width="24" height="24" fill="white"/>
</clipPath>
</defs>
</svg>
