<svg width="24" height="24" viewBox="0 0 24 24" fill="none" xmlns="http://www.w3.org/2000/svg">
<path d="M9.22 12.82L9.22 7.2L4.81 7.2C4.06 7.2 3.35 7.49 2.82 8.02C2.3 8.55 2 9.26 2 10.01C2 10.76 2.29 11.47 2.82 12C3.35 12.52 4.07 12.82 4.81 12.82L9.22 12.82ZM9.22 12.82L9.22 18.44H9.21C9.21 18.44 9.21 20.04 7.61 20.04C6.01 20.04 6.01 18.44 6.01 18.44L6.01 12.82L9.22 12.82ZM19.59 10.02H22M19.59 7.21L22 6.41M19.59 12.82L22 13.62M16.84 16.44L9.22 12.83L9.22 7.21L16.84 4V16.44Z" stroke="#72C3EE" stroke-width="1.5" stroke-linecap="round" stroke-linejoin="round"/>
</svg>
