<svg width="95" height="71" viewBox="0 0 95 71" fill="none" xmlns="http://www.w3.org/2000/svg">
    <mask id="mask0_530_8749" style="mask-type:luminance" maskUnits="userSpaceOnUse" x="0" y="0"
        width="95" height="71">
        <path d="M95 0H0V71H95V0Z" fill="white" />
    </mask>
    <g mask="url(#mask0_530_8749)">
        <path d="M0 0V23.4931V24.0132V46.9868V47.5069V71H95V47.5069V46.9868V24.0132V23.4931V0H0Z"
            fill="#00008B" />
        <path
            d="M25 41L27.0027 45.9147L32.2178 44.3671L29.5 48.9482L34 51.9329L28.6089 52.7307L29.0054 58L25 54.4143L20.9946 58L21.3919 52.7307L16 51.9329L20.5 48.9482L17.783 44.3671L22.9973 45.9147L25 41Z"
            fill="white" />
        <path
            d="M64.6515 24.5767L65.2747 26.1548L66.8979 25.6577L66.0524 27.1288L67.4533 28.087L65.775 28.3434L65.8985 30.035L64.6515 28.884L63.4044 30.035L63.5279 28.3434L61.8496 28.087L63.2505 27.1288L62.4044 25.6577L64.0276 26.1548L64.6515 24.5767Z"
            fill="white" />
        <path
            d="M77.4737 9.98389L78.0976 11.5614L79.7208 11.065L78.8747 12.536L80.2756 13.4942L78.5973 13.75L78.7208 15.4422L77.4737 14.2912L76.2267 15.4422L76.3502 13.75L74.6719 13.4942L76.0728 12.536L75.2273 11.065L76.8505 11.5614L77.4737 9.98389Z"
            fill="white" />
        <path
            d="M88.589 21.8477L89.2122 23.4252L90.836 22.9287L89.9899 24.3998L91.3908 25.358L89.7125 25.6144L89.836 27.306L88.589 26.155L87.3419 27.306L87.4654 25.6144L85.7871 25.358L87.188 24.3998L86.3419 22.9287L87.9658 23.4252L88.589 21.8477Z"
            fill="white" />
        <path
            d="M79.8823 30L80.3993 31.2542L81.7646 31.3532L80.7189 32.2273L81.0456 33.5427L79.8823 32.8287L78.719 33.5427L79.0457 32.2273L78 31.3532L79.3653 31.2542L79.8823 30Z"
            fill="white" />
        <path
            d="M77.4737 45.8203L78.0976 47.3985L79.7208 46.9014L78.8747 48.3724L80.2756 49.3307L78.5973 49.5871L78.7208 51.2786L77.4737 50.1276L76.2267 51.2786L76.3502 49.5871L74.6719 49.3307L76.0728 48.3724L75.2273 46.9014L76.8505 47.3985L77.4737 45.8203Z"
            fill="white" />
        <mask id="mask1_530_8749" style="mask-type:luminance" maskUnits="userSpaceOnUse" x="0" y="0"
            width="53" height="29">
            <path d="M52.832 0.188965H0V28.8848H52.832V0.188965Z" fill="white" />
        </mask>
        <g mask="url(#mask1_530_8749)">
            <path
                d="M52.3255 31.8507L-5.58398 0.396644L-3.06775 -4.99805L54.8417 26.4566L52.3255 31.8507Z"
                fill="white" />
            <path
                d="M52.7981 30.8396L-5.11133 -0.614453L-4.37666 -2.18945L53.5328 29.2646L52.7981 30.8396Z"
                fill="#FF0000" />
            <mask id="mask2_530_8749" style="mask-type:luminance" maskUnits="userSpaceOnUse" x="26"
                y="8" width="31" height="26">
                <path d="M56.5159 8.48438H26.6758V33.8286H56.5159V8.48438Z" fill="white" />
            </mask>
            <g mask="url(#mask2_530_8749)">
                <path
                    d="M-3.06775 -4.99805L54.8417 26.4566L52.3255 31.8507L-5.58398 0.396644L-3.06775 -4.99805Z"
                    fill="white" />
                <path
                    d="M-3.53877 -3.98682L54.3707 27.4672L53.636 29.0422L-4.27344 -2.41182L-3.53877 -3.98682Z"
                    fill="#FF0000" />
            </g>
            <mask id="mask3_530_8749" style="mask-type:luminance" maskUnits="userSpaceOnUse" x="-3"
                y="-3" width="31" height="34">
                <path d="M27.0363 -2.18945H-2.05273V30.0899H27.0363V-2.18945Z" fill="white" />
            </mask>
            <g mask="url(#mask3_530_8749)">
                <path
                    d="M52.3255 31.8507L-5.58398 0.396644L-3.06775 -4.99805L54.8417 26.4566L52.3255 31.8507Z"
                    fill="white" />
                <path
                    d="M52.7981 30.8396L-5.11133 -0.614453L-4.37666 -2.18945L53.5328 29.2646L52.7981 30.8396Z"
                    fill="#FF0000" />
            </g>
            <mask id="mask4_530_8749" style="mask-type:luminance" maskUnits="userSpaceOnUse" x="26"
                y="8" width="31" height="26">
                <path d="M56.5159 8.48438H26.6758V33.8286H56.5159V8.48438Z" fill="white" />
            </mask>
            <g mask="url(#mask4_530_8749)">
                <path
                    d="M-3.06775 -4.99805L54.8417 26.4566L52.3255 31.8507L-5.58398 0.396644L-3.06775 -4.99805Z"
                    fill="white" />
                <path
                    d="M-3.53877 -3.98682L54.3707 27.4672L53.636 29.0422L-4.27344 -2.41182L-3.53877 -3.98682Z"
                    fill="#FF0000" />
            </g>
            <mask id="mask5_530_8749" style="mask-type:luminance" maskUnits="userSpaceOnUse" x="-3"
                y="-3" width="31" height="34">
                <path d="M27.0363 -2.18945H-2.05273V30.0899H27.0363V-2.18945Z" fill="white" />
            </mask>
            <g mask="url(#mask5_530_8749)">
                <path
                    d="M52.3255 31.8507L-5.58398 0.396644L-3.06775 -4.99805L54.8417 26.4566L52.3255 31.8507Z"
                    fill="white" />
                <path
                    d="M52.7981 30.8396L-5.11133 -0.614453L-4.37666 -2.18945L53.5328 29.2646L52.7981 30.8396Z"
                    fill="#FF0000" />
            </g>
            <mask id="mask6_530_8749" style="mask-type:luminance" maskUnits="userSpaceOnUse" x="27"
                y="-2" width="27" height="36">
                <path d="M53.1554 -1.48633H27.4883V33.8296H53.1554V-1.48633Z" fill="white" />
            </mask>
            <g mask="url(#mask6_530_8749)">
                <path
                    d="M56.6087 -4.99805L-1.30078 26.4566L1.21609 31.8507L59.1249 0.396644L56.6087 -4.99805Z"
                    fill="white" />
                <path
                    d="M57.0813 -3.98682L-0.828125 27.4672L-0.0934583 29.0422L57.816 -2.41182L57.0813 -3.98682Z"
                    fill="#FF0000" />
            </g>
            <mask id="mask7_530_8749" style="mask-type:luminance" maskUnits="userSpaceOnUse" x="-2"
                y="-3" width="31" height="34">
                <path d="M28.037 -2.18945H-1.51562V30.0899H28.037V-2.18945Z" fill="white" />
            </mask>
            <g mask="url(#mask7_530_8749)">
                <path
                    d="M1.21804 31.8507L59.1269 0.396644L56.6106 -4.99805L-1.29883 26.4566L1.21804 31.8507Z"
                    fill="white" />
                <path
                    d="M0.746385 30.8396L58.6558 -0.614453L57.9212 -2.18945L0.0117188 29.2646L0.746385 30.8396Z"
                    fill="#FF0000" />
            </g>
            <path d="M53.3495 9.71436H0V19.2708H53.3495V9.71436Z" fill="white" />
            <path d="M30.9764 0.0991211H22.1211V28.8845H30.9764V0.0991211Z" fill="white" />
            <path d="M29.3079 0.0991211H23.7891V28.8845H29.3079V0.0991211Z" fill="#FF0000" />
            <path d="M53.3495 11.5146H0V17.4694H53.3495V11.5146Z" fill="#FF0000" />
        </g>
    </g>
</svg>
