<svg width="16" height="16" viewBox="0 0 16 16" fill="none" xmlns="http://www.w3.org/2000/svg">
<path fill-rule="evenodd" clip-rule="evenodd" d="M9.95718 1.9967C8.66129 1.77998 7.33841 1.77998 6.04252 1.9967L5.77718 2.0407C4.53918 2.2487 3.70185 3.36536 3.85052 4.56336L3.86252 4.66003C3.87385 4.7507 3.95585 4.83336 4.07118 4.83336L11.9285 4.83336C11.9784 4.8345 12.0269 4.81758 12.0653 4.78572C12.1036 4.75387 12.1292 4.70923 12.1372 4.66003L12.1492 4.56336C12.2979 3.36536 11.4605 2.2487 10.2225 2.0407L9.95718 1.9967ZM10.6185 5.83336H11.9285C12.5318 5.83336 13.0545 5.3907 13.1298 4.78336L13.1418 4.6867C13.3585 2.93936 12.1365 1.34803 10.3885 1.0547L10.1232 1.01003C8.7174 0.774814 7.2823 0.774814 5.87652 1.01003L5.61185 1.0547C3.86318 1.34803 2.64118 2.93936 2.85852 4.6867L2.86985 4.78336C2.90798 5.07461 3.05104 5.34195 3.27221 5.53525C3.49337 5.72856 3.77745 5.83455 4.07118 5.83336L5.38118 5.83336L4.26785 11.032C4.22388 11.0902 4.19315 11.1573 4.17784 11.2285C4.16252 11.2998 4.16298 11.3736 4.17918 11.4447L3.51118 14.562C3.48342 14.6917 3.50832 14.8271 3.5804 14.9385C3.65247 15.0498 3.76583 15.1279 3.89552 15.1557C4.02521 15.1835 4.16061 15.1586 4.27195 15.0865C4.38328 15.0144 4.46142 14.9011 4.48918 14.7714L5.11852 11.8334L10.8812 11.8334L11.5112 14.7714C11.5389 14.9011 11.6171 15.0144 11.7284 15.0865C11.8398 15.1586 11.9752 15.1835 12.1048 15.1557C12.2345 15.1279 12.3479 15.0498 12.42 14.9385C12.492 14.8271 12.5169 14.6917 12.4892 14.562L11.8205 11.4447C11.8368 11.3737 11.8374 11.2999 11.8222 11.2286C11.807 11.1573 11.7764 11.0902 11.7325 11.032L10.6185 5.83336ZM9.59585 5.83336L6.40385 5.83336L5.33318 10.8334L10.6679 10.8334L9.59585 5.83336Z" fill="#B6BCCB"/>
</svg>
