<svg width="24" height="24" viewBox="0 0 24 24" fill="none" xmlns="http://www.w3.org/2000/svg">
<g clip-path="url(#clip0_3229_34335)">
<path fill-rule="evenodd" clip-rule="evenodd" d="M10.4601 5.39149V5.47791C10.23 5.39656 9.98374 5.37162 9.74202 5.40518C9.50029 5.43874 9.27015 5.52982 9.07092 5.67077C8.8717 5.81172 8.70921 5.99843 8.59711 6.2152C8.48501 6.43198 8.42657 6.67249 8.42669 6.91653V7.5113C8.19661 7.42995 7.95036 7.40501 7.70863 7.43857C7.46691 7.47212 7.23677 7.56321 7.03754 7.70416C6.83832 7.84511 6.67583 8.03181 6.56373 8.24859C6.45162 8.46536 6.39318 8.70587 6.39331 8.94991V14.8086C6.39331 17.7494 8.77745 20.1335 11.7182 20.1335C13.5671 20.1335 15.2838 19.1743 16.2527 17.5994L19.1686 12.8616C19.3718 12.5296 19.4406 12.1325 19.361 11.7514C19.2814 11.3703 19.0593 11.034 18.7402 10.8111C18.421 10.5882 18.0288 10.4955 17.6436 10.552C17.2584 10.6085 16.9093 10.8098 16.6675 11.115L15.5435 12.5404V6.91653C15.5437 6.67249 15.4852 6.43198 15.3731 6.2152C15.261 5.99843 15.0985 5.81172 14.8993 5.67077C14.7001 5.52982 14.4699 5.43874 14.2282 5.40518C13.9865 5.37162 13.7402 5.39656 13.5102 5.47791V5.39149C13.5102 4.98703 13.3495 4.59913 13.0635 4.31313C12.7775 4.02713 12.3896 3.86646 11.9851 3.86646C11.5807 3.86646 11.1928 4.02713 10.9068 4.31313C10.6208 4.59913 10.4601 4.98703 10.4601 5.39149ZM12.4935 5.39149C12.4935 5.25667 12.4399 5.12737 12.3446 5.03204C12.2492 4.9367 12.1199 4.88315 11.9851 4.88315C11.8503 4.88315 11.721 4.9367 11.6257 5.03204C11.5303 5.12737 11.4768 5.25667 11.4768 5.39149V11.4916H10.4601V6.91653C10.4601 6.78171 10.4065 6.65241 10.3112 6.55708C10.2159 6.46174 10.0866 6.40818 9.95173 6.40818C9.81691 6.40818 9.68761 6.46174 9.59228 6.55708C9.49694 6.65241 9.44339 6.78171 9.44339 6.91653V12.5083H8.42669V8.94991C8.42669 8.81509 8.37314 8.68579 8.2778 8.59046C8.18247 8.49513 8.05317 8.44157 7.91835 8.44157C7.78353 8.44157 7.65423 8.49513 7.55889 8.59046C7.46356 8.68579 7.41 8.81509 7.41 8.94991V14.8086C7.41012 15.7465 7.71631 16.6588 8.28209 17.4069C8.84787 18.155 9.64232 18.698 10.5448 18.9534C11.4473 19.2089 12.4085 19.1629 13.2824 18.8223C14.1563 18.4818 14.8953 17.8654 15.387 17.0667L18.3028 12.3289C18.3714 12.2177 18.3949 12.0846 18.3684 11.9567C18.3419 11.8288 18.2675 11.7159 18.1604 11.6411C18.0533 11.5663 17.9216 11.5353 17.7925 11.5545C17.6633 11.5737 17.5463 11.6416 17.4656 11.7443L16.3421 13.1697C15.7448 13.9271 14.5268 13.5052 14.5268 12.5404V6.91653C14.5268 6.78171 14.4733 6.65241 14.378 6.55708C14.2826 6.46174 14.1533 6.40818 14.0185 6.40818C13.8837 6.40818 13.7544 6.46174 13.659 6.55708C13.5637 6.65241 13.5102 6.78171 13.5102 6.91653V11.4916H12.4935V5.39149Z" fill="#B6BCCB"/>
<path fill-rule="evenodd" clip-rule="evenodd" d="M12 0C18.6276 0 24 5.3724 24 12C24 18.6276 18.6276 24 12 24C5.3724 24 0 18.6276 0 12C0 5.3724 5.3724 0 12 0ZM22.8 12C22.8 6.0354 17.9646 1.2 12 1.2C6.0354 1.2 1.2 6.0354 1.2 12C1.2 17.9646 6.0354 22.8 12 22.8C17.9646 22.8 22.8 17.9646 22.8 12Z" fill="#B6BCCB"/>
</g>
<defs>
<clipPath id="clip0_3229_34335">
<rect width="24" height="24" fill="white"/>
</clipPath>
</defs>
</svg>
