<svg width="24" height="24" viewBox="0 0 24 24" fill="none" xmlns="http://www.w3.org/2000/svg">
    <path
        d="M11.1491 20.631L11.1378 20.3923C11.1145 20.1547 11.0563 19.9211 10.9647 19.6998C10.8426 19.4049 10.6631 19.1368 10.4374 18.9111C10.2117 18.6856 9.94358 18.5059 9.64876 18.3839C9.35393 18.2619 9.03773 18.1993 8.71867 18.1994C8.68067 18.1995 8.64337 18.1962 8.60665 18.1915L1.57217 18.1915C1.09228 18.1915 0.703248 17.8024 0.703186 17.3225L0.703186 3.36899C0.703211 2.88908 1.09226 2.5 1.57217 2.5L8.46182 2.5C9.82121 2.5 10.9495 3.08769 11.7205 4.03204C11.8298 4.16588 11.9299 4.307 12.0238 4.45295C12.1486 4.28033 12.2857 4.11545 12.4345 3.95962C13.2983 3.05492 14.4856 2.52954 15.7362 2.5L22.4278 2.5C22.9077 2.5 23.2968 2.88907 23.2968 3.36899L23.2968 17.3225C23.2967 17.8024 22.9077 18.1915 22.4278 18.1915L15.4307 18.1915C15.394 18.1962 15.3567 18.1994 15.3187 18.1994C14.9994 18.1993 14.6824 18.2618 14.3874 18.3839C14.0926 18.506 13.8245 18.6855 13.5988 18.9111C13.3732 19.1368 13.1947 19.405 13.0726 19.6998C12.9505 19.9948 12.8869 20.3118 12.8871 20.631C12.8869 21.1108 12.4979 21.5 12.0181 21.5C11.5385 21.4998 11.1493 21.1106 11.1491 20.631ZM15.4839 4.25947C14.8035 4.34309 14.1692 4.65901 13.6916 5.159C13.1458 5.73062 12.8488 6.49607 12.8667 7.28621L12.8667 17.2592C13.1318 17.0664 13.419 16.9042 13.7233 16.7783C14.1893 16.5854 14.6862 16.4803 15.1897 16.4649C15.2332 16.4582 15.2778 16.4535 15.3232 16.4535L21.5588 16.4535L21.5588 4.23797L15.778 4.23797L15.4839 4.25947ZM2.44116 16.4535L8.87934 16.4535C8.94665 16.4535 9.01218 16.4628 9.07509 16.4773C9.50034 16.5137 9.91841 16.6145 10.3141 16.7783C10.6025 16.8977 10.8752 17.0501 11.1287 17.2298L11.1287 7.50911L11.1152 7.1493C11.0533 6.32681 10.7803 5.62831 10.374 5.13072C9.92194 4.57701 9.28183 4.23797 8.46182 4.23797L2.44116 4.23797L2.44116 16.4535ZM8.29662 11.5881L8.38601 11.5927C8.82386 11.6374 9.16547 12.0075 9.16561 12.4571C9.16561 12.9069 8.82392 13.2768 8.38601 13.3216L8.29662 13.3261L4.77769 13.3261C4.29776 13.3261 3.9087 12.937 3.9087 12.4571C3.90884 11.9773 4.29785 11.5881 4.77769 11.5881L8.29662 11.5881ZM19.0956 11.5881L19.1838 11.5927C19.6222 11.6369 19.9644 12.0071 19.9646 12.4571C19.9646 12.9072 19.6223 13.2773 19.1838 13.3216L19.0956 13.3261L15.6072 13.3261C15.1273 13.326 14.7382 12.937 14.7382 12.4571C14.7383 11.9774 15.1274 11.5882 15.6072 11.5881L19.0956 11.5881ZM8.29662 7.24887L8.38601 7.25339C8.82382 7.29812 9.16539 7.66829 9.16561 8.11785C9.16561 8.56758 8.82391 8.93753 8.38601 8.98231L8.29662 8.98684L4.77769 8.98684C4.29776 8.98684 3.9087 8.59778 3.9087 8.11785C3.90893 7.63812 4.2979 7.24887 4.77769 7.24887L8.29662 7.24887ZM19.0854 7.24887C19.5652 7.24887 19.9541 7.63812 19.9544 8.11785C19.9544 8.59778 19.5653 8.98684 19.0854 8.98684L15.6004 8.98684C15.1205 8.98684 14.7314 8.59778 14.7314 8.11785C14.7316 7.63812 15.1206 7.24887 15.6004 7.24887L19.0854 7.24887Z"
        fill="#FFFFFF" />
</svg>