<svg width="15" height="11" viewBox="0 0 15 11" fill="none" xmlns="http://www.w3.org/2000/svg">
<path d="M3.12067 9.41671L11.7127 9.41671C12.3414 9.41671 12.9444 9.16694 13.389 8.72236C13.8336 8.27777 14.0833 7.67478 14.0833 7.04604L14.0833 5.41671C14.0833 5.06309 13.9429 4.72395 13.6928 4.4739C13.4428 4.22385 13.1036 4.08337 12.75 4.08337C12.3964 4.08337 12.0572 4.22385 11.8072 4.4739C11.5571 4.72395 11.4167 5.06309 11.4167 5.41671V6.21671C11.4167 6.35816 11.3605 6.49381 11.2605 6.59383C11.1604 6.69385 11.0248 6.75004 10.8833 6.75004L3.95 6.75004C3.80855 6.75004 3.6729 6.69385 3.57288 6.59383C3.47286 6.49381 3.41667 6.35816 3.41667 6.21671L3.41667 5.41671C3.41667 5.06309 3.27619 4.72395 3.02614 4.4739C2.77609 4.22385 2.43696 4.08337 2.08333 4.08337C1.72971 4.08337 1.39057 4.22385 1.14052 4.4739C0.890476 4.72395 0.75 5.06309 0.75 5.41671L0.75 7.04604C0.75 7.67478 0.999766 8.27777 1.44435 8.72236C1.88894 9.16694 2.49193 9.41671 3.12067 9.41671Z" stroke="#B6BCCB" stroke-width="1.5"/>
<path d="M12.7502 4.08339C12.7502 3.46339 12.7502 3.15406 12.6988 2.89673C12.596 2.3794 12.342 1.9042 11.969 1.53123C11.596 1.15826 11.1208 0.904272 10.6035 0.801394C10.3462 0.750061 10.0368 0.750061 9.41683 0.750061L5.41683 0.750061C4.79683 0.750061 4.4875 0.750061 4.23016 0.801394C3.71283 0.904272 3.23763 1.15826 2.86466 1.53123C2.49169 1.9042 2.23771 2.3794 2.13483 2.89673C2.0835 3.15406 2.0835 3.46339 2.0835 4.08339" stroke="#B6BCCB" stroke-width="1.5"/>
<path d="M12.7502 10.0834V9.41675M2.0835 10.0834V9.41675" stroke="#B6BCCB" stroke-width="1.5" stroke-linecap="round"/>
</svg>

