<svg width="20" height="20" viewBox="0 0 20 20" fill="none" xmlns="http://www.w3.org/2000/svg">
<path d="M2.54159 9.08327H17.5416M15.7916 17.4999H4.12492C3.20825 17.4999 2.45825 16.7499 2.45825 15.8333V6.83327C2.45825 5.91661 3.20825 5.16661 4.12492 5.16661H15.7916C16.7083 5.16661 17.4583 5.91661 17.4583 6.83327V15.8333C17.5416 16.7499 16.7916 17.4999 15.7916 17.4999ZM10.2916 11.9999H9.70825C9.04158 11.9999 8.45825 11.4166 8.45825 10.7499V9.08327H11.6249V10.7499C11.5416 11.4166 11.0416 11.9999 10.2916 11.9999ZM12.5416 2.49994H7.54159C6.87492 2.49994 6.29159 3.08327 6.29159 3.74994V5.16661H13.7916V3.66661C13.7916 2.99994 13.2083 2.49994 12.5416 2.49994Z" stroke="#B6BCCB" stroke-width="1.5" stroke-miterlimit="10" stroke-linejoin="round"/>
</svg>
