<svg width="24" height="24" viewBox="0 0 24 24" fill="none" xmlns="http://www.w3.org/2000/svg">
<path d="M15.28 9.03C15.4125 8.88783 15.4846 8.69978 15.4812 8.50548C15.4777 8.31118 15.399 8.12579 15.2616 7.98838C15.1242 7.85097 14.9388 7.77225 14.7445 7.76883C14.5502 7.7654 14.3622 7.83752 14.22 7.97L10 12.19L8.03 10.22C7.96134 10.1463 7.87854 10.0872 7.78654 10.0462C7.69454 10.0052 7.59523 9.98318 7.49452 9.98141C7.39382 9.97963 7.29379 9.99816 7.2004 10.0359C7.10701 10.0736 7.02218 10.1297 6.95096 10.201C6.87974 10.2722 6.8236 10.357 6.78588 10.4504C6.74816 10.5438 6.72963 10.6438 6.73141 10.7445C6.73319 10.8452 6.75523 10.9445 6.79622 11.0365C6.83721 11.1285 6.89631 11.2113 6.97 11.28L9.47 13.78C9.61063 13.9205 9.80125 13.9993 10 13.9993C10.1988 13.9993 10.3894 13.9205 10.53 13.78L15.28 9.03ZM3 6.25C3 5.38805 3.34241 4.5614 3.9519 3.9519C4.5614 3.34241 5.38805 3 6.25 3H15.75C16.612 3 17.4386 3.34241 18.0481 3.9519C18.6576 4.5614 19 5.38805 19 6.25V15.75C19 16.612 18.6576 17.4386 18.0481 18.0481C17.4386 18.6576 16.612 19 15.75 19H6.25C5.38805 19 4.5614 18.6576 3.9519 18.0481C3.34241 17.4386 3 16.612 3 15.75V6.25ZM6.25 4.5C5.78587 4.5 5.34075 4.68437 5.01256 5.01256C4.68437 5.34075 4.5 5.78587 4.5 6.25V15.75C4.5 16.716 5.284 17.5 6.25 17.5H15.75C16.2141 17.5 16.6592 17.3156 16.9874 16.9874C17.3156 16.6592 17.5 16.2141 17.5 15.75V6.25C17.5 5.78587 17.3156 5.34075 16.9874 5.01256C16.6592 4.68437 16.2141 4.5 15.75 4.5H6.25ZM9.241 21.5C8.69479 21.5003 8.15732 21.3629 7.67825 21.1006C7.19917 20.8382 6.79394 20.4594 6.5 19.999H16.246C16.7389 19.9991 17.2271 19.9022 17.6825 19.7136C18.138 19.5251 18.5518 19.2486 18.9004 18.9001C19.249 18.5516 19.5256 18.1378 19.7142 17.6824C19.9029 17.227 20 16.7389 20 16.246V6.5C20.4602 6.79406 20.8388 7.19934 21.101 7.67841C21.3632 8.15748 21.5004 8.69489 21.5 9.241V16.246C21.5 16.936 21.3641 17.6192 21.1001 18.2566C20.836 18.8941 20.449 19.4733 19.9611 19.9611C19.4733 20.449 18.8941 20.836 18.2566 21.1001C17.6192 21.3641 16.936 21.5 16.246 21.5H9.241Z" fill="#B6BCCB"/>
</svg>
