<svg width="20" height="20" viewBox="0 0 20 20" fill="none" xmlns="http://www.w3.org/2000/svg">
<path d="M9.99996 7.2749C10.4369 7.23862 10.8417 7.03067 11.1257 6.69658C11.4097 6.3625 11.5497 5.92951 11.5151 5.4924C11.5151 4.49564 9.99996 2.08331 9.99996 2.08331C9.99996 2.08331 8.48479 4.49564 8.48479 5.4924C8.45022 5.92951 8.59025 6.3625 8.87423 6.69658C9.15821 7.03067 9.563 7.23862 9.99996 7.2749ZM9.99996 7.2749L9.99971 10.0376M9.99971 10.0376L15.303 10.0378C15.7069 10.0425 16.0927 10.2065 16.3765 10.4941C16.6602 10.7818 16.8188 11.1698 16.818 11.5738V17.9166M9.99971 10.0376L4.69689 10.0376C4.2929 10.0424 3.90712 10.2065 3.62341 10.4941C3.33969 10.7818 3.18098 11.1698 3.18175 11.5738V17.9166M3.18175 12.6629C3.18508 12.6867 3.18837 12.7088 3.1916 12.729C3.22025 12.8896 3.28706 13.041 3.38643 13.1705C3.52847 13.377 3.71861 13.5458 3.94046 13.6625C4.1623 13.7791 4.40919 13.84 4.65983 13.84C4.91046 13.8399 5.15732 13.7789 5.37911 13.6621C5.6009 13.5454 5.79097 13.3765 5.93291 13.1699C6.07484 12.9633 6.26491 12.7944 6.48672 12.6776C6.70853 12.5609 6.95541 12.4999 7.20605 12.4999C7.4567 12.4999 7.70357 12.5609 7.92538 12.6776C8.14719 12.7944 8.33726 12.9633 8.47919 13.1699L8.57321 13.2956C8.7256 13.5175 8.9297 13.699 9.16788 13.8243C9.40606 13.9497 9.67118 14.0152 9.94033 14.0152C10.2095 14.0152 10.4746 13.9497 10.7128 13.8243C10.951 13.699 11.1551 13.5175 11.3075 13.2956L11.3575 13.2288C11.5043 13.0151 11.7009 12.8403 11.9304 12.7195C12.1599 12.5987 12.4153 12.5356 12.6746 12.5356C12.9339 12.5356 13.1893 12.5987 13.4188 12.7195C13.6483 12.8403 13.8449 13.0151 13.9917 13.2288C14.1456 13.4517 14.3535 13.632 14.5959 13.753C14.8383 13.8739 15.1073 13.9315 15.378 13.9204C15.6486 13.9093 15.9121 13.8299 16.1438 13.6896C16.3755 13.5492 16.5679 13.3525 16.703 13.1178C16.7676 12.9823 16.8066 12.836 16.818 12.6863M1.66663 17.9166H18.3333" stroke="#B6BCCB" stroke-width="1.5" stroke-linecap="round" stroke-linejoin="round"/>
</svg>
