<svg width="21" height="20" viewBox="0 0 21 20" fill="none" xmlns="http://www.w3.org/2000/svg">
<path d="M12.5 1.79224C12.9141 1.79241 13.25 2.12813 13.25 2.54224V3.37524H15L15.2471 3.38794C16.4627 3.5124 17.417 4.54475 17.417 5.79224V9.00024H9V9.45923H2.41699V15.7922C2.41725 16.2945 2.83169 16.7092 3.33398 16.7092H9V18.2092H3.33398C2.00326 18.2092 0.917251 17.1229 0.916992 15.7922V5.79224C0.916992 4.46136 2.0031 3.37524 3.33398 3.37524H5.08398V2.54224C5.08398 2.12802 5.41977 1.79224 5.83398 1.79224C6.2479 1.79259 6.58398 2.12824 6.58398 2.54224V3.37524H11.75V2.54224C11.75 2.12813 12.0859 1.79241 12.5 1.79224ZM3.33398 4.87524C2.83153 4.87524 2.41699 5.28978 2.41699 5.79224V7.95923H15.917V5.79224C15.917 5.28989 15.5023 4.87542 15 4.87524H13.25V5.87524C13.2497 6.28913 12.9139 6.62507 12.5 6.62524C12.0861 6.62507 11.7503 6.28913 11.75 5.87524V4.87524H6.58398V5.87524C6.58373 6.28902 6.24774 6.62489 5.83398 6.62524C5.41993 6.62524 5.08424 6.28924 5.08398 5.87524V4.87524H3.33398Z" fill="#B6BCCB"/>
<path d="M8.59386 8.67315C10.3889 7.44247 12.606 8.02062 13.8028 9.4212C14.9996 8.02058 17.2167 7.44938 19.0118 8.67315C19.9638 9.32596 20.5618 10.4283 20.6026 11.5843C20.6909 14.2226 18.3591 16.3378 14.7892 19.5745L14.714 19.6419C14.1972 20.1179 13.4017 20.1179 12.8849 19.6487L12.8165 19.5882C9.24661 16.3447 6.908 14.2294 7.00304 11.5911C7.04384 10.4283 7.64185 9.32596 8.59386 8.67315ZM16.5958 9.72491C15.6095 9.72491 14.6487 10.3592 14.3155 11.2366H13.1183C12.7788 10.3592 11.8175 9.72491 10.8312 9.72491C9.55016 9.72492 8.58897 10.6861 8.58897 11.9671C8.58899 13.8182 10.6007 15.644 13.6495 18.4046L13.713 18.4681L13.7775 18.4046C16.8263 15.644 18.838 13.8182 18.838 11.9671C18.838 10.6861 17.8768 9.72494 16.5958 9.72491Z" fill="#B6BCCB"/>
</svg>
