<svg width="300" height="300" viewBox="0 0 300 300" fill="none" xmlns="http://www.w3.org/2000/svg">
<g clip-path="url(#clip0_7823_34839)">
<mask id="mask0_7823_34839" style="mask-type:luminance" maskUnits="userSpaceOnUse" x="0" y="0" width="300" height="300">
<path d="M300 0H0V300H300V0Z" fill="white"/>
</mask>
<g mask="url(#mask0_7823_34839)">
<path d="M73.4258 250.349V75.6481C73.4258 64.6024 82.3802 55.6481 93.4258 55.6481H190.926C201.971 55.6481 210.926 64.6024 210.926 75.6481V250.351L73.4258 250.349Z" fill="#12636F"/>
<path d="M88.0708 250.308V75.6482C88.0708 65.9988 95.9214 58.1482 105.571 58.1482H190.571C200.22 58.1482 208.071 65.9988 208.071 75.6482V250.352L88.0708 250.308Z" fill="#C6D8F6"/>
<path d="M190.571 60.6481C198.843 60.6481 205.571 67.3768 205.571 75.6481V250.354L90.5713 250.323V75.6481C90.5713 67.3768 97.3 60.6481 105.571 60.6481H190.571ZM190.571 55.6481H105.571C94.5257 55.6481 85.5713 64.6024 85.5713 75.6481V250.308L210.571 250.354V75.6481C210.571 64.6024 201.617 55.6481 190.571 55.6481Z" fill="#41D3BD"/>
<path d="M132.176 70.6481C132.176 67.8868 134.415 65.6481 137.176 65.6481H164.676C167.437 65.6481 169.676 67.8868 169.676 70.6481C169.676 73.4093 167.437 75.6481 164.676 75.6481H137.176C134.415 75.6481 132.176 73.4093 132.176 70.6481Z" fill="#12636F"/>
<path d="M45.0928 252.731C45.0928 251.581 46.0257 250.648 47.1761 250.648H268.009C269.16 250.648 270.093 251.581 270.093 252.731C270.093 253.882 269.16 254.815 268.009 254.815H47.1761C46.0257 254.815 45.0928 253.882 45.0928 252.731Z" fill="#FF4C00"/>
<path d="M239.695 200.222V219.422C239.695 223.837 236.11 227.422 231.695 227.422H135.695C131.28 227.422 127.695 223.837 127.695 219.422V200.222C127.695 195.807 131.28 192.222 135.695 192.222H231.695C236.11 192.222 239.695 195.807 239.695 200.222Z" fill="#2D374D"/>
<path d="M239.695 200.222V219.422C239.695 223.837 236.11 227.422 231.695 227.422H135.695C131.28 227.422 127.695 223.837 127.695 219.422V200.222C127.695 195.807 131.28 192.222 135.695 192.222H231.695C236.11 192.222 239.695 195.807 239.695 200.222Z" fill="#2D374D"/>
<path d="M244.495 200.222V219.422C244.495 223.837 240.91 227.422 236.495 227.422H140.495C136.079 227.422 132.495 223.837 132.495 219.422V200.222C132.495 195.807 136.079 192.222 140.495 192.222H236.495C240.91 192.222 244.495 195.807 244.495 200.222Z" fill="#C6D8F6"/>
<path d="M244.495 200.222V219.422C244.495 223.837 240.91 227.422 236.495 227.422H140.495C136.079 227.422 132.495 223.837 132.495 219.422V200.222C132.495 195.807 136.079 192.222 140.495 192.222H236.495C240.91 192.222 244.495 195.807 244.495 200.222Z" stroke="#2D374D" stroke-width="0.888889"/>
<path d="M182.895 209.822C182.895 211.147 181.819 212.222 180.495 212.222H145.295C143.97 212.222 142.895 211.147 142.895 209.822C142.895 208.498 143.97 207.422 145.295 207.422H180.495C181.819 207.422 182.895 208.498 182.895 209.822Z" fill="#2D374D"/>
<path d="M234.549 209.681C234.549 214.626 230.534 218.641 225.589 218.641H211.253C206.308 218.641 202.293 214.626 202.293 209.681C202.293 204.736 206.308 200.721 211.253 200.721H225.589C230.534 200.721 234.549 204.736 234.549 209.681Z" fill="#2D374D"/>
<path d="M217.973 209.681C217.973 213.389 214.962 216.401 211.253 216.401C207.544 216.401 204.533 213.389 204.533 209.681C204.533 205.972 207.544 202.961 211.253 202.961C214.962 202.961 217.973 205.972 217.973 209.681Z" fill="white"/>
<mask id="mask1_7823_34839" style="mask-type:luminance" maskUnits="userSpaceOnUse" x="88" y="72" width="121" height="121">
<path d="M88.9043 72.7335H208.904V192.734H88.9043V72.7335Z" fill="white"/>
</mask>
<g mask="url(#mask1_7823_34839)">
<path d="M192.104 132.734C192.104 156.592 172.763 175.934 148.904 175.934C125.045 175.934 105.704 156.592 105.704 132.734C105.704 108.875 125.045 89.5336 148.904 89.5336C172.763 89.5336 192.104 108.875 192.104 132.734Z" fill="#5ECF80"/>
<path d="M174.344 122.522V145.761C174.344 150.002 170.906 153.441 166.664 153.441H131.144C126.903 153.441 123.464 150.002 123.464 145.761V122.522C123.464 118.281 126.903 114.842 131.144 114.842H139.172C139.925 114.842 140.594 114.362 140.835 113.648L141.351 112.116C141.772 110.867 142.943 110.026 144.262 110.026H153.547C154.865 110.026 156.036 110.867 156.457 112.116L156.974 113.648C157.214 114.362 157.883 114.842 158.636 114.842H166.664C170.906 114.842 174.344 118.281 174.344 122.522Z" fill="#1DB29C"/>
<path d="M173.467 122.737V145.546C173.467 149.422 170.325 152.446 166.449 152.446H131.359C127.483 152.446 124.341 149.422 124.341 145.546V122.737C124.341 118.861 127.483 115.72 131.359 115.72H139.978C140.729 115.72 141.397 115.24 141.639 114.528L142.266 112.682C142.627 111.614 143.63 110.894 144.757 110.894H153.051C154.179 110.894 155.181 111.614 155.543 112.682L156.169 114.528C156.411 115.24 157.079 115.72 157.831 115.72H166.449C170.325 115.72 173.467 118.861 173.467 122.737Z" fill="white"/>
<path d="M166.449 152.446H131.359C127.484 152.446 124.342 149.422 124.342 145.546V134.141H173.467V145.546C173.467 149.422 170.325 152.446 166.449 152.446Z" fill="#41D3BD"/>
<path d="M169.979 120.523C169.979 121.614 169.095 122.497 168.005 122.497C166.915 122.497 166.031 121.614 166.031 120.523C166.031 119.433 166.915 118.55 168.005 118.55C169.095 118.55 169.979 119.433 169.979 120.523Z" fill="#41D3BD"/>
<path d="M160.153 133.983C160.153 140.262 155.063 145.353 148.784 145.353C142.505 145.353 137.415 140.262 137.415 133.983C137.415 127.705 142.505 122.614 148.784 122.614C155.063 122.614 160.153 127.705 160.153 133.983Z" fill="#2D374D"/>
<path d="M156.533 133.952C156.533 138.222 153.072 141.683 148.802 141.683C144.533 141.683 141.071 138.222 141.071 133.952C141.071 129.683 144.533 126.221 148.802 126.221C153.072 126.221 156.533 129.683 156.533 133.952Z" fill="#41D3BD"/>
<path d="M149.993 128.947C149.993 129.366 149.654 129.705 149.235 129.705C146.521 129.705 144.435 131.791 144.435 134.505C144.435 134.924 144.096 135.263 143.677 135.263C143.257 135.263 142.919 134.924 142.919 134.505C142.919 131.016 145.746 128.189 149.235 128.189C149.654 128.189 149.993 128.527 149.993 128.947Z" fill="white"/>
</g>
</g>
</g>
<defs>
<clipPath id="clip0_7823_34839">
<rect width="300" height="300" fill="white"/>
</clipPath>
</defs>
</svg>
