<svg width="24" height="24" viewBox="0 0 24 24" fill="none" xmlns="http://www.w3.org/2000/svg">
<path d="M21 12C21 7.02944 16.9706 3 12 3C7.02944 3 3 7.02944 3 12C3 16.9706 7.02944 21 12 21V22C6.47715 22 2 17.5228 2 12C2 6.47715 6.47715 2 12 2C17.5228 2 22 6.47715 22 12C22 17.5228 17.5228 22 12 22V21C16.9706 21 21 16.9706 21 12Z" fill="#FF4C00"/>
<path d="M14.1401 6.40088C14.3645 6.40088 14.5464 6.58276 14.5464 6.80713C14.5464 7.03149 14.3645 7.21338 14.1401 7.21338H12.4522V8.05127C13.8524 8.16054 15.1715 8.77172 16.1603 9.78153C17.2406 10.8849 17.8384 12.3723 17.8223 13.9165C17.8222 13.9229 17.8211 13.9292 17.8207 13.9355C17.8216 13.9467 17.8228 13.958 17.8228 13.9694C17.8228 14.1938 17.641 14.3757 17.4166 14.3757H16.512V15.7869H17.4161C17.6404 15.7869 17.8223 15.9688 17.8223 16.1932C17.8223 16.4175 17.6404 16.5994 17.4161 16.5994H6.58325C6.3589 16.5994 6.17703 16.4175 6.177 16.1932C6.177 15.9688 6.35889 15.7869 6.58325 15.7869H7.35238V14.3757H6.69698C6.47263 14.3756 6.29073 14.1938 6.29073 13.9694C6.29073 13.9594 6.29161 13.9496 6.29232 13.9398C6.2918 13.9321 6.29081 13.9243 6.29073 13.9165C6.27465 12.3723 6.87288 10.885 7.95329 9.78153C8.93702 8.77689 10.2474 8.16666 11.6397 8.05286V7.21338H9.95174C9.72738 7.21338 9.54549 7.03149 9.54549 6.80713C9.54549 6.58276 9.72738 6.40088 9.95174 6.40088H14.1401ZM8.16488 15.7869H15.6995V14.3757H8.16488V15.7869ZM12.0565 8.84473C10.7293 8.86002 9.46223 9.40174 8.53357 10.3502C7.68476 11.2172 7.18368 12.3596 7.11328 13.5632H17.0003C16.9299 12.3595 16.4283 11.2172 15.5795 10.3502C14.6508 9.40169 13.3838 8.85996 12.0565 8.84473Z" fill="#FF4C00"/>
</svg>
