<svg width="14" height="22" viewBox="0 0 14 22" fill="none" xmlns="http://www.w3.org/2000/svg">
<path d="M6.7498 9C8.35819 9 10.0423 9.30935 11.3631 9.7168H11.3641C12.0786 9.9387 12.6365 10.5155 12.9891 11.124C13.3458 11.74 13.5627 12.5069 13.4832 13.2432L12.0516 13.0879L13.4832 13.2441C13.4402 13.6389 13.2547 13.9752 12.9607 14.2021C12.6805 14.4184 12.3489 14.5 12.0516 14.5H11.7449L13.4715 20.5439C13.5852 20.9422 13.354 21.3569 12.9559 21.4707C12.5576 21.5845 12.1429 21.3543 12.0291 20.9561L10.1844 14.5H3.3162L1.47148 20.9561C1.35768 21.3543 0.942017 21.5845 0.543741 21.4707C0.145576 21.3568 -0.0846835 20.9422 0.0290925 20.5439L1.75565 14.5H1.44804C1.15087 14.5 0.819846 14.418 0.539835 14.2021C0.245999 13.9756 0.0594783 13.6397 0.0163972 13.2441L1.44804 13.0879L0.0163972 13.2432C-0.0631068 12.5069 0.153714 11.74 0.510538 11.124C0.862983 10.5158 1.4208 9.93919 2.13554 9.71777C3.45819 9.30798 5.14166 9.00001 6.7498 9ZM6.7498 10.5C5.31399 10.5 3.78118 10.7782 2.57987 11.1504L2.48905 11.1855C2.27111 11.2862 2.01627 11.5172 1.80839 11.876C1.59314 12.2476 1.48746 12.6598 1.50273 13H11.9969C12.0121 12.6597 11.9066 12.2468 11.6912 11.875C11.4539 11.4655 11.155 11.2226 10.9197 11.1494V11.1484C9.7187 10.7781 8.18488 10.5 6.7498 10.5Z" fill="#B6BCCB"/>
<path d="M7.12971 4.88912e-06C7.96967 4.88912e-06 8.67172 -0.00191468 9.23225 0.0703174C9.74146 0.135936 10.2092 0.270372 10.6151 0.571294L10.785 0.710942L10.9412 0.866216C11.2808 1.23983 11.4601 1.69245 11.576 2.19239C11.7037 2.74297 11.7728 3.44139 11.8563 4.27735L12.4959 10.6758C12.5369 11.0878 12.2361 11.4549 11.824 11.4961C11.4121 11.5371 11.045 11.2362 11.0037 10.8242L10.3631 4.42676C10.2757 3.55119 10.2158 2.96581 10.1151 2.53126C10.0191 2.11744 9.90656 1.93854 9.77815 1.82227C9.64929 1.70619 9.46069 1.61274 9.04085 1.5586C8.59838 1.50158 8.00976 1.5 7.12971 1.5H6.36995C5.48992 1.5 4.90142 1.50158 4.45882 1.5586C4.03734 1.6129 3.84967 1.70722 3.72151 1.82325C3.5931 1.93951 3.48057 2.11744 3.3846 2.53126C3.28386 2.96581 3.22401 3.55119 3.13655 4.42676L2.49592 10.8242C2.45471 11.2362 2.0876 11.5371 1.67561 11.4961C1.26359 11.4549 0.962749 11.0878 1.00374 10.6758L1.64339 4.27735C1.72688 3.44139 1.79601 2.74297 1.92366 2.19239C2.05619 1.62096 2.27208 1.11168 2.71467 0.710942C3.15748 0.310096 3.68574 0.145255 4.26741 0.0703174C4.828 -0.0018668 5.53015 4.88912e-06 6.36995 4.88912e-06H7.12971Z" fill="#B6BCCB"/>
</svg>
