<svg width="20" height="20" viewBox="0 0 20 20" fill="none" xmlns="http://www.w3.org/2000/svg">
<path fill-rule="evenodd" clip-rule="evenodd" d="M17.9761 18.0475L17.4483 18.1611L16.62 14.3085C17.859 13.7657 18.6344 12.4835 18.4714 11.0898L17.7006 4.49815L17.7005 4.49719C17.6766 4.30644 17.6514 4.10974 17.5908 3.92782C17.53 3.74545 17.4299 3.55789 17.24 3.42497C17.0554 3.29572 16.8524 3.24991 16.6536 3.25844C16.4646 3.25884 16.2702 3.30111 16.0911 3.34006L16.0845 3.3415L11.3796 4.35314L11.373 4.35456C11.193 4.39369 10.9978 4.43611 10.8256 4.51363C10.6522 4.59166 10.4742 4.71019 10.3603 4.90951C10.2491 5.10415 10.2222 5.30759 10.2487 5.51324C10.2652 5.69195 10.3193 5.86905 10.371 6.03839L10.3817 6.07324L12.3973 12.4012C12.8149 13.721 14.0265 14.5818 15.3637 14.5818H15.4018L16.2306 18.4372L15.7158 18.548C15.3734 18.6189 15.1676 18.9591 15.2363 19.2935C15.2963 19.593 15.557 19.7925 15.8459 19.7925C15.8801 19.7925 15.9257 19.7925 15.9886 19.7727L16.062 19.7581L18.286 19.2763L18.287 19.2761C18.3358 19.2662 18.3879 19.247 18.4271 19.2225C18.5089 19.1801 18.5676 19.1198 18.6169 19.0625C18.6446 19.0336 18.6592 19.0045 18.6671 18.9885L18.6681 18.9866L18.6733 18.976C18.7613 18.8359 18.7894 18.6663 18.741 18.4911C18.6605 18.1813 18.3623 18.0036 18.0594 18.0475H17.9761ZM12.1732 7.58453L11.5754 5.70574V5.69517L11.5681 5.675C11.5556 5.64064 11.5463 5.60969 11.5384 5.58037C11.5705 5.57272 11.6059 5.56406 11.643 5.554L16.3447 4.54312L16.3486 4.54214C16.3832 4.53351 16.414 4.52716 16.4424 4.52213C16.4471 4.55393 16.4514 4.58837 16.4546 4.62679L16.6955 6.67484C15.858 6.67394 15.2384 7.07168 14.7335 7.39575L14.7194 7.40479C14.3063 7.67208 13.9898 7.87352 13.6012 7.94093C13.2513 7.99791 12.8096 7.93292 12.1732 7.58453ZM11.3894 5.49182C11.4165 5.48408 11.4492 5.47633 11.4857 5.46769L11.5077 5.46247C11.5409 5.45455 11.5769 5.4458 11.6142 5.43561L16.3191 4.42398C16.3575 4.41437 16.3922 4.40732 16.4234 4.4018C16.4344 4.39987 16.4449 4.39813 16.455 4.39653C16.4779 4.39293 16.4988 4.39007 16.518 4.38744L16.5434 4.38391C16.5434 4.38384 16.5434 4.38397 16.5434 4.38391C16.5351 4.38509 16.527 4.3862 16.518 4.38744C16.4659 4.39458 16.4013 4.40344 16.3191 4.42398L11.6142 5.43561C11.5685 5.44809 11.5249 5.45841 11.4857 5.46769C11.4492 5.47633 11.4165 5.48408 11.3894 5.49182ZM15.2931 8.37198C15.3004 8.3673 15.3082 8.36276 15.3155 8.35811L15.2931 8.37198ZM12.4808 8.93605C12.4806 8.93599 12.481 8.93611 12.4808 8.93605V8.93605ZM17.2258 11.2224L16.8433 7.92804C16.3098 7.87063 15.9267 8.10776 15.3991 8.45945L15.3684 8.47991H15.3512C14.8456 8.80402 14.223 9.2025 13.3805 9.2025C13.1596 9.2025 12.9188 9.1773 12.6661 9.11535L13.585 12.0065C13.8791 12.9343 14.8134 13.4767 15.7637 13.2731C16.7058 13.0695 17.3389 12.1878 17.2258 11.2224Z" fill="#B6BCCB"/>
<path fill-rule="evenodd" clip-rule="evenodd" d="M4.23981 18.4798L3.71477 18.3539L4.63456 14.5221C5.98641 14.5687 7.24013 13.7481 7.69605 12.421L9.85254 6.14456L9.85285 6.14364C9.91386 5.96134 9.97623 5.77311 10.0002 5.58285C10.0243 5.39214 10.0152 5.17971 9.90149 4.97774C9.79093 4.78134 9.62775 4.65223 9.44479 4.57391C9.27429 4.49256 9.08074 4.44657 8.9024 4.4042L8.89578 4.40263L4.21625 3.27949L4.20974 3.27794C4.03047 3.23534 3.83618 3.18916 3.64733 3.18454C3.45725 3.17988 3.24554 3.20977 3.05662 3.34021C2.87215 3.46758 2.75992 3.63938 2.69478 3.83622C2.63242 4.00451 2.60458 4.18759 2.57795 4.36263L2.57245 4.39865L1.65241 10.9759C1.45806 12.3464 2.17804 13.6466 3.3836 14.2251L3.41795 14.2415L2.49751 18.0761L1.98539 17.9532C1.64606 17.8691 1.31333 18.0868 1.23057 18.418C1.15517 18.714 1.30388 19.0067 1.56431 19.1316C1.59518 19.1464 1.63628 19.1661 1.70157 19.1755L1.77407 19.194L3.9876 19.7217L3.98859 19.722C4.03688 19.7342 4.09218 19.7394 4.13817 19.7343C4.23019 19.7314 4.30918 19.7025 4.37846 19.6721C4.41599 19.658 4.44167 19.6381 4.45575 19.6271L4.45747 19.6258L4.46675 19.6186C4.60665 19.5302 4.70538 19.3895 4.73756 19.2106C4.79896 18.8965 4.60692 18.6073 4.31487 18.5159L4.23981 18.4798ZM3.53397 6.53622L3.80772 4.58371L3.81229 4.57417L3.8144 4.55282C3.818 4.51643 3.82303 4.48452 3.82854 4.45464C3.86078 4.46163 3.89652 4.46917 3.93429 4.47614L8.61062 5.59858L8.61458 5.5994C8.64943 5.60655 8.68003 5.61418 8.70775 5.6219C8.69822 5.6526 8.68721 5.68552 8.67347 5.72154L8.00477 7.67228C7.25009 7.3092 6.51937 7.39975 5.92398 7.47353L5.90737 7.47559C5.41931 7.53789 5.04682 7.5826 4.66727 7.47526C4.32714 7.37526 3.95698 7.12558 3.53397 6.53622ZM3.73253 4.31037C3.76031 4.31511 3.79313 4.32227 3.82977 4.33026L3.85187 4.33507C3.88529 4.34232 3.92145 4.34997 3.95953 4.35694L8.63906 5.48008C8.67788 5.48805 8.71213 5.49666 8.74273 5.50522C8.75342 5.50821 8.76366 5.51119 8.77349 5.51414C8.79566 5.52078 8.81575 5.52724 8.83421 5.53318L8.85863 5.54098C8.85865 5.54092 8.85861 5.54105 8.85863 5.54098C8.85066 5.53847 8.84285 5.53595 8.83421 5.53318C8.78414 5.51708 8.72203 5.4971 8.63906 5.48008L3.95953 4.35694C3.91289 4.3484 3.86913 4.33885 3.82977 4.33026C3.79313 4.32227 3.76031 4.31511 3.73253 4.31037ZM6.00623 8.59576C6.01483 8.59471 6.02384 8.594 6.0324 8.59294L6.00623 8.59576ZM3.22663 7.88779C3.22649 7.88766 3.22677 7.88792 3.22663 7.88779V7.88779ZM6.51571 12.0017L7.59589 8.86608C7.13978 8.58357 6.69171 8.6316 6.06395 8.72049L6.02744 8.72566L6.01188 8.71819C5.41581 8.79169 4.68218 8.88168 3.92259 8.51723C3.72338 8.42165 3.51721 8.29478 3.31612 8.12959L2.89394 11.1338C2.75783 12.0975 3.36553 12.9907 4.31036 13.2181C5.24786 13.4421 6.20011 12.921 6.51571 12.0017Z" fill="#B6BCCB"/>
<path d="M6.02002 1.22272C6.14547 1.14053 6.30846 1.16098 6.40967 1.26276L6.44873 1.31158L7.21924 2.48346C7.30138 2.60891 7.28184 2.77196 7.18018 2.87311L7.13135 2.91217C7.00588 2.99434 6.84285 2.97384 6.7417 2.87213L6.70264 2.8233L5.93213 1.65143C5.85001 1.52603 5.86963 1.36294 5.97119 1.26178L6.02002 1.22272ZM13.3823 1.3028C13.464 1.17856 13.6214 1.13231 13.7554 1.18561L13.811 1.2149C13.9354 1.2965 13.9816 1.45384 13.9282 1.58795L13.8989 1.64362L13.1284 2.81549C13.0468 2.94004 12.8895 2.98617 12.7554 2.93268L12.6997 2.90436C12.5753 2.82285 12.5293 2.66536 12.5825 2.53131L12.6118 2.47565L13.3823 1.30377V1.3028ZM9.98389 0.524475C10.1573 0.524475 10.2954 0.661641 10.2954 0.835022V2.2403C10.2953 2.41355 10.1572 2.55084 9.98389 2.55084C9.81073 2.55069 9.67348 2.41345 9.67334 2.2403V0.835022C9.67334 0.661735 9.81064 0.524625 9.98389 0.524475Z" fill="#B6BCCB" stroke="#B6BCCB" stroke-width="0.146159"/>
</svg>
