<svg width="25" height="24" viewBox="0 0 25 24" fill="none" xmlns="http://www.w3.org/2000/svg">
<path fill-rule="evenodd" clip-rule="evenodd" d="M12.8196 3C14.5635 3.00193 16.2641 3.54367 17.6879 4.55083C19.1116 5.55799 20.1886 6.98119 20.7711 8.625C21.3502 10.2741 21.4047 12.062 20.927 13.7433C20.4493 15.4246 19.4628 16.9168 18.1031 18.015C16.781 19.0746 15.171 19.7127 13.482 19.8464C11.7929 19.9802 10.1026 19.6034 8.63022 18.765L4.05123 20.9475C3.97647 20.9834 3.89434 21.0014 3.81141 21C3.66264 20.9985 3.52027 20.9393 3.41422 20.835C3.33361 20.7523 3.27976 20.6473 3.25971 20.5336C3.23966 20.4199 3.25433 20.3027 3.30179 20.1975L5.48264 15.6075C4.76276 14.3481 4.38036 12.924 4.37247 11.4734C4.36459 10.0228 4.73149 8.59468 5.43764 7.32749C6.16725 6.01567 7.23426 4.92274 8.5282 4.16187C9.82214 3.40101 11.296 2.99987 12.797 3H12.8196Z" stroke="#C0C0C0" stroke-width="1.5" stroke-linecap="round" stroke-linejoin="round"/>
<path d="M12.8662 12.3749C13.4185 12.3749 13.8662 11.9272 13.8662 11.3749C13.8662 10.8227 13.4185 10.3749 12.8662 10.3749C12.3139 10.3749 11.8662 10.8227 11.8662 11.3749C11.8662 11.9272 12.3139 12.3749 12.8662 12.3749Z" fill="#C0C0C0"/>
<path d="M8.86621 12.3749C9.4185 12.3749 9.86621 11.9272 9.86621 11.3749C9.86621 10.8227 9.4185 10.3749 8.86621 10.3749C8.31393 10.3749 7.86621 10.8227 7.86621 11.3749C7.86621 11.9272 8.31393 12.3749 8.86621 12.3749Z" fill="#C0C0C0"/>
<path d="M16.8662 12.3749C17.4185 12.3749 17.8662 11.9272 17.8662 11.3749C17.8662 10.8227 17.4185 10.3749 16.8662 10.3749C16.3139 10.3749 15.8662 10.8227 15.8662 11.3749C15.8662 11.9272 16.3139 12.3749 16.8662 12.3749Z" fill="#C0C0C0"/>
</svg>
