<svg width="16" height="16" viewBox="0 0 16 16" fill="none" xmlns="http://www.w3.org/2000/svg">
<path d="M9.02637 7.59991C9.02637 7.99992 8.7597 8.26658 8.3597 8.26658C8.02637 8.26658 7.69303 7.99992 7.69303 7.59991C7.69303 7.19991 7.9597 6.93325 8.3597 6.93325C8.7597 6.93325 9.02637 7.19991 9.02637 7.59991Z" fill="#B6BCCB"/>
<path d="M5.69303 8.26658C6.09303 8.26658 6.3597 7.99992 6.3597 7.59991C6.3597 7.19991 6.09303 6.93325 5.69303 6.93325C5.29303 6.93325 5.02637 7.19991 5.02637 7.59991C5.02637 7.99992 5.3597 8.26658 5.69303 8.26658Z" fill="#B6BCCB"/>
<path d="M11.693 7.59991C11.693 7.99992 11.4264 8.26658 11.0264 8.26658C10.693 8.26658 10.3597 7.99992 10.3597 7.59991C10.3597 7.19991 10.6264 6.93325 11.0264 6.93325C11.4264 6.93325 11.693 7.19991 11.693 7.59991Z" fill="#B6BCCB"/>
<path fill-rule="evenodd" clip-rule="evenodd" d="M1.75983 14.2666C1.89316 14.4666 2.09316 14.5333 2.35983 14.5333C2.45744 14.5333 2.55505 14.4976 2.67881 14.4523C2.72406 14.4357 2.77297 14.4178 2.8265 14.3999L5.6265 13.0666C6.6265 13.5999 7.75983 13.7999 8.89316 13.7333C10.0932 13.5999 11.2932 13.1999 12.2265 12.3999C13.2265 11.5333 13.9598 10.4666 14.2932 9.26661C14.6265 7.99995 14.5598 6.73328 14.1598 5.53328C13.6932 4.33328 12.9598 3.33328 11.8932 2.59995C10.8265 1.86661 9.6265 1.46661 8.35983 1.46661C7.29316 1.46661 6.2265 1.79995 5.29316 2.33328C4.35983 2.86661 3.55983 3.66661 3.0265 4.59995C2.49316 5.53328 2.2265 6.53328 2.2265 7.59995C2.2265 8.59995 2.4265 9.53328 2.89316 10.3999L1.55983 13.2666C1.49316 13.4666 1.49316 13.5999 1.49316 13.7999C1.55983 13.9999 1.6265 14.1333 1.75983 14.2666ZM5.69316 3.26661C6.49316 2.79995 7.35983 2.53328 8.29316 2.53328C9.4265 2.53328 10.4265 2.79995 11.2265 3.39995C12.0932 3.99995 12.7598 4.86661 13.0932 5.86661C13.4265 6.86661 13.4265 7.99995 13.1598 8.99995C12.8265 9.99995 12.2265 10.9333 11.4265 11.5999C10.6265 12.2666 9.6265 12.6666 8.6265 12.7333C7.6265 12.7999 6.55983 12.5999 5.69316 12.0666C5.55983 11.9999 5.35983 11.9999 5.2265 12.0666L2.49316 13.3999L3.8265 10.6666C3.89316 10.5333 3.89316 10.3333 3.8265 10.1999C3.4265 9.39995 3.15983 8.53328 3.15983 7.66661C3.15983 6.79995 3.4265 5.93328 3.8265 5.13328C4.29316 4.33328 4.95983 3.66661 5.69316 3.26661Z" fill="#B6BCCB"/>
<rect x="8" width="5.33333" height="5.33333" rx="2.66667" fill="#FF8A8A"/>
</svg>
