<svg width="24" height="22" viewBox="0 0 24 22" fill="none" xmlns="http://www.w3.org/2000/svg">
    <path
        d="M12 14.5937L11.5857 15.2189C11.8368 15.3853 12.1632 15.3853 12.4143 15.2189L12 14.5937ZM15.7027 10.554L16.4341 10.7204C16.4356 10.7134 16.4371 10.7064 16.4385 10.6994L15.7027 10.554ZM15.0683 8.51231L14.5369 9.04168L14.5445 9.04911L15.0683 8.51231ZM13.0822 8.17796L12.7534 7.50385C12.7395 7.51066 12.7257 7.51789 12.7122 7.52555L13.0822 8.17796ZM12 9.17396L11.3805 9.59667C11.5202 9.80145 11.7521 9.92396 12 9.92396C12.2479 9.92396 12.4798 9.80145 12.6195 9.59667L12 9.17396ZM10.9178 8.17796L11.2877 7.52555C11.2742 7.51789 11.2605 7.51066 11.2466 7.50386L10.9178 8.17796ZM8.93168 8.51231L9.4555 9.04917L9.46302 9.04162L8.93168 8.51231ZM8.29725 10.554L7.56148 10.6994C7.56286 10.7064 7.56435 10.7134 7.56594 10.7204L8.29725 10.554ZM6.57764 14.5835C6.68235 14.1828 6.44234 13.773 6.04158 13.6683C5.64082 13.5636 5.23106 13.8036 5.12636 14.2044L6.57764 14.5835ZM4.837 18.2789L4.64291 19.0034C4.83582 19.0551 5.04139 19.0277 5.21404 18.9273C5.38669 18.8269 5.51216 18.6618 5.56264 18.4685L4.837 18.2789ZM1.19409 16.5265C0.79399 16.4193 0.382744 16.6568 0.27555 17.0569C0.168355 17.457 0.405804 17.8682 0.805907 17.9754L1.19409 16.5265ZM17.4963 7.45147C17.3917 7.85225 17.6317 8.26197 18.0325 8.36662C18.4333 8.47127 18.843 8.23121 18.9477 7.83043L17.4963 7.45147ZM19.221 3.81495L19.415 3.09048C19.2221 3.03881 19.0165 3.06623 18.8439 3.16666C18.6712 3.26709 18.5458 3.43223 18.4953 3.62547L19.221 3.81495ZM22.806 5.55142C23.2061 5.65857 23.6173 5.42108 23.7245 5.02096C23.8316 4.62085 23.5941 4.20963 23.194 4.10248L22.806 5.55142ZM19.7058 3.5612C19.4216 3.25986 18.9469 3.24598 18.6456 3.53018C18.3442 3.81438 18.3303 4.28905 18.6145 4.59038L19.7058 3.5612ZM20.184 16.6486L19.5623 16.229L19.561 16.2311L20.184 16.6486ZM8.52765 19.5387C8.1458 19.3782 7.70613 19.5576 7.54561 19.9394C7.3851 20.3213 7.56453 20.761 7.94638 20.9215L8.52765 19.5387ZM4.36966 18.4299C4.65347 18.7316 5.12813 18.7461 5.42982 18.4623C5.73152 18.1784 5.74602 17.7038 5.4622 17.4021L4.36966 18.4299ZM3.90121 5.35039L4.52286 5.76997L4.52414 5.76807L3.90121 5.35039ZM15.5502 2.45752C15.9323 2.61759 16.3717 2.43766 16.5318 2.05562C16.6919 1.67359 16.5119 1.23413 16.1299 1.07405L15.5502 2.45752ZM12.4143 15.2189C13.1395 14.7383 14.0149 14.1536 14.7607 13.4419C15.5087 12.728 16.18 11.8368 16.4341 10.7204L14.9714 10.3876C14.8076 11.1078 14.3585 11.7522 13.725 12.3568C13.0893 12.9636 12.3223 13.4804 11.5857 13.9685L12.4143 15.2189ZM16.4385 10.6994C16.5351 10.2108 16.5082 9.70581 16.3604 9.23021L14.928 9.67532C15.0018 9.91271 15.0152 10.1647 14.967 10.4086L16.4385 10.6994ZM16.3604 9.23021C16.2127 8.7546 15.9486 8.32334 15.5921 7.97551L14.5445 9.04911C14.7224 9.2227 14.8542 9.43793 14.928 9.67532L16.3604 9.23021ZM15.5997 7.983C15.2344 7.61635 14.7637 7.37306 14.2534 7.28714L14.0043 8.76633C14.2062 8.80032 14.3925 8.89658 14.537 9.04162L15.5997 7.983ZM14.2534 7.28714C13.743 7.20123 13.2186 7.277 12.7534 7.50385L13.4109 8.85206C13.595 8.76232 13.8024 8.73234 14.0043 8.76633L14.2534 7.28714ZM12.7122 7.52555C12.1805 7.82705 11.725 8.24635 11.3805 8.75126L12.6195 9.59667C12.8349 9.281 13.1197 9.01886 13.4521 8.83037L12.7122 7.52555ZM12.6195 8.75126C12.275 8.24635 11.8194 7.82705 11.2877 7.52555L10.5478 8.83037C10.8803 9.01886 11.1651 9.281 11.3805 9.59667L12.6195 8.75126ZM11.2466 7.50386C10.7814 7.277 10.257 7.20123 9.74664 7.28714L9.99565 8.76633C10.1975 8.73234 10.405 8.76232 10.589 8.85206L11.2466 7.50386ZM9.74664 7.28714C9.23631 7.37305 8.76557 7.61635 8.40033 7.983L9.46302 9.04162C9.60751 8.89658 9.79374 8.80032 9.99565 8.76633L9.74664 7.28714ZM8.40791 7.9755C8.05141 8.32333 7.78733 8.75458 7.63953 9.2302L9.07197 9.67532C9.14573 9.43794 9.27753 9.22271 9.45545 9.04912L8.40791 7.9755ZM7.63953 9.2302C7.49173 9.70584 7.46491 10.2108 7.56148 10.6994L9.03301 10.4086C8.98482 10.1647 8.9982 9.91269 9.07197 9.67532L7.63953 9.2302ZM7.56594 10.7204C7.81996 11.8368 8.49132 12.728 9.23932 13.4419C9.98505 14.1536 10.8605 14.7383 11.5857 15.2189L12.4143 13.9685C11.6777 13.4804 10.9107 12.9636 10.275 12.3568C9.64154 11.7522 9.19243 11.1078 9.02855 10.3876L7.56594 10.7204ZM5.12636 14.2044L4.11136 18.0894L5.56264 18.4685L6.57764 14.5835L5.12636 14.2044ZM5.03109 17.5545L1.19409 16.5265L0.805907 17.9754L4.64291 19.0034L5.03109 17.5545ZM18.9477 7.83043L19.9467 4.00443L18.4953 3.62547L17.4963 7.45147L18.9477 7.83043ZM19.027 4.53942L22.806 5.55142L23.194 4.10248L19.415 3.09048L19.027 4.53942ZM18.6145 4.59038C20.0707 6.13437 20.958 8.12807 21.1302 10.2434L22.6253 10.1217C22.4254 7.66676 21.3957 5.35302 19.7058 3.5612L18.6145 4.59038ZM21.1302 10.2434C21.3025 12.3588 20.7495 14.4698 19.5623 16.229L20.8057 17.0681C22.1835 15.0264 22.8252 12.5766 22.6253 10.1217L21.1302 10.2434ZM19.561 16.2311C18.3912 17.9768 16.6508 19.2615 14.6379 19.8649L15.0686 21.3017C17.4149 20.5983 19.4436 19.1009 20.8071 17.066L19.561 16.2311ZM14.6379 19.8649C12.625 20.4683 10.4649 20.353 8.52765 19.5387L7.94638 20.9215C10.2044 21.8707 12.7223 22.0051 15.0686 21.3017L14.6379 19.8649ZM5.4622 17.4021C4.00911 15.8574 3.12456 13.8645 2.95386 11.7507L1.45872 11.8714C1.65682 14.3245 2.68334 16.6373 4.36966 18.4299L5.4622 17.4021ZM2.95386 11.7507C2.78315 9.63682 3.33645 7.52778 4.52286 5.76997L3.27955 4.93081C1.90273 6.97075 1.26062 9.41829 1.45872 11.8714L2.95386 11.7507ZM4.52414 5.76807C5.69358 4.02394 7.43257 2.74021 9.44377 2.13635L9.01242 0.699708C6.66824 1.40354 4.64134 2.89982 3.27827 4.93271L4.52414 5.76807ZM9.44377 2.13635C11.455 1.53249 13.6135 1.64602 15.5502 2.45752L16.1299 1.07405C13.8725 0.128198 11.3566 -0.00412464 9.01242 0.699708L9.44377 2.13635Z"
        fill="white" />
</svg>
