<svg width="12" height="16" viewBox="0 0 12 16" fill="none" xmlns="http://www.w3.org/2000/svg">
    <path
        d="M11.2719 8.89661L11.3067 8.90172M11.3067 8.90172C11.3324 8.90793 11.3566 8.91938 11.3777 8.93535C11.3987 8.95132 11.4163 8.97147 11.4293 8.99454C11.4422 9.01761 11.4502 9.04311 11.4529 9.06943C11.4555 9.09575 11.4527 9.12233 11.4446 9.14752L9.71361 14.5332C9.70223 14.5686 9.68084 14.5999 9.65204 14.6234C9.62323 14.6469 9.58824 14.6615 9.55129 14.6655L9.53052 14.6667C9.49682 14.6666 9.46374 14.6577 9.43457 14.6408C9.4054 14.6239 9.38118 14.5997 9.36433 14.5705L8.31137 12.0776M11.3067 8.90172C11.2723 8.8934 11.2363 8.89472 11.2027 8.90554L5.81728 10.6367C5.78187 10.648 5.75049 10.6693 5.72696 10.6981C5.70342 10.7269 5.68873 10.7619 5.68466 10.7988C5.68059 10.8358 5.68731 10.8731 5.70402 10.9063C5.72074 10.9395 5.74671 10.9672 5.77881 10.986L8.31137 12.0776M8.31137 12.0776L8.79449 11.5884M2.59749 6.13621H7.88685M2.59749 8.2988H6.74963M2.59749 10.4614H3.75712M9.93833 7.40302V3.29388C9.93832 2.98251 9.81463 2.68389 9.59445 2.46372C9.37428 2.24355 9.07566 2.11985 8.76429 2.11984H8.24993M2.23445 2.11984H1.72006C1.40869 2.11985 1.11007 2.24355 0.889901 2.46372C0.669728 2.68389 0.546031 2.98251 0.546021 3.29388V11.5122C0.546015 11.6663 0.576379 11.819 0.635378 11.9614C0.694378 12.1039 0.780857 12.2333 0.889877 12.3423C0.998898 12.4514 1.12833 12.5378 1.27077 12.5968C1.41321 12.6558 1.56588 12.6862 1.72006 12.6862H5.14668M3.75712 1.33334H6.74963V3.10014H3.75712V1.33334Z"
        stroke="#FFB700" stroke-linecap="round" stroke-linejoin="round" />
</svg>
