<svg width="24" height="24" viewBox="0 0 24 24" fill="none" xmlns="http://www.w3.org/2000/svg">
<path d="M3.42859 22H20.5714" stroke="#B6BCCB" stroke-width="1.5" stroke-linecap="round" stroke-linejoin="round"/>
<path d="M3.42859 11C3.42859 10.057 3.42859 9.586 3.70764 9.293C3.98668 9.00001 4.43525 9 5.33335 9C6.23145 9 6.68002 9.00001 6.95907 9.293C7.23811 9.586 7.23811 10.057 7.23811 11V17C7.23811 17.943 7.23811 18.414 6.95907 18.707C6.68002 19 6.23145 19 5.33335 19C4.43525 19 3.98668 19 3.70764 18.707C3.42859 18.414 3.42859 17.943 3.42859 17V11ZM10.0953 7C10.0953 6.057 10.0953 5.58601 10.3743 5.293C10.6534 5 11.1019 5 12 5C12.8981 5 13.3466 5 13.6257 5.293C13.9048 5.58601 13.9048 6.057 13.9048 7V17C13.9048 17.943 13.9048 18.414 13.6257 18.707C13.3466 19 12.8981 19 12 19C11.1019 19 10.6534 19 10.3743 18.707C10.0953 18.414 10.0953 17.943 10.0953 17V7ZM16.762 4C16.762 3.05701 16.762 2.58601 17.0409 2.293C17.32 2 17.7686 2 18.6666 2C19.5648 2 20.0134 2 20.2924 2.293C20.5714 2.58601 20.5714 3.05701 20.5714 4V17C20.5714 17.943 20.5714 18.414 20.2924 18.707C20.0134 19 19.5648 19 18.6666 19C17.7686 19 17.32 19 17.0409 18.707C16.762 18.414 16.762 17.943 16.762 17V4Z" stroke="#B6BCCB" stroke-width="1.5"/>
</svg>
