<svg width="20" height="20" viewBox="0 0 20 20" fill="none" xmlns="http://www.w3.org/2000/svg">
<path fill-rule="evenodd" clip-rule="evenodd" d="M10.7812 4.6875C11.5579 4.6875 12.1875 4.0579 12.1875 3.28125C12.1875 2.5046 11.5579 1.875 10.7812 1.875C10.0046 1.875 9.375 2.5046 9.375 3.28125C9.375 4.0579 10.0046 4.6875 10.7812 4.6875ZM9.99954 6.04187C9.94442 6.04185 9.89048 6.04914 9.83884 6.06295L6.51515 6.89388C6.36431 6.93159 6.23295 7.02416 6.1467 7.15353L4.48004 9.65353C4.28856 9.94073 4.36617 10.3288 4.65338 10.5202C4.94058 10.7117 5.32863 10.6341 5.5201 10.3469L7.05273 8.04795L9.22684 7.50443L8.55021 11.5642C8.51702 11.7633 8.58204 11.9662 8.72476 12.1089L11.153 14.5372L12.7744 17.7798C12.9287 18.0885 13.3041 18.2137 13.6129 18.0593C13.9216 17.9049 14.0468 17.5295 13.8924 17.2208L12.2257 13.8875C12.1957 13.8274 12.1561 13.7725 12.1086 13.725L9.83608 11.4525L10.4169 7.96759L12.0581 9.60882C12.1267 9.67743 12.2104 9.72913 12.3024 9.75981L14.8024 10.5931C15.1299 10.7023 15.4838 10.5253 15.593 10.1979C15.7021 9.87039 15.5252 9.51644 15.1977 9.40729L12.8377 8.62061L10.442 6.22494C10.4317 6.21463 10.4211 6.20473 10.4102 6.19525C10.3492 6.1421 10.2773 6.10032 10.1974 6.07384C10.1338 6.05271 10.067 6.04182 9.99954 6.04187ZM8.70837 13.667C8.98451 13.8741 9.04048 14.2658 8.83337 14.542L6.33337 17.8753C6.12626 18.1514 5.73451 18.2074 5.45837 18.0003C5.18223 17.7932 5.12626 17.4014 5.33337 17.1253L7.83337 13.792C8.04048 13.5158 8.43223 13.4599 8.70837 13.667Z" fill="white"/>
</svg>
