<svg width="20" height="20" viewBox="0 0 20 20" fill="none" xmlns="http://www.w3.org/2000/svg">
<path d="M9.99851 13.8281L9.99851 6.76975C9.99851 5.1249 9.0229 3.79236 7.45538 3.79236L2.5 3.79239L2.5 13.8281H7.75583M12.3869 13.834C12.0752 13.8339 11.7665 13.8952 11.4784 14.0144C11.1904 14.1337 10.9287 14.3085 10.7082 14.5289C10.4878 14.7494 10.313 15.0111 10.1937 15.2991C10.0745 15.5872 10.0132 15.8959 10.0133 16.2076C10.0135 15.8959 9.9522 15.5872 9.83296 15.2991C9.71373 15.0111 9.5389 14.7494 9.31846 14.5289C9.09803 14.3085 8.83631 14.1337 8.54827 14.0144C8.26023 13.8952 7.95151 13.8339 7.63977 13.834M4.80547 10.329H7.33641M4.80547 7.20819L7.33641 7.20819M9.99851 15.464L9.99851 6.62404C9.98184 5.89008 10.2573 5.17953 10.7643 4.64856C11.2712 4.11758 11.9683 3.80963 12.7023 3.79238L17.5 3.79238V13.8281H12.3899M15.1033 10.329H12.5945M15.0962 7.20819H12.5892" stroke="white" stroke-width="1.5" stroke-linecap="round" stroke-linejoin="round"/>
</svg>
