<svg width="38" height="38" viewBox="0 0 38 38" fill="none" xmlns="http://www.w3.org/2000/svg">
<path d="M17.8598 28.2V26.2C17.2464 26.1333 16.6264 25.9733 15.9998 25.72C15.3864 25.4533 14.8531 25.1067 14.3998 24.68L15.4398 23.12C15.9064 23.4933 16.3798 23.7933 16.8598 24.02C17.3398 24.2467 17.8531 24.36 18.3998 24.36C19.0531 24.36 19.5398 24.2133 19.8598 23.92C20.1798 23.6133 20.3398 23.1867 20.3398 22.64C20.3398 22.2 20.2064 21.8333 19.9398 21.54C19.6731 21.2467 19.3331 20.98 18.9198 20.74C18.5198 20.5 18.0864 20.2733 17.6198 20.06C17.1531 19.8333 16.7131 19.5733 16.2998 19.28C15.8998 18.9733 15.5664 18.6133 15.2998 18.2C15.0331 17.7733 14.8998 17.2467 14.8998 16.62C14.8998 15.6867 15.1664 14.9133 15.6998 14.3C16.2331 13.6733 16.9531 13.28 17.8598 13.12V11.08H19.4598V13.08C20.0998 13.16 20.6464 13.3467 21.0998 13.64C21.5664 13.92 21.9864 14.2533 22.3598 14.64L21.1798 15.98C20.8064 15.6333 20.4464 15.3733 20.0998 15.2C19.7531 15.0133 19.3398 14.92 18.8598 14.92C18.3131 14.92 17.8864 15.06 17.5798 15.34C17.2731 15.6067 17.1198 16 17.1198 16.52C17.1198 16.92 17.2531 17.2533 17.5198 17.52C17.7864 17.7733 18.1198 18.0133 18.5198 18.24C18.9331 18.4533 19.3731 18.6733 19.8398 18.9C20.3064 19.1133 20.7398 19.3733 21.1398 19.68C21.5531 19.9867 21.8931 20.3667 22.1598 20.82C22.4264 21.26 22.5598 21.8133 22.5598 22.48C22.5598 23.44 22.2931 24.2467 21.7598 24.9C21.2264 25.54 20.4598 25.9533 19.4598 26.14V28.2H17.8598Z" fill="url(#paint0_linear_900_72840)"/>
<rect x="0.499756" y="0.5" width="37" height="37" rx="18.5" stroke="url(#paint1_linear_900_72840)"/>
<defs>
<linearGradient id="paint0_linear_900_72840" x1="24.4998" y1="34.2143" x2="2.21423" y2="16.7471" gradientUnits="userSpaceOnUse">
<stop stop-color="#FF4C00"/>
<stop offset="1" stop-color="#2B4FB9"/>
</linearGradient>
<linearGradient id="paint1_linear_900_72840" x1="37.9998" y1="43.0893" x2="6.33096" y2="-11.0672" gradientUnits="userSpaceOnUse">
<stop stop-color="#FF4C00"/>
<stop offset="1" stop-color="#2B4FB9"/>
</linearGradient>
</defs>
</svg>
