<svg width="16" height="16" viewBox="0 0 16 16" fill="none" xmlns="http://www.w3.org/2000/svg">
    <path
        d="M14.0332 8.16668L7.09987 8.16668C6.49987 8.16668 6.0332 7.70002 6.0332 7.16668C6.0332 6.56668 6.49987 6.10002 7.09987 6.10002L13.9665 6.10002M2.0332 10.3L2.0332 3.36672C2.0332 2.76672 2.49987 2.30005 3.09987 2.30005C3.69987 2.30005 4.16654 2.76672 4.16654 3.36672L4.16654 10.2334M2.0332 10.3H6.56654L6.56653 13.4334M2.0332 10.3L2.0332 13.4334M11.3665 13.5667V8.16667M10.2999 6.09998L8.89989 6.09998L8.29989 3.56665L10.8332 3.56665L10.2999 6.09998Z"
        stroke="#C0C0C0" stroke-miterlimit="10" stroke-linecap="round" stroke-linejoin="round" />
</svg>
