<svg width="16" height="16" viewBox="0 0 16 16" fill="none" xmlns="http://www.w3.org/2000/svg">
<path d="M4.36035 1.68964C5.09837 1.56661 5.81053 1.72654 6.34863 2.06659C6.71866 2.30055 7.0286 2.63864 7.18359 3.0451C7.76127 2.95582 8.3501 2.96146 8.92578 3.06268C9.09074 2.65152 9.41854 2.31208 9.79492 2.07831C10.3467 1.73567 11.076 1.56574 11.8184 1.68964C12.4269 1.79103 12.9163 2.15935 13.2939 2.59882C13.6724 3.03924 13.9688 3.5858 14.1943 4.1203C14.4211 4.65768 14.5844 5.2042 14.6865 5.66034C14.7834 6.09313 14.8399 6.50925 14.8115 6.75897C14.7802 7.03387 14.6141 7.25919 14.4453 7.41718C14.2664 7.58461 14.0334 7.72736 13.7686 7.82831C13.6752 7.86387 13.5756 7.8918 13.4727 7.91718C13.5797 8.39238 13.6444 8.87646 13.6641 9.36346L13.6709 9.6535V9.65448C13.6709 11.1625 13.0153 12.3487 11.959 13.1437C10.9166 13.9282 9.50958 14.3156 8.00195 14.3156C6.49447 14.3155 5.08823 13.9281 4.0459 13.1437C3.0555 12.3984 2.41758 11.3097 2.3418 9.93378L2.33398 9.65448C2.33379 9.05192 2.39438 8.45132 2.51367 7.86151C2.47893 7.85 2.44362 7.84105 2.41016 7.82831C2.14512 7.72735 1.9114 7.58469 1.73242 7.41718C1.56374 7.25919 1.39755 7.03379 1.36621 6.75897C1.33782 6.50925 1.39432 6.09312 1.49121 5.66034C1.59336 5.20419 1.75663 4.6577 1.9834 4.1203C2.20899 3.58574 2.50624 3.03929 2.88477 2.59882C3.26245 2.1594 3.75179 1.79096 4.36035 1.68964ZM11.4707 2.62616C11.035 2.59547 10.6198 2.70976 10.3076 2.9035C9.94106 3.13123 9.78418 3.41847 9.78418 3.64471C9.78408 3.7963 9.71339 3.93961 9.59277 4.03143C9.47211 4.1232 9.31506 4.15282 9.16895 4.11249C8.43596 3.90929 7.66207 3.90099 6.9248 4.08807C6.77967 4.12492 6.62511 4.09295 6.50684 4.00116C6.38857 3.90916 6.31941 3.76719 6.31934 3.61737C6.31931 3.37989 6.16849 3.10194 5.83008 2.88788C5.49732 2.67758 5.02657 2.56401 4.51953 2.64862C4.21398 2.69953 3.91296 2.89419 3.62207 3.2326C3.33199 3.5702 3.08162 4.01787 2.87891 4.49823C2.67744 4.97565 2.53055 5.46552 2.43945 5.87225C2.3495 6.27397 2.32707 6.53988 2.33105 6.63202C2.33811 6.64367 2.356 6.67028 2.39648 6.70819C2.47089 6.77783 2.59188 6.8576 2.75586 6.9201C3.0803 7.04361 3.53777 7.08702 4.04688 6.89667C4.6916 6.65526 5.06283 6.15731 5.2793 5.56561C5.37152 5.31372 5.6504 5.18441 5.90234 5.27655C6.15412 5.36883 6.28352 5.64771 6.19141 5.8996C5.91036 6.66776 5.37597 7.43677 4.3877 7.80682C4.07481 7.92381 3.7685 7.97836 3.47949 7.99139C3.36447 8.53799 3.30546 9.09529 3.30566 9.65448C3.30566 10.8488 3.8108 11.7509 4.62988 12.3674C5.46305 12.9944 6.64783 13.3439 8.00195 13.3439C9.35624 13.3439 10.5418 12.9944 11.375 12.3674C12.1935 11.7513 12.6986 10.8505 12.6992 9.65741L12.6934 9.40253C12.6739 8.92026 12.602 8.44203 12.4854 7.97382C12.2609 7.94671 12.0277 7.89529 11.791 7.80682C10.7834 7.42954 10.3256 6.64017 10.0547 5.8996C9.96257 5.64772 10.092 5.36884 10.3438 5.27655C10.5957 5.18441 10.8746 5.31371 10.9668 5.56561C11.1934 6.18503 11.5063 6.66252 12.1318 6.89667C12.6407 7.0868 13.0975 7.04354 13.4219 6.9201C13.5859 6.85762 13.7068 6.77784 13.7813 6.70819C13.8217 6.67034 13.8396 6.64373 13.8467 6.63202C13.8507 6.53989 13.8282 6.274 13.7383 5.87225C13.6472 5.46563 13.5012 4.97553 13.2998 4.49823C13.0971 4.01795 12.8467 3.57016 12.5566 3.2326C12.2657 2.89403 11.9639 2.69951 11.6582 2.64862L11.4707 2.62616ZM8.48828 10.1047C8.75021 10.1047 8.98664 10.2631 9.08691 10.5051C9.18684 10.7469 9.1312 11.025 8.94629 11.2101L8.45996 11.6965C8.20697 11.9492 7.79685 11.9494 7.54395 11.6965L7.05859 11.2101C6.87357 11.025 6.81797 10.747 6.91797 10.5051C7.01825 10.2631 7.25463 10.1047 7.5166 10.1047H8.48828ZM10.5938 8.64764C10.9514 8.6478 11.2412 8.93744 11.2412 9.2951V9.61932C11.241 9.97682 10.9513 10.2666 10.5938 10.2668C10.2361 10.2668 9.94551 9.97692 9.94531 9.61932V9.2951C9.94531 8.93734 10.236 8.64764 10.5938 8.64764ZM5.41113 8.80878C5.67944 8.80878 5.89744 9.0268 5.89746 9.2951V9.61932C5.89723 9.88745 5.67931 10.1047 5.41113 10.1047C5.14298 10.1046 4.92602 9.88742 4.92578 9.61932V9.2951C4.92581 9.02682 5.14285 8.80881 5.41113 8.80878Z" fill="#B6BCCB"/>
</svg>
