<svg width="65" height="64" viewBox="0 0 65 64" fill="none" xmlns="http://www.w3.org/2000/svg">
<path d="M17.5 38.6599C22.1944 38.6599 26 34.8543 26 30.1599C26 25.4655 22.1944 21.6599 17.5 21.6599C12.8056 21.6599 9 25.4655 9 30.1599C9 34.8543 12.8056 38.6599 17.5 38.6599Z" stroke="#5069C3" stroke-width="3" stroke-linecap="round"/>
<path d="M7.5 43.6599C8.66434 42.1075 10.1741 40.8474 11.9098 39.9796C13.6455 39.1117 15.5594 38.6599 17.5 38.6599C19.4406 38.6599 21.3545 39.1117 23.0902 39.9796C24.8259 40.8474 26.3357 42.1075 27.5 43.6599" stroke="#5069C3" stroke-width="3" stroke-linecap="round"/>
<path d="M23.5 51.6599C25.0311 48.4274 27.433 45.6858 30.4359 43.7427C33.4388 41.7996 36.924 40.7321 40.5 40.6599C44.076 40.7321 47.5612 41.7996 50.5641 43.7427C53.567 45.6858 55.9689 48.4274 57.5 51.6599" stroke="#FF4C00" stroke-width="3" stroke-linecap="round"/>
<path d="M40.5001 40.66C48.3204 40.66 54.6601 34.3203 54.6601 26.5C54.6601 18.6796 48.3204 12.34 40.5001 12.34C32.6797 12.34 26.3401 18.6796 26.3401 26.5C26.3401 34.3203 32.6797 40.66 40.5001 40.66Z" stroke="#FF4C00" stroke-width="3"/>
<path d="M46.24 31.9899C45.6128 32.8883 44.7712 33.6159 43.7915 34.1066C42.8118 34.5973 41.7251 34.8356 40.63 34.7999C39.5335 34.8355 38.4454 34.5972 37.4642 34.1066C36.4829 33.6159 35.6394 32.8885 35.01 31.9899" stroke="#FF4C00" stroke-width="3" stroke-linecap="round"/>
</svg>
