<svg width="24" height="24" viewBox="0 0 24 24" fill="none" xmlns="http://www.w3.org/2000/svg">
<path d="M20.2452 8.44141C20.2441 8.43885 20.2425 8.43677 20.2393 8.43359L15.5694 3.75977C15.5681 3.75886 15.5651 3.75763 15.5606 3.75586C15.5518 3.75236 15.541 3.75003 15.5304 3.75H8.48056C8.46229 3.75 8.45256 3.75359 8.44931 3.75488C8.44652 3.756 8.44392 3.75734 8.44052 3.76074L8.43954 3.75977L3.76083 8.44336C3.75888 8.44532 3.75597 8.44631 3.754 8.44824C3.75169 8.45579 3.75013 8.46429 3.75009 8.47266V15.5352C3.75003 15.5417 3.75154 15.5486 3.754 15.5547C3.75645 15.5606 3.76024 15.5657 3.76474 15.5703L8.42587 20.2354C8.43047 20.2399 8.43652 20.2436 8.44247 20.2461C8.44857 20.2486 8.45543 20.2501 8.462 20.25H15.5304C15.5488 20.25 15.5585 20.2464 15.5616 20.2451C15.5642 20.244 15.5662 20.2425 15.5694 20.2393L20.2393 15.5664C20.2401 15.5653 20.2422 15.5627 20.2442 15.5576C20.2477 15.5488 20.25 15.5379 20.2501 15.5273V8.47266C20.25 8.45434 20.2465 8.4445 20.2452 8.44141ZM12.0079 15.25C12.4221 15.25 12.7579 15.5858 12.7579 16C12.7579 16.4142 12.4221 16.75 12.0079 16.75H12.0001C11.5859 16.75 11.2501 16.4142 11.2501 16C11.2501 15.5858 11.5859 15.25 12.0001 15.25H12.0079ZM11.2501 13V8C11.2501 7.5858 11.5859 7.25003 12.0001 7.25C12.4143 7.25 12.7501 7.58579 12.7501 8V13C12.7501 13.4142 12.4143 13.75 12.0001 13.75C11.5859 13.75 11.2501 13.4142 11.2501 13ZM21.7501 15.5273C21.75 15.9201 21.602 16.3256 21.3009 16.627L16.6309 21.2998C16.3328 21.5979 15.9383 21.7499 15.5304 21.75H8.46982C8.26845 21.7511 8.06874 21.713 7.88193 21.6377C7.69253 21.5613 7.51966 21.448 7.37411 21.3047L2.6954 16.623C2.55213 16.4775 2.43882 16.3046 2.36239 16.1152C2.28603 15.9258 2.24789 15.7228 2.25009 15.5186V8.47266C2.25018 8.07971 2.39889 7.67444 2.70029 7.37305C2.72057 7.35276 2.74264 7.33495 2.76474 7.31738L7.37997 2.69922C7.67812 2.40124 8.07269 2.25 8.48056 2.25H15.5304C15.8742 2.25005 16.2278 2.36346 16.5128 2.59375L16.6309 2.69922L21.3009 7.37305C21.5987 7.6711 21.75 8.06495 21.7501 8.47266V15.5273Z" fill="#B6BCCB"/>
</svg>
