<svg width="24" height="24" viewBox="0 0 24 24" fill="none" xmlns="http://www.w3.org/2000/svg">
<path d="M8.05542 7.83209C8.34457 7.8322 8.62645 7.92288 8.86108 8.09186C9.0958 8.261 9.27142 8.50006 9.36304 8.77448L10.4275 11.9698H15.448C15.9966 11.9703 16.523 12.1883 16.9109 12.5762C17.2987 12.9641 17.5168 13.4906 17.5173 14.0391V16.7979C17.5172 17.1635 17.3716 17.514 17.113 17.7725C16.8544 18.0312 16.5033 18.1768 16.1375 18.1768V20.2462C16.1373 20.6117 15.9925 20.9622 15.7341 21.2208C15.4755 21.4794 15.1244 21.6251 14.7585 21.6251H12.6892C12.3235 21.625 11.9732 21.4793 11.7146 21.2208C11.456 20.9622 11.3104 20.6118 11.3103 20.2462V16.7979H12.6892V20.2462H14.7585V16.7979H16.1375V14.0391C16.1375 13.8562 16.0656 13.6802 15.9363 13.5508C15.8069 13.4215 15.6309 13.3487 15.448 13.3487H9.43433L8.05542 9.211H3.72437C3.54146 9.211 3.36542 9.28381 3.23608 9.41315C3.10691 9.54237 3.03405 9.71774 3.03394 9.90045V14.0391H4.41382V20.2462H7.17261V15.418H8.55151V20.2462C8.5514 20.6118 8.40579 20.9622 8.14722 21.2208C7.88863 21.4793 7.53829 21.625 7.17261 21.6251H4.41382C4.048 21.6251 3.6969 21.4794 3.43823 21.2208C3.17978 20.9622 3.03404 20.6117 3.03394 20.2462V15.418C2.66827 15.4179 2.3179 15.2723 2.05933 15.0137C1.80076 14.7551 1.65511 14.4048 1.65503 14.0391V9.90045C1.65569 9.35209 1.87374 8.82632 2.26147 8.43854C2.64936 8.05065 3.17581 7.83264 3.72437 7.83209H8.05542ZM20.2761 7.83209C20.8245 7.83273 21.3502 8.05076 21.738 8.43854C22.1258 8.82632 22.3438 9.35205 22.3445 9.90045V14.0391C22.3444 14.4046 22.1995 14.7552 21.9412 15.0137C21.6825 15.2724 21.3313 15.418 20.9656 15.418H20.2761V21.6251H18.8962V14.0391H20.9656V9.90045C20.9655 9.7177 20.8927 9.54238 20.7634 9.41315C20.6342 9.28392 20.4589 9.21109 20.2761 9.211H17.5173V7.83209H20.2761ZM13.2527 6.49908C13.7207 6.40598 14.2063 6.45328 14.6472 6.6358C15.0883 6.8185 15.466 7.1285 15.7312 7.52545C15.9963 7.92233 16.1374 8.38899 16.1375 8.86627C16.1367 9.50623 15.882 10.1198 15.4294 10.5723C14.9771 11.0246 14.364 11.2795 13.7244 11.2803C13.247 11.2803 12.7795 11.1383 12.3826 10.8731C11.9858 10.6079 11.6765 10.231 11.4939 9.7901C11.3112 9.3491 11.2631 8.86374 11.3562 8.39557C11.4493 7.92734 11.6798 7.49682 12.0173 7.15924C12.3548 6.82188 12.7847 6.59224 13.2527 6.49908ZM13.7244 7.83209C13.5198 7.83209 13.3193 7.8923 13.1492 8.00592C12.979 8.11959 12.8466 8.28174 12.7683 8.47076C12.6901 8.65973 12.6698 8.86783 12.7097 9.06842C12.7497 9.26882 12.8475 9.45317 12.9919 9.59772C13.1366 9.74239 13.3215 9.841 13.5222 9.88092C13.7228 9.9208 13.9309 9.9006 14.1199 9.82233C14.3087 9.74409 14.4701 9.61138 14.5837 9.44147C14.6974 9.27135 14.7585 9.07087 14.7585 8.86627C14.7585 8.59202 14.6497 8.3288 14.4558 8.13483C14.2619 7.94093 13.9986 7.83222 13.7244 7.83209ZM5.25464 1.6778C5.78968 1.57137 6.34437 1.6263 6.84839 1.83502C7.35237 2.04378 7.78356 2.39712 8.08667 2.85065C8.38979 3.3043 8.55151 3.83824 8.55151 4.38385C8.55054 5.115 8.25985 5.816 7.74292 6.33307C7.22577 6.85021 6.52408 7.14173 5.79272 7.14264C5.24733 7.14259 4.71402 6.98074 4.2605 6.6778C3.80685 6.37468 3.45269 5.94358 3.2439 5.43951C3.03513 4.93552 2.98127 4.38081 3.08765 3.84576C3.19409 3.31064 3.45673 2.81848 3.84253 2.43268C4.22827 2.04704 4.71968 1.78423 5.25464 1.6778ZM17.6687 1.6778C18.2038 1.57139 18.7584 1.62625 19.2625 1.83502C19.7665 2.04379 20.1976 2.39707 20.5007 2.85065C20.8039 3.3043 20.9656 3.83824 20.9656 4.38385C20.9646 5.11512 20.6731 5.81598 20.156 6.33307C19.6389 6.85014 18.9381 7.14173 18.2068 7.14264C17.6614 7.14264 17.1281 6.98071 16.6746 6.6778C16.2209 6.37469 15.8668 5.94354 15.658 5.43951C15.4492 4.93556 15.3944 4.38076 15.5007 3.84576C15.6072 3.31064 15.8708 2.81848 16.2566 2.43268C16.6423 2.04708 17.1337 1.7842 17.6687 1.6778ZM5.79272 3.00397C5.5202 3.00402 5.25376 3.08508 5.0271 3.23639C4.8003 3.38793 4.62271 3.60354 4.51831 3.85553C4.41395 4.10747 4.38704 4.38494 4.44019 4.6524C4.49341 4.91997 4.62521 5.16654 4.81812 5.35944C5.01094 5.55208 5.25683 5.68321 5.52417 5.73639C5.79165 5.78954 6.06909 5.76263 6.32104 5.65826C6.57304 5.55386 6.78864 5.37628 6.94019 5.14948C7.0915 4.92281 7.17256 4.65638 7.17261 4.38385C7.17261 4.01803 7.02698 3.66694 6.76831 3.40826C6.50964 3.1496 6.15854 3.00397 5.79272 3.00397ZM18.2068 3.00397C17.934 3.00397 17.667 3.08483 17.4402 3.23639C17.2134 3.38791 17.0368 3.60359 16.9324 3.85553C16.828 4.10749 16.8011 4.38492 16.8542 4.6524C16.9075 4.91997 17.0383 5.16654 17.2312 5.35944C17.424 5.55217 17.6699 5.68312 17.9373 5.73639C18.2048 5.78961 18.4831 5.76266 18.7351 5.65826C18.987 5.55385 19.2018 5.37622 19.3533 5.14948C19.5047 4.92274 19.5856 4.65652 19.5857 4.38385C19.5857 4.01808 19.441 3.66693 19.1824 3.40826C18.9237 3.14959 18.5726 3.00397 18.2068 3.00397Z" fill="#B6BCCB"/>
</svg>
