
<svg width="21" height="20" viewBox="0 0 21 20" fill="none" xmlns="http://www.w3.org/2000/svg">
<g clip-path="url(#clip0_135_1464)">
<path d="M17.6918 18.3332L3.10848 18.3332C2.4167 18.3332 1.75112 18.0685 1.24829 17.5934C0.745452 17.1183 0.443479 16.4688 0.404313 15.7782L0.400146 15.6248L0.400146 3.5415C0.400088 3.0664 0.580393 2.60899 0.904621 2.26171C1.22885 1.91443 1.67282 1.70319 2.14681 1.67067L2.27515 1.6665L15.1918 1.6665C15.6669 1.66645 16.1243 1.84675 16.4716 2.17098C16.8189 2.49521 17.0301 2.93918 17.0626 3.41317L17.0668 3.5415V4.1665L18.5251 4.1665C19.0003 4.16645 19.4577 4.34675 19.8049 4.67098C20.1522 4.99521 20.3635 5.43918 20.396 5.91317L20.4001 6.0415L20.4001 15.6248C20.4002 16.3166 20.1355 16.9822 19.6604 17.485C19.1853 17.9879 18.5358 18.2898 17.8451 18.329L17.6918 18.3332ZM3.10848 17.0832L17.6918 17.0832C18.0579 17.0831 18.4107 16.9454 18.6799 16.6973C18.9492 16.4492 19.1152 16.1089 19.1451 15.744L19.1501 15.6248L19.1501 6.0415C19.1501 5.89047 19.0954 5.74455 18.9962 5.63073C18.8969 5.5169 18.7598 5.44288 18.6101 5.42234L18.5251 5.4165L17.0668 5.4165L17.0668 14.3748C17.0668 14.5259 17.0121 14.6718 16.9128 14.7856C16.8136 14.8994 16.6764 14.9735 16.5268 14.994L16.4418 14.9998C16.2908 14.9998 16.1449 14.9451 16.031 14.8459C15.9172 14.7466 15.8432 14.6095 15.8226 14.4598L15.8168 14.3748L15.8168 3.5415C15.8168 3.39047 15.7621 3.24455 15.6628 3.13073C15.5636 3.0169 15.4264 2.94288 15.2768 2.92234L15.1918 2.9165L2.27515 2.9165C2.12412 2.91651 1.97819 2.97121 1.86437 3.07048C1.75055 3.16975 1.67652 3.30688 1.65598 3.4565L1.65015 3.5415L1.65015 15.6248C1.65016 15.9908 1.78779 16.3434 2.03571 16.6127C2.28364 16.8819 2.62373 17.0481 2.98848 17.0782L3.10848 17.0832ZM7.27181 9.16984C7.84681 9.16984 8.31348 9.6365 8.31348 10.2115V13.1248C8.31348 13.6998 7.84681 14.1665 7.27181 14.1665L4.35848 14.1665C3.78348 14.1665 3.31681 13.6998 3.31681 13.1248L3.31681 10.2115C3.31681 9.6365 3.78348 9.16984 4.35848 9.16984H7.27181ZM10.6085 12.9165H13.5218C13.6802 12.9166 13.8326 12.9767 13.9483 13.0848C14.064 13.1929 14.1344 13.3409 14.1452 13.4989C14.156 13.6569 14.1064 13.8131 14.0065 13.9359C13.9065 14.0588 13.7637 14.1391 13.6068 14.1607L13.5218 14.1665H10.6085C10.4501 14.1665 10.2977 14.1063 10.182 13.9982C10.0663 13.8901 9.99592 13.7421 9.98512 13.5841C9.97433 13.4261 10.0239 13.2699 10.1238 13.1471C10.2238 13.0242 10.3666 12.9439 10.5235 12.9223L10.6085 12.9165ZM7.06431 10.4198L4.56681 10.4198V12.9165L7.06431 12.9165V10.4198ZM10.6085 9.16984H13.5218C13.6802 9.16989 13.8326 9.23004 13.9483 9.33815C14.064 9.44625 14.1344 9.59425 14.1452 9.75224C14.156 9.91022 14.1064 10.0664 14.0065 10.1893C13.9065 10.3121 13.7637 10.3924 13.6068 10.414L13.5218 10.4198H10.6085C10.449 10.4215 10.2949 10.3621 10.1778 10.2538C10.0607 10.1455 9.98944 9.99656 9.97858 9.83744C9.96771 9.67832 10.0181 9.52107 10.1194 9.39789C10.2207 9.2747 10.3653 9.19491 10.5235 9.17484L10.6085 9.16984ZM3.93848 5.414L13.5218 5.414C13.6802 5.41405 13.8326 5.47421 13.9483 5.58231C14.064 5.69042 14.1344 5.83842 14.1452 5.9964C14.156 6.15439 14.1064 6.31058 14.0065 6.43342C13.9065 6.55626 13.7637 6.63659 13.6068 6.65817L13.5218 6.664L3.93848 6.664C3.7802 6.66375 3.62791 6.60344 3.51236 6.49527C3.39681 6.3871 3.32661 6.23911 3.31592 6.08119C3.30524 5.92327 3.35487 5.76718 3.4548 5.64443C3.55473 5.52167 3.69751 5.44141 3.85431 5.41984L3.93848 5.414Z" fill="#B6BCCB"/>
</g>
<defs>
<clipPath id="clip0_135_1464">
<rect width="20" height="20" fill="white" transform="translate(0.399902)"/>
</clipPath>
</defs>
</svg>
