<svg width="24" height="24" viewBox="0 0 24 24" fill="none" xmlns="http://www.w3.org/2000/svg">
<path d="M10.6504 16C11.7417 16.0002 12.6657 16.7141 12.9824 17.7002L19.75 17.7002C20.1642 17.7002 20.5 18.036 20.5 18.4502C20.4999 18.8643 20.1641 19.2002 19.75 19.2002L12.9824 19.2002C12.6656 20.1861 11.7416 20.9002 10.6504 20.9004C9.55912 20.9004 8.63533 20.1861 8.31836 19.2002H3.75C3.33585 19.2002 3.00011 18.8643 3 18.4502C3 18.036 3.33579 17.7002 3.75 17.7002H8.31836C8.63522 16.7141 9.55898 16 10.6504 16ZM10.6504 17.5C10.1257 17.5 9.7002 17.9255 9.7002 18.4502C9.70031 18.9748 10.1258 19.4004 10.6504 19.4004C11.1748 19.4002 11.5995 18.9746 11.5996 18.4502C11.5996 17.9256 11.1749 17.5002 10.6504 17.5ZM15.3496 10C16.441 10 17.3648 10.7141 17.6816 11.7002L19.75 11.7002C20.1642 11.7002 20.5 12.036 20.5 12.4502C20.4999 12.8643 20.1641 13.2002 19.75 13.2002H17.6816C17.3647 14.1861 16.4409 14.9004 15.3496 14.9004C14.2584 14.9002 13.3344 14.1861 13.0176 13.2002L3.75 13.2002C3.33585 13.2002 3.00011 12.8643 3 12.4502C3 12.036 3.33579 11.7002 3.75 11.7002L13.0176 11.7002C13.3343 10.7141 14.2583 10.0002 15.3496 10ZM15.3496 11.5C14.8251 11.5002 14.4004 11.9257 14.4004 12.4502C14.4005 12.9746 14.8252 13.4002 15.3496 13.4004C15.8742 13.4004 16.2997 12.9748 16.2998 12.4502C16.2998 11.9255 15.8743 11.5 15.3496 11.5ZM8.4502 4C9.54158 4.00009 10.4654 4.71405 10.7822 5.7002L19.75 5.7002C20.1642 5.7002 20.5 6.03598 20.5 6.4502C20.4999 6.86432 20.1641 7.20019 19.75 7.2002L10.7822 7.2002C10.4653 8.18615 9.54145 8.90031 8.4502 8.90039C7.3589 8.90039 6.43512 8.18615 6.11816 7.2002L3.75 7.2002C3.33585 7.2002 3.00011 6.86432 3 6.4502C3 6.03598 3.33579 5.7002 3.75 5.7002L6.11816 5.7002C6.43501 4.71405 7.35877 4 8.4502 4ZM8.4502 5.5C7.92552 5.5 7.5 5.92552 7.5 6.4502C7.50011 6.97478 7.92559 7.40039 8.4502 7.40039C8.9747 7.40029 9.40028 6.97471 9.40039 6.4502C9.40039 5.92559 8.97477 5.50011 8.4502 5.5Z" fill="#B6BCCB"/>
</svg>
