<svg width="20" height="20" viewBox="0 0 20 20" fill="none" xmlns="http://www.w3.org/2000/svg">
<path d="M13.1667 8.91669C12.4167 8.00002 11.3333 7.41669 10 7.41669C8.75 7.41669 7.66667 8.00002 6.91667 8.91669M8.83333 17.0834C8.08333 16.1667 7 15.5834 5.66667 15.5834C4.41667 15.5834 3.25 16.1667 2.5 17.0834M17.5 17.0834C16.75 16.1667 15.6667 15.5834 14.3333 15.5834C13.0833 15.5834 11.9167 16.1667 11.1667 17.0834M12.3333 5.16669C12.3333 6.40933 11.326 7.41669 10.0833 7.41669C8.84069 7.41669 7.83333 6.40933 7.83333 5.16669C7.83333 3.92405 8.84069 2.91669 10.0833 2.91669C11.326 2.91669 12.3333 3.92405 12.3333 5.16669ZM7.91667 13.25C7.91667 14.4927 6.90931 15.5 5.66667 15.5C4.42403 15.5 3.41667 14.4927 3.41667 13.25C3.41667 12.0074 4.42403 11 5.66667 11C6.90931 11 7.91667 12.0074 7.91667 13.25ZM16.6667 13.25C16.6667 14.4927 15.6593 15.5 14.4167 15.5C13.174 15.5 12.1667 14.4927 12.1667 13.25C12.1667 12.0074 13.174 11 14.4167 11C15.6593 11 16.6667 12.0074 16.6667 13.25Z" stroke="#B6BCCB" stroke-width="1.5" stroke-miterlimit="10" stroke-linecap="round" stroke-linejoin="round"/>
</svg>
