<svg width="24" height="24" viewBox="0 0 24 24" fill="none" xmlns="http://www.w3.org/2000/svg">
<path d="M10.2852 2.14294L13.7139 2.14294C14.1089 2.14288 14.4918 2.27901 14.7979 2.52869C15.1039 2.77855 15.3145 3.12692 15.3936 3.51404L15.4639 3.85681L17.3564 3.85681C17.8679 3.85681 18.359 4.06056 18.7207 4.42224C19.0821 4.78385 19.2851 5.27425 19.2852 5.78552L19.2852 19.9281C19.2852 20.4395 19.0823 20.9307 18.7207 21.2924C18.359 21.654 17.8679 21.8568 17.3564 21.8568L6.64258 21.8568C6.13109 21.8568 5.64 21.654 5.27832 21.2924C4.91669 20.9307 4.71387 20.4396 4.71387 19.9281L4.71387 5.78552C4.7139 5.27422 4.91685 4.78386 5.27832 4.42224C5.64 4.06056 6.13109 3.85681 6.64258 3.85681L8.53516 3.85681L8.60547 3.51404C8.68454 3.12696 8.89416 2.77854 9.2002 2.52869C9.46811 2.30998 9.79538 2.17826 10.1377 2.1488L10.2852 2.14294ZM6.64258 4.28552C5.8145 4.28552 5.14265 4.95746 5.14258 5.78552L5.14258 19.9281C5.14258 20.7562 5.81446 21.4281 6.64258 21.4281L17.3564 21.4281C18.1846 21.4281 18.8564 20.7562 18.8564 19.9281L18.8564 5.78552C18.8564 4.95746 18.1845 4.28552 17.3564 4.28552H15.3975L15.2852 4.54236C15.1517 4.84807 14.9324 5.10868 14.6533 5.29138C14.3742 5.47408 14.0475 5.57175 13.7139 5.57166L10.2852 5.57166L10.1602 5.56677C9.87041 5.54569 9.58993 5.45121 9.3457 5.29138C9.06659 5.10868 8.84633 4.8481 8.71289 4.54236L8.60156 4.28552L6.64258 4.28552ZM14.708 14.1429C14.9151 14.1429 15.1202 14.1838 15.3115 14.2631C15.5028 14.3423 15.6768 14.4584 15.8232 14.6049C15.9696 14.7513 16.0858 14.9253 16.165 15.1166C16.2443 15.308 16.2852 15.5139 16.2852 15.7211C16.2851 16.771 15.8098 17.5659 15.0264 18.0902C14.2525 18.6097 13.1882 18.8578 11.999 18.8578C10.81 18.8577 9.74646 18.6096 8.97266 18.0902H8.97168C8.18842 17.5659 7.71395 16.7709 7.71387 15.7211C7.71387 15.3028 7.88005 14.9016 8.17578 14.6058C8.47155 14.3101 8.87273 14.1439 9.29102 14.1439L14.708 14.1429ZM9.29102 14.5717C8.9864 14.5717 8.69391 14.6922 8.47852 14.9076C8.26312 15.123 8.14258 15.4155 8.14258 15.7201C8.14262 16.5621 8.491 17.2008 9.08691 17.6478L9.20996 17.7347C9.89029 18.1903 10.862 18.428 11.999 18.4281C13.1362 18.4281 14.1087 18.1903 14.7891 17.7347C15.4594 17.2851 15.8564 16.6193 15.8564 15.7201C15.8564 15.4155 15.7359 15.123 15.5205 14.9076C15.3051 14.6922 15.0126 14.5717 14.708 14.5717L9.29102 14.5717ZM11.999 7.71423C12.6241 7.71423 13.224 7.96266 13.666 8.40466C14.1081 8.84671 14.3564 9.4465 14.3564 10.0717C14.3564 10.6966 14.1079 11.2957 13.666 11.7377C13.224 12.1797 12.6242 12.4281 11.999 12.4281C11.374 12.428 10.775 12.1796 10.333 11.7377C9.89107 11.2957 9.64265 10.6967 9.64258 10.0717C9.64258 9.4465 9.89096 8.84671 10.333 8.40466C10.7749 7.9628 11.3741 7.71434 11.999 7.71423ZM11.999 8.14294C11.4878 8.14306 10.9973 8.34591 10.6357 8.7074C10.2741 9.06908 10.0713 9.56017 10.0713 10.0717C10.0714 10.583 10.2742 11.0733 10.6357 11.4349C10.9973 11.7965 11.4877 12.0003 11.999 12.0004C12.5105 12.0004 13.0016 11.7966 13.3633 11.4349C13.7248 11.0733 13.9277 10.583 13.9277 10.0717C13.9277 9.56017 13.725 9.06907 13.3633 8.7074C13.0016 8.34576 12.5105 8.14294 11.999 8.14294ZM10.2852 2.57166C9.94423 2.57166 9.61708 2.7066 9.37598 2.94763C9.13493 3.18868 8.9991 3.51592 8.99902 3.85681C8.99902 4.19774 9.13495 4.52489 9.37598 4.76599C9.61709 5.00711 9.94416 5.14294 10.2852 5.14294L13.7139 5.14294C14.0548 5.14291 14.382 5.00708 14.623 4.76599C14.864 4.52489 14.999 4.19771 14.999 3.85681C14.9989 3.51592 14.8641 3.18868 14.623 2.94763C14.382 2.70659 14.0548 2.57169 13.7139 2.57166L10.2852 2.57166Z" fill="#B6BCCB" stroke="#9D9BF6" stroke-width="0.857143"/>
</svg>
