<svg width="16" height="16" viewBox="0 0 16 16" fill="none" xmlns="http://www.w3.org/2000/svg">
<path d="M7.70174 6.93898C7.72925 6.88316 7.77184 6.83615 7.82468 6.80328C7.87752 6.77041 7.93851 6.75299 8.00074 6.75299C8.06297 6.75299 8.12396 6.77041 8.17681 6.80328C8.22965 6.83615 8.27223 6.88316 8.29974 6.93898L9.29474 8.95498C9.31862 9.00351 9.35395 9.04549 9.39768 9.07732C9.44141 9.10914 9.49222 9.12985 9.54574 9.13765L11.7707 9.46098C11.8322 9.46997 11.89 9.49597 11.9375 9.53605C11.985 9.57613 12.0204 9.62869 12.0396 9.6878C12.0588 9.74691 12.0611 9.81021 12.0462 9.87056C12.0313 9.93091 11.9999 9.98589 11.9554 10.0293L10.3454 11.5986C10.3067 11.6364 10.2777 11.6829 10.261 11.7343C10.2443 11.7857 10.2403 11.8404 10.2494 11.8936L10.6294 14.1096C10.6399 14.1709 10.633 14.2339 10.6096 14.2914C10.5861 14.349 10.5471 14.3988 10.4968 14.4354C10.4466 14.4719 10.3871 14.4937 10.3251 14.4982C10.2631 14.5027 10.2011 14.4898 10.1461 14.461L8.15608 13.415C8.10823 13.3898 8.05497 13.3767 8.00091 13.3767C7.94684 13.3767 7.89359 13.3898 7.84574 13.415L5.85574 14.461C5.80068 14.49 5.73859 14.5031 5.67651 14.4986C5.61442 14.4942 5.55481 14.4725 5.50444 14.4359C5.45407 14.3993 5.41494 14.3494 5.39149 14.2917C5.36803 14.2341 5.36119 14.171 5.37174 14.1096L5.75174 11.8936C5.7609 11.8404 5.75697 11.7857 5.74031 11.7343C5.72364 11.683 5.69473 11.6364 5.65608 11.5986L4.04608 10.0293C4.00151 9.98591 3.96998 9.93089 3.95505 9.8705C3.94012 9.8101 3.9424 9.74674 3.96161 9.68757C3.98082 9.6284 4.01622 9.57578 4.06378 9.53568C4.11134 9.49558 4.16918 9.46959 4.23074 9.46065L6.45574 9.13731C6.50923 9.12955 6.56002 9.10889 6.60375 9.07713C6.64747 9.04536 6.68282 9.00344 6.70674 8.95498L7.70174 6.93898ZM12.0007 1.33331L4.00074 1.33331L4.00074 4.66665L8.00074 6.33331L12.0007 4.66665L12.0007 1.33331Z" stroke="url(#paint0_linear_985_6604)" stroke-width="1.5" stroke-linecap="round" stroke-linejoin="round"/>
<defs>
<linearGradient id="paint0_linear_985_6604" x1="3.94531" y1="7.91639" x2="12.0559" y2="7.91639" gradientUnits="userSpaceOnUse">
<stop stop-color="#FF4C00"/>
<stop offset="1" stop-color="#EE9747"/>
</linearGradient>
</defs>
</svg>
