<svg width="16" height="16" viewBox="0 0 16 16" fill="none" xmlns="http://www.w3.org/2000/svg">
<path d="M5.97949 8.6543C5.81101 9.09098 5.70625 9.55917 5.67676 10.0479C4.87441 10.7206 4.32442 11.719 4.19629 12.833L6.39453 12.833C6.63129 13.2054 6.91859 13.5422 7.24805 13.833L3.66797 13.833C3.39184 13.833 3.16797 13.6091 3.16797 13.333C3.16809 11.3472 4.28526 9.50204 5.97949 8.6543ZM8.05371 2.16699C9.88011 2.16699 11.3603 3.64724 11.3604 5.47363C11.3604 5.57608 11.3538 5.67728 11.3447 5.77734C11.0244 5.70662 10.6919 5.66816 10.3506 5.66699C10.3559 5.6032 10.3604 5.53879 10.3604 5.47363C10.3603 4.19953 9.32782 3.16699 8.05371 3.16699C6.77961 3.167 5.7471 4.19953 5.74707 5.47363C5.74707 6.2564 6.13727 6.94716 6.7334 7.36426C6.5214 7.62108 6.33737 7.90157 6.18359 8.2002C5.31616 7.60407 4.74707 6.6057 4.74707 5.47363C4.7471 3.64725 6.22732 2.167 8.05371 2.16699Z" fill="url(#paint0_linear_985_4601)"/>
<path d="M9.4553 12.4009L7.95759 12.785L8.38002 14.2443M11.4523 8.63744L12.9116 8.21501L12.5275 6.7557M12.7579 8.1382C11.6059 7.06292 9.87773 6.90931 8.57203 7.79258C7.26634 8.67584 6.7671 10.3656 7.38154 11.8249M8.1496 12.9386C9.26329 14.0138 11.0298 14.1675 12.3355 13.2842C13.6412 12.4009 14.1405 10.7112 13.526 9.25189" stroke="url(#paint1_linear_985_4601)" stroke-width="1.25" stroke-miterlimit="10" stroke-linecap="round" stroke-linejoin="round"/>
<defs>
<linearGradient id="paint0_linear_985_4601" x1="11.6871" y1="12.5831" x2="2.57449" y2="12.4501" gradientUnits="userSpaceOnUse">
<stop stop-color="#41D3BD"/>
<stop offset="1" stop-color="#FF4C00"/>
</linearGradient>
<linearGradient id="paint1_linear_985_4601" x1="7.83473" y1="6.45701" x2="8.02904" y2="14.784" gradientUnits="userSpaceOnUse">
<stop stop-color="#41D3BD"/>
<stop offset="1" stop-color="#FF4C00"/>
</linearGradient>
</defs>
</svg>
