<svg width="24" height="25" viewBox="0 0 24 25" fill="none" xmlns="http://www.w3.org/2000/svg">
<g clip-path="url(#clip0_2551_81444)">
<path fill-rule="evenodd" clip-rule="evenodd" d="M4.28088 24.281C4.17598 24.3862 4.04223 24.4578 3.89656 24.4869C3.7509 24.5159 3.59989 24.5011 3.46268 24.4442C3.32547 24.3873 3.20824 24.291 3.12585 24.1674C3.04345 24.0438 2.99961 23.8985 2.99988 23.75V21.5H0.749877C0.601346 21.5003 0.456081 21.4564 0.332497 21.374C0.208914 21.2916 0.112577 21.1744 0.0557009 21.0372C-0.00117538 20.9 -0.01603 20.749 0.0130201 20.6033C0.0420703 20.4577 0.113717 20.3239 0.218877 20.219L2.46888 17.969C2.53866 17.8994 2.62147 17.8442 2.71258 17.8067C2.80369 17.7691 2.90132 17.7498 2.99988 17.75H5.68938L6.48438 16.955C5.32788 15.752 4.49238 14.585 3.92838 13.475C2.73138 11.1125 2.76588 8.981 3.60888 7.337C5.13888 4.3475 9.26988 3.2135 11.9999 5.3495C13.8749 3.8795 16.4159 3.9575 18.3179 5.1215L19.9379 3.5L18.2204 1.781C18.1153 1.6762 18.0437 1.54258 18.0146 1.39705C17.9855 1.25153 18.0002 1.10065 18.0569 0.963499C18.1136 0.82635 18.2097 0.709103 18.3331 0.626596C18.4564 0.544089 18.6015 0.500032 18.7499 0.5H23.2499C23.4488 0.5 23.6396 0.579018 23.7802 0.71967C23.9209 0.860322 23.9999 1.05109 23.9999 1.25V5.75C24.0001 5.89853 23.9563 6.0438 23.8739 6.16738C23.7915 6.29096 23.6743 6.3873 23.5371 6.44418C23.3999 6.50105 23.2489 6.51591 23.1032 6.48686C22.9575 6.45781 22.8238 6.38616 22.7189 6.281L20.9999 4.5605L19.4909 6.0695C19.8449 6.4415 20.1509 6.866 20.3909 7.337C21.2339 8.981 21.2684 11.1125 20.0714 13.475C18.8819 15.8195 16.4789 18.407 12.4139 21.095L11.9999 21.368L11.5859 21.095C10.1654 20.1697 8.8189 19.1356 7.55838 18.002L6.74988 18.812V21.5C6.75005 21.5986 6.7308 21.6962 6.69322 21.7873C6.65565 21.8784 6.60048 21.9612 6.53088 22.031L4.28088 24.281ZM8.62038 16.94C9.6843 17.8927 10.8136 18.7699 11.9999 19.565C15.6839 17.066 17.7404 14.7545 18.7334 12.797C19.7519 10.787 19.6439 9.167 19.0559 8.0195C17.8304 5.627 14.4254 4.9385 12.5369 6.878L11.9999 7.43L11.4629 6.878C9.57438 4.9385 6.16788 5.627 4.94388 8.0195C4.35588 9.1685 4.24788 10.787 5.26638 12.797C5.75088 13.751 6.48888 14.792 7.54488 15.8945L10.3439 13.094C10.4847 12.9532 10.6757 12.8741 10.8749 12.8741C11.074 12.8741 11.265 12.9532 11.4059 13.094C11.5467 13.2348 11.6258 13.4258 11.6258 13.625C11.6258 13.8242 11.5467 14.0152 11.4059 14.156L8.62038 16.94Z" fill="#B6BCCB"/>
</g>
<defs>
<clipPath id="clip0_2551_81444">
<rect width="24" height="24" fill="white" transform="translate(0 0.5)"/>
</clipPath>
</defs>
</svg>
