<svg width="24" height="24" viewBox="0 0 24 24" fill="none" xmlns="http://www.w3.org/2000/svg">
<path d="M12.45 16.85C12.45 17.1261 12.2262 17.35 11.95 17.35C11.6739 17.35 11.45 17.1261 11.45 16.85C11.45 16.5739 11.6739 16.35 11.95 16.35C12.2262 16.35 12.45 16.5739 12.45 16.85Z" stroke="#9AA6DB"/>
<path d="M12.05 21.05C17.0206 21.05 21.05 17.0206 21.05 12.05C21.05 7.07944 17.0206 3.05 12.05 3.05C7.07942 3.05 3.04999 7.07944 3.04999 12.05C3.04999 17.0206 7.07942 21.05 12.05 21.05Z" stroke="#9AA6DB" stroke-width="1.5" stroke-miterlimit="10"/>
<path d="M9.14996 9.15C9.14996 9.15 9.64996 6.55 11.95 6.55C12.75 6.55 13.55 6.75 14.15 7.35C14.75 7.95 14.95 8.75 14.75 9.55C14.55 10.15 14.05 10.55 13.55 11.05C12.85 11.75 11.95 12.55 11.95 13.55" stroke="#9AA6DB" stroke-width="1.5" stroke-miterlimit="10" stroke-linecap="round" stroke-linejoin="round"/>
</svg>
