<svg width="16" height="16" viewBox="0 0 16 16" fill="none" xmlns="http://www.w3.org/2000/svg">
<path d="M9.50016 1.99998C9.50016 1.95578 9.48259 1.9134 9.45133 1.88214C9.42008 1.85089 9.3777 1.83331 9.3335 1.83331L6.66683 1.83331C6.62263 1.83331 6.58025 1.85089 6.54899 1.88214C6.51773 1.9134 6.50016 1.95578 6.50016 1.99998L6.50016 3.99998C6.50016 4.27612 6.27631 4.49998 6.00016 4.49998H5.16683V6.27732C5.16683 6.56646 5.26856 6.77585 5.42139 6.916C5.57819 7.05974 5.82882 7.16664 6.1818 7.16665L9.81852 7.16665C10.1719 7.16664 10.4223 7.05965 10.5789 6.916C10.7317 6.77594 10.8335 6.56668 10.8335 6.27732V4.49998L10.0002 4.49998C9.72402 4.49998 9.50016 4.27612 9.50016 3.99998V1.99998ZM5.99561 10.8333H10.0047L8.9891 8.16665H7.01123L5.99561 10.8333ZM10.5002 3.49998L12.6668 3.49998C12.943 3.49998 13.1668 3.72384 13.1668 3.99998C13.1668 4.27612 12.943 4.49998 12.6668 4.49998H11.8335V6.27732C11.8335 6.8213 11.6322 7.30687 11.2547 7.65297C10.9348 7.94637 10.5169 8.11293 10.0542 8.15493L12.4676 14.4889L12.4832 14.5371C12.5492 14.7819 12.4199 15.0419 12.1779 15.1341C11.9199 15.2322 11.631 15.1023 11.5327 14.8444L10.3856 11.8333H5.61475L4.46761 14.8444C4.36934 15.1023 4.0804 15.2322 3.82243 15.1341C3.56448 15.0358 3.43462 14.7469 3.53271 14.4889L5.94548 8.15493C5.48322 8.11281 5.06541 7.94615 4.74561 7.65297C4.36826 7.30696 4.16683 6.82138 4.16683 6.27732L4.16683 4.49998H3.3335C3.05735 4.49998 2.8335 4.27612 2.8335 3.99998C2.8335 3.72384 3.05735 3.49998 3.3335 3.49998L5.50016 3.49998L5.50016 1.99998C5.50016 1.69056 5.62317 1.3939 5.84196 1.17511C6.06075 0.956317 6.35741 0.833313 6.66683 0.833313L9.3335 0.833313C9.64292 0.833313 9.93957 0.956317 10.1584 1.17511C10.3772 1.3939 10.5002 1.69056 10.5002 1.99998V3.49998Z" fill="white"/>
</svg>

