<svg width="24" height="24" viewBox="0 0 24 24" fill="none" xmlns="http://www.w3.org/2000/svg">
<path d="M7.77122 9.00261C8.17031 8.8917 8.40392 8.47826 8.293 8.07917C8.18209 7.68008 7.76865 7.44647 7.36956 7.55739L7.77122 9.00261ZM3.72039 9.35L2.99765 9.55035C3.0508 9.74211 3.178 9.90489 3.35122 10.0028C3.52444 10.1008 3.72949 10.1259 3.92122 10.0726L3.72039 9.35ZM3.37314 5.28965C3.26249 4.89049 2.84921 4.65661 2.45004 4.76725C2.05088 4.8779 1.817 5.29118 1.92765 5.69035L3.37314 5.28965ZM3.08848 8.94402C2.95815 9.33719 3.17123 9.76158 3.56441 9.89191C3.95759 10.0222 4.38197 9.80916 4.5123 9.41598L3.08848 8.94402ZM5.39209 16.4357C5.16881 16.0868 4.70498 15.985 4.3561 16.2083C4.00722 16.4316 3.9054 16.8954 4.12869 17.2443L5.39209 16.4357ZM13.0104 6.54C13.0104 6.12579 12.6746 5.79 12.2604 5.79C11.8462 5.79 11.5104 6.12579 11.5104 6.54H13.0104ZM12.2604 12.1H11.5104C11.5104 12.3158 11.6034 12.5212 11.7655 12.6636L12.2604 12.1ZM16.2755 16.6236C16.5868 16.8969 17.0607 16.8661 17.334 16.5549C17.6073 16.2436 17.5765 15.7697 17.2652 15.4964L16.2755 16.6236ZM7.36956 7.55739L3.51956 8.62739L3.92122 10.0726L7.77122 9.00261L7.36956 7.55739ZM4.44314 9.14965L3.37314 5.28965L1.92765 5.69035L2.99765 9.55035L4.44314 9.14965ZM4.5123 9.41598C5.60392 6.12277 8.70416 3.75 12.3504 3.75V2.25C8.03662 2.25 4.37686 5.05723 3.08848 8.94402L4.5123 9.41598ZM12.3504 3.75C16.9062 3.75 20.6004 7.44421 20.6004 12H22.1004C22.1004 6.61579 17.7346 2.25 12.3504 2.25V3.75ZM20.6004 12C20.6004 16.5558 16.9062 20.25 12.3504 20.25V21.75C17.7346 21.75 22.1004 17.3842 22.1004 12H20.6004ZM12.3504 20.25C9.42727 20.25 6.86035 18.7299 5.39209 16.4357L4.12869 17.2443C5.86043 19.9501 8.89351 21.75 12.3504 21.75V20.25ZM11.5104 6.54V12.1H13.0104V6.54H11.5104ZM11.7655 12.6636L16.2755 16.6236L17.2652 15.4964L12.7552 11.5364L11.7655 12.6636Z" fill="#B6BCCB"/>
</svg>
