<svg width="16" height="16" viewBox="0 0 16 16" fill="none" xmlns="http://www.w3.org/2000/svg">
    <g clip-path="url(#clip0_139_6118)">
        <path
            d="M0.666931 13.3334L0.181266 13.2145C0.144766 13.3636 0.178805 13.5213 0.273591 13.6421C0.368376 13.7628 0.513398 13.8334 0.666931 13.8334V13.3334ZM8.30042 13.3334V13.8334C8.44407 13.8334 8.58078 13.7716 8.6757 13.6638C8.77062 13.556 8.81459 13.4125 8.79639 13.27L8.30042 13.3334ZM15.3336 8.00004V8.50004C15.6097 8.50004 15.8336 8.27618 15.8336 8.00004H15.3336ZM8.60951 8.00004H8.10951C8.10951 8.27618 8.33337 8.50004 8.60951 8.50004V8.00004ZM12.4716 3.33337C12.4716 3.05723 12.2477 2.83337 11.9716 2.83337C11.6954 2.83337 11.4716 3.05723 11.4716 3.33337H12.4716ZM11.4716 3.76264C11.4716 4.03878 11.6954 4.26264 11.9716 4.26264C12.2477 4.26264 12.4716 4.03878 12.4716 3.76264H11.4716ZM6.21855 6.33337C6.21855 7.34734 5.40102 8.16671 4.4336 8.16671V9.16671C5.97286 9.16671 7.21855 7.87986 7.21855 6.33337H6.21855ZM4.4336 8.16671C3.47497 8.16671 2.67979 7.3564 2.67979 6.33337H1.67979C1.67979 7.87079 2.88554 9.16671 4.4336 9.16671V8.16671ZM2.67979 6.33337C2.67979 5.31035 3.47497 4.50004 4.4336 4.50004V3.50004C2.88554 3.50004 1.67979 4.79596 1.67979 6.33337H2.67979ZM4.4336 4.50004C5.40102 4.50004 6.21855 5.31941 6.21855 6.33337H7.21855C7.21855 4.78689 5.97286 3.50004 4.4336 3.50004V4.50004ZM1.1526 13.4522C1.35766 12.6144 1.67172 11.6925 2.19635 10.9881C2.70597 10.3039 3.40422 9.83337 4.4336 9.83337V8.83337C3.02965 8.83337 2.05469 9.50427 1.39437 10.3908C0.749067 11.2572 0.39646 12.3353 0.181266 13.2145L1.1526 13.4522ZM4.4336 9.83337C6.30689 9.83337 7.56821 11.5467 7.80445 13.3967L8.79639 13.27C8.52833 11.1708 7.02697 8.83337 4.4336 8.83337V9.83337ZM15.3336 8.00004C15.3336 7.50004 15.3336 7.50004 15.3336 7.50004C15.3336 7.50004 15.3336 7.50004 15.3335 7.50004C15.3335 7.50004 15.3335 7.50004 15.3334 7.50004C15.3334 7.50004 15.3334 7.50004 15.3333 7.50004C15.3333 7.50004 15.3332 7.50004 15.3332 7.50004C15.3331 7.50004 15.333 7.50004 15.333 7.50004C15.3329 7.50004 15.3328 7.50004 15.3328 7.50004C15.3327 7.50004 15.3326 7.50004 15.3325 7.50004C15.3324 7.50004 15.3323 7.50004 15.3322 7.50004C15.3321 7.50004 15.332 7.50004 15.3319 7.50004C15.3318 7.50004 15.3316 7.50004 15.3315 7.50004C15.3314 7.50004 15.3313 7.50004 15.3311 7.50004C15.331 7.50004 15.3309 7.50004 15.3307 7.50004C15.3306 7.50004 15.3304 7.50004 15.3302 7.50004C15.3301 7.50004 15.3299 7.50004 15.3298 7.50004C15.3296 7.50004 15.3294 7.50004 15.3292 7.50004C15.329 7.50004 15.3289 7.50004 15.3287 7.50004C15.3285 7.50004 15.3283 7.50004 15.3281 7.50004C15.3279 7.50004 15.3277 7.50004 15.3274 7.50004C15.3272 7.50004 15.327 7.50004 15.3268 7.50004C15.3265 7.50004 15.3263 7.50004 15.3261 7.50004C15.3258 7.50004 15.3256 7.50004 15.3254 7.50004C15.3251 7.50004 15.3248 7.50004 15.3246 7.50004C15.3243 7.50004 15.3241 7.50004 15.3238 7.50004C15.3235 7.50004 15.3232 7.50004 15.323 7.50004C15.3227 7.50004 15.3224 7.50004 15.3221 7.50004C15.3218 7.50004 15.3215 7.50004 15.3212 7.50004C15.3209 7.50004 15.3206 7.50004 15.3203 7.50004C15.32 7.50004 15.3196 7.50004 15.3193 7.50004C15.319 7.50004 15.3187 7.50004 15.3183 7.50004C15.318 7.50004 15.3176 7.50004 15.3173 7.50004C15.317 7.50004 15.3166 7.50004 15.3162 7.50004C15.3159 7.50004 15.3155 7.50004 15.3151 7.50004C15.3148 7.50004 15.3144 7.50004 15.314 7.50004C15.3136 7.50004 15.3133 7.50004 15.3129 7.50004C15.3125 7.50004 15.3121 7.50004 15.3117 7.50004C15.3113 7.50004 15.3109 7.50004 15.3104 7.50004C15.31 7.50004 15.3096 7.50004 15.3092 7.50004C15.3088 7.50004 15.3083 7.50004 15.3079 7.50004C15.3075 7.50004 15.307 7.50004 15.3066 7.50004C15.3061 7.50004 15.3057 7.50004 15.3052 7.50004C15.3048 7.50004 15.3043 7.50004 15.3038 7.50004C15.3034 7.50004 15.3029 7.50004 15.3024 7.50004C15.302 7.50004 15.3015 7.50004 15.301 7.50004C15.3005 7.50004 15.3 7.50004 15.2995 7.50004C15.299 7.50004 15.2985 7.50004 15.298 7.50004C15.2975 7.50004 15.297 7.50004 15.2964 7.50004C15.2959 7.50004 15.2954 7.50004 15.2949 7.50004C15.2943 7.50004 15.2938 7.50004 15.2932 7.50004C15.2927 7.50004 15.2922 7.50004 15.2916 7.50004C15.2911 7.50004 15.2905 7.50004 15.2899 7.50004C15.2894 7.50004 15.2888 7.50004 15.2882 7.50004C15.2877 7.50004 15.2871 7.50004 15.2865 7.50004C15.2859 7.50004 15.2853 7.50004 15.2847 7.50004C15.2841 7.50004 15.2835 7.50004 15.2829 7.50004C15.2823 7.50004 15.2817 7.50004 15.2811 7.50004C15.2805 7.50004 15.2798 7.50004 15.2792 7.50004C15.2786 7.50004 15.278 7.50004 15.2773 7.50004C15.2767 7.50004 15.276 7.50004 15.2754 7.50004C15.2748 7.50004 15.2741 7.50004 15.2734 7.50004C15.2728 7.50004 15.2721 7.50004 15.2714 7.50004C15.2708 7.50004 15.2701 7.50004 15.2694 7.50004C15.2687 7.50004 15.2681 7.50004 15.2674 7.50004C15.2667 7.50004 15.266 7.50004 15.2653 7.50004C15.2646 7.50004 15.2639 7.50004 15.2632 7.50004C15.2625 7.50004 15.2618 7.50004 15.261 7.50004C15.2603 7.50004 15.2596 7.50004 15.2589 7.50004C15.2581 7.50004 15.2574 7.50004 15.2566 7.50004C15.2559 7.50004 15.2552 7.50004 15.2544 7.50004C15.2537 7.50004 15.2529 7.50004 15.2521 7.50004C15.2514 7.50004 15.2506 7.50004 15.2498 7.50004C15.2491 7.50004 15.2483 7.50004 15.2475 7.50004C15.2467 7.50004 15.2459 7.50004 15.2451 7.50004C15.2444 7.50004 15.2436 7.50004 15.2428 7.50004C15.2419 7.50004 15.2411 7.50004 15.2403 7.50004C15.2395 7.50004 15.2387 7.50004 15.2379 7.50004C15.237 7.50004 15.2362 7.50004 15.2354 7.50004C15.2346 7.50004 15.2337 7.50004 15.2329 7.50004C15.232 7.50004 15.2312 7.50004 15.2303 7.50004C15.2295 7.50004 15.2286 7.50004 15.2278 7.50004C15.2269 7.50004 15.226 7.50004 15.2251 7.50004C15.2243 7.50004 15.2234 7.50004 15.2225 7.50004C15.2216 7.50004 15.2207 7.50004 15.2198 7.50004C15.2189 7.50004 15.218 7.50004 15.2171 7.50004C15.2162 7.50004 15.2153 7.50004 15.2144 7.50004C15.2135 7.50004 15.2126 7.50004 15.2117 7.50004C15.2107 7.50004 15.2098 7.50004 15.2089 7.50004C15.2079 7.50004 15.207 7.50004 15.2061 7.50004C15.2051 7.50004 15.2042 7.50004 15.2032 7.50004C15.2023 7.50004 15.2013 7.50004 15.2003 7.50004C15.1994 7.50004 15.1984 7.50004 15.1974 7.50004C15.1965 7.50004 15.1955 7.50004 15.1945 7.50004C15.1935 7.50004 15.1925 7.50004 15.1915 7.50004C15.1905 7.50004 15.1895 7.50004 15.1885 7.50004C15.1875 7.50004 15.1865 7.50004 15.1855 7.50004C15.1845 7.50004 15.1835 7.50004 15.1824 7.50004C15.1814 7.50004 15.1804 7.50004 15.1794 7.50004C15.1783 7.50004 15.1773 7.50004 15.1762 7.50004C15.1752 7.50004 15.1742 7.50004 15.1731 7.50004C15.1721 7.50004 15.171 7.50004 15.1699 7.50004C15.1689 7.50004 15.1678 7.50004 15.1667 7.50004C15.1657 7.50004 15.1646 7.50004 15.1635 7.50004C15.1624 7.50004 15.1613 7.50004 15.1602 7.50004C15.1591 7.50004 15.158 7.50004 15.1569 7.50004C15.1558 7.50004 15.1547 7.50004 15.1536 7.50004C15.1525 7.50004 15.1514 7.50004 15.1503 7.50004C15.1492 7.50004 15.148 7.50004 15.1469 7.50004C15.1458 7.50004 15.1446 7.50004 15.1435 7.50004C15.1424 7.50004 15.1412 7.50004 15.1401 7.50004C15.1389 7.50004 15.1378 7.50004 15.1366 7.50004C15.1354 7.50004 15.1343 7.50004 15.1331 7.50004C15.1319 7.50004 15.1308 7.50004 15.1296 7.50004C15.1284 7.50004 15.1272 7.50004 15.126 7.50004C15.1249 7.50004 15.1237 7.50004 15.1225 7.50004C15.1213 7.50004 15.1201 7.50004 15.1189 7.50004C15.1176 7.50004 15.1164 7.50004 15.1152 7.50004C15.114 7.50004 15.1128 7.50004 15.1116 7.50004C15.1103 7.50004 15.1091 7.50004 15.1079 7.50004C15.1066 7.50004 15.1054 7.50004 15.1041 7.50004C15.1029 7.50004 15.1016 7.50004 15.1004 7.50004C15.0991 7.50004 15.0979 7.50004 15.0966 7.50004C15.0954 7.50004 15.0941 7.50004 15.0928 7.50004C15.0915 7.50004 15.0903 7.50004 15.089 7.50004C15.0877 7.50004 15.0864 7.50004 15.0851 7.50004C15.0838 7.50004 15.0825 7.50004 15.0812 7.50004C15.0799 7.50004 15.0786 7.50004 15.0773 7.50004C15.076 7.50004 15.0747 7.50004 15.0734 7.50004C15.072 7.50004 15.0707 7.50004 15.0694 7.50004C15.0681 7.50004 15.0667 7.50004 15.0654 7.50004C15.0641 7.50004 15.0627 7.50004 15.0614 7.50004C15.06 7.50004 15.0587 7.50004 15.0573 7.50004C15.0559 7.50004 15.0546 7.50004 15.0532 7.50004C15.0519 7.50004 15.0505 7.50004 15.0491 7.50004C15.0477 7.50004 15.0464 7.50004 15.045 7.50004C15.0436 7.50004 15.0422 7.50004 15.0408 7.50004C15.0394 7.50004 15.038 7.50004 15.0366 7.50004C15.0352 7.50004 15.0338 7.50004 15.0324 7.50004C15.031 7.50004 15.0296 7.50004 15.0281 7.50004C15.0267 7.50004 15.0253 7.50004 15.0239 7.50004C15.0224 7.50004 15.021 7.50004 15.0196 7.50004C15.0181 7.50004 15.0167 7.50004 15.0152 7.50004C15.0138 7.50004 15.0123 7.50004 15.0109 7.50004C15.0094 7.50004 15.0079 7.50004 15.0065 7.50004C15.005 7.50004 15.0035 7.50004 15.0021 7.50004C15.0006 7.50004 14.9991 7.50004 14.9976 7.50004C14.9961 7.50004 14.9946 7.50004 14.9932 7.50004C14.9917 7.50004 14.9902 7.50004 14.9887 7.50004C14.9872 7.50004 14.9857 7.50004 14.9841 7.50004C14.9826 7.50004 14.9811 7.50004 14.9796 7.50004C14.9781 7.50004 14.9765 7.50004 14.975 7.50004C14.9735 7.50004 14.972 7.50004 14.9704 7.50004C14.9689 7.50004 14.9673 7.50004 14.9658 7.50004C14.9642 7.50004 14.9627 7.50004 14.9611 7.50004C14.9596 7.50004 14.958 7.50004 14.9565 7.50004C14.9549 7.50004 14.9533 7.50004 14.9517 7.50004C14.9502 7.50004 14.9486 7.50004 14.947 7.50004C14.9454 7.50004 14.9438 7.50004 14.9423 7.50004C14.9407 7.50004 14.9391 7.50004 14.9375 7.50004C14.9359 7.50004 14.9343 7.50004 14.9327 7.50004C14.931 7.50004 14.9294 7.50004 14.9278 7.50004C14.9262 7.50004 14.9246 7.50004 14.923 7.50004C14.9213 7.50004 14.9197 7.50004 14.9181 7.50004C14.9164 7.50004 14.9148 7.50004 14.9131 7.50004C14.9115 7.50004 14.9099 7.50004 14.9082 7.50004C14.9065 7.50004 14.9049 7.50004 14.9032 7.50004C14.9016 7.50004 14.8999 7.50004 14.8982 7.50004C14.8966 7.50004 14.8949 7.50004 14.8932 7.50004C14.8915 7.50004 14.8899 7.50004 14.8882 7.50004C14.8865 7.50004 14.8848 7.50004 14.8831 7.50004C14.8814 7.50004 14.8797 7.50004 14.878 7.50004C14.8763 7.50004 14.8746 7.50004 14.8729 7.50004C14.8712 7.50004 14.8694 7.50004 14.8677 7.50004C14.866 7.50004 14.8643 7.50004 14.8625 7.50004C14.8608 7.50004 14.8591 7.50004 14.8573 7.50004C14.8556 7.50004 14.8539 7.50004 14.8521 7.50004C14.8504 7.50004 14.8486 7.50004 14.8469 7.50004C14.8451 7.50004 14.8433 7.50004 14.8416 7.50004C14.8398 7.50004 14.8381 7.50004 14.8363 7.50004C14.8345 7.50004 14.8327 7.50004 14.831 7.50004C14.8292 7.50004 14.8274 7.50004 14.8256 7.50004C14.8238 7.50004 14.822 7.50004 14.8202 7.50004C14.8184 7.50004 14.8166 7.50004 14.8148 7.50004C14.813 7.50004 14.8112 7.50004 14.8094 7.50004C14.8076 7.50004 14.8058 7.50004 14.8039 7.50004C14.8021 7.50004 14.8003 7.50004 14.7985 7.50004C14.7966 7.50004 14.7948 7.50004 14.793 7.50004C14.7911 7.50004 14.7893 7.50004 14.7874 7.50004C14.7856 7.50004 14.7837 7.50004 14.7819 7.50004C14.78 7.50004 14.7782 7.50004 14.7763 7.50004C14.7744 7.50004 14.7726 7.50004 14.7707 7.50004C14.7688 7.50004 14.7669 7.50004 14.7651 7.50004C14.7632 7.50004 14.7613 7.50004 14.7594 7.50004C14.7575 7.50004 14.7556 7.50004 14.7537 7.50004C14.7518 7.50004 14.7499 7.50004 14.748 7.50004C14.7461 7.50004 14.7442 7.50004 14.7423 7.50004C14.7404 7.50004 14.7385 7.50004 14.7366 7.50004C14.7346 7.50004 14.7327 7.50004 14.7308 7.50004C14.7289 7.50004 14.7269 7.50004 14.725 7.50004C14.7231 7.50004 14.7211 7.50004 14.7192 7.50004C14.7172 7.50004 14.7153 7.50004 14.7133 7.50004C14.7114 7.50004 14.7094 7.50004 14.7074 7.50004C14.7055 7.50004 14.7035 7.50004 14.7016 7.50004C14.6996 7.50004 14.6976 7.50004 14.6956 7.50004C14.6937 7.50004 14.6917 7.50004 14.6897 7.50004C14.6877 7.50004 14.6857 7.50004 14.6837 7.50004C14.6817 7.50004 14.6797 7.50004 14.6777 7.50004C14.6757 7.50004 14.6737 7.50004 14.6717 7.50004C14.6697 7.50004 14.6677 7.50004 14.6657 7.50004C14.6637 7.50004 14.6616 7.50004 14.6596 7.50004C14.6576 7.50004 14.6556 7.50004 14.6535 7.50004C14.6515 7.50004 14.6495 7.50004 14.6474 7.50004C14.6454 7.50004 14.6433 7.50004 14.6413 7.50004C14.6392 7.50004 14.6372 7.50004 14.6351 7.50004C14.6331 7.50004 14.631 7.50004 14.629 7.50004C14.6269 7.50004 14.6248 7.50004 14.6227 7.50004C14.6207 7.50004 14.6186 7.50004 14.6165 7.50004C14.6144 7.50004 14.6124 7.50004 14.6103 7.50004C14.6082 7.50004 14.6061 7.50004 14.604 7.50004C14.6019 7.50004 14.5998 7.50004 14.5977 7.50004C14.5956 7.50004 14.5935 7.50004 14.5914 7.50004C14.5893 7.50004 14.5872 7.50004 14.585 7.50004C14.5829 7.50004 14.5808 7.50004 14.5787 7.50004C14.5765 7.50004 14.5744 7.50004 14.5723 7.50004C14.5701 7.50004 14.568 7.50004 14.5659 7.50004C14.5637 7.50004 14.5616 7.50004 14.5594 7.50004C14.5573 7.50004 14.5551 7.50004 14.553 7.50004C14.5508 7.50004 14.5487 7.50004 14.5465 7.50004C14.5443 7.50004 14.5422 7.50004 14.54 7.50004C14.5378 7.50004 14.5356 7.50004 14.5335 7.50004C14.5313 7.50004 14.5291 7.50004 14.5269 7.50004C14.5247 7.50004 14.5225 7.50004 14.5203 7.50004C14.5182 7.50004 14.516 7.50004 14.5138 7.50004C14.5116 7.50004 14.5093 7.50004 14.5071 7.50004C14.5049 7.50004 14.5027 7.50004 14.5005 7.50004C14.4983 7.50004 14.4961 7.50004 14.4938 7.50004C14.4916 7.50004 14.4894 7.50004 14.4872 7.50004C14.4849 7.50004 14.4827 7.50004 14.4804 7.50004C14.4782 7.50004 14.476 7.50004 14.4737 7.50004C14.4715 7.50004 14.4692 7.50004 14.467 7.50004C14.4647 7.50004 14.4625 7.50004 14.4602 7.50004C14.4579 7.50004 14.4557 7.50004 14.4534 7.50004C14.4511 7.50004 14.4489 7.50004 14.4466 7.50004C14.4443 7.50004 14.442 7.50004 14.4398 7.50004C14.4375 7.50004 14.4352 7.50004 14.4329 7.50004C14.4306 7.50004 14.4283 7.50004 14.426 7.50004C14.4237 7.50004 14.4214 7.50004 14.4191 7.50004C14.4168 7.50004 14.4145 7.50004 14.4122 7.50004C14.4099 7.50004 14.4076 7.50004 14.4052 7.50004C14.4029 7.50004 14.4006 7.50004 14.3983 7.50004C14.3959 7.50004 14.3936 7.50004 14.3913 7.50004C14.3889 7.50004 14.3866 7.50004 14.3843 7.50004C14.3819 7.50004 14.3796 7.50004 14.3772 7.50004C14.3749 7.50004 14.3725 7.50004 14.3702 7.50004C14.3678 7.50004 14.3655 7.50004 14.3631 7.50004C14.3607 7.50004 14.3584 7.50004 14.356 7.50004C14.3536 7.50004 14.3513 7.50004 14.3489 7.50004C14.3465 7.50004 14.3441 7.50004 14.3417 7.50004C14.3394 7.50004 14.337 7.50004 14.3346 7.50004C14.3322 7.50004 14.3298 7.50004 14.3274 7.50004C14.325 7.50004 14.3226 7.50004 14.3202 7.50004C14.3178 7.50004 14.3154 7.50004 14.313 7.50004C14.3106 7.50004 14.3081 7.50004 14.3057 7.50004C14.3033 7.50004 14.3009 7.50004 14.2985 7.50004C14.296 7.50004 14.2936 7.50004 14.2912 7.50004C14.2887 7.50004 14.2863 7.50004 14.2839 7.50004C14.2814 7.50004 14.279 7.50004 14.2765 7.50004C14.2741 7.50004 14.2716 7.50004 14.2692 7.50004C14.2667 7.50004 14.2643 7.50004 14.2618 7.50004C14.2593 7.50004 14.2569 7.50004 14.2544 7.50004C14.2519 7.50004 14.2495 7.50004 14.247 7.50004C14.2445 7.50004 14.242 7.50004 14.2396 7.50004C14.2371 7.50004 14.2346 7.50004 14.2321 7.50004C14.2296 7.50004 14.2271 7.50004 14.2246 7.50004C14.2221 7.50004 14.2197 7.50004 14.2171 7.50004C14.2146 7.50004 14.2121 7.50004 14.2096 7.50004C14.2071 7.50004 14.2046 7.50004 14.2021 7.50004C14.1996 7.50004 14.1971 7.50004 14.1945 7.50004C14.192 7.50004 14.1895 7.50004 14.187 7.50004C14.1844 7.50004 14.1819 7.50004 14.1794 7.50004C14.1768 7.50004 14.1743 7.50004 14.1718 7.50004C14.1692 7.50004 14.1667 7.50004 14.1641 7.50004C14.1616 7.50004 14.159 7.50004 14.1565 7.50004C14.1539 7.50004 14.1514 7.50004 14.1488 7.50004C14.1462 7.50004 14.1437 7.50004 14.1411 7.50004C14.1385 7.50004 14.136 7.50004 14.1334 7.50004C14.1308 7.50004 14.1282 7.50004 14.1257 7.50004C14.1231 7.50004 14.1205 7.50004 14.1179 7.50004C14.1153 7.50004 14.1127 7.50004 14.1101 7.50004C14.1075 7.50004 14.1049 7.50004 14.1023 7.50004C14.0997 7.50004 14.0971 7.50004 14.0945 7.50004C14.0919 7.50004 14.0893 7.50004 14.0867 7.50004C14.0841 7.50004 14.0815 7.50004 14.0788 7.50004C14.0762 7.50004 14.0736 7.50004 14.071 7.50004C14.0683 7.50004 14.0657 7.50004 14.0631 7.50004C14.0604 7.50004 14.0578 7.50004 14.0552 7.50004C14.0525 7.50004 14.0499 7.50004 14.0472 7.50004C14.0446 7.50004 14.0419 7.50004 14.0393 7.50004C14.0366 7.50004 14.034 7.50004 14.0313 7.50004C14.0287 7.50004 14.026 7.50004 14.0233 7.50004C14.0207 7.50004 14.018 7.50004 14.0153 7.50004C14.0127 7.50004 14.01 7.50004 14.0073 7.50004C14.0046 7.50004 14.0019 7.50004 13.9993 7.50004C13.9966 7.50004 13.9939 7.50004 13.9912 7.50004C13.9885 7.50004 13.9858 7.50004 13.9831 7.50004C13.9804 7.50004 13.9777 7.50004 13.975 7.50004C13.9723 7.50004 13.9696 7.50004 13.9669 7.50004C13.9642 7.50004 13.9615 7.50004 13.9588 7.50004C13.956 7.50004 13.9533 7.50004 13.9506 7.50004C13.9479 7.50004 13.9452 7.50004 13.9424 7.50004C13.9397 7.50004 13.937 7.50004 13.9342 7.50004C13.9315 7.50004 13.9288 7.50004 13.926 7.50004C13.9233 7.50004 13.9205 7.50004 13.9178 7.50004C13.9151 7.50004 13.9123 7.50004 13.9096 7.50004C13.9068 7.50004 13.904 7.50004 13.9013 7.50004C13.8985 7.50004 13.8958 7.50004 13.893 7.50004C13.8902 7.50004 13.8875 7.50004 13.8847 7.50004C13.8819 7.50004 13.8792 7.50004 13.8764 7.50004C13.8736 7.50004 13.8708 7.50004 13.868 7.50004C13.8653 7.50004 13.8625 7.50004 13.8597 7.50004C13.8569 7.50004 13.8541 7.50004 13.8513 7.50004C13.8485 7.50004 13.8457 7.50004 13.8429 7.50004C13.8401 7.50004 13.8373 7.50004 13.8345 7.50004C13.8317 7.50004 13.8289 7.50004 13.8261 7.50004C13.8233 7.50004 13.8204 7.50004 13.8176 7.50004C13.8148 7.50004 13.812 7.50004 13.8092 7.50004C13.8063 7.50004 13.8035 7.50004 13.8007 7.50004C13.7978 7.50004 13.795 7.50004 13.7922 7.50004C13.7893 7.50004 13.7865 7.50004 13.7837 7.50004C13.7808 7.50004 13.778 7.50004 13.7751 7.50004C13.7723 7.50004 13.7694 7.50004 13.7666 7.50004C13.7637 7.50004 13.7609 7.50004 13.758 7.50004C13.7551 7.50004 13.7523 7.50004 13.7494 7.50004C13.7466 7.50004 13.7437 7.50004 13.7408 7.50004C13.7379 7.50004 13.7351 7.50004 13.7322 7.50004C13.7293 7.50004 13.7264 7.50004 13.7236 7.50004C13.7207 7.50004 13.7178 7.50004 13.7149 7.50004C13.712 7.50004 13.7091 7.50004 13.7062 7.50004C13.7033 7.50004 13.7004 7.50004 13.6975 7.50004C13.6946 7.50004 13.6917 7.50004 13.6888 7.50004C13.6859 7.50004 13.683 7.50004 13.6801 7.50004C13.6772 7.50004 13.6743 7.50004 13.6714 7.50004C13.6684 7.50004 13.6655 7.50004 13.6626 7.50004C13.6597 7.50004 13.6568 7.50004 13.6538 7.50004C13.6509 7.50004 13.648 7.50004 13.645 7.50004C13.6421 7.50004 13.6392 7.50004 13.6362 7.50004C13.6333 7.50004 13.6303 7.50004 13.6274 7.50004C13.6245 7.50004 13.6215 7.50004 13.6186 7.50004C13.6156 7.50004 13.6127 7.50004 13.6097 7.50004C13.6067 7.50004 13.6038 7.50004 13.6008 7.50004C13.5979 7.50004 13.5949 7.50004 13.5919 7.50004C13.589 7.50004 13.586 7.50004 13.583 7.50004C13.5801 7.50004 13.5771 7.50004 13.5741 7.50004C13.5711 7.50004 13.5681 7.50004 13.5652 7.50004C13.5622 7.50004 13.5592 7.50004 13.5562 7.50004C13.5532 7.50004 13.5502 7.50004 13.5472 7.50004C13.5442 7.50004 13.5412 7.50004 13.5382 7.50004C13.5352 7.50004 13.5322 7.50004 13.5292 7.50004C13.5262 7.50004 13.5232 7.50004 13.5202 7.50004C13.5172 7.50004 13.5142 7.50004 13.5112 7.50004C13.5082 7.50004 13.5051 7.50004 13.5021 7.50004C13.4991 7.50004 13.4961 7.50004 13.4931 7.50004C13.49 7.50004 13.487 7.50004 13.484 7.50004C13.4809 7.50004 13.4779 7.50004 13.4749 7.50004C13.4718 7.50004 13.4688 7.50004 13.4658 7.50004C13.4627 7.50004 13.4597 7.50004 13.4566 7.50004C13.4536 7.50004 13.4505 7.50004 13.4475 7.50004C13.4444 7.50004 13.4414 7.50004 13.4383 7.50004C13.4353 7.50004 13.4322 7.50004 13.4291 7.50004C13.4261 7.50004 13.423 7.50004 13.4199 7.50004C13.4169 7.50004 13.4138 7.50004 13.4107 7.50004C13.4077 7.50004 13.4046 7.50004 13.4015 7.50004C13.3984 7.50004 13.3954 7.50004 13.3923 7.50004C13.3892 7.50004 13.3861 7.50004 13.383 7.50004C13.3799 7.50004 13.3768 7.50004 13.3737 7.50004C13.3707 7.50004 13.3676 7.50004 13.3645 7.50004C13.3614 7.50004 13.3583 7.50004 13.3552 7.50004C13.3521 7.50004 13.3489 7.50004 13.3458 7.50004C13.3427 7.50004 13.3396 7.50004 13.3365 7.50004C13.3334 7.50004 13.3303 7.50004 13.3272 7.50004C13.324 7.50004 13.3209 7.50004 13.3178 7.50004C13.3147 7.50004 13.3116 7.50004 13.3084 7.50004C13.3053 7.50004 13.3022 7.50004 13.299 7.50004C13.2959 7.50004 13.2928 7.50004 13.2896 7.50004C13.2865 7.50004 13.2834 7.50004 13.2802 7.50004C13.2771 7.50004 13.2739 7.50004 13.2708 7.50004C13.2676 7.50004 13.2645 7.50004 13.2613 7.50004C13.2582 7.50004 13.255 7.50004 13.2519 7.50004C13.2487 7.50004 13.2455 7.50004 13.2424 7.50004C13.2392 7.50004 13.2361 7.50004 13.2329 7.50004C13.2297 7.50004 13.2266 7.50004 13.2234 7.50004C13.2202 7.50004 13.217 7.50004 13.2139 7.50004C13.2107 7.50004 13.2075 7.50004 13.2043 7.50004C13.2012 7.50004 13.198 7.50004 13.1948 7.50004C13.1916 7.50004 13.1884 7.50004 13.1852 7.50004C13.182 7.50004 13.1788 7.50004 13.1756 7.50004C13.1724 7.50004 13.1692 7.50004 13.166 7.50004C13.1628 7.50004 13.1596 7.50004 13.1564 7.50004C13.1532 7.50004 13.15 7.50004 13.1468 7.50004C13.1436 7.50004 13.1404 7.50004 13.1372 7.50004C13.134 7.50004 13.1308 7.50004 13.1275 7.50004C13.1243 7.50004 13.1211 7.50004 13.1179 7.50004C13.1147 7.50004 13.1114 7.50004 13.1082 7.50004C13.105 7.50004 13.1017 7.50004 13.0985 7.50004C13.0953 7.50004 13.092 7.50004 13.0888 7.50004C13.0856 7.50004 13.0823 7.50004 13.0791 7.50004C13.0758 7.50004 13.0726 7.50004 13.0694 7.50004C13.0661 7.50004 13.0629 7.50004 13.0596 7.50004C13.0564 7.50004 13.0531 7.50004 13.0499 7.50004C13.0466 7.50004 13.0433 7.50004 13.0401 7.50004C13.0368 7.50004 13.0336 7.50004 13.0303 7.50004C13.027 7.50004 13.0238 7.50004 13.0205 7.50004C13.0172 7.50004 13.014 7.50004 13.0107 7.50004C13.0074 7.50004 13.0041 7.50004 13.0009 7.50004C12.9976 7.50004 12.9943 7.50004 12.991 7.50004C12.9878 7.50004 12.9845 7.50004 12.9812 7.50004C12.9779 7.50004 12.9746 7.50004 12.9713 7.50004C12.968 7.50004 12.9647 7.50004 12.9614 7.50004C12.9582 7.50004 12.9549 7.50004 12.9516 7.50004C12.9483 7.50004 12.945 7.50004 12.9417 7.50004C12.9384 7.50004 12.935 7.50004 12.9317 7.50004C12.9284 7.50004 12.9251 7.50004 12.9218 7.50004C12.9185 7.50004 12.9152 7.50004 12.9119 7.50004C12.9086 7.50004 12.9052 7.50004 12.9019 7.50004C12.8986 7.50004 12.8953 7.50004 12.892 7.50004C12.8886 7.50004 12.8853 7.50004 12.882 7.50004C12.8786 7.50004 12.8753 7.50004 12.872 7.50004C12.8687 7.50004 12.8653 7.50004 12.862 7.50004C12.8586 7.50004 12.8553 7.50004 12.852 7.50004C12.8486 7.50004 12.8453 7.50004 12.8419 7.50004C12.8386 7.50004 12.8352 7.50004 12.8319 7.50004C12.8285 7.50004 12.8252 7.50004 12.8218 7.50004C12.8185 7.50004 12.8151 7.50004 12.8118 7.50004C12.8084 7.50004 12.8051 7.50004 12.8017 7.50004C12.7983 7.50004 12.795 7.50004 12.7916 7.50004C12.7883 7.50004 12.7849 7.50004 12.7815 7.50004C12.7781 7.50004 12.7748 7.50004 12.7714 7.50004C12.768 7.50004 12.7647 7.50004 12.7613 7.50004C12.7579 7.50004 12.7545 7.50004 12.7511 7.50004C12.7478 7.50004 12.7444 7.50004 12.741 7.50004C12.7376 7.50004 12.7342 7.50004 12.7308 7.50004C12.7274 7.50004 12.724 7.50004 12.7207 7.50004C12.7173 7.50004 12.7139 7.50004 12.7105 7.50004C12.7071 7.50004 12.7037 7.50004 12.7003 7.50004C12.6969 7.50004 12.6935 7.50004 12.6901 7.50004C12.6867 7.50004 12.6833 7.50004 12.6798 7.50004C12.6764 7.50004 12.673 7.50004 12.6696 7.50004C12.6662 7.50004 12.6628 7.50004 12.6594 7.50004C12.656 7.50004 12.6525 7.50004 12.6491 7.50004C12.6457 7.50004 12.6423 7.50004 12.6389 7.50004C12.6354 7.50004 12.632 7.50004 12.6286 7.50004C12.6252 7.50004 12.6217 7.50004 12.6183 7.50004C12.6149 7.50004 12.6114 7.50004 12.608 7.50004C12.6046 7.50004 12.6011 7.50004 12.5977 7.50004C12.5942 7.50004 12.5908 7.50004 12.5874 7.50004C12.5839 7.50004 12.5805 7.50004 12.577 7.50004C12.5736 7.50004 12.5701 7.50004 12.5667 7.50004C12.5632 7.50004 12.5598 7.50004 12.5563 7.50004C12.5529 7.50004 12.5494 7.50004 12.546 7.50004C12.5425 7.50004 12.5391 7.50004 12.5356 7.50004C12.5321 7.50004 12.5287 7.50004 12.5252 7.50004C12.5217 7.50004 12.5183 7.50004 12.5148 7.50004C12.5113 7.50004 12.5079 7.50004 12.5044 7.50004C12.5009 7.50004 12.4975 7.50004 12.494 7.50004C12.4905 7.50004 12.487 7.50004 12.4836 7.50004C12.4801 7.50004 12.4766 7.50004 12.4731 7.50004C12.4696 7.50004 12.4662 7.50004 12.4627 7.50004C12.4592 7.50004 12.4557 7.50004 12.4522 7.50004C12.4487 7.50004 12.4452 7.50004 12.4417 7.50004C12.4382 7.50004 12.4348 7.50004 12.4313 7.50004C12.4278 7.50004 12.4243 7.50004 12.4208 7.50004C12.4173 7.50004 12.4138 7.50004 12.4103 7.50004C12.4068 7.50004 12.4033 7.50004 12.3998 7.50004C12.3963 7.50004 12.3927 7.50004 12.3892 7.50004C12.3857 7.50004 12.3822 7.50004 12.3787 7.50004C12.3752 7.50004 12.3717 7.50004 12.3682 7.50004C12.3646 7.50004 12.3611 7.50004 12.3576 7.50004C12.3541 7.50004 12.3506 7.50004 12.347 7.50004C12.3435 7.50004 12.34 7.50004 12.3365 7.50004C12.333 7.50004 12.3294 7.50004 12.3259 7.50004C12.3224 7.50004 12.3188 7.50004 12.3153 7.50004C12.3118 7.50004 12.3082 7.50004 12.3047 7.50004C12.3012 7.50004 12.2976 7.50004 12.2941 7.50004C12.2906 7.50004 12.287 7.50004 12.2835 7.50004C12.2799 7.50004 12.2764 7.50004 12.2728 7.50004C12.2693 7.50004 12.2658 7.50004 12.2622 7.50004C12.2587 7.50004 12.2551 7.50004 12.2516 7.50004C12.248 7.50004 12.2445 7.50004 12.2409 7.50004C12.2373 7.50004 12.2338 7.50004 12.2302 7.50004C12.2267 7.50004 12.2231 7.50004 12.2196 7.50004C12.216 7.50004 12.2124 7.50004 12.2089 7.50004C12.2053 7.50004 12.2017 7.50004 12.1982 7.50004C12.1946 7.50004 12.191 7.50004 12.1875 7.50004C12.1839 7.50004 12.1803 7.50004 12.1768 7.50004C12.1732 7.50004 12.1696 7.50004 12.166 7.50004C12.1625 7.50004 12.1589 7.50004 12.1553 7.50004C12.1517 7.50004 12.1481 7.50004 12.1446 7.50004C12.141 7.50004 12.1374 7.50004 12.1338 7.50004C12.1302 7.50004 12.1266 7.50004 12.1231 7.50004C12.1195 7.50004 12.1159 7.50004 12.1123 7.50004C12.1087 7.50004 12.1051 7.50004 12.1015 7.50004C12.0979 7.50004 12.0943 7.50004 12.0907 7.50004C12.0871 7.50004 12.0835 7.50004 12.0799 7.50004C12.0763 7.50004 12.0727 7.50004 12.0691 7.50004C12.0655 7.50004 12.0619 7.50004 12.0583 7.50004C12.0547 7.50004 12.0511 7.50004 12.0475 7.50004C12.0439 7.50004 12.0403 7.50004 12.0367 7.50004C12.0331 7.50004 12.0295 7.50004 12.0259 7.50004C12.0222 7.50004 12.0186 7.50004 12.015 7.50004C12.0114 7.50004 12.0078 7.50004 12.0042 7.50004C12.0005 7.50004 11.9969 7.50004 11.9933 7.50004C11.9897 7.50004 11.9861 7.50004 11.9824 7.50004C11.9788 7.50004 11.9752 7.50004 11.9716 7.50004V8.50004C11.9752 8.50004 11.9788 8.50004 11.9824 8.50004C11.9861 8.50004 11.9897 8.50004 11.9933 8.50004C11.9969 8.50004 12.0005 8.50004 12.0042 8.50004C12.0078 8.50004 12.0114 8.50004 12.015 8.50004C12.0186 8.50004 12.0222 8.50004 12.0259 8.50004C12.0295 8.50004 12.0331 8.50004 12.0367 8.50004C12.0403 8.50004 12.0439 8.50004 12.0475 8.50004C12.0511 8.50004 12.0547 8.50004 12.0583 8.50004C12.0619 8.50004 12.0655 8.50004 12.0691 8.50004C12.0727 8.50004 12.0763 8.50004 12.0799 8.50004C12.0835 8.50004 12.0871 8.50004 12.0907 8.50004C12.0943 8.50004 12.0979 8.50004 12.1015 8.50004C12.1051 8.50004 12.1087 8.50004 12.1123 8.50004C12.1159 8.50004 12.1195 8.50004 12.1231 8.50004C12.1266 8.50004 12.1302 8.50004 12.1338 8.50004C12.1374 8.50004 12.141 8.50004 12.1446 8.50004C12.1481 8.50004 12.1517 8.50004 12.1553 8.50004C12.1589 8.50004 12.1625 8.50004 12.166 8.50004C12.1696 8.50004 12.1732 8.50004 12.1768 8.50004C12.1803 8.50004 12.1839 8.50004 12.1875 8.50004C12.191 8.50004 12.1946 8.50004 12.1982 8.50004C12.2017 8.50004 12.2053 8.50004 12.2089 8.50004C12.2124 8.50004 12.216 8.50004 12.2196 8.50004C12.2231 8.50004 12.2267 8.50004 12.2302 8.50004C12.2338 8.50004 12.2373 8.50004 12.2409 8.50004C12.2445 8.50004 12.248 8.50004 12.2516 8.50004C12.2551 8.50004 12.2587 8.50004 12.2622 8.50004C12.2658 8.50004 12.2693 8.50004 12.2728 8.50004C12.2764 8.50004 12.2799 8.50004 12.2835 8.50004C12.287 8.50004 12.2906 8.50004 12.2941 8.50004C12.2976 8.50004 12.3012 8.50004 12.3047 8.50004C12.3082 8.50004 12.3118 8.50004 12.3153 8.50004C12.3188 8.50004 12.3224 8.50004 12.3259 8.50004C12.3294 8.50004 12.333 8.50004 12.3365 8.50004C12.34 8.50004 12.3435 8.50004 12.347 8.50004C12.3506 8.50004 12.3541 8.50004 12.3576 8.50004C12.3611 8.50004 12.3646 8.50004 12.3682 8.50004C12.3717 8.50004 12.3752 8.50004 12.3787 8.50004C12.3822 8.50004 12.3857 8.50004 12.3892 8.50004C12.3927 8.50004 12.3963 8.50004 12.3998 8.50004C12.4033 8.50004 12.4068 8.50004 12.4103 8.50004C12.4138 8.50004 12.4173 8.50004 12.4208 8.50004C12.4243 8.50004 12.4278 8.50004 12.4313 8.50004C12.4348 8.50004 12.4382 8.50004 12.4417 8.50004C12.4452 8.50004 12.4487 8.50004 12.4522 8.50004C12.4557 8.50004 12.4592 8.50004 12.4627 8.50004C12.4662 8.50004 12.4696 8.50004 12.4731 8.50004C12.4766 8.50004 12.4801 8.50004 12.4836 8.50004C12.487 8.50004 12.4905 8.50004 12.494 8.50004C12.4975 8.50004 12.5009 8.50004 12.5044 8.50004C12.5079 8.50004 12.5113 8.50004 12.5148 8.50004C12.5183 8.50004 12.5217 8.50004 12.5252 8.50004C12.5287 8.50004 12.5321 8.50004 12.5356 8.50004C12.5391 8.50004 12.5425 8.50004 12.546 8.50004C12.5494 8.50004 12.5529 8.50004 12.5563 8.50004C12.5598 8.50004 12.5632 8.50004 12.5667 8.50004C12.5701 8.50004 12.5736 8.50004 12.577 8.50004C12.5805 8.50004 12.5839 8.50004 12.5874 8.50004C12.5908 8.50004 12.5942 8.50004 12.5977 8.50004C12.6011 8.50004 12.6046 8.50004 12.608 8.50004C12.6114 8.50004 12.6149 8.50004 12.6183 8.50004C12.6217 8.50004 12.6252 8.50004 12.6286 8.50004C12.632 8.50004 12.6354 8.50004 12.6389 8.50004C12.6423 8.50004 12.6457 8.50004 12.6491 8.50004C12.6525 8.50004 12.656 8.50004 12.6594 8.50004C12.6628 8.50004 12.6662 8.50004 12.6696 8.50004C12.673 8.50004 12.6764 8.50004 12.6798 8.50004C12.6833 8.50004 12.6867 8.50004 12.6901 8.50004C12.6935 8.50004 12.6969 8.50004 12.7003 8.50004C12.7037 8.50004 12.7071 8.50004 12.7105 8.50004C12.7139 8.50004 12.7173 8.50004 12.7207 8.50004C12.724 8.50004 12.7274 8.50004 12.7308 8.50004C12.7342 8.50004 12.7376 8.50004 12.741 8.50004C12.7444 8.50004 12.7478 8.50004 12.7511 8.50004C12.7545 8.50004 12.7579 8.50004 12.7613 8.50004C12.7647 8.50004 12.768 8.50004 12.7714 8.50004C12.7748 8.50004 12.7781 8.50004 12.7815 8.50004C12.7849 8.50004 12.7883 8.50004 12.7916 8.50004C12.795 8.50004 12.7983 8.50004 12.8017 8.50004C12.8051 8.50004 12.8084 8.50004 12.8118 8.50004C12.8151 8.50004 12.8185 8.50004 12.8218 8.50004C12.8252 8.50004 12.8285 8.50004 12.8319 8.50004C12.8352 8.50004 12.8386 8.50004 12.8419 8.50004C12.8453 8.50004 12.8486 8.50004 12.852 8.50004C12.8553 8.50004 12.8586 8.50004 12.862 8.50004C12.8653 8.50004 12.8687 8.50004 12.872 8.50004C12.8753 8.50004 12.8786 8.50004 12.882 8.50004C12.8853 8.50004 12.8886 8.50004 12.892 8.50004C12.8953 8.50004 12.8986 8.50004 12.9019 8.50004C12.9052 8.50004 12.9086 8.50004 12.9119 8.50004C12.9152 8.50004 12.9185 8.50004 12.9218 8.50004C12.9251 8.50004 12.9284 8.50004 12.9317 8.50004C12.935 8.50004 12.9384 8.50004 12.9417 8.50004C12.945 8.50004 12.9483 8.50004 12.9516 8.50004C12.9549 8.50004 12.9582 8.50004 12.9614 8.50004C12.9647 8.50004 12.968 8.50004 12.9713 8.50004C12.9746 8.50004 12.9779 8.50004 12.9812 8.50004C12.9845 8.50004 12.9878 8.50004 12.991 8.50004C12.9943 8.50004 12.9976 8.50004 13.0009 8.50004C13.0041 8.50004 13.0074 8.50004 13.0107 8.50004C13.014 8.50004 13.0172 8.50004 13.0205 8.50004C13.0238 8.50004 13.027 8.50004 13.0303 8.50004C13.0336 8.50004 13.0368 8.50004 13.0401 8.50004C13.0433 8.50004 13.0466 8.50004 13.0499 8.50004C13.0531 8.50004 13.0564 8.50004 13.0596 8.50004C13.0629 8.50004 13.0661 8.50004 13.0694 8.50004C13.0726 8.50004 13.0758 8.50004 13.0791 8.50004C13.0823 8.50004 13.0856 8.50004 13.0888 8.50004C13.092 8.50004 13.0953 8.50004 13.0985 8.50004C13.1017 8.50004 13.105 8.50004 13.1082 8.50004C13.1114 8.50004 13.1147 8.50004 13.1179 8.50004C13.1211 8.50004 13.1243 8.50004 13.1275 8.50004C13.1308 8.50004 13.134 8.50004 13.1372 8.50004C13.1404 8.50004 13.1436 8.50004 13.1468 8.50004C13.15 8.50004 13.1532 8.50004 13.1564 8.50004C13.1596 8.50004 13.1628 8.50004 13.166 8.50004C13.1692 8.50004 13.1724 8.50004 13.1756 8.50004C13.1788 8.50004 13.182 8.50004 13.1852 8.50004C13.1884 8.50004 13.1916 8.50004 13.1948 8.50004C13.198 8.50004 13.2012 8.50004 13.2043 8.50004C13.2075 8.50004 13.2107 8.50004 13.2139 8.50004C13.217 8.50004 13.2202 8.50004 13.2234 8.50004C13.2266 8.50004 13.2297 8.50004 13.2329 8.50004C13.2361 8.50004 13.2392 8.50004 13.2424 8.50004C13.2455 8.50004 13.2487 8.50004 13.2519 8.50004C13.255 8.50004 13.2582 8.50004 13.2613 8.50004C13.2645 8.50004 13.2676 8.50004 13.2708 8.50004C13.2739 8.50004 13.2771 8.50004 13.2802 8.50004C13.2834 8.50004 13.2865 8.50004 13.2896 8.50004C13.2928 8.50004 13.2959 8.50004 13.299 8.50004C13.3022 8.50004 13.3053 8.50004 13.3084 8.50004C13.3116 8.50004 13.3147 8.50004 13.3178 8.50004C13.3209 8.50004 13.324 8.50004 13.3272 8.50004C13.3303 8.50004 13.3334 8.50004 13.3365 8.50004C13.3396 8.50004 13.3427 8.50004 13.3458 8.50004C13.3489 8.50004 13.3521 8.50004 13.3552 8.50004C13.3583 8.50004 13.3614 8.50004 13.3645 8.50004C13.3676 8.50004 13.3707 8.50004 13.3737 8.50004C13.3768 8.50004 13.3799 8.50004 13.383 8.50004C13.3861 8.50004 13.3892 8.50004 13.3923 8.50004C13.3954 8.50004 13.3984 8.50004 13.4015 8.50004C13.4046 8.50004 13.4077 8.50004 13.4107 8.50004C13.4138 8.50004 13.4169 8.50004 13.4199 8.50004C13.423 8.50004 13.4261 8.50004 13.4291 8.50004C13.4322 8.50004 13.4353 8.50004 13.4383 8.50004C13.4414 8.50004 13.4444 8.50004 13.4475 8.50004C13.4505 8.50004 13.4536 8.50004 13.4566 8.50004C13.4597 8.50004 13.4627 8.50004 13.4658 8.50004C13.4688 8.50004 13.4718 8.50004 13.4749 8.50004C13.4779 8.50004 13.4809 8.50004 13.484 8.50004C13.487 8.50004 13.49 8.50004 13.4931 8.50004C13.4961 8.50004 13.4991 8.50004 13.5021 8.50004C13.5051 8.50004 13.5082 8.50004 13.5112 8.50004C13.5142 8.50004 13.5172 8.50004 13.5202 8.50004C13.5232 8.50004 13.5262 8.50004 13.5292 8.50004C13.5322 8.50004 13.5352 8.50004 13.5382 8.50004C13.5412 8.50004 13.5442 8.50004 13.5472 8.50004C13.5502 8.50004 13.5532 8.50004 13.5562 8.50004C13.5592 8.50004 13.5622 8.50004 13.5652 8.50004C13.5681 8.50004 13.5711 8.50004 13.5741 8.50004C13.5771 8.50004 13.5801 8.50004 13.583 8.50004C13.586 8.50004 13.589 8.50004 13.5919 8.50004C13.5949 8.50004 13.5979 8.50004 13.6008 8.50004C13.6038 8.50004 13.6067 8.50004 13.6097 8.50004C13.6127 8.50004 13.6156 8.50004 13.6186 8.50004C13.6215 8.50004 13.6245 8.50004 13.6274 8.50004C13.6303 8.50004 13.6333 8.50004 13.6362 8.50004C13.6392 8.50004 13.6421 8.50004 13.645 8.50004C13.648 8.50004 13.6509 8.50004 13.6538 8.50004C13.6568 8.50004 13.6597 8.50004 13.6626 8.50004C13.6655 8.50004 13.6684 8.50004 13.6714 8.50004C13.6743 8.50004 13.6772 8.50004 13.6801 8.50004C13.683 8.50004 13.6859 8.50004 13.6888 8.50004C13.6917 8.50004 13.6946 8.50004 13.6975 8.50004C13.7004 8.50004 13.7033 8.50004 13.7062 8.50004C13.7091 8.50004 13.712 8.50004 13.7149 8.50004C13.7178 8.50004 13.7207 8.50004 13.7236 8.50004C13.7264 8.50004 13.7293 8.50004 13.7322 8.50004C13.7351 8.50004 13.7379 8.50004 13.7408 8.50004C13.7437 8.50004 13.7466 8.50004 13.7494 8.50004C13.7523 8.50004 13.7551 8.50004 13.758 8.50004C13.7609 8.50004 13.7637 8.50004 13.7666 8.50004C13.7694 8.50004 13.7723 8.50004 13.7751 8.50004C13.778 8.50004 13.7808 8.50004 13.7837 8.50004C13.7865 8.50004 13.7893 8.50004 13.7922 8.50004C13.795 8.50004 13.7978 8.50004 13.8007 8.50004C13.8035 8.50004 13.8063 8.50004 13.8092 8.50004C13.812 8.50004 13.8148 8.50004 13.8176 8.50004C13.8204 8.50004 13.8233 8.50004 13.8261 8.50004C13.8289 8.50004 13.8317 8.50004 13.8345 8.50004C13.8373 8.50004 13.8401 8.50004 13.8429 8.50004C13.8457 8.50004 13.8485 8.50004 13.8513 8.50004C13.8541 8.50004 13.8569 8.50004 13.8597 8.50004C13.8625 8.50004 13.8653 8.50004 13.868 8.50004C13.8708 8.50004 13.8736 8.50004 13.8764 8.50004C13.8792 8.50004 13.8819 8.50004 13.8847 8.50004C13.8875 8.50004 13.8902 8.50004 13.893 8.50004C13.8958 8.50004 13.8985 8.50004 13.9013 8.50004C13.904 8.50004 13.9068 8.50004 13.9096 8.50004C13.9123 8.50004 13.9151 8.50004 13.9178 8.50004C13.9205 8.50004 13.9233 8.50004 13.926 8.50004C13.9288 8.50004 13.9315 8.50004 13.9342 8.50004C13.937 8.50004 13.9397 8.50004 13.9424 8.50004C13.9452 8.50004 13.9479 8.50004 13.9506 8.50004C13.9533 8.50004 13.956 8.50004 13.9588 8.50004C13.9615 8.50004 13.9642 8.50004 13.9669 8.50004C13.9696 8.50004 13.9723 8.50004 13.975 8.50004C13.9777 8.50004 13.9804 8.50004 13.9831 8.50004C13.9858 8.50004 13.9885 8.50004 13.9912 8.50004C13.9939 8.50004 13.9966 8.50004 13.9993 8.50004C14.0019 8.50004 14.0046 8.50004 14.0073 8.50004C14.01 8.50004 14.0127 8.50004 14.0153 8.50004C14.018 8.50004 14.0207 8.50004 14.0233 8.50004C14.026 8.50004 14.0287 8.50004 14.0313 8.50004C14.034 8.50004 14.0366 8.50004 14.0393 8.50004C14.0419 8.50004 14.0446 8.50004 14.0472 8.50004C14.0499 8.50004 14.0525 8.50004 14.0552 8.50004C14.0578 8.50004 14.0604 8.50004 14.0631 8.50004C14.0657 8.50004 14.0683 8.50004 14.071 8.50004C14.0736 8.50004 14.0762 8.50004 14.0788 8.50004C14.0815 8.50004 14.0841 8.50004 14.0867 8.50004C14.0893 8.50004 14.0919 8.50004 14.0945 8.50004C14.0971 8.50004 14.0997 8.50004 14.1023 8.50004C14.1049 8.50004 14.1075 8.50004 14.1101 8.50004C14.1127 8.50004 14.1153 8.50004 14.1179 8.50004C14.1205 8.50004 14.1231 8.50004 14.1257 8.50004C14.1282 8.50004 14.1308 8.50004 14.1334 8.50004C14.136 8.50004 14.1385 8.50004 14.1411 8.50004C14.1437 8.50004 14.1462 8.50004 14.1488 8.50004C14.1514 8.50004 14.1539 8.50004 14.1565 8.50004C14.159 8.50004 14.1616 8.50004 14.1641 8.50004C14.1667 8.50004 14.1692 8.50004 14.1718 8.50004C14.1743 8.50004 14.1768 8.50004 14.1794 8.50004C14.1819 8.50004 14.1844 8.50004 14.187 8.50004C14.1895 8.50004 14.192 8.50004 14.1945 8.50004C14.1971 8.50004 14.1996 8.50004 14.2021 8.50004C14.2046 8.50004 14.2071 8.50004 14.2096 8.50004C14.2121 8.50004 14.2146 8.50004 14.2171 8.50004C14.2197 8.50004 14.2221 8.50004 14.2246 8.50004C14.2271 8.50004 14.2296 8.50004 14.2321 8.50004C14.2346 8.50004 14.2371 8.50004 14.2396 8.50004C14.242 8.50004 14.2445 8.50004 14.247 8.50004C14.2495 8.50004 14.2519 8.50004 14.2544 8.50004C14.2569 8.50004 14.2593 8.50004 14.2618 8.50004C14.2643 8.50004 14.2667 8.50004 14.2692 8.50004C14.2716 8.50004 14.2741 8.50004 14.2765 8.50004C14.279 8.50004 14.2814 8.50004 14.2839 8.50004C14.2863 8.50004 14.2887 8.50004 14.2912 8.50004C14.2936 8.50004 14.296 8.50004 14.2985 8.50004C14.3009 8.50004 14.3033 8.50004 14.3057 8.50004C14.3081 8.50004 14.3106 8.50004 14.313 8.50004C14.3154 8.50004 14.3178 8.50004 14.3202 8.50004C14.3226 8.50004 14.325 8.50004 14.3274 8.50004C14.3298 8.50004 14.3322 8.50004 14.3346 8.50004C14.337 8.50004 14.3394 8.50004 14.3417 8.50004C14.3441 8.50004 14.3465 8.50004 14.3489 8.50004C14.3513 8.50004 14.3536 8.50004 14.356 8.50004C14.3584 8.50004 14.3607 8.50004 14.3631 8.50004C14.3655 8.50004 14.3678 8.50004 14.3702 8.50004C14.3725 8.50004 14.3749 8.50004 14.3772 8.50004C14.3796 8.50004 14.3819 8.50004 14.3843 8.50004C14.3866 8.50004 14.3889 8.50004 14.3913 8.50004C14.3936 8.50004 14.3959 8.50004 14.3983 8.50004C14.4006 8.50004 14.4029 8.50004 14.4052 8.50004C14.4076 8.50004 14.4099 8.50004 14.4122 8.50004C14.4145 8.50004 14.4168 8.50004 14.4191 8.50004C14.4214 8.50004 14.4237 8.50004 14.426 8.50004C14.4283 8.50004 14.4306 8.50004 14.4329 8.50004C14.4352 8.50004 14.4375 8.50004 14.4398 8.50004C14.442 8.50004 14.4443 8.50004 14.4466 8.50004C14.4489 8.50004 14.4511 8.50004 14.4534 8.50004C14.4557 8.50004 14.4579 8.50004 14.4602 8.50004C14.4625 8.50004 14.4647 8.50004 14.467 8.50004C14.4692 8.50004 14.4715 8.50004 14.4737 8.50004C14.476 8.50004 14.4782 8.50004 14.4804 8.50004C14.4827 8.50004 14.4849 8.50004 14.4872 8.50004C14.4894 8.50004 14.4916 8.50004 14.4938 8.50004C14.4961 8.50004 14.4983 8.50004 14.5005 8.50004C14.5027 8.50004 14.5049 8.50004 14.5071 8.50004C14.5093 8.50004 14.5116 8.50004 14.5138 8.50004C14.516 8.50004 14.5182 8.50004 14.5203 8.50004C14.5225 8.50004 14.5247 8.50004 14.5269 8.50004C14.5291 8.50004 14.5313 8.50004 14.5335 8.50004C14.5356 8.50004 14.5378 8.50004 14.54 8.50004C14.5422 8.50004 14.5443 8.50004 14.5465 8.50004C14.5487 8.50004 14.5508 8.50004 14.553 8.50004C14.5551 8.50004 14.5573 8.50004 14.5594 8.50004C14.5616 8.50004 14.5637 8.50004 14.5659 8.50004C14.568 8.50004 14.5701 8.50004 14.5723 8.50004C14.5744 8.50004 14.5765 8.50004 14.5787 8.50004C14.5808 8.50004 14.5829 8.50004 14.585 8.50004C14.5872 8.50004 14.5893 8.50004 14.5914 8.50004C14.5935 8.50004 14.5956 8.50004 14.5977 8.50004C14.5998 8.50004 14.6019 8.50004 14.604 8.50004C14.6061 8.50004 14.6082 8.50004 14.6103 8.50004C14.6124 8.50004 14.6144 8.50004 14.6165 8.50004C14.6186 8.50004 14.6207 8.50004 14.6227 8.50004C14.6248 8.50004 14.6269 8.50004 14.629 8.50004C14.631 8.50004 14.6331 8.50004 14.6351 8.50004C14.6372 8.50004 14.6392 8.50004 14.6413 8.50004C14.6433 8.50004 14.6454 8.50004 14.6474 8.50004C14.6495 8.50004 14.6515 8.50004 14.6535 8.50004C14.6556 8.50004 14.6576 8.50004 14.6596 8.50004C14.6616 8.50004 14.6637 8.50004 14.6657 8.50004C14.6677 8.50004 14.6697 8.50004 14.6717 8.50004C14.6737 8.50004 14.6757 8.50004 14.6777 8.50004C14.6797 8.50004 14.6817 8.50004 14.6837 8.50004C14.6857 8.50004 14.6877 8.50004 14.6897 8.50004C14.6917 8.50004 14.6937 8.50004 14.6956 8.50004C14.6976 8.50004 14.6996 8.50004 14.7016 8.50004C14.7035 8.50004 14.7055 8.50004 14.7074 8.50004C14.7094 8.50004 14.7114 8.50004 14.7133 8.50004C14.7153 8.50004 14.7172 8.50004 14.7192 8.50004C14.7211 8.50004 14.7231 8.50004 14.725 8.50004C14.7269 8.50004 14.7289 8.50004 14.7308 8.50004C14.7327 8.50004 14.7346 8.50004 14.7366 8.50004C14.7385 8.50004 14.7404 8.50004 14.7423 8.50004C14.7442 8.50004 14.7461 8.50004 14.748 8.50004C14.7499 8.50004 14.7518 8.50004 14.7537 8.50004C14.7556 8.50004 14.7575 8.50004 14.7594 8.50004C14.7613 8.50004 14.7632 8.50004 14.7651 8.50004C14.7669 8.50004 14.7688 8.50004 14.7707 8.50004C14.7726 8.50004 14.7744 8.50004 14.7763 8.50004C14.7782 8.50004 14.78 8.50004 14.7819 8.50004C14.7837 8.50004 14.7856 8.50004 14.7874 8.50004C14.7893 8.50004 14.7911 8.50004 14.793 8.50004C14.7948 8.50004 14.7966 8.50004 14.7985 8.50004C14.8003 8.50004 14.8021 8.50004 14.8039 8.50004C14.8058 8.50004 14.8076 8.50004 14.8094 8.50004C14.8112 8.50004 14.813 8.50004 14.8148 8.50004C14.8166 8.50004 14.8184 8.50004 14.8202 8.50004C14.822 8.50004 14.8238 8.50004 14.8256 8.50004C14.8274 8.50004 14.8292 8.50004 14.831 8.50004C14.8327 8.50004 14.8345 8.50004 14.8363 8.50004C14.8381 8.50004 14.8398 8.50004 14.8416 8.50004C14.8433 8.50004 14.8451 8.50004 14.8469 8.50004C14.8486 8.50004 14.8504 8.50004 14.8521 8.50004C14.8539 8.50004 14.8556 8.50004 14.8573 8.50004C14.8591 8.50004 14.8608 8.50004 14.8625 8.50004C14.8643 8.50004 14.866 8.50004 14.8677 8.50004C14.8694 8.50004 14.8712 8.50004 14.8729 8.50004C14.8746 8.50004 14.8763 8.50004 14.878 8.50004C14.8797 8.50004 14.8814 8.50004 14.8831 8.50004C14.8848 8.50004 14.8865 8.50004 14.8882 8.50004C14.8899 8.50004 14.8915 8.50004 14.8932 8.50004C14.8949 8.50004 14.8966 8.50004 14.8982 8.50004C14.8999 8.50004 14.9016 8.50004 14.9032 8.50004C14.9049 8.50004 14.9065 8.50004 14.9082 8.50004C14.9099 8.50004 14.9115 8.50004 14.9131 8.50004C14.9148 8.50004 14.9164 8.50004 14.9181 8.50004C14.9197 8.50004 14.9213 8.50004 14.923 8.50004C14.9246 8.50004 14.9262 8.50004 14.9278 8.50004C14.9294 8.50004 14.931 8.50004 14.9327 8.50004C14.9343 8.50004 14.9359 8.50004 14.9375 8.50004C14.9391 8.50004 14.9407 8.50004 14.9423 8.50004C14.9438 8.50004 14.9454 8.50004 14.947 8.50004C14.9486 8.50004 14.9502 8.50004 14.9517 8.50004C14.9533 8.50004 14.9549 8.50004 14.9565 8.50004C14.958 8.50004 14.9596 8.50004 14.9611 8.50004C14.9627 8.50004 14.9642 8.50004 14.9658 8.50004C14.9673 8.50004 14.9689 8.50004 14.9704 8.50004C14.972 8.50004 14.9735 8.50004 14.975 8.50004C14.9765 8.50004 14.9781 8.50004 14.9796 8.50004C14.9811 8.50004 14.9826 8.50004 14.9841 8.50004C14.9857 8.50004 14.9872 8.50004 14.9887 8.50004C14.9902 8.50004 14.9917 8.50004 14.9932 8.50004C14.9946 8.50004 14.9961 8.50004 14.9976 8.50004C14.9991 8.50004 15.0006 8.50004 15.0021 8.50004C15.0035 8.50004 15.005 8.50004 15.0065 8.50004C15.0079 8.50004 15.0094 8.50004 15.0109 8.50004C15.0123 8.50004 15.0138 8.50004 15.0152 8.50004C15.0167 8.50004 15.0181 8.50004 15.0196 8.50004C15.021 8.50004 15.0224 8.50004 15.0239 8.50004C15.0253 8.50004 15.0267 8.50004 15.0281 8.50004C15.0296 8.50004 15.031 8.50004 15.0324 8.50004C15.0338 8.50004 15.0352 8.50004 15.0366 8.50004C15.038 8.50004 15.0394 8.50004 15.0408 8.50004C15.0422 8.50004 15.0436 8.50004 15.045 8.50004C15.0464 8.50004 15.0477 8.50004 15.0491 8.50004C15.0505 8.50004 15.0519 8.50004 15.0532 8.50004C15.0546 8.50004 15.0559 8.50004 15.0573 8.50004C15.0587 8.50004 15.06 8.50004 15.0614 8.50004C15.0627 8.50004 15.0641 8.50004 15.0654 8.50004C15.0667 8.50004 15.0681 8.50004 15.0694 8.50004C15.0707 8.50004 15.072 8.50004 15.0734 8.50004C15.0747 8.50004 15.076 8.50004 15.0773 8.50004C15.0786 8.50004 15.0799 8.50004 15.0812 8.50004C15.0825 8.50004 15.0838 8.50004 15.0851 8.50004C15.0864 8.50004 15.0877 8.50004 15.089 8.50004C15.0903 8.50004 15.0915 8.50004 15.0928 8.50004C15.0941 8.50004 15.0954 8.50004 15.0966 8.50004C15.0979 8.50004 15.0991 8.50004 15.1004 8.50004C15.1016 8.50004 15.1029 8.50004 15.1041 8.50004C15.1054 8.50004 15.1066 8.50004 15.1079 8.50004C15.1091 8.50004 15.1103 8.50004 15.1116 8.50004C15.1128 8.50004 15.114 8.50004 15.1152 8.50004C15.1164 8.50004 15.1176 8.50004 15.1189 8.50004C15.1201 8.50004 15.1213 8.50004 15.1225 8.50004C15.1237 8.50004 15.1249 8.50004 15.126 8.50004C15.1272 8.50004 15.1284 8.50004 15.1296 8.50004C15.1308 8.50004 15.1319 8.50004 15.1331 8.50004C15.1343 8.50004 15.1354 8.50004 15.1366 8.50004C15.1378 8.50004 15.1389 8.50004 15.1401 8.50004C15.1412 8.50004 15.1424 8.50004 15.1435 8.50004C15.1446 8.50004 15.1458 8.50004 15.1469 8.50004C15.148 8.50004 15.1492 8.50004 15.1503 8.50004C15.1514 8.50004 15.1525 8.50004 15.1536 8.50004C15.1547 8.50004 15.1558 8.50004 15.1569 8.50004C15.158 8.50004 15.1591 8.50004 15.1602 8.50004C15.1613 8.50004 15.1624 8.50004 15.1635 8.50004C15.1646 8.50004 15.1657 8.50004 15.1667 8.50004C15.1678 8.50004 15.1689 8.50004 15.1699 8.50004C15.171 8.50004 15.1721 8.50004 15.1731 8.50004C15.1742 8.50004 15.1752 8.50004 15.1762 8.50004C15.1773 8.50004 15.1783 8.50004 15.1794 8.50004C15.1804 8.50004 15.1814 8.50004 15.1824 8.50004C15.1835 8.50004 15.1845 8.50004 15.1855 8.50004C15.1865 8.50004 15.1875 8.50004 15.1885 8.50004C15.1895 8.50004 15.1905 8.50004 15.1915 8.50004C15.1925 8.50004 15.1935 8.50004 15.1945 8.50004C15.1955 8.50004 15.1965 8.50004 15.1974 8.50004C15.1984 8.50004 15.1994 8.50004 15.2003 8.50004C15.2013 8.50004 15.2023 8.50004 15.2032 8.50004C15.2042 8.50004 15.2051 8.50004 15.2061 8.50004C15.207 8.50004 15.2079 8.50004 15.2089 8.50004C15.2098 8.50004 15.2107 8.50004 15.2117 8.50004C15.2126 8.50004 15.2135 8.50004 15.2144 8.50004C15.2153 8.50004 15.2162 8.50004 15.2171 8.50004C15.218 8.50004 15.2189 8.50004 15.2198 8.50004C15.2207 8.50004 15.2216 8.50004 15.2225 8.50004C15.2234 8.50004 15.2243 8.50004 15.2251 8.50004C15.226 8.50004 15.2269 8.50004 15.2278 8.50004C15.2286 8.50004 15.2295 8.50004 15.2303 8.50004C15.2312 8.50004 15.232 8.50004 15.2329 8.50004C15.2337 8.50004 15.2346 8.50004 15.2354 8.50004C15.2362 8.50004 15.237 8.50004 15.2379 8.50004C15.2387 8.50004 15.2395 8.50004 15.2403 8.50004C15.2411 8.50004 15.2419 8.50004 15.2428 8.50004C15.2436 8.50004 15.2444 8.50004 15.2451 8.50004C15.2459 8.50004 15.2467 8.50004 15.2475 8.50004C15.2483 8.50004 15.2491 8.50004 15.2498 8.50004C15.2506 8.50004 15.2514 8.50004 15.2521 8.50004C15.2529 8.50004 15.2537 8.50004 15.2544 8.50004C15.2552 8.50004 15.2559 8.50004 15.2566 8.50004C15.2574 8.50004 15.2581 8.50004 15.2589 8.50004C15.2596 8.50004 15.2603 8.50004 15.261 8.50004C15.2618 8.50004 15.2625 8.50004 15.2632 8.50004C15.2639 8.50004 15.2646 8.50004 15.2653 8.50004C15.266 8.50004 15.2667 8.50004 15.2674 8.50004C15.2681 8.50004 15.2687 8.50004 15.2694 8.50004C15.2701 8.50004 15.2708 8.50004 15.2714 8.50004C15.2721 8.50004 15.2728 8.50004 15.2734 8.50004C15.2741 8.50004 15.2748 8.50004 15.2754 8.50004C15.276 8.50004 15.2767 8.50004 15.2773 8.50004C15.278 8.50004 15.2786 8.50004 15.2792 8.50004C15.2798 8.50004 15.2805 8.50004 15.2811 8.50004C15.2817 8.50004 15.2823 8.50004 15.2829 8.50004C15.2835 8.50004 15.2841 8.50004 15.2847 8.50004C15.2853 8.50004 15.2859 8.50004 15.2865 8.50004C15.2871 8.50004 15.2877 8.50004 15.2882 8.50004C15.2888 8.50004 15.2894 8.50004 15.2899 8.50004C15.2905 8.50004 15.2911 8.50004 15.2916 8.50004C15.2922 8.50004 15.2927 8.50004 15.2932 8.50004C15.2938 8.50004 15.2943 8.50004 15.2949 8.50004C15.2954 8.50004 15.2959 8.50004 15.2964 8.50004C15.297 8.50004 15.2975 8.50004 15.298 8.50004C15.2985 8.50004 15.299 8.50004 15.2995 8.50004C15.3 8.50004 15.3005 8.50004 15.301 8.50004C15.3015 8.50004 15.302 8.50004 15.3024 8.50004C15.3029 8.50004 15.3034 8.50004 15.3038 8.50004C15.3043 8.50004 15.3048 8.50004 15.3052 8.50004C15.3057 8.50004 15.3061 8.50004 15.3066 8.50004C15.307 8.50004 15.3075 8.50004 15.3079 8.50004C15.3083 8.50004 15.3088 8.50004 15.3092 8.50004C15.3096 8.50004 15.31 8.50004 15.3104 8.50004C15.3109 8.50004 15.3113 8.50004 15.3117 8.50004C15.3121 8.50004 15.3125 8.50004 15.3129 8.50004C15.3133 8.50004 15.3136 8.50004 15.314 8.50004C15.3144 8.50004 15.3148 8.50004 15.3151 8.50004C15.3155 8.50004 15.3159 8.50004 15.3162 8.50004C15.3166 8.50004 15.317 8.50004 15.3173 8.50004C15.3176 8.50004 15.318 8.50004 15.3183 8.50004C15.3187 8.50004 15.319 8.50004 15.3193 8.50004C15.3196 8.50004 15.32 8.50004 15.3203 8.50004C15.3206 8.50004 15.3209 8.50004 15.3212 8.50004C15.3215 8.50004 15.3218 8.50004 15.3221 8.50004C15.3224 8.50004 15.3227 8.50004 15.323 8.50004C15.3232 8.50004 15.3235 8.50004 15.3238 8.50004C15.3241 8.50004 15.3243 8.50004 15.3246 8.50004C15.3248 8.50004 15.3251 8.50004 15.3254 8.50004C15.3256 8.50004 15.3258 8.50004 15.3261 8.50004C15.3263 8.50004 15.3265 8.50004 15.3268 8.50004C15.327 8.50004 15.3272 8.50004 15.3274 8.50004C15.3277 8.50004 15.3279 8.50004 15.3281 8.50004C15.3283 8.50004 15.3285 8.50004 15.3287 8.50004C15.3289 8.50004 15.329 8.50004 15.3292 8.50004C15.3294 8.50004 15.3296 8.50004 15.3298 8.50004C15.3299 8.50004 15.3301 8.50004 15.3302 8.50004C15.3304 8.50004 15.3306 8.50004 15.3307 8.50004C15.3309 8.50004 15.331 8.50004 15.3311 8.50004C15.3313 8.50004 15.3314 8.50004 15.3315 8.50004C15.3316 8.50004 15.3318 8.50004 15.3319 8.50004C15.332 8.50004 15.3321 8.50004 15.3322 8.50004C15.3323 8.50004 15.3324 8.50004 15.3325 8.50004C15.3326 8.50004 15.3327 8.50004 15.3328 8.50004C15.3328 8.50004 15.3329 8.50004 15.333 8.50004C15.333 8.50004 15.3331 8.50004 15.3332 8.50004C15.3332 8.50004 15.3333 8.50004 15.3333 8.50004C15.3334 8.50004 15.3334 8.50004 15.3334 8.50004C15.3335 8.50004 15.3335 8.50004 15.3335 8.50004C15.3336 8.50004 15.3336 8.50004 15.3336 8.50004C15.3336 8.50004 15.3336 8.50004 15.3336 8.00004ZM11.9716 7.50004C11.9679 7.50004 11.9643 7.50004 11.9607 7.50004C11.9571 7.50004 11.9534 7.50004 11.9498 7.50004C11.9462 7.50004 11.9426 7.50004 11.939 7.50004C11.9353 7.50004 11.9317 7.50004 11.9281 7.50004C11.9245 7.50004 11.9209 7.50004 11.9173 7.50004C11.9136 7.50004 11.91 7.50004 11.9064 7.50004C11.9028 7.50004 11.8992 7.50004 11.8956 7.50004C11.892 7.50004 11.8884 7.50004 11.8848 7.50004C11.8812 7.50004 11.8776 7.50004 11.874 7.50004C11.8704 7.50004 11.8668 7.50004 11.8632 7.50004C11.8596 7.50004 11.856 7.50004 11.8524 7.50004C11.8488 7.50004 11.8452 7.50004 11.8416 7.50004C11.838 7.50004 11.8344 7.50004 11.8308 7.50004C11.8272 7.50004 11.8236 7.50004 11.8201 7.50004C11.8165 7.50004 11.8129 7.50004 11.8093 7.50004C11.8057 7.50004 11.8021 7.50004 11.7985 7.50004C11.795 7.50004 11.7914 7.50004 11.7878 7.50004C11.7842 7.50004 11.7806 7.50004 11.7771 7.50004C11.7735 7.50004 11.7699 7.50004 11.7664 7.50004C11.7628 7.50004 11.7592 7.50004 11.7556 7.50004C11.7521 7.50004 11.7485 7.50004 11.7449 7.50004C11.7414 7.50004 11.7378 7.50004 11.7342 7.50004C11.7307 7.50004 11.7271 7.50004 11.7236 7.50004C11.72 7.50004 11.7164 7.50004 11.7129 7.50004C11.7093 7.50004 11.7058 7.50004 11.7022 7.50004C11.6987 7.50004 11.6951 7.50004 11.6916 7.50004C11.688 7.50004 11.6845 7.50004 11.6809 7.50004C11.6774 7.50004 11.6738 7.50004 11.6703 7.50004C11.6667 7.50004 11.6632 7.50004 11.6596 7.50004C11.6561 7.50004 11.6526 7.50004 11.649 7.50004C11.6455 7.50004 11.6419 7.50004 11.6384 7.50004C11.6349 7.50004 11.6313 7.50004 11.6278 7.50004C11.6243 7.50004 11.6207 7.50004 11.6172 7.50004C11.6137 7.50004 11.6102 7.50004 11.6066 7.50004C11.6031 7.50004 11.5996 7.50004 11.5961 7.50004C11.5925 7.50004 11.589 7.50004 11.5855 7.50004C11.582 7.50004 11.5785 7.50004 11.5749 7.50004C11.5714 7.50004 11.5679 7.50004 11.5644 7.50004C11.5609 7.50004 11.5574 7.50004 11.5539 7.50004C11.5504 7.50004 11.5469 7.50004 11.5434 7.50004C11.5398 7.50004 11.5363 7.50004 11.5328 7.50004C11.5293 7.50004 11.5258 7.50004 11.5223 7.50004C11.5188 7.50004 11.5153 7.50004 11.5118 7.50004C11.5084 7.50004 11.5049 7.50004 11.5014 7.50004C11.4979 7.50004 11.4944 7.50004 11.4909 7.50004C11.4874 7.50004 11.4839 7.50004 11.4804 7.50004C11.477 7.50004 11.4735 7.50004 11.47 7.50004C11.4665 7.50004 11.463 7.50004 11.4595 7.50004C11.4561 7.50004 11.4526 7.50004 11.4491 7.50004C11.4456 7.50004 11.4422 7.50004 11.4387 7.50004C11.4352 7.50004 11.4318 7.50004 11.4283 7.50004C11.4248 7.50004 11.4214 7.50004 11.4179 7.50004C11.4144 7.50004 11.411 7.50004 11.4075 7.50004C11.4041 7.50004 11.4006 7.50004 11.3971 7.50004C11.3937 7.50004 11.3902 7.50004 11.3868 7.50004C11.3833 7.50004 11.3799 7.50004 11.3764 7.50004C11.373 7.50004 11.3695 7.50004 11.3661 7.50004C11.3626 7.50004 11.3592 7.50004 11.3557 7.50004C11.3523 7.50004 11.3489 7.50004 11.3454 7.50004C11.342 7.50004 11.3385 7.50004 11.3351 7.50004C11.3317 7.50004 11.3282 7.50004 11.3248 7.50004C11.3214 7.50004 11.318 7.50004 11.3145 7.50004C11.3111 7.50004 11.3077 7.50004 11.3043 7.50004C11.3008 7.50004 11.2974 7.50004 11.294 7.50004C11.2906 7.50004 11.2871 7.50004 11.2837 7.50004C11.2803 7.50004 11.2769 7.50004 11.2735 7.50004C11.2701 7.50004 11.2667 7.50004 11.2633 7.50004C11.2599 7.50004 11.2564 7.50004 11.253 7.50004C11.2496 7.50004 11.2462 7.50004 11.2428 7.50004C11.2394 7.50004 11.236 7.50004 11.2326 7.50004C11.2292 7.50004 11.2258 7.50004 11.2225 7.50004C11.2191 7.50004 11.2157 7.50004 11.2123 7.50004C11.2089 7.50004 11.2055 7.50004 11.2021 7.50004C11.1987 7.50004 11.1954 7.50004 11.192 7.50004C11.1886 7.50004 11.1852 7.50004 11.1818 7.50004C11.1785 7.50004 11.1751 7.50004 11.1717 7.50004C11.1683 7.50004 11.165 7.50004 11.1616 7.50004C11.1582 7.50004 11.1549 7.50004 11.1515 7.50004C11.1481 7.50004 11.1448 7.50004 11.1414 7.50004C11.138 7.50004 11.1347 7.50004 11.1313 7.50004C11.128 7.50004 11.1246 7.50004 11.1213 7.50004C11.1179 7.50004 11.1146 7.50004 11.1112 7.50004C11.1079 7.50004 11.1045 7.50004 11.1012 7.50004C11.0978 7.50004 11.0945 7.50004 11.0911 7.50004C11.0878 7.50004 11.0845 7.50004 11.0811 7.50004C11.0778 7.50004 11.0745 7.50004 11.0711 7.50004C11.0678 7.50004 11.0645 7.50004 11.0611 7.50004C11.0578 7.50004 11.0545 7.50004 11.0512 7.50004C11.0478 7.50004 11.0445 7.50004 11.0412 7.50004C11.0379 7.50004 11.0346 7.50004 11.0312 7.50004C11.0279 7.50004 11.0246 7.50004 11.0213 7.50004C11.018 7.50004 11.0147 7.50004 11.0114 7.50004C11.0081 7.50004 11.0048 7.50004 11.0015 7.50004C10.9981 7.50004 10.9948 7.50004 10.9916 7.50004C10.9883 7.50004 10.985 7.50004 10.9817 7.50004C10.9784 7.50004 10.9751 7.50004 10.9718 7.50004C10.9685 7.50004 10.9652 7.50004 10.9619 7.50004C10.9586 7.50004 10.9554 7.50004 10.9521 7.50004C10.9488 7.50004 10.9455 7.50004 10.9422 7.50004C10.939 7.50004 10.9357 7.50004 10.9324 7.50004C10.9291 7.50004 10.9259 7.50004 10.9226 7.50004C10.9193 7.50004 10.9161 7.50004 10.9128 7.50004C10.9095 7.50004 10.9063 7.50004 10.903 7.50004C10.8998 7.50004 10.8965 7.50004 10.8932 7.50004C10.89 7.50004 10.8867 7.50004 10.8835 7.50004C10.8802 7.50004 10.877 7.50004 10.8737 7.50004C10.8705 7.50004 10.8673 7.50004 10.864 7.50004C10.8608 7.50004 10.8575 7.50004 10.8543 7.50004C10.8511 7.50004 10.8478 7.50004 10.8446 7.50004C10.8414 7.50004 10.8381 7.50004 10.8349 7.50004C10.8317 7.50004 10.8285 7.50004 10.8252 7.50004C10.822 7.50004 10.8188 7.50004 10.8156 7.50004C10.8124 7.50004 10.8091 7.50004 10.8059 7.50004C10.8027 7.50004 10.7995 7.50004 10.7963 7.50004C10.7931 7.50004 10.7899 7.50004 10.7867 7.50004C10.7835 7.50004 10.7803 7.50004 10.7771 7.50004C10.7739 7.50004 10.7707 7.50004 10.7675 7.50004C10.7643 7.50004 10.7611 7.50004 10.7579 7.50004C10.7547 7.50004 10.7515 7.50004 10.7483 7.50004C10.7451 7.50004 10.742 7.50004 10.7388 7.50004C10.7356 7.50004 10.7324 7.50004 10.7292 7.50004C10.7261 7.50004 10.7229 7.50004 10.7197 7.50004C10.7165 7.50004 10.7134 7.50004 10.7102 7.50004C10.707 7.50004 10.7039 7.50004 10.7007 7.50004C10.6976 7.50004 10.6944 7.50004 10.6912 7.50004C10.6881 7.50004 10.6849 7.50004 10.6818 7.50004C10.6786 7.50004 10.6755 7.50004 10.6723 7.50004C10.6692 7.50004 10.666 7.50004 10.6629 7.50004C10.6598 7.50004 10.6566 7.50004 10.6535 7.50004C10.6503 7.50004 10.6472 7.50004 10.6441 7.50004C10.6409 7.50004 10.6378 7.50004 10.6347 7.50004C10.6316 7.50004 10.6284 7.50004 10.6253 7.50004C10.6222 7.50004 10.6191 7.50004 10.6159 7.50004C10.6128 7.50004 10.6097 7.50004 10.6066 7.50004C10.6035 7.50004 10.6004 7.50004 10.5973 7.50004C10.5942 7.50004 10.5911 7.50004 10.588 7.50004C10.5848 7.50004 10.5817 7.50004 10.5786 7.50004C10.5756 7.50004 10.5725 7.50004 10.5694 7.50004C10.5663 7.50004 10.5632 7.50004 10.5601 7.50004C10.557 7.50004 10.5539 7.50004 10.5508 7.50004C10.5478 7.50004 10.5447 7.50004 10.5416 7.50004C10.5385 7.50004 10.5354 7.50004 10.5324 7.50004C10.5293 7.50004 10.5262 7.50004 10.5232 7.50004C10.5201 7.50004 10.517 7.50004 10.514 7.50004C10.5109 7.50004 10.5078 7.50004 10.5048 7.50004C10.5017 7.50004 10.4987 7.50004 10.4956 7.50004C10.4926 7.50004 10.4895 7.50004 10.4865 7.50004C10.4834 7.50004 10.4804 7.50004 10.4773 7.50004C10.4743 7.50004 10.4713 7.50004 10.4682 7.50004C10.4652 7.50004 10.4622 7.50004 10.4591 7.50004C10.4561 7.50004 10.4531 7.50004 10.45 7.50004C10.447 7.50004 10.444 7.50004 10.441 7.50004C10.438 7.50004 10.4349 7.50004 10.4319 7.50004C10.4289 7.50004 10.4259 7.50004 10.4229 7.50004C10.4199 7.50004 10.4169 7.50004 10.4139 7.50004C10.4109 7.50004 10.4079 7.50004 10.4049 7.50004C10.4019 7.50004 10.3989 7.50004 10.3959 7.50004C10.3929 7.50004 10.3899 7.50004 10.3869 7.50004C10.3839 7.50004 10.3809 7.50004 10.3779 7.50004C10.375 7.50004 10.372 7.50004 10.369 7.50004C10.366 7.50004 10.3631 7.50004 10.3601 7.50004C10.3571 7.50004 10.3541 7.50004 10.3512 7.50004C10.3482 7.50004 10.3452 7.50004 10.3423 7.50004C10.3393 7.50004 10.3364 7.50004 10.3334 7.50004C10.3305 7.50004 10.3275 7.50004 10.3245 7.50004C10.3216 7.50004 10.3187 7.50004 10.3157 7.50004C10.3128 7.50004 10.3098 7.50004 10.3069 7.50004C10.3039 7.50004 10.301 7.50004 10.2981 7.50004C10.2951 7.50004 10.2922 7.50004 10.2893 7.50004C10.2864 7.50004 10.2834 7.50004 10.2805 7.50004C10.2776 7.50004 10.2747 7.50004 10.2717 7.50004C10.2688 7.50004 10.2659 7.50004 10.263 7.50004C10.2601 7.50004 10.2572 7.50004 10.2543 7.50004C10.2514 7.50004 10.2485 7.50004 10.2456 7.50004C10.2427 7.50004 10.2398 7.50004 10.2369 7.50004C10.234 7.50004 10.2311 7.50004 10.2282 7.50004C10.2253 7.50004 10.2224 7.50004 10.2196 7.50004C10.2167 7.50004 10.2138 7.50004 10.2109 7.50004C10.208 7.50004 10.2052 7.50004 10.2023 7.50004C10.1994 7.50004 10.1966 7.50004 10.1937 7.50004C10.1908 7.50004 10.188 7.50004 10.1851 7.50004C10.1822 7.50004 10.1794 7.50004 10.1765 7.50004C10.1737 7.50004 10.1708 7.50004 10.168 7.50004C10.1651 7.50004 10.1623 7.50004 10.1594 7.50004C10.1566 7.50004 10.1538 7.50004 10.1509 7.50004C10.1481 7.50004 10.1453 7.50004 10.1424 7.50004C10.1396 7.50004 10.1368 7.50004 10.1339 7.50004C10.1311 7.50004 10.1283 7.50004 10.1255 7.50004C10.1227 7.50004 10.1198 7.50004 10.117 7.50004C10.1142 7.50004 10.1114 7.50004 10.1086 7.50004C10.1058 7.50004 10.103 7.50004 10.1002 7.50004C10.0974 7.50004 10.0946 7.50004 10.0918 7.50004C10.089 7.50004 10.0862 7.50004 10.0834 7.50004C10.0806 7.50004 10.0779 7.50004 10.0751 7.50004C10.0723 7.50004 10.0695 7.50004 10.0667 7.50004C10.064 7.50004 10.0612 7.50004 10.0584 7.50004C10.0556 7.50004 10.0529 7.50004 10.0501 7.50004C10.0473 7.50004 10.0446 7.50004 10.0418 7.50004C10.0391 7.50004 10.0363 7.50004 10.0336 7.50004C10.0308 7.50004 10.0281 7.50004 10.0253 7.50004C10.0226 7.50004 10.0198 7.50004 10.0171 7.50004C10.0143 7.50004 10.0116 7.50004 10.0089 7.50004C10.0061 7.50004 10.0034 7.50004 10.0007 7.50004C9.99795 7.50004 9.99522 7.50004 9.9925 7.50004C9.98978 7.50004 9.98706 7.50004 9.98435 7.50004C9.98163 7.50004 9.97892 7.50004 9.97621 7.50004C9.9735 7.50004 9.97079 7.50004 9.96809 7.50004C9.96539 7.50004 9.96269 7.50004 9.95999 7.50004C9.95729 7.50004 9.9546 7.50004 9.95191 7.50004C9.94922 7.50004 9.94653 7.50004 9.94385 7.50004C9.94116 7.50004 9.93848 7.50004 9.9358 7.50004C9.93313 7.50004 9.93045 7.50004 9.92778 7.50004C9.92511 7.50004 9.92244 7.50004 9.91977 7.50004C9.91711 7.50004 9.91445 7.50004 9.91179 7.50004C9.90913 7.50004 9.90647 7.50004 9.90382 7.50004C9.90117 7.50004 9.89852 7.50004 9.89587 7.50004C9.89323 7.50004 9.89058 7.50004 9.88794 7.50004C9.8853 7.50004 9.88267 7.50004 9.88003 7.50004C9.8774 7.50004 9.87477 7.50004 9.87214 7.50004C9.86952 7.50004 9.86689 7.50004 9.86427 7.50004C9.86165 7.50004 9.85903 7.50004 9.85642 7.50004C9.85381 7.50004 9.8512 7.50004 9.84859 7.50004C9.84598 7.50004 9.84338 7.50004 9.84078 7.50004C9.83817 7.50004 9.83558 7.50004 9.83298 7.50004C9.83039 7.50004 9.8278 7.50004 9.82521 7.50004C9.82262 7.50004 9.82004 7.50004 9.81746 7.50004C9.81487 7.50004 9.8123 7.50004 9.80972 7.50004C9.80715 7.50004 9.80457 7.50004 9.80201 7.50004C9.79944 7.50004 9.79687 7.50004 9.79431 7.50004C9.79175 7.50004 9.78919 7.50004 9.78664 7.50004C9.78408 7.50004 9.78153 7.50004 9.77898 7.50004C9.77643 7.50004 9.77389 7.50004 9.77135 7.50004C9.76881 7.50004 9.76627 7.50004 9.76373 7.50004C9.7612 7.50004 9.75867 7.50004 9.75614 7.50004C9.75361 7.50004 9.75108 7.50004 9.74856 7.50004C9.74604 7.50004 9.74352 7.50004 9.74101 7.50004C9.73849 7.50004 9.73598 7.50004 9.73347 7.50004C9.73097 7.50004 9.72846 7.50004 9.72596 7.50004C9.72346 7.50004 9.72096 7.50004 9.71847 7.50004C9.71597 7.50004 9.71348 7.50004 9.71099 7.50004C9.7085 7.50004 9.70602 7.50004 9.70354 7.50004C9.70106 7.50004 9.69858 7.50004 9.69611 7.50004C9.69363 7.50004 9.69116 7.50004 9.6887 7.50004C9.68623 7.50004 9.68376 7.50004 9.6813 7.50004C9.67884 7.50004 9.67639 7.50004 9.67393 7.50004C9.67148 7.50004 9.66903 7.50004 9.66658 7.50004C9.66414 7.50004 9.66169 7.50004 9.65925 7.50004C9.65681 7.50004 9.65438 7.50004 9.65194 7.50004C9.64951 7.50004 9.64708 7.50004 9.64466 7.50004C9.64223 7.50004 9.63981 7.50004 9.63739 7.50004C9.63497 7.50004 9.63256 7.50004 9.63014 7.50004C9.62773 7.50004 9.62532 7.50004 9.62292 7.50004C9.62051 7.50004 9.61811 7.50004 9.61572 7.50004C9.61332 7.50004 9.61092 7.50004 9.60853 7.50004C9.60614 7.50004 9.60375 7.50004 9.60137 7.50004C9.59899 7.50004 9.59661 7.50004 9.59423 7.50004C9.59185 7.50004 9.58948 7.50004 9.58711 7.50004C9.58474 7.50004 9.58238 7.50004 9.58001 7.50004C9.57765 7.50004 9.57529 7.50004 9.57294 7.50004C9.57058 7.50004 9.56823 7.50004 9.56588 7.50004C9.56353 7.50004 9.56119 7.50004 9.55885 7.50004C9.55651 7.50004 9.55417 7.50004 9.55184 7.50004C9.5495 7.50004 9.54717 7.50004 9.54485 7.50004C9.54252 7.50004 9.5402 7.50004 9.53788 7.50004C9.53556 7.50004 9.53324 7.50004 9.53093 7.50004C9.52862 7.50004 9.52631 7.50004 9.524 7.50004C9.5217 7.50004 9.5194 7.50004 9.5171 7.50004C9.5148 7.50004 9.51251 7.50004 9.51022 7.50004C9.50793 7.50004 9.50564 7.50004 9.50336 7.50004C9.50107 7.50004 9.4988 7.50004 9.49652 7.50004C9.49424 7.50004 9.49197 7.50004 9.4897 7.50004C9.48743 7.50004 9.48517 7.50004 9.48291 7.50004C9.48065 7.50004 9.47839 7.50004 9.47614 7.50004C9.47388 7.50004 9.47163 7.50004 9.46939 7.50004C9.46714 7.50004 9.4649 7.50004 9.46266 7.50004C9.46042 7.50004 9.45818 7.50004 9.45595 7.50004C9.45372 7.50004 9.45149 7.50004 9.44927 7.50004C9.44705 7.50004 9.44483 7.50004 9.44261 7.50004C9.44039 7.50004 9.43818 7.50004 9.43597 7.50004C9.43376 7.50004 9.43156 7.50004 9.42935 7.50004C9.42715 7.50004 9.42495 7.50004 9.42276 7.50004C9.42057 7.50004 9.41838 7.50004 9.41619 7.50004C9.414 7.50004 9.41182 7.50004 9.40964 7.50004C9.40746 7.50004 9.40529 7.50004 9.40311 7.50004C9.40094 7.50004 9.39878 7.50004 9.39661 7.50004C9.39445 7.50004 9.39229 7.50004 9.39013 7.50004C9.38797 7.50004 9.38582 7.50004 9.38367 7.50004C9.38152 7.50004 9.37938 7.50004 9.37724 7.50004C9.3751 7.50004 9.37296 7.50004 9.37083 7.50004C9.36869 7.50004 9.36656 7.50004 9.36444 7.50004C9.36231 7.50004 9.36019 7.50004 9.35807 7.50004C9.35595 7.50004 9.35384 7.50004 9.35173 7.50004C9.34962 7.50004 9.34751 7.50004 9.34541 7.50004C9.34331 7.50004 9.34121 7.50004 9.33911 7.50004C9.33702 7.50004 9.33493 7.50004 9.33284 7.50004C9.33075 7.50004 9.32867 7.50004 9.32659 7.50004C9.32451 7.50004 9.32243 7.50004 9.32036 7.50004C9.31829 7.50004 9.31622 7.50004 9.31416 7.50004C9.31209 7.50004 9.31003 7.50004 9.30798 7.50004C9.30592 7.50004 9.30387 7.50004 9.30182 7.50004C9.29977 7.50004 9.29773 7.50004 9.29569 7.50004C9.29365 7.50004 9.29161 7.50004 9.28958 7.50004C9.28755 7.50004 9.28552 7.50004 9.28349 7.50004C9.28147 7.50004 9.27945 7.50004 9.27743 7.50004C9.27541 7.50004 9.2734 7.50004 9.27139 7.50004C9.26938 7.50004 9.26738 7.50004 9.26538 7.50004C9.26338 7.50004 9.26138 7.50004 9.25939 7.50004C9.25739 7.50004 9.2554 7.50004 9.25342 7.50004C9.25143 7.50004 9.24945 7.50004 9.24748 7.50004C9.2455 7.50004 9.24353 7.50004 9.24156 7.50004C9.23959 7.50004 9.23762 7.50004 9.23566 7.50004C9.2337 7.50004 9.23174 7.50004 9.22979 7.50004C9.22784 7.50004 9.22589 7.50004 9.22394 7.50004C9.222 7.50004 9.22006 7.50004 9.21812 7.50004C9.21618 7.50004 9.21425 7.50004 9.21232 7.50004C9.21039 7.50004 9.20847 7.50004 9.20655 7.50004C9.20463 7.50004 9.20271 7.50004 9.2008 7.50004C9.19889 7.50004 9.19698 7.50004 9.19507 7.50004C9.19317 7.50004 9.19127 7.50004 9.18937 7.50004C9.18748 7.50004 9.18558 7.50004 9.1837 7.50004C9.18181 7.50004 9.17992 7.50004 9.17804 7.50004C9.17616 7.50004 9.17429 7.50004 9.17242 7.50004C9.17054 7.50004 9.16868 7.50004 9.16681 7.50004C9.16495 7.50004 9.16309 7.50004 9.16124 7.50004C9.15938 7.50004 9.15753 7.50004 9.15568 7.50004C9.15384 7.50004 9.15199 7.50004 9.15015 7.50004C9.14832 7.50004 9.14648 7.50004 9.14465 7.50004C9.14282 7.50004 9.14099 7.50004 9.13917 7.50004C9.13735 7.50004 9.13553 7.50004 9.13372 7.50004C9.1319 7.50004 9.13009 7.50004 9.12829 7.50004C9.12648 7.50004 9.12468 7.50004 9.12289 7.50004C9.12109 7.50004 9.1193 7.50004 9.11751 7.50004C9.11572 7.50004 9.11393 7.50004 9.11215 7.50004C9.11037 7.50004 9.1086 7.50004 9.10683 7.50004C9.10505 7.50004 9.10329 7.50004 9.10152 7.50004C9.09976 7.50004 9.098 7.50004 9.09625 7.50004C9.09449 7.50004 9.09274 7.50004 9.09099 7.50004C9.08925 7.50004 9.0875 7.50004 9.08577 7.50004C9.08403 7.50004 9.08229 7.50004 9.08057 7.50004C9.07884 7.50004 9.07711 7.50004 9.07539 7.50004C9.07367 7.50004 9.07195 7.50004 9.07024 7.50004C9.06853 7.50004 9.06682 7.50004 9.06512 7.50004C9.06341 7.50004 9.06171 7.50004 9.06002 7.50004C9.05832 7.50004 9.05663 7.50004 9.05494 7.50004C9.05326 7.50004 9.05157 7.50004 9.0499 7.50004C9.04822 7.50004 9.04654 7.50004 9.04487 7.50004C9.04321 7.50004 9.04154 7.50004 9.03988 7.50004C9.03822 7.50004 9.03656 7.50004 9.03491 7.50004C9.03326 7.50004 9.03161 7.50004 9.02997 7.50004C9.02832 7.50004 9.02668 7.50004 9.02505 7.50004C9.02341 7.50004 9.02178 7.50004 9.02016 7.50004C9.01853 7.50004 9.01691 7.50004 9.01529 7.50004C9.01367 7.50004 9.01206 7.50004 9.01045 7.50004C9.00884 7.50004 9.00724 7.50004 9.00564 7.50004C9.00404 7.50004 9.00244 7.50004 9.00085 7.50004C8.99926 7.50004 8.99768 7.50004 8.99609 7.50004C8.99451 7.50004 8.99293 7.50004 8.99136 7.50004C8.98979 7.50004 8.98822 7.50004 8.98665 7.50004C8.98509 7.50004 8.98353 7.50004 8.98197 7.50004C8.98042 7.50004 8.97886 7.50004 8.97732 7.50004C8.97577 7.50004 8.97423 7.50004 8.97269 7.50004C8.97115 7.50004 8.96962 7.50004 8.96809 7.50004C8.96656 7.50004 8.96503 7.50004 8.96351 7.50004C8.96199 7.50004 8.96048 7.50004 8.95897 7.50004C8.95746 7.50004 8.95595 7.50004 8.95445 7.50004C8.95294 7.50004 8.95145 7.50004 8.94995 7.50004C8.94846 7.50004 8.94697 7.50004 8.94549 7.50004C8.944 7.50004 8.94252 7.50004 8.94105 7.50004C8.93957 7.50004 8.9381 7.50004 8.93663 7.50004C8.93517 7.50004 8.9337 7.50004 8.93225 7.50004C8.93079 7.50004 8.92934 7.50004 8.92789 7.50004C8.92644 7.50004 8.925 7.50004 8.92356 7.50004C8.92212 7.50004 8.92068 7.50004 8.91925 7.50004C8.91782 7.50004 8.9164 7.50004 8.91498 7.50004C8.91355 7.50004 8.91214 7.50004 8.91073 7.50004C8.90931 7.50004 8.90791 7.50004 8.9065 7.50004C8.9051 7.50004 8.9037 7.50004 8.90231 7.50004C8.90091 7.50004 8.89953 7.50004 8.89814 7.50004C8.89676 7.50004 8.89538 7.50004 8.894 7.50004C8.89263 7.50004 8.89126 7.50004 8.88989 7.50004C8.88852 7.50004 8.88716 7.50004 8.8858 7.50004C8.88445 7.50004 8.8831 7.50004 8.88175 7.50004C8.8804 7.50004 8.87906 7.50004 8.87772 7.50004C8.87638 7.50004 8.87505 7.50004 8.87372 7.50004C8.87239 7.50004 8.87106 7.50004 8.86974 7.50004C8.86842 7.50004 8.86711 7.50004 8.8658 7.50004C8.86449 7.50004 8.86318 7.50004 8.86188 7.50004C8.86058 7.50004 8.85928 7.50004 8.85799 7.50004C8.8567 7.50004 8.85541 7.50004 8.85413 7.50004C8.85285 7.50004 8.85157 7.50004 8.8503 7.50004C8.84902 7.50004 8.84775 7.50004 8.84649 7.50004C8.84523 7.50004 8.84397 7.50004 8.84271 7.50004C8.84146 7.50004 8.84021 7.50004 8.83896 7.50004C8.83772 7.50004 8.83648 7.50004 8.83524 7.50004C8.83401 7.50004 8.83278 7.50004 8.83155 7.50004C8.83033 7.50004 8.82911 7.50004 8.82789 7.50004C8.82667 7.50004 8.82546 7.50004 8.82425 7.50004C8.82305 7.50004 8.82184 7.50004 8.82065 7.50004C8.81945 7.50004 8.81826 7.50004 8.81707 7.50004C8.81588 7.50004 8.8147 7.50004 8.81352 7.50004C8.81234 7.50004 8.81117 7.50004 8.81 7.50004C8.80883 7.50004 8.80767 7.50004 8.80651 7.50004C8.80535 7.50004 8.80419 7.50004 8.80304 7.50004C8.80189 7.50004 8.80075 7.50004 8.79961 7.50004C8.79847 7.50004 8.79733 7.50004 8.7962 7.50004C8.79507 7.50004 8.79395 7.50004 8.79283 7.50004C8.79171 7.50004 8.79059 7.50004 8.78948 7.50004C8.78837 7.50004 8.78726 7.50004 8.78616 7.50004C8.78506 7.50004 8.78396 7.50004 8.78287 7.50004C8.78178 7.50004 8.78069 7.50004 8.77961 7.50004C8.77853 7.50004 8.77745 7.50004 8.77638 7.50004C8.77531 7.50004 8.77424 7.50004 8.77318 7.50004C8.77211 7.50004 8.77106 7.50004 8.77 7.50004C8.76895 7.50004 8.7679 7.50004 8.76686 7.50004C8.76582 7.50004 8.76478 7.50004 8.76375 7.50004C8.76271 7.50004 8.76169 7.50004 8.76066 7.50004C8.75964 7.50004 8.75862 7.50004 8.75761 7.50004C8.75659 7.50004 8.75559 7.50004 8.75458 7.50004C8.75358 7.50004 8.75258 7.50004 8.75159 7.50004C8.75059 7.50004 8.7496 7.50004 8.74862 7.50004C8.74764 7.50004 8.74666 7.50004 8.74568 7.50004C8.74471 7.50004 8.74374 7.50004 8.74278 7.50004C8.74181 7.50004 8.74085 7.50004 8.7399 7.50004C8.73895 7.50004 8.738 7.50004 8.73705 7.50004C8.73611 7.50004 8.73517 7.50004 8.73424 7.50004C8.7333 7.50004 8.73237 7.50004 8.73145 7.50004C8.73052 7.50004 8.7296 7.50004 8.72869 7.50004C8.72778 7.50004 8.72687 7.50004 8.72596 7.50004C8.72506 7.50004 8.72416 7.50004 8.72327 7.50004C8.72237 7.50004 8.72148 7.50004 8.7206 7.50004C8.71972 7.50004 8.71884 7.50004 8.71796 7.50004C8.71709 7.50004 8.71622 7.50004 8.71536 7.50004C8.71449 7.50004 8.71363 7.50004 8.71278 7.50004C8.71193 7.50004 8.71108 7.50004 8.71024 7.50004C8.70939 7.50004 8.70855 7.50004 8.70772 7.50004C8.70689 7.50004 8.70606 7.50004 8.70524 7.50004C8.70441 7.50004 8.70359 7.50004 8.70278 7.50004C8.70197 7.50004 8.70116 7.50004 8.70036 7.50004C8.69956 7.50004 8.69876 7.50004 8.69797 7.50004C8.69717 7.50004 8.69639 7.50004 8.6956 7.50004C8.69482 7.50004 8.69404 7.50004 8.69327 7.50004C8.6925 7.50004 8.69173 7.50004 8.69097 7.50004C8.69021 7.50004 8.68945 7.50004 8.6887 7.50004C8.68795 7.50004 8.6872 7.50004 8.68646 7.50004C8.68572 7.50004 8.68498 7.50004 8.68425 7.50004C8.68352 7.50004 8.6828 7.50004 8.68208 7.50004C8.68136 7.50004 8.68064 7.50004 8.67993 7.50004C8.67922 7.50004 8.67852 7.50004 8.67782 7.50004C8.67712 7.50004 8.67642 7.50004 8.67573 7.50004C8.67504 7.50004 8.67436 7.50004 8.67368 7.50004C8.673 7.50004 8.67233 7.50004 8.67166 7.50004C8.67099 7.50004 8.67033 7.50004 8.66967 7.50004C8.66901 7.50004 8.66836 7.50004 8.66771 7.50004C8.66706 7.50004 8.66642 7.50004 8.66578 7.50004C8.66515 7.50004 8.66451 7.50004 8.66389 7.50004C8.66326 7.50004 8.66264 7.50004 8.66202 7.50004C8.66141 7.50004 8.6608 7.50004 8.66019 7.50004C8.65958 7.50004 8.65898 7.50004 8.65839 7.50004C8.65779 7.50004 8.6572 7.50004 8.65662 7.50004C8.65604 7.50004 8.65546 7.50004 8.65488 7.50004C8.65431 7.50004 8.65374 7.50004 8.65318 7.50004C8.65261 7.50004 8.65205 7.50004 8.6515 7.50004C8.65095 7.50004 8.6504 7.50004 8.64986 7.50004C8.64932 7.50004 8.64878 7.50004 8.64825 7.50004C8.64772 7.50004 8.64719 7.50004 8.64667 7.50004C8.64615 7.50004 8.64564 7.50004 8.64512 7.50004C8.64461 7.50004 8.64411 7.50004 8.64361 7.50004C8.64311 7.50004 8.64262 7.50004 8.64213 7.50004C8.64164 7.50004 8.64116 7.50004 8.64068 7.50004C8.6402 7.50004 8.63973 7.50004 8.63926 7.50004C8.63879 7.50004 8.63833 7.50004 8.63788 7.50004C8.63742 7.50004 8.63697 7.50004 8.63652 7.50004C8.63608 7.50004 8.63564 7.50004 8.6352 7.50004C8.63477 7.50004 8.63434 7.50004 8.63391 7.50004C8.63349 7.50004 8.63307 7.50004 8.63266 7.50004C8.63225 7.50004 8.63184 7.50004 8.63144 7.50004C8.63103 7.50004 8.63064 7.50004 8.63024 7.50004C8.62985 7.50004 8.62947 7.50004 8.62909 7.50004C8.62871 7.50004 8.62833 7.50004 8.62796 7.50004C8.62759 7.50004 8.62723 7.50004 8.62687 7.50004C8.62651 7.50004 8.62616 7.50004 8.62581 7.50004C8.62546 7.50004 8.62512 7.50004 8.62478 7.50004C8.62445 7.50004 8.62411 7.50004 8.62379 7.50004C8.62346 7.50004 8.62314 7.50004 8.62283 7.50004C8.62251 7.50004 8.6222 7.50004 8.6219 7.50004C8.6216 7.50004 8.6213 7.50004 8.621 7.50004C8.62071 7.50004 8.62042 7.50004 8.62014 7.50004C8.61986 7.50004 8.61959 7.50004 8.61931 7.50004C8.61904 7.50004 8.61878 7.50004 8.61852 7.50004C8.61826 7.50004 8.61801 7.50004 8.61776 7.50004C8.61751 7.50004 8.61727 7.50004 8.61703 7.50004C8.61679 7.50004 8.61656 7.50004 8.61633 7.50004C8.61611 7.50004 8.61589 7.50004 8.61567 7.50004C8.61546 7.50004 8.61525 7.50004 8.61504 7.50004C8.61484 7.50004 8.61464 7.50004 8.61445 7.50004C8.61425 7.50004 8.61407 7.50004 8.61389 7.50004C8.6137 7.50004 8.61353 7.50004 8.61336 7.50004C8.61319 7.50004 8.61302 7.50004 8.61286 7.50004C8.6127 7.50004 8.61255 7.50004 8.6124 7.50004C8.61226 7.50004 8.61211 7.50004 8.61198 7.50004C8.61184 7.50004 8.61171 7.50004 8.61158 7.50004C8.61146 7.50004 8.61134 7.50004 8.61123 7.50004C8.61111 7.50004 8.611 7.50004 8.6109 7.50004C8.6108 7.50004 8.6107 7.50004 8.61061 7.50004C8.61052 7.50004 8.61043 7.50004 8.61035 7.50004C8.61027 7.50004 8.6102 7.50004 8.61013 7.50004C8.61006 7.50004 8.61 7.50004 8.60994 7.50004C8.60988 7.50004 8.60983 7.50004 8.60979 7.50004C8.60974 7.50004 8.6097 7.50004 8.60967 7.50004C8.60963 7.50004 8.6096 7.50004 8.60958 7.50004C8.60956 7.50004 8.60954 7.50004 8.60953 7.50004C8.60952 7.50004 8.60951 7.50004 8.60951 8.00004C8.60951 8.50004 8.60952 8.50004 8.60953 8.50004C8.60954 8.50004 8.60956 8.50004 8.60958 8.50004C8.6096 8.50004 8.60963 8.50004 8.60967 8.50004C8.6097 8.50004 8.60974 8.50004 8.60979 8.50004C8.60983 8.50004 8.60988 8.50004 8.60994 8.50004C8.61 8.50004 8.61006 8.50004 8.61013 8.50004C8.6102 8.50004 8.61027 8.50004 8.61035 8.50004C8.61043 8.50004 8.61052 8.50004 8.61061 8.50004C8.6107 8.50004 8.6108 8.50004 8.6109 8.50004C8.611 8.50004 8.61111 8.50004 8.61123 8.50004C8.61134 8.50004 8.61146 8.50004 8.61158 8.50004C8.61171 8.50004 8.61184 8.50004 8.61198 8.50004C8.61211 8.50004 8.61226 8.50004 8.6124 8.50004C8.61255 8.50004 8.6127 8.50004 8.61286 8.50004C8.61302 8.50004 8.61319 8.50004 8.61336 8.50004C8.61353 8.50004 8.6137 8.50004 8.61389 8.50004C8.61407 8.50004 8.61425 8.50004 8.61445 8.50004C8.61464 8.50004 8.61484 8.50004 8.61504 8.50004C8.61525 8.50004 8.61546 8.50004 8.61567 8.50004C8.61589 8.50004 8.61611 8.50004 8.61633 8.50004C8.61656 8.50004 8.61679 8.50004 8.61703 8.50004C8.61727 8.50004 8.61751 8.50004 8.61776 8.50004C8.61801 8.50004 8.61826 8.50004 8.61852 8.50004C8.61878 8.50004 8.61904 8.50004 8.61931 8.50004C8.61959 8.50004 8.61986 8.50004 8.62014 8.50004C8.62042 8.50004 8.62071 8.50004 8.621 8.50004C8.6213 8.50004 8.6216 8.50004 8.6219 8.50004C8.6222 8.50004 8.62251 8.50004 8.62283 8.50004C8.62314 8.50004 8.62346 8.50004 8.62379 8.50004C8.62411 8.50004 8.62445 8.50004 8.62478 8.50004C8.62512 8.50004 8.62546 8.50004 8.62581 8.50004C8.62616 8.50004 8.62651 8.50004 8.62687 8.50004C8.62723 8.50004 8.62759 8.50004 8.62796 8.50004C8.62833 8.50004 8.62871 8.50004 8.62909 8.50004C8.62947 8.50004 8.62985 8.50004 8.63024 8.50004C8.63064 8.50004 8.63103 8.50004 8.63144 8.50004C8.63184 8.50004 8.63225 8.50004 8.63266 8.50004C8.63307 8.50004 8.63349 8.50004 8.63391 8.50004C8.63434 8.50004 8.63477 8.50004 8.6352 8.50004C8.63564 8.50004 8.63608 8.50004 8.63652 8.50004C8.63697 8.50004 8.63742 8.50004 8.63788 8.50004C8.63833 8.50004 8.63879 8.50004 8.63926 8.50004C8.63973 8.50004 8.6402 8.50004 8.64068 8.50004C8.64116 8.50004 8.64164 8.50004 8.64213 8.50004C8.64262 8.50004 8.64311 8.50004 8.64361 8.50004C8.64411 8.50004 8.64461 8.50004 8.64512 8.50004C8.64564 8.50004 8.64615 8.50004 8.64667 8.50004C8.64719 8.50004 8.64772 8.50004 8.64825 8.50004C8.64878 8.50004 8.64932 8.50004 8.64986 8.50004C8.6504 8.50004 8.65095 8.50004 8.6515 8.50004C8.65205 8.50004 8.65261 8.50004 8.65318 8.50004C8.65374 8.50004 8.65431 8.50004 8.65488 8.50004C8.65546 8.50004 8.65604 8.50004 8.65662 8.50004C8.6572 8.50004 8.65779 8.50004 8.65839 8.50004C8.65898 8.50004 8.65958 8.50004 8.66019 8.50004C8.6608 8.50004 8.66141 8.50004 8.66202 8.50004C8.66264 8.50004 8.66326 8.50004 8.66389 8.50004C8.66451 8.50004 8.66515 8.50004 8.66578 8.50004C8.66642 8.50004 8.66706 8.50004 8.66771 8.50004C8.66836 8.50004 8.66901 8.50004 8.66967 8.50004C8.67033 8.50004 8.67099 8.50004 8.67166 8.50004C8.67233 8.50004 8.673 8.50004 8.67368 8.50004C8.67436 8.50004 8.67504 8.50004 8.67573 8.50004C8.67642 8.50004 8.67712 8.50004 8.67782 8.50004C8.67852 8.50004 8.67922 8.50004 8.67993 8.50004C8.68064 8.50004 8.68136 8.50004 8.68208 8.50004C8.6828 8.50004 8.68352 8.50004 8.68425 8.50004C8.68498 8.50004 8.68572 8.50004 8.68646 8.50004C8.6872 8.50004 8.68795 8.50004 8.6887 8.50004C8.68945 8.50004 8.69021 8.50004 8.69097 8.50004C8.69173 8.50004 8.6925 8.50004 8.69327 8.50004C8.69404 8.50004 8.69482 8.50004 8.6956 8.50004C8.69639 8.50004 8.69717 8.50004 8.69797 8.50004C8.69876 8.50004 8.69956 8.50004 8.70036 8.50004C8.70116 8.50004 8.70197 8.50004 8.70278 8.50004C8.70359 8.50004 8.70441 8.50004 8.70524 8.50004C8.70606 8.50004 8.70689 8.50004 8.70772 8.50004C8.70855 8.50004 8.70939 8.50004 8.71024 8.50004C8.71108 8.50004 8.71193 8.50004 8.71278 8.50004C8.71363 8.50004 8.71449 8.50004 8.71536 8.50004C8.71622 8.50004 8.71709 8.50004 8.71796 8.50004C8.71884 8.50004 8.71972 8.50004 8.7206 8.50004C8.72148 8.50004 8.72237 8.50004 8.72327 8.50004C8.72416 8.50004 8.72506 8.50004 8.72596 8.50004C8.72687 8.50004 8.72778 8.50004 8.72869 8.50004C8.7296 8.50004 8.73052 8.50004 8.73145 8.50004C8.73237 8.50004 8.7333 8.50004 8.73424 8.50004C8.73517 8.50004 8.73611 8.50004 8.73705 8.50004C8.738 8.50004 8.73895 8.50004 8.7399 8.50004C8.74085 8.50004 8.74181 8.50004 8.74278 8.50004C8.74374 8.50004 8.74471 8.50004 8.74568 8.50004C8.74666 8.50004 8.74764 8.50004 8.74862 8.50004C8.7496 8.50004 8.75059 8.50004 8.75159 8.50004C8.75258 8.50004 8.75358 8.50004 8.75458 8.50004C8.75559 8.50004 8.75659 8.50004 8.75761 8.50004C8.75862 8.50004 8.75964 8.50004 8.76066 8.50004C8.76169 8.50004 8.76271 8.50004 8.76375 8.50004C8.76478 8.50004 8.76582 8.50004 8.76686 8.50004C8.7679 8.50004 8.76895 8.50004 8.77 8.50004C8.77106 8.50004 8.77211 8.50004 8.77318 8.50004C8.77424 8.50004 8.77531 8.50004 8.77638 8.50004C8.77745 8.50004 8.77853 8.50004 8.77961 8.50004C8.78069 8.50004 8.78178 8.50004 8.78287 8.50004C8.78396 8.50004 8.78506 8.50004 8.78616 8.50004C8.78726 8.50004 8.78837 8.50004 8.78948 8.50004C8.79059 8.50004 8.79171 8.50004 8.79283 8.50004C8.79395 8.50004 8.79507 8.50004 8.7962 8.50004C8.79733 8.50004 8.79847 8.50004 8.79961 8.50004C8.80075 8.50004 8.80189 8.50004 8.80304 8.50004C8.80419 8.50004 8.80535 8.50004 8.80651 8.50004C8.80767 8.50004 8.80883 8.50004 8.81 8.50004C8.81117 8.50004 8.81234 8.50004 8.81352 8.50004C8.8147 8.50004 8.81588 8.50004 8.81707 8.50004C8.81826 8.50004 8.81945 8.50004 8.82065 8.50004C8.82184 8.50004 8.82305 8.50004 8.82425 8.50004C8.82546 8.50004 8.82667 8.50004 8.82789 8.50004C8.82911 8.50004 8.83033 8.50004 8.83155 8.50004C8.83278 8.50004 8.83401 8.50004 8.83524 8.50004C8.83648 8.50004 8.83772 8.50004 8.83896 8.50004C8.84021 8.50004 8.84146 8.50004 8.84271 8.50004C8.84397 8.50004 8.84523 8.50004 8.84649 8.50004C8.84775 8.50004 8.84902 8.50004 8.8503 8.50004C8.85157 8.50004 8.85285 8.50004 8.85413 8.50004C8.85541 8.50004 8.8567 8.50004 8.85799 8.50004C8.85928 8.50004 8.86058 8.50004 8.86188 8.50004C8.86318 8.50004 8.86449 8.50004 8.8658 8.50004C8.86711 8.50004 8.86842 8.50004 8.86974 8.50004C8.87106 8.50004 8.87239 8.50004 8.87372 8.50004C8.87505 8.50004 8.87638 8.50004 8.87772 8.50004C8.87906 8.50004 8.8804 8.50004 8.88175 8.50004C8.8831 8.50004 8.88445 8.50004 8.8858 8.50004C8.88716 8.50004 8.88852 8.50004 8.88989 8.50004C8.89126 8.50004 8.89263 8.50004 8.894 8.50004C8.89538 8.50004 8.89676 8.50004 8.89814 8.50004C8.89953 8.50004 8.90091 8.50004 8.90231 8.50004C8.9037 8.50004 8.9051 8.50004 8.9065 8.50004C8.90791 8.50004 8.90931 8.50004 8.91073 8.50004C8.91214 8.50004 8.91355 8.50004 8.91498 8.50004C8.9164 8.50004 8.91782 8.50004 8.91925 8.50004C8.92068 8.50004 8.92212 8.50004 8.92356 8.50004C8.925 8.50004 8.92644 8.50004 8.92789 8.50004C8.92934 8.50004 8.93079 8.50004 8.93225 8.50004C8.9337 8.50004 8.93517 8.50004 8.93663 8.50004C8.9381 8.50004 8.93957 8.50004 8.94105 8.50004C8.94252 8.50004 8.944 8.50004 8.94549 8.50004C8.94697 8.50004 8.94846 8.50004 8.94995 8.50004C8.95145 8.50004 8.95294 8.50004 8.95445 8.50004C8.95595 8.50004 8.95746 8.50004 8.95897 8.50004C8.96048 8.50004 8.96199 8.50004 8.96351 8.50004C8.96503 8.50004 8.96656 8.50004 8.96809 8.50004C8.96962 8.50004 8.97115 8.50004 8.97269 8.50004C8.97423 8.50004 8.97577 8.50004 8.97732 8.50004C8.97886 8.50004 8.98042 8.50004 8.98197 8.50004C8.98353 8.50004 8.98509 8.50004 8.98665 8.50004C8.98822 8.50004 8.98979 8.50004 8.99136 8.50004C8.99293 8.50004 8.99451 8.50004 8.99609 8.50004C8.99768 8.50004 8.99926 8.50004 9.00085 8.50004C9.00244 8.50004 9.00404 8.50004 9.00564 8.50004C9.00724 8.50004 9.00884 8.50004 9.01045 8.50004C9.01206 8.50004 9.01367 8.50004 9.01529 8.50004C9.01691 8.50004 9.01853 8.50004 9.02016 8.50004C9.02178 8.50004 9.02341 8.50004 9.02505 8.50004C9.02668 8.50004 9.02832 8.50004 9.02997 8.50004C9.03161 8.50004 9.03326 8.50004 9.03491 8.50004C9.03656 8.50004 9.03822 8.50004 9.03988 8.50004C9.04154 8.50004 9.04321 8.50004 9.04487 8.50004C9.04654 8.50004 9.04822 8.50004 9.0499 8.50004C9.05157 8.50004 9.05326 8.50004 9.05494 8.50004C9.05663 8.50004 9.05832 8.50004 9.06002 8.50004C9.06171 8.50004 9.06341 8.50004 9.06512 8.50004C9.06682 8.50004 9.06853 8.50004 9.07024 8.50004C9.07195 8.50004 9.07367 8.50004 9.07539 8.50004C9.07711 8.50004 9.07884 8.50004 9.08057 8.50004C9.08229 8.50004 9.08403 8.50004 9.08577 8.50004C9.0875 8.50004 9.08925 8.50004 9.09099 8.50004C9.09274 8.50004 9.09449 8.50004 9.09625 8.50004C9.098 8.50004 9.09976 8.50004 9.10152 8.50004C9.10329 8.50004 9.10505 8.50004 9.10683 8.50004C9.1086 8.50004 9.11037 8.50004 9.11215 8.50004C9.11393 8.50004 9.11572 8.50004 9.11751 8.50004C9.1193 8.50004 9.12109 8.50004 9.12289 8.50004C9.12468 8.50004 9.12648 8.50004 9.12829 8.50004C9.13009 8.50004 9.1319 8.50004 9.13372 8.50004C9.13553 8.50004 9.13735 8.50004 9.13917 8.50004C9.14099 8.50004 9.14282 8.50004 9.14465 8.50004C9.14648 8.50004 9.14832 8.50004 9.15015 8.50004C9.15199 8.50004 9.15384 8.50004 9.15568 8.50004C9.15753 8.50004 9.15938 8.50004 9.16124 8.50004C9.16309 8.50004 9.16495 8.50004 9.16681 8.50004C9.16868 8.50004 9.17054 8.50004 9.17242 8.50004C9.17429 8.50004 9.17616 8.50004 9.17804 8.50004C9.17992 8.50004 9.18181 8.50004 9.1837 8.50004C9.18558 8.50004 9.18748 8.50004 9.18937 8.50004C9.19127 8.50004 9.19317 8.50004 9.19507 8.50004C9.19698 8.50004 9.19889 8.50004 9.2008 8.50004C9.20271 8.50004 9.20463 8.50004 9.20655 8.50004C9.20847 8.50004 9.21039 8.50004 9.21232 8.50004C9.21425 8.50004 9.21618 8.50004 9.21812 8.50004C9.22006 8.50004 9.222 8.50004 9.22394 8.50004C9.22589 8.50004 9.22784 8.50004 9.22979 8.50004C9.23174 8.50004 9.2337 8.50004 9.23566 8.50004C9.23762 8.50004 9.23959 8.50004 9.24156 8.50004C9.24353 8.50004 9.2455 8.50004 9.24748 8.50004C9.24945 8.50004 9.25143 8.50004 9.25342 8.50004C9.2554 8.50004 9.25739 8.50004 9.25939 8.50004C9.26138 8.50004 9.26338 8.50004 9.26538 8.50004C9.26738 8.50004 9.26938 8.50004 9.27139 8.50004C9.2734 8.50004 9.27541 8.50004 9.27743 8.50004C9.27945 8.50004 9.28147 8.50004 9.28349 8.50004C9.28552 8.50004 9.28755 8.50004 9.28958 8.50004C9.29161 8.50004 9.29365 8.50004 9.29569 8.50004C9.29773 8.50004 9.29977 8.50004 9.30182 8.50004C9.30387 8.50004 9.30592 8.50004 9.30798 8.50004C9.31003 8.50004 9.31209 8.50004 9.31416 8.50004C9.31622 8.50004 9.31829 8.50004 9.32036 8.50004C9.32243 8.50004 9.32451 8.50004 9.32659 8.50004C9.32867 8.50004 9.33075 8.50004 9.33284 8.50004C9.33493 8.50004 9.33702 8.50004 9.33911 8.50004C9.34121 8.50004 9.34331 8.50004 9.34541 8.50004C9.34751 8.50004 9.34962 8.50004 9.35173 8.50004C9.35384 8.50004 9.35595 8.50004 9.35807 8.50004C9.36019 8.50004 9.36231 8.50004 9.36444 8.50004C9.36656 8.50004 9.36869 8.50004 9.37083 8.50004C9.37296 8.50004 9.3751 8.50004 9.37724 8.50004C9.37938 8.50004 9.38152 8.50004 9.38367 8.50004C9.38582 8.50004 9.38797 8.50004 9.39013 8.50004C9.39229 8.50004 9.39445 8.50004 9.39661 8.50004C9.39878 8.50004 9.40094 8.50004 9.40311 8.50004C9.40529 8.50004 9.40746 8.50004 9.40964 8.50004C9.41182 8.50004 9.414 8.50004 9.41619 8.50004C9.41838 8.50004 9.42057 8.50004 9.42276 8.50004C9.42495 8.50004 9.42715 8.50004 9.42935 8.50004C9.43156 8.50004 9.43376 8.50004 9.43597 8.50004C9.43818 8.50004 9.44039 8.50004 9.44261 8.50004C9.44483 8.50004 9.44705 8.50004 9.44927 8.50004C9.45149 8.50004 9.45372 8.50004 9.45595 8.50004C9.45818 8.50004 9.46042 8.50004 9.46266 8.50004C9.4649 8.50004 9.46714 8.50004 9.46939 8.50004C9.47163 8.50004 9.47388 8.50004 9.47614 8.50004C9.47839 8.50004 9.48065 8.50004 9.48291 8.50004C9.48517 8.50004 9.48743 8.50004 9.4897 8.50004C9.49197 8.50004 9.49424 8.50004 9.49652 8.50004C9.4988 8.50004 9.50107 8.50004 9.50336 8.50004C9.50564 8.50004 9.50793 8.50004 9.51022 8.50004C9.51251 8.50004 9.5148 8.50004 9.5171 8.50004C9.5194 8.50004 9.5217 8.50004 9.524 8.50004C9.52631 8.50004 9.52862 8.50004 9.53093 8.50004C9.53324 8.50004 9.53556 8.50004 9.53788 8.50004C9.5402 8.50004 9.54252 8.50004 9.54485 8.50004C9.54717 8.50004 9.5495 8.50004 9.55184 8.50004C9.55417 8.50004 9.55651 8.50004 9.55885 8.50004C9.56119 8.50004 9.56353 8.50004 9.56588 8.50004C9.56823 8.50004 9.57058 8.50004 9.57294 8.50004C9.57529 8.50004 9.57765 8.50004 9.58001 8.50004C9.58238 8.50004 9.58474 8.50004 9.58711 8.50004C9.58948 8.50004 9.59185 8.50004 9.59423 8.50004C9.59661 8.50004 9.59899 8.50004 9.60137 8.50004C9.60375 8.50004 9.60614 8.50004 9.60853 8.50004C9.61092 8.50004 9.61332 8.50004 9.61572 8.50004C9.61811 8.50004 9.62051 8.50004 9.62292 8.50004C9.62532 8.50004 9.62773 8.50004 9.63014 8.50004C9.63256 8.50004 9.63497 8.50004 9.63739 8.50004C9.63981 8.50004 9.64223 8.50004 9.64466 8.50004C9.64708 8.50004 9.64951 8.50004 9.65194 8.50004C9.65438 8.50004 9.65681 8.50004 9.65925 8.50004C9.66169 8.50004 9.66414 8.50004 9.66658 8.50004C9.66903 8.50004 9.67148 8.50004 9.67393 8.50004C9.67639 8.50004 9.67884 8.50004 9.6813 8.50004C9.68376 8.50004 9.68623 8.50004 9.6887 8.50004C9.69116 8.50004 9.69363 8.50004 9.69611 8.50004C9.69858 8.50004 9.70106 8.50004 9.70354 8.50004C9.70602 8.50004 9.7085 8.50004 9.71099 8.50004C9.71348 8.50004 9.71597 8.50004 9.71847 8.50004C9.72096 8.50004 9.72346 8.50004 9.72596 8.50004C9.72846 8.50004 9.73097 8.50004 9.73347 8.50004C9.73598 8.50004 9.73849 8.50004 9.74101 8.50004C9.74352 8.50004 9.74604 8.50004 9.74856 8.50004C9.75108 8.50004 9.75361 8.50004 9.75614 8.50004C9.75867 8.50004 9.7612 8.50004 9.76373 8.50004C9.76627 8.50004 9.76881 8.50004 9.77135 8.50004C9.77389 8.50004 9.77643 8.50004 9.77898 8.50004C9.78153 8.50004 9.78408 8.50004 9.78664 8.50004C9.78919 8.50004 9.79175 8.50004 9.79431 8.50004C9.79687 8.50004 9.79944 8.50004 9.80201 8.50004C9.80457 8.50004 9.80715 8.50004 9.80972 8.50004C9.8123 8.50004 9.81487 8.50004 9.81746 8.50004C9.82004 8.50004 9.82262 8.50004 9.82521 8.50004C9.8278 8.50004 9.83039 8.50004 9.83298 8.50004C9.83558 8.50004 9.83817 8.50004 9.84078 8.50004C9.84338 8.50004 9.84598 8.50004 9.84859 8.50004C9.8512 8.50004 9.85381 8.50004 9.85642 8.50004C9.85903 8.50004 9.86165 8.50004 9.86427 8.50004C9.86689 8.50004 9.86952 8.50004 9.87214 8.50004C9.87477 8.50004 9.8774 8.50004 9.88003 8.50004C9.88267 8.50004 9.8853 8.50004 9.88794 8.50004C9.89058 8.50004 9.89323 8.50004 9.89587 8.50004C9.89852 8.50004 9.90117 8.50004 9.90382 8.50004C9.90647 8.50004 9.90913 8.50004 9.91179 8.50004C9.91445 8.50004 9.91711 8.50004 9.91977 8.50004C9.92244 8.50004 9.92511 8.50004 9.92778 8.50004C9.93045 8.50004 9.93313 8.50004 9.9358 8.50004C9.93848 8.50004 9.94116 8.50004 9.94385 8.50004C9.94653 8.50004 9.94922 8.50004 9.95191 8.50004C9.9546 8.50004 9.95729 8.50004 9.95999 8.50004C9.96269 8.50004 9.96539 8.50004 9.96809 8.50004C9.97079 8.50004 9.9735 8.50004 9.97621 8.50004C9.97892 8.50004 9.98163 8.50004 9.98435 8.50004C9.98706 8.50004 9.98978 8.50004 9.9925 8.50004C9.99522 8.50004 9.99795 8.50004 10.0007 8.50004C10.0034 8.50004 10.0061 8.50004 10.0089 8.50004C10.0116 8.50004 10.0143 8.50004 10.0171 8.50004C10.0198 8.50004 10.0226 8.50004 10.0253 8.50004C10.0281 8.50004 10.0308 8.50004 10.0336 8.50004C10.0363 8.50004 10.0391 8.50004 10.0418 8.50004C10.0446 8.50004 10.0473 8.50004 10.0501 8.50004C10.0529 8.50004 10.0556 8.50004 10.0584 8.50004C10.0612 8.50004 10.064 8.50004 10.0667 8.50004C10.0695 8.50004 10.0723 8.50004 10.0751 8.50004C10.0779 8.50004 10.0806 8.50004 10.0834 8.50004C10.0862 8.50004 10.089 8.50004 10.0918 8.50004C10.0946 8.50004 10.0974 8.50004 10.1002 8.50004C10.103 8.50004 10.1058 8.50004 10.1086 8.50004C10.1114 8.50004 10.1142 8.50004 10.117 8.50004C10.1198 8.50004 10.1227 8.50004 10.1255 8.50004C10.1283 8.50004 10.1311 8.50004 10.1339 8.50004C10.1368 8.50004 10.1396 8.50004 10.1424 8.50004C10.1453 8.50004 10.1481 8.50004 10.1509 8.50004C10.1538 8.50004 10.1566 8.50004 10.1594 8.50004C10.1623 8.50004 10.1651 8.50004 10.168 8.50004C10.1708 8.50004 10.1737 8.50004 10.1765 8.50004C10.1794 8.50004 10.1822 8.50004 10.1851 8.50004C10.188 8.50004 10.1908 8.50004 10.1937 8.50004C10.1966 8.50004 10.1994 8.50004 10.2023 8.50004C10.2052 8.50004 10.208 8.50004 10.2109 8.50004C10.2138 8.50004 10.2167 8.50004 10.2196 8.50004C10.2224 8.50004 10.2253 8.50004 10.2282 8.50004C10.2311 8.50004 10.234 8.50004 10.2369 8.50004C10.2398 8.50004 10.2427 8.50004 10.2456 8.50004C10.2485 8.50004 10.2514 8.50004 10.2543 8.50004C10.2572 8.50004 10.2601 8.50004 10.263 8.50004C10.2659 8.50004 10.2688 8.50004 10.2717 8.50004C10.2747 8.50004 10.2776 8.50004 10.2805 8.50004C10.2834 8.50004 10.2864 8.50004 10.2893 8.50004C10.2922 8.50004 10.2951 8.50004 10.2981 8.50004C10.301 8.50004 10.3039 8.50004 10.3069 8.50004C10.3098 8.50004 10.3128 8.50004 10.3157 8.50004C10.3187 8.50004 10.3216 8.50004 10.3245 8.50004C10.3275 8.50004 10.3305 8.50004 10.3334 8.50004C10.3364 8.50004 10.3393 8.50004 10.3423 8.50004C10.3452 8.50004 10.3482 8.50004 10.3512 8.50004C10.3541 8.50004 10.3571 8.50004 10.3601 8.50004C10.3631 8.50004 10.366 8.50004 10.369 8.50004C10.372 8.50004 10.375 8.50004 10.3779 8.50004C10.3809 8.50004 10.3839 8.50004 10.3869 8.50004C10.3899 8.50004 10.3929 8.50004 10.3959 8.50004C10.3989 8.50004 10.4019 8.50004 10.4049 8.50004C10.4079 8.50004 10.4109 8.50004 10.4139 8.50004C10.4169 8.50004 10.4199 8.50004 10.4229 8.50004C10.4259 8.50004 10.4289 8.50004 10.4319 8.50004C10.4349 8.50004 10.438 8.50004 10.441 8.50004C10.444 8.50004 10.447 8.50004 10.45 8.50004C10.4531 8.50004 10.4561 8.50004 10.4591 8.50004C10.4622 8.50004 10.4652 8.50004 10.4682 8.50004C10.4713 8.50004 10.4743 8.50004 10.4773 8.50004C10.4804 8.50004 10.4834 8.50004 10.4865 8.50004C10.4895 8.50004 10.4926 8.50004 10.4956 8.50004C10.4987 8.50004 10.5017 8.50004 10.5048 8.50004C10.5078 8.50004 10.5109 8.50004 10.514 8.50004C10.517 8.50004 10.5201 8.50004 10.5232 8.50004C10.5262 8.50004 10.5293 8.50004 10.5324 8.50004C10.5354 8.50004 10.5385 8.50004 10.5416 8.50004C10.5447 8.50004 10.5478 8.50004 10.5508 8.50004C10.5539 8.50004 10.557 8.50004 10.5601 8.50004C10.5632 8.50004 10.5663 8.50004 10.5694 8.50004C10.5725 8.50004 10.5756 8.50004 10.5786 8.50004C10.5817 8.50004 10.5848 8.50004 10.588 8.50004C10.5911 8.50004 10.5942 8.50004 10.5973 8.50004C10.6004 8.50004 10.6035 8.50004 10.6066 8.50004C10.6097 8.50004 10.6128 8.50004 10.6159 8.50004C10.6191 8.50004 10.6222 8.50004 10.6253 8.50004C10.6284 8.50004 10.6316 8.50004 10.6347 8.50004C10.6378 8.50004 10.6409 8.50004 10.6441 8.50004C10.6472 8.50004 10.6503 8.50004 10.6535 8.50004C10.6566 8.50004 10.6598 8.50004 10.6629 8.50004C10.666 8.50004 10.6692 8.50004 10.6723 8.50004C10.6755 8.50004 10.6786 8.50004 10.6818 8.50004C10.6849 8.50004 10.6881 8.50004 10.6912 8.50004C10.6944 8.50004 10.6976 8.50004 10.7007 8.50004C10.7039 8.50004 10.707 8.50004 10.7102 8.50004C10.7134 8.50004 10.7165 8.50004 10.7197 8.50004C10.7229 8.50004 10.7261 8.50004 10.7292 8.50004C10.7324 8.50004 10.7356 8.50004 10.7388 8.50004C10.742 8.50004 10.7451 8.50004 10.7483 8.50004C10.7515 8.50004 10.7547 8.50004 10.7579 8.50004C10.7611 8.50004 10.7643 8.50004 10.7675 8.50004C10.7707 8.50004 10.7739 8.50004 10.7771 8.50004C10.7803 8.50004 10.7835 8.50004 10.7867 8.50004C10.7899 8.50004 10.7931 8.50004 10.7963 8.50004C10.7995 8.50004 10.8027 8.50004 10.8059 8.50004C10.8091 8.50004 10.8124 8.50004 10.8156 8.50004C10.8188 8.50004 10.822 8.50004 10.8252 8.50004C10.8285 8.50004 10.8317 8.50004 10.8349 8.50004C10.8381 8.50004 10.8414 8.50004 10.8446 8.50004C10.8478 8.50004 10.8511 8.50004 10.8543 8.50004C10.8575 8.50004 10.8608 8.50004 10.864 8.50004C10.8673 8.50004 10.8705 8.50004 10.8737 8.50004C10.877 8.50004 10.8802 8.50004 10.8835 8.50004C10.8867 8.50004 10.89 8.50004 10.8932 8.50004C10.8965 8.50004 10.8998 8.50004 10.903 8.50004C10.9063 8.50004 10.9095 8.50004 10.9128 8.50004C10.9161 8.50004 10.9193 8.50004 10.9226 8.50004C10.9259 8.50004 10.9291 8.50004 10.9324 8.50004C10.9357 8.50004 10.939 8.50004 10.9422 8.50004C10.9455 8.50004 10.9488 8.50004 10.9521 8.50004C10.9554 8.50004 10.9586 8.50004 10.9619 8.50004C10.9652 8.50004 10.9685 8.50004 10.9718 8.50004C10.9751 8.50004 10.9784 8.50004 10.9817 8.50004C10.985 8.50004 10.9883 8.50004 10.9916 8.50004C10.9948 8.50004 10.9981 8.50004 11.0015 8.50004C11.0048 8.50004 11.0081 8.50004 11.0114 8.50004C11.0147 8.50004 11.018 8.50004 11.0213 8.50004C11.0246 8.50004 11.0279 8.50004 11.0312 8.50004C11.0346 8.50004 11.0379 8.50004 11.0412 8.50004C11.0445 8.50004 11.0478 8.50004 11.0512 8.50004C11.0545 8.50004 11.0578 8.50004 11.0611 8.50004C11.0645 8.50004 11.0678 8.50004 11.0711 8.50004C11.0745 8.50004 11.0778 8.50004 11.0811 8.50004C11.0845 8.50004 11.0878 8.50004 11.0911 8.50004C11.0945 8.50004 11.0978 8.50004 11.1012 8.50004C11.1045 8.50004 11.1079 8.50004 11.1112 8.50004C11.1146 8.50004 11.1179 8.50004 11.1213 8.50004C11.1246 8.50004 11.128 8.50004 11.1313 8.50004C11.1347 8.50004 11.138 8.50004 11.1414 8.50004C11.1448 8.50004 11.1481 8.50004 11.1515 8.50004C11.1549 8.50004 11.1582 8.50004 11.1616 8.50004C11.165 8.50004 11.1683 8.50004 11.1717 8.50004C11.1751 8.50004 11.1785 8.50004 11.1818 8.50004C11.1852 8.50004 11.1886 8.50004 11.192 8.50004C11.1954 8.50004 11.1987 8.50004 11.2021 8.50004C11.2055 8.50004 11.2089 8.50004 11.2123 8.50004C11.2157 8.50004 11.2191 8.50004 11.2225 8.50004C11.2258 8.50004 11.2292 8.50004 11.2326 8.50004C11.236 8.50004 11.2394 8.50004 11.2428 8.50004C11.2462 8.50004 11.2496 8.50004 11.253 8.50004C11.2564 8.50004 11.2599 8.50004 11.2633 8.50004C11.2667 8.50004 11.2701 8.50004 11.2735 8.50004C11.2769 8.50004 11.2803 8.50004 11.2837 8.50004C11.2871 8.50004 11.2906 8.50004 11.294 8.50004C11.2974 8.50004 11.3008 8.50004 11.3043 8.50004C11.3077 8.50004 11.3111 8.50004 11.3145 8.50004C11.318 8.50004 11.3214 8.50004 11.3248 8.50004C11.3282 8.50004 11.3317 8.50004 11.3351 8.50004C11.3385 8.50004 11.342 8.50004 11.3454 8.50004C11.3489 8.50004 11.3523 8.50004 11.3557 8.50004C11.3592 8.50004 11.3626 8.50004 11.3661 8.50004C11.3695 8.50004 11.373 8.50004 11.3764 8.50004C11.3799 8.50004 11.3833 8.50004 11.3868 8.50004C11.3902 8.50004 11.3937 8.50004 11.3971 8.50004C11.4006 8.50004 11.4041 8.50004 11.4075 8.50004C11.411 8.50004 11.4144 8.50004 11.4179 8.50004C11.4214 8.50004 11.4248 8.50004 11.4283 8.50004C11.4318 8.50004 11.4352 8.50004 11.4387 8.50004C11.4422 8.50004 11.4456 8.50004 11.4491 8.50004C11.4526 8.50004 11.4561 8.50004 11.4595 8.50004C11.463 8.50004 11.4665 8.50004 11.47 8.50004C11.4735 8.50004 11.477 8.50004 11.4804 8.50004C11.4839 8.50004 11.4874 8.50004 11.4909 8.50004C11.4944 8.50004 11.4979 8.50004 11.5014 8.50004C11.5049 8.50004 11.5084 8.50004 11.5118 8.50004C11.5153 8.50004 11.5188 8.50004 11.5223 8.50004C11.5258 8.50004 11.5293 8.50004 11.5328 8.50004C11.5363 8.50004 11.5398 8.50004 11.5434 8.50004C11.5469 8.50004 11.5504 8.50004 11.5539 8.50004C11.5574 8.50004 11.5609 8.50004 11.5644 8.50004C11.5679 8.50004 11.5714 8.50004 11.5749 8.50004C11.5785 8.50004 11.582 8.50004 11.5855 8.50004C11.589 8.50004 11.5925 8.50004 11.5961 8.50004C11.5996 8.50004 11.6031 8.50004 11.6066 8.50004C11.6102 8.50004 11.6137 8.50004 11.6172 8.50004C11.6207 8.50004 11.6243 8.50004 11.6278 8.50004C11.6313 8.50004 11.6349 8.50004 11.6384 8.50004C11.6419 8.50004 11.6455 8.50004 11.649 8.50004C11.6526 8.50004 11.6561 8.50004 11.6596 8.50004C11.6632 8.50004 11.6667 8.50004 11.6703 8.50004C11.6738 8.50004 11.6774 8.50004 11.6809 8.50004C11.6845 8.50004 11.688 8.50004 11.6916 8.50004C11.6951 8.50004 11.6987 8.50004 11.7022 8.50004C11.7058 8.50004 11.7093 8.50004 11.7129 8.50004C11.7164 8.50004 11.72 8.50004 11.7236 8.50004C11.7271 8.50004 11.7307 8.50004 11.7342 8.50004C11.7378 8.50004 11.7414 8.50004 11.7449 8.50004C11.7485 8.50004 11.7521 8.50004 11.7556 8.50004C11.7592 8.50004 11.7628 8.50004 11.7664 8.50004C11.7699 8.50004 11.7735 8.50004 11.7771 8.50004C11.7806 8.50004 11.7842 8.50004 11.7878 8.50004C11.7914 8.50004 11.795 8.50004 11.7985 8.50004C11.8021 8.50004 11.8057 8.50004 11.8093 8.50004C11.8129 8.50004 11.8165 8.50004 11.8201 8.50004C11.8236 8.50004 11.8272 8.50004 11.8308 8.50004C11.8344 8.50004 11.838 8.50004 11.8416 8.50004C11.8452 8.50004 11.8488 8.50004 11.8524 8.50004C11.856 8.50004 11.8596 8.50004 11.8632 8.50004C11.8668 8.50004 11.8704 8.50004 11.874 8.50004C11.8776 8.50004 11.8812 8.50004 11.8848 8.50004C11.8884 8.50004 11.892 8.50004 11.8956 8.50004C11.8992 8.50004 11.9028 8.50004 11.9064 8.50004C11.91 8.50004 11.9136 8.50004 11.9173 8.50004C11.9209 8.50004 11.9245 8.50004 11.9281 8.50004C11.9317 8.50004 11.9353 8.50004 11.939 8.50004C11.9426 8.50004 11.9462 8.50004 11.9498 8.50004C11.9534 8.50004 11.9571 8.50004 11.9607 8.50004C11.9643 8.50004 11.9679 8.50004 11.9716 8.50004V7.50004ZM9.10951 8.00004C9.10951 6.3261 10.4415 4.83337 11.9716 4.83337V3.83337C9.78802 3.83337 8.10951 5.88073 8.10951 8.00004H9.10951ZM11.9716 4.83337C13.5016 4.83337 14.8336 6.3261 14.8336 8.00004H15.8336C15.8336 5.88073 14.1551 3.83337 11.9716 3.83337V4.83337ZM11.4716 3.33337V3.76264H12.4716V3.33337H11.4716ZM8.30042 12.8334H0.666931V13.8334H8.30042V12.8334Z"
            fill="white" />
    </g>
    <defs>
        <clipPath id="clip0_139_6118">
            <rect width="16" height="16" fill="white" transform="translate(0.000305176)" />
        </clipPath>
    </defs>
</svg>
