<svg width="16" height="16" viewBox="0 0 16 16" fill="none" xmlns="http://www.w3.org/2000/svg">
<g clip-path="url(#clip0_3856_544)">
<path d="M14.6667 6.84604L8.00004 1.33337L1.33337 6.84604M2.97691 5.51937V13.906C2.97431 14.1051 3.05088 14.2971 3.18979 14.4397C3.32869 14.5824 3.51856 14.664 3.71765 14.6667H6.41582V11.6239C6.41321 11.4249 6.48978 11.2329 6.62869 11.0902C6.7676 10.9476 6.95747 10.866 7.15656 10.8633H8.84354C9.04263 10.866 9.2325 10.9476 9.37141 11.0902C9.51032 11.2329 9.58689 11.4249 9.58428 11.6239V14.6667H12.2824C12.4815 14.664 12.6714 14.5824 12.8103 14.4397C12.9492 14.2971 13.0258 14.1051 13.0232 13.906V5.51937" stroke="#181818" stroke-width="1.5" stroke-linecap="round" stroke-linejoin="round"/>
</g>
<defs>
<clipPath id="clip0_3856_544">
<rect width="16" height="16" fill="white"/>
</clipPath>
</defs>
</svg>
