<svg width="24" height="24" viewBox="0 0 24 24" fill="none" xmlns="http://www.w3.org/2000/svg">
    <path
        d="M12.0157 12.9004C13.5621 12.9004 14.8157 11.6468 14.8157 10.1004C14.8157 8.55399 13.5621 7.30039 12.0157 7.30039C10.4693 7.30039 9.21572 8.55399 9.21572 10.1004C9.21572 11.6468 10.4693 12.9004 12.0157 12.9004Z"
        stroke="#C0C0C0" stroke-width="1.5" stroke-miterlimit="10" stroke-linecap="round" stroke-linejoin="round" />
    <path
        d="M11.9157 21.0004C10.7157 21.0004 9.61572 19.7004 8.71572 18.7004C7.81572 17.5004 7.01572 16.3004 6.31572 14.9004C5.51572 13.2004 4.81572 11.2004 5.01572 9.20039C5.31572 5.70039 8.51572 2.90039 12.0157 2.90039C15.5157 2.90039 18.6157 5.60039 19.0157 9.20039C19.2157 11.2004 18.5157 13.1004 17.6157 14.9004C16.9157 16.2004 16.1157 17.5004 15.2157 18.7004C14.3157 19.7004 13.2157 21.0004 11.9157 21.0004Z"
        stroke="#C0C0C0" stroke-width="1.5" stroke-miterlimit="10" stroke-linecap="round" stroke-linejoin="round" />
</svg>
