<svg width="94" height="94" viewBox="0 0 94 94" fill="none" xmlns="http://www.w3.org/2000/svg">
<rect width="94" height="94" rx="22.381" fill="url(#paint0_linear_557_45679)"/>
<g filter="url(#filter0_ii_557_45679)">
<path fill-rule="evenodd" clip-rule="evenodd" d="M60.9834 67.1495C63.8375 67.3918 67.9012 67.7371 69.3415 64.471C69.561 63.9753 69.7199 63.4546 69.8142 62.92C70.6398 58.0695 70.7918 53.1313 70.2685 48.2404C69.9323 45.1929 69.1741 40.9007 66.1809 39.4806C71.0365 36.6809 65.8405 31.0535 63.1652 29.4218C54.5791 24.1774 41.8604 23.7736 32.7765 27.8585C30.1743 29.0181 25.4269 32.3985 27.3258 36.3983C27.662 37.1013 28.1713 37.5204 28.6945 37.9506C28.9576 38.1664 29.2234 38.3863 29.4738 38.6453C29.3964 38.5645 27.9293 40.0932 26.9306 42.6368C26.1894 44.3937 25.6436 46.2245 25.3003 48.0971C24.7504 51.1307 24.4466 54.2019 24.3917 57.2843C24.4282 60.6868 24.9276 64.741 27.7071 67.1133C29.786 68.8954 32.8018 68.0962 35.3535 67.4196C35.8795 67.2804 36.3859 67.1468 36.86 67.041C40.5706 66.2223 44.3361 65.4997 48.1424 65.6111C50.611 65.6863 53.0488 66.0594 55.4877 66.4339C57.2995 66.711 59.1098 66.9894 60.9328 67.1439L60.9834 67.1495ZM75.5138 46.5517C75.8824 50.2773 76.0455 54.0182 76.0005 57.7604C76.0005 58.1781 75.9963 58.6013 75.9457 59.0232C75.9457 62.9826 75.909 67.0284 75.0369 70.9071C74.1662 74.7761 69.5118 74.7107 66.4074 74.6662C66.24 74.6633 66.0782 74.6619 65.9207 74.6606C62.8979 74.6327 59.889 74.2442 56.8803 73.8572C54.0853 73.4967 51.2918 73.136 48.487 73.065C45.3306 72.983 42.1755 73.4048 39.036 73.8252C38.0724 73.9547 37.1103 74.0827 36.151 74.197C35.0187 74.3293 33.8596 74.5366 32.6894 74.7455C30.0196 75.2216 27.2949 75.7075 24.7138 75.3483C20.1619 74.6925 18.8538 68.777 18.4684 64.8037C17.8467 58.3758 17.4697 53.2385 19.7358 45.2472C20.4897 42.5867 21.6615 40.6181 23.2649 38.4295C23.2649 38.4281 23.1074 38.2624 22.8992 38.0452C22.6292 37.764 22.2761 37.3951 22.0792 37.1835C21.2803 36.3844 20.6501 35.4377 20.2211 34.3962C18.6456 30.196 22.2339 26.4342 25.3454 24.5018C37.3101 17.0674 53.8251 16.5188 66.1668 23.0456C69.6004 24.8609 73.0762 27.5939 74.5334 31.4545C75.6461 34.3991 75.8866 38.4699 72.7442 40.1239C72.4108 40.2338 72.0535 40.2477 71.7118 40.1656C74.3927 40.8366 75.2423 44.0429 75.5138 46.5517Z" fill="url(#paint1_linear_557_45679)"/>
</g>
<defs>
<filter id="filter0_ii_557_45679" x="17.9922" y="16.8589" width="58.0156" height="59.3481" filterUnits="userSpaceOnUse" color-interpolation-filters="sRGB">
<feFlood flood-opacity="0" result="BackgroundImageFix"/>
<feBlend mode="normal" in="SourceGraphic" in2="BackgroundImageFix" result="shape"/>
<feColorMatrix in="SourceAlpha" type="matrix" values="0 0 0 0 0 0 0 0 0 0 0 0 0 0 0 0 0 0 127 0" result="hardAlpha"/>
<feOffset dy="1.10156"/>
<feGaussianBlur stdDeviation="0.367188"/>
<feComposite in2="hardAlpha" operator="arithmetic" k2="-1" k3="1"/>
<feColorMatrix type="matrix" values="0 0 0 0 1 0 0 0 0 1 0 0 0 0 1 0 0 0 0.95 0"/>
<feBlend mode="normal" in2="shape" result="effect1_innerShadow_557_45679"/>
<feColorMatrix in="SourceAlpha" type="matrix" values="0 0 0 0 0 0 0 0 0 0 0 0 0 0 0 0 0 0 127 0" result="hardAlpha"/>
<feOffset dy="-1.83594"/>
<feGaussianBlur stdDeviation="0.826172"/>
<feComposite in2="hardAlpha" operator="arithmetic" k2="-1" k3="1"/>
<feColorMatrix type="matrix" values="0 0 0 0 1 0 0 0 0 1 0 0 0 0 1 0 0 0 0.45 0"/>
<feBlend mode="normal" in2="effect1_innerShadow_557_45679" result="effect2_innerShadow_557_45679"/>
</filter>
<linearGradient id="paint0_linear_557_45679" x1="47" y1="43.6035" x2="47" y2="94" gradientUnits="userSpaceOnUse">
<stop stop-color="#FF4D00"/>
<stop offset="1" stop-color="#FF0000"/>
</linearGradient>
<linearGradient id="paint1_linear_557_45679" x1="47" y1="18.5112" x2="47" y2="75.4727" gradientUnits="userSpaceOnUse">
<stop stop-color="white"/>
<stop offset="1" stop-color="white" stop-opacity="0.4"/>
</linearGradient>
</defs>
</svg>
