<svg width="16" height="20" viewBox="0 0 16 20" fill="none" xmlns="http://www.w3.org/2000/svg">
<path d="M14.25 9.59967C14.2498 9.13417 13.8659 8.75028 13.4004 8.75006H2.59961C2.13411 8.75028 1.75019 9.13417 1.75 9.59967V16.5997C1.75 17.5055 2.4946 18.2501 3.40039 18.2501H12.5996C13.5054 18.2501 14.25 17.5055 14.25 16.5997V9.59967ZM8.25 12.0001C8.25 11.9338 8.22363 11.8702 8.17676 11.8233C8.12987 11.7764 8.0663 11.7501 8 11.7501C7.9337 11.7501 7.87013 11.7764 7.82324 11.8233C7.77637 11.8702 7.75 11.9338 7.75 12.0001C7.75001 12.0663 7.77637 12.1299 7.82324 12.1768C7.87012 12.2237 7.93371 12.2501 8 12.2501C8.06629 12.2501 8.12988 12.2237 8.17676 12.1768C8.22363 12.1299 8.24999 12.0663 8.25 12.0001ZM9.75 12.0001C9.74999 12.4642 9.56548 12.9092 9.2373 13.2374C9.09453 13.3801 8.92897 13.4942 8.75 13.5792V16.0001C8.74997 16.4143 8.4142 16.7501 8 16.7501C7.5858 16.7501 7.25003 16.4143 7.25 16.0001V13.5792C7.07103 13.4942 6.90547 13.3801 6.7627 13.2374C6.43452 12.9092 6.25001 12.4642 6.25 12.0001C6.25 11.5359 6.43452 11.0909 6.7627 10.7628C7.09088 10.4346 7.53587 10.2501 8 10.2501C8.46413 10.2501 8.90912 10.4346 9.2373 10.7628C9.56548 11.0909 9.75 11.5359 9.75 12.0001ZM11.124 5.00006C11.124 4.07806 10.9185 3.40872 10.4316 2.84283C10.2073 2.58211 9.80977 2.30025 9.32812 2.08307C8.8479 1.86658 8.36362 1.75006 8 1.75006C7.6521 1.75006 7.16971 1.86673 6.68262 2.086C6.19537 2.30535 5.78945 2.5887 5.56055 2.84869C5.03759 3.44286 4.74926 4.20756 4.75 4.99908V7.25006H11.124V5.00006ZM12.624 7.25006H13.4004C14.6943 7.25027 15.7498 8.30574 15.75 9.59967V16.5997C15.75 18.3339 14.3338 19.7501 12.5996 19.7501H3.40039C1.66618 19.7501 0.25 18.3339 0.25 16.5997V9.59967C0.250185 8.30574 1.30569 7.25027 2.59961 7.25006H3.25V5.00006C3.24902 3.84337 3.67034 2.72577 4.43457 1.85748C4.84928 1.38642 5.45719 0.993132 6.06641 0.718811C6.67609 0.444338 7.37367 0.250061 8 0.250061C8.63629 0.250061 9.33454 0.440482 9.94531 0.715881C10.5547 0.990687 11.1572 1.38661 11.5684 1.86432C12.3523 2.77528 12.624 3.82837 12.624 5.00006V7.25006Z" fill="#B6BCCB"/>
</svg>
