<svg width="10" height="10" viewBox="0 0 10 10" fill="none" xmlns="http://www.w3.org/2000/svg">
<g clip-path="url(#clip0_1260_12624)">
<path d="M9.4 5.10404C9.4 4.77904 9.37083 4.46654 9.31667 4.16654H5V5.93946H7.46667C7.36042 6.51238 7.0375 6.99779 6.55208 7.32279V8.47279H8.03333C8.9 7.67487 9.4 6.49988 9.4 5.10404V5.10404Z" fill="#4285F4"/>
<path d="M5.00001 9.58321C6.23751 9.58321 7.27501 9.1728 8.03334 8.4728L6.55209 7.3228C6.14168 7.5978 5.61668 7.7603 5.00001 7.7603C3.80626 7.7603 2.79584 6.95405 2.43542 5.87071H0.904175V7.05821C1.65834 8.55613 3.20834 9.58321 5.00001 9.58321Z" fill="#34A853"/>
<path d="M2.43544 5.87071C2.34377 5.59571 2.29169 5.30196 2.29169 4.99988C2.29169 4.69779 2.34377 4.40404 2.43544 4.12904V2.94154H0.904187C0.583354 3.58023 0.416404 4.28513 0.416687 4.99988C0.416687 5.73946 0.593771 6.43946 0.904187 7.05821L2.43544 5.87071V5.87071Z" fill="#FBBC05"/>
<path d="M5.00001 2.23946C5.67293 2.23946 6.27709 2.47071 6.75209 2.92488L8.06668 1.61029C7.27293 0.870709 6.23542 0.416542 5.00001 0.416542C3.20834 0.416542 1.65834 1.44363 0.904175 2.94154L2.43542 4.12904C2.79584 3.04571 3.80626 2.23946 5.00001 2.23946Z" fill="#EA4335"/>
</g>
<defs>
<clipPath id="clip0_1260_12624">
<rect width="10" height="10" fill="white"/>
</clipPath>
</defs>
</svg>
