<svg width="10" height="10" viewBox="0 0 10 10" fill="none" xmlns="http://www.w3.org/2000/svg">
<g clip-path="url(#clip0_1260_12635)">
<path fill-rule="evenodd" clip-rule="evenodd" d="M9.98698 5.00633C9.98698 7.76417 7.75129 9.99986 4.99345 9.99986C2.23569 9.99986 0 7.76417 0 5.00633C0 2.24857 2.23569 0.0128784 4.99345 0.0128784C7.75129 0.0128784 9.98698 2.24857 9.98698 5.00633Z" fill="#FF4C00"/>
<path fill-rule="evenodd" clip-rule="evenodd" d="M7.24871 6.62117C7.09733 6.96781 6.6688 6.92927 6.37001 6.9035C5.92276 6.86488 5.48285 6.75531 5.03345 6.74169C4.63561 6.72971 4.24199 6.80617 3.8544 6.89264C3.56432 6.95729 3.15983 7.12686 2.89759 6.90039C2.6069 6.64936 2.55518 6.22134 2.5513 5.86186C2.54802 5.54996 2.59561 5.19936 2.64397 4.89152C2.67518 4.69281 2.7419 4.50229 2.81458 4.31505C2.91889 4.04608 3.07233 3.88488 3.08026 3.89324C3.00233 3.81108 2.9088 3.76755 2.85587 3.65496C2.65733 3.23264 3.15337 2.87574 3.42432 2.75255C4.37302 2.32117 5.70121 2.36384 6.59975 2.91772C6.87949 3.09022 7.42251 3.68453 6.91492 3.98039C7.22802 4.13022 7.30733 4.58341 7.34164 4.90548C7.39673 5.42083 7.3819 5.94531 7.29604 6.45591C7.28544 6.51902 7.2694 6.57376 7.24871 6.62117ZM7.94492 5.91212C7.9463 5.51781 7.93561 5.11945 7.8938 4.72824C7.86535 4.46238 7.77639 4.12246 7.4938 4.05333C7.52613 4.06143 7.58052 4.06238 7.60449 4.04962C7.93277 3.87479 7.90751 3.44496 7.79121 3.13393C7.6388 2.72617 7.27604 2.43764 6.91708 2.24574C5.62742 1.55626 3.90121 1.6141 2.65078 2.39919C2.32544 2.6035 1.95052 3.00246 2.11535 3.44479C2.1569 3.55626 2.23026 3.65298 2.31035 3.73919C2.3469 3.77858 2.4344 3.87022 2.43423 3.87031C2.26587 4.10195 2.14363 4.30953 2.06475 4.59048C1.82768 5.43462 1.86708 5.97712 1.93216 6.65531C1.97233 7.07462 2.10932 7.70057 2.58509 7.76902C2.58587 7.76919 2.58664 7.76927 2.58742 7.76936C2.97509 7.82393 3.3963 7.69393 3.78276 7.64781C4.21044 7.59669 4.64095 7.51669 5.07164 7.52798C5.68052 7.54384 6.28432 7.69108 6.89363 7.69686C7.21535 7.69996 7.75078 7.73091 7.84656 7.30005C7.93751 6.89074 7.93983 6.4635 7.94397 6.04505C7.94449 6.00083 7.94475 5.95652 7.94492 5.91212Z" fill="white"/>
</g>
<defs>
<clipPath id="clip0_1260_12635">
<rect width="10" height="10" fill="white"/>
</clipPath>
</defs>
</svg>
