<svg width="24" height="24" viewBox="0 0 24 24" fill="none" xmlns="http://www.w3.org/2000/svg">
<g clip-path="url(#clip0_3984_115925)">
<path d="M5.85206 15.394L4.83706 19.279L1.00006 18.251M18.2221 8.641L19.2211 4.815L23.0001 5.827M19.1602 5.07584C20.7333 6.74375 21.6917 8.89747 21.8778 11.1826C22.0639 13.4677 21.4666 15.7482 20.1841 17.6486C18.9175 19.5389 17.0329 20.9299 14.8533 21.5834C12.6737 22.2368 10.3347 22.1119 8.23707 21.2301M4.91599 18.916C3.34628 17.2474 2.39075 15.0946 2.20635 12.8111C2.02195 10.5276 2.61965 8.24932 3.90127 6.35044C5.16752 4.46194 7.05046 3.07193 9.22816 2.41808C11.4058 1.76424 13.7431 1.88716 15.8401 2.76584M12 15.5938C13.4619 14.6251 15.2849 13.3907 15.7028 11.5541C15.7752 11.1878 15.7551 10.8093 15.6443 10.4528C15.5335 10.0963 15.3356 9.77308 15.0684 9.51236C14.8135 9.25652 14.485 9.08674 14.1289 9.02679C13.7728 8.96684 13.4068 9.01971 13.0822 9.17801C12.6502 9.42301 12.28 9.76373 12 10.174C11.7201 9.76373 11.3499 9.42301 10.9179 9.17801C10.5933 9.01971 10.2273 8.96684 9.87121 9.02679C9.51509 9.08674 9.1866 9.25652 8.93174 9.51236C8.66454 9.77307 8.46659 10.0963 8.35581 10.4528C8.24503 10.8093 8.22492 11.1878 8.29731 11.5541C8.71521 13.3907 10.5382 14.6251 12 15.5938Z" stroke="#9AA6DB" stroke-width="1.5" stroke-linecap="round" stroke-linejoin="round"/>
</g>
<defs>
<clipPath id="clip0_3984_115925">
<rect width="24" height="24" fill="white"/>
</clipPath>
</defs>
</svg>
