<svg width="16" height="16" viewBox="0 0 16 16" fill="none" xmlns="http://www.w3.org/2000/svg">
    <path
        d="M3.43333 8.16667H1.5M3.43333 4.16667H1.5M3.43333 12.1667H1.5M11.2334 4.7666V6.9666C11.2334 7.3666 10.7667 7.69993 10.2334 7.69993C9.70002 7.69993 9.23336 7.3666 9.23336 6.9666V4.7666M10.2334 7.7666V11.4999M6.30001 7.7666L6.30001 11.4999M12.1667 14.8333L3.76668 14.8333C3.03335 14.8333 2.43335 14.2333 2.43335 13.5L2.43335 2.83333C2.43335 2.1 3.03335 1.5 3.76668 1.5L12.1 1.5C12.8334 1.5 13.4333 2.1 13.4333 2.83333L13.4333 13.5C13.5 14.2333 12.9 14.8333 12.1667 14.8333ZM7.43333 6.23327C7.43333 7.04329 6.92592 7.69993 6.3 7.69993C5.67408 7.69993 5.16667 7.04329 5.16667 6.23327C5.16667 5.42325 5.67408 4.7666 6.3 4.7666C6.92592 4.7666 7.43333 5.42325 7.43333 6.23327Z"
        stroke="#FB812A" stroke-miterlimit="10" stroke-linecap="round" stroke-linejoin="round" />
</svg>
