<svg width="40" height="41" viewBox="0 0 40 41" fill="none" xmlns="http://www.w3.org/2000/svg">
<rect y="0.500031" width="40" height="40" rx="20" fill="#57585E"/>
<path d="M11.35 29.15C11.35 27.75 12.35 26.85 13.65 26.85H26.65C27.95 26.85 28.95 27.75 28.95 29.15M17.65 23.55C17.65 25.5167 16.55 26.8624 15.35 26.8624M22.05 23.55C22.05 25.5167 23.15 26.8624 24.35 26.8624M18.85 21.05H20.95M26.35 23.45H13.35C12.05 23.45 10.95 22.35 10.95 21.05L10.95 14.25C10.95 12.95 12.05 11.85 13.35 11.85L26.35 11.85C27.65 11.85 28.75 12.95 28.75 14.25V21.05C28.75 22.35 27.65 23.45 26.35 23.45Z" stroke="#C0C0C0" stroke-width="1.5" stroke-miterlimit="10" stroke-linecap="round" stroke-linejoin="round"/>
</svg>
