<svg width="20" height="20" viewBox="0 0 20 20" fill="none" xmlns="http://www.w3.org/2000/svg">
<path fill-rule="evenodd" clip-rule="evenodd" d="M10.8196 1.00049C12.5635 1.00242 14.2641 1.54416 15.6879 2.55132C17.1116 3.55848 18.1886 4.98168 18.7711 6.62549C19.3502 8.27459 19.4047 10.0625 18.927 11.7438C18.4493 13.4251 17.4628 14.9173 16.1031 16.0155C14.781 17.0751 13.171 17.7132 11.482 17.8469C9.7929 17.9806 8.10261 17.6039 6.63022 16.7655L2.05123 18.948C1.97647 18.9839 1.89434 19.0019 1.81141 19.0005C1.66264 18.999 1.52027 18.9398 1.41422 18.8355C1.33361 18.7528 1.27976 18.6478 1.25971 18.5341C1.23966 18.4204 1.25433 18.3032 1.30179 18.198L3.48264 13.608C2.76276 12.3485 2.38036 10.9245 2.37247 9.47389C2.36459 8.02325 2.73149 6.59516 3.43764 5.32798C4.16725 4.01616 5.23426 2.92323 6.5282 2.16236C7.82214 1.40149 9.29597 1.00036 10.797 1.00049H10.8196Z" stroke="#C0C0C0" stroke-width="1.5" stroke-linecap="round" stroke-linejoin="round"/>
<path d="M10.8662 10.3755C11.4185 10.3755 11.8662 9.92777 11.8662 9.37549C11.8662 8.8232 11.4185 8.37549 10.8662 8.37549C10.3139 8.37549 9.86621 8.8232 9.86621 9.37549C9.86621 9.92777 10.3139 10.3755 10.8662 10.3755Z" fill="#C0C0C0"/>
<path d="M6.86621 10.3755C7.4185 10.3755 7.86621 9.92777 7.86621 9.37549C7.86621 8.8232 7.4185 8.37549 6.86621 8.37549C6.31393 8.37549 5.86621 8.8232 5.86621 9.37549C5.86621 9.92777 6.31393 10.3755 6.86621 10.3755Z" fill="#C0C0C0"/>
<path d="M14.8662 10.3755C15.4185 10.3755 15.8662 9.92777 15.8662 9.37549C15.8662 8.8232 15.4185 8.37549 14.8662 8.37549C14.3139 8.37549 13.8662 8.8232 13.8662 9.37549C13.8662 9.92777 14.3139 10.3755 14.8662 10.3755Z" fill="#C0C0C0"/>
</svg>
