<svg width="40" height="41" viewBox="0 0 40 41" fill="none" xmlns="http://www.w3.org/2000/svg">
<rect y="0.500031" width="40" height="40" rx="20" fill="#57585E"/>
<path d="M30 18.769L20 10.5L10 18.769M12.4653 16.779L12.4653 29.359C12.4614 29.6577 12.5763 29.9456 12.7846 30.1596C12.993 30.3735 13.2778 30.496 13.5764 30.5H17.6237V25.9359C17.6198 25.6373 17.7346 25.3493 17.943 25.1353C18.1513 24.9214 18.4361 24.7989 18.7348 24.7949H21.2653C21.5639 24.7989 21.8487 24.9214 22.0571 25.1353C22.2654 25.3493 22.3803 25.6373 22.3764 25.9359L22.3764 30.5H26.4236C26.7222 30.496 27.0071 30.3735 27.2154 30.1596C27.4238 29.9456 27.5386 29.6577 27.5347 29.359L27.5347 16.779" stroke="#C0C0C0" stroke-width="1.5" stroke-linecap="round" stroke-linejoin="round"/>
</svg>
