<svg width="16" height="10" viewBox="0 0 16 10" fill="none" xmlns="http://www.w3.org/2000/svg">
<path d="M13.3669 8.8H2.70028C1.96694 8.8 1.36694 8.2 1.36694 7.46666V2.6C1.36694 1.86666 1.96694 1.26666 2.70028 1.26666H13.3669C14.1003 1.26666 14.7003 1.86666 14.7003 2.6V7.46666C14.7003 8.2 14.1003 8.8 13.3669 8.8Z" stroke="#C0C0C0" stroke-miterlimit="10" stroke-linecap="round" stroke-linejoin="round"/>
<path d="M9.80021 5.6115C9.80077 5.46792 9.79873 5.32429 9.79194 5.18086C9.78844 5.10803 9.78435 5.0352 9.77967 4.96237C9.77903 4.85128 9.73987 4.74387 9.66886 4.65844C9.56864 4.58283 9.45099 4.53368 9.32678 4.51552C9.40595 4.51965 9.48454 4.49982 9.55227 4.45861C9.62001 4.41741 9.67375 4.35674 9.70648 4.28453C9.73972 4.19998 9.75271 4.10883 9.74443 4.01836C9.73615 3.92789 9.70682 3.8406 9.65878 3.76349C9.54022 3.56471 9.36681 3.40436 9.15937 3.30169C8.74491 3.08812 8.28245 2.98483 7.8165 3.00176C7.35056 3.01869 6.89681 3.15527 6.49894 3.39836C6.33391 3.49135 6.20995 3.64307 6.15173 3.82333C6.13844 3.8804 6.13745 3.93965 6.14885 3.99714C6.16024 4.05462 6.18376 4.10902 6.21783 4.15671C6.30367 4.2485 6.40484 4.32464 6.5168 4.38171C6.2898 4.57436 6.12209 4.82744 6.03312 5.11157C5.98429 5.43296 5.9903 5.76032 6.05091 6.0797C6.0759 6.34381 6.16133 6.73815 6.45946 6.78151C6.71015 6.7875 6.96059 6.76178 7.20483 6.70497C7.47056 6.66027 7.73919 6.63502 8.00859 6.62943C8.38823 6.63939 8.76474 6.73217 9.14467 6.73586C9.34532 6.73785 9.67921 6.75727 9.73897 6.48592C9.78627 6.22513 9.80662 5.96017 9.79972 5.69521L9.80021 5.6115Z" stroke="#C0C0C0" stroke-miterlimit="10" stroke-linecap="round" stroke-linejoin="round"/>
<path d="M12.3669 7.40001C12.7351 7.40001 13.0335 7.10154 13.0335 6.73335C13.0335 6.36516 12.7351 6.06668 12.3669 6.06668C11.9987 6.06668 11.7002 6.36516 11.7002 6.73335C11.7002 7.10154 11.9987 7.40001 12.3669 7.40001Z" fill="#C0C0C0"/>
<path d="M3.63395 3.93334C4.00214 3.93334 4.30062 3.63486 4.30062 3.26667C4.30062 2.89848 4.00214 2.60001 3.63395 2.60001C3.26576 2.60001 2.96729 2.89848 2.96729 3.26667C2.96729 3.63486 3.26576 3.93334 3.63395 3.93334Z" fill="#C0C0C0"/>
</svg>
