<svg width="16" height="16" viewBox="0 0 16 16" fill="none" xmlns="http://www.w3.org/2000/svg">
<path d="M5.66375 6.875L3.21125 6.875C2.86625 6.875 2.57825 6.7595 2.34725 6.5285C2.11625 6.2975 2.0005 6.00925 2 5.66375L2 3.21125C2 2.86625 2.11575 2.57825 2.34725 2.34725C2.57875 2.11625 2.867 2.0005 3.212 2L5.66375 2C6.00875 2 6.297 2.11575 6.5285 2.34725C6.76 2.57875 6.8755 2.867 6.875 3.212L6.875 5.66375C6.875 6.00875 6.7595 6.297 6.5285 6.5285C6.2975 6.76 6.00925 6.8755 5.66375 6.875ZM3.21125 6.125L5.66375 6.125C5.79825 6.125 5.90875 6.08175 5.99525 5.99525C6.08175 5.90875 6.125 5.79825 6.125 5.66375L6.125 3.21125C6.125 3.07675 6.08175 2.96625 5.99525 2.87975C5.90875 2.79325 5.79825 2.75 5.66375 2.75L3.21125 2.75C3.07675 2.75 2.96625 2.79325 2.87975 2.87975C2.79325 2.96625 2.75 3.077 2.75 3.212L2.75 5.66375C2.75 5.79825 2.79325 5.90875 2.87975 5.99525C2.96625 6.08175 3.077 6.125 3.212 6.125M5.66375 14H3.21125C2.86625 14 2.57825 13.8845 2.34725 13.6535C2.11625 13.4225 2.0005 13.134 2 12.788L2 10.337C2 9.9915 2.11575 9.70325 2.34725 9.47225C2.57875 9.24125 2.867 9.1255 3.212 9.125H5.66375C6.00875 9.125 6.297 9.24075 6.5285 9.47225C6.76 9.70375 6.8755 9.992 6.875 10.337V12.7887C6.875 13.1337 6.7595 13.422 6.5285 13.6535C6.2975 13.885 6.00925 14.0005 5.66375 14ZM3.21125 13.25H5.66375C5.79825 13.25 5.90875 13.2067 5.99525 13.1202C6.08175 13.0337 6.125 12.9232 6.125 12.7887V10.3362C6.125 10.2017 6.08175 10.0912 5.99525 10.0047C5.90875 9.91825 5.79825 9.875 5.66375 9.875H3.21125C3.07675 9.875 2.96625 9.91825 2.87975 10.0047C2.79325 10.0912 2.75 10.202 2.75 10.337L2.75 12.7887C2.75 12.9232 2.79325 13.0337 2.87975 13.1202C2.96625 13.2067 3.077 13.25 3.212 13.25M12.7887 6.875H10.3362C9.99125 6.875 9.70325 6.7595 9.47225 6.5285C9.24125 6.2975 9.1255 6.00925 9.125 5.66375V3.21125C9.125 2.86625 9.24075 2.57825 9.47225 2.34725C9.70375 2.11625 9.992 2.0005 10.337 2L12.7887 2C13.1337 2 13.422 2.11575 13.6535 2.34725C13.885 2.57875 14.0005 2.867 14 3.212V5.66375C14 6.00875 13.8845 6.297 13.6535 6.5285C13.4225 6.76 13.1347 6.8755 12.7887 6.875ZM10.3362 6.125H12.7887C12.9232 6.125 13.0337 6.08175 13.1202 5.99525C13.2067 5.90875 13.25 5.79825 13.25 5.66375V3.21125C13.25 3.07675 13.2067 2.96625 13.1202 2.87975C13.0337 2.79325 12.9232 2.75 12.7887 2.75L10.3362 2.75C10.2017 2.75 10.0912 2.79325 10.0047 2.87975C9.91825 2.96625 9.875 3.077 9.875 3.212V5.66375C9.875 5.79825 9.91825 5.90875 10.0047 5.99525C10.0912 6.08175 10.202 6.125 10.337 6.125M12.7887 14H10.3362C9.99125 14 9.70325 13.8845 9.47225 13.6535C9.24125 13.4225 9.1255 13.134 9.125 12.788V10.337C9.125 9.9915 9.24075 9.70325 9.47225 9.47225C9.70375 9.24125 9.992 9.1255 10.337 9.125H12.7887C13.1337 9.125 13.422 9.24075 13.6535 9.47225C13.885 9.70375 14.0005 9.992 14 10.337V12.7887C14 13.1337 13.8845 13.422 13.6535 13.6535C13.4225 13.885 13.1347 14.0005 12.7887 14ZM10.3362 13.25H12.7887C12.9232 13.25 13.0337 13.2067 13.1202 13.1202C13.2067 13.0337 13.25 12.9232 13.25 12.7887V10.3362C13.25 10.2017 13.2067 10.0912 13.1202 10.0047C13.0337 9.91825 12.9232 9.875 12.7887 9.875H10.3362C10.2017 9.875 10.0912 9.91825 10.0047 10.0047C9.91825 10.0912 9.875 10.202 9.875 10.337V12.7887C9.875 12.9232 9.91825 13.0337 10.0047 13.1202C10.0912 13.2067 10.202 13.25 10.337 13.25" fill="#B6BCCB"/>
</svg>
