<svg width="17" height="16" viewBox="0 0 17 16" fill="none" xmlns="http://www.w3.org/2000/svg">
    <path
        d="M6.14714 12.4173C6.32519 12.8936 6.6478 13.3022 7.06976 13.5859C7.49171 13.8696 7.99184 14.0141 8.50008 13.9993C9.00831 14.0141 9.50845 13.8696 9.9304 13.5859C10.3523 13.3022 10.675 12.8936 10.853 12.4173M8.5 3.25986V1.99927M8.5 3.25986C9.60962 3.26497 10.6718 3.71045 11.4531 4.49839C12.2344 5.28632 12.6709 6.35224 12.6667 7.46187C12.6667 11.4117 13.5 12.084 13.5 12.084H3.5C3.5 12.084 4.33333 11.0083 4.33333 7.46184C4.32908 6.35222 4.76557 5.28631 5.54688 4.49838C6.32819 3.71045 7.39038 3.26497 8.5 3.25986Z"
        stroke="#FFB700" stroke-linecap="round" stroke-linejoin="round" />
</svg>
