<svg width="24" height="24" viewBox="0 0 24 24" fill="none" xmlns="http://www.w3.org/2000/svg">
    <rect width="24" height="24" rx="12" fill="#FF6A00" />
    <path
        d="M7.43333 12.1667H5.5M7.43333 8.16667H5.5M7.43333 16.1667H5.5M15.2334 8.7666V10.9666C15.2334 11.3666 14.7667 11.6999 14.2334 11.6999C13.7 11.6999 13.2334 11.3666 13.2334 10.9666V8.7666M14.2334 11.7666V15.4999M10.3 11.7666V15.4999M16.1667 18.8333H7.76668C7.03335 18.8333 6.43335 18.2333 6.43335 17.5V6.83333C6.43335 6.1 7.03335 5.5 7.76668 5.5H16.1C16.8334 5.5 17.4333 6.1 17.4333 6.83333V17.5C17.5 18.2333 16.9 18.8333 16.1667 18.8333ZM11.4333 10.2333C11.4333 11.0433 10.9259 11.6999 10.3 11.6999C9.67408 11.6999 9.16667 11.0433 9.16667 10.2333C9.16667 9.42325 9.67408 8.7666 10.3 8.7666C10.9259 8.7666 11.4333 9.42325 11.4333 10.2333Z"
        stroke="white" stroke-miterlimit="10" stroke-linecap="round" stroke-linejoin="round" />
</svg>
