<svg width="14" height="14" viewBox="0 0 14 14" fill="none" xmlns="http://www.w3.org/2000/svg">
<path d="M9.53333 6.13331C8.93333 5.39998 8.06667 4.93331 7 4.93331C6 4.93331 5.13333 5.39998 4.53333 6.13331M6.06667 12.6666C5.46667 11.9333 4.6 11.4666 3.53333 11.4666C2.53333 11.4666 1.6 11.9333 1 12.6666M13 12.6666C12.4 11.9333 11.5333 11.4666 10.4667 11.4666C9.46667 11.4666 8.53333 11.9333 7.93333 12.6666M8.86667 3.13331C8.86667 4.12743 8.06078 4.93331 7.06667 4.93331C6.07255 4.93331 5.26667 4.12743 5.26667 3.13331C5.26667 2.1392 6.07255 1.33331 7.06667 1.33331C8.06078 1.33331 8.86667 2.1392 8.86667 3.13331ZM5.33333 9.59998C5.33333 10.5941 4.52745 11.4 3.53333 11.4C2.53922 11.4 1.73333 10.5941 1.73333 9.59998C1.73333 8.60587 2.53922 7.79998 3.53333 7.79998C4.52745 7.79998 5.33333 8.60587 5.33333 9.59998ZM12.3333 9.59998C12.3333 10.5941 11.5274 11.4 10.5333 11.4C9.53922 11.4 8.73333 10.5941 8.73333 9.59998C8.73333 8.60587 9.53922 7.79998 10.5333 7.79998C11.5274 7.79998 12.3333 8.60587 12.3333 9.59998Z" stroke="#C0C0C0" stroke-miterlimit="10" stroke-linecap="round" stroke-linejoin="round"/>
</svg>
