<svg width="24" height="24" viewBox="0 0 24 24" fill="none" xmlns="http://www.w3.org/2000/svg">
    <path
        d="M9.08942 17.1943C9.30787 16.9031 9.72097 16.8441 10.0123 17.0625C10.3034 17.281 10.3624 17.6941 10.1441 17.9854L7.04938 22.1113C6.83082 22.4023 6.41771 22.4616 6.12653 22.2432C5.83536 22.0247 5.7773 21.6116 5.99567 21.3203L9.08942 17.1943ZM11.6783 7.64648C11.7085 7.64642 11.7384 7.6493 11.7681 7.65332C11.7749 7.65423 11.7819 7.65414 11.7886 7.65527C11.7946 7.65626 11.8003 7.65804 11.8062 7.65918C11.8391 7.66562 11.8713 7.67516 11.9029 7.68652C11.9131 7.6902 11.9232 7.69409 11.9332 7.69824C11.9658 7.71182 11.9977 7.72731 12.0279 7.74609C12.0337 7.74968 12.0389 7.75406 12.0445 7.75781C12.0703 7.77495 12.0943 7.79454 12.1177 7.81543C12.1245 7.82145 12.1318 7.82673 12.1382 7.83301C12.1407 7.83541 12.1436 7.8374 12.1461 7.83984L15.1304 10.8242L18.0777 11.8066C18.4229 11.9219 18.6087 12.2953 18.4937 12.6406C18.3785 12.9858 18.006 13.1725 17.6607 13.0576L14.566 12.0264L14.4605 11.9805C14.4271 11.9625 14.3955 11.9414 14.3658 11.918L14.3082 11.8672L12.1187 9.67773L11.3541 14.2686L14.2086 17.123C14.2587 17.1731 14.3009 17.2316 14.3326 17.2949L16.3951 21.4209C16.5578 21.7464 16.4264 22.1417 16.1011 22.3047C15.7754 22.4675 15.3782 22.3364 15.2154 22.0107L13.1998 17.9795L10.1822 14.9609C10.0319 14.8105 9.96276 14.5965 9.99762 14.3867L10.8638 9.18848L7.95953 9.91602L6.03961 12.7979C5.83764 13.1008 5.42851 13.1824 5.12555 12.9805C4.82261 12.7785 4.74008 12.3694 4.94196 12.0664L7.00543 8.97168L7.0816 8.87695C7.16643 8.79001 7.27473 8.72711 7.3941 8.69727L11.5142 7.66797C11.5293 7.66404 11.5447 7.66205 11.5601 7.65918L11.6041 7.65137C11.6134 7.65029 11.6231 7.65009 11.6324 7.64941C11.6399 7.64887 11.6473 7.64677 11.6548 7.64648H11.6783ZM12.647 2.375C13.6082 2.37508 14.387 3.15414 14.3873 4.11523C14.3873 5.07651 13.6083 5.85637 12.647 5.85645C11.6857 5.85645 10.9058 5.07656 10.9058 4.11523C10.906 3.15409 11.6858 2.375 12.647 2.375Z"
        fill="#FFFFFF" />
</svg>