<svg width="24" height="24" viewBox="0 0 24 24" fill="none" xmlns="http://www.w3.org/2000/svg">
    <path fill-rule="evenodd" clip-rule="evenodd"
        d="M14.9375 20.4129C16.6375 21.4129 18.6375 21.2129 20.0375 19.8129L20.7375 19.1129C21.1375 18.7129 21.1375 18.1129 20.7375 17.8129L17.9375 15.0129C17.5375 14.6129 16.9375 14.6129 16.6375 15.0129C15.8375 15.8129 14.3375 15.8129 13.5375 15.0129L8.93745 10.6129C8.13745 9.71289 8.13745 8.31289 8.93745 7.41289C9.13745 7.31289 9.23745 7.01289 9.23745 6.81289C9.23745 6.51289 9.13745 6.31289 8.93745 6.11289L6.13745 3.31289C5.83745 3.01289 5.23745 3.01289 4.83745 3.31289L4.23745 4.01289C2.83745 5.41289 2.63745 7.51289 3.63745 9.11289C6.63745 13.6129 10.4375 17.4129 14.9375 20.4129Z"
        stroke="#C0C0C0" stroke-width="1.5" stroke-miterlimit="10" stroke-linecap="round" stroke-linejoin="round" />
</svg>
