<svg width="16" height="16" viewBox="0 0 16 16" fill="none" xmlns="http://www.w3.org/2000/svg">
<path d="M12.0133 8.39643L10.1667 7.07718V5.60469L11.6467 4.61859C11.9733 4.39871 12.1667 4.03892 12.1667 3.64581V3.33266C12.1667 2.69302 11.64 2.16666 11 2.16666H5C4.36 2.16666 3.83333 2.69302 3.83333 3.33266V3.64581C3.83333 4.03892 4.02667 4.39871 4.35333 4.61859L5.83333 5.60469V7.07718L3.98667 8.39643C3.68 8.6163 3.5 8.96944 3.5 9.34256C3.5 9.98219 4.02 10.5019 4.66 10.5019H7.5V13.3336C7.5 13.6068 7.72667 13.8333 8 13.8333C8.27333 13.8333 8.5 13.6068 8.5 13.3336V10.5019H11.34C11.98 10.5019 12.5 9.98219 12.5 9.34256C12.5 8.96944 12.32 8.6163 12.0133 8.39643Z" fill="#41D3BD"/>
</svg>
