<svg width="24" height="24" viewBox="0 0 24 24" fill="none" xmlns="http://www.w3.org/2000/svg">
<g id="place-setting">
<path id="Vector" d="M5.03955 3.74993L5.03955 8.34993C5.03955 9.24993 4.33955 9.84993 3.53955 9.84993M3.53955 9.84993C2.73955 9.84993 2.03955 9.14993 2.03955 8.34993L2.03955 3.74993M3.53955 9.84993L3.53955 20.3499M19.2396 13.9499H21.9396C21.9396 13.9499 22.3396 5.04993 19.6396 3.74993C19.4396 3.64993 19.2396 3.84993 19.2396 4.04993L19.2396 20.2499M6.63955 15.9499C7.93955 17.3499 9.83955 18.2499 12.0396 18.2499C13.9396 18.2499 15.7396 17.4499 17.0396 16.2499M16.8396 7.44993C15.6396 6.14993 13.9396 5.34993 12.0396 5.34993C10.1396 5.34993 8.33955 6.14993 7.23955 7.44993" stroke="#C0C0C0" stroke-width="1.5" stroke-miterlimit="10" stroke-linecap="round" stroke-linejoin="round"/>
</g>
</svg>
