<svg width="16" height="16" viewBox="0 0 16 16" fill="none" xmlns="http://www.w3.org/2000/svg">
<path d="M3.35974 2.49996V5.56662C3.35974 6.16662 2.89307 6.56662 2.35974 6.56662M2.35974 6.56662C1.82641 6.56662 1.35974 6.09996 1.35974 5.56662V2.49996M2.35974 6.56662V13.5666M12.8264 9.29996H14.6264C14.6264 9.29996 14.8931 3.36662 13.0931 2.49996C12.9597 2.43329 12.8264 2.56662 12.8264 2.69996V13.5M4.42641 10.6333C5.29307 11.5666 6.55974 12.1666 8.02641 12.1666C9.29307 12.1666 10.4931 11.6333 11.3597 10.8333M11.2264 4.96662C10.4264 4.09996 9.29307 3.56662 8.02641 3.56662C6.75974 3.56662 5.55974 4.09996 4.82641 4.96662" stroke="#41D3BD" stroke-width="1.5" stroke-miterlimit="10" stroke-linecap="round" stroke-linejoin="round"/>
</svg>
