<svg width="30" height="30" viewBox="0 0 30 30" fill="none" xmlns="http://www.w3.org/2000/svg">
    <path
        d="M15.75 9.75C15.75 9.33579 15.4142 9 15 9C14.5858 9 14.25 9.33579 14.25 9.75H15.75ZM14.25 20.25C14.25 20.6642 14.5858 21 15 21C15.4142 21 15.75 20.6642 15.75 20.25H14.25ZM20.25 15.75C20.6642 15.75 21 15.4142 21 15C21 14.5858 20.6642 14.25 20.25 14.25V15.75ZM9.75 14.25C9.33579 14.25 9 14.5858 9 15C9 15.4142 9.33579 15.75 9.75 15.75V14.25ZM27.75 15C27.75 22.0416 22.0416 27.75 15 27.75V29.25C22.8701 29.25 29.25 22.8701 29.25 15H27.75ZM15 27.75C7.95837 27.75 2.25 22.0416 2.25 15H0.75C0.75 22.8701 7.12994 29.25 15 29.25V27.75ZM2.25 15C2.25 7.95837 7.95837 2.25 15 2.25V0.75C7.12994 0.75 0.75 7.12994 0.75 15H2.25ZM15 2.25C22.0416 2.25 27.75 7.95837 27.75 15H29.25C29.25 7.12994 22.8701 0.75 15 0.75V2.25ZM14.25 9.75V20.25H15.75V9.75H14.25ZM20.25 14.25H9.75V15.75H20.25V14.25Z"
        fill="white" />
</svg>
