<svg width="16" height="17" viewBox="0 0 16 17" fill="none" xmlns="http://www.w3.org/2000/svg">
<path d="M7.98657 5.70968V8.79634L10.4939 10.9977M12.103 12.6619C11.4377 13.3384 10.6155 13.8399 9.70958 14.1219C8.80366 14.4039 7.84209 14.4577 6.91039 14.2783C5.97869 14.099 5.10574 13.6922 4.3692 13.0941C3.63266 12.496 3.05536 11.7252 2.68863 10.8501C2.32191 9.97504 2.17715 9.02291 2.26721 8.0784C2.35727 7.13388 2.67937 6.22627 3.20486 5.43628C3.73034 4.64629 4.44293 3.99842 5.27923 3.5503C6.11553 3.10217 7.04962 2.86768 7.99842 2.86768M10.1395 3.28314H10.1462M12.0696 4.55511H12.0762M13.2923 6.36544H13.299M13.7522 8.62486H13.7589M13.3372 10.7721H13.3439" stroke="#C0C0C0" stroke-linecap="round" stroke-linejoin="round"/>
</svg>
