<svg width="24" height="24" viewBox="0 0 24 24" fill="none" xmlns="http://www.w3.org/2000/svg">
<path d="M11.9794 7.62726V12.2573L15.7404 15.5593M18.154 18.0557C17.156 19.0703 15.9228 19.8226 14.5639 20.2456C13.205 20.6686 11.7626 20.7492 10.3651 20.4803C8.96754 20.2113 7.65813 19.6011 6.55331 18.7039C5.4485 17.8068 4.58255 16.6505 4.03246 15.3379C3.48238 14.0253 3.26523 12.5971 3.40032 11.1803C3.53542 9.76357 4.01856 8.40215 4.8068 7.21717C5.59503 6.03218 6.6639 5.06038 7.91835 4.38819C9.17281 3.716 10.5739 3.36426 11.9971 3.36426M15.2087 3.98746H15.2187M18.1039 5.89542H18.1139M19.938 8.6109H19.948M20.6278 12H20.6378M20.0054 15.2209H20.0154" stroke="white" stroke-width="1.5" stroke-linecap="round" stroke-linejoin="round"/>
</svg>
