<svg width="24" height="25" viewBox="0 0 24 25" fill="none" xmlns="http://www.w3.org/2000/svg">
<path d="M21.11 23.03L17.602 19.523C16.828 20.1463 15.9687 20.6317 15.024 20.979C14.0794 21.3263 13.0714 21.5 12 21.5C10.7547 21.5 9.58469 21.2637 8.49002 20.791C7.39536 20.3183 6.44302 19.6773 5.63302 18.868C4.82302 18.0587 4.18169 17.106 3.70902 16.01C3.23636 14.914 3.00002 13.744 3.00002 12.5C3.00002 11.428 3.17369 10.42 3.52102 9.47599C3.86836 8.53133 4.35369 7.67199 4.97702 6.89799L1.88702 3.80799L2.60002 3.09399L21.823 22.317L21.11 23.03ZM11 20.45V18.5C10.45 18.5 9.97936 18.3043 9.58802 17.913C9.19669 17.5217 9.00069 17.0507 9.00002 16.5V15.5L4.20002 10.7C4.15002 11 4.10436 11.3 4.06302 11.6C4.02169 11.9 4.00069 12.2 4.00002 12.5C4.00002 14.5167 4.66269 16.2833 5.98802 17.8C7.31336 19.3167 8.98402 20.2 11 20.45ZM19.62 17.302L18.88 16.564C19.2434 15.9473 19.521 15.298 19.713 14.616C19.905 13.934 20.0007 13.2307 20 12.506C20 10.856 19.549 9.35266 18.647 7.99599C17.745 6.63933 16.5294 5.66133 15 5.06199V5.49999C15 6.04999 14.8044 6.52099 14.413 6.91299C14.0217 7.30499 13.5507 7.50066 13 7.49999H11V8.68299L7.19802 4.87999C7.89536 4.43999 8.64669 4.09999 9.45202 3.85999C10.2574 3.61999 11.1067 3.49999 12 3.49999C13.2454 3.49999 14.4154 3.73633 15.51 4.20899C16.6047 4.68166 17.5574 5.32299 18.368 6.13299C19.1787 6.94299 19.8194 7.89533 20.29 8.98999C20.7607 10.0847 20.9974 11.2547 21 12.5C21 13.3933 20.88 14.2427 20.64 15.048C20.3994 15.8533 20.0594 16.6047 19.62 17.302Z" fill="#B6BCCB"/>
</svg>
