<svg width="24" height="25" viewBox="0 0 24 25" fill="none" xmlns="http://www.w3.org/2000/svg">
<path d="M12.003 21.5C10.759 21.5 9.589 21.264 8.493 20.792C7.39767 20.3193 6.44467 19.678 5.634 18.868C4.82333 18.058 4.18167 17.106 3.709 16.012C3.23633 14.918 3 13.7483 3 12.503C3 11.2577 3.23633 10.0877 3.709 8.993C4.181 7.89767 4.82133 6.94467 5.63 6.134C6.43867 5.32333 7.391 4.68167 8.487 4.209C9.583 3.73633 10.753 3.5 11.997 3.5C13.241 3.5 14.411 3.73633 15.507 4.209C16.6023 4.681 17.5553 5.32167 18.366 6.131C19.1767 6.94033 19.8183 7.89267 20.291 8.988C20.7637 10.0833 21 11.253 21 12.497C21 13.741 20.764 14.911 20.292 16.007C19.82 17.103 19.1787 18.056 18.368 18.866C17.5573 19.676 16.6053 20.3177 15.512 20.791C14.4187 21.2643 13.249 21.5007 12.003 21.5ZM11 20.45V18.5C10.45 18.5 9.97933 18.3043 9.588 17.913C9.19667 17.5217 9.00067 17.0507 9 16.5V15.5L4.2 10.7C4.15 11 4.10433 11.3 4.063 11.6C4.02167 11.9 4.00067 12.2 4 12.5C4 14.5167 4.66267 16.2833 5.988 17.8C7.31333 19.3167 8.984 20.2 11 20.45ZM17.9 17.9C18.5833 17.15 19.1043 16.3127 19.463 15.388C19.8217 14.4633 20.0007 13.4983 20 12.493C20 10.8517 19.549 9.35267 18.647 7.996C17.745 6.63933 16.5293 5.66133 15 5.062V5.5C15 6.05 14.8043 6.521 14.413 6.913C14.0217 7.305 13.5507 7.50067 13 7.5H11V9.5C11 9.78333 10.904 10.021 10.712 10.213C10.52 10.405 10.2827 10.5007 10 10.5H8V12.5H14C14.2833 12.5 14.521 12.596 14.713 12.788C14.905 12.98 15.0007 13.2173 15 13.5V16.5H16C16.4333 16.5 16.825 16.6293 17.175 16.888C17.525 17.1467 17.7667 17.484 17.9 17.9Z" fill="#B6BCCB"/>
</svg>
