<svg width="24" height="24" viewBox="0 0 24 24" fill="none" xmlns="http://www.w3.org/2000/svg">
    <path
        d="M7.77099 9.00282C8.1702 8.89233 8.40424 8.47913 8.29375 8.07993C8.18326 7.68073 7.77006 7.44668 7.37086 7.55717L7.77099 9.00282ZM3.71593 9.34699L2.9931 9.54706C3.1036 9.94626 3.51679 10.1803 3.91599 10.0698L3.71593 9.34699ZM3.37175 5.29193C3.26126 4.89272 2.84806 4.65868 2.44886 4.76917C2.04966 4.87966 1.81561 5.29286 1.9261 5.69206L3.37175 5.29193ZM3.08938 8.9462C2.95973 9.3396 3.17354 9.76361 3.56694 9.89327C3.96034 10.0229 4.38436 9.80911 4.51401 9.41571L3.08938 8.9462ZM5.39685 16.4402C5.17389 16.0912 4.71015 15.9889 4.36107 16.2119C4.01198 16.4349 3.90975 16.8986 4.13272 17.2477L5.39685 16.4402ZM7.37086 7.55717L3.51586 8.62417L3.91599 10.0698L7.77099 9.00282L7.37086 7.55717ZM4.43875 9.14693L3.37175 5.29193L1.9261 5.69206L2.9931 9.54706L4.43875 9.14693ZM4.51401 9.41571C5.10032 7.6367 6.27448 6.1101 7.84346 5.08689L7.02408 3.83046C5.16988 5.03968 3.78228 6.84378 3.08938 8.9462L4.51401 9.41571ZM7.84346 5.08689C9.41244 4.06369 11.2829 3.60475 13.1473 3.78555L13.292 2.29255C11.0887 2.07889 8.87828 2.62125 7.02408 3.83046L7.84346 5.08689ZM13.1473 3.78555C15.0117 3.96634 16.7591 4.77609 18.1022 6.08169L19.1477 5.0061C17.5604 3.46316 15.4954 2.5062 13.292 2.29255L13.1473 3.78555ZM18.1022 6.08169C19.4454 7.38729 20.3044 9.11103 20.5379 10.9696L22.0262 10.7825C21.7502 8.58613 20.7351 6.54904 19.1477 5.0061L18.1022 6.08169ZM20.5379 10.9696C20.7715 12.8281 20.3658 14.7108 19.3875 16.3081L20.6667 17.0916C21.8228 15.2038 22.3023 12.9789 22.0262 10.7825L20.5379 10.9696ZM19.3875 16.3081C18.4092 17.9055 16.9165 19.1225 15.1548 19.759L15.6645 21.1697C17.7465 20.4175 19.5105 18.9793 20.6667 17.0916L19.3875 16.3081ZM15.1548 19.759C13.3931 20.3955 11.4673 20.4137 9.69394 19.8105L9.21095 21.2307C11.3067 21.9434 13.5826 21.9219 15.6645 21.1697L15.1548 19.759ZM9.69394 19.8105C7.92056 19.2074 6.40515 18.0188 5.39685 16.4402L4.13272 17.2477C5.32431 19.1132 7.11519 20.5179 9.21095 21.2307L9.69394 19.8105Z"
        fill="#9AA6DB" />
</svg>
