<svg width="20" height="20" viewBox="0 0 20 20" fill="none" xmlns="http://www.w3.org/2000/svg">
<path fill-rule="evenodd" clip-rule="evenodd" d="M19.75 10C19.75 15.3848 15.3848 19.75 10 19.75C4.61522 19.75 0.25 15.3848 0.25 10C0.25 4.61522 4.61522 0.25 10 0.25C15.3848 0.25 19.75 4.61522 19.75 10ZM10.7488 6.50153C10.7488 6.08731 10.413 5.75153 9.99878 5.75153C9.58457 5.75153 9.24878 6.08731 9.24878 6.50153V9.25153H6.49878C6.08457 9.25153 5.74878 9.58731 5.74878 10.0015C5.74878 10.4157 6.08457 10.7515 6.49878 10.7515H9.24878V13.5015C9.24878 13.9157 9.58457 14.2515 9.99878 14.2515C10.413 14.2515 10.7488 13.9157 10.7488 13.5015V10.7515H13.4988C13.913 10.7515 14.2488 10.4157 14.2488 10.0015C14.2488 9.58731 13.913 9.25153 13.4988 9.25153H10.7488V6.50153Z" fill="#9AA6DB"/>
</svg>
