<svg width="20" height="20" viewBox="0 0 20 20" fill="none" xmlns="http://www.w3.org/2000/svg">
<path d="M7.78033 6.72107C7.48744 6.42818 7.01256 6.42818 6.71967 6.72107C6.42678 7.01397 6.42678 7.48884 6.71967 7.78173L7.78033 6.72107ZM12.2197 13.2817C12.5126 13.5746 12.9874 13.5746 13.2803 13.2817C13.5732 12.9888 13.5732 12.514 13.2803 12.2211L12.2197 13.2817ZM13.2803 7.78173C13.5732 7.48884 13.5732 7.01397 13.2803 6.72107C12.9874 6.42818 12.5126 6.42818 12.2197 6.72107L13.2803 7.78173ZM6.71967 12.2211C6.42678 12.514 6.42678 12.9888 6.71967 13.2817C7.01256 13.5746 7.48744 13.5746 7.78033 13.2817L6.71967 12.2211ZM6.71967 7.78173L12.2197 13.2817L13.2803 12.2211L7.78033 6.72107L6.71967 7.78173ZM12.2197 6.72107L6.71967 12.2211L7.78033 13.2817L13.2803 7.78173L12.2197 6.72107ZM18.25 10C18.25 14.5563 14.5563 18.25 10 18.25V19.75C15.3848 19.75 19.75 15.3848 19.75 10H18.25ZM10 18.25C5.44365 18.25 1.75 14.5563 1.75 10H0.25C0.25 15.3848 4.61522 19.75 10 19.75V18.25ZM1.75 10C1.75 5.44365 5.44365 1.75 10 1.75V0.25C4.61522 0.25 0.25 4.61522 0.25 10H1.75ZM10 1.75C14.5563 1.75 18.25 5.44365 18.25 10H19.75C19.75 4.61522 15.3848 0.25 10 0.25V1.75Z" fill="#C0C0C0"/>
</svg>
