<svg width="24" height="25" viewBox="0 0 24 25" fill="none" xmlns="http://www.w3.org/2000/svg">
<path d="M20.5265 4.20303L20.6287 4.23226C20.7033 4.26117 20.7711 4.30517 20.8279 4.36149C20.8847 4.41781 20.9293 4.48525 20.9589 4.55958C20.9884 4.63392 21.0023 4.71355 20.9997 4.79351C20.9971 4.87346 20.978 4.95201 20.9436 5.02426L13.5982 20.4744C13.5499 20.5759 13.4733 20.6613 13.3775 20.7201C13.2818 20.779 13.171 20.8088 13.0587 20.8061C13.0377 20.8057 13.0167 20.804 12.9959 20.8012C12.895 20.7876 12.7994 20.7476 12.7187 20.6853C12.638 20.6231 12.5751 20.5407 12.5363 20.4465L10.3784 12.5523L20.8129 4.47328L10.3784 12.5524L3.22434 8.26597C3.13562 8.19689 3.06882 8.10359 3.03203 7.99734C2.99523 7.8911 2.99002 7.77647 3.01702 7.66732C3.04402 7.55817 3.10207 7.45919 3.18415 7.38235C3.26624 7.30551 3.36883 7.25411 3.47952 7.23437L20.3153 4.20206C20.4205 4.18312 20.529 4.19357 20.6287 4.23226L20.5265 4.20303Z" stroke="white" stroke-width="1.5" stroke-linecap="round" stroke-linejoin="round"/>
</svg>
