<svg width="24" height="24" viewBox="0 0 24 24" fill="none" xmlns="http://www.w3.org/2000/svg">
<path d="M14.658 7.57191L18.5568 6.90104L17.9853 3.01344M18.1815 6.65782C15.5112 3.54176 11.0836 2.64412 7.44901 4.55201C3.81446 6.4599 0.543277 11.9902 4.20649 17.7201" stroke="#C0C0C0" stroke-width="1.5" stroke-miterlimit="10" stroke-linecap="round" stroke-linejoin="round"/>
<path d="M7.34375 19.5453L6.61525 19.367C6.5605 19.5907 6.61156 19.8271 6.75374 20.0083C6.89592 20.1895 7.11345 20.2953 7.34375 20.2953V19.5453ZM14.6303 19.5453V20.2953C14.8457 20.2953 15.0508 20.2026 15.1932 20.0409C15.3356 19.8792 15.4015 19.664 15.3742 19.4503L14.6303 19.5453ZM21.3438 14.4544V15.2044C21.758 15.2044 22.0937 14.8686 22.0937 14.4544H21.3438ZM14.9253 14.4544H14.1753C14.1753 14.8686 14.5111 15.2044 14.9253 15.2044V14.4544ZM18.8845 9.99988C18.8845 9.58567 18.5487 9.24988 18.1345 9.24988C17.7203 9.24988 17.3845 9.58567 17.3845 9.99988H18.8845ZM17.3845 10.4096C17.3845 10.8238 17.7203 11.1596 18.1345 11.1596C18.5487 11.1596 18.8845 10.8238 18.8845 10.4096H17.3845ZM12.3703 12.8635C12.3703 13.6861 11.7067 14.3408 10.9392 14.3408V15.8408C12.5645 15.8408 13.8703 14.4849 13.8703 12.8635H12.3703ZM10.9392 14.3408C10.1849 14.3408 9.53784 13.6997 9.53784 12.8635H8.03784C8.03784 14.4713 9.30076 15.8408 10.9392 15.8408V14.3408ZM9.53784 12.8635C9.53784 12.0273 10.1849 11.3862 10.9392 11.3862V9.88624C9.30076 9.88624 8.03784 11.2557 8.03784 12.8635H9.53784ZM10.9392 11.3862C11.7067 11.3862 12.3703 12.0409 12.3703 12.8635H13.8703C13.8703 11.2421 12.5645 9.88624 10.9392 9.88624V11.3862ZM8.07225 19.7236C8.26522 18.9351 8.55449 18.0977 9.02237 17.4696C9.46772 16.8717 10.0588 16.4771 10.9392 16.4771V14.9771C9.49692 14.9771 8.49081 15.6721 7.8194 16.5736C7.17052 17.4447 6.82343 18.5164 6.61525 19.367L8.07225 19.7236ZM10.9392 16.4771C12.531 16.4771 13.6695 17.9423 13.8863 19.6403L15.3742 19.4503C15.1097 17.3785 13.6111 14.9771 10.9392 14.9771V16.4771ZM21.3438 14.4544C21.3438 13.7044 21.3437 13.7044 21.3437 13.7044C21.3437 13.7044 21.3437 13.7044 21.3437 13.7044C21.3437 13.7044 21.3436 13.7044 21.3436 13.7044C21.3436 13.7044 21.3435 13.7044 21.3435 13.7044C21.3434 13.7044 21.3434 13.7044 21.3433 13.7044C21.3433 13.7044 21.3432 13.7044 21.3432 13.7044C21.3431 13.7044 21.343 13.7044 21.3429 13.7044C21.3429 13.7044 21.3428 13.7044 21.3427 13.7044C21.3426 13.7044 21.3425 13.7044 21.3424 13.7044C21.3423 13.7044 21.3422 13.7044 21.3421 13.7044C21.342 13.7044 21.3419 13.7044 21.3418 13.7044C21.3417 13.7044 21.3415 13.7044 21.3414 13.7044C21.3413 13.7044 21.3411 13.7044 21.341 13.7044C21.3408 13.7044 21.3407 13.7044 21.3405 13.7044C21.3404 13.7044 21.3402 13.7044 21.3401 13.7044C21.3399 13.7044 21.3397 13.7044 21.3396 13.7044C21.3394 13.7044 21.3392 13.7044 21.339 13.7044C21.3389 13.7044 21.3387 13.7044 21.3385 13.7044C21.3383 13.7044 21.3381 13.7044 21.3379 13.7044C21.3377 13.7044 21.3375 13.7044 21.3372 13.7044C21.337 13.7044 21.3368 13.7044 21.3366 13.7044C21.3363 13.7044 21.3361 13.7044 21.3359 13.7044C21.3356 13.7044 21.3354 13.7044 21.3352 13.7044C21.3349 13.7044 21.3347 13.7044 21.3344 13.7044C21.3341 13.7044 21.3339 13.7044 21.3336 13.7044C21.3333 13.7044 21.3331 13.7044 21.3328 13.7044C21.3325 13.7044 21.3322 13.7044 21.3319 13.7044C21.3316 13.7044 21.3313 13.7044 21.331 13.7044C21.3307 13.7044 21.3304 13.7044 21.3301 13.7044C21.3298 13.7044 21.3295 13.7044 21.3292 13.7044C21.3289 13.7044 21.3285 13.7044 21.3282 13.7044C21.3279 13.7044 21.3275 13.7044 21.3272 13.7044C21.3268 13.7044 21.3265 13.7044 21.3261 13.7044C21.3258 13.7044 21.3254 13.7044 21.3251 13.7044C21.3247 13.7044 21.3243 13.7044 21.324 13.7044C21.3236 13.7044 21.3232 13.7044 21.3228 13.7044C21.3224 13.7044 21.322 13.7044 21.3217 13.7044C21.3213 13.7044 21.3209 13.7044 21.3205 13.7044C21.3201 13.7044 21.3196 13.7044 21.3192 13.7044C21.3188 13.7044 21.3184 13.7044 21.318 13.7044C21.3175 13.7044 21.3171 13.7044 21.3167 13.7044C21.3162 13.7044 21.3158 13.7044 21.3154 13.7044C21.3149 13.7044 21.3145 13.7044 21.314 13.7044C21.3135 13.7044 21.3131 13.7044 21.3126 13.7044C21.3121 13.7044 21.3117 13.7044 21.3112 13.7044C21.3107 13.7044 21.3102 13.7044 21.3098 13.7044C21.3093 13.7044 21.3088 13.7044 21.3083 13.7044C21.3078 13.7044 21.3073 13.7044 21.3068 13.7044C21.3063 13.7044 21.3058 13.7044 21.3052 13.7044C21.3047 13.7044 21.3042 13.7044 21.3037 13.7044C21.3031 13.7044 21.3026 13.7044 21.3021 13.7044C21.3015 13.7044 21.301 13.7044 21.3004 13.7044C21.2999 13.7044 21.2993 13.7044 21.2988 13.7044C21.2982 13.7044 21.2977 13.7044 21.2971 13.7044C21.2965 13.7044 21.296 13.7044 21.2954 13.7044C21.2948 13.7044 21.2942 13.7044 21.2936 13.7044C21.293 13.7044 21.2924 13.7044 21.2918 13.7044C21.2912 13.7044 21.2906 13.7044 21.29 13.7044C21.2894 13.7044 21.2888 13.7044 21.2882 13.7044C21.2876 13.7044 21.287 13.7044 21.2863 13.7044C21.2857 13.7044 21.2851 13.7044 21.2844 13.7044C21.2838 13.7044 21.2831 13.7044 21.2825 13.7044C21.2818 13.7044 21.2812 13.7044 21.2805 13.7044C21.2799 13.7044 21.2792 13.7044 21.2786 13.7044C21.2779 13.7044 21.2772 13.7044 21.2765 13.7044C21.2759 13.7044 21.2752 13.7044 21.2745 13.7044C21.2738 13.7044 21.2731 13.7044 21.2724 13.7044C21.2717 13.7044 21.271 13.7044 21.2703 13.7044C21.2696 13.7044 21.2689 13.7044 21.2682 13.7044C21.2674 13.7044 21.2667 13.7044 21.266 13.7044C21.2653 13.7044 21.2645 13.7044 21.2638 13.7044C21.2631 13.7044 21.2623 13.7044 21.2616 13.7044C21.2608 13.7044 21.2601 13.7044 21.2593 13.7044C21.2586 13.7044 21.2578 13.7044 21.257 13.7044C21.2563 13.7044 21.2555 13.7044 21.2547 13.7044C21.2539 13.7044 21.2532 13.7044 21.2524 13.7044C21.2516 13.7044 21.2508 13.7044 21.25 13.7044C21.2492 13.7044 21.2484 13.7044 21.2476 13.7044C21.2468 13.7044 21.246 13.7044 21.2452 13.7044C21.2444 13.7044 21.2435 13.7044 21.2427 13.7044C21.2419 13.7044 21.2411 13.7044 21.2402 13.7044C21.2394 13.7044 21.2386 13.7044 21.2377 13.7044C21.2369 13.7044 21.236 13.7044 21.2352 13.7044C21.2343 13.7044 21.2335 13.7044 21.2326 13.7044C21.2317 13.7044 21.2309 13.7044 21.23 13.7044C21.2291 13.7044 21.2282 13.7044 21.2274 13.7044C21.2265 13.7044 21.2256 13.7044 21.2247 13.7044C21.2238 13.7044 21.2229 13.7044 21.222 13.7044C21.2211 13.7044 21.2202 13.7044 21.2193 13.7044C21.2184 13.7044 21.2175 13.7044 21.2165 13.7044C21.2156 13.7044 21.2147 13.7044 21.2138 13.7044C21.2128 13.7044 21.2119 13.7044 21.211 13.7044C21.21 13.7044 21.2091 13.7044 21.2081 13.7044C21.2072 13.7044 21.2062 13.7044 21.2053 13.7044C21.2043 13.7044 21.2034 13.7044 21.2024 13.7044C21.2014 13.7044 21.2004 13.7044 21.1995 13.7044C21.1985 13.7044 21.1975 13.7044 21.1965 13.7044C21.1955 13.7044 21.1945 13.7044 21.1936 13.7044C21.1926 13.7044 21.1916 13.7044 21.1906 13.7044C21.1895 13.7044 21.1885 13.7044 21.1875 13.7044C21.1865 13.7044 21.1855 13.7044 21.1845 13.7044C21.1834 13.7044 21.1824 13.7044 21.1814 13.7044C21.1804 13.7044 21.1793 13.7044 21.1783 13.7044C21.1772 13.7044 21.1762 13.7044 21.1751 13.7044C21.1741 13.7044 21.173 13.7044 21.172 13.7044C21.1709 13.7044 21.1698 13.7044 21.1688 13.7044C21.1677 13.7044 21.1666 13.7044 21.1655 13.7044C21.1645 13.7044 21.1634 13.7044 21.1623 13.7044C21.1612 13.7044 21.1601 13.7044 21.159 13.7044C21.1579 13.7044 21.1568 13.7044 21.1557 13.7044C21.1546 13.7044 21.1535 13.7044 21.1524 13.7044C21.1513 13.7044 21.1501 13.7044 21.149 13.7044C21.1479 13.7044 21.1468 13.7044 21.1456 13.7044C21.1445 13.7044 21.1434 13.7044 21.1422 13.7044C21.1411 13.7044 21.1399 13.7044 21.1388 13.7044C21.1376 13.7044 21.1365 13.7044 21.1353 13.7044C21.1341 13.7044 21.133 13.7044 21.1318 13.7044C21.1306 13.7044 21.1295 13.7044 21.1283 13.7044C21.1271 13.7044 21.1259 13.7044 21.1247 13.7044C21.1235 13.7044 21.1223 13.7044 21.1211 13.7044C21.12 13.7044 21.1187 13.7044 21.1175 13.7044C21.1163 13.7044 21.1151 13.7044 21.1139 13.7044C21.1127 13.7044 21.1115 13.7044 21.1103 13.7044C21.109 13.7044 21.1078 13.7044 21.1066 13.7044C21.1053 13.7044 21.1041 13.7044 21.1029 13.7044C21.1016 13.7044 21.1004 13.7044 21.0991 13.7044C21.0979 13.7044 21.0966 13.7044 21.0953 13.7044C21.0941 13.7044 21.0928 13.7044 21.0916 13.7044C21.0903 13.7044 21.089 13.7044 21.0877 13.7044C21.0865 13.7044 21.0852 13.7044 21.0839 13.7044C21.0826 13.7044 21.0813 13.7044 21.08 13.7044C21.0787 13.7044 21.0774 13.7044 21.0761 13.7044C21.0748 13.7044 21.0735 13.7044 21.0722 13.7044C21.0709 13.7044 21.0696 13.7044 21.0682 13.7044C21.0669 13.7044 21.0656 13.7044 21.0643 13.7044C21.0629 13.7044 21.0616 13.7044 21.0603 13.7044C21.0589 13.7044 21.0576 13.7044 21.0562 13.7044C21.0549 13.7044 21.0535 13.7044 21.0522 13.7044C21.0508 13.7044 21.0495 13.7044 21.0481 13.7044C21.0467 13.7044 21.0454 13.7044 21.044 13.7044C21.0426 13.7044 21.0412 13.7044 21.0398 13.7044C21.0385 13.7044 21.0371 13.7044 21.0357 13.7044C21.0343 13.7044 21.0329 13.7044 21.0315 13.7044C21.0301 13.7044 21.0287 13.7044 21.0273 13.7044C21.0259 13.7044 21.0245 13.7044 21.023 13.7044C21.0216 13.7044 21.0202 13.7044 21.0188 13.7044C21.0174 13.7044 21.0159 13.7044 21.0145 13.7044C21.0131 13.7044 21.0116 13.7044 21.0102 13.7044C21.0087 13.7044 21.0073 13.7044 21.0058 13.7044C21.0044 13.7044 21.0029 13.7044 21.0015 13.7044C21 13.7044 20.9985 13.7044 20.9971 13.7044C20.9956 13.7044 20.9941 13.7044 20.9927 13.7044C20.9912 13.7044 20.9897 13.7044 20.9882 13.7044C20.9867 13.7044 20.9852 13.7044 20.9838 13.7044C20.9823 13.7044 20.9808 13.7044 20.9793 13.7044C20.9778 13.7044 20.9763 13.7044 20.9747 13.7044C20.9732 13.7044 20.9717 13.7044 20.9702 13.7044C20.9687 13.7044 20.9672 13.7044 20.9656 13.7044C20.9641 13.7044 20.9626 13.7044 20.961 13.7044C20.9595 13.7044 20.958 13.7044 20.9564 13.7044C20.9549 13.7044 20.9533 13.7044 20.9518 13.7044C20.9502 13.7044 20.9487 13.7044 20.9471 13.7044C20.9455 13.7044 20.944 13.7044 20.9424 13.7044C20.9408 13.7044 20.9393 13.7044 20.9377 13.7044C20.9361 13.7044 20.9345 13.7044 20.9329 13.7044C20.9314 13.7044 20.9298 13.7044 20.9282 13.7044C20.9266 13.7044 20.925 13.7044 20.9234 13.7044C20.9218 13.7044 20.9202 13.7044 20.9186 13.7044C20.917 13.7044 20.9153 13.7044 20.9137 13.7044C20.9121 13.7044 20.9105 13.7044 20.9089 13.7044C20.9072 13.7044 20.9056 13.7044 20.904 13.7044C20.9023 13.7044 20.9007 13.7044 20.899 13.7044C20.8974 13.7044 20.8958 13.7044 20.8941 13.7044C20.8925 13.7044 20.8908 13.7044 20.8891 13.7044C20.8875 13.7044 20.8858 13.7044 20.8842 13.7044C20.8825 13.7044 20.8808 13.7044 20.8791 13.7044C20.8775 13.7044 20.8758 13.7044 20.8741 13.7044C20.8724 13.7044 20.8707 13.7044 20.869 13.7044C20.8673 13.7044 20.8657 13.7044 20.864 13.7044C20.8623 13.7044 20.8606 13.7044 20.8588 13.7044C20.8571 13.7044 20.8554 13.7044 20.8537 13.7044C20.852 13.7044 20.8503 13.7044 20.8486 13.7044C20.8468 13.7044 20.8451 13.7044 20.8434 13.7044C20.8416 13.7044 20.8399 13.7044 20.8382 13.7044C20.8364 13.7044 20.8347 13.7044 20.8329 13.7044C20.8312 13.7044 20.8294 13.7044 20.8277 13.7044C20.8259 13.7044 20.8242 13.7044 20.8224 13.7044C20.8206 13.7044 20.8189 13.7044 20.8171 13.7044C20.8153 13.7044 20.8136 13.7044 20.8118 13.7044C20.81 13.7044 20.8082 13.7044 20.8064 13.7044C20.8046 13.7044 20.8029 13.7044 20.8011 13.7044C20.7993 13.7044 20.7975 13.7044 20.7957 13.7044C20.7939 13.7044 20.7921 13.7044 20.7902 13.7044C20.7884 13.7044 20.7866 13.7044 20.7848 13.7044C20.783 13.7044 20.7812 13.7044 20.7793 13.7044C20.7775 13.7044 20.7757 13.7044 20.7739 13.7044C20.772 13.7044 20.7702 13.7044 20.7683 13.7044C20.7665 13.7044 20.7647 13.7044 20.7628 13.7044C20.761 13.7044 20.7591 13.7044 20.7572 13.7044C20.7554 13.7044 20.7535 13.7044 20.7517 13.7044C20.7498 13.7044 20.7479 13.7044 20.7461 13.7044C20.7442 13.7044 20.7423 13.7044 20.7404 13.7044C20.7386 13.7044 20.7367 13.7044 20.7348 13.7044C20.7329 13.7044 20.731 13.7044 20.7291 13.7044C20.7272 13.7044 20.7253 13.7044 20.7234 13.7044C20.7215 13.7044 20.7196 13.7044 20.7177 13.7044C20.7158 13.7044 20.7139 13.7044 20.712 13.7044C20.71 13.7044 20.7081 13.7044 20.7062 13.7044C20.7043 13.7044 20.7023 13.7044 20.7004 13.7044C20.6985 13.7044 20.6965 13.7044 20.6946 13.7044C20.6927 13.7044 20.6907 13.7044 20.6888 13.7044C20.6868 13.7044 20.6849 13.7044 20.6829 13.7044C20.681 13.7044 20.679 13.7044 20.677 13.7044C20.6751 13.7044 20.6731 13.7044 20.6711 13.7044C20.6692 13.7044 20.6672 13.7044 20.6652 13.7044C20.6632 13.7044 20.6613 13.7044 20.6593 13.7044C20.6573 13.7044 20.6553 13.7044 20.6533 13.7044C20.6513 13.7044 20.6493 13.7044 20.6473 13.7044C20.6453 13.7044 20.6433 13.7044 20.6413 13.7044C20.6393 13.7044 20.6373 13.7044 20.6353 13.7044C20.6333 13.7044 20.6312 13.7044 20.6292 13.7044C20.6272 13.7044 20.6252 13.7044 20.6231 13.7044C20.6211 13.7044 20.6191 13.7044 20.617 13.7044C20.615 13.7044 20.613 13.7044 20.6109 13.7044C20.6089 13.7044 20.6068 13.7044 20.6048 13.7044C20.6027 13.7044 20.6007 13.7044 20.5986 13.7044C20.5966 13.7044 20.5945 13.7044 20.5924 13.7044C20.5904 13.7044 20.5883 13.7044 20.5862 13.7044C20.5841 13.7044 20.5821 13.7044 20.58 13.7044C20.5779 13.7044 20.5758 13.7044 20.5737 13.7044C20.5717 13.7044 20.5696 13.7044 20.5675 13.7044C20.5654 13.7044 20.5633 13.7044 20.5612 13.7044C20.5591 13.7044 20.557 13.7044 20.5549 13.7044C20.5527 13.7044 20.5506 13.7044 20.5485 13.7044C20.5464 13.7044 20.5443 13.7044 20.5422 13.7044C20.54 13.7044 20.5379 13.7044 20.5358 13.7044C20.5337 13.7044 20.5315 13.7044 20.5294 13.7044C20.5272 13.7044 20.5251 13.7044 20.523 13.7044C20.5208 13.7044 20.5187 13.7044 20.5165 13.7044C20.5144 13.7044 20.5122 13.7044 20.5101 13.7044C20.5079 13.7044 20.5057 13.7044 20.5036 13.7044C20.5014 13.7044 20.4992 13.7044 20.4971 13.7044C20.4949 13.7044 20.4927 13.7044 20.4905 13.7044C20.4884 13.7044 20.4862 13.7044 20.484 13.7044C20.4818 13.7044 20.4796 13.7044 20.4774 13.7044C20.4752 13.7044 20.473 13.7044 20.4708 13.7044C20.4686 13.7044 20.4664 13.7044 20.4642 13.7044C20.462 13.7044 20.4598 13.7044 20.4576 13.7044C20.4554 13.7044 20.4532 13.7044 20.4509 13.7044C20.4487 13.7044 20.4465 13.7044 20.4443 13.7044C20.442 13.7044 20.4398 13.7044 20.4376 13.7044C20.4353 13.7044 20.4331 13.7044 20.4309 13.7044C20.4286 13.7044 20.4264 13.7044 20.4241 13.7044C20.4219 13.7044 20.4196 13.7044 20.4174 13.7044C20.4151 13.7044 20.4128 13.7044 20.4106 13.7044C20.4083 13.7044 20.4061 13.7044 20.4038 13.7044C20.4015 13.7044 20.3993 13.7044 20.397 13.7044C20.3947 13.7044 20.3924 13.7044 20.3901 13.7044C20.3879 13.7044 20.3856 13.7044 20.3833 13.7044C20.381 13.7044 20.3787 13.7044 20.3764 13.7044C20.3741 13.7044 20.3718 13.7044 20.3695 13.7044C20.3672 13.7044 20.3649 13.7044 20.3626 13.7044C20.3603 13.7044 20.358 13.7044 20.3557 13.7044C20.3533 13.7044 20.351 13.7044 20.3487 13.7044C20.3464 13.7044 20.3441 13.7044 20.3417 13.7044C20.3394 13.7044 20.3371 13.7044 20.3347 13.7044C20.3324 13.7044 20.3301 13.7044 20.3277 13.7044C20.3254 13.7044 20.323 13.7044 20.3207 13.7044C20.3183 13.7044 20.316 13.7044 20.3136 13.7044C20.3113 13.7044 20.3089 13.7044 20.3065 13.7044C20.3042 13.7044 20.3018 13.7044 20.2995 13.7044C20.2971 13.7044 20.2947 13.7044 20.2923 13.7044C20.29 13.7044 20.2876 13.7044 20.2852 13.7044C20.2828 13.7044 20.2804 13.7044 20.278 13.7044C20.2757 13.7044 20.2733 13.7044 20.2709 13.7044C20.2685 13.7044 20.2661 13.7044 20.2637 13.7044C20.2613 13.7044 20.2589 13.7044 20.2565 13.7044C20.2541 13.7044 20.2517 13.7044 20.2492 13.7044C20.2468 13.7044 20.2444 13.7044 20.242 13.7044C20.2396 13.7044 20.2372 13.7044 20.2347 13.7044C20.2323 13.7044 20.2299 13.7044 20.2274 13.7044C20.225 13.7044 20.2226 13.7044 20.2201 13.7044C20.2177 13.7044 20.2152 13.7044 20.2128 13.7044C20.2104 13.7044 20.2079 13.7044 20.2055 13.7044C20.203 13.7044 20.2006 13.7044 20.1981 13.7044C20.1956 13.7044 20.1932 13.7044 20.1907 13.7044C20.1882 13.7044 20.1858 13.7044 20.1833 13.7044C20.1808 13.7044 20.1784 13.7044 20.1759 13.7044C20.1734 13.7044 20.1709 13.7044 20.1685 13.7044C20.166 13.7044 20.1635 13.7044 20.161 13.7044C20.1585 13.7044 20.156 13.7044 20.1535 13.7044C20.151 13.7044 20.1485 13.7044 20.146 13.7044C20.1435 13.7044 20.141 13.7044 20.1385 13.7044C20.136 13.7044 20.1335 13.7044 20.131 13.7044C20.1285 13.7044 20.1259 13.7044 20.1234 13.7044C20.1209 13.7044 20.1184 13.7044 20.1159 13.7044C20.1133 13.7044 20.1108 13.7044 20.1083 13.7044C20.1057 13.7044 20.1032 13.7044 20.1007 13.7044C20.0981 13.7044 20.0956 13.7044 20.093 13.7044C20.0905 13.7044 20.088 13.7044 20.0854 13.7044C20.0829 13.7044 20.0803 13.7044 20.0777 13.7044C20.0752 13.7044 20.0726 13.7044 20.0701 13.7044C20.0675 13.7044 20.0649 13.7044 20.0624 13.7044C20.0598 13.7044 20.0572 13.7044 20.0547 13.7044C20.0521 13.7044 20.0495 13.7044 20.0469 13.7044C20.0443 13.7044 20.0418 13.7044 20.0392 13.7044C20.0366 13.7044 20.034 13.7044 20.0314 13.7044C20.0288 13.7044 20.0262 13.7044 20.0236 13.7044C20.021 13.7044 20.0184 13.7044 20.0158 13.7044C20.0132 13.7044 20.0106 13.7044 20.008 13.7044C20.0054 13.7044 20.0028 13.7044 20.0002 13.7044C19.9975 13.7044 19.9949 13.7044 19.9923 13.7044C19.9897 13.7044 19.9871 13.7044 19.9844 13.7044C19.9818 13.7044 19.9792 13.7044 19.9765 13.7044C19.9739 13.7044 19.9713 13.7044 19.9686 13.7044C19.966 13.7044 19.9634 13.7044 19.9607 13.7044C19.9581 13.7044 19.9554 13.7044 19.9528 13.7044C19.9501 13.7044 19.9475 13.7044 19.9448 13.7044C19.9422 13.7044 19.9395 13.7044 19.9368 13.7044C19.9342 13.7044 19.9315 13.7044 19.9288 13.7044C19.9262 13.7044 19.9235 13.7044 19.9208 13.7044C19.9181 13.7044 19.9155 13.7044 19.9128 13.7044C19.9101 13.7044 19.9074 13.7044 19.9047 13.7044C19.9021 13.7044 19.8994 13.7044 19.8967 13.7044C19.894 13.7044 19.8913 13.7044 19.8886 13.7044C19.8859 13.7044 19.8832 13.7044 19.8805 13.7044C19.8778 13.7044 19.8751 13.7044 19.8724 13.7044C19.8697 13.7044 19.867 13.7044 19.8643 13.7044C19.8616 13.7044 19.8588 13.7044 19.8561 13.7044C19.8534 13.7044 19.8507 13.7044 19.848 13.7044C19.8452 13.7044 19.8425 13.7044 19.8398 13.7044C19.837 13.7044 19.8343 13.7044 19.8316 13.7044C19.8288 13.7044 19.8261 13.7044 19.8234 13.7044C19.8206 13.7044 19.8179 13.7044 19.8151 13.7044C19.8124 13.7044 19.8096 13.7044 19.8069 13.7044C19.8041 13.7044 19.8014 13.7044 19.7986 13.7044C19.7959 13.7044 19.7931 13.7044 19.7903 13.7044C19.7876 13.7044 19.7848 13.7044 19.7821 13.7044C19.7793 13.7044 19.7765 13.7044 19.7737 13.7044C19.771 13.7044 19.7682 13.7044 19.7654 13.7044C19.7626 13.7044 19.7599 13.7044 19.7571 13.7044C19.7543 13.7044 19.7515 13.7044 19.7487 13.7044C19.7459 13.7044 19.7431 13.7044 19.7403 13.7044C19.7375 13.7044 19.7347 13.7044 19.7319 13.7044C19.7291 13.7044 19.7263 13.7044 19.7235 13.7044C19.7207 13.7044 19.7179 13.7044 19.7151 13.7044C19.7123 13.7044 19.7095 13.7044 19.7067 13.7044C19.7039 13.7044 19.701 13.7044 19.6982 13.7044C19.6954 13.7044 19.6926 13.7044 19.6897 13.7044C19.6869 13.7044 19.6841 13.7044 19.6813 13.7044C19.6784 13.7044 19.6756 13.7044 19.6728 13.7044C19.6699 13.7044 19.6671 13.7044 19.6642 13.7044C19.6614 13.7044 19.6585 13.7044 19.6557 13.7044C19.6529 13.7044 19.65 13.7044 19.6472 13.7044C19.6443 13.7044 19.6414 13.7044 19.6386 13.7044C19.6357 13.7044 19.6329 13.7044 19.63 13.7044C19.6271 13.7044 19.6243 13.7044 19.6214 13.7044C19.6185 13.7044 19.6157 13.7044 19.6128 13.7044C19.6099 13.7044 19.607 13.7044 19.6042 13.7044C19.6013 13.7044 19.5984 13.7044 19.5955 13.7044C19.5926 13.7044 19.5898 13.7044 19.5869 13.7044C19.584 13.7044 19.5811 13.7044 19.5782 13.7044C19.5753 13.7044 19.5724 13.7044 19.5695 13.7044C19.5666 13.7044 19.5637 13.7044 19.5608 13.7044C19.5579 13.7044 19.555 13.7044 19.5521 13.7044C19.5492 13.7044 19.5463 13.7044 19.5434 13.7044C19.5405 13.7044 19.5375 13.7044 19.5346 13.7044C19.5317 13.7044 19.5288 13.7044 19.5259 13.7044C19.5229 13.7044 19.52 13.7044 19.5171 13.7044C19.5142 13.7044 19.5112 13.7044 19.5083 13.7044C19.5054 13.7044 19.5024 13.7044 19.4995 13.7044C19.4965 13.7044 19.4936 13.7044 19.4907 13.7044C19.4877 13.7044 19.4848 13.7044 19.4818 13.7044C19.4789 13.7044 19.4759 13.7044 19.473 13.7044C19.47 13.7044 19.4671 13.7044 19.4641 13.7044C19.4612 13.7044 19.4582 13.7044 19.4552 13.7044C19.4523 13.7044 19.4493 13.7044 19.4463 13.7044C19.4434 13.7044 19.4404 13.7044 19.4374 13.7044C19.4345 13.7044 19.4315 13.7044 19.4285 13.7044C19.4255 13.7044 19.4226 13.7044 19.4196 13.7044C19.4166 13.7044 19.4136 13.7044 19.4106 13.7044C19.4076 13.7044 19.4047 13.7044 19.4017 13.7044C19.3987 13.7044 19.3957 13.7044 19.3927 13.7044C19.3897 13.7044 19.3867 13.7044 19.3837 13.7044C19.3807 13.7044 19.3777 13.7044 19.3747 13.7044C19.3717 13.7044 19.3687 13.7044 19.3657 13.7044C19.3627 13.7044 19.3597 13.7044 19.3566 13.7044C19.3536 13.7044 19.3506 13.7044 19.3476 13.7044C19.3446 13.7044 19.3416 13.7044 19.3385 13.7044C19.3355 13.7044 19.3325 13.7044 19.3295 13.7044C19.3264 13.7044 19.3234 13.7044 19.3204 13.7044C19.3173 13.7044 19.3143 13.7044 19.3113 13.7044C19.3082 13.7044 19.3052 13.7044 19.3022 13.7044C19.2991 13.7044 19.2961 13.7044 19.293 13.7044C19.29 13.7044 19.2869 13.7044 19.2839 13.7044C19.2808 13.7044 19.2778 13.7044 19.2747 13.7044C19.2717 13.7044 19.2686 13.7044 19.2656 13.7044C19.2625 13.7044 19.2594 13.7044 19.2564 13.7044C19.2533 13.7044 19.2502 13.7044 19.2472 13.7044C19.2441 13.7044 19.241 13.7044 19.238 13.7044C19.2349 13.7044 19.2318 13.7044 19.2287 13.7044C19.2257 13.7044 19.2226 13.7044 19.2195 13.7044C19.2164 13.7044 19.2133 13.7044 19.2103 13.7044C19.2072 13.7044 19.2041 13.7044 19.201 13.7044C19.1979 13.7044 19.1948 13.7044 19.1917 13.7044C19.1886 13.7044 19.1855 13.7044 19.1824 13.7044C19.1793 13.7044 19.1762 13.7044 19.1731 13.7044C19.17 13.7044 19.1669 13.7044 19.1638 13.7044C19.1607 13.7044 19.1576 13.7044 19.1545 13.7044C19.1514 13.7044 19.1483 13.7044 19.1452 13.7044C19.142 13.7044 19.1389 13.7044 19.1358 13.7044C19.1327 13.7044 19.1296 13.7044 19.1264 13.7044C19.1233 13.7044 19.1202 13.7044 19.1171 13.7044C19.1139 13.7044 19.1108 13.7044 19.1077 13.7044C19.1045 13.7044 19.1014 13.7044 19.0983 13.7044C19.0951 13.7044 19.092 13.7044 19.0889 13.7044C19.0857 13.7044 19.0826 13.7044 19.0794 13.7044C19.0763 13.7044 19.0731 13.7044 19.07 13.7044C19.0668 13.7044 19.0637 13.7044 19.0605 13.7044C19.0574 13.7044 19.0542 13.7044 19.0511 13.7044C19.0479 13.7044 19.0448 13.7044 19.0416 13.7044C19.0384 13.7044 19.0353 13.7044 19.0321 13.7044C19.0289 13.7044 19.0258 13.7044 19.0226 13.7044C19.0194 13.7044 19.0163 13.7044 19.0131 13.7044C19.0099 13.7044 19.0067 13.7044 19.0036 13.7044C19.0004 13.7044 18.9972 13.7044 18.994 13.7044C18.9908 13.7044 18.9877 13.7044 18.9845 13.7044C18.9813 13.7044 18.9781 13.7044 18.9749 13.7044C18.9717 13.7044 18.9685 13.7044 18.9653 13.7044C18.9622 13.7044 18.959 13.7044 18.9558 13.7044C18.9526 13.7044 18.9494 13.7044 18.9462 13.7044C18.943 13.7044 18.9398 13.7044 18.9366 13.7044C18.9334 13.7044 18.9302 13.7044 18.9269 13.7044C18.9237 13.7044 18.9205 13.7044 18.9173 13.7044C18.9141 13.7044 18.9109 13.7044 18.9077 13.7044C18.9045 13.7044 18.9012 13.7044 18.898 13.7044C18.8948 13.7044 18.8916 13.7044 18.8884 13.7044C18.8851 13.7044 18.8819 13.7044 18.8787 13.7044C18.8754 13.7044 18.8722 13.7044 18.869 13.7044C18.8658 13.7044 18.8625 13.7044 18.8593 13.7044C18.8561 13.7044 18.8528 13.7044 18.8496 13.7044C18.8463 13.7044 18.8431 13.7044 18.8399 13.7044C18.8366 13.7044 18.8334 13.7044 18.8301 13.7044C18.8269 13.7044 18.8236 13.7044 18.8204 13.7044C18.8171 13.7044 18.8139 13.7044 18.8106 13.7044C18.8074 13.7044 18.8041 13.7044 18.8009 13.7044C18.7976 13.7044 18.7943 13.7044 18.7911 13.7044C18.7878 13.7044 18.7846 13.7044 18.7813 13.7044C18.778 13.7044 18.7748 13.7044 18.7715 13.7044C18.7682 13.7044 18.765 13.7044 18.7617 13.7044C18.7584 13.7044 18.7551 13.7044 18.7519 13.7044C18.7486 13.7044 18.7453 13.7044 18.742 13.7044C18.7388 13.7044 18.7355 13.7044 18.7322 13.7044C18.7289 13.7044 18.7256 13.7044 18.7223 13.7044C18.7191 13.7044 18.7158 13.7044 18.7125 13.7044C18.7092 13.7044 18.7059 13.7044 18.7026 13.7044C18.6993 13.7044 18.696 13.7044 18.6927 13.7044C18.6894 13.7044 18.6861 13.7044 18.6828 13.7044C18.6795 13.7044 18.6762 13.7044 18.6729 13.7044C18.6696 13.7044 18.6663 13.7044 18.663 13.7044C18.6597 13.7044 18.6564 13.7044 18.6531 13.7044C18.6498 13.7044 18.6465 13.7044 18.6432 13.7044C18.6398 13.7044 18.6365 13.7044 18.6332 13.7044C18.6299 13.7044 18.6266 13.7044 18.6233 13.7044C18.6199 13.7044 18.6166 13.7044 18.6133 13.7044C18.61 13.7044 18.6066 13.7044 18.6033 13.7044C18.6 13.7044 18.5967 13.7044 18.5933 13.7044C18.59 13.7044 18.5867 13.7044 18.5833 13.7044C18.58 13.7044 18.5767 13.7044 18.5733 13.7044C18.57 13.7044 18.5667 13.7044 18.5633 13.7044C18.56 13.7044 18.5566 13.7044 18.5533 13.7044C18.55 13.7044 18.5466 13.7044 18.5433 13.7044C18.5399 13.7044 18.5366 13.7044 18.5332 13.7044C18.5299 13.7044 18.5265 13.7044 18.5232 13.7044C18.5198 13.7044 18.5165 13.7044 18.5131 13.7044C18.5098 13.7044 18.5064 13.7044 18.503 13.7044C18.4997 13.7044 18.4963 13.7044 18.493 13.7044C18.4896 13.7044 18.4862 13.7044 18.4829 13.7044C18.4795 13.7044 18.4761 13.7044 18.4728 13.7044C18.4694 13.7044 18.466 13.7044 18.4627 13.7044C18.4593 13.7044 18.4559 13.7044 18.4525 13.7044C18.4492 13.7044 18.4458 13.7044 18.4424 13.7044C18.439 13.7044 18.4356 13.7044 18.4323 13.7044C18.4289 13.7044 18.4255 13.7044 18.4221 13.7044C18.4187 13.7044 18.4154 13.7044 18.412 13.7044C18.4086 13.7044 18.4052 13.7044 18.4018 13.7044C18.3984 13.7044 18.395 13.7044 18.3916 13.7044C18.3882 13.7044 18.3848 13.7044 18.3814 13.7044C18.3781 13.7044 18.3747 13.7044 18.3713 13.7044C18.3679 13.7044 18.3645 13.7044 18.3611 13.7044C18.3577 13.7044 18.3543 13.7044 18.3508 13.7044C18.3474 13.7044 18.344 13.7044 18.3406 13.7044C18.3372 13.7044 18.3338 13.7044 18.3304 13.7044C18.327 13.7044 18.3236 13.7044 18.3202 13.7044C18.3168 13.7044 18.3133 13.7044 18.3099 13.7044C18.3065 13.7044 18.3031 13.7044 18.2997 13.7044C18.2963 13.7044 18.2928 13.7044 18.2894 13.7044C18.286 13.7044 18.2826 13.7044 18.2791 13.7044C18.2757 13.7044 18.2723 13.7044 18.2689 13.7044C18.2654 13.7044 18.262 13.7044 18.2586 13.7044C18.2552 13.7044 18.2517 13.7044 18.2483 13.7044C18.2449 13.7044 18.2414 13.7044 18.238 13.7044C18.2346 13.7044 18.2311 13.7044 18.2277 13.7044C18.2242 13.7044 18.2208 13.7044 18.2174 13.7044C18.2139 13.7044 18.2105 13.7044 18.207 13.7044C18.2036 13.7044 18.2001 13.7044 18.1967 13.7044C18.1933 13.7044 18.1898 13.7044 18.1864 13.7044C18.1829 13.7044 18.1795 13.7044 18.176 13.7044C18.1726 13.7044 18.1691 13.7044 18.1656 13.7044C18.1622 13.7044 18.1587 13.7044 18.1553 13.7044C18.1518 13.7044 18.1484 13.7044 18.1449 13.7044C18.1414 13.7044 18.138 13.7044 18.1345 13.7044V15.2044C18.138 15.2044 18.1414 15.2044 18.1449 15.2044C18.1484 15.2044 18.1518 15.2044 18.1553 15.2044C18.1587 15.2044 18.1622 15.2044 18.1656 15.2044C18.1691 15.2044 18.1726 15.2044 18.176 15.2044C18.1795 15.2044 18.1829 15.2044 18.1864 15.2044C18.1898 15.2044 18.1933 15.2044 18.1967 15.2044C18.2001 15.2044 18.2036 15.2044 18.207 15.2044C18.2105 15.2044 18.2139 15.2044 18.2174 15.2044C18.2208 15.2044 18.2242 15.2044 18.2277 15.2044C18.2311 15.2044 18.2346 15.2044 18.238 15.2044C18.2414 15.2044 18.2449 15.2044 18.2483 15.2044C18.2517 15.2044 18.2552 15.2044 18.2586 15.2044C18.262 15.2044 18.2654 15.2044 18.2689 15.2044C18.2723 15.2044 18.2757 15.2044 18.2791 15.2044C18.2826 15.2044 18.286 15.2044 18.2894 15.2044C18.2928 15.2044 18.2963 15.2044 18.2997 15.2044C18.3031 15.2044 18.3065 15.2044 18.3099 15.2044C18.3133 15.2044 18.3168 15.2044 18.3202 15.2044C18.3236 15.2044 18.327 15.2044 18.3304 15.2044C18.3338 15.2044 18.3372 15.2044 18.3406 15.2044C18.344 15.2044 18.3474 15.2044 18.3508 15.2044C18.3543 15.2044 18.3577 15.2044 18.3611 15.2044C18.3645 15.2044 18.3679 15.2044 18.3713 15.2044C18.3747 15.2044 18.3781 15.2044 18.3814 15.2044C18.3848 15.2044 18.3882 15.2044 18.3916 15.2044C18.395 15.2044 18.3984 15.2044 18.4018 15.2044C18.4052 15.2044 18.4086 15.2044 18.412 15.2044C18.4154 15.2044 18.4187 15.2044 18.4221 15.2044C18.4255 15.2044 18.4289 15.2044 18.4323 15.2044C18.4356 15.2044 18.439 15.2044 18.4424 15.2044C18.4458 15.2044 18.4492 15.2044 18.4525 15.2044C18.4559 15.2044 18.4593 15.2044 18.4627 15.2044C18.466 15.2044 18.4694 15.2044 18.4728 15.2044C18.4761 15.2044 18.4795 15.2044 18.4829 15.2044C18.4862 15.2044 18.4896 15.2044 18.493 15.2044C18.4963 15.2044 18.4997 15.2044 18.503 15.2044C18.5064 15.2044 18.5098 15.2044 18.5131 15.2044C18.5165 15.2044 18.5198 15.2044 18.5232 15.2044C18.5265 15.2044 18.5299 15.2044 18.5332 15.2044C18.5366 15.2044 18.5399 15.2044 18.5433 15.2044C18.5466 15.2044 18.55 15.2044 18.5533 15.2044C18.5566 15.2044 18.56 15.2044 18.5633 15.2044C18.5667 15.2044 18.57 15.2044 18.5733 15.2044C18.5767 15.2044 18.58 15.2044 18.5833 15.2044C18.5867 15.2044 18.59 15.2044 18.5933 15.2044C18.5967 15.2044 18.6 15.2044 18.6033 15.2044C18.6066 15.2044 18.61 15.2044 18.6133 15.2044C18.6166 15.2044 18.6199 15.2044 18.6233 15.2044C18.6266 15.2044 18.6299 15.2044 18.6332 15.2044C18.6365 15.2044 18.6398 15.2044 18.6432 15.2044C18.6465 15.2044 18.6498 15.2044 18.6531 15.2044C18.6564 15.2044 18.6597 15.2044 18.663 15.2044C18.6663 15.2044 18.6696 15.2044 18.6729 15.2044C18.6762 15.2044 18.6795 15.2044 18.6828 15.2044C18.6861 15.2044 18.6894 15.2044 18.6927 15.2044C18.696 15.2044 18.6993 15.2044 18.7026 15.2044C18.7059 15.2044 18.7092 15.2044 18.7125 15.2044C18.7158 15.2044 18.7191 15.2044 18.7223 15.2044C18.7256 15.2044 18.7289 15.2044 18.7322 15.2044C18.7355 15.2044 18.7388 15.2044 18.742 15.2044C18.7453 15.2044 18.7486 15.2044 18.7519 15.2044C18.7551 15.2044 18.7584 15.2044 18.7617 15.2044C18.765 15.2044 18.7682 15.2044 18.7715 15.2044C18.7748 15.2044 18.778 15.2044 18.7813 15.2044C18.7846 15.2044 18.7878 15.2044 18.7911 15.2044C18.7943 15.2044 18.7976 15.2044 18.8009 15.2044C18.8041 15.2044 18.8074 15.2044 18.8106 15.2044C18.8139 15.2044 18.8171 15.2044 18.8204 15.2044C18.8236 15.2044 18.8269 15.2044 18.8301 15.2044C18.8334 15.2044 18.8366 15.2044 18.8399 15.2044C18.8431 15.2044 18.8463 15.2044 18.8496 15.2044C18.8528 15.2044 18.8561 15.2044 18.8593 15.2044C18.8625 15.2044 18.8658 15.2044 18.869 15.2044C18.8722 15.2044 18.8754 15.2044 18.8787 15.2044C18.8819 15.2044 18.8851 15.2044 18.8884 15.2044C18.8916 15.2044 18.8948 15.2044 18.898 15.2044C18.9012 15.2044 18.9045 15.2044 18.9077 15.2044C18.9109 15.2044 18.9141 15.2044 18.9173 15.2044C18.9205 15.2044 18.9237 15.2044 18.9269 15.2044C18.9302 15.2044 18.9334 15.2044 18.9366 15.2044C18.9398 15.2044 18.943 15.2044 18.9462 15.2044C18.9494 15.2044 18.9526 15.2044 18.9558 15.2044C18.959 15.2044 18.9622 15.2044 18.9653 15.2044C18.9685 15.2044 18.9717 15.2044 18.9749 15.2044C18.9781 15.2044 18.9813 15.2044 18.9845 15.2044C18.9877 15.2044 18.9908 15.2044 18.994 15.2044C18.9972 15.2044 19.0004 15.2044 19.0036 15.2044C19.0067 15.2044 19.0099 15.2044 19.0131 15.2044C19.0163 15.2044 19.0194 15.2044 19.0226 15.2044C19.0258 15.2044 19.0289 15.2044 19.0321 15.2044C19.0353 15.2044 19.0384 15.2044 19.0416 15.2044C19.0448 15.2044 19.0479 15.2044 19.0511 15.2044C19.0542 15.2044 19.0574 15.2044 19.0605 15.2044C19.0637 15.2044 19.0668 15.2044 19.07 15.2044C19.0731 15.2044 19.0763 15.2044 19.0794 15.2044C19.0826 15.2044 19.0857 15.2044 19.0889 15.2044C19.092 15.2044 19.0951 15.2044 19.0983 15.2044C19.1014 15.2044 19.1045 15.2044 19.1077 15.2044C19.1108 15.2044 19.1139 15.2044 19.1171 15.2044C19.1202 15.2044 19.1233 15.2044 19.1264 15.2044C19.1296 15.2044 19.1327 15.2044 19.1358 15.2044C19.1389 15.2044 19.142 15.2044 19.1452 15.2044C19.1483 15.2044 19.1514 15.2044 19.1545 15.2044C19.1576 15.2044 19.1607 15.2044 19.1638 15.2044C19.1669 15.2044 19.17 15.2044 19.1731 15.2044C19.1762 15.2044 19.1793 15.2044 19.1824 15.2044C19.1855 15.2044 19.1886 15.2044 19.1917 15.2044C19.1948 15.2044 19.1979 15.2044 19.201 15.2044C19.2041 15.2044 19.2072 15.2044 19.2103 15.2044C19.2133 15.2044 19.2164 15.2044 19.2195 15.2044C19.2226 15.2044 19.2257 15.2044 19.2287 15.2044C19.2318 15.2044 19.2349 15.2044 19.238 15.2044C19.241 15.2044 19.2441 15.2044 19.2472 15.2044C19.2502 15.2044 19.2533 15.2044 19.2564 15.2044C19.2594 15.2044 19.2625 15.2044 19.2656 15.2044C19.2686 15.2044 19.2717 15.2044 19.2747 15.2044C19.2778 15.2044 19.2808 15.2044 19.2839 15.2044C19.2869 15.2044 19.29 15.2044 19.293 15.2044C19.2961 15.2044 19.2991 15.2044 19.3022 15.2044C19.3052 15.2044 19.3082 15.2044 19.3113 15.2044C19.3143 15.2044 19.3173 15.2044 19.3204 15.2044C19.3234 15.2044 19.3264 15.2044 19.3295 15.2044C19.3325 15.2044 19.3355 15.2044 19.3385 15.2044C19.3416 15.2044 19.3446 15.2044 19.3476 15.2044C19.3506 15.2044 19.3536 15.2044 19.3566 15.2044C19.3597 15.2044 19.3627 15.2044 19.3657 15.2044C19.3687 15.2044 19.3717 15.2044 19.3747 15.2044C19.3777 15.2044 19.3807 15.2044 19.3837 15.2044C19.3867 15.2044 19.3897 15.2044 19.3927 15.2044C19.3957 15.2044 19.3987 15.2044 19.4017 15.2044C19.4047 15.2044 19.4076 15.2044 19.4106 15.2044C19.4136 15.2044 19.4166 15.2044 19.4196 15.2044C19.4226 15.2044 19.4255 15.2044 19.4285 15.2044C19.4315 15.2044 19.4345 15.2044 19.4374 15.2044C19.4404 15.2044 19.4434 15.2044 19.4463 15.2044C19.4493 15.2044 19.4523 15.2044 19.4552 15.2044C19.4582 15.2044 19.4612 15.2044 19.4641 15.2044C19.4671 15.2044 19.47 15.2044 19.473 15.2044C19.4759 15.2044 19.4789 15.2044 19.4818 15.2044C19.4848 15.2044 19.4877 15.2044 19.4907 15.2044C19.4936 15.2044 19.4965 15.2044 19.4995 15.2044C19.5024 15.2044 19.5054 15.2044 19.5083 15.2044C19.5112 15.2044 19.5142 15.2044 19.5171 15.2044C19.52 15.2044 19.5229 15.2044 19.5259 15.2044C19.5288 15.2044 19.5317 15.2044 19.5346 15.2044C19.5375 15.2044 19.5405 15.2044 19.5434 15.2044C19.5463 15.2044 19.5492 15.2044 19.5521 15.2044C19.555 15.2044 19.5579 15.2044 19.5608 15.2044C19.5637 15.2044 19.5666 15.2044 19.5695 15.2044C19.5724 15.2044 19.5753 15.2044 19.5782 15.2044C19.5811 15.2044 19.584 15.2044 19.5869 15.2044C19.5898 15.2044 19.5926 15.2044 19.5955 15.2044C19.5984 15.2044 19.6013 15.2044 19.6042 15.2044C19.607 15.2044 19.6099 15.2044 19.6128 15.2044C19.6157 15.2044 19.6185 15.2044 19.6214 15.2044C19.6243 15.2044 19.6271 15.2044 19.63 15.2044C19.6329 15.2044 19.6357 15.2044 19.6386 15.2044C19.6414 15.2044 19.6443 15.2044 19.6472 15.2044C19.65 15.2044 19.6529 15.2044 19.6557 15.2044C19.6585 15.2044 19.6614 15.2044 19.6642 15.2044C19.6671 15.2044 19.6699 15.2044 19.6728 15.2044C19.6756 15.2044 19.6784 15.2044 19.6813 15.2044C19.6841 15.2044 19.6869 15.2044 19.6897 15.2044C19.6926 15.2044 19.6954 15.2044 19.6982 15.2044C19.701 15.2044 19.7039 15.2044 19.7067 15.2044C19.7095 15.2044 19.7123 15.2044 19.7151 15.2044C19.7179 15.2044 19.7207 15.2044 19.7235 15.2044C19.7263 15.2044 19.7291 15.2044 19.7319 15.2044C19.7347 15.2044 19.7375 15.2044 19.7403 15.2044C19.7431 15.2044 19.7459 15.2044 19.7487 15.2044C19.7515 15.2044 19.7543 15.2044 19.7571 15.2044C19.7599 15.2044 19.7626 15.2044 19.7654 15.2044C19.7682 15.2044 19.771 15.2044 19.7737 15.2044C19.7765 15.2044 19.7793 15.2044 19.7821 15.2044C19.7848 15.2044 19.7876 15.2044 19.7903 15.2044C19.7931 15.2044 19.7959 15.2044 19.7986 15.2044C19.8014 15.2044 19.8041 15.2044 19.8069 15.2044C19.8096 15.2044 19.8124 15.2044 19.8151 15.2044C19.8179 15.2044 19.8206 15.2044 19.8234 15.2044C19.8261 15.2044 19.8288 15.2044 19.8316 15.2044C19.8343 15.2044 19.837 15.2044 19.8398 15.2044C19.8425 15.2044 19.8452 15.2044 19.848 15.2044C19.8507 15.2044 19.8534 15.2044 19.8561 15.2044C19.8588 15.2044 19.8616 15.2044 19.8643 15.2044C19.867 15.2044 19.8697 15.2044 19.8724 15.2044C19.8751 15.2044 19.8778 15.2044 19.8805 15.2044C19.8832 15.2044 19.8859 15.2044 19.8886 15.2044C19.8913 15.2044 19.894 15.2044 19.8967 15.2044C19.8994 15.2044 19.9021 15.2044 19.9047 15.2044C19.9074 15.2044 19.9101 15.2044 19.9128 15.2044C19.9155 15.2044 19.9181 15.2044 19.9208 15.2044C19.9235 15.2044 19.9262 15.2044 19.9288 15.2044C19.9315 15.2044 19.9342 15.2044 19.9368 15.2044C19.9395 15.2044 19.9422 15.2044 19.9448 15.2044C19.9475 15.2044 19.9501 15.2044 19.9528 15.2044C19.9554 15.2044 19.9581 15.2044 19.9607 15.2044C19.9634 15.2044 19.966 15.2044 19.9686 15.2044C19.9713 15.2044 19.9739 15.2044 19.9765 15.2044C19.9792 15.2044 19.9818 15.2044 19.9844 15.2044C19.9871 15.2044 19.9897 15.2044 19.9923 15.2044C19.9949 15.2044 19.9975 15.2044 20.0002 15.2044C20.0028 15.2044 20.0054 15.2044 20.008 15.2044C20.0106 15.2044 20.0132 15.2044 20.0158 15.2044C20.0184 15.2044 20.021 15.2044 20.0236 15.2044C20.0262 15.2044 20.0288 15.2044 20.0314 15.2044C20.034 15.2044 20.0366 15.2044 20.0392 15.2044C20.0418 15.2044 20.0443 15.2044 20.0469 15.2044C20.0495 15.2044 20.0521 15.2044 20.0547 15.2044C20.0572 15.2044 20.0598 15.2044 20.0624 15.2044C20.0649 15.2044 20.0675 15.2044 20.0701 15.2044C20.0726 15.2044 20.0752 15.2044 20.0777 15.2044C20.0803 15.2044 20.0829 15.2044 20.0854 15.2044C20.088 15.2044 20.0905 15.2044 20.093 15.2044C20.0956 15.2044 20.0981 15.2044 20.1007 15.2044C20.1032 15.2044 20.1057 15.2044 20.1083 15.2044C20.1108 15.2044 20.1133 15.2044 20.1159 15.2044C20.1184 15.2044 20.1209 15.2044 20.1234 15.2044C20.1259 15.2044 20.1285 15.2044 20.131 15.2044C20.1335 15.2044 20.136 15.2044 20.1385 15.2044C20.141 15.2044 20.1435 15.2044 20.146 15.2044C20.1485 15.2044 20.151 15.2044 20.1535 15.2044C20.156 15.2044 20.1585 15.2044 20.161 15.2044C20.1635 15.2044 20.166 15.2044 20.1685 15.2044C20.1709 15.2044 20.1734 15.2044 20.1759 15.2044C20.1784 15.2044 20.1808 15.2044 20.1833 15.2044C20.1858 15.2044 20.1882 15.2044 20.1907 15.2044C20.1932 15.2044 20.1956 15.2044 20.1981 15.2044C20.2006 15.2044 20.203 15.2044 20.2055 15.2044C20.2079 15.2044 20.2104 15.2044 20.2128 15.2044C20.2152 15.2044 20.2177 15.2044 20.2201 15.2044C20.2226 15.2044 20.225 15.2044 20.2274 15.2044C20.2299 15.2044 20.2323 15.2044 20.2347 15.2044C20.2372 15.2044 20.2396 15.2044 20.242 15.2044C20.2444 15.2044 20.2468 15.2044 20.2492 15.2044C20.2517 15.2044 20.2541 15.2044 20.2565 15.2044C20.2589 15.2044 20.2613 15.2044 20.2637 15.2044C20.2661 15.2044 20.2685 15.2044 20.2709 15.2044C20.2733 15.2044 20.2757 15.2044 20.278 15.2044C20.2804 15.2044 20.2828 15.2044 20.2852 15.2044C20.2876 15.2044 20.29 15.2044 20.2923 15.2044C20.2947 15.2044 20.2971 15.2044 20.2995 15.2044C20.3018 15.2044 20.3042 15.2044 20.3065 15.2044C20.3089 15.2044 20.3113 15.2044 20.3136 15.2044C20.316 15.2044 20.3183 15.2044 20.3207 15.2044C20.323 15.2044 20.3254 15.2044 20.3277 15.2044C20.3301 15.2044 20.3324 15.2044 20.3347 15.2044C20.3371 15.2044 20.3394 15.2044 20.3417 15.2044C20.3441 15.2044 20.3464 15.2044 20.3487 15.2044C20.351 15.2044 20.3533 15.2044 20.3557 15.2044C20.358 15.2044 20.3603 15.2044 20.3626 15.2044C20.3649 15.2044 20.3672 15.2044 20.3695 15.2044C20.3718 15.2044 20.3741 15.2044 20.3764 15.2044C20.3787 15.2044 20.381 15.2044 20.3833 15.2044C20.3856 15.2044 20.3879 15.2044 20.3901 15.2044C20.3924 15.2044 20.3947 15.2044 20.397 15.2044C20.3993 15.2044 20.4015 15.2044 20.4038 15.2044C20.4061 15.2044 20.4083 15.2044 20.4106 15.2044C20.4128 15.2044 20.4151 15.2044 20.4174 15.2044C20.4196 15.2044 20.4219 15.2044 20.4241 15.2044C20.4264 15.2044 20.4286 15.2044 20.4309 15.2044C20.4331 15.2044 20.4353 15.2044 20.4376 15.2044C20.4398 15.2044 20.442 15.2044 20.4443 15.2044C20.4465 15.2044 20.4487 15.2044 20.4509 15.2044C20.4532 15.2044 20.4554 15.2044 20.4576 15.2044C20.4598 15.2044 20.462 15.2044 20.4642 15.2044C20.4664 15.2044 20.4686 15.2044 20.4708 15.2044C20.473 15.2044 20.4752 15.2044 20.4774 15.2044C20.4796 15.2044 20.4818 15.2044 20.484 15.2044C20.4862 15.2044 20.4884 15.2044 20.4905 15.2044C20.4927 15.2044 20.4949 15.2044 20.4971 15.2044C20.4992 15.2044 20.5014 15.2044 20.5036 15.2044C20.5057 15.2044 20.5079 15.2044 20.5101 15.2044C20.5122 15.2044 20.5144 15.2044 20.5165 15.2044C20.5187 15.2044 20.5208 15.2044 20.523 15.2044C20.5251 15.2044 20.5272 15.2044 20.5294 15.2044C20.5315 15.2044 20.5337 15.2044 20.5358 15.2044C20.5379 15.2044 20.54 15.2044 20.5422 15.2044C20.5443 15.2044 20.5464 15.2044 20.5485 15.2044C20.5506 15.2044 20.5527 15.2044 20.5549 15.2044C20.557 15.2044 20.5591 15.2044 20.5612 15.2044C20.5633 15.2044 20.5654 15.2044 20.5675 15.2044C20.5696 15.2044 20.5717 15.2044 20.5737 15.2044C20.5758 15.2044 20.5779 15.2044 20.58 15.2044C20.5821 15.2044 20.5841 15.2044 20.5862 15.2044C20.5883 15.2044 20.5904 15.2044 20.5924 15.2044C20.5945 15.2044 20.5966 15.2044 20.5986 15.2044C20.6007 15.2044 20.6027 15.2044 20.6048 15.2044C20.6068 15.2044 20.6089 15.2044 20.6109 15.2044C20.613 15.2044 20.615 15.2044 20.617 15.2044C20.6191 15.2044 20.6211 15.2044 20.6231 15.2044C20.6252 15.2044 20.6272 15.2044 20.6292 15.2044C20.6312 15.2044 20.6333 15.2044 20.6353 15.2044C20.6373 15.2044 20.6393 15.2044 20.6413 15.2044C20.6433 15.2044 20.6453 15.2044 20.6473 15.2044C20.6493 15.2044 20.6513 15.2044 20.6533 15.2044C20.6553 15.2044 20.6573 15.2044 20.6593 15.2044C20.6613 15.2044 20.6632 15.2044 20.6652 15.2044C20.6672 15.2044 20.6692 15.2044 20.6711 15.2044C20.6731 15.2044 20.6751 15.2044 20.677 15.2044C20.679 15.2044 20.681 15.2044 20.6829 15.2044C20.6849 15.2044 20.6868 15.2044 20.6888 15.2044C20.6907 15.2044 20.6927 15.2044 20.6946 15.2044C20.6965 15.2044 20.6985 15.2044 20.7004 15.2044C20.7023 15.2044 20.7043 15.2044 20.7062 15.2044C20.7081 15.2044 20.71 15.2044 20.712 15.2044C20.7139 15.2044 20.7158 15.2044 20.7177 15.2044C20.7196 15.2044 20.7215 15.2044 20.7234 15.2044C20.7253 15.2044 20.7272 15.2044 20.7291 15.2044C20.731 15.2044 20.7329 15.2044 20.7348 15.2044C20.7367 15.2044 20.7386 15.2044 20.7404 15.2044C20.7423 15.2044 20.7442 15.2044 20.7461 15.2044C20.7479 15.2044 20.7498 15.2044 20.7517 15.2044C20.7535 15.2044 20.7554 15.2044 20.7572 15.2044C20.7591 15.2044 20.761 15.2044 20.7628 15.2044C20.7647 15.2044 20.7665 15.2044 20.7683 15.2044C20.7702 15.2044 20.772 15.2044 20.7739 15.2044C20.7757 15.2044 20.7775 15.2044 20.7793 15.2044C20.7812 15.2044 20.783 15.2044 20.7848 15.2044C20.7866 15.2044 20.7884 15.2044 20.7902 15.2044C20.7921 15.2044 20.7939 15.2044 20.7957 15.2044C20.7975 15.2044 20.7993 15.2044 20.8011 15.2044C20.8029 15.2044 20.8046 15.2044 20.8064 15.2044C20.8082 15.2044 20.81 15.2044 20.8118 15.2044C20.8136 15.2044 20.8153 15.2044 20.8171 15.2044C20.8189 15.2044 20.8206 15.2044 20.8224 15.2044C20.8242 15.2044 20.8259 15.2044 20.8277 15.2044C20.8294 15.2044 20.8312 15.2044 20.8329 15.2044C20.8347 15.2044 20.8364 15.2044 20.8382 15.2044C20.8399 15.2044 20.8416 15.2044 20.8434 15.2044C20.8451 15.2044 20.8468 15.2044 20.8486 15.2044C20.8503 15.2044 20.852 15.2044 20.8537 15.2044C20.8554 15.2044 20.8571 15.2044 20.8588 15.2044C20.8606 15.2044 20.8623 15.2044 20.864 15.2044C20.8657 15.2044 20.8673 15.2044 20.869 15.2044C20.8707 15.2044 20.8724 15.2044 20.8741 15.2044C20.8758 15.2044 20.8775 15.2044 20.8791 15.2044C20.8808 15.2044 20.8825 15.2044 20.8842 15.2044C20.8858 15.2044 20.8875 15.2044 20.8891 15.2044C20.8908 15.2044 20.8925 15.2044 20.8941 15.2044C20.8958 15.2044 20.8974 15.2044 20.899 15.2044C20.9007 15.2044 20.9023 15.2044 20.904 15.2044C20.9056 15.2044 20.9072 15.2044 20.9089 15.2044C20.9105 15.2044 20.9121 15.2044 20.9137 15.2044C20.9153 15.2044 20.917 15.2044 20.9186 15.2044C20.9202 15.2044 20.9218 15.2044 20.9234 15.2044C20.925 15.2044 20.9266 15.2044 20.9282 15.2044C20.9298 15.2044 20.9314 15.2044 20.9329 15.2044C20.9345 15.2044 20.9361 15.2044 20.9377 15.2044C20.9393 15.2044 20.9408 15.2044 20.9424 15.2044C20.944 15.2044 20.9455 15.2044 20.9471 15.2044C20.9487 15.2044 20.9502 15.2044 20.9518 15.2044C20.9533 15.2044 20.9549 15.2044 20.9564 15.2044C20.958 15.2044 20.9595 15.2044 20.961 15.2044C20.9626 15.2044 20.9641 15.2044 20.9656 15.2044C20.9672 15.2044 20.9687 15.2044 20.9702 15.2044C20.9717 15.2044 20.9732 15.2044 20.9747 15.2044C20.9763 15.2044 20.9778 15.2044 20.9793 15.2044C20.9808 15.2044 20.9823 15.2044 20.9838 15.2044C20.9852 15.2044 20.9867 15.2044 20.9882 15.2044C20.9897 15.2044 20.9912 15.2044 20.9927 15.2044C20.9941 15.2044 20.9956 15.2044 20.9971 15.2044C20.9985 15.2044 21 15.2044 21.0015 15.2044C21.0029 15.2044 21.0044 15.2044 21.0058 15.2044C21.0073 15.2044 21.0087 15.2044 21.0102 15.2044C21.0116 15.2044 21.0131 15.2044 21.0145 15.2044C21.0159 15.2044 21.0174 15.2044 21.0188 15.2044C21.0202 15.2044 21.0216 15.2044 21.023 15.2044C21.0245 15.2044 21.0259 15.2044 21.0273 15.2044C21.0287 15.2044 21.0301 15.2044 21.0315 15.2044C21.0329 15.2044 21.0343 15.2044 21.0357 15.2044C21.0371 15.2044 21.0385 15.2044 21.0398 15.2044C21.0412 15.2044 21.0426 15.2044 21.044 15.2044C21.0454 15.2044 21.0467 15.2044 21.0481 15.2044C21.0495 15.2044 21.0508 15.2044 21.0522 15.2044C21.0535 15.2044 21.0549 15.2044 21.0562 15.2044C21.0576 15.2044 21.0589 15.2044 21.0603 15.2044C21.0616 15.2044 21.0629 15.2044 21.0643 15.2044C21.0656 15.2044 21.0669 15.2044 21.0682 15.2044C21.0696 15.2044 21.0709 15.2044 21.0722 15.2044C21.0735 15.2044 21.0748 15.2044 21.0761 15.2044C21.0774 15.2044 21.0787 15.2044 21.08 15.2044C21.0813 15.2044 21.0826 15.2044 21.0839 15.2044C21.0852 15.2044 21.0865 15.2044 21.0877 15.2044C21.089 15.2044 21.0903 15.2044 21.0916 15.2044C21.0928 15.2044 21.0941 15.2044 21.0953 15.2044C21.0966 15.2044 21.0979 15.2044 21.0991 15.2044C21.1004 15.2044 21.1016 15.2044 21.1029 15.2044C21.1041 15.2044 21.1053 15.2044 21.1066 15.2044C21.1078 15.2044 21.109 15.2044 21.1103 15.2044C21.1115 15.2044 21.1127 15.2044 21.1139 15.2044C21.1151 15.2044 21.1163 15.2044 21.1175 15.2044C21.1187 15.2044 21.12 15.2044 21.1211 15.2044C21.1223 15.2044 21.1235 15.2044 21.1247 15.2044C21.1259 15.2044 21.1271 15.2044 21.1283 15.2044C21.1295 15.2044 21.1306 15.2044 21.1318 15.2044C21.133 15.2044 21.1341 15.2044 21.1353 15.2044C21.1365 15.2044 21.1376 15.2044 21.1388 15.2044C21.1399 15.2044 21.1411 15.2044 21.1422 15.2044C21.1434 15.2044 21.1445 15.2044 21.1456 15.2044C21.1468 15.2044 21.1479 15.2044 21.149 15.2044C21.1501 15.2044 21.1513 15.2044 21.1524 15.2044C21.1535 15.2044 21.1546 15.2044 21.1557 15.2044C21.1568 15.2044 21.1579 15.2044 21.159 15.2044C21.1601 15.2044 21.1612 15.2044 21.1623 15.2044C21.1634 15.2044 21.1645 15.2044 21.1655 15.2044C21.1666 15.2044 21.1677 15.2044 21.1688 15.2044C21.1698 15.2044 21.1709 15.2044 21.172 15.2044C21.173 15.2044 21.1741 15.2044 21.1751 15.2044C21.1762 15.2044 21.1772 15.2044 21.1783 15.2044C21.1793 15.2044 21.1804 15.2044 21.1814 15.2044C21.1824 15.2044 21.1834 15.2044 21.1845 15.2044C21.1855 15.2044 21.1865 15.2044 21.1875 15.2044C21.1885 15.2044 21.1895 15.2044 21.1906 15.2044C21.1916 15.2044 21.1926 15.2044 21.1936 15.2044C21.1945 15.2044 21.1955 15.2044 21.1965 15.2044C21.1975 15.2044 21.1985 15.2044 21.1995 15.2044C21.2004 15.2044 21.2014 15.2044 21.2024 15.2044C21.2034 15.2044 21.2043 15.2044 21.2053 15.2044C21.2062 15.2044 21.2072 15.2044 21.2081 15.2044C21.2091 15.2044 21.21 15.2044 21.211 15.2044C21.2119 15.2044 21.2128 15.2044 21.2138 15.2044C21.2147 15.2044 21.2156 15.2044 21.2165 15.2044C21.2175 15.2044 21.2184 15.2044 21.2193 15.2044C21.2202 15.2044 21.2211 15.2044 21.222 15.2044C21.2229 15.2044 21.2238 15.2044 21.2247 15.2044C21.2256 15.2044 21.2265 15.2044 21.2274 15.2044C21.2282 15.2044 21.2291 15.2044 21.23 15.2044C21.2309 15.2044 21.2317 15.2044 21.2326 15.2044C21.2335 15.2044 21.2343 15.2044 21.2352 15.2044C21.236 15.2044 21.2369 15.2044 21.2377 15.2044C21.2386 15.2044 21.2394 15.2044 21.2402 15.2044C21.2411 15.2044 21.2419 15.2044 21.2427 15.2044C21.2435 15.2044 21.2444 15.2044 21.2452 15.2044C21.246 15.2044 21.2468 15.2044 21.2476 15.2044C21.2484 15.2044 21.2492 15.2044 21.25 15.2044C21.2508 15.2044 21.2516 15.2044 21.2524 15.2044C21.2532 15.2044 21.2539 15.2044 21.2547 15.2044C21.2555 15.2044 21.2563 15.2044 21.257 15.2044C21.2578 15.2044 21.2586 15.2044 21.2593 15.2044C21.2601 15.2044 21.2608 15.2044 21.2616 15.2044C21.2623 15.2044 21.2631 15.2044 21.2638 15.2044C21.2645 15.2044 21.2653 15.2044 21.266 15.2044C21.2667 15.2044 21.2674 15.2044 21.2682 15.2044C21.2689 15.2044 21.2696 15.2044 21.2703 15.2044C21.271 15.2044 21.2717 15.2044 21.2724 15.2044C21.2731 15.2044 21.2738 15.2044 21.2745 15.2044C21.2752 15.2044 21.2759 15.2044 21.2765 15.2044C21.2772 15.2044 21.2779 15.2044 21.2786 15.2044C21.2792 15.2044 21.2799 15.2044 21.2805 15.2044C21.2812 15.2044 21.2818 15.2044 21.2825 15.2044C21.2831 15.2044 21.2838 15.2044 21.2844 15.2044C21.2851 15.2044 21.2857 15.2044 21.2863 15.2044C21.287 15.2044 21.2876 15.2044 21.2882 15.2044C21.2888 15.2044 21.2894 15.2044 21.29 15.2044C21.2906 15.2044 21.2912 15.2044 21.2918 15.2044C21.2924 15.2044 21.293 15.2044 21.2936 15.2044C21.2942 15.2044 21.2948 15.2044 21.2954 15.2044C21.296 15.2044 21.2965 15.2044 21.2971 15.2044C21.2977 15.2044 21.2982 15.2044 21.2988 15.2044C21.2993 15.2044 21.2999 15.2044 21.3004 15.2044C21.301 15.2044 21.3015 15.2044 21.3021 15.2044C21.3026 15.2044 21.3031 15.2044 21.3037 15.2044C21.3042 15.2044 21.3047 15.2044 21.3052 15.2044C21.3058 15.2044 21.3063 15.2044 21.3068 15.2044C21.3073 15.2044 21.3078 15.2044 21.3083 15.2044C21.3088 15.2044 21.3093 15.2044 21.3098 15.2044C21.3102 15.2044 21.3107 15.2044 21.3112 15.2044C21.3117 15.2044 21.3121 15.2044 21.3126 15.2044C21.3131 15.2044 21.3135 15.2044 21.314 15.2044C21.3145 15.2044 21.3149 15.2044 21.3154 15.2044C21.3158 15.2044 21.3162 15.2044 21.3167 15.2044C21.3171 15.2044 21.3175 15.2044 21.318 15.2044C21.3184 15.2044 21.3188 15.2044 21.3192 15.2044C21.3196 15.2044 21.3201 15.2044 21.3205 15.2044C21.3209 15.2044 21.3213 15.2044 21.3217 15.2044C21.322 15.2044 21.3224 15.2044 21.3228 15.2044C21.3232 15.2044 21.3236 15.2044 21.324 15.2044C21.3243 15.2044 21.3247 15.2044 21.3251 15.2044C21.3254 15.2044 21.3258 15.2044 21.3261 15.2044C21.3265 15.2044 21.3268 15.2044 21.3272 15.2044C21.3275 15.2044 21.3279 15.2044 21.3282 15.2044C21.3285 15.2044 21.3289 15.2044 21.3292 15.2044C21.3295 15.2044 21.3298 15.2044 21.3301 15.2044C21.3304 15.2044 21.3307 15.2044 21.331 15.2044C21.3313 15.2044 21.3316 15.2044 21.3319 15.2044C21.3322 15.2044 21.3325 15.2044 21.3328 15.2044C21.3331 15.2044 21.3333 15.2044 21.3336 15.2044C21.3339 15.2044 21.3341 15.2044 21.3344 15.2044C21.3347 15.2044 21.3349 15.2044 21.3352 15.2044C21.3354 15.2044 21.3356 15.2044 21.3359 15.2044C21.3361 15.2044 21.3363 15.2044 21.3366 15.2044C21.3368 15.2044 21.337 15.2044 21.3372 15.2044C21.3375 15.2044 21.3377 15.2044 21.3379 15.2044C21.3381 15.2044 21.3383 15.2044 21.3385 15.2044C21.3387 15.2044 21.3389 15.2044 21.339 15.2044C21.3392 15.2044 21.3394 15.2044 21.3396 15.2044C21.3397 15.2044 21.3399 15.2044 21.3401 15.2044C21.3402 15.2044 21.3404 15.2044 21.3405 15.2044C21.3407 15.2044 21.3408 15.2044 21.341 15.2044C21.3411 15.2044 21.3413 15.2044 21.3414 15.2044C21.3415 15.2044 21.3417 15.2044 21.3418 15.2044C21.3419 15.2044 21.342 15.2044 21.3421 15.2044C21.3422 15.2044 21.3423 15.2044 21.3424 15.2044C21.3425 15.2044 21.3426 15.2044 21.3427 15.2044C21.3428 15.2044 21.3429 15.2044 21.3429 15.2044C21.343 15.2044 21.3431 15.2044 21.3432 15.2044C21.3432 15.2044 21.3433 15.2044 21.3433 15.2044C21.3434 15.2044 21.3434 15.2044 21.3435 15.2044C21.3435 15.2044 21.3436 15.2044 21.3436 15.2044C21.3436 15.2044 21.3437 15.2044 21.3437 15.2044C21.3437 15.2044 21.3437 15.2044 21.3437 15.2044C21.3437 15.2044 21.3438 15.2044 21.3438 14.4544ZM18.1345 13.7044C18.1311 13.7044 18.1276 13.7044 18.1241 13.7044C18.1207 13.7044 18.1172 13.7044 18.1138 13.7044C18.1103 13.7044 18.1069 13.7044 18.1034 13.7044C18.1 13.7044 18.0965 13.7044 18.093 13.7044C18.0896 13.7044 18.0861 13.7044 18.0827 13.7044C18.0792 13.7044 18.0758 13.7044 18.0724 13.7044C18.0689 13.7044 18.0655 13.7044 18.062 13.7044C18.0586 13.7044 18.0551 13.7044 18.0517 13.7044C18.0483 13.7044 18.0448 13.7044 18.0414 13.7044C18.0379 13.7044 18.0345 13.7044 18.0311 13.7044C18.0276 13.7044 18.0242 13.7044 18.0208 13.7044C18.0173 13.7044 18.0139 13.7044 18.0105 13.7044C18.007 13.7044 18.0036 13.7044 18.0002 13.7044C17.9968 13.7044 17.9933 13.7044 17.9899 13.7044C17.9865 13.7044 17.9831 13.7044 17.9796 13.7044C17.9762 13.7044 17.9728 13.7044 17.9694 13.7044C17.966 13.7044 17.9625 13.7044 17.9591 13.7044C17.9557 13.7044 17.9523 13.7044 17.9489 13.7044C17.9455 13.7044 17.9421 13.7044 17.9387 13.7044C17.9352 13.7044 17.9318 13.7044 17.9284 13.7044C17.925 13.7044 17.9216 13.7044 17.9182 13.7044C17.9148 13.7044 17.9114 13.7044 17.908 13.7044C17.9046 13.7044 17.9012 13.7044 17.8978 13.7044C17.8944 13.7044 17.891 13.7044 17.8876 13.7044C17.8842 13.7044 17.8808 13.7044 17.8774 13.7044C17.874 13.7044 17.8706 13.7044 17.8673 13.7044C17.8639 13.7044 17.8605 13.7044 17.8571 13.7044C17.8537 13.7044 17.8503 13.7044 17.8469 13.7044C17.8435 13.7044 17.8402 13.7044 17.8368 13.7044C17.8334 13.7044 17.83 13.7044 17.8266 13.7044C17.8233 13.7044 17.8199 13.7044 17.8165 13.7044C17.8131 13.7044 17.8098 13.7044 17.8064 13.7044C17.803 13.7044 17.7997 13.7044 17.7963 13.7044C17.7929 13.7044 17.7896 13.7044 17.7862 13.7044C17.7828 13.7044 17.7795 13.7044 17.7761 13.7044C17.7727 13.7044 17.7694 13.7044 17.766 13.7044C17.7627 13.7044 17.7593 13.7044 17.7559 13.7044C17.7526 13.7044 17.7492 13.7044 17.7459 13.7044C17.7425 13.7044 17.7392 13.7044 17.7358 13.7044C17.7325 13.7044 17.7291 13.7044 17.7258 13.7044C17.7224 13.7044 17.7191 13.7044 17.7158 13.7044C17.7124 13.7044 17.7091 13.7044 17.7057 13.7044C17.7024 13.7044 17.6991 13.7044 17.6957 13.7044C17.6924 13.7044 17.689 13.7044 17.6857 13.7044C17.6824 13.7044 17.679 13.7044 17.6757 13.7044C17.6724 13.7044 17.6691 13.7044 17.6657 13.7044C17.6624 13.7044 17.6591 13.7044 17.6558 13.7044C17.6524 13.7044 17.6491 13.7044 17.6458 13.7044C17.6425 13.7044 17.6392 13.7044 17.6358 13.7044C17.6325 13.7044 17.6292 13.7044 17.6259 13.7044C17.6226 13.7044 17.6193 13.7044 17.616 13.7044C17.6127 13.7044 17.6093 13.7044 17.606 13.7044C17.6027 13.7044 17.5994 13.7044 17.5961 13.7044C17.5928 13.7044 17.5895 13.7044 17.5862 13.7044C17.5829 13.7044 17.5796 13.7044 17.5763 13.7044C17.573 13.7044 17.5697 13.7044 17.5664 13.7044C17.5631 13.7044 17.5599 13.7044 17.5566 13.7044C17.5533 13.7044 17.55 13.7044 17.5467 13.7044C17.5434 13.7044 17.5401 13.7044 17.5369 13.7044C17.5336 13.7044 17.5303 13.7044 17.527 13.7044C17.5237 13.7044 17.5205 13.7044 17.5172 13.7044C17.5139 13.7044 17.5106 13.7044 17.5074 13.7044C17.5041 13.7044 17.5008 13.7044 17.4976 13.7044C17.4943 13.7044 17.491 13.7044 17.4878 13.7044C17.4845 13.7044 17.4812 13.7044 17.478 13.7044C17.4747 13.7044 17.4714 13.7044 17.4682 13.7044C17.4649 13.7044 17.4617 13.7044 17.4584 13.7044C17.4552 13.7044 17.4519 13.7044 17.4487 13.7044C17.4454 13.7044 17.4422 13.7044 17.4389 13.7044C17.4357 13.7044 17.4324 13.7044 17.4292 13.7044C17.426 13.7044 17.4227 13.7044 17.4195 13.7044C17.4162 13.7044 17.413 13.7044 17.4098 13.7044C17.4065 13.7044 17.4033 13.7044 17.4001 13.7044C17.3968 13.7044 17.3936 13.7044 17.3904 13.7044C17.3872 13.7044 17.3839 13.7044 17.3807 13.7044C17.3775 13.7044 17.3743 13.7044 17.371 13.7044C17.3678 13.7044 17.3646 13.7044 17.3614 13.7044C17.3582 13.7044 17.355 13.7044 17.3517 13.7044C17.3485 13.7044 17.3453 13.7044 17.3421 13.7044C17.3389 13.7044 17.3357 13.7044 17.3325 13.7044C17.3293 13.7044 17.3261 13.7044 17.3229 13.7044C17.3197 13.7044 17.3165 13.7044 17.3133 13.7044C17.3101 13.7044 17.3069 13.7044 17.3037 13.7044C17.3005 13.7044 17.2973 13.7044 17.2941 13.7044C17.2909 13.7044 17.2878 13.7044 17.2846 13.7044C17.2814 13.7044 17.2782 13.7044 17.275 13.7044C17.2718 13.7044 17.2687 13.7044 17.2655 13.7044C17.2623 13.7044 17.2591 13.7044 17.256 13.7044C17.2528 13.7044 17.2496 13.7044 17.2465 13.7044C17.2433 13.7044 17.2401 13.7044 17.2369 13.7044C17.2338 13.7044 17.2306 13.7044 17.2275 13.7044C17.2243 13.7044 17.2211 13.7044 17.218 13.7044C17.2148 13.7044 17.2117 13.7044 17.2085 13.7044C17.2054 13.7044 17.2022 13.7044 17.1991 13.7044C17.1959 13.7044 17.1928 13.7044 17.1896 13.7044C17.1865 13.7044 17.1833 13.7044 17.1802 13.7044C17.1771 13.7044 17.1739 13.7044 17.1708 13.7044C17.1677 13.7044 17.1645 13.7044 17.1614 13.7044C17.1583 13.7044 17.1551 13.7044 17.152 13.7044C17.1489 13.7044 17.1457 13.7044 17.1426 13.7044C17.1395 13.7044 17.1364 13.7044 17.1333 13.7044C17.1301 13.7044 17.127 13.7044 17.1239 13.7044C17.1208 13.7044 17.1177 13.7044 17.1146 13.7044C17.1115 13.7044 17.1083 13.7044 17.1052 13.7044C17.1021 13.7044 17.099 13.7044 17.0959 13.7044C17.0928 13.7044 17.0897 13.7044 17.0866 13.7044C17.0835 13.7044 17.0804 13.7044 17.0773 13.7044C17.0742 13.7044 17.0711 13.7044 17.0681 13.7044C17.065 13.7044 17.0619 13.7044 17.0588 13.7044C17.0557 13.7044 17.0526 13.7044 17.0495 13.7044C17.0465 13.7044 17.0434 13.7044 17.0403 13.7044C17.0372 13.7044 17.0342 13.7044 17.0311 13.7044C17.028 13.7044 17.0249 13.7044 17.0219 13.7044C17.0188 13.7044 17.0157 13.7044 17.0127 13.7044C17.0096 13.7044 17.0066 13.7044 17.0035 13.7044C17.0004 13.7044 16.9974 13.7044 16.9943 13.7044C16.9913 13.7044 16.9882 13.7044 16.9852 13.7044C16.9821 13.7044 16.9791 13.7044 16.976 13.7044C16.973 13.7044 16.9699 13.7044 16.9669 13.7044C16.9639 13.7044 16.9608 13.7044 16.9578 13.7044C16.9547 13.7044 16.9517 13.7044 16.9487 13.7044C16.9457 13.7044 16.9426 13.7044 16.9396 13.7044C16.9366 13.7044 16.9335 13.7044 16.9305 13.7044C16.9275 13.7044 16.9245 13.7044 16.9215 13.7044C16.9184 13.7044 16.9154 13.7044 16.9124 13.7044C16.9094 13.7044 16.9064 13.7044 16.9034 13.7044C16.9004 13.7044 16.8974 13.7044 16.8944 13.7044C16.8914 13.7044 16.8884 13.7044 16.8854 13.7044C16.8824 13.7044 16.8794 13.7044 16.8764 13.7044C16.8734 13.7044 16.8704 13.7044 16.8674 13.7044C16.8644 13.7044 16.8614 13.7044 16.8584 13.7044C16.8554 13.7044 16.8525 13.7044 16.8495 13.7044C16.8465 13.7044 16.8435 13.7044 16.8405 13.7044C16.8376 13.7044 16.8346 13.7044 16.8316 13.7044C16.8286 13.7044 16.8257 13.7044 16.8227 13.7044C16.8197 13.7044 16.8168 13.7044 16.8138 13.7044C16.8109 13.7044 16.8079 13.7044 16.8049 13.7044C16.802 13.7044 16.799 13.7044 16.7961 13.7044C16.7931 13.7044 16.7902 13.7044 16.7872 13.7044C16.7843 13.7044 16.7813 13.7044 16.7784 13.7044C16.7754 13.7044 16.7725 13.7044 16.7696 13.7044C16.7666 13.7044 16.7637 13.7044 16.7608 13.7044C16.7578 13.7044 16.7549 13.7044 16.752 13.7044C16.749 13.7044 16.7461 13.7044 16.7432 13.7044C16.7403 13.7044 16.7374 13.7044 16.7344 13.7044C16.7315 13.7044 16.7286 13.7044 16.7257 13.7044C16.7228 13.7044 16.7199 13.7044 16.717 13.7044C16.714 13.7044 16.7111 13.7044 16.7082 13.7044C16.7053 13.7044 16.7024 13.7044 16.6995 13.7044C16.6966 13.7044 16.6937 13.7044 16.6909 13.7044C16.688 13.7044 16.6851 13.7044 16.6822 13.7044C16.6793 13.7044 16.6764 13.7044 16.6735 13.7044C16.6706 13.7044 16.6678 13.7044 16.6649 13.7044C16.662 13.7044 16.6591 13.7044 16.6563 13.7044C16.6534 13.7044 16.6505 13.7044 16.6476 13.7044C16.6448 13.7044 16.6419 13.7044 16.639 13.7044C16.6362 13.7044 16.6333 13.7044 16.6305 13.7044C16.6276 13.7044 16.6248 13.7044 16.6219 13.7044C16.6191 13.7044 16.6162 13.7044 16.6134 13.7044C16.6105 13.7044 16.6077 13.7044 16.6048 13.7044C16.602 13.7044 16.5991 13.7044 16.5963 13.7044C16.5935 13.7044 16.5906 13.7044 16.5878 13.7044C16.585 13.7044 16.5821 13.7044 16.5793 13.7044C16.5765 13.7044 16.5737 13.7044 16.5708 13.7044C16.568 13.7044 16.5652 13.7044 16.5624 13.7044C16.5596 13.7044 16.5568 13.7044 16.5539 13.7044C16.5511 13.7044 16.5483 13.7044 16.5455 13.7044C16.5427 13.7044 16.5399 13.7044 16.5371 13.7044C16.5343 13.7044 16.5315 13.7044 16.5287 13.7044C16.5259 13.7044 16.5231 13.7044 16.5203 13.7044C16.5176 13.7044 16.5148 13.7044 16.512 13.7044C16.5092 13.7044 16.5064 13.7044 16.5036 13.7044C16.5009 13.7044 16.4981 13.7044 16.4953 13.7044C16.4925 13.7044 16.4898 13.7044 16.487 13.7044C16.4842 13.7044 16.4815 13.7044 16.4787 13.7044C16.4759 13.7044 16.4732 13.7044 16.4704 13.7044C16.4677 13.7044 16.4649 13.7044 16.4622 13.7044C16.4594 13.7044 16.4567 13.7044 16.4539 13.7044C16.4512 13.7044 16.4484 13.7044 16.4457 13.7044C16.4429 13.7044 16.4402 13.7044 16.4375 13.7044C16.4347 13.7044 16.432 13.7044 16.4293 13.7044C16.4265 13.7044 16.4238 13.7044 16.4211 13.7044C16.4184 13.7044 16.4157 13.7044 16.4129 13.7044C16.4102 13.7044 16.4075 13.7044 16.4048 13.7044C16.4021 13.7044 16.3994 13.7044 16.3967 13.7044C16.394 13.7044 16.3912 13.7044 16.3885 13.7044C16.3858 13.7044 16.3831 13.7044 16.3804 13.7044C16.3778 13.7044 16.3751 13.7044 16.3724 13.7044C16.3697 13.7044 16.367 13.7044 16.3643 13.7044C16.3616 13.7044 16.3589 13.7044 16.3563 13.7044C16.3536 13.7044 16.3509 13.7044 16.3482 13.7044C16.3456 13.7044 16.3429 13.7044 16.3402 13.7044C16.3376 13.7044 16.3349 13.7044 16.3322 13.7044C16.3296 13.7044 16.3269 13.7044 16.3242 13.7044C16.3216 13.7044 16.3189 13.7044 16.3163 13.7044C16.3136 13.7044 16.311 13.7044 16.3083 13.7044C16.3057 13.7044 16.3031 13.7044 16.3004 13.7044C16.2978 13.7044 16.2951 13.7044 16.2925 13.7044C16.2899 13.7044 16.2872 13.7044 16.2846 13.7044C16.282 13.7044 16.2794 13.7044 16.2767 13.7044C16.2741 13.7044 16.2715 13.7044 16.2689 13.7044C16.2663 13.7044 16.2637 13.7044 16.2611 13.7044C16.2584 13.7044 16.2558 13.7044 16.2532 13.7044C16.2506 13.7044 16.248 13.7044 16.2454 13.7044C16.2428 13.7044 16.2402 13.7044 16.2376 13.7044C16.2351 13.7044 16.2325 13.7044 16.2299 13.7044C16.2273 13.7044 16.2247 13.7044 16.2221 13.7044C16.2195 13.7044 16.217 13.7044 16.2144 13.7044C16.2118 13.7044 16.2093 13.7044 16.2067 13.7044C16.2041 13.7044 16.2016 13.7044 16.199 13.7044C16.1964 13.7044 16.1939 13.7044 16.1913 13.7044C16.1888 13.7044 16.1862 13.7044 16.1837 13.7044C16.1811 13.7044 16.1786 13.7044 16.176 13.7044C16.1735 13.7044 16.1709 13.7044 16.1684 13.7044C16.1658 13.7044 16.1633 13.7044 16.1608 13.7044C16.1582 13.7044 16.1557 13.7044 16.1532 13.7044C16.1507 13.7044 16.1481 13.7044 16.1456 13.7044C16.1431 13.7044 16.1406 13.7044 16.1381 13.7044C16.1356 13.7044 16.1331 13.7044 16.1305 13.7044C16.128 13.7044 16.1255 13.7044 16.123 13.7044C16.1205 13.7044 16.118 13.7044 16.1155 13.7044C16.113 13.7044 16.1105 13.7044 16.1081 13.7044C16.1056 13.7044 16.1031 13.7044 16.1006 13.7044C16.0981 13.7044 16.0956 13.7044 16.0932 13.7044C16.0907 13.7044 16.0882 13.7044 16.0857 13.7044C16.0833 13.7044 16.0808 13.7044 16.0783 13.7044C16.0759 13.7044 16.0734 13.7044 16.071 13.7044C16.0685 13.7044 16.066 13.7044 16.0636 13.7044C16.0611 13.7044 16.0587 13.7044 16.0563 13.7044C16.0538 13.7044 16.0514 13.7044 16.0489 13.7044C16.0465 13.7044 16.044 13.7044 16.0416 13.7044C16.0392 13.7044 16.0368 13.7044 16.0343 13.7044C16.0319 13.7044 16.0295 13.7044 16.0271 13.7044C16.0246 13.7044 16.0222 13.7044 16.0198 13.7044C16.0174 13.7044 16.015 13.7044 16.0126 13.7044C16.0102 13.7044 16.0078 13.7044 16.0054 13.7044C16.003 13.7044 16.0006 13.7044 15.9982 13.7044C15.9958 13.7044 15.9934 13.7044 15.991 13.7044C15.9886 13.7044 15.9862 13.7044 15.9839 13.7044C15.9815 13.7044 15.9791 13.7044 15.9767 13.7044C15.9743 13.7044 15.972 13.7044 15.9696 13.7044C15.9672 13.7044 15.9649 13.7044 15.9625 13.7044C15.9601 13.7044 15.9578 13.7044 15.9554 13.7044C15.9531 13.7044 15.9507 13.7044 15.9484 13.7044C15.946 13.7044 15.9437 13.7044 15.9413 13.7044C15.939 13.7044 15.9367 13.7044 15.9343 13.7044C15.932 13.7044 15.9297 13.7044 15.9273 13.7044C15.925 13.7044 15.9227 13.7044 15.9204 13.7044C15.918 13.7044 15.9157 13.7044 15.9134 13.7044C15.9111 13.7044 15.9088 13.7044 15.9065 13.7044C15.9042 13.7044 15.9018 13.7044 15.8995 13.7044C15.8972 13.7044 15.8949 13.7044 15.8926 13.7044C15.8904 13.7044 15.8881 13.7044 15.8858 13.7044C15.8835 13.7044 15.8812 13.7044 15.8789 13.7044C15.8766 13.7044 15.8744 13.7044 15.8721 13.7044C15.8698 13.7044 15.8675 13.7044 15.8653 13.7044C15.863 13.7044 15.8607 13.7044 15.8585 13.7044C15.8562 13.7044 15.8539 13.7044 15.8517 13.7044C15.8494 13.7044 15.8472 13.7044 15.8449 13.7044C15.8427 13.7044 15.8404 13.7044 15.8382 13.7044C15.836 13.7044 15.8337 13.7044 15.8315 13.7044C15.8293 13.7044 15.827 13.7044 15.8248 13.7044C15.8226 13.7044 15.8203 13.7044 15.8181 13.7044C15.8159 13.7044 15.8137 13.7044 15.8115 13.7044C15.8093 13.7044 15.807 13.7044 15.8048 13.7044C15.8026 13.7044 15.8004 13.7044 15.7982 13.7044C15.796 13.7044 15.7938 13.7044 15.7916 13.7044C15.7894 13.7044 15.7873 13.7044 15.7851 13.7044C15.7829 13.7044 15.7807 13.7044 15.7785 13.7044C15.7763 13.7044 15.7742 13.7044 15.772 13.7044C15.7698 13.7044 15.7677 13.7044 15.7655 13.7044C15.7633 13.7044 15.7612 13.7044 15.759 13.7044C15.7568 13.7044 15.7547 13.7044 15.7525 13.7044C15.7504 13.7044 15.7482 13.7044 15.7461 13.7044C15.7439 13.7044 15.7418 13.7044 15.7397 13.7044C15.7375 13.7044 15.7354 13.7044 15.7333 13.7044C15.7311 13.7044 15.729 13.7044 15.7269 13.7044C15.7248 13.7044 15.7226 13.7044 15.7205 13.7044C15.7184 13.7044 15.7163 13.7044 15.7142 13.7044C15.7121 13.7044 15.71 13.7044 15.7079 13.7044C15.7058 13.7044 15.7037 13.7044 15.7016 13.7044C15.6995 13.7044 15.6974 13.7044 15.6953 13.7044C15.6932 13.7044 15.6911 13.7044 15.6891 13.7044C15.687 13.7044 15.6849 13.7044 15.6828 13.7044C15.6808 13.7044 15.6787 13.7044 15.6766 13.7044C15.6746 13.7044 15.6725 13.7044 15.6704 13.7044C15.6684 13.7044 15.6663 13.7044 15.6643 13.7044C15.6622 13.7044 15.6602 13.7044 15.6581 13.7044C15.6561 13.7044 15.6541 13.7044 15.652 13.7044C15.65 13.7044 15.6479 13.7044 15.6459 13.7044C15.6439 13.7044 15.6419 13.7044 15.6398 13.7044C15.6378 13.7044 15.6358 13.7044 15.6338 13.7044C15.6318 13.7044 15.6298 13.7044 15.6278 13.7044C15.6257 13.7044 15.6237 13.7044 15.6217 13.7044C15.6197 13.7044 15.6177 13.7044 15.6158 13.7044C15.6138 13.7044 15.6118 13.7044 15.6098 13.7044C15.6078 13.7044 15.6058 13.7044 15.6038 13.7044C15.6019 13.7044 15.5999 13.7044 15.5979 13.7044C15.596 13.7044 15.594 13.7044 15.592 13.7044C15.5901 13.7044 15.5881 13.7044 15.5861 13.7044C15.5842 13.7044 15.5822 13.7044 15.5803 13.7044C15.5783 13.7044 15.5764 13.7044 15.5745 13.7044C15.5725 13.7044 15.5706 13.7044 15.5686 13.7044C15.5667 13.7044 15.5648 13.7044 15.5629 13.7044C15.5609 13.7044 15.559 13.7044 15.5571 13.7044C15.5552 13.7044 15.5533 13.7044 15.5514 13.7044C15.5494 13.7044 15.5475 13.7044 15.5456 13.7044C15.5437 13.7044 15.5418 13.7044 15.5399 13.7044C15.538 13.7044 15.5362 13.7044 15.5343 13.7044C15.5324 13.7044 15.5305 13.7044 15.5286 13.7044C15.5267 13.7044 15.5249 13.7044 15.523 13.7044C15.5211 13.7044 15.5193 13.7044 15.5174 13.7044C15.5155 13.7044 15.5137 13.7044 15.5118 13.7044C15.51 13.7044 15.5081 13.7044 15.5062 13.7044C15.5044 13.7044 15.5026 13.7044 15.5007 13.7044C15.4989 13.7044 15.497 13.7044 15.4952 13.7044C15.4934 13.7044 15.4915 13.7044 15.4897 13.7044C15.4879 13.7044 15.4861 13.7044 15.4842 13.7044C15.4824 13.7044 15.4806 13.7044 15.4788 13.7044C15.477 13.7044 15.4752 13.7044 15.4734 13.7044C15.4716 13.7044 15.4698 13.7044 15.468 13.7044C15.4662 13.7044 15.4644 13.7044 15.4626 13.7044C15.4608 13.7044 15.4591 13.7044 15.4573 13.7044C15.4555 13.7044 15.4537 13.7044 15.452 13.7044C15.4502 13.7044 15.4484 13.7044 15.4466 13.7044C15.4449 13.7044 15.4431 13.7044 15.4414 13.7044C15.4396 13.7044 15.4379 13.7044 15.4361 13.7044C15.4344 13.7044 15.4326 13.7044 15.4309 13.7044C15.4291 13.7044 15.4274 13.7044 15.4257 13.7044C15.424 13.7044 15.4222 13.7044 15.4205 13.7044C15.4188 13.7044 15.4171 13.7044 15.4153 13.7044C15.4136 13.7044 15.4119 13.7044 15.4102 13.7044C15.4085 13.7044 15.4068 13.7044 15.4051 13.7044C15.4034 13.7044 15.4017 13.7044 15.4 13.7044C15.3983 13.7044 15.3966 13.7044 15.395 13.7044C15.3933 13.7044 15.3916 13.7044 15.3899 13.7044C15.3882 13.7044 15.3866 13.7044 15.3849 13.7044C15.3832 13.7044 15.3816 13.7044 15.3799 13.7044C15.3783 13.7044 15.3766 13.7044 15.3749 13.7044C15.3733 13.7044 15.3716 13.7044 15.37 13.7044C15.3684 13.7044 15.3667 13.7044 15.3651 13.7044C15.3635 13.7044 15.3618 13.7044 15.3602 13.7044C15.3586 13.7044 15.3569 13.7044 15.3553 13.7044C15.3537 13.7044 15.3521 13.7044 15.3505 13.7044C15.3489 13.7044 15.3473 13.7044 15.3457 13.7044C15.3441 13.7044 15.3425 13.7044 15.3409 13.7044C15.3393 13.7044 15.3377 13.7044 15.3361 13.7044C15.3345 13.7044 15.3329 13.7044 15.3314 13.7044C15.3298 13.7044 15.3282 13.7044 15.3266 13.7044C15.3251 13.7044 15.3235 13.7044 15.322 13.7044C15.3204 13.7044 15.3188 13.7044 15.3173 13.7044C15.3157 13.7044 15.3142 13.7044 15.3126 13.7044C15.3111 13.7044 15.3096 13.7044 15.308 13.7044C15.3065 13.7044 15.305 13.7044 15.3034 13.7044C15.3019 13.7044 15.3004 13.7044 15.2989 13.7044C15.2973 13.7044 15.2958 13.7044 15.2943 13.7044C15.2928 13.7044 15.2913 13.7044 15.2898 13.7044C15.2883 13.7044 15.2868 13.7044 15.2853 13.7044C15.2838 13.7044 15.2823 13.7044 15.2808 13.7044C15.2793 13.7044 15.2779 13.7044 15.2764 13.7044C15.2749 13.7044 15.2734 13.7044 15.272 13.7044C15.2705 13.7044 15.269 13.7044 15.2676 13.7044C15.2661 13.7044 15.2647 13.7044 15.2632 13.7044C15.2618 13.7044 15.2603 13.7044 15.2589 13.7044C15.2574 13.7044 15.256 13.7044 15.2546 13.7044C15.2531 13.7044 15.2517 13.7044 15.2503 13.7044C15.2488 13.7044 15.2474 13.7044 15.246 13.7044C15.2446 13.7044 15.2432 13.7044 15.2418 13.7044C15.2404 13.7044 15.239 13.7044 15.2376 13.7044C15.2362 13.7044 15.2348 13.7044 15.2334 13.7044C15.232 13.7044 15.2306 13.7044 15.2292 13.7044C15.2278 13.7044 15.2264 13.7044 15.2251 13.7044C15.2237 13.7044 15.2223 13.7044 15.221 13.7044C15.2196 13.7044 15.2182 13.7044 15.2169 13.7044C15.2155 13.7044 15.2142 13.7044 15.2128 13.7044C15.2115 13.7044 15.2101 13.7044 15.2088 13.7044C15.2075 13.7044 15.2061 13.7044 15.2048 13.7044C15.2035 13.7044 15.2021 13.7044 15.2008 13.7044C15.1995 13.7044 15.1982 13.7044 15.1969 13.7044C15.1955 13.7044 15.1942 13.7044 15.1929 13.7044C15.1916 13.7044 15.1903 13.7044 15.189 13.7044C15.1877 13.7044 15.1865 13.7044 15.1852 13.7044C15.1839 13.7044 15.1826 13.7044 15.1813 13.7044C15.18 13.7044 15.1788 13.7044 15.1775 13.7044C15.1762 13.7044 15.175 13.7044 15.1737 13.7044C15.1724 13.7044 15.1712 13.7044 15.1699 13.7044C15.1687 13.7044 15.1674 13.7044 15.1662 13.7044C15.165 13.7044 15.1637 13.7044 15.1625 13.7044C15.1613 13.7044 15.16 13.7044 15.1588 13.7044C15.1576 13.7044 15.1564 13.7044 15.1551 13.7044C15.1539 13.7044 15.1527 13.7044 15.1515 13.7044C15.1503 13.7044 15.1491 13.7044 15.1479 13.7044C15.1467 13.7044 15.1455 13.7044 15.1443 13.7044C15.1431 13.7044 15.142 13.7044 15.1408 13.7044C15.1396 13.7044 15.1384 13.7044 15.1373 13.7044C15.1361 13.7044 15.1349 13.7044 15.1338 13.7044C15.1326 13.7044 15.1314 13.7044 15.1303 13.7044C15.1291 13.7044 15.128 13.7044 15.1268 13.7044C15.1257 13.7044 15.1246 13.7044 15.1234 13.7044C15.1223 13.7044 15.1212 13.7044 15.12 13.7044C15.1189 13.7044 15.1178 13.7044 15.1167 13.7044C15.1156 13.7044 15.1145 13.7044 15.1133 13.7044C15.1122 13.7044 15.1111 13.7044 15.11 13.7044C15.1089 13.7044 15.1078 13.7044 15.1068 13.7044C15.1057 13.7044 15.1046 13.7044 15.1035 13.7044C15.1024 13.7044 15.1014 13.7044 15.1003 13.7044C15.0992 13.7044 15.0982 13.7044 15.0971 13.7044C15.096 13.7044 15.095 13.7044 15.0939 13.7044C15.0929 13.7044 15.0918 13.7044 15.0908 13.7044C15.0897 13.7044 15.0887 13.7044 15.0877 13.7044C15.0866 13.7044 15.0856 13.7044 15.0846 13.7044C15.0836 13.7044 15.0825 13.7044 15.0815 13.7044C15.0805 13.7044 15.0795 13.7044 15.0785 13.7044C15.0775 13.7044 15.0765 13.7044 15.0755 13.7044C15.0745 13.7044 15.0735 13.7044 15.0725 13.7044C15.0715 13.7044 15.0706 13.7044 15.0696 13.7044C15.0686 13.7044 15.0676 13.7044 15.0667 13.7044C15.0657 13.7044 15.0647 13.7044 15.0638 13.7044C15.0628 13.7044 15.0619 13.7044 15.0609 13.7044C15.06 13.7044 15.059 13.7044 15.0581 13.7044C15.0571 13.7044 15.0562 13.7044 15.0553 13.7044C15.0544 13.7044 15.0534 13.7044 15.0525 13.7044C15.0516 13.7044 15.0507 13.7044 15.0498 13.7044C15.0489 13.7044 15.0479 13.7044 15.047 13.7044C15.0461 13.7044 15.0453 13.7044 15.0444 13.7044C15.0435 13.7044 15.0426 13.7044 15.0417 13.7044C15.0408 13.7044 15.0399 13.7044 15.0391 13.7044C15.0382 13.7044 15.0373 13.7044 15.0365 13.7044C15.0356 13.7044 15.0347 13.7044 15.0339 13.7044C15.033 13.7044 15.0322 13.7044 15.0313 13.7044C15.0305 13.7044 15.0297 13.7044 15.0288 13.7044C15.028 13.7044 15.0272 13.7044 15.0263 13.7044C15.0255 13.7044 15.0247 13.7044 15.0239 13.7044C15.0231 13.7044 15.0223 13.7044 15.0215 13.7044C15.0206 13.7044 15.0198 13.7044 15.019 13.7044C15.0183 13.7044 15.0175 13.7044 15.0167 13.7044C15.0159 13.7044 15.0151 13.7044 15.0143 13.7044C15.0136 13.7044 15.0128 13.7044 15.012 13.7044C15.0113 13.7044 15.0105 13.7044 15.0097 13.7044C15.009 13.7044 15.0082 13.7044 15.0075 13.7044C15.0067 13.7044 15.006 13.7044 15.0053 13.7044C15.0045 13.7044 15.0038 13.7044 15.0031 13.7044C15.0023 13.7044 15.0016 13.7044 15.0009 13.7044C15.0002 13.7044 14.9995 13.7044 14.9988 13.7044C14.998 13.7044 14.9973 13.7044 14.9966 13.7044C14.996 13.7044 14.9953 13.7044 14.9946 13.7044C14.9939 13.7044 14.9932 13.7044 14.9925 13.7044C14.9918 13.7044 14.9912 13.7044 14.9905 13.7044C14.9898 13.7044 14.9892 13.7044 14.9885 13.7044C14.9879 13.7044 14.9872 13.7044 14.9866 13.7044C14.9859 13.7044 14.9853 13.7044 14.9846 13.7044C14.984 13.7044 14.9834 13.7044 14.9827 13.7044C14.9821 13.7044 14.9815 13.7044 14.9809 13.7044C14.9802 13.7044 14.9796 13.7044 14.979 13.7044C14.9784 13.7044 14.9778 13.7044 14.9772 13.7044C14.9766 13.7044 14.976 13.7044 14.9754 13.7044C14.9748 13.7044 14.9743 13.7044 14.9737 13.7044C14.9731 13.7044 14.9725 13.7044 14.972 13.7044C14.9714 13.7044 14.9708 13.7044 14.9703 13.7044C14.9697 13.7044 14.9692 13.7044 14.9686 13.7044C14.9681 13.7044 14.9675 13.7044 14.967 13.7044C14.9664 13.7044 14.9659 13.7044 14.9654 13.7044C14.9649 13.7044 14.9643 13.7044 14.9638 13.7044C14.9633 13.7044 14.9628 13.7044 14.9623 13.7044C14.9618 13.7044 14.9613 13.7044 14.9608 13.7044C14.9603 13.7044 14.9598 13.7044 14.9593 13.7044C14.9588 13.7044 14.9583 13.7044 14.9579 13.7044C14.9574 13.7044 14.9569 13.7044 14.9564 13.7044C14.956 13.7044 14.9555 13.7044 14.9551 13.7044C14.9546 13.7044 14.9541 13.7044 14.9537 13.7044C14.9533 13.7044 14.9528 13.7044 14.9524 13.7044C14.9519 13.7044 14.9515 13.7044 14.9511 13.7044C14.9507 13.7044 14.9502 13.7044 14.9498 13.7044C14.9494 13.7044 14.949 13.7044 14.9486 13.7044C14.9482 13.7044 14.9478 13.7044 14.9474 13.7044C14.947 13.7044 14.9466 13.7044 14.9462 13.7044C14.9458 13.7044 14.9455 13.7044 14.9451 13.7044C14.9447 13.7044 14.9444 13.7044 14.944 13.7044C14.9436 13.7044 14.9433 13.7044 14.9429 13.7044C14.9426 13.7044 14.9422 13.7044 14.9419 13.7044C14.9415 13.7044 14.9412 13.7044 14.9409 13.7044C14.9405 13.7044 14.9402 13.7044 14.9399 13.7044C14.9396 13.7044 14.9392 13.7044 14.9389 13.7044C14.9386 13.7044 14.9383 13.7044 14.938 13.7044C14.9377 13.7044 14.9374 13.7044 14.9371 13.7044C14.9368 13.7044 14.9366 13.7044 14.9363 13.7044C14.936 13.7044 14.9357 13.7044 14.9355 13.7044C14.9352 13.7044 14.9349 13.7044 14.9347 13.7044C14.9344 13.7044 14.9342 13.7044 14.9339 13.7044C14.9337 13.7044 14.9334 13.7044 14.9332 13.7044C14.9329 13.7044 14.9327 13.7044 14.9325 13.7044C14.9323 13.7044 14.932 13.7044 14.9318 13.7044C14.9316 13.7044 14.9314 13.7044 14.9312 13.7044C14.931 13.7044 14.9308 13.7044 14.9306 13.7044C14.9304 13.7044 14.9302 13.7044 14.93 13.7044C14.9298 13.7044 14.9297 13.7044 14.9295 13.7044C14.9293 13.7044 14.9291 13.7044 14.929 13.7044C14.9288 13.7044 14.9287 13.7044 14.9285 13.7044C14.9284 13.7044 14.9282 13.7044 14.9281 13.7044C14.9279 13.7044 14.9278 13.7044 14.9277 13.7044C14.9275 13.7044 14.9274 13.7044 14.9273 13.7044C14.9272 13.7044 14.927 13.7044 14.9269 13.7044C14.9268 13.7044 14.9267 13.7044 14.9266 13.7044C14.9265 13.7044 14.9264 13.7044 14.9264 13.7044C14.9263 13.7044 14.9262 13.7044 14.9261 13.7044C14.926 13.7044 14.926 13.7044 14.9259 13.7044C14.9258 13.7044 14.9258 13.7044 14.9257 13.7044C14.9257 13.7044 14.9256 13.7044 14.9256 13.7044C14.9255 13.7044 14.9255 13.7044 14.9255 13.7044C14.9254 13.7044 14.9254 13.7044 14.9254 13.7044C14.9253 13.7044 14.9253 13.7044 14.9253 13.7044C14.9253 13.7044 14.9253 13.7044 14.9253 14.4544C14.9253 15.2044 14.9253 15.2044 14.9253 15.2044C14.9253 15.2044 14.9253 15.2044 14.9254 15.2044C14.9254 15.2044 14.9254 15.2044 14.9255 15.2044C14.9255 15.2044 14.9255 15.2044 14.9256 15.2044C14.9256 15.2044 14.9257 15.2044 14.9257 15.2044C14.9258 15.2044 14.9258 15.2044 14.9259 15.2044C14.926 15.2044 14.926 15.2044 14.9261 15.2044C14.9262 15.2044 14.9263 15.2044 14.9264 15.2044C14.9264 15.2044 14.9265 15.2044 14.9266 15.2044C14.9267 15.2044 14.9268 15.2044 14.9269 15.2044C14.927 15.2044 14.9272 15.2044 14.9273 15.2044C14.9274 15.2044 14.9275 15.2044 14.9277 15.2044C14.9278 15.2044 14.9279 15.2044 14.9281 15.2044C14.9282 15.2044 14.9284 15.2044 14.9285 15.2044C14.9287 15.2044 14.9288 15.2044 14.929 15.2044C14.9291 15.2044 14.9293 15.2044 14.9295 15.2044C14.9297 15.2044 14.9298 15.2044 14.93 15.2044C14.9302 15.2044 14.9304 15.2044 14.9306 15.2044C14.9308 15.2044 14.931 15.2044 14.9312 15.2044C14.9314 15.2044 14.9316 15.2044 14.9318 15.2044C14.932 15.2044 14.9323 15.2044 14.9325 15.2044C14.9327 15.2044 14.9329 15.2044 14.9332 15.2044C14.9334 15.2044 14.9337 15.2044 14.9339 15.2044C14.9342 15.2044 14.9344 15.2044 14.9347 15.2044C14.9349 15.2044 14.9352 15.2044 14.9355 15.2044C14.9357 15.2044 14.936 15.2044 14.9363 15.2044C14.9366 15.2044 14.9368 15.2044 14.9371 15.2044C14.9374 15.2044 14.9377 15.2044 14.938 15.2044C14.9383 15.2044 14.9386 15.2044 14.9389 15.2044C14.9392 15.2044 14.9396 15.2044 14.9399 15.2044C14.9402 15.2044 14.9405 15.2044 14.9409 15.2044C14.9412 15.2044 14.9415 15.2044 14.9419 15.2044C14.9422 15.2044 14.9426 15.2044 14.9429 15.2044C14.9433 15.2044 14.9436 15.2044 14.944 15.2044C14.9444 15.2044 14.9447 15.2044 14.9451 15.2044C14.9455 15.2044 14.9458 15.2044 14.9462 15.2044C14.9466 15.2044 14.947 15.2044 14.9474 15.2044C14.9478 15.2044 14.9482 15.2044 14.9486 15.2044C14.949 15.2044 14.9494 15.2044 14.9498 15.2044C14.9502 15.2044 14.9507 15.2044 14.9511 15.2044C14.9515 15.2044 14.9519 15.2044 14.9524 15.2044C14.9528 15.2044 14.9533 15.2044 14.9537 15.2044C14.9541 15.2044 14.9546 15.2044 14.9551 15.2044C14.9555 15.2044 14.956 15.2044 14.9564 15.2044C14.9569 15.2044 14.9574 15.2044 14.9579 15.2044C14.9583 15.2044 14.9588 15.2044 14.9593 15.2044C14.9598 15.2044 14.9603 15.2044 14.9608 15.2044C14.9613 15.2044 14.9618 15.2044 14.9623 15.2044C14.9628 15.2044 14.9633 15.2044 14.9638 15.2044C14.9643 15.2044 14.9649 15.2044 14.9654 15.2044C14.9659 15.2044 14.9664 15.2044 14.967 15.2044C14.9675 15.2044 14.9681 15.2044 14.9686 15.2044C14.9692 15.2044 14.9697 15.2044 14.9703 15.2044C14.9708 15.2044 14.9714 15.2044 14.972 15.2044C14.9725 15.2044 14.9731 15.2044 14.9737 15.2044C14.9743 15.2044 14.9748 15.2044 14.9754 15.2044C14.976 15.2044 14.9766 15.2044 14.9772 15.2044C14.9778 15.2044 14.9784 15.2044 14.979 15.2044C14.9796 15.2044 14.9802 15.2044 14.9809 15.2044C14.9815 15.2044 14.9821 15.2044 14.9827 15.2044C14.9834 15.2044 14.984 15.2044 14.9846 15.2044C14.9853 15.2044 14.9859 15.2044 14.9866 15.2044C14.9872 15.2044 14.9879 15.2044 14.9885 15.2044C14.9892 15.2044 14.9898 15.2044 14.9905 15.2044C14.9912 15.2044 14.9918 15.2044 14.9925 15.2044C14.9932 15.2044 14.9939 15.2044 14.9946 15.2044C14.9953 15.2044 14.996 15.2044 14.9966 15.2044C14.9973 15.2044 14.998 15.2044 14.9988 15.2044C14.9995 15.2044 15.0002 15.2044 15.0009 15.2044C15.0016 15.2044 15.0023 15.2044 15.0031 15.2044C15.0038 15.2044 15.0045 15.2044 15.0053 15.2044C15.006 15.2044 15.0067 15.2044 15.0075 15.2044C15.0082 15.2044 15.009 15.2044 15.0097 15.2044C15.0105 15.2044 15.0113 15.2044 15.012 15.2044C15.0128 15.2044 15.0136 15.2044 15.0143 15.2044C15.0151 15.2044 15.0159 15.2044 15.0167 15.2044C15.0175 15.2044 15.0183 15.2044 15.019 15.2044C15.0198 15.2044 15.0206 15.2044 15.0215 15.2044C15.0223 15.2044 15.0231 15.2044 15.0239 15.2044C15.0247 15.2044 15.0255 15.2044 15.0263 15.2044C15.0272 15.2044 15.028 15.2044 15.0288 15.2044C15.0297 15.2044 15.0305 15.2044 15.0313 15.2044C15.0322 15.2044 15.033 15.2044 15.0339 15.2044C15.0347 15.2044 15.0356 15.2044 15.0365 15.2044C15.0373 15.2044 15.0382 15.2044 15.0391 15.2044C15.0399 15.2044 15.0408 15.2044 15.0417 15.2044C15.0426 15.2044 15.0435 15.2044 15.0444 15.2044C15.0453 15.2044 15.0461 15.2044 15.047 15.2044C15.0479 15.2044 15.0489 15.2044 15.0498 15.2044C15.0507 15.2044 15.0516 15.2044 15.0525 15.2044C15.0534 15.2044 15.0544 15.2044 15.0553 15.2044C15.0562 15.2044 15.0571 15.2044 15.0581 15.2044C15.059 15.2044 15.06 15.2044 15.0609 15.2044C15.0619 15.2044 15.0628 15.2044 15.0638 15.2044C15.0647 15.2044 15.0657 15.2044 15.0667 15.2044C15.0676 15.2044 15.0686 15.2044 15.0696 15.2044C15.0706 15.2044 15.0715 15.2044 15.0725 15.2044C15.0735 15.2044 15.0745 15.2044 15.0755 15.2044C15.0765 15.2044 15.0775 15.2044 15.0785 15.2044C15.0795 15.2044 15.0805 15.2044 15.0815 15.2044C15.0825 15.2044 15.0836 15.2044 15.0846 15.2044C15.0856 15.2044 15.0866 15.2044 15.0877 15.2044C15.0887 15.2044 15.0897 15.2044 15.0908 15.2044C15.0918 15.2044 15.0929 15.2044 15.0939 15.2044C15.095 15.2044 15.096 15.2044 15.0971 15.2044C15.0982 15.2044 15.0992 15.2044 15.1003 15.2044C15.1014 15.2044 15.1024 15.2044 15.1035 15.2044C15.1046 15.2044 15.1057 15.2044 15.1068 15.2044C15.1078 15.2044 15.1089 15.2044 15.11 15.2044C15.1111 15.2044 15.1122 15.2044 15.1133 15.2044C15.1145 15.2044 15.1156 15.2044 15.1167 15.2044C15.1178 15.2044 15.1189 15.2044 15.12 15.2044C15.1212 15.2044 15.1223 15.2044 15.1234 15.2044C15.1246 15.2044 15.1257 15.2044 15.1268 15.2044C15.128 15.2044 15.1291 15.2044 15.1303 15.2044C15.1314 15.2044 15.1326 15.2044 15.1338 15.2044C15.1349 15.2044 15.1361 15.2044 15.1373 15.2044C15.1384 15.2044 15.1396 15.2044 15.1408 15.2044C15.142 15.2044 15.1431 15.2044 15.1443 15.2044C15.1455 15.2044 15.1467 15.2044 15.1479 15.2044C15.1491 15.2044 15.1503 15.2044 15.1515 15.2044C15.1527 15.2044 15.1539 15.2044 15.1551 15.2044C15.1564 15.2044 15.1576 15.2044 15.1588 15.2044C15.16 15.2044 15.1613 15.2044 15.1625 15.2044C15.1637 15.2044 15.165 15.2044 15.1662 15.2044C15.1674 15.2044 15.1687 15.2044 15.1699 15.2044C15.1712 15.2044 15.1724 15.2044 15.1737 15.2044C15.175 15.2044 15.1762 15.2044 15.1775 15.2044C15.1788 15.2044 15.18 15.2044 15.1813 15.2044C15.1826 15.2044 15.1839 15.2044 15.1852 15.2044C15.1865 15.2044 15.1877 15.2044 15.189 15.2044C15.1903 15.2044 15.1916 15.2044 15.1929 15.2044C15.1942 15.2044 15.1955 15.2044 15.1969 15.2044C15.1982 15.2044 15.1995 15.2044 15.2008 15.2044C15.2021 15.2044 15.2035 15.2044 15.2048 15.2044C15.2061 15.2044 15.2075 15.2044 15.2088 15.2044C15.2101 15.2044 15.2115 15.2044 15.2128 15.2044C15.2142 15.2044 15.2155 15.2044 15.2169 15.2044C15.2182 15.2044 15.2196 15.2044 15.221 15.2044C15.2223 15.2044 15.2237 15.2044 15.2251 15.2044C15.2264 15.2044 15.2278 15.2044 15.2292 15.2044C15.2306 15.2044 15.232 15.2044 15.2334 15.2044C15.2348 15.2044 15.2362 15.2044 15.2376 15.2044C15.239 15.2044 15.2404 15.2044 15.2418 15.2044C15.2432 15.2044 15.2446 15.2044 15.246 15.2044C15.2474 15.2044 15.2488 15.2044 15.2503 15.2044C15.2517 15.2044 15.2531 15.2044 15.2546 15.2044C15.256 15.2044 15.2574 15.2044 15.2589 15.2044C15.2603 15.2044 15.2618 15.2044 15.2632 15.2044C15.2647 15.2044 15.2661 15.2044 15.2676 15.2044C15.269 15.2044 15.2705 15.2044 15.272 15.2044C15.2734 15.2044 15.2749 15.2044 15.2764 15.2044C15.2779 15.2044 15.2793 15.2044 15.2808 15.2044C15.2823 15.2044 15.2838 15.2044 15.2853 15.2044C15.2868 15.2044 15.2883 15.2044 15.2898 15.2044C15.2913 15.2044 15.2928 15.2044 15.2943 15.2044C15.2958 15.2044 15.2973 15.2044 15.2989 15.2044C15.3004 15.2044 15.3019 15.2044 15.3034 15.2044C15.305 15.2044 15.3065 15.2044 15.308 15.2044C15.3096 15.2044 15.3111 15.2044 15.3126 15.2044C15.3142 15.2044 15.3157 15.2044 15.3173 15.2044C15.3188 15.2044 15.3204 15.2044 15.322 15.2044C15.3235 15.2044 15.3251 15.2044 15.3266 15.2044C15.3282 15.2044 15.3298 15.2044 15.3314 15.2044C15.3329 15.2044 15.3345 15.2044 15.3361 15.2044C15.3377 15.2044 15.3393 15.2044 15.3409 15.2044C15.3425 15.2044 15.3441 15.2044 15.3457 15.2044C15.3473 15.2044 15.3489 15.2044 15.3505 15.2044C15.3521 15.2044 15.3537 15.2044 15.3553 15.2044C15.3569 15.2044 15.3586 15.2044 15.3602 15.2044C15.3618 15.2044 15.3635 15.2044 15.3651 15.2044C15.3667 15.2044 15.3684 15.2044 15.37 15.2044C15.3716 15.2044 15.3733 15.2044 15.3749 15.2044C15.3766 15.2044 15.3783 15.2044 15.3799 15.2044C15.3816 15.2044 15.3832 15.2044 15.3849 15.2044C15.3866 15.2044 15.3882 15.2044 15.3899 15.2044C15.3916 15.2044 15.3933 15.2044 15.395 15.2044C15.3966 15.2044 15.3983 15.2044 15.4 15.2044C15.4017 15.2044 15.4034 15.2044 15.4051 15.2044C15.4068 15.2044 15.4085 15.2044 15.4102 15.2044C15.4119 15.2044 15.4136 15.2044 15.4153 15.2044C15.4171 15.2044 15.4188 15.2044 15.4205 15.2044C15.4222 15.2044 15.424 15.2044 15.4257 15.2044C15.4274 15.2044 15.4291 15.2044 15.4309 15.2044C15.4326 15.2044 15.4344 15.2044 15.4361 15.2044C15.4379 15.2044 15.4396 15.2044 15.4414 15.2044C15.4431 15.2044 15.4449 15.2044 15.4466 15.2044C15.4484 15.2044 15.4502 15.2044 15.452 15.2044C15.4537 15.2044 15.4555 15.2044 15.4573 15.2044C15.4591 15.2044 15.4608 15.2044 15.4626 15.2044C15.4644 15.2044 15.4662 15.2044 15.468 15.2044C15.4698 15.2044 15.4716 15.2044 15.4734 15.2044C15.4752 15.2044 15.477 15.2044 15.4788 15.2044C15.4806 15.2044 15.4824 15.2044 15.4842 15.2044C15.4861 15.2044 15.4879 15.2044 15.4897 15.2044C15.4915 15.2044 15.4934 15.2044 15.4952 15.2044C15.497 15.2044 15.4989 15.2044 15.5007 15.2044C15.5026 15.2044 15.5044 15.2044 15.5062 15.2044C15.5081 15.2044 15.51 15.2044 15.5118 15.2044C15.5137 15.2044 15.5155 15.2044 15.5174 15.2044C15.5193 15.2044 15.5211 15.2044 15.523 15.2044C15.5249 15.2044 15.5267 15.2044 15.5286 15.2044C15.5305 15.2044 15.5324 15.2044 15.5343 15.2044C15.5362 15.2044 15.538 15.2044 15.5399 15.2044C15.5418 15.2044 15.5437 15.2044 15.5456 15.2044C15.5475 15.2044 15.5494 15.2044 15.5514 15.2044C15.5533 15.2044 15.5552 15.2044 15.5571 15.2044C15.559 15.2044 15.5609 15.2044 15.5629 15.2044C15.5648 15.2044 15.5667 15.2044 15.5686 15.2044C15.5706 15.2044 15.5725 15.2044 15.5745 15.2044C15.5764 15.2044 15.5783 15.2044 15.5803 15.2044C15.5822 15.2044 15.5842 15.2044 15.5861 15.2044C15.5881 15.2044 15.5901 15.2044 15.592 15.2044C15.594 15.2044 15.596 15.2044 15.5979 15.2044C15.5999 15.2044 15.6019 15.2044 15.6038 15.2044C15.6058 15.2044 15.6078 15.2044 15.6098 15.2044C15.6118 15.2044 15.6138 15.2044 15.6158 15.2044C15.6177 15.2044 15.6197 15.2044 15.6217 15.2044C15.6237 15.2044 15.6257 15.2044 15.6278 15.2044C15.6298 15.2044 15.6318 15.2044 15.6338 15.2044C15.6358 15.2044 15.6378 15.2044 15.6398 15.2044C15.6419 15.2044 15.6439 15.2044 15.6459 15.2044C15.6479 15.2044 15.65 15.2044 15.652 15.2044C15.6541 15.2044 15.6561 15.2044 15.6581 15.2044C15.6602 15.2044 15.6622 15.2044 15.6643 15.2044C15.6663 15.2044 15.6684 15.2044 15.6704 15.2044C15.6725 15.2044 15.6746 15.2044 15.6766 15.2044C15.6787 15.2044 15.6808 15.2044 15.6828 15.2044C15.6849 15.2044 15.687 15.2044 15.6891 15.2044C15.6911 15.2044 15.6932 15.2044 15.6953 15.2044C15.6974 15.2044 15.6995 15.2044 15.7016 15.2044C15.7037 15.2044 15.7058 15.2044 15.7079 15.2044C15.71 15.2044 15.7121 15.2044 15.7142 15.2044C15.7163 15.2044 15.7184 15.2044 15.7205 15.2044C15.7226 15.2044 15.7248 15.2044 15.7269 15.2044C15.729 15.2044 15.7311 15.2044 15.7333 15.2044C15.7354 15.2044 15.7375 15.2044 15.7397 15.2044C15.7418 15.2044 15.7439 15.2044 15.7461 15.2044C15.7482 15.2044 15.7504 15.2044 15.7525 15.2044C15.7547 15.2044 15.7568 15.2044 15.759 15.2044C15.7612 15.2044 15.7633 15.2044 15.7655 15.2044C15.7677 15.2044 15.7698 15.2044 15.772 15.2044C15.7742 15.2044 15.7763 15.2044 15.7785 15.2044C15.7807 15.2044 15.7829 15.2044 15.7851 15.2044C15.7873 15.2044 15.7894 15.2044 15.7916 15.2044C15.7938 15.2044 15.796 15.2044 15.7982 15.2044C15.8004 15.2044 15.8026 15.2044 15.8048 15.2044C15.807 15.2044 15.8093 15.2044 15.8115 15.2044C15.8137 15.2044 15.8159 15.2044 15.8181 15.2044C15.8203 15.2044 15.8226 15.2044 15.8248 15.2044C15.827 15.2044 15.8293 15.2044 15.8315 15.2044C15.8337 15.2044 15.836 15.2044 15.8382 15.2044C15.8404 15.2044 15.8427 15.2044 15.8449 15.2044C15.8472 15.2044 15.8494 15.2044 15.8517 15.2044C15.8539 15.2044 15.8562 15.2044 15.8585 15.2044C15.8607 15.2044 15.863 15.2044 15.8653 15.2044C15.8675 15.2044 15.8698 15.2044 15.8721 15.2044C15.8744 15.2044 15.8766 15.2044 15.8789 15.2044C15.8812 15.2044 15.8835 15.2044 15.8858 15.2044C15.8881 15.2044 15.8904 15.2044 15.8926 15.2044C15.8949 15.2044 15.8972 15.2044 15.8995 15.2044C15.9018 15.2044 15.9042 15.2044 15.9065 15.2044C15.9088 15.2044 15.9111 15.2044 15.9134 15.2044C15.9157 15.2044 15.918 15.2044 15.9204 15.2044C15.9227 15.2044 15.925 15.2044 15.9273 15.2044C15.9297 15.2044 15.932 15.2044 15.9343 15.2044C15.9367 15.2044 15.939 15.2044 15.9413 15.2044C15.9437 15.2044 15.946 15.2044 15.9484 15.2044C15.9507 15.2044 15.9531 15.2044 15.9554 15.2044C15.9578 15.2044 15.9601 15.2044 15.9625 15.2044C15.9649 15.2044 15.9672 15.2044 15.9696 15.2044C15.972 15.2044 15.9743 15.2044 15.9767 15.2044C15.9791 15.2044 15.9815 15.2044 15.9839 15.2044C15.9862 15.2044 15.9886 15.2044 15.991 15.2044C15.9934 15.2044 15.9958 15.2044 15.9982 15.2044C16.0006 15.2044 16.003 15.2044 16.0054 15.2044C16.0078 15.2044 16.0102 15.2044 16.0126 15.2044C16.015 15.2044 16.0174 15.2044 16.0198 15.2044C16.0222 15.2044 16.0246 15.2044 16.0271 15.2044C16.0295 15.2044 16.0319 15.2044 16.0343 15.2044C16.0368 15.2044 16.0392 15.2044 16.0416 15.2044C16.044 15.2044 16.0465 15.2044 16.0489 15.2044C16.0514 15.2044 16.0538 15.2044 16.0563 15.2044C16.0587 15.2044 16.0611 15.2044 16.0636 15.2044C16.066 15.2044 16.0685 15.2044 16.071 15.2044C16.0734 15.2044 16.0759 15.2044 16.0783 15.2044C16.0808 15.2044 16.0833 15.2044 16.0857 15.2044C16.0882 15.2044 16.0907 15.2044 16.0932 15.2044C16.0956 15.2044 16.0981 15.2044 16.1006 15.2044C16.1031 15.2044 16.1056 15.2044 16.1081 15.2044C16.1105 15.2044 16.113 15.2044 16.1155 15.2044C16.118 15.2044 16.1205 15.2044 16.123 15.2044C16.1255 15.2044 16.128 15.2044 16.1305 15.2044C16.1331 15.2044 16.1356 15.2044 16.1381 15.2044C16.1406 15.2044 16.1431 15.2044 16.1456 15.2044C16.1481 15.2044 16.1507 15.2044 16.1532 15.2044C16.1557 15.2044 16.1582 15.2044 16.1608 15.2044C16.1633 15.2044 16.1658 15.2044 16.1684 15.2044C16.1709 15.2044 16.1735 15.2044 16.176 15.2044C16.1786 15.2044 16.1811 15.2044 16.1837 15.2044C16.1862 15.2044 16.1888 15.2044 16.1913 15.2044C16.1939 15.2044 16.1964 15.2044 16.199 15.2044C16.2016 15.2044 16.2041 15.2044 16.2067 15.2044C16.2093 15.2044 16.2118 15.2044 16.2144 15.2044C16.217 15.2044 16.2195 15.2044 16.2221 15.2044C16.2247 15.2044 16.2273 15.2044 16.2299 15.2044C16.2325 15.2044 16.2351 15.2044 16.2376 15.2044C16.2402 15.2044 16.2428 15.2044 16.2454 15.2044C16.248 15.2044 16.2506 15.2044 16.2532 15.2044C16.2558 15.2044 16.2584 15.2044 16.2611 15.2044C16.2637 15.2044 16.2663 15.2044 16.2689 15.2044C16.2715 15.2044 16.2741 15.2044 16.2767 15.2044C16.2794 15.2044 16.282 15.2044 16.2846 15.2044C16.2872 15.2044 16.2899 15.2044 16.2925 15.2044C16.2951 15.2044 16.2978 15.2044 16.3004 15.2044C16.3031 15.2044 16.3057 15.2044 16.3083 15.2044C16.311 15.2044 16.3136 15.2044 16.3163 15.2044C16.3189 15.2044 16.3216 15.2044 16.3242 15.2044C16.3269 15.2044 16.3296 15.2044 16.3322 15.2044C16.3349 15.2044 16.3376 15.2044 16.3402 15.2044C16.3429 15.2044 16.3456 15.2044 16.3482 15.2044C16.3509 15.2044 16.3536 15.2044 16.3563 15.2044C16.3589 15.2044 16.3616 15.2044 16.3643 15.2044C16.367 15.2044 16.3697 15.2044 16.3724 15.2044C16.3751 15.2044 16.3778 15.2044 16.3804 15.2044C16.3831 15.2044 16.3858 15.2044 16.3885 15.2044C16.3912 15.2044 16.394 15.2044 16.3967 15.2044C16.3994 15.2044 16.4021 15.2044 16.4048 15.2044C16.4075 15.2044 16.4102 15.2044 16.4129 15.2044C16.4157 15.2044 16.4184 15.2044 16.4211 15.2044C16.4238 15.2044 16.4265 15.2044 16.4293 15.2044C16.432 15.2044 16.4347 15.2044 16.4375 15.2044C16.4402 15.2044 16.4429 15.2044 16.4457 15.2044C16.4484 15.2044 16.4512 15.2044 16.4539 15.2044C16.4567 15.2044 16.4594 15.2044 16.4622 15.2044C16.4649 15.2044 16.4677 15.2044 16.4704 15.2044C16.4732 15.2044 16.4759 15.2044 16.4787 15.2044C16.4815 15.2044 16.4842 15.2044 16.487 15.2044C16.4898 15.2044 16.4925 15.2044 16.4953 15.2044C16.4981 15.2044 16.5009 15.2044 16.5036 15.2044C16.5064 15.2044 16.5092 15.2044 16.512 15.2044C16.5148 15.2044 16.5176 15.2044 16.5203 15.2044C16.5231 15.2044 16.5259 15.2044 16.5287 15.2044C16.5315 15.2044 16.5343 15.2044 16.5371 15.2044C16.5399 15.2044 16.5427 15.2044 16.5455 15.2044C16.5483 15.2044 16.5511 15.2044 16.5539 15.2044C16.5568 15.2044 16.5596 15.2044 16.5624 15.2044C16.5652 15.2044 16.568 15.2044 16.5708 15.2044C16.5737 15.2044 16.5765 15.2044 16.5793 15.2044C16.5821 15.2044 16.585 15.2044 16.5878 15.2044C16.5906 15.2044 16.5935 15.2044 16.5963 15.2044C16.5991 15.2044 16.602 15.2044 16.6048 15.2044C16.6077 15.2044 16.6105 15.2044 16.6134 15.2044C16.6162 15.2044 16.6191 15.2044 16.6219 15.2044C16.6248 15.2044 16.6276 15.2044 16.6305 15.2044C16.6333 15.2044 16.6362 15.2044 16.639 15.2044C16.6419 15.2044 16.6448 15.2044 16.6476 15.2044C16.6505 15.2044 16.6534 15.2044 16.6563 15.2044C16.6591 15.2044 16.662 15.2044 16.6649 15.2044C16.6678 15.2044 16.6706 15.2044 16.6735 15.2044C16.6764 15.2044 16.6793 15.2044 16.6822 15.2044C16.6851 15.2044 16.688 15.2044 16.6909 15.2044C16.6937 15.2044 16.6966 15.2044 16.6995 15.2044C16.7024 15.2044 16.7053 15.2044 16.7082 15.2044C16.7111 15.2044 16.714 15.2044 16.717 15.2044C16.7199 15.2044 16.7228 15.2044 16.7257 15.2044C16.7286 15.2044 16.7315 15.2044 16.7344 15.2044C16.7374 15.2044 16.7403 15.2044 16.7432 15.2044C16.7461 15.2044 16.749 15.2044 16.752 15.2044C16.7549 15.2044 16.7578 15.2044 16.7608 15.2044C16.7637 15.2044 16.7666 15.2044 16.7696 15.2044C16.7725 15.2044 16.7754 15.2044 16.7784 15.2044C16.7813 15.2044 16.7843 15.2044 16.7872 15.2044C16.7902 15.2044 16.7931 15.2044 16.7961 15.2044C16.799 15.2044 16.802 15.2044 16.8049 15.2044C16.8079 15.2044 16.8109 15.2044 16.8138 15.2044C16.8168 15.2044 16.8197 15.2044 16.8227 15.2044C16.8257 15.2044 16.8286 15.2044 16.8316 15.2044C16.8346 15.2044 16.8376 15.2044 16.8405 15.2044C16.8435 15.2044 16.8465 15.2044 16.8495 15.2044C16.8525 15.2044 16.8554 15.2044 16.8584 15.2044C16.8614 15.2044 16.8644 15.2044 16.8674 15.2044C16.8704 15.2044 16.8734 15.2044 16.8764 15.2044C16.8794 15.2044 16.8824 15.2044 16.8854 15.2044C16.8884 15.2044 16.8914 15.2044 16.8944 15.2044C16.8974 15.2044 16.9004 15.2044 16.9034 15.2044C16.9064 15.2044 16.9094 15.2044 16.9124 15.2044C16.9154 15.2044 16.9184 15.2044 16.9215 15.2044C16.9245 15.2044 16.9275 15.2044 16.9305 15.2044C16.9335 15.2044 16.9366 15.2044 16.9396 15.2044C16.9426 15.2044 16.9457 15.2044 16.9487 15.2044C16.9517 15.2044 16.9547 15.2044 16.9578 15.2044C16.9608 15.2044 16.9639 15.2044 16.9669 15.2044C16.9699 15.2044 16.973 15.2044 16.976 15.2044C16.9791 15.2044 16.9821 15.2044 16.9852 15.2044C16.9882 15.2044 16.9913 15.2044 16.9943 15.2044C16.9974 15.2044 17.0004 15.2044 17.0035 15.2044C17.0066 15.2044 17.0096 15.2044 17.0127 15.2044C17.0157 15.2044 17.0188 15.2044 17.0219 15.2044C17.0249 15.2044 17.028 15.2044 17.0311 15.2044C17.0342 15.2044 17.0372 15.2044 17.0403 15.2044C17.0434 15.2044 17.0465 15.2044 17.0495 15.2044C17.0526 15.2044 17.0557 15.2044 17.0588 15.2044C17.0619 15.2044 17.065 15.2044 17.0681 15.2044C17.0711 15.2044 17.0742 15.2044 17.0773 15.2044C17.0804 15.2044 17.0835 15.2044 17.0866 15.2044C17.0897 15.2044 17.0928 15.2044 17.0959 15.2044C17.099 15.2044 17.1021 15.2044 17.1052 15.2044C17.1083 15.2044 17.1115 15.2044 17.1146 15.2044C17.1177 15.2044 17.1208 15.2044 17.1239 15.2044C17.127 15.2044 17.1301 15.2044 17.1333 15.2044C17.1364 15.2044 17.1395 15.2044 17.1426 15.2044C17.1457 15.2044 17.1489 15.2044 17.152 15.2044C17.1551 15.2044 17.1583 15.2044 17.1614 15.2044C17.1645 15.2044 17.1677 15.2044 17.1708 15.2044C17.1739 15.2044 17.1771 15.2044 17.1802 15.2044C17.1833 15.2044 17.1865 15.2044 17.1896 15.2044C17.1928 15.2044 17.1959 15.2044 17.1991 15.2044C17.2022 15.2044 17.2054 15.2044 17.2085 15.2044C17.2117 15.2044 17.2148 15.2044 17.218 15.2044C17.2211 15.2044 17.2243 15.2044 17.2275 15.2044C17.2306 15.2044 17.2338 15.2044 17.2369 15.2044C17.2401 15.2044 17.2433 15.2044 17.2465 15.2044C17.2496 15.2044 17.2528 15.2044 17.256 15.2044C17.2591 15.2044 17.2623 15.2044 17.2655 15.2044C17.2687 15.2044 17.2718 15.2044 17.275 15.2044C17.2782 15.2044 17.2814 15.2044 17.2846 15.2044C17.2878 15.2044 17.2909 15.2044 17.2941 15.2044C17.2973 15.2044 17.3005 15.2044 17.3037 15.2044C17.3069 15.2044 17.3101 15.2044 17.3133 15.2044C17.3165 15.2044 17.3197 15.2044 17.3229 15.2044C17.3261 15.2044 17.3293 15.2044 17.3325 15.2044C17.3357 15.2044 17.3389 15.2044 17.3421 15.2044C17.3453 15.2044 17.3485 15.2044 17.3517 15.2044C17.355 15.2044 17.3582 15.2044 17.3614 15.2044C17.3646 15.2044 17.3678 15.2044 17.371 15.2044C17.3743 15.2044 17.3775 15.2044 17.3807 15.2044C17.3839 15.2044 17.3872 15.2044 17.3904 15.2044C17.3936 15.2044 17.3968 15.2044 17.4001 15.2044C17.4033 15.2044 17.4065 15.2044 17.4098 15.2044C17.413 15.2044 17.4162 15.2044 17.4195 15.2044C17.4227 15.2044 17.426 15.2044 17.4292 15.2044C17.4324 15.2044 17.4357 15.2044 17.4389 15.2044C17.4422 15.2044 17.4454 15.2044 17.4487 15.2044C17.4519 15.2044 17.4552 15.2044 17.4584 15.2044C17.4617 15.2044 17.4649 15.2044 17.4682 15.2044C17.4714 15.2044 17.4747 15.2044 17.478 15.2044C17.4812 15.2044 17.4845 15.2044 17.4878 15.2044C17.491 15.2044 17.4943 15.2044 17.4976 15.2044C17.5008 15.2044 17.5041 15.2044 17.5074 15.2044C17.5106 15.2044 17.5139 15.2044 17.5172 15.2044C17.5205 15.2044 17.5237 15.2044 17.527 15.2044C17.5303 15.2044 17.5336 15.2044 17.5369 15.2044C17.5401 15.2044 17.5434 15.2044 17.5467 15.2044C17.55 15.2044 17.5533 15.2044 17.5566 15.2044C17.5599 15.2044 17.5631 15.2044 17.5664 15.2044C17.5697 15.2044 17.573 15.2044 17.5763 15.2044C17.5796 15.2044 17.5829 15.2044 17.5862 15.2044C17.5895 15.2044 17.5928 15.2044 17.5961 15.2044C17.5994 15.2044 17.6027 15.2044 17.606 15.2044C17.6093 15.2044 17.6127 15.2044 17.616 15.2044C17.6193 15.2044 17.6226 15.2044 17.6259 15.2044C17.6292 15.2044 17.6325 15.2044 17.6358 15.2044C17.6392 15.2044 17.6425 15.2044 17.6458 15.2044C17.6491 15.2044 17.6524 15.2044 17.6558 15.2044C17.6591 15.2044 17.6624 15.2044 17.6657 15.2044C17.6691 15.2044 17.6724 15.2044 17.6757 15.2044C17.679 15.2044 17.6824 15.2044 17.6857 15.2044C17.689 15.2044 17.6924 15.2044 17.6957 15.2044C17.6991 15.2044 17.7024 15.2044 17.7057 15.2044C17.7091 15.2044 17.7124 15.2044 17.7158 15.2044C17.7191 15.2044 17.7224 15.2044 17.7258 15.2044C17.7291 15.2044 17.7325 15.2044 17.7358 15.2044C17.7392 15.2044 17.7425 15.2044 17.7459 15.2044C17.7492 15.2044 17.7526 15.2044 17.7559 15.2044C17.7593 15.2044 17.7627 15.2044 17.766 15.2044C17.7694 15.2044 17.7727 15.2044 17.7761 15.2044C17.7795 15.2044 17.7828 15.2044 17.7862 15.2044C17.7896 15.2044 17.7929 15.2044 17.7963 15.2044C17.7997 15.2044 17.803 15.2044 17.8064 15.2044C17.8098 15.2044 17.8131 15.2044 17.8165 15.2044C17.8199 15.2044 17.8233 15.2044 17.8266 15.2044C17.83 15.2044 17.8334 15.2044 17.8368 15.2044C17.8402 15.2044 17.8435 15.2044 17.8469 15.2044C17.8503 15.2044 17.8537 15.2044 17.8571 15.2044C17.8605 15.2044 17.8639 15.2044 17.8673 15.2044C17.8706 15.2044 17.874 15.2044 17.8774 15.2044C17.8808 15.2044 17.8842 15.2044 17.8876 15.2044C17.891 15.2044 17.8944 15.2044 17.8978 15.2044C17.9012 15.2044 17.9046 15.2044 17.908 15.2044C17.9114 15.2044 17.9148 15.2044 17.9182 15.2044C17.9216 15.2044 17.925 15.2044 17.9284 15.2044C17.9318 15.2044 17.9352 15.2044 17.9387 15.2044C17.9421 15.2044 17.9455 15.2044 17.9489 15.2044C17.9523 15.2044 17.9557 15.2044 17.9591 15.2044C17.9625 15.2044 17.966 15.2044 17.9694 15.2044C17.9728 15.2044 17.9762 15.2044 17.9796 15.2044C17.9831 15.2044 17.9865 15.2044 17.9899 15.2044C17.9933 15.2044 17.9968 15.2044 18.0002 15.2044C18.0036 15.2044 18.007 15.2044 18.0105 15.2044C18.0139 15.2044 18.0173 15.2044 18.0208 15.2044C18.0242 15.2044 18.0276 15.2044 18.0311 15.2044C18.0345 15.2044 18.0379 15.2044 18.0414 15.2044C18.0448 15.2044 18.0483 15.2044 18.0517 15.2044C18.0551 15.2044 18.0586 15.2044 18.062 15.2044C18.0655 15.2044 18.0689 15.2044 18.0724 15.2044C18.0758 15.2044 18.0792 15.2044 18.0827 15.2044C18.0861 15.2044 18.0896 15.2044 18.093 15.2044C18.0965 15.2044 18.1 15.2044 18.1034 15.2044C18.1069 15.2044 18.1103 15.2044 18.1138 15.2044C18.1172 15.2044 18.1207 15.2044 18.1241 15.2044C18.1276 15.2044 18.1311 15.2044 18.1345 15.2044V13.7044ZM15.6753 14.4544C15.6753 12.978 16.8522 11.7044 18.1345 11.7044V10.2044C15.872 10.2044 14.1753 12.31 14.1753 14.4544H15.6753ZM18.1345 11.7044C19.4168 11.7044 20.5938 12.978 20.5938 14.4544H22.0937C22.0937 12.31 20.397 10.2044 18.1345 10.2044V11.7044ZM17.3845 9.99988V10.4096H18.8845V9.99988H17.3845ZM14.6303 18.7953H7.34375V20.2953H14.6303V18.7953Z" fill="#C0C0C0"/>
</svg>
