<svg width="24" height="24" viewBox="0 0 24 24" fill="none" xmlns="http://www.w3.org/2000/svg">
<path d="M1 20L0.271502 19.8217C0.216752 20.0454 0.267811 20.2818 0.409989 20.463C0.552167 20.6442 0.7697 20.75 1 20.75L1 20ZM12.4502 20V20.75C12.6657 20.75 12.8708 20.6573 13.0132 20.4956C13.1555 20.3339 13.2215 20.1187 13.1942 19.905L12.4502 20ZM23 12V12.75C23.4142 12.75 23.75 12.4142 23.75 12H23ZM12.9139 12H12.1639C12.1639 12.4142 12.4997 12.75 12.9139 12.75V12ZM18.7069 5C18.7069 4.58579 18.3711 4.25 17.9569 4.25C17.5427 4.25 17.2069 4.58579 17.2069 5H18.7069ZM17.2069 5.6439C17.2069 6.05812 17.5427 6.3939 17.9569 6.3939C18.3711 6.3939 18.7069 6.05812 18.7069 5.6439H17.2069ZM9.32742 9.5C9.32742 11.0209 8.10113 12.25 6.65 12.25V13.75C8.9589 13.75 10.8274 11.8197 10.8274 9.5H9.32742ZM6.65 12.25C5.21206 12.25 4.01929 11.0345 4.01929 9.5H2.51929C2.51929 11.8061 4.32791 13.75 6.65 13.75V12.25ZM4.01929 9.5C4.01929 7.96546 5.21206 6.75 6.65 6.75V5.25C4.32791 5.25 2.51929 7.19387 2.51929 9.5H4.01929ZM6.65 6.75C8.10113 6.75 9.32742 7.97906 9.32742 9.5H10.8274C10.8274 7.18027 8.9589 5.25 6.65 5.25V6.75ZM1.7285 20.1783C2.03609 18.9215 2.50718 17.5387 3.29413 16.4822C4.05856 15.4559 5.10593 14.75 6.65 14.75V13.25C4.54407 13.25 3.08163 14.2563 2.09116 15.5861C1.1232 16.8857 0.594293 18.5028 0.271502 19.8217L1.7285 20.1783ZM6.65 14.75C9.45994 14.75 11.3519 17.32 11.7063 20.095L13.1942 19.905C12.7921 16.7561 10.5401 13.25 6.65 13.25V14.75ZM23 12C23 11.25 23 11.25 23 11.25C23 11.25 22.9999 11.25 22.9999 11.25C22.9999 11.25 22.9998 11.25 22.9998 11.25C22.9997 11.25 22.9997 11.25 22.9996 11.25C22.9995 11.25 22.9994 11.25 22.9994 11.25C22.9993 11.25 22.9992 11.25 22.9991 11.25C22.999 11.25 22.9989 11.25 22.9987 11.25C22.9986 11.25 22.9985 11.25 22.9984 11.25C22.9982 11.25 22.9981 11.25 22.9979 11.25C22.9978 11.25 22.9976 11.25 22.9974 11.25C22.9973 11.25 22.9971 11.25 22.9969 11.25C22.9967 11.25 22.9965 11.25 22.9963 11.25C22.9961 11.25 22.9959 11.25 22.9957 11.25C22.9954 11.25 22.9952 11.25 22.995 11.25C22.9947 11.25 22.9945 11.25 22.9942 11.25C22.994 11.25 22.9937 11.25 22.9934 11.25C22.9932 11.25 22.9929 11.25 22.9926 11.25C22.9923 11.25 22.992 11.25 22.9917 11.25C22.9914 11.25 22.9911 11.25 22.9908 11.25C22.9904 11.25 22.9901 11.25 22.9898 11.25C22.9894 11.25 22.9891 11.25 22.9887 11.25C22.9884 11.25 22.988 11.25 22.9876 11.25C22.9873 11.25 22.9869 11.25 22.9865 11.25C22.9861 11.25 22.9857 11.25 22.9853 11.25C22.9849 11.25 22.9845 11.25 22.9841 11.25C22.9836 11.25 22.9832 11.25 22.9828 11.25C22.9823 11.25 22.9819 11.25 22.9814 11.25C22.981 11.25 22.9805 11.25 22.98 11.25C22.9796 11.25 22.9791 11.25 22.9786 11.25C22.9781 11.25 22.9776 11.25 22.9771 11.25C22.9766 11.25 22.9761 11.25 22.9756 11.25C22.975 11.25 22.9745 11.25 22.974 11.25C22.9734 11.25 22.9729 11.25 22.9723 11.25C22.9718 11.25 22.9712 11.25 22.9706 11.25C22.9701 11.25 22.9695 11.25 22.9689 11.25C22.9683 11.25 22.9677 11.25 22.9671 11.25C22.9665 11.25 22.9659 11.25 22.9653 11.25C22.9647 11.25 22.964 11.25 22.9634 11.25C22.9628 11.25 22.9621 11.25 22.9615 11.25C22.9608 11.25 22.9602 11.25 22.9595 11.25C22.9588 11.25 22.9581 11.25 22.9575 11.25C22.9568 11.25 22.9561 11.25 22.9554 11.25C22.9547 11.25 22.954 11.25 22.9532 11.25C22.9525 11.25 22.9518 11.25 22.9511 11.25C22.9503 11.25 22.9496 11.25 22.9489 11.25C22.9481 11.25 22.9473 11.25 22.9466 11.25C22.9458 11.25 22.945 11.25 22.9443 11.25C22.9435 11.25 22.9427 11.25 22.9419 11.25C22.9411 11.25 22.9403 11.25 22.9395 11.25C22.9387 11.25 22.9378 11.25 22.937 11.25C22.9362 11.25 22.9353 11.25 22.9345 11.25C22.9337 11.25 22.9328 11.25 22.9319 11.25C22.9311 11.25 22.9302 11.25 22.9293 11.25C22.9285 11.25 22.9276 11.25 22.9267 11.25C22.9258 11.25 22.9249 11.25 22.924 11.25C22.9231 11.25 22.9222 11.25 22.9212 11.25C22.9203 11.25 22.9194 11.25 22.9184 11.25C22.9175 11.25 22.9165 11.25 22.9156 11.25C22.9146 11.25 22.9137 11.25 22.9127 11.25C22.9117 11.25 22.9108 11.25 22.9098 11.25C22.9088 11.25 22.9078 11.25 22.9068 11.25C22.9058 11.25 22.9048 11.25 22.9037 11.25C22.9027 11.25 22.9017 11.25 22.9007 11.25C22.8996 11.25 22.8986 11.25 22.8975 11.25C22.8965 11.25 22.8954 11.25 22.8944 11.25C22.8933 11.25 22.8922 11.25 22.8912 11.25C22.8901 11.25 22.889 11.25 22.8879 11.25C22.8868 11.25 22.8857 11.25 22.8846 11.25C22.8835 11.25 22.8823 11.25 22.8812 11.25C22.8801 11.25 22.879 11.25 22.8778 11.25C22.8767 11.25 22.8755 11.25 22.8744 11.25C22.8732 11.25 22.872 11.25 22.8709 11.25C22.8697 11.25 22.8685 11.25 22.8673 11.25C22.8661 11.25 22.8649 11.25 22.8637 11.25C22.8625 11.25 22.8613 11.25 22.8601 11.25C22.8589 11.25 22.8576 11.25 22.8564 11.25C22.8552 11.25 22.8539 11.25 22.8527 11.25C22.8514 11.25 22.8502 11.25 22.8489 11.25C22.8476 11.25 22.8464 11.25 22.8451 11.25C22.8438 11.25 22.8425 11.25 22.8412 11.25C22.8399 11.25 22.8386 11.25 22.8373 11.25C22.836 11.25 22.8347 11.25 22.8334 11.25C22.832 11.25 22.8307 11.25 22.8294 11.25C22.828 11.25 22.8267 11.25 22.8253 11.25C22.824 11.25 22.8226 11.25 22.8212 11.25C22.8199 11.25 22.8185 11.25 22.8171 11.25C22.8157 11.25 22.8143 11.25 22.8129 11.25C22.8115 11.25 22.8101 11.25 22.8087 11.25C22.8073 11.25 22.8058 11.25 22.8044 11.25C22.803 11.25 22.8015 11.25 22.8001 11.25C22.7987 11.25 22.7972 11.25 22.7957 11.25C22.7943 11.25 22.7928 11.25 22.7913 11.25C22.7899 11.25 22.7884 11.25 22.7869 11.25C22.7854 11.25 22.7839 11.25 22.7824 11.25C22.7809 11.25 22.7794 11.25 22.7779 11.25C22.7763 11.25 22.7748 11.25 22.7733 11.25C22.7717 11.25 22.7702 11.25 22.7686 11.25C22.7671 11.25 22.7655 11.25 22.764 11.25C22.7624 11.25 22.7608 11.25 22.7593 11.25C22.7577 11.25 22.7561 11.25 22.7545 11.25C22.7529 11.25 22.7513 11.25 22.7497 11.25C22.7481 11.25 22.7465 11.25 22.7449 11.25C22.7432 11.25 22.7416 11.25 22.74 11.25C22.7383 11.25 22.7367 11.25 22.735 11.25C22.7334 11.25 22.7317 11.25 22.73 11.25C22.7284 11.25 22.7267 11.25 22.725 11.25C22.7233 11.25 22.7217 11.25 22.72 11.25C22.7183 11.25 22.7166 11.25 22.7149 11.25C22.7131 11.25 22.7114 11.25 22.7097 11.25C22.708 11.25 22.7062 11.25 22.7045 11.25C22.7028 11.25 22.701 11.25 22.6993 11.25C22.6975 11.25 22.6958 11.25 22.694 11.25C22.6922 11.25 22.6904 11.25 22.6887 11.25C22.6869 11.25 22.6851 11.25 22.6833 11.25C22.6815 11.25 22.6797 11.25 22.6779 11.25C22.6761 11.25 22.6743 11.25 22.6724 11.25C22.6706 11.25 22.6688 11.25 22.6669 11.25C22.6651 11.25 22.6633 11.25 22.6614 11.25C22.6595 11.25 22.6577 11.25 22.6558 11.25C22.654 11.25 22.6521 11.25 22.6502 11.25C22.6483 11.25 22.6464 11.25 22.6445 11.25C22.6426 11.25 22.6407 11.25 22.6388 11.25C22.6369 11.25 22.635 11.25 22.6331 11.25C22.6311 11.25 22.6292 11.25 22.6273 11.25C22.6253 11.25 22.6234 11.25 22.6214 11.25C22.6195 11.25 22.6175 11.25 22.6156 11.25C22.6136 11.25 22.6116 11.25 22.6097 11.25C22.6077 11.25 22.6057 11.25 22.6037 11.25C22.6017 11.25 22.5997 11.25 22.5977 11.25C22.5957 11.25 22.5937 11.25 22.5916 11.25C22.5896 11.25 22.5876 11.25 22.5856 11.25C22.5835 11.25 22.5815 11.25 22.5794 11.25C22.5774 11.25 22.5753 11.25 22.5733 11.25C22.5712 11.25 22.5691 11.25 22.5671 11.25C22.565 11.25 22.5629 11.25 22.5608 11.25C22.5587 11.25 22.5566 11.25 22.5545 11.25C22.5524 11.25 22.5503 11.25 22.5482 11.25C22.5461 11.25 22.5439 11.25 22.5418 11.25C22.5397 11.25 22.5375 11.25 22.5354 11.25C22.5332 11.25 22.5311 11.25 22.5289 11.25C22.5268 11.25 22.5246 11.25 22.5224 11.25C22.5203 11.25 22.5181 11.25 22.5159 11.25C22.5137 11.25 22.5115 11.25 22.5093 11.25C22.5071 11.25 22.5049 11.25 22.5027 11.25C22.5005 11.25 22.4983 11.25 22.496 11.25C22.4938 11.25 22.4916 11.25 22.4893 11.25C22.4871 11.25 22.4849 11.25 22.4826 11.25C22.4803 11.25 22.4781 11.25 22.4758 11.25C22.4736 11.25 22.4713 11.25 22.469 11.25C22.4667 11.25 22.4644 11.25 22.4621 11.25C22.4598 11.25 22.4575 11.25 22.4552 11.25C22.4529 11.25 22.4506 11.25 22.4483 11.25C22.446 11.25 22.4436 11.25 22.4413 11.25C22.439 11.25 22.4366 11.25 22.4343 11.25C22.4319 11.25 22.4296 11.25 22.4272 11.25C22.4249 11.25 22.4225 11.25 22.4201 11.25C22.4178 11.25 22.4154 11.25 22.413 11.25C22.4106 11.25 22.4082 11.25 22.4058 11.25C22.4034 11.25 22.401 11.25 22.3986 11.25C22.3962 11.25 22.3938 11.25 22.3913 11.25C22.3889 11.25 22.3865 11.25 22.384 11.25C22.3816 11.25 22.3791 11.25 22.3767 11.25C22.3742 11.25 22.3718 11.25 22.3693 11.25C22.3669 11.25 22.3644 11.25 22.3619 11.25C22.3594 11.25 22.3569 11.25 22.3544 11.25C22.352 11.25 22.3495 11.25 22.347 11.25C22.3444 11.25 22.3419 11.25 22.3394 11.25C22.3369 11.25 22.3344 11.25 22.3319 11.25C22.3293 11.25 22.3268 11.25 22.3242 11.25C22.3217 11.25 22.3192 11.25 22.3166 11.25C22.314 11.25 22.3115 11.25 22.3089 11.25C22.3063 11.25 22.3038 11.25 22.3012 11.25C22.2986 11.25 22.296 11.25 22.2934 11.25C22.2908 11.25 22.2882 11.25 22.2856 11.25C22.283 11.25 22.2804 11.25 22.2778 11.25C22.2752 11.25 22.2725 11.25 22.2699 11.25C22.2673 11.25 22.2646 11.25 22.262 11.25C22.2593 11.25 22.2567 11.25 22.254 11.25C22.2514 11.25 22.2487 11.25 22.246 11.25C22.2434 11.25 22.2407 11.25 22.238 11.25C22.2353 11.25 22.2326 11.25 22.2299 11.25C22.2272 11.25 22.2245 11.25 22.2218 11.25C22.2191 11.25 22.2164 11.25 22.2137 11.25C22.211 11.25 22.2082 11.25 22.2055 11.25C22.2028 11.25 22.2 11.25 22.1973 11.25C22.1945 11.25 22.1918 11.25 22.189 11.25C22.1863 11.25 22.1835 11.25 22.1807 11.25C22.178 11.25 22.1752 11.25 22.1724 11.25C22.1696 11.25 22.1668 11.25 22.164 11.25C22.1613 11.25 22.1585 11.25 22.1556 11.25C22.1528 11.25 22.15 11.25 22.1472 11.25C22.1444 11.25 22.1416 11.25 22.1387 11.25C22.1359 11.25 22.1331 11.25 22.1302 11.25C22.1274 11.25 22.1245 11.25 22.1217 11.25C22.1188 11.25 22.1159 11.25 22.1131 11.25C22.1102 11.25 22.1073 11.25 22.1044 11.25C22.1016 11.25 22.0987 11.25 22.0958 11.25C22.0929 11.25 22.09 11.25 22.0871 11.25C22.0842 11.25 22.0813 11.25 22.0784 11.25C22.0754 11.25 22.0725 11.25 22.0696 11.25C22.0667 11.25 22.0637 11.25 22.0608 11.25C22.0578 11.25 22.0549 11.25 22.0519 11.25C22.049 11.25 22.046 11.25 22.0431 11.25C22.0401 11.25 22.0371 11.25 22.0341 11.25C22.0312 11.25 22.0282 11.25 22.0252 11.25C22.0222 11.25 22.0192 11.25 22.0162 11.25C22.0132 11.25 22.0102 11.25 22.0072 11.25C22.0042 11.25 22.0011 11.25 21.9981 11.25C21.9951 11.25 21.9921 11.25 21.989 11.25C21.986 11.25 21.9829 11.25 21.9799 11.25C21.9769 11.25 21.9738 11.25 21.9707 11.25C21.9677 11.25 21.9646 11.25 21.9615 11.25C21.9585 11.25 21.9554 11.25 21.9523 11.25C21.9492 11.25 21.9461 11.25 21.943 11.25C21.9399 11.25 21.9368 11.25 21.9337 11.25C21.9306 11.25 21.9275 11.25 21.9244 11.25C21.9213 11.25 21.9181 11.25 21.915 11.25C21.9119 11.25 21.9087 11.25 21.9056 11.25C21.9025 11.25 21.8993 11.25 21.8962 11.25C21.893 11.25 21.8898 11.25 21.8867 11.25C21.8835 11.25 21.8803 11.25 21.8772 11.25C21.874 11.25 21.8708 11.25 21.8676 11.25C21.8644 11.25 21.8612 11.25 21.858 11.25C21.8548 11.25 21.8516 11.25 21.8484 11.25C21.8452 11.25 21.842 11.25 21.8388 11.25C21.8355 11.25 21.8323 11.25 21.8291 11.25C21.8258 11.25 21.8226 11.25 21.8193 11.25C21.8161 11.25 21.8129 11.25 21.8096 11.25C21.8063 11.25 21.8031 11.25 21.7998 11.25C21.7965 11.25 21.7933 11.25 21.79 11.25C21.7867 11.25 21.7834 11.25 21.7801 11.25C21.7768 11.25 21.7735 11.25 21.7702 11.25C21.7669 11.25 21.7636 11.25 21.7603 11.25C21.757 11.25 21.7537 11.25 21.7504 11.25C21.747 11.25 21.7437 11.25 21.7404 11.25C21.737 11.25 21.7337 11.25 21.7303 11.25C21.727 11.25 21.7236 11.25 21.7203 11.25C21.7169 11.25 21.7136 11.25 21.7102 11.25C21.7068 11.25 21.7034 11.25 21.7001 11.25C21.6967 11.25 21.6933 11.25 21.6899 11.25C21.6865 11.25 21.6831 11.25 21.6797 11.25C21.6763 11.25 21.6729 11.25 21.6695 11.25C21.6661 11.25 21.6627 11.25 21.6592 11.25C21.6558 11.25 21.6524 11.25 21.6489 11.25C21.6455 11.25 21.6421 11.25 21.6386 11.25C21.6352 11.25 21.6317 11.25 21.6283 11.25C21.6248 11.25 21.6213 11.25 21.6179 11.25C21.6144 11.25 21.6109 11.25 21.6075 11.25C21.604 11.25 21.6005 11.25 21.597 11.25C21.5935 11.25 21.59 11.25 21.5865 11.25C21.583 11.25 21.5795 11.25 21.576 11.25C21.5725 11.25 21.569 11.25 21.5654 11.25C21.5619 11.25 21.5584 11.25 21.5549 11.25C21.5513 11.25 21.5478 11.25 21.5442 11.25C21.5407 11.25 21.5372 11.25 21.5336 11.25C21.53 11.25 21.5265 11.25 21.5229 11.25C21.5194 11.25 21.5158 11.25 21.5122 11.25C21.5086 11.25 21.5051 11.25 21.5015 11.25C21.4979 11.25 21.4943 11.25 21.4907 11.25C21.4871 11.25 21.4835 11.25 21.4799 11.25C21.4763 11.25 21.4727 11.25 21.4691 11.25C21.4654 11.25 21.4618 11.25 21.4582 11.25C21.4546 11.25 21.4509 11.25 21.4473 11.25C21.4436 11.25 21.44 11.25 21.4363 11.25C21.4327 11.25 21.429 11.25 21.4254 11.25C21.4217 11.25 21.4181 11.25 21.4144 11.25C21.4107 11.25 21.407 11.25 21.4034 11.25C21.3997 11.25 21.396 11.25 21.3923 11.25C21.3886 11.25 21.3849 11.25 21.3812 11.25C21.3775 11.25 21.3738 11.25 21.3701 11.25C21.3664 11.25 21.3627 11.25 21.359 11.25C21.3552 11.25 21.3515 11.25 21.3478 11.25C21.344 11.25 21.3403 11.25 21.3366 11.25C21.3328 11.25 21.3291 11.25 21.3253 11.25C21.3216 11.25 21.3178 11.25 21.3141 11.25C21.3103 11.25 21.3065 11.25 21.3028 11.25C21.299 11.25 21.2952 11.25 21.2914 11.25C21.2876 11.25 21.2839 11.25 21.2801 11.25C21.2763 11.25 21.2725 11.25 21.2687 11.25C21.2649 11.25 21.2611 11.25 21.2572 11.25C21.2534 11.25 21.2496 11.25 21.2458 11.25C21.242 11.25 21.2381 11.25 21.2343 11.25C21.2305 11.25 21.2266 11.25 21.2228 11.25C21.219 11.25 21.2151 11.25 21.2113 11.25C21.2074 11.25 21.2035 11.25 21.1997 11.25C21.1958 11.25 21.192 11.25 21.1881 11.25C21.1842 11.25 21.1803 11.25 21.1765 11.25C21.1726 11.25 21.1687 11.25 21.1648 11.25C21.1609 11.25 21.157 11.25 21.1531 11.25C21.1492 11.25 21.1453 11.25 21.1414 11.25C21.1375 11.25 21.1336 11.25 21.1296 11.25C21.1257 11.25 21.1218 11.25 21.1179 11.25C21.1139 11.25 21.11 11.25 21.1061 11.25C21.1021 11.25 21.0982 11.25 21.0942 11.25C21.0903 11.25 21.0863 11.25 21.0824 11.25C21.0784 11.25 21.0744 11.25 21.0705 11.25C21.0665 11.25 21.0625 11.25 21.0585 11.25C21.0546 11.25 21.0506 11.25 21.0466 11.25C21.0426 11.25 21.0386 11.25 21.0346 11.25C21.0306 11.25 21.0266 11.25 21.0226 11.25C21.0186 11.25 21.0146 11.25 21.0106 11.25C21.0065 11.25 21.0025 11.25 20.9985 11.25C20.9945 11.25 20.9904 11.25 20.9864 11.25C20.9824 11.25 20.9783 11.25 20.9743 11.25C20.9702 11.25 20.9662 11.25 20.9621 11.25C20.9581 11.25 20.954 11.25 20.95 11.25C20.9459 11.25 20.9418 11.25 20.9377 11.25C20.9337 11.25 20.9296 11.25 20.9255 11.25C20.9214 11.25 20.9173 11.25 20.9133 11.25C20.9092 11.25 20.9051 11.25 20.901 11.25C20.8969 11.25 20.8928 11.25 20.8886 11.25C20.8845 11.25 20.8804 11.25 20.8763 11.25C20.8722 11.25 20.8681 11.25 20.8639 11.25C20.8598 11.25 20.8557 11.25 20.8515 11.25C20.8474 11.25 20.8433 11.25 20.8391 11.25C20.835 11.25 20.8308 11.25 20.8267 11.25C20.8225 11.25 20.8183 11.25 20.8142 11.25C20.81 11.25 20.8058 11.25 20.8017 11.25C20.7975 11.25 20.7933 11.25 20.7891 11.25C20.7849 11.25 20.7808 11.25 20.7766 11.25C20.7724 11.25 20.7682 11.25 20.764 11.25C20.7598 11.25 20.7556 11.25 20.7514 11.25C20.7471 11.25 20.7429 11.25 20.7387 11.25C20.7345 11.25 20.7303 11.25 20.726 11.25C20.7218 11.25 20.7176 11.25 20.7133 11.25C20.7091 11.25 20.7049 11.25 20.7006 11.25C20.6964 11.25 20.6921 11.25 20.6879 11.25C20.6836 11.25 20.6794 11.25 20.6751 11.25C20.6708 11.25 20.6666 11.25 20.6623 11.25C20.658 11.25 20.6537 11.25 20.6495 11.25C20.6452 11.25 20.6409 11.25 20.6366 11.25C20.6323 11.25 20.628 11.25 20.6237 11.25C20.6194 11.25 20.6151 11.25 20.6108 11.25C20.6065 11.25 20.6022 11.25 20.5979 11.25C20.5936 11.25 20.5893 11.25 20.5849 11.25C20.5806 11.25 20.5763 11.25 20.5719 11.25C20.5676 11.25 20.5633 11.25 20.5589 11.25C20.5546 11.25 20.5503 11.25 20.5459 11.25C20.5416 11.25 20.5372 11.25 20.5328 11.25C20.5285 11.25 20.5241 11.25 20.5198 11.25C20.5154 11.25 20.511 11.25 20.5066 11.25C20.5023 11.25 20.4979 11.25 20.4935 11.25C20.4891 11.25 20.4847 11.25 20.4803 11.25C20.476 11.25 20.4716 11.25 20.4672 11.25C20.4628 11.25 20.4584 11.25 20.4539 11.25C20.4495 11.25 20.4451 11.25 20.4407 11.25C20.4363 11.25 20.4319 11.25 20.4274 11.25C20.423 11.25 20.4186 11.25 20.4142 11.25C20.4097 11.25 20.4053 11.25 20.4008 11.25C20.3964 11.25 20.392 11.25 20.3875 11.25C20.3831 11.25 20.3786 11.25 20.3741 11.25C20.3697 11.25 20.3652 11.25 20.3608 11.25C20.3563 11.25 20.3518 11.25 20.3473 11.25C20.3429 11.25 20.3384 11.25 20.3339 11.25C20.3294 11.25 20.3249 11.25 20.3205 11.25C20.316 11.25 20.3115 11.25 20.307 11.25C20.3025 11.25 20.298 11.25 20.2935 11.25C20.289 11.25 20.2844 11.25 20.2799 11.25C20.2754 11.25 20.2709 11.25 20.2664 11.25C20.2619 11.25 20.2573 11.25 20.2528 11.25C20.2483 11.25 20.2437 11.25 20.2392 11.25C20.2347 11.25 20.2301 11.25 20.2256 11.25C20.221 11.25 20.2165 11.25 20.2119 11.25C20.2074 11.25 20.2028 11.25 20.1982 11.25C20.1937 11.25 20.1891 11.25 20.1845 11.25C20.18 11.25 20.1754 11.25 20.1708 11.25C20.1662 11.25 20.1617 11.25 20.1571 11.25C20.1525 11.25 20.1479 11.25 20.1433 11.25C20.1387 11.25 20.1341 11.25 20.1295 11.25C20.1249 11.25 20.1203 11.25 20.1157 11.25C20.1111 11.25 20.1065 11.25 20.1019 11.25C20.0973 11.25 20.0926 11.25 20.088 11.25C20.0834 11.25 20.0788 11.25 20.0741 11.25C20.0695 11.25 20.0649 11.25 20.0602 11.25C20.0556 11.25 20.0509 11.25 20.0463 11.25C20.0416 11.25 20.037 11.25 20.0323 11.25C20.0277 11.25 20.023 11.25 20.0184 11.25C20.0137 11.25 20.009 11.25 20.0044 11.25C19.9997 11.25 19.995 11.25 19.9904 11.25C19.9857 11.25 19.981 11.25 19.9763 11.25C19.9716 11.25 19.9669 11.25 19.9622 11.25C19.9576 11.25 19.9529 11.25 19.9482 11.25C19.9435 11.25 19.9388 11.25 19.9341 11.25C19.9293 11.25 19.9246 11.25 19.9199 11.25C19.9152 11.25 19.9105 11.25 19.9058 11.25C19.9011 11.25 19.8963 11.25 19.8916 11.25C19.8869 11.25 19.8821 11.25 19.8774 11.25C19.8727 11.25 19.8679 11.25 19.8632 11.25C19.8584 11.25 19.8537 11.25 19.8489 11.25C19.8442 11.25 19.8394 11.25 19.8347 11.25C19.8299 11.25 19.8252 11.25 19.8204 11.25C19.8156 11.25 19.8109 11.25 19.8061 11.25C19.8013 11.25 19.7966 11.25 19.7918 11.25C19.787 11.25 19.7822 11.25 19.7774 11.25C19.7726 11.25 19.7679 11.25 19.7631 11.25C19.7583 11.25 19.7535 11.25 19.7487 11.25C19.7439 11.25 19.7391 11.25 19.7343 11.25C19.7295 11.25 19.7246 11.25 19.7198 11.25C19.715 11.25 19.7102 11.25 19.7054 11.25C19.7006 11.25 19.6957 11.25 19.6909 11.25C19.6861 11.25 19.6813 11.25 19.6764 11.25C19.6716 11.25 19.6667 11.25 19.6619 11.25C19.6571 11.25 19.6522 11.25 19.6474 11.25C19.6425 11.25 19.6377 11.25 19.6328 11.25C19.628 11.25 19.6231 11.25 19.6182 11.25C19.6134 11.25 19.6085 11.25 19.6036 11.25C19.5988 11.25 19.5939 11.25 19.589 11.25C19.5842 11.25 19.5793 11.25 19.5744 11.25C19.5695 11.25 19.5646 11.25 19.5597 11.25C19.5548 11.25 19.55 11.25 19.5451 11.25C19.5402 11.25 19.5353 11.25 19.5304 11.25C19.5255 11.25 19.5206 11.25 19.5156 11.25C19.5107 11.25 19.5058 11.25 19.5009 11.25C19.496 11.25 19.4911 11.25 19.4862 11.25C19.4812 11.25 19.4763 11.25 19.4714 11.25C19.4665 11.25 19.4615 11.25 19.4566 11.25C19.4517 11.25 19.4467 11.25 19.4418 11.25C19.4368 11.25 19.4319 11.25 19.4269 11.25C19.422 11.25 19.417 11.25 19.4121 11.25C19.4071 11.25 19.4022 11.25 19.3972 11.25C19.3923 11.25 19.3873 11.25 19.3823 11.25C19.3774 11.25 19.3724 11.25 19.3674 11.25C19.3624 11.25 19.3575 11.25 19.3525 11.25C19.3475 11.25 19.3425 11.25 19.3375 11.25C19.3326 11.25 19.3276 11.25 19.3226 11.25C19.3176 11.25 19.3126 11.25 19.3076 11.25C19.3026 11.25 19.2976 11.25 19.2926 11.25C19.2876 11.25 19.2826 11.25 19.2776 11.25C19.2725 11.25 19.2675 11.25 19.2625 11.25C19.2575 11.25 19.2525 11.25 19.2475 11.25C19.2424 11.25 19.2374 11.25 19.2324 11.25C19.2273 11.25 19.2223 11.25 19.2173 11.25C19.2122 11.25 19.2072 11.25 19.2022 11.25C19.1971 11.25 19.1921 11.25 19.187 11.25C19.182 11.25 19.1769 11.25 19.1719 11.25C19.1668 11.25 19.1618 11.25 19.1567 11.25C19.1516 11.25 19.1466 11.25 19.1415 11.25C19.1365 11.25 19.1314 11.25 19.1263 11.25C19.1212 11.25 19.1162 11.25 19.1111 11.25C19.106 11.25 19.1009 11.25 19.0958 11.25C19.0908 11.25 19.0857 11.25 19.0806 11.25C19.0755 11.25 19.0704 11.25 19.0653 11.25C19.0602 11.25 19.0551 11.25 19.05 11.25C19.0449 11.25 19.0398 11.25 19.0347 11.25C19.0296 11.25 19.0245 11.25 19.0194 11.25C19.0143 11.25 19.0092 11.25 19.004 11.25C18.9989 11.25 18.9938 11.25 18.9887 11.25C18.9835 11.25 18.9784 11.25 18.9733 11.25C18.9682 11.25 18.963 11.25 18.9579 11.25C18.9528 11.25 18.9476 11.25 18.9425 11.25C18.9373 11.25 18.9322 11.25 18.927 11.25C18.9219 11.25 18.9168 11.25 18.9116 11.25C18.9064 11.25 18.9013 11.25 18.8961 11.25C18.891 11.25 18.8858 11.25 18.8807 11.25C18.8755 11.25 18.8703 11.25 18.8652 11.25C18.86 11.25 18.8548 11.25 18.8496 11.25C18.8445 11.25 18.8393 11.25 18.8341 11.25C18.8289 11.25 18.8237 11.25 18.8186 11.25C18.8134 11.25 18.8082 11.25 18.803 11.25C18.7978 11.25 18.7926 11.25 18.7874 11.25C18.7822 11.25 18.777 11.25 18.7718 11.25C18.7666 11.25 18.7614 11.25 18.7562 11.25C18.751 11.25 18.7458 11.25 18.7406 11.25C18.7354 11.25 18.7302 11.25 18.7249 11.25C18.7197 11.25 18.7145 11.25 18.7093 11.25C18.7041 11.25 18.6988 11.25 18.6936 11.25C18.6884 11.25 18.6832 11.25 18.6779 11.25C18.6727 11.25 18.6675 11.25 18.6622 11.25C18.657 11.25 18.6517 11.25 18.6465 11.25C18.6413 11.25 18.636 11.25 18.6308 11.25C18.6255 11.25 18.6203 11.25 18.615 11.25C18.6098 11.25 18.6045 11.25 18.5992 11.25C18.594 11.25 18.5887 11.25 18.5835 11.25C18.5782 11.25 18.5729 11.25 18.5677 11.25C18.5624 11.25 18.5571 11.25 18.5518 11.25C18.5466 11.25 18.5413 11.25 18.536 11.25C18.5307 11.25 18.5255 11.25 18.5202 11.25C18.5149 11.25 18.5096 11.25 18.5043 11.25C18.499 11.25 18.4937 11.25 18.4884 11.25C18.4832 11.25 18.4779 11.25 18.4726 11.25C18.4673 11.25 18.462 11.25 18.4567 11.25C18.4514 11.25 18.4461 11.25 18.4407 11.25C18.4354 11.25 18.4301 11.25 18.4248 11.25C18.4195 11.25 18.4142 11.25 18.4089 11.25C18.4036 11.25 18.3982 11.25 18.3929 11.25C18.3876 11.25 18.3823 11.25 18.3769 11.25C18.3716 11.25 18.3663 11.25 18.361 11.25C18.3556 11.25 18.3503 11.25 18.345 11.25C18.3396 11.25 18.3343 11.25 18.3289 11.25C18.3236 11.25 18.3183 11.25 18.3129 11.25C18.3076 11.25 18.3022 11.25 18.2969 11.25C18.2915 11.25 18.2862 11.25 18.2808 11.25C18.2755 11.25 18.2701 11.25 18.2647 11.25C18.2594 11.25 18.254 11.25 18.2487 11.25C18.2433 11.25 18.2379 11.25 18.2326 11.25C18.2272 11.25 18.2218 11.25 18.2165 11.25C18.2111 11.25 18.2057 11.25 18.2003 11.25C18.195 11.25 18.1896 11.25 18.1842 11.25C18.1788 11.25 18.1734 11.25 18.168 11.25C18.1627 11.25 18.1573 11.25 18.1519 11.25C18.1465 11.25 18.1411 11.25 18.1357 11.25C18.1303 11.25 18.1249 11.25 18.1195 11.25C18.1141 11.25 18.1087 11.25 18.1033 11.25C18.0979 11.25 18.0925 11.25 18.0871 11.25C18.0817 11.25 18.0763 11.25 18.0709 11.25C18.0655 11.25 18.06 11.25 18.0546 11.25C18.0492 11.25 18.0438 11.25 18.0384 11.25C18.033 11.25 18.0275 11.25 18.0221 11.25C18.0167 11.25 18.0113 11.25 18.0058 11.25C18.0004 11.25 17.995 11.25 17.9896 11.25C17.9841 11.25 17.9787 11.25 17.9732 11.25C17.9678 11.25 17.9624 11.25 17.9569 11.25V12.75C17.9624 12.75 17.9678 12.75 17.9732 12.75C17.9787 12.75 17.9841 12.75 17.9896 12.75C17.995 12.75 18.0004 12.75 18.0058 12.75C18.0113 12.75 18.0167 12.75 18.0221 12.75C18.0275 12.75 18.033 12.75 18.0384 12.75C18.0438 12.75 18.0492 12.75 18.0546 12.75C18.06 12.75 18.0655 12.75 18.0709 12.75C18.0763 12.75 18.0817 12.75 18.0871 12.75C18.0925 12.75 18.0979 12.75 18.1033 12.75C18.1087 12.75 18.1141 12.75 18.1195 12.75C18.1249 12.75 18.1303 12.75 18.1357 12.75C18.1411 12.75 18.1465 12.75 18.1519 12.75C18.1573 12.75 18.1627 12.75 18.168 12.75C18.1734 12.75 18.1788 12.75 18.1842 12.75C18.1896 12.75 18.195 12.75 18.2003 12.75C18.2057 12.75 18.2111 12.75 18.2165 12.75C18.2218 12.75 18.2272 12.75 18.2326 12.75C18.2379 12.75 18.2433 12.75 18.2487 12.75C18.254 12.75 18.2594 12.75 18.2647 12.75C18.2701 12.75 18.2755 12.75 18.2808 12.75C18.2862 12.75 18.2915 12.75 18.2969 12.75C18.3022 12.75 18.3076 12.75 18.3129 12.75C18.3183 12.75 18.3236 12.75 18.3289 12.75C18.3343 12.75 18.3396 12.75 18.345 12.75C18.3503 12.75 18.3556 12.75 18.361 12.75C18.3663 12.75 18.3716 12.75 18.3769 12.75C18.3823 12.75 18.3876 12.75 18.3929 12.75C18.3982 12.75 18.4036 12.75 18.4089 12.75C18.4142 12.75 18.4195 12.75 18.4248 12.75C18.4301 12.75 18.4354 12.75 18.4407 12.75C18.4461 12.75 18.4514 12.75 18.4567 12.75C18.462 12.75 18.4673 12.75 18.4726 12.75C18.4779 12.75 18.4832 12.75 18.4884 12.75C18.4937 12.75 18.499 12.75 18.5043 12.75C18.5096 12.75 18.5149 12.75 18.5202 12.75C18.5255 12.75 18.5307 12.75 18.536 12.75C18.5413 12.75 18.5466 12.75 18.5518 12.75C18.5571 12.75 18.5624 12.75 18.5677 12.75C18.5729 12.75 18.5782 12.75 18.5835 12.75C18.5887 12.75 18.594 12.75 18.5992 12.75C18.6045 12.75 18.6098 12.75 18.615 12.75C18.6203 12.75 18.6255 12.75 18.6308 12.75C18.636 12.75 18.6413 12.75 18.6465 12.75C18.6517 12.75 18.657 12.75 18.6622 12.75C18.6675 12.75 18.6727 12.75 18.6779 12.75C18.6832 12.75 18.6884 12.75 18.6936 12.75C18.6988 12.75 18.7041 12.75 18.7093 12.75C18.7145 12.75 18.7197 12.75 18.7249 12.75C18.7302 12.75 18.7354 12.75 18.7406 12.75C18.7458 12.75 18.751 12.75 18.7562 12.75C18.7614 12.75 18.7666 12.75 18.7718 12.75C18.777 12.75 18.7822 12.75 18.7874 12.75C18.7926 12.75 18.7978 12.75 18.803 12.75C18.8082 12.75 18.8134 12.75 18.8186 12.75C18.8237 12.75 18.8289 12.75 18.8341 12.75C18.8393 12.75 18.8445 12.75 18.8496 12.75C18.8548 12.75 18.86 12.75 18.8652 12.75C18.8703 12.75 18.8755 12.75 18.8807 12.75C18.8858 12.75 18.891 12.75 18.8961 12.75C18.9013 12.75 18.9064 12.75 18.9116 12.75C18.9168 12.75 18.9219 12.75 18.927 12.75C18.9322 12.75 18.9373 12.75 18.9425 12.75C18.9476 12.75 18.9528 12.75 18.9579 12.75C18.963 12.75 18.9682 12.75 18.9733 12.75C18.9784 12.75 18.9835 12.75 18.9887 12.75C18.9938 12.75 18.9989 12.75 19.004 12.75C19.0092 12.75 19.0143 12.75 19.0194 12.75C19.0245 12.75 19.0296 12.75 19.0347 12.75C19.0398 12.75 19.0449 12.75 19.05 12.75C19.0551 12.75 19.0602 12.75 19.0653 12.75C19.0704 12.75 19.0755 12.75 19.0806 12.75C19.0857 12.75 19.0908 12.75 19.0958 12.75C19.1009 12.75 19.106 12.75 19.1111 12.75C19.1162 12.75 19.1212 12.75 19.1263 12.75C19.1314 12.75 19.1365 12.75 19.1415 12.75C19.1466 12.75 19.1516 12.75 19.1567 12.75C19.1618 12.75 19.1668 12.75 19.1719 12.75C19.1769 12.75 19.182 12.75 19.187 12.75C19.1921 12.75 19.1971 12.75 19.2022 12.75C19.2072 12.75 19.2122 12.75 19.2173 12.75C19.2223 12.75 19.2273 12.75 19.2324 12.75C19.2374 12.75 19.2424 12.75 19.2475 12.75C19.2525 12.75 19.2575 12.75 19.2625 12.75C19.2675 12.75 19.2725 12.75 19.2776 12.75C19.2826 12.75 19.2876 12.75 19.2926 12.75C19.2976 12.75 19.3026 12.75 19.3076 12.75C19.3126 12.75 19.3176 12.75 19.3226 12.75C19.3276 12.75 19.3326 12.75 19.3375 12.75C19.3425 12.75 19.3475 12.75 19.3525 12.75C19.3575 12.75 19.3624 12.75 19.3674 12.75C19.3724 12.75 19.3774 12.75 19.3823 12.75C19.3873 12.75 19.3923 12.75 19.3972 12.75C19.4022 12.75 19.4071 12.75 19.4121 12.75C19.417 12.75 19.422 12.75 19.4269 12.75C19.4319 12.75 19.4368 12.75 19.4418 12.75C19.4467 12.75 19.4517 12.75 19.4566 12.75C19.4615 12.75 19.4665 12.75 19.4714 12.75C19.4763 12.75 19.4812 12.75 19.4862 12.75C19.4911 12.75 19.496 12.75 19.5009 12.75C19.5058 12.75 19.5107 12.75 19.5156 12.75C19.5206 12.75 19.5255 12.75 19.5304 12.75C19.5353 12.75 19.5402 12.75 19.5451 12.75C19.55 12.75 19.5548 12.75 19.5597 12.75C19.5646 12.75 19.5695 12.75 19.5744 12.75C19.5793 12.75 19.5842 12.75 19.589 12.75C19.5939 12.75 19.5988 12.75 19.6036 12.75C19.6085 12.75 19.6134 12.75 19.6182 12.75C19.6231 12.75 19.628 12.75 19.6328 12.75C19.6377 12.75 19.6425 12.75 19.6474 12.75C19.6522 12.75 19.6571 12.75 19.6619 12.75C19.6667 12.75 19.6716 12.75 19.6764 12.75C19.6813 12.75 19.6861 12.75 19.6909 12.75C19.6957 12.75 19.7006 12.75 19.7054 12.75C19.7102 12.75 19.715 12.75 19.7198 12.75C19.7246 12.75 19.7295 12.75 19.7343 12.75C19.7391 12.75 19.7439 12.75 19.7487 12.75C19.7535 12.75 19.7583 12.75 19.7631 12.75C19.7679 12.75 19.7726 12.75 19.7774 12.75C19.7822 12.75 19.787 12.75 19.7918 12.75C19.7966 12.75 19.8013 12.75 19.8061 12.75C19.8109 12.75 19.8156 12.75 19.8204 12.75C19.8252 12.75 19.8299 12.75 19.8347 12.75C19.8394 12.75 19.8442 12.75 19.8489 12.75C19.8537 12.75 19.8584 12.75 19.8632 12.75C19.8679 12.75 19.8727 12.75 19.8774 12.75C19.8821 12.75 19.8869 12.75 19.8916 12.75C19.8963 12.75 19.9011 12.75 19.9058 12.75C19.9105 12.75 19.9152 12.75 19.9199 12.75C19.9246 12.75 19.9293 12.75 19.9341 12.75C19.9388 12.75 19.9435 12.75 19.9482 12.75C19.9529 12.75 19.9576 12.75 19.9622 12.75C19.9669 12.75 19.9716 12.75 19.9763 12.75C19.981 12.75 19.9857 12.75 19.9904 12.75C19.995 12.75 19.9997 12.75 20.0044 12.75C20.009 12.75 20.0137 12.75 20.0184 12.75C20.023 12.75 20.0277 12.75 20.0323 12.75C20.037 12.75 20.0416 12.75 20.0463 12.75C20.0509 12.75 20.0556 12.75 20.0602 12.75C20.0649 12.75 20.0695 12.75 20.0741 12.75C20.0788 12.75 20.0834 12.75 20.088 12.75C20.0926 12.75 20.0973 12.75 20.1019 12.75C20.1065 12.75 20.1111 12.75 20.1157 12.75C20.1203 12.75 20.1249 12.75 20.1295 12.75C20.1341 12.75 20.1387 12.75 20.1433 12.75C20.1479 12.75 20.1525 12.75 20.1571 12.75C20.1617 12.75 20.1662 12.75 20.1708 12.75C20.1754 12.75 20.18 12.75 20.1845 12.75C20.1891 12.75 20.1937 12.75 20.1982 12.75C20.2028 12.75 20.2074 12.75 20.2119 12.75C20.2165 12.75 20.221 12.75 20.2256 12.75C20.2301 12.75 20.2347 12.75 20.2392 12.75C20.2437 12.75 20.2483 12.75 20.2528 12.75C20.2573 12.75 20.2619 12.75 20.2664 12.75C20.2709 12.75 20.2754 12.75 20.2799 12.75C20.2844 12.75 20.289 12.75 20.2935 12.75C20.298 12.75 20.3025 12.75 20.307 12.75C20.3115 12.75 20.316 12.75 20.3205 12.75C20.3249 12.75 20.3294 12.75 20.3339 12.75C20.3384 12.75 20.3429 12.75 20.3473 12.75C20.3518 12.75 20.3563 12.75 20.3608 12.75C20.3652 12.75 20.3697 12.75 20.3741 12.75C20.3786 12.75 20.3831 12.75 20.3875 12.75C20.392 12.75 20.3964 12.75 20.4008 12.75C20.4053 12.75 20.4097 12.75 20.4142 12.75C20.4186 12.75 20.423 12.75 20.4274 12.75C20.4319 12.75 20.4363 12.75 20.4407 12.75C20.4451 12.75 20.4495 12.75 20.4539 12.75C20.4584 12.75 20.4628 12.75 20.4672 12.75C20.4716 12.75 20.476 12.75 20.4803 12.75C20.4847 12.75 20.4891 12.75 20.4935 12.75C20.4979 12.75 20.5023 12.75 20.5066 12.75C20.511 12.75 20.5154 12.75 20.5198 12.75C20.5241 12.75 20.5285 12.75 20.5328 12.75C20.5372 12.75 20.5416 12.75 20.5459 12.75C20.5503 12.75 20.5546 12.75 20.5589 12.75C20.5633 12.75 20.5676 12.75 20.5719 12.75C20.5763 12.75 20.5806 12.75 20.5849 12.75C20.5893 12.75 20.5936 12.75 20.5979 12.75C20.6022 12.75 20.6065 12.75 20.6108 12.75C20.6151 12.75 20.6194 12.75 20.6237 12.75C20.628 12.75 20.6323 12.75 20.6366 12.75C20.6409 12.75 20.6452 12.75 20.6495 12.75C20.6537 12.75 20.658 12.75 20.6623 12.75C20.6666 12.75 20.6708 12.75 20.6751 12.75C20.6794 12.75 20.6836 12.75 20.6879 12.75C20.6921 12.75 20.6964 12.75 20.7006 12.75C20.7049 12.75 20.7091 12.75 20.7133 12.75C20.7176 12.75 20.7218 12.75 20.726 12.75C20.7303 12.75 20.7345 12.75 20.7387 12.75C20.7429 12.75 20.7471 12.75 20.7514 12.75C20.7556 12.75 20.7598 12.75 20.764 12.75C20.7682 12.75 20.7724 12.75 20.7766 12.75C20.7808 12.75 20.7849 12.75 20.7891 12.75C20.7933 12.75 20.7975 12.75 20.8017 12.75C20.8058 12.75 20.81 12.75 20.8142 12.75C20.8183 12.75 20.8225 12.75 20.8267 12.75C20.8308 12.75 20.835 12.75 20.8391 12.75C20.8433 12.75 20.8474 12.75 20.8515 12.75C20.8557 12.75 20.8598 12.75 20.8639 12.75C20.8681 12.75 20.8722 12.75 20.8763 12.75C20.8804 12.75 20.8845 12.75 20.8886 12.75C20.8928 12.75 20.8969 12.75 20.901 12.75C20.9051 12.75 20.9092 12.75 20.9133 12.75C20.9173 12.75 20.9214 12.75 20.9255 12.75C20.9296 12.75 20.9337 12.75 20.9377 12.75C20.9418 12.75 20.9459 12.75 20.95 12.75C20.954 12.75 20.9581 12.75 20.9621 12.75C20.9662 12.75 20.9702 12.75 20.9743 12.75C20.9783 12.75 20.9824 12.75 20.9864 12.75C20.9904 12.75 20.9945 12.75 20.9985 12.75C21.0025 12.75 21.0065 12.75 21.0106 12.75C21.0146 12.75 21.0186 12.75 21.0226 12.75C21.0266 12.75 21.0306 12.75 21.0346 12.75C21.0386 12.75 21.0426 12.75 21.0466 12.75C21.0506 12.75 21.0546 12.75 21.0585 12.75C21.0625 12.75 21.0665 12.75 21.0705 12.75C21.0744 12.75 21.0784 12.75 21.0824 12.75C21.0863 12.75 21.0903 12.75 21.0942 12.75C21.0982 12.75 21.1021 12.75 21.1061 12.75C21.11 12.75 21.1139 12.75 21.1179 12.75C21.1218 12.75 21.1257 12.75 21.1296 12.75C21.1336 12.75 21.1375 12.75 21.1414 12.75C21.1453 12.75 21.1492 12.75 21.1531 12.75C21.157 12.75 21.1609 12.75 21.1648 12.75C21.1687 12.75 21.1726 12.75 21.1765 12.75C21.1803 12.75 21.1842 12.75 21.1881 12.75C21.192 12.75 21.1958 12.75 21.1997 12.75C21.2035 12.75 21.2074 12.75 21.2113 12.75C21.2151 12.75 21.219 12.75 21.2228 12.75C21.2266 12.75 21.2305 12.75 21.2343 12.75C21.2381 12.75 21.242 12.75 21.2458 12.75C21.2496 12.75 21.2534 12.75 21.2572 12.75C21.2611 12.75 21.2649 12.75 21.2687 12.75C21.2725 12.75 21.2763 12.75 21.2801 12.75C21.2839 12.75 21.2876 12.75 21.2914 12.75C21.2952 12.75 21.299 12.75 21.3028 12.75C21.3065 12.75 21.3103 12.75 21.3141 12.75C21.3178 12.75 21.3216 12.75 21.3253 12.75C21.3291 12.75 21.3328 12.75 21.3366 12.75C21.3403 12.75 21.344 12.75 21.3478 12.75C21.3515 12.75 21.3552 12.75 21.359 12.75C21.3627 12.75 21.3664 12.75 21.3701 12.75C21.3738 12.75 21.3775 12.75 21.3812 12.75C21.3849 12.75 21.3886 12.75 21.3923 12.75C21.396 12.75 21.3997 12.75 21.4034 12.75C21.407 12.75 21.4107 12.75 21.4144 12.75C21.4181 12.75 21.4217 12.75 21.4254 12.75C21.429 12.75 21.4327 12.75 21.4363 12.75C21.44 12.75 21.4436 12.75 21.4473 12.75C21.4509 12.75 21.4546 12.75 21.4582 12.75C21.4618 12.75 21.4654 12.75 21.4691 12.75C21.4727 12.75 21.4763 12.75 21.4799 12.75C21.4835 12.75 21.4871 12.75 21.4907 12.75C21.4943 12.75 21.4979 12.75 21.5015 12.75C21.5051 12.75 21.5086 12.75 21.5122 12.75C21.5158 12.75 21.5194 12.75 21.5229 12.75C21.5265 12.75 21.53 12.75 21.5336 12.75C21.5372 12.75 21.5407 12.75 21.5442 12.75C21.5478 12.75 21.5513 12.75 21.5549 12.75C21.5584 12.75 21.5619 12.75 21.5654 12.75C21.569 12.75 21.5725 12.75 21.576 12.75C21.5795 12.75 21.583 12.75 21.5865 12.75C21.59 12.75 21.5935 12.75 21.597 12.75C21.6005 12.75 21.604 12.75 21.6075 12.75C21.6109 12.75 21.6144 12.75 21.6179 12.75C21.6213 12.75 21.6248 12.75 21.6283 12.75C21.6317 12.75 21.6352 12.75 21.6386 12.75C21.6421 12.75 21.6455 12.75 21.6489 12.75C21.6524 12.75 21.6558 12.75 21.6592 12.75C21.6627 12.75 21.6661 12.75 21.6695 12.75C21.6729 12.75 21.6763 12.75 21.6797 12.75C21.6831 12.75 21.6865 12.75 21.6899 12.75C21.6933 12.75 21.6967 12.75 21.7001 12.75C21.7034 12.75 21.7068 12.75 21.7102 12.75C21.7136 12.75 21.7169 12.75 21.7203 12.75C21.7236 12.75 21.727 12.75 21.7303 12.75C21.7337 12.75 21.737 12.75 21.7404 12.75C21.7437 12.75 21.747 12.75 21.7504 12.75C21.7537 12.75 21.757 12.75 21.7603 12.75C21.7636 12.75 21.7669 12.75 21.7702 12.75C21.7735 12.75 21.7768 12.75 21.7801 12.75C21.7834 12.75 21.7867 12.75 21.79 12.75C21.7933 12.75 21.7965 12.75 21.7998 12.75C21.8031 12.75 21.8063 12.75 21.8096 12.75C21.8129 12.75 21.8161 12.75 21.8193 12.75C21.8226 12.75 21.8258 12.75 21.8291 12.75C21.8323 12.75 21.8355 12.75 21.8388 12.75C21.842 12.75 21.8452 12.75 21.8484 12.75C21.8516 12.75 21.8548 12.75 21.858 12.75C21.8612 12.75 21.8644 12.75 21.8676 12.75C21.8708 12.75 21.874 12.75 21.8772 12.75C21.8803 12.75 21.8835 12.75 21.8867 12.75C21.8898 12.75 21.893 12.75 21.8962 12.75C21.8993 12.75 21.9025 12.75 21.9056 12.75C21.9087 12.75 21.9119 12.75 21.915 12.75C21.9181 12.75 21.9213 12.75 21.9244 12.75C21.9275 12.75 21.9306 12.75 21.9337 12.75C21.9368 12.75 21.9399 12.75 21.943 12.75C21.9461 12.75 21.9492 12.75 21.9523 12.75C21.9554 12.75 21.9585 12.75 21.9615 12.75C21.9646 12.75 21.9677 12.75 21.9707 12.75C21.9738 12.75 21.9769 12.75 21.9799 12.75C21.9829 12.75 21.986 12.75 21.989 12.75C21.9921 12.75 21.9951 12.75 21.9981 12.75C22.0011 12.75 22.0042 12.75 22.0072 12.75C22.0102 12.75 22.0132 12.75 22.0162 12.75C22.0192 12.75 22.0222 12.75 22.0252 12.75C22.0282 12.75 22.0312 12.75 22.0341 12.75C22.0371 12.75 22.0401 12.75 22.0431 12.75C22.046 12.75 22.049 12.75 22.0519 12.75C22.0549 12.75 22.0578 12.75 22.0608 12.75C22.0637 12.75 22.0667 12.75 22.0696 12.75C22.0725 12.75 22.0754 12.75 22.0784 12.75C22.0813 12.75 22.0842 12.75 22.0871 12.75C22.09 12.75 22.0929 12.75 22.0958 12.75C22.0987 12.75 22.1016 12.75 22.1044 12.75C22.1073 12.75 22.1102 12.75 22.1131 12.75C22.1159 12.75 22.1188 12.75 22.1217 12.75C22.1245 12.75 22.1274 12.75 22.1302 12.75C22.1331 12.75 22.1359 12.75 22.1387 12.75C22.1416 12.75 22.1444 12.75 22.1472 12.75C22.15 12.75 22.1528 12.75 22.1556 12.75C22.1585 12.75 22.1613 12.75 22.164 12.75C22.1668 12.75 22.1696 12.75 22.1724 12.75C22.1752 12.75 22.178 12.75 22.1807 12.75C22.1835 12.75 22.1863 12.75 22.189 12.75C22.1918 12.75 22.1945 12.75 22.1973 12.75C22.2 12.75 22.2028 12.75 22.2055 12.75C22.2082 12.75 22.211 12.75 22.2137 12.75C22.2164 12.75 22.2191 12.75 22.2218 12.75C22.2245 12.75 22.2272 12.75 22.2299 12.75C22.2326 12.75 22.2353 12.75 22.238 12.75C22.2407 12.75 22.2434 12.75 22.246 12.75C22.2487 12.75 22.2514 12.75 22.254 12.75C22.2567 12.75 22.2593 12.75 22.262 12.75C22.2646 12.75 22.2673 12.75 22.2699 12.75C22.2725 12.75 22.2752 12.75 22.2778 12.75C22.2804 12.75 22.283 12.75 22.2856 12.75C22.2882 12.75 22.2908 12.75 22.2934 12.75C22.296 12.75 22.2986 12.75 22.3012 12.75C22.3038 12.75 22.3063 12.75 22.3089 12.75C22.3115 12.75 22.314 12.75 22.3166 12.75C22.3192 12.75 22.3217 12.75 22.3242 12.75C22.3268 12.75 22.3293 12.75 22.3319 12.75C22.3344 12.75 22.3369 12.75 22.3394 12.75C22.3419 12.75 22.3444 12.75 22.347 12.75C22.3495 12.75 22.352 12.75 22.3544 12.75C22.3569 12.75 22.3594 12.75 22.3619 12.75C22.3644 12.75 22.3669 12.75 22.3693 12.75C22.3718 12.75 22.3742 12.75 22.3767 12.75C22.3791 12.75 22.3816 12.75 22.384 12.75C22.3865 12.75 22.3889 12.75 22.3913 12.75C22.3938 12.75 22.3962 12.75 22.3986 12.75C22.401 12.75 22.4034 12.75 22.4058 12.75C22.4082 12.75 22.4106 12.75 22.413 12.75C22.4154 12.75 22.4178 12.75 22.4201 12.75C22.4225 12.75 22.4249 12.75 22.4272 12.75C22.4296 12.75 22.4319 12.75 22.4343 12.75C22.4366 12.75 22.439 12.75 22.4413 12.75C22.4436 12.75 22.446 12.75 22.4483 12.75C22.4506 12.75 22.4529 12.75 22.4552 12.75C22.4575 12.75 22.4598 12.75 22.4621 12.75C22.4644 12.75 22.4667 12.75 22.469 12.75C22.4713 12.75 22.4736 12.75 22.4758 12.75C22.4781 12.75 22.4803 12.75 22.4826 12.75C22.4849 12.75 22.4871 12.75 22.4893 12.75C22.4916 12.75 22.4938 12.75 22.496 12.75C22.4983 12.75 22.5005 12.75 22.5027 12.75C22.5049 12.75 22.5071 12.75 22.5093 12.75C22.5115 12.75 22.5137 12.75 22.5159 12.75C22.5181 12.75 22.5203 12.75 22.5224 12.75C22.5246 12.75 22.5268 12.75 22.5289 12.75C22.5311 12.75 22.5332 12.75 22.5354 12.75C22.5375 12.75 22.5397 12.75 22.5418 12.75C22.5439 12.75 22.5461 12.75 22.5482 12.75C22.5503 12.75 22.5524 12.75 22.5545 12.75C22.5566 12.75 22.5587 12.75 22.5608 12.75C22.5629 12.75 22.565 12.75 22.5671 12.75C22.5691 12.75 22.5712 12.75 22.5733 12.75C22.5753 12.75 22.5774 12.75 22.5794 12.75C22.5815 12.75 22.5835 12.75 22.5856 12.75C22.5876 12.75 22.5896 12.75 22.5916 12.75C22.5937 12.75 22.5957 12.75 22.5977 12.75C22.5997 12.75 22.6017 12.75 22.6037 12.75C22.6057 12.75 22.6077 12.75 22.6097 12.75C22.6116 12.75 22.6136 12.75 22.6156 12.75C22.6175 12.75 22.6195 12.75 22.6214 12.75C22.6234 12.75 22.6253 12.75 22.6273 12.75C22.6292 12.75 22.6311 12.75 22.6331 12.75C22.635 12.75 22.6369 12.75 22.6388 12.75C22.6407 12.75 22.6426 12.75 22.6445 12.75C22.6464 12.75 22.6483 12.75 22.6502 12.75C22.6521 12.75 22.654 12.75 22.6558 12.75C22.6577 12.75 22.6595 12.75 22.6614 12.75C22.6633 12.75 22.6651 12.75 22.6669 12.75C22.6688 12.75 22.6706 12.75 22.6724 12.75C22.6743 12.75 22.6761 12.75 22.6779 12.75C22.6797 12.75 22.6815 12.75 22.6833 12.75C22.6851 12.75 22.6869 12.75 22.6887 12.75C22.6904 12.75 22.6922 12.75 22.694 12.75C22.6958 12.75 22.6975 12.75 22.6993 12.75C22.701 12.75 22.7028 12.75 22.7045 12.75C22.7062 12.75 22.708 12.75 22.7097 12.75C22.7114 12.75 22.7131 12.75 22.7149 12.75C22.7166 12.75 22.7183 12.75 22.72 12.75C22.7217 12.75 22.7233 12.75 22.725 12.75C22.7267 12.75 22.7284 12.75 22.73 12.75C22.7317 12.75 22.7334 12.75 22.735 12.75C22.7367 12.75 22.7383 12.75 22.74 12.75C22.7416 12.75 22.7432 12.75 22.7449 12.75C22.7465 12.75 22.7481 12.75 22.7497 12.75C22.7513 12.75 22.7529 12.75 22.7545 12.75C22.7561 12.75 22.7577 12.75 22.7593 12.75C22.7608 12.75 22.7624 12.75 22.764 12.75C22.7655 12.75 22.7671 12.75 22.7686 12.75C22.7702 12.75 22.7717 12.75 22.7733 12.75C22.7748 12.75 22.7763 12.75 22.7779 12.75C22.7794 12.75 22.7809 12.75 22.7824 12.75C22.7839 12.75 22.7854 12.75 22.7869 12.75C22.7884 12.75 22.7899 12.75 22.7913 12.75C22.7928 12.75 22.7943 12.75 22.7957 12.75C22.7972 12.75 22.7987 12.75 22.8001 12.75C22.8015 12.75 22.803 12.75 22.8044 12.75C22.8058 12.75 22.8073 12.75 22.8087 12.75C22.8101 12.75 22.8115 12.75 22.8129 12.75C22.8143 12.75 22.8157 12.75 22.8171 12.75C22.8185 12.75 22.8199 12.75 22.8212 12.75C22.8226 12.75 22.824 12.75 22.8253 12.75C22.8267 12.75 22.828 12.75 22.8294 12.75C22.8307 12.75 22.832 12.75 22.8334 12.75C22.8347 12.75 22.836 12.75 22.8373 12.75C22.8386 12.75 22.8399 12.75 22.8412 12.75C22.8425 12.75 22.8438 12.75 22.8451 12.75C22.8464 12.75 22.8476 12.75 22.8489 12.75C22.8502 12.75 22.8514 12.75 22.8527 12.75C22.8539 12.75 22.8552 12.75 22.8564 12.75C22.8576 12.75 22.8589 12.75 22.8601 12.75C22.8613 12.75 22.8625 12.75 22.8637 12.75C22.8649 12.75 22.8661 12.75 22.8673 12.75C22.8685 12.75 22.8697 12.75 22.8709 12.75C22.872 12.75 22.8732 12.75 22.8744 12.75C22.8755 12.75 22.8767 12.75 22.8778 12.75C22.879 12.75 22.8801 12.75 22.8812 12.75C22.8823 12.75 22.8835 12.75 22.8846 12.75C22.8857 12.75 22.8868 12.75 22.8879 12.75C22.889 12.75 22.8901 12.75 22.8912 12.75C22.8922 12.75 22.8933 12.75 22.8944 12.75C22.8954 12.75 22.8965 12.75 22.8975 12.75C22.8986 12.75 22.8996 12.75 22.9007 12.75C22.9017 12.75 22.9027 12.75 22.9037 12.75C22.9048 12.75 22.9058 12.75 22.9068 12.75C22.9078 12.75 22.9088 12.75 22.9098 12.75C22.9108 12.75 22.9117 12.75 22.9127 12.75C22.9137 12.75 22.9146 12.75 22.9156 12.75C22.9165 12.75 22.9175 12.75 22.9184 12.75C22.9194 12.75 22.9203 12.75 22.9212 12.75C22.9222 12.75 22.9231 12.75 22.924 12.75C22.9249 12.75 22.9258 12.75 22.9267 12.75C22.9276 12.75 22.9285 12.75 22.9293 12.75C22.9302 12.75 22.9311 12.75 22.9319 12.75C22.9328 12.75 22.9337 12.75 22.9345 12.75C22.9353 12.75 22.9362 12.75 22.937 12.75C22.9378 12.75 22.9387 12.75 22.9395 12.75C22.9403 12.75 22.9411 12.75 22.9419 12.75C22.9427 12.75 22.9435 12.75 22.9443 12.75C22.945 12.75 22.9458 12.75 22.9466 12.75C22.9473 12.75 22.9481 12.75 22.9489 12.75C22.9496 12.75 22.9503 12.75 22.9511 12.75C22.9518 12.75 22.9525 12.75 22.9532 12.75C22.954 12.75 22.9547 12.75 22.9554 12.75C22.9561 12.75 22.9568 12.75 22.9575 12.75C22.9581 12.75 22.9588 12.75 22.9595 12.75C22.9602 12.75 22.9608 12.75 22.9615 12.75C22.9621 12.75 22.9628 12.75 22.9634 12.75C22.964 12.75 22.9647 12.75 22.9653 12.75C22.9659 12.75 22.9665 12.75 22.9671 12.75C22.9677 12.75 22.9683 12.75 22.9689 12.75C22.9695 12.75 22.9701 12.75 22.9706 12.75C22.9712 12.75 22.9718 12.75 22.9723 12.75C22.9729 12.75 22.9734 12.75 22.974 12.75C22.9745 12.75 22.975 12.75 22.9756 12.75C22.9761 12.75 22.9766 12.75 22.9771 12.75C22.9776 12.75 22.9781 12.75 22.9786 12.75C22.9791 12.75 22.9796 12.75 22.98 12.75C22.9805 12.75 22.981 12.75 22.9814 12.75C22.9819 12.75 22.9823 12.75 22.9828 12.75C22.9832 12.75 22.9836 12.75 22.9841 12.75C22.9845 12.75 22.9849 12.75 22.9853 12.75C22.9857 12.75 22.9861 12.75 22.9865 12.75C22.9869 12.75 22.9873 12.75 22.9876 12.75C22.988 12.75 22.9884 12.75 22.9887 12.75C22.9891 12.75 22.9894 12.75 22.9898 12.75C22.9901 12.75 22.9904 12.75 22.9908 12.75C22.9911 12.75 22.9914 12.75 22.9917 12.75C22.992 12.75 22.9923 12.75 22.9926 12.75C22.9929 12.75 22.9932 12.75 22.9934 12.75C22.9937 12.75 22.994 12.75 22.9942 12.75C22.9945 12.75 22.9947 12.75 22.995 12.75C22.9952 12.75 22.9954 12.75 22.9957 12.75C22.9959 12.75 22.9961 12.75 22.9963 12.75C22.9965 12.75 22.9967 12.75 22.9969 12.75C22.9971 12.75 22.9973 12.75 22.9974 12.75C22.9976 12.75 22.9978 12.75 22.9979 12.75C22.9981 12.75 22.9982 12.75 22.9984 12.75C22.9985 12.75 22.9986 12.75 22.9987 12.75C22.9989 12.75 22.999 12.75 22.9991 12.75C22.9992 12.75 22.9993 12.75 22.9994 12.75C22.9994 12.75 22.9995 12.75 22.9996 12.75C22.9997 12.75 22.9997 12.75 22.9998 12.75C22.9998 12.75 22.9999 12.75 22.9999 12.75C22.9999 12.75 23 12.75 23 12.75C23 12.75 23 12.75 23 12ZM17.9569 11.25C17.9515 11.25 17.9461 11.25 17.9406 11.25C17.9352 11.25 17.9298 11.25 17.9243 11.25C17.9189 11.25 17.9135 11.25 17.908 11.25C17.9026 11.25 17.8972 11.25 17.8918 11.25C17.8863 11.25 17.8809 11.25 17.8755 11.25C17.8701 11.25 17.8647 11.25 17.8592 11.25C17.8538 11.25 17.8484 11.25 17.843 11.25C17.8376 11.25 17.8322 11.25 17.8268 11.25C17.8214 11.25 17.816 11.25 17.8106 11.25C17.8052 11.25 17.7998 11.25 17.7944 11.25C17.789 11.25 17.7836 11.25 17.7782 11.25C17.7728 11.25 17.7674 11.25 17.762 11.25C17.7566 11.25 17.7512 11.25 17.7458 11.25C17.7404 11.25 17.7351 11.25 17.7297 11.25C17.7243 11.25 17.7189 11.25 17.7135 11.25C17.7082 11.25 17.7028 11.25 17.6974 11.25C17.692 11.25 17.6867 11.25 17.6813 11.25C17.6759 11.25 17.6706 11.25 17.6652 11.25C17.6599 11.25 17.6545 11.25 17.6491 11.25C17.6438 11.25 17.6384 11.25 17.6331 11.25C17.6277 11.25 17.6224 11.25 17.617 11.25C17.6117 11.25 17.6063 11.25 17.601 11.25C17.5956 11.25 17.5903 11.25 17.5849 11.25C17.5796 11.25 17.5743 11.25 17.5689 11.25C17.5636 11.25 17.5583 11.25 17.5529 11.25C17.5476 11.25 17.5423 11.25 17.5369 11.25C17.5316 11.25 17.5263 11.25 17.521 11.25C17.5156 11.25 17.5103 11.25 17.505 11.25C17.4997 11.25 17.4944 11.25 17.4891 11.25C17.4837 11.25 17.4784 11.25 17.4731 11.25C17.4678 11.25 17.4625 11.25 17.4572 11.25C17.4519 11.25 17.4466 11.25 17.4413 11.25C17.436 11.25 17.4307 11.25 17.4254 11.25C17.4201 11.25 17.4148 11.25 17.4096 11.25C17.4043 11.25 17.399 11.25 17.3937 11.25C17.3884 11.25 17.3831 11.25 17.3779 11.25C17.3726 11.25 17.3673 11.25 17.362 11.25C17.3568 11.25 17.3515 11.25 17.3462 11.25C17.3409 11.25 17.3357 11.25 17.3304 11.25C17.3252 11.25 17.3199 11.25 17.3146 11.25C17.3094 11.25 17.3041 11.25 17.2989 11.25C17.2936 11.25 17.2884 11.25 17.2831 11.25C17.2779 11.25 17.2726 11.25 17.2674 11.25C17.2621 11.25 17.2569 11.25 17.2517 11.25C17.2464 11.25 17.2412 11.25 17.236 11.25C17.2307 11.25 17.2255 11.25 17.2203 11.25C17.215 11.25 17.2098 11.25 17.2046 11.25C17.1994 11.25 17.1941 11.25 17.1889 11.25C17.1837 11.25 17.1785 11.25 17.1733 11.25C17.1681 11.25 17.1629 11.25 17.1577 11.25C17.1525 11.25 17.1472 11.25 17.142 11.25C17.1368 11.25 17.1316 11.25 17.1264 11.25C17.1213 11.25 17.1161 11.25 17.1109 11.25C17.1057 11.25 17.1005 11.25 17.0953 11.25C17.0901 11.25 17.0849 11.25 17.0798 11.25C17.0746 11.25 17.0694 11.25 17.0642 11.25C17.0591 11.25 17.0539 11.25 17.0487 11.25C17.0435 11.25 17.0384 11.25 17.0332 11.25C17.0281 11.25 17.0229 11.25 17.0177 11.25C17.0126 11.25 17.0074 11.25 17.0023 11.25C16.9971 11.25 16.992 11.25 16.9868 11.25C16.9817 11.25 16.9765 11.25 16.9714 11.25C16.9663 11.25 16.9611 11.25 16.956 11.25C16.9508 11.25 16.9457 11.25 16.9406 11.25C16.9355 11.25 16.9303 11.25 16.9252 11.25C16.9201 11.25 16.915 11.25 16.9098 11.25C16.9047 11.25 16.8996 11.25 16.8945 11.25C16.8894 11.25 16.8843 11.25 16.8792 11.25C16.8741 11.25 16.869 11.25 16.8639 11.25C16.8588 11.25 16.8537 11.25 16.8486 11.25C16.8435 11.25 16.8384 11.25 16.8333 11.25C16.8282 11.25 16.8231 11.25 16.818 11.25C16.8129 11.25 16.8079 11.25 16.8028 11.25C16.7977 11.25 16.7926 11.25 16.7876 11.25C16.7825 11.25 16.7774 11.25 16.7724 11.25C16.7673 11.25 16.7622 11.25 16.7572 11.25C16.7521 11.25 16.7471 11.25 16.742 11.25C16.7369 11.25 16.7319 11.25 16.7268 11.25C16.7218 11.25 16.7168 11.25 16.7117 11.25C16.7067 11.25 16.7016 11.25 16.6966 11.25C16.6916 11.25 16.6865 11.25 16.6815 11.25C16.6765 11.25 16.6714 11.25 16.6664 11.25C16.6614 11.25 16.6564 11.25 16.6514 11.25C16.6463 11.25 16.6413 11.25 16.6363 11.25C16.6313 11.25 16.6263 11.25 16.6213 11.25C16.6163 11.25 16.6113 11.25 16.6063 11.25C16.6013 11.25 16.5963 11.25 16.5913 11.25C16.5863 11.25 16.5813 11.25 16.5763 11.25C16.5713 11.25 16.5664 11.25 16.5614 11.25C16.5564 11.25 16.5514 11.25 16.5465 11.25C16.5415 11.25 16.5365 11.25 16.5315 11.25C16.5266 11.25 16.5216 11.25 16.5167 11.25C16.5117 11.25 16.5067 11.25 16.5018 11.25C16.4968 11.25 16.4919 11.25 16.4869 11.25C16.482 11.25 16.477 11.25 16.4721 11.25C16.4672 11.25 16.4622 11.25 16.4573 11.25C16.4523 11.25 16.4474 11.25 16.4425 11.25C16.4376 11.25 16.4326 11.25 16.4277 11.25C16.4228 11.25 16.4179 11.25 16.413 11.25C16.408 11.25 16.4031 11.25 16.3982 11.25C16.3933 11.25 16.3884 11.25 16.3835 11.25C16.3786 11.25 16.3737 11.25 16.3688 11.25C16.3639 11.25 16.359 11.25 16.3541 11.25C16.3492 11.25 16.3444 11.25 16.3395 11.25C16.3346 11.25 16.3297 11.25 16.3248 11.25C16.32 11.25 16.3151 11.25 16.3102 11.25C16.3054 11.25 16.3005 11.25 16.2956 11.25C16.2908 11.25 16.2859 11.25 16.2811 11.25C16.2762 11.25 16.2713 11.25 16.2665 11.25C16.2617 11.25 16.2568 11.25 16.252 11.25C16.2471 11.25 16.2423 11.25 16.2375 11.25C16.2326 11.25 16.2278 11.25 16.223 11.25C16.2181 11.25 16.2133 11.25 16.2085 11.25C16.2037 11.25 16.1989 11.25 16.194 11.25C16.1892 11.25 16.1844 11.25 16.1796 11.25C16.1748 11.25 16.17 11.25 16.1652 11.25C16.1604 11.25 16.1556 11.25 16.1508 11.25C16.146 11.25 16.1412 11.25 16.1364 11.25C16.1317 11.25 16.1269 11.25 16.1221 11.25C16.1173 11.25 16.1125 11.25 16.1078 11.25C16.103 11.25 16.0982 11.25 16.0935 11.25C16.0887 11.25 16.0839 11.25 16.0792 11.25C16.0744 11.25 16.0697 11.25 16.0649 11.25C16.0602 11.25 16.0554 11.25 16.0507 11.25C16.0459 11.25 16.0412 11.25 16.0365 11.25C16.0317 11.25 16.027 11.25 16.0223 11.25C16.0175 11.25 16.0128 11.25 16.0081 11.25C16.0034 11.25 15.9987 11.25 15.9939 11.25C15.9892 11.25 15.9845 11.25 15.9798 11.25C15.9751 11.25 15.9704 11.25 15.9657 11.25C15.961 11.25 15.9563 11.25 15.9516 11.25C15.9469 11.25 15.9422 11.25 15.9376 11.25C15.9329 11.25 15.9282 11.25 15.9235 11.25C15.9188 11.25 15.9142 11.25 15.9095 11.25C15.9048 11.25 15.9002 11.25 15.8955 11.25C15.8908 11.25 15.8862 11.25 15.8815 11.25C15.8769 11.25 15.8722 11.25 15.8676 11.25C15.8629 11.25 15.8583 11.25 15.8537 11.25C15.849 11.25 15.8444 11.25 15.8397 11.25C15.8351 11.25 15.8305 11.25 15.8259 11.25C15.8212 11.25 15.8166 11.25 15.812 11.25C15.8074 11.25 15.8028 11.25 15.7982 11.25C15.7936 11.25 15.789 11.25 15.7843 11.25C15.7797 11.25 15.7752 11.25 15.7706 11.25C15.766 11.25 15.7614 11.25 15.7568 11.25C15.7522 11.25 15.7476 11.25 15.743 11.25C15.7385 11.25 15.7339 11.25 15.7293 11.25C15.7248 11.25 15.7202 11.25 15.7156 11.25C15.7111 11.25 15.7065 11.25 15.702 11.25C15.6974 11.25 15.6928 11.25 15.6883 11.25C15.6838 11.25 15.6792 11.25 15.6747 11.25C15.6701 11.25 15.6656 11.25 15.6611 11.25C15.6565 11.25 15.652 11.25 15.6475 11.25C15.643 11.25 15.6385 11.25 15.6339 11.25C15.6294 11.25 15.6249 11.25 15.6204 11.25C15.6159 11.25 15.6114 11.25 15.6069 11.25C15.6024 11.25 15.5979 11.25 15.5934 11.25C15.5889 11.25 15.5844 11.25 15.58 11.25C15.5755 11.25 15.571 11.25 15.5665 11.25C15.562 11.25 15.5576 11.25 15.5531 11.25C15.5486 11.25 15.5442 11.25 15.5397 11.25C15.5353 11.25 15.5308 11.25 15.5264 11.25C15.5219 11.25 15.5175 11.25 15.513 11.25C15.5086 11.25 15.5041 11.25 15.4997 11.25C15.4953 11.25 15.4909 11.25 15.4864 11.25C15.482 11.25 15.4776 11.25 15.4732 11.25C15.4687 11.25 15.4643 11.25 15.4599 11.25C15.4555 11.25 15.4511 11.25 15.4467 11.25C15.4423 11.25 15.4379 11.25 15.4335 11.25C15.4291 11.25 15.4247 11.25 15.4204 11.25C15.416 11.25 15.4116 11.25 15.4072 11.25C15.4029 11.25 15.3985 11.25 15.3941 11.25C15.3897 11.25 15.3854 11.25 15.381 11.25C15.3767 11.25 15.3723 11.25 15.368 11.25C15.3636 11.25 15.3593 11.25 15.3549 11.25C15.3506 11.25 15.3463 11.25 15.3419 11.25C15.3376 11.25 15.3333 11.25 15.3289 11.25C15.3246 11.25 15.3203 11.25 15.316 11.25C15.3117 11.25 15.3074 11.25 15.303 11.25C15.2987 11.25 15.2944 11.25 15.2901 11.25C15.2858 11.25 15.2815 11.25 15.2773 11.25C15.273 11.25 15.2687 11.25 15.2644 11.25C15.2601 11.25 15.2558 11.25 15.2516 11.25C15.2473 11.25 15.243 11.25 15.2388 11.25C15.2345 11.25 15.2303 11.25 15.226 11.25C15.2217 11.25 15.2175 11.25 15.2132 11.25C15.209 11.25 15.2048 11.25 15.2005 11.25C15.1963 11.25 15.1921 11.25 15.1878 11.25C15.1836 11.25 15.1794 11.25 15.1752 11.25C15.1709 11.25 15.1667 11.25 15.1625 11.25C15.1583 11.25 15.1541 11.25 15.1499 11.25C15.1457 11.25 15.1415 11.25 15.1373 11.25C15.1331 11.25 15.1289 11.25 15.1247 11.25C15.1206 11.25 15.1164 11.25 15.1122 11.25C15.108 11.25 15.1039 11.25 15.0997 11.25C15.0955 11.25 15.0914 11.25 15.0872 11.25C15.0831 11.25 15.0789 11.25 15.0748 11.25C15.0706 11.25 15.0665 11.25 15.0623 11.25C15.0582 11.25 15.0541 11.25 15.0499 11.25C15.0458 11.25 15.0417 11.25 15.0376 11.25C15.0334 11.25 15.0293 11.25 15.0252 11.25C15.0211 11.25 15.017 11.25 15.0129 11.25C15.0088 11.25 15.0047 11.25 15.0006 11.25C14.9965 11.25 14.9924 11.25 14.9884 11.25C14.9843 11.25 14.9802 11.25 14.9761 11.25C14.972 11.25 14.968 11.25 14.9639 11.25C14.9599 11.25 14.9558 11.25 14.9517 11.25C14.9477 11.25 14.9436 11.25 14.9396 11.25C14.9355 11.25 14.9315 11.25 14.9275 11.25C14.9234 11.25 14.9194 11.25 14.9154 11.25C14.9113 11.25 14.9073 11.25 14.9033 11.25C14.8993 11.25 14.8953 11.25 14.8913 11.25C14.8873 11.25 14.8833 11.25 14.8793 11.25C14.8753 11.25 14.8713 11.25 14.8673 11.25C14.8633 11.25 14.8593 11.25 14.8553 11.25C14.8514 11.25 14.8474 11.25 14.8434 11.25C14.8394 11.25 14.8355 11.25 14.8315 11.25C14.8276 11.25 14.8236 11.25 14.8197 11.25C14.8157 11.25 14.8118 11.25 14.8078 11.25C14.8039 11.25 14.7999 11.25 14.796 11.25C14.7921 11.25 14.7882 11.25 14.7842 11.25C14.7803 11.25 14.7764 11.25 14.7725 11.25C14.7686 11.25 14.7647 11.25 14.7608 11.25C14.7569 11.25 14.753 11.25 14.7491 11.25C14.7452 11.25 14.7413 11.25 14.7374 11.25C14.7335 11.25 14.7297 11.25 14.7258 11.25C14.7219 11.25 14.718 11.25 14.7142 11.25C14.7103 11.25 14.7065 11.25 14.7026 11.25C14.6988 11.25 14.6949 11.25 14.6911 11.25C14.6872 11.25 14.6834 11.25 14.6796 11.25C14.6757 11.25 14.6719 11.25 14.6681 11.25C14.6643 11.25 14.6604 11.25 14.6566 11.25C14.6528 11.25 14.649 11.25 14.6452 11.25C14.6414 11.25 14.6376 11.25 14.6338 11.25C14.63 11.25 14.6262 11.25 14.6224 11.25C14.6187 11.25 14.6149 11.25 14.6111 11.25C14.6073 11.25 14.6036 11.25 14.5998 11.25C14.5961 11.25 14.5923 11.25 14.5885 11.25C14.5848 11.25 14.581 11.25 14.5773 11.25C14.5736 11.25 14.5698 11.25 14.5661 11.25C14.5624 11.25 14.5586 11.25 14.5549 11.25C14.5512 11.25 14.5475 11.25 14.5438 11.25C14.5401 11.25 14.5363 11.25 14.5326 11.25C14.5289 11.25 14.5253 11.25 14.5216 11.25C14.5179 11.25 14.5142 11.25 14.5105 11.25C14.5068 11.25 14.5031 11.25 14.4995 11.25C14.4958 11.25 14.4921 11.25 14.4885 11.25C14.4848 11.25 14.4812 11.25 14.4775 11.25C14.4739 11.25 14.4702 11.25 14.4666 11.25C14.463 11.25 14.4593 11.25 14.4557 11.25C14.4521 11.25 14.4484 11.25 14.4448 11.25C14.4412 11.25 14.4376 11.25 14.434 11.25C14.4304 11.25 14.4268 11.25 14.4232 11.25C14.4196 11.25 14.416 11.25 14.4124 11.25C14.4088 11.25 14.4052 11.25 14.4017 11.25C14.3981 11.25 14.3945 11.25 14.391 11.25C14.3874 11.25 14.3838 11.25 14.3803 11.25C14.3767 11.25 14.3732 11.25 14.3696 11.25C14.3661 11.25 14.3625 11.25 14.359 11.25C14.3555 11.25 14.3519 11.25 14.3484 11.25C14.3449 11.25 14.3414 11.25 14.3379 11.25C14.3344 11.25 14.3309 11.25 14.3274 11.25C14.3239 11.25 14.3204 11.25 14.3169 11.25C14.3134 11.25 14.3099 11.25 14.3064 11.25C14.3029 11.25 14.2995 11.25 14.296 11.25C14.2925 11.25 14.2891 11.25 14.2856 11.25C14.2822 11.25 14.2787 11.25 14.2753 11.25C14.2718 11.25 14.2684 11.25 14.2649 11.25C14.2615 11.25 14.2581 11.25 14.2546 11.25C14.2512 11.25 14.2478 11.25 14.2444 11.25C14.241 11.25 14.2376 11.25 14.2342 11.25C14.2308 11.25 14.2274 11.25 14.224 11.25C14.2206 11.25 14.2172 11.25 14.2138 11.25C14.2104 11.25 14.2071 11.25 14.2037 11.25C14.2003 11.25 14.197 11.25 14.1936 11.25C14.1902 11.25 14.1869 11.25 14.1835 11.25C14.1802 11.25 14.1768 11.25 14.1735 11.25C14.1702 11.25 14.1668 11.25 14.1635 11.25C14.1602 11.25 14.1569 11.25 14.1536 11.25C14.1502 11.25 14.1469 11.25 14.1436 11.25C14.1403 11.25 14.137 11.25 14.1337 11.25C14.1305 11.25 14.1272 11.25 14.1239 11.25C14.1206 11.25 14.1173 11.25 14.1141 11.25C14.1108 11.25 14.1075 11.25 14.1043 11.25C14.101 11.25 14.0978 11.25 14.0945 11.25C14.0913 11.25 14.088 11.25 14.0848 11.25C14.0816 11.25 14.0783 11.25 14.0751 11.25C14.0719 11.25 14.0687 11.25 14.0655 11.25C14.0623 11.25 14.059 11.25 14.0558 11.25C14.0526 11.25 14.0494 11.25 14.0463 11.25C14.0431 11.25 14.0399 11.25 14.0367 11.25C14.0335 11.25 14.0304 11.25 14.0272 11.25C14.024 11.25 14.0209 11.25 14.0177 11.25C14.0146 11.25 14.0114 11.25 14.0083 11.25C14.0051 11.25 14.002 11.25 13.9989 11.25C13.9957 11.25 13.9926 11.25 13.9895 11.25C13.9864 11.25 13.9833 11.25 13.9801 11.25C13.977 11.25 13.9739 11.25 13.9708 11.25C13.9677 11.25 13.9647 11.25 13.9616 11.25C13.9585 11.25 13.9554 11.25 13.9523 11.25C13.9493 11.25 13.9462 11.25 13.9431 11.25C13.9401 11.25 13.937 11.25 13.934 11.25C13.9309 11.25 13.9279 11.25 13.9248 11.25C13.9218 11.25 13.9188 11.25 13.9157 11.25C13.9127 11.25 13.9097 11.25 13.9067 11.25C13.9037 11.25 13.9007 11.25 13.8977 11.25C13.8947 11.25 13.8917 11.25 13.8887 11.25C13.8857 11.25 13.8827 11.25 13.8797 11.25C13.8768 11.25 13.8738 11.25 13.8708 11.25C13.8679 11.25 13.8649 11.25 13.8619 11.25C13.859 11.25 13.856 11.25 13.8531 11.25C13.8502 11.25 13.8472 11.25 13.8443 11.25C13.8414 11.25 13.8384 11.25 13.8355 11.25C13.8326 11.25 13.8297 11.25 13.8268 11.25C13.8239 11.25 13.821 11.25 13.8181 11.25C13.8152 11.25 13.8123 11.25 13.8094 11.25C13.8065 11.25 13.8037 11.25 13.8008 11.25C13.7979 11.25 13.7951 11.25 13.7922 11.25C13.7894 11.25 13.7865 11.25 13.7837 11.25C13.7808 11.25 13.778 11.25 13.7751 11.25C13.7723 11.25 13.7695 11.25 13.7667 11.25C13.7638 11.25 13.761 11.25 13.7582 11.25C13.7554 11.25 13.7526 11.25 13.7498 11.25C13.747 11.25 13.7442 11.25 13.7415 11.25C13.7387 11.25 13.7359 11.25 13.7331 11.25C13.7304 11.25 13.7276 11.25 13.7248 11.25C13.7221 11.25 13.7193 11.25 13.7166 11.25C13.7138 11.25 13.7111 11.25 13.7084 11.25C13.7056 11.25 13.7029 11.25 13.7002 11.25C13.6975 11.25 13.6947 11.25 13.692 11.25C13.6893 11.25 13.6866 11.25 13.6839 11.25C13.6812 11.25 13.6785 11.25 13.6759 11.25C13.6732 11.25 13.6705 11.25 13.6678 11.25C13.6652 11.25 13.6625 11.25 13.6598 11.25C13.6572 11.25 13.6545 11.25 13.6519 11.25C13.6492 11.25 13.6466 11.25 13.644 11.25C13.6413 11.25 13.6387 11.25 13.6361 11.25C13.6335 11.25 13.6309 11.25 13.6283 11.25C13.6256 11.25 13.623 11.25 13.6205 11.25C13.6179 11.25 13.6153 11.25 13.6127 11.25C13.6101 11.25 13.6075 11.25 13.605 11.25C13.6024 11.25 13.5998 11.25 13.5973 11.25C13.5947 11.25 13.5922 11.25 13.5896 11.25C13.5871 11.25 13.5845 11.25 13.582 11.25C13.5795 11.25 13.577 11.25 13.5744 11.25C13.5719 11.25 13.5694 11.25 13.5669 11.25C13.5644 11.25 13.5619 11.25 13.5594 11.25C13.5569 11.25 13.5544 11.25 13.552 11.25C13.5495 11.25 13.547 11.25 13.5446 11.25C13.5421 11.25 13.5396 11.25 13.5372 11.25C13.5347 11.25 13.5323 11.25 13.5298 11.25C13.5274 11.25 13.525 11.25 13.5225 11.25C13.5201 11.25 13.5177 11.25 13.5153 11.25C13.5129 11.25 13.5105 11.25 13.5081 11.25C13.5057 11.25 13.5033 11.25 13.5009 11.25C13.4985 11.25 13.4961 11.25 13.4937 11.25C13.4914 11.25 13.489 11.25 13.4866 11.25C13.4843 11.25 13.4819 11.25 13.4796 11.25C13.4772 11.25 13.4749 11.25 13.4726 11.25C13.4702 11.25 13.4679 11.25 13.4656 11.25C13.4633 11.25 13.4609 11.25 13.4586 11.25C13.4563 11.25 13.454 11.25 13.4517 11.25C13.4494 11.25 13.4472 11.25 13.4449 11.25C13.4426 11.25 13.4403 11.25 13.4381 11.25C13.4358 11.25 13.4335 11.25 13.4313 11.25C13.429 11.25 13.4268 11.25 13.4245 11.25C13.4223 11.25 13.4201 11.25 13.4178 11.25C13.4156 11.25 13.4134 11.25 13.4112 11.25C13.409 11.25 13.4068 11.25 13.4046 11.25C13.4024 11.25 13.4002 11.25 13.398 11.25C13.3958 11.25 13.3936 11.25 13.3914 11.25C13.3893 11.25 13.3871 11.25 13.3849 11.25C13.3828 11.25 13.3806 11.25 13.3785 11.25C13.3763 11.25 13.3742 11.25 13.3721 11.25C13.3699 11.25 13.3678 11.25 13.3657 11.25C13.3636 11.25 13.3615 11.25 13.3594 11.25C13.3573 11.25 13.3552 11.25 13.3531 11.25C13.351 11.25 13.3489 11.25 13.3468 11.25C13.3447 11.25 13.3427 11.25 13.3406 11.25C13.3385 11.25 13.3365 11.25 13.3344 11.25C13.3324 11.25 13.3303 11.25 13.3283 11.25C13.3263 11.25 13.3242 11.25 13.3222 11.25C13.3202 11.25 13.3182 11.25 13.3162 11.25C13.3142 11.25 13.3122 11.25 13.3102 11.25C13.3082 11.25 13.3062 11.25 13.3042 11.25C13.3022 11.25 13.3003 11.25 13.2983 11.25C13.2963 11.25 13.2944 11.25 13.2924 11.25C13.2905 11.25 13.2885 11.25 13.2866 11.25C13.2847 11.25 13.2827 11.25 13.2808 11.25C13.2789 11.25 13.277 11.25 13.275 11.25C13.2731 11.25 13.2712 11.25 13.2693 11.25C13.2674 11.25 13.2656 11.25 13.2637 11.25C13.2618 11.25 13.2599 11.25 13.2581 11.25C13.2562 11.25 13.2543 11.25 13.2525 11.25C13.2506 11.25 13.2488 11.25 13.2469 11.25C13.2451 11.25 13.2433 11.25 13.2414 11.25C13.2396 11.25 13.2378 11.25 13.236 11.25C13.2342 11.25 13.2324 11.25 13.2306 11.25C13.2288 11.25 13.227 11.25 13.2252 11.25C13.2234 11.25 13.2217 11.25 13.2199 11.25C13.2181 11.25 13.2164 11.25 13.2146 11.25C13.2128 11.25 13.2111 11.25 13.2094 11.25C13.2076 11.25 13.2059 11.25 13.2042 11.25C13.2024 11.25 13.2007 11.25 13.199 11.25C13.1973 11.25 13.1956 11.25 13.1939 11.25C13.1922 11.25 13.1905 11.25 13.1888 11.25C13.1872 11.25 13.1855 11.25 13.1838 11.25C13.1822 11.25 13.1805 11.25 13.1788 11.25C13.1772 11.25 13.1755 11.25 13.1739 11.25C13.1723 11.25 13.1706 11.25 13.169 11.25C13.1674 11.25 13.1658 11.25 13.1642 11.25C13.1626 11.25 13.161 11.25 13.1594 11.25C13.1578 11.25 13.1562 11.25 13.1546 11.25C13.153 11.25 13.1515 11.25 13.1499 11.25C13.1483 11.25 13.1468 11.25 13.1452 11.25C13.1437 11.25 13.1421 11.25 13.1406 11.25C13.1391 11.25 13.1375 11.25 13.136 11.25C13.1345 11.25 13.133 11.25 13.1315 11.25C13.13 11.25 13.1285 11.25 13.127 11.25C13.1255 11.25 13.124 11.25 13.1225 11.25C13.1211 11.25 13.1196 11.25 13.1181 11.25C13.1167 11.25 13.1152 11.25 13.1138 11.25C13.1123 11.25 13.1109 11.25 13.1095 11.25C13.108 11.25 13.1066 11.25 13.1052 11.25C13.1038 11.25 13.1024 11.25 13.101 11.25C13.0996 11.25 13.0982 11.25 13.0968 11.25C13.0954 11.25 13.094 11.25 13.0926 11.25C13.0913 11.25 13.0899 11.25 13.0885 11.25C13.0872 11.25 13.0858 11.25 13.0845 11.25C13.0832 11.25 13.0818 11.25 13.0805 11.25C13.0792 11.25 13.0779 11.25 13.0765 11.25C13.0752 11.25 13.0739 11.25 13.0726 11.25C13.0713 11.25 13.0701 11.25 13.0688 11.25C13.0675 11.25 13.0662 11.25 13.065 11.25C13.0637 11.25 13.0624 11.25 13.0612 11.25C13.0599 11.25 13.0587 11.25 13.0575 11.25C13.0562 11.25 13.055 11.25 13.0538 11.25C13.0526 11.25 13.0513 11.25 13.0501 11.25C13.0489 11.25 13.0477 11.25 13.0466 11.25C13.0454 11.25 13.0442 11.25 13.043 11.25C13.0418 11.25 13.0407 11.25 13.0395 11.25C13.0384 11.25 13.0372 11.25 13.0361 11.25C13.0349 11.25 13.0338 11.25 13.0327 11.25C13.0315 11.25 13.0304 11.25 13.0293 11.25C13.0282 11.25 13.0271 11.25 13.026 11.25C13.0249 11.25 13.0238 11.25 13.0227 11.25C13.0216 11.25 13.0206 11.25 13.0195 11.25C13.0184 11.25 13.0174 11.25 13.0163 11.25C13.0153 11.25 13.0142 11.25 13.0132 11.25C13.0122 11.25 13.0111 11.25 13.0101 11.25C13.0091 11.25 13.0081 11.25 13.0071 11.25C13.0061 11.25 13.0051 11.25 13.0041 11.25C13.0031 11.25 13.0021 11.25 13.0012 11.25C13.0002 11.25 12.9992 11.25 12.9983 11.25C12.9973 11.25 12.9964 11.25 12.9954 11.25C12.9945 11.25 12.9936 11.25 12.9926 11.25C12.9917 11.25 12.9908 11.25 12.9899 11.25C12.989 11.25 12.9881 11.25 12.9872 11.25C12.9863 11.25 12.9854 11.25 12.9845 11.25C12.9837 11.25 12.9828 11.25 12.9819 11.25C12.9811 11.25 12.9802 11.25 12.9794 11.25C12.9785 11.25 12.9777 11.25 12.9769 11.25C12.976 11.25 12.9752 11.25 12.9744 11.25C12.9736 11.25 12.9728 11.25 12.972 11.25C12.9712 11.25 12.9704 11.25 12.9696 11.25C12.9688 11.25 12.9681 11.25 12.9673 11.25C12.9665 11.25 12.9658 11.25 12.965 11.25C12.9643 11.25 12.9635 11.25 12.9628 11.25C12.9621 11.25 12.9613 11.25 12.9606 11.25C12.9599 11.25 12.9592 11.25 12.9585 11.25C12.9578 11.25 12.9571 11.25 12.9564 11.25C12.9557 11.25 12.9551 11.25 12.9544 11.25C12.9537 11.25 12.9531 11.25 12.9524 11.25C12.9518 11.25 12.9511 11.25 12.9505 11.25C12.9498 11.25 12.9492 11.25 12.9486 11.25C12.948 11.25 12.9474 11.25 12.9468 11.25C12.9462 11.25 12.9456 11.25 12.945 11.25C12.9444 11.25 12.9438 11.25 12.9432 11.25C12.9427 11.25 12.9421 11.25 12.9415 11.25C12.941 11.25 12.9404 11.25 12.9399 11.25C12.9394 11.25 12.9388 11.25 12.9383 11.25C12.9378 11.25 12.9373 11.25 12.9368 11.25C12.9363 11.25 12.9358 11.25 12.9353 11.25C12.9348 11.25 12.9343 11.25 12.9338 11.25C12.9334 11.25 12.9329 11.25 12.9325 11.25C12.932 11.25 12.9316 11.25 12.9311 11.25C12.9307 11.25 12.9302 11.25 12.9298 11.25C12.9294 11.25 12.929 11.25 12.9286 11.25C12.9282 11.25 12.9278 11.25 12.9274 11.25C12.927 11.25 12.9266 11.25 12.9262 11.25C12.9259 11.25 12.9255 11.25 12.9251 11.25C12.9248 11.25 12.9244 11.25 12.9241 11.25C12.9238 11.25 12.9234 11.25 12.9231 11.25C12.9228 11.25 12.9225 11.25 12.9222 11.25C12.9219 11.25 12.9216 11.25 12.9213 11.25C12.921 11.25 12.9207 11.25 12.9204 11.25C12.9202 11.25 12.9199 11.25 12.9196 11.25C12.9194 11.25 12.9191 11.25 12.9189 11.25C12.9187 11.25 12.9184 11.25 12.9182 11.25C12.918 11.25 12.9178 11.25 12.9176 11.25C12.9174 11.25 12.9172 11.25 12.917 11.25C12.9168 11.25 12.9166 11.25 12.9164 11.25C12.9163 11.25 12.9161 11.25 12.916 11.25C12.9158 11.25 12.9157 11.25 12.9155 11.25C12.9154 11.25 12.9153 11.25 12.9151 11.25C12.915 11.25 12.9149 11.25 12.9148 11.25C12.9147 11.25 12.9146 11.25 12.9145 11.25C12.9144 11.25 12.9144 11.25 12.9143 11.25C12.9142 11.25 12.9142 11.25 12.9141 11.25C12.9141 11.25 12.914 11.25 12.914 11.25C12.9139 11.25 12.9139 11.25 12.9139 11.25C12.9139 11.25 12.9139 11.25 12.9139 12C12.9139 12.75 12.9139 12.75 12.9139 12.75C12.9139 12.75 12.9139 12.75 12.914 12.75C12.914 12.75 12.9141 12.75 12.9141 12.75C12.9142 12.75 12.9142 12.75 12.9143 12.75C12.9144 12.75 12.9144 12.75 12.9145 12.75C12.9146 12.75 12.9147 12.75 12.9148 12.75C12.9149 12.75 12.915 12.75 12.9151 12.75C12.9153 12.75 12.9154 12.75 12.9155 12.75C12.9157 12.75 12.9158 12.75 12.916 12.75C12.9161 12.75 12.9163 12.75 12.9164 12.75C12.9166 12.75 12.9168 12.75 12.917 12.75C12.9172 12.75 12.9174 12.75 12.9176 12.75C12.9178 12.75 12.918 12.75 12.9182 12.75C12.9184 12.75 12.9187 12.75 12.9189 12.75C12.9191 12.75 12.9194 12.75 12.9196 12.75C12.9199 12.75 12.9202 12.75 12.9204 12.75C12.9207 12.75 12.921 12.75 12.9213 12.75C12.9216 12.75 12.9219 12.75 12.9222 12.75C12.9225 12.75 12.9228 12.75 12.9231 12.75C12.9234 12.75 12.9238 12.75 12.9241 12.75C12.9244 12.75 12.9248 12.75 12.9251 12.75C12.9255 12.75 12.9259 12.75 12.9262 12.75C12.9266 12.75 12.927 12.75 12.9274 12.75C12.9278 12.75 12.9282 12.75 12.9286 12.75C12.929 12.75 12.9294 12.75 12.9298 12.75C12.9302 12.75 12.9307 12.75 12.9311 12.75C12.9316 12.75 12.932 12.75 12.9325 12.75C12.9329 12.75 12.9334 12.75 12.9338 12.75C12.9343 12.75 12.9348 12.75 12.9353 12.75C12.9358 12.75 12.9363 12.75 12.9368 12.75C12.9373 12.75 12.9378 12.75 12.9383 12.75C12.9388 12.75 12.9394 12.75 12.9399 12.75C12.9404 12.75 12.941 12.75 12.9415 12.75C12.9421 12.75 12.9427 12.75 12.9432 12.75C12.9438 12.75 12.9444 12.75 12.945 12.75C12.9456 12.75 12.9462 12.75 12.9468 12.75C12.9474 12.75 12.948 12.75 12.9486 12.75C12.9492 12.75 12.9498 12.75 12.9505 12.75C12.9511 12.75 12.9518 12.75 12.9524 12.75C12.9531 12.75 12.9537 12.75 12.9544 12.75C12.9551 12.75 12.9557 12.75 12.9564 12.75C12.9571 12.75 12.9578 12.75 12.9585 12.75C12.9592 12.75 12.9599 12.75 12.9606 12.75C12.9613 12.75 12.9621 12.75 12.9628 12.75C12.9635 12.75 12.9643 12.75 12.965 12.75C12.9658 12.75 12.9665 12.75 12.9673 12.75C12.9681 12.75 12.9688 12.75 12.9696 12.75C12.9704 12.75 12.9712 12.75 12.972 12.75C12.9728 12.75 12.9736 12.75 12.9744 12.75C12.9752 12.75 12.976 12.75 12.9769 12.75C12.9777 12.75 12.9785 12.75 12.9794 12.75C12.9802 12.75 12.9811 12.75 12.9819 12.75C12.9828 12.75 12.9837 12.75 12.9845 12.75C12.9854 12.75 12.9863 12.75 12.9872 12.75C12.9881 12.75 12.989 12.75 12.9899 12.75C12.9908 12.75 12.9917 12.75 12.9926 12.75C12.9936 12.75 12.9945 12.75 12.9954 12.75C12.9964 12.75 12.9973 12.75 12.9983 12.75C12.9992 12.75 13.0002 12.75 13.0012 12.75C13.0021 12.75 13.0031 12.75 13.0041 12.75C13.0051 12.75 13.0061 12.75 13.0071 12.75C13.0081 12.75 13.0091 12.75 13.0101 12.75C13.0111 12.75 13.0122 12.75 13.0132 12.75C13.0142 12.75 13.0153 12.75 13.0163 12.75C13.0174 12.75 13.0184 12.75 13.0195 12.75C13.0206 12.75 13.0216 12.75 13.0227 12.75C13.0238 12.75 13.0249 12.75 13.026 12.75C13.0271 12.75 13.0282 12.75 13.0293 12.75C13.0304 12.75 13.0315 12.75 13.0327 12.75C13.0338 12.75 13.0349 12.75 13.0361 12.75C13.0372 12.75 13.0384 12.75 13.0395 12.75C13.0407 12.75 13.0418 12.75 13.043 12.75C13.0442 12.75 13.0454 12.75 13.0466 12.75C13.0477 12.75 13.0489 12.75 13.0501 12.75C13.0513 12.75 13.0526 12.75 13.0538 12.75C13.055 12.75 13.0562 12.75 13.0575 12.75C13.0587 12.75 13.0599 12.75 13.0612 12.75C13.0624 12.75 13.0637 12.75 13.065 12.75C13.0662 12.75 13.0675 12.75 13.0688 12.75C13.0701 12.75 13.0713 12.75 13.0726 12.75C13.0739 12.75 13.0752 12.75 13.0765 12.75C13.0779 12.75 13.0792 12.75 13.0805 12.75C13.0818 12.75 13.0832 12.75 13.0845 12.75C13.0858 12.75 13.0872 12.75 13.0885 12.75C13.0899 12.75 13.0913 12.75 13.0926 12.75C13.094 12.75 13.0954 12.75 13.0968 12.75C13.0982 12.75 13.0996 12.75 13.101 12.75C13.1024 12.75 13.1038 12.75 13.1052 12.75C13.1066 12.75 13.108 12.75 13.1095 12.75C13.1109 12.75 13.1123 12.75 13.1138 12.75C13.1152 12.75 13.1167 12.75 13.1181 12.75C13.1196 12.75 13.1211 12.75 13.1225 12.75C13.124 12.75 13.1255 12.75 13.127 12.75C13.1285 12.75 13.13 12.75 13.1315 12.75C13.133 12.75 13.1345 12.75 13.136 12.75C13.1375 12.75 13.1391 12.75 13.1406 12.75C13.1421 12.75 13.1437 12.75 13.1452 12.75C13.1468 12.75 13.1483 12.75 13.1499 12.75C13.1515 12.75 13.153 12.75 13.1546 12.75C13.1562 12.75 13.1578 12.75 13.1594 12.75C13.161 12.75 13.1626 12.75 13.1642 12.75C13.1658 12.75 13.1674 12.75 13.169 12.75C13.1706 12.75 13.1723 12.75 13.1739 12.75C13.1755 12.75 13.1772 12.75 13.1788 12.75C13.1805 12.75 13.1822 12.75 13.1838 12.75C13.1855 12.75 13.1872 12.75 13.1888 12.75C13.1905 12.75 13.1922 12.75 13.1939 12.75C13.1956 12.75 13.1973 12.75 13.199 12.75C13.2007 12.75 13.2024 12.75 13.2042 12.75C13.2059 12.75 13.2076 12.75 13.2094 12.75C13.2111 12.75 13.2128 12.75 13.2146 12.75C13.2164 12.75 13.2181 12.75 13.2199 12.75C13.2217 12.75 13.2234 12.75 13.2252 12.75C13.227 12.75 13.2288 12.75 13.2306 12.75C13.2324 12.75 13.2342 12.75 13.236 12.75C13.2378 12.75 13.2396 12.75 13.2414 12.75C13.2433 12.75 13.2451 12.75 13.2469 12.75C13.2488 12.75 13.2506 12.75 13.2525 12.75C13.2543 12.75 13.2562 12.75 13.2581 12.75C13.2599 12.75 13.2618 12.75 13.2637 12.75C13.2656 12.75 13.2674 12.75 13.2693 12.75C13.2712 12.75 13.2731 12.75 13.275 12.75C13.277 12.75 13.2789 12.75 13.2808 12.75C13.2827 12.75 13.2847 12.75 13.2866 12.75C13.2885 12.75 13.2905 12.75 13.2924 12.75C13.2944 12.75 13.2963 12.75 13.2983 12.75C13.3003 12.75 13.3022 12.75 13.3042 12.75C13.3062 12.75 13.3082 12.75 13.3102 12.75C13.3122 12.75 13.3142 12.75 13.3162 12.75C13.3182 12.75 13.3202 12.75 13.3222 12.75C13.3242 12.75 13.3263 12.75 13.3283 12.75C13.3303 12.75 13.3324 12.75 13.3344 12.75C13.3365 12.75 13.3385 12.75 13.3406 12.75C13.3427 12.75 13.3447 12.75 13.3468 12.75C13.3489 12.75 13.351 12.75 13.3531 12.75C13.3552 12.75 13.3573 12.75 13.3594 12.75C13.3615 12.75 13.3636 12.75 13.3657 12.75C13.3678 12.75 13.3699 12.75 13.3721 12.75C13.3742 12.75 13.3763 12.75 13.3785 12.75C13.3806 12.75 13.3828 12.75 13.3849 12.75C13.3871 12.75 13.3893 12.75 13.3914 12.75C13.3936 12.75 13.3958 12.75 13.398 12.75C13.4002 12.75 13.4024 12.75 13.4046 12.75C13.4068 12.75 13.409 12.75 13.4112 12.75C13.4134 12.75 13.4156 12.75 13.4178 12.75C13.4201 12.75 13.4223 12.75 13.4245 12.75C13.4268 12.75 13.429 12.75 13.4313 12.75C13.4335 12.75 13.4358 12.75 13.4381 12.75C13.4403 12.75 13.4426 12.75 13.4449 12.75C13.4472 12.75 13.4494 12.75 13.4517 12.75C13.454 12.75 13.4563 12.75 13.4586 12.75C13.4609 12.75 13.4633 12.75 13.4656 12.75C13.4679 12.75 13.4702 12.75 13.4726 12.75C13.4749 12.75 13.4772 12.75 13.4796 12.75C13.4819 12.75 13.4843 12.75 13.4866 12.75C13.489 12.75 13.4914 12.75 13.4937 12.75C13.4961 12.75 13.4985 12.75 13.5009 12.75C13.5033 12.75 13.5057 12.75 13.5081 12.75C13.5105 12.75 13.5129 12.75 13.5153 12.75C13.5177 12.75 13.5201 12.75 13.5225 12.75C13.525 12.75 13.5274 12.75 13.5298 12.75C13.5323 12.75 13.5347 12.75 13.5372 12.75C13.5396 12.75 13.5421 12.75 13.5446 12.75C13.547 12.75 13.5495 12.75 13.552 12.75C13.5544 12.75 13.5569 12.75 13.5594 12.75C13.5619 12.75 13.5644 12.75 13.5669 12.75C13.5694 12.75 13.5719 12.75 13.5744 12.75C13.577 12.75 13.5795 12.75 13.582 12.75C13.5845 12.75 13.5871 12.75 13.5896 12.75C13.5922 12.75 13.5947 12.75 13.5973 12.75C13.5998 12.75 13.6024 12.75 13.605 12.75C13.6075 12.75 13.6101 12.75 13.6127 12.75C13.6153 12.75 13.6179 12.75 13.6205 12.75C13.623 12.75 13.6256 12.75 13.6283 12.75C13.6309 12.75 13.6335 12.75 13.6361 12.75C13.6387 12.75 13.6413 12.75 13.644 12.75C13.6466 12.75 13.6492 12.75 13.6519 12.75C13.6545 12.75 13.6572 12.75 13.6598 12.75C13.6625 12.75 13.6652 12.75 13.6678 12.75C13.6705 12.75 13.6732 12.75 13.6759 12.75C13.6785 12.75 13.6812 12.75 13.6839 12.75C13.6866 12.75 13.6893 12.75 13.692 12.75C13.6947 12.75 13.6975 12.75 13.7002 12.75C13.7029 12.75 13.7056 12.75 13.7084 12.75C13.7111 12.75 13.7138 12.75 13.7166 12.75C13.7193 12.75 13.7221 12.75 13.7248 12.75C13.7276 12.75 13.7304 12.75 13.7331 12.75C13.7359 12.75 13.7387 12.75 13.7415 12.75C13.7442 12.75 13.747 12.75 13.7498 12.75C13.7526 12.75 13.7554 12.75 13.7582 12.75C13.761 12.75 13.7638 12.75 13.7667 12.75C13.7695 12.75 13.7723 12.75 13.7751 12.75C13.778 12.75 13.7808 12.75 13.7837 12.75C13.7865 12.75 13.7894 12.75 13.7922 12.75C13.7951 12.75 13.7979 12.75 13.8008 12.75C13.8037 12.75 13.8065 12.75 13.8094 12.75C13.8123 12.75 13.8152 12.75 13.8181 12.75C13.821 12.75 13.8239 12.75 13.8268 12.75C13.8297 12.75 13.8326 12.75 13.8355 12.75C13.8384 12.75 13.8414 12.75 13.8443 12.75C13.8472 12.75 13.8502 12.75 13.8531 12.75C13.856 12.75 13.859 12.75 13.8619 12.75C13.8649 12.75 13.8679 12.75 13.8708 12.75C13.8738 12.75 13.8768 12.75 13.8797 12.75C13.8827 12.75 13.8857 12.75 13.8887 12.75C13.8917 12.75 13.8947 12.75 13.8977 12.75C13.9007 12.75 13.9037 12.75 13.9067 12.75C13.9097 12.75 13.9127 12.75 13.9157 12.75C13.9188 12.75 13.9218 12.75 13.9248 12.75C13.9279 12.75 13.9309 12.75 13.934 12.75C13.937 12.75 13.9401 12.75 13.9431 12.75C13.9462 12.75 13.9493 12.75 13.9523 12.75C13.9554 12.75 13.9585 12.75 13.9616 12.75C13.9647 12.75 13.9677 12.75 13.9708 12.75C13.9739 12.75 13.977 12.75 13.9801 12.75C13.9833 12.75 13.9864 12.75 13.9895 12.75C13.9926 12.75 13.9957 12.75 13.9989 12.75C14.002 12.75 14.0051 12.75 14.0083 12.75C14.0114 12.75 14.0146 12.75 14.0177 12.75C14.0209 12.75 14.024 12.75 14.0272 12.75C14.0304 12.75 14.0335 12.75 14.0367 12.75C14.0399 12.75 14.0431 12.75 14.0463 12.75C14.0494 12.75 14.0526 12.75 14.0558 12.75C14.059 12.75 14.0623 12.75 14.0655 12.75C14.0687 12.75 14.0719 12.75 14.0751 12.75C14.0783 12.75 14.0816 12.75 14.0848 12.75C14.088 12.75 14.0913 12.75 14.0945 12.75C14.0978 12.75 14.101 12.75 14.1043 12.75C14.1075 12.75 14.1108 12.75 14.1141 12.75C14.1173 12.75 14.1206 12.75 14.1239 12.75C14.1272 12.75 14.1305 12.75 14.1337 12.75C14.137 12.75 14.1403 12.75 14.1436 12.75C14.1469 12.75 14.1502 12.75 14.1536 12.75C14.1569 12.75 14.1602 12.75 14.1635 12.75C14.1668 12.75 14.1702 12.75 14.1735 12.75C14.1768 12.75 14.1802 12.75 14.1835 12.75C14.1869 12.75 14.1902 12.75 14.1936 12.75C14.197 12.75 14.2003 12.75 14.2037 12.75C14.2071 12.75 14.2104 12.75 14.2138 12.75C14.2172 12.75 14.2206 12.75 14.224 12.75C14.2274 12.75 14.2308 12.75 14.2342 12.75C14.2376 12.75 14.241 12.75 14.2444 12.75C14.2478 12.75 14.2512 12.75 14.2546 12.75C14.2581 12.75 14.2615 12.75 14.2649 12.75C14.2684 12.75 14.2718 12.75 14.2753 12.75C14.2787 12.75 14.2822 12.75 14.2856 12.75C14.2891 12.75 14.2925 12.75 14.296 12.75C14.2995 12.75 14.3029 12.75 14.3064 12.75C14.3099 12.75 14.3134 12.75 14.3169 12.75C14.3204 12.75 14.3239 12.75 14.3274 12.75C14.3309 12.75 14.3344 12.75 14.3379 12.75C14.3414 12.75 14.3449 12.75 14.3484 12.75C14.3519 12.75 14.3555 12.75 14.359 12.75C14.3625 12.75 14.3661 12.75 14.3696 12.75C14.3732 12.75 14.3767 12.75 14.3803 12.75C14.3838 12.75 14.3874 12.75 14.391 12.75C14.3945 12.75 14.3981 12.75 14.4017 12.75C14.4052 12.75 14.4088 12.75 14.4124 12.75C14.416 12.75 14.4196 12.75 14.4232 12.75C14.4268 12.75 14.4304 12.75 14.434 12.75C14.4376 12.75 14.4412 12.75 14.4448 12.75C14.4484 12.75 14.4521 12.75 14.4557 12.75C14.4593 12.75 14.463 12.75 14.4666 12.75C14.4702 12.75 14.4739 12.75 14.4775 12.75C14.4812 12.75 14.4848 12.75 14.4885 12.75C14.4921 12.75 14.4958 12.75 14.4995 12.75C14.5031 12.75 14.5068 12.75 14.5105 12.75C14.5142 12.75 14.5179 12.75 14.5216 12.75C14.5253 12.75 14.5289 12.75 14.5326 12.75C14.5363 12.75 14.5401 12.75 14.5438 12.75C14.5475 12.75 14.5512 12.75 14.5549 12.75C14.5586 12.75 14.5624 12.75 14.5661 12.75C14.5698 12.75 14.5736 12.75 14.5773 12.75C14.581 12.75 14.5848 12.75 14.5885 12.75C14.5923 12.75 14.5961 12.75 14.5998 12.75C14.6036 12.75 14.6073 12.75 14.6111 12.75C14.6149 12.75 14.6187 12.75 14.6224 12.75C14.6262 12.75 14.63 12.75 14.6338 12.75C14.6376 12.75 14.6414 12.75 14.6452 12.75C14.649 12.75 14.6528 12.75 14.6566 12.75C14.6604 12.75 14.6643 12.75 14.6681 12.75C14.6719 12.75 14.6757 12.75 14.6796 12.75C14.6834 12.75 14.6872 12.75 14.6911 12.75C14.6949 12.75 14.6988 12.75 14.7026 12.75C14.7065 12.75 14.7103 12.75 14.7142 12.75C14.718 12.75 14.7219 12.75 14.7258 12.75C14.7297 12.75 14.7335 12.75 14.7374 12.75C14.7413 12.75 14.7452 12.75 14.7491 12.75C14.753 12.75 14.7569 12.75 14.7608 12.75C14.7647 12.75 14.7686 12.75 14.7725 12.75C14.7764 12.75 14.7803 12.75 14.7842 12.75C14.7882 12.75 14.7921 12.75 14.796 12.75C14.7999 12.75 14.8039 12.75 14.8078 12.75C14.8118 12.75 14.8157 12.75 14.8197 12.75C14.8236 12.75 14.8276 12.75 14.8315 12.75C14.8355 12.75 14.8394 12.75 14.8434 12.75C14.8474 12.75 14.8514 12.75 14.8553 12.75C14.8593 12.75 14.8633 12.75 14.8673 12.75C14.8713 12.75 14.8753 12.75 14.8793 12.75C14.8833 12.75 14.8873 12.75 14.8913 12.75C14.8953 12.75 14.8993 12.75 14.9033 12.75C14.9073 12.75 14.9113 12.75 14.9154 12.75C14.9194 12.75 14.9234 12.75 14.9275 12.75C14.9315 12.75 14.9355 12.75 14.9396 12.75C14.9436 12.75 14.9477 12.75 14.9517 12.75C14.9558 12.75 14.9599 12.75 14.9639 12.75C14.968 12.75 14.972 12.75 14.9761 12.75C14.9802 12.75 14.9843 12.75 14.9884 12.75C14.9924 12.75 14.9965 12.75 15.0006 12.75C15.0047 12.75 15.0088 12.75 15.0129 12.75C15.017 12.75 15.0211 12.75 15.0252 12.75C15.0293 12.75 15.0334 12.75 15.0376 12.75C15.0417 12.75 15.0458 12.75 15.0499 12.75C15.0541 12.75 15.0582 12.75 15.0623 12.75C15.0665 12.75 15.0706 12.75 15.0748 12.75C15.0789 12.75 15.0831 12.75 15.0872 12.75C15.0914 12.75 15.0955 12.75 15.0997 12.75C15.1039 12.75 15.108 12.75 15.1122 12.75C15.1164 12.75 15.1206 12.75 15.1247 12.75C15.1289 12.75 15.1331 12.75 15.1373 12.75C15.1415 12.75 15.1457 12.75 15.1499 12.75C15.1541 12.75 15.1583 12.75 15.1625 12.75C15.1667 12.75 15.1709 12.75 15.1752 12.75C15.1794 12.75 15.1836 12.75 15.1878 12.75C15.1921 12.75 15.1963 12.75 15.2005 12.75C15.2048 12.75 15.209 12.75 15.2132 12.75C15.2175 12.75 15.2217 12.75 15.226 12.75C15.2303 12.75 15.2345 12.75 15.2388 12.75C15.243 12.75 15.2473 12.75 15.2516 12.75C15.2558 12.75 15.2601 12.75 15.2644 12.75C15.2687 12.75 15.273 12.75 15.2773 12.75C15.2815 12.75 15.2858 12.75 15.2901 12.75C15.2944 12.75 15.2987 12.75 15.303 12.75C15.3074 12.75 15.3117 12.75 15.316 12.75C15.3203 12.75 15.3246 12.75 15.3289 12.75C15.3333 12.75 15.3376 12.75 15.3419 12.75C15.3463 12.75 15.3506 12.75 15.3549 12.75C15.3593 12.75 15.3636 12.75 15.368 12.75C15.3723 12.75 15.3767 12.75 15.381 12.75C15.3854 12.75 15.3897 12.75 15.3941 12.75C15.3985 12.75 15.4029 12.75 15.4072 12.75C15.4116 12.75 15.416 12.75 15.4204 12.75C15.4247 12.75 15.4291 12.75 15.4335 12.75C15.4379 12.75 15.4423 12.75 15.4467 12.75C15.4511 12.75 15.4555 12.75 15.4599 12.75C15.4643 12.75 15.4687 12.75 15.4732 12.75C15.4776 12.75 15.482 12.75 15.4864 12.75C15.4909 12.75 15.4953 12.75 15.4997 12.75C15.5041 12.75 15.5086 12.75 15.513 12.75C15.5175 12.75 15.5219 12.75 15.5264 12.75C15.5308 12.75 15.5353 12.75 15.5397 12.75C15.5442 12.75 15.5486 12.75 15.5531 12.75C15.5576 12.75 15.562 12.75 15.5665 12.75C15.571 12.75 15.5755 12.75 15.58 12.75C15.5844 12.75 15.5889 12.75 15.5934 12.75C15.5979 12.75 15.6024 12.75 15.6069 12.75C15.6114 12.75 15.6159 12.75 15.6204 12.75C15.6249 12.75 15.6294 12.75 15.6339 12.75C15.6385 12.75 15.643 12.75 15.6475 12.75C15.652 12.75 15.6565 12.75 15.6611 12.75C15.6656 12.75 15.6701 12.75 15.6747 12.75C15.6792 12.75 15.6838 12.75 15.6883 12.75C15.6928 12.75 15.6974 12.75 15.702 12.75C15.7065 12.75 15.7111 12.75 15.7156 12.75C15.7202 12.75 15.7248 12.75 15.7293 12.75C15.7339 12.75 15.7385 12.75 15.743 12.75C15.7476 12.75 15.7522 12.75 15.7568 12.75C15.7614 12.75 15.766 12.75 15.7706 12.75C15.7752 12.75 15.7797 12.75 15.7843 12.75C15.789 12.75 15.7936 12.75 15.7982 12.75C15.8028 12.75 15.8074 12.75 15.812 12.75C15.8166 12.75 15.8212 12.75 15.8259 12.75C15.8305 12.75 15.8351 12.75 15.8397 12.75C15.8444 12.75 15.849 12.75 15.8537 12.75C15.8583 12.75 15.8629 12.75 15.8676 12.75C15.8722 12.75 15.8769 12.75 15.8815 12.75C15.8862 12.75 15.8908 12.75 15.8955 12.75C15.9002 12.75 15.9048 12.75 15.9095 12.75C15.9142 12.75 15.9188 12.75 15.9235 12.75C15.9282 12.75 15.9329 12.75 15.9376 12.75C15.9422 12.75 15.9469 12.75 15.9516 12.75C15.9563 12.75 15.961 12.75 15.9657 12.75C15.9704 12.75 15.9751 12.75 15.9798 12.75C15.9845 12.75 15.9892 12.75 15.9939 12.75C15.9987 12.75 16.0034 12.75 16.0081 12.75C16.0128 12.75 16.0175 12.75 16.0223 12.75C16.027 12.75 16.0317 12.75 16.0365 12.75C16.0412 12.75 16.0459 12.75 16.0507 12.75C16.0554 12.75 16.0602 12.75 16.0649 12.75C16.0697 12.75 16.0744 12.75 16.0792 12.75C16.0839 12.75 16.0887 12.75 16.0935 12.75C16.0982 12.75 16.103 12.75 16.1078 12.75C16.1125 12.75 16.1173 12.75 16.1221 12.75C16.1269 12.75 16.1317 12.75 16.1364 12.75C16.1412 12.75 16.146 12.75 16.1508 12.75C16.1556 12.75 16.1604 12.75 16.1652 12.75C16.17 12.75 16.1748 12.75 16.1796 12.75C16.1844 12.75 16.1892 12.75 16.194 12.75C16.1989 12.75 16.2037 12.75 16.2085 12.75C16.2133 12.75 16.2181 12.75 16.223 12.75C16.2278 12.75 16.2326 12.75 16.2375 12.75C16.2423 12.75 16.2471 12.75 16.252 12.75C16.2568 12.75 16.2617 12.75 16.2665 12.75C16.2713 12.75 16.2762 12.75 16.2811 12.75C16.2859 12.75 16.2908 12.75 16.2956 12.75C16.3005 12.75 16.3054 12.75 16.3102 12.75C16.3151 12.75 16.32 12.75 16.3248 12.75C16.3297 12.75 16.3346 12.75 16.3395 12.75C16.3444 12.75 16.3492 12.75 16.3541 12.75C16.359 12.75 16.3639 12.75 16.3688 12.75C16.3737 12.75 16.3786 12.75 16.3835 12.75C16.3884 12.75 16.3933 12.75 16.3982 12.75C16.4031 12.75 16.408 12.75 16.413 12.75C16.4179 12.75 16.4228 12.75 16.4277 12.75C16.4326 12.75 16.4376 12.75 16.4425 12.75C16.4474 12.75 16.4523 12.75 16.4573 12.75C16.4622 12.75 16.4672 12.75 16.4721 12.75C16.477 12.75 16.482 12.75 16.4869 12.75C16.4919 12.75 16.4968 12.75 16.5018 12.75C16.5067 12.75 16.5117 12.75 16.5167 12.75C16.5216 12.75 16.5266 12.75 16.5315 12.75C16.5365 12.75 16.5415 12.75 16.5465 12.75C16.5514 12.75 16.5564 12.75 16.5614 12.75C16.5664 12.75 16.5713 12.75 16.5763 12.75C16.5813 12.75 16.5863 12.75 16.5913 12.75C16.5963 12.75 16.6013 12.75 16.6063 12.75C16.6113 12.75 16.6163 12.75 16.6213 12.75C16.6263 12.75 16.6313 12.75 16.6363 12.75C16.6413 12.75 16.6463 12.75 16.6514 12.75C16.6564 12.75 16.6614 12.75 16.6664 12.75C16.6714 12.75 16.6765 12.75 16.6815 12.75C16.6865 12.75 16.6916 12.75 16.6966 12.75C16.7016 12.75 16.7067 12.75 16.7117 12.75C16.7168 12.75 16.7218 12.75 16.7268 12.75C16.7319 12.75 16.7369 12.75 16.742 12.75C16.7471 12.75 16.7521 12.75 16.7572 12.75C16.7622 12.75 16.7673 12.75 16.7724 12.75C16.7774 12.75 16.7825 12.75 16.7876 12.75C16.7926 12.75 16.7977 12.75 16.8028 12.75C16.8079 12.75 16.8129 12.75 16.818 12.75C16.8231 12.75 16.8282 12.75 16.8333 12.75C16.8384 12.75 16.8435 12.75 16.8486 12.75C16.8537 12.75 16.8588 12.75 16.8639 12.75C16.869 12.75 16.8741 12.75 16.8792 12.75C16.8843 12.75 16.8894 12.75 16.8945 12.75C16.8996 12.75 16.9047 12.75 16.9098 12.75C16.915 12.75 16.9201 12.75 16.9252 12.75C16.9303 12.75 16.9355 12.75 16.9406 12.75C16.9457 12.75 16.9508 12.75 16.956 12.75C16.9611 12.75 16.9663 12.75 16.9714 12.75C16.9765 12.75 16.9817 12.75 16.9868 12.75C16.992 12.75 16.9971 12.75 17.0023 12.75C17.0074 12.75 17.0126 12.75 17.0177 12.75C17.0229 12.75 17.0281 12.75 17.0332 12.75C17.0384 12.75 17.0435 12.75 17.0487 12.75C17.0539 12.75 17.0591 12.75 17.0642 12.75C17.0694 12.75 17.0746 12.75 17.0798 12.75C17.0849 12.75 17.0901 12.75 17.0953 12.75C17.1005 12.75 17.1057 12.75 17.1109 12.75C17.1161 12.75 17.1213 12.75 17.1264 12.75C17.1316 12.75 17.1368 12.75 17.142 12.75C17.1472 12.75 17.1525 12.75 17.1577 12.75C17.1629 12.75 17.1681 12.75 17.1733 12.75C17.1785 12.75 17.1837 12.75 17.1889 12.75C17.1941 12.75 17.1994 12.75 17.2046 12.75C17.2098 12.75 17.215 12.75 17.2203 12.75C17.2255 12.75 17.2307 12.75 17.236 12.75C17.2412 12.75 17.2464 12.75 17.2517 12.75C17.2569 12.75 17.2621 12.75 17.2674 12.75C17.2726 12.75 17.2779 12.75 17.2831 12.75C17.2884 12.75 17.2936 12.75 17.2989 12.75C17.3041 12.75 17.3094 12.75 17.3146 12.75C17.3199 12.75 17.3252 12.75 17.3304 12.75C17.3357 12.75 17.3409 12.75 17.3462 12.75C17.3515 12.75 17.3568 12.75 17.362 12.75C17.3673 12.75 17.3726 12.75 17.3779 12.75C17.3831 12.75 17.3884 12.75 17.3937 12.75C17.399 12.75 17.4043 12.75 17.4096 12.75C17.4148 12.75 17.4201 12.75 17.4254 12.75C17.4307 12.75 17.436 12.75 17.4413 12.75C17.4466 12.75 17.4519 12.75 17.4572 12.75C17.4625 12.75 17.4678 12.75 17.4731 12.75C17.4784 12.75 17.4837 12.75 17.4891 12.75C17.4944 12.75 17.4997 12.75 17.505 12.75C17.5103 12.75 17.5156 12.75 17.521 12.75C17.5263 12.75 17.5316 12.75 17.5369 12.75C17.5423 12.75 17.5476 12.75 17.5529 12.75C17.5583 12.75 17.5636 12.75 17.5689 12.75C17.5743 12.75 17.5796 12.75 17.5849 12.75C17.5903 12.75 17.5956 12.75 17.601 12.75C17.6063 12.75 17.6117 12.75 17.617 12.75C17.6224 12.75 17.6277 12.75 17.6331 12.75C17.6384 12.75 17.6438 12.75 17.6491 12.75C17.6545 12.75 17.6599 12.75 17.6652 12.75C17.6706 12.75 17.6759 12.75 17.6813 12.75C17.6867 12.75 17.692 12.75 17.6974 12.75C17.7028 12.75 17.7082 12.75 17.7135 12.75C17.7189 12.75 17.7243 12.75 17.7297 12.75C17.7351 12.75 17.7404 12.75 17.7458 12.75C17.7512 12.75 17.7566 12.75 17.762 12.75C17.7674 12.75 17.7728 12.75 17.7782 12.75C17.7836 12.75 17.789 12.75 17.7944 12.75C17.7998 12.75 17.8052 12.75 17.8106 12.75C17.816 12.75 17.8214 12.75 17.8268 12.75C17.8322 12.75 17.8376 12.75 17.843 12.75C17.8484 12.75 17.8538 12.75 17.8592 12.75C17.8647 12.75 17.8701 12.75 17.8755 12.75C17.8809 12.75 17.8863 12.75 17.8918 12.75C17.8972 12.75 17.9026 12.75 17.908 12.75C17.9135 12.75 17.9189 12.75 17.9243 12.75C17.9298 12.75 17.9352 12.75 17.9406 12.75C17.9461 12.75 17.9515 12.75 17.9569 12.75V11.25ZM13.6639 12C13.6639 9.48909 15.6618 7.25 17.9569 7.25V5.75C14.6816 5.75 12.1639 8.82104 12.1639 12H13.6639ZM17.9569 7.25C20.2521 7.25 22.25 9.48908 22.25 12H23.75C23.75 8.82104 21.2322 5.75 17.9569 5.75V7.25ZM17.2069 5V5.6439H18.7069V5H17.2069ZM12.4502 19.25H1V20.75H12.4502V19.25Z" fill="#C0C0C0"/>
</svg>
