<svg width="14" height="14" viewBox="0 0 14 14" fill="none" xmlns="http://www.w3.org/2000/svg">
<path d="M4 1V3.79829M4 3.79829C3.99974 3.99501 3.96073 4.18976 3.88521 4.3714C3.80968 4.55305 3.69912 4.71804 3.55983 4.85695C3.42054 4.99587 3.25526 5.10599 3.07341 5.18103C2.89157 5.25607 2.69672 5.29456 2.5 5.29429C2.30328 5.29456 2.10843 5.25607 1.92659 5.18103C1.74474 5.10599 1.57946 4.99587 1.44017 4.85695C1.30088 4.71804 1.19032 4.55305 1.11479 4.3714C1.03927 4.18976 1.00026 3.99501 1 3.79829V3.09M4 3.79829C4.00026 3.99501 4.03927 4.18976 4.11479 4.3714C4.19032 4.55305 4.30088 4.71804 4.44017 4.85695C4.57946 4.99587 4.74474 5.10599 4.92659 5.18103C5.10843 5.25607 5.30328 5.29456 5.5 5.29429C5.69672 5.29456 5.89157 5.25607 6.07341 5.18103C6.25526 5.10599 6.42054 4.99587 6.55983 4.85695C6.69912 4.71804 6.80968 4.55305 6.88521 4.3714C6.96073 4.18976 6.99974 3.99501 7 3.79829M7 1V3.79829M7 3.79829C7.00026 3.99501 7.03927 4.18976 7.11479 4.3714C7.19032 4.55305 7.30088 4.71804 7.44017 4.85695C7.57946 4.99587 7.74474 5.10599 7.92659 5.18103C8.10843 5.25607 8.30328 5.29456 8.5 5.29429C8.69672 5.29456 8.89157 5.25607 9.07341 5.18103C9.25526 5.10599 9.42054 4.99587 9.55983 4.85695C9.69912 4.71804 9.80968 4.55305 9.88521 4.3714C9.96073 4.18976 9.99974 3.99501 10 3.79829M10 1V3.79829M10 3.79829C10.0003 3.99501 10.0393 4.18976 10.1148 4.3714C10.1903 4.55305 10.3009 4.71804 10.4402 4.85695C10.5795 4.99587 10.7447 5.10599 10.9266 5.18103C11.1084 5.25607 11.3033 5.29456 11.5 5.29429C11.6967 5.29456 11.8916 5.25607 12.0734 5.18103C12.2553 5.10599 12.4205 4.99587 12.5598 4.85695C12.6991 4.71804 12.8097 4.55305 12.8852 4.3714C12.9607 4.18976 12.9997 3.99501 13 3.79829V3.09M2.33155 1H11.6684C12.0216 1 12.3603 1.14029 12.61 1.39C12.8597 1.63972 13 1.9784 13 2.33155V12.3342C13 12.5108 12.9299 12.6801 12.805 12.805C12.6801 12.9298 12.5108 13 12.3342 13H1.66577C1.4892 13 1.31986 12.9299 1.195 12.805C1.07015 12.6801 1 12.5108 1 12.3342V2.33155C1 1.9784 1.14029 1.63972 1.39 1.39C1.63972 1.14029 1.9784 1 2.33155 1ZM3.83277 7.4615H5.29158C5.65928 7.4615 5.95735 7.75958 5.95735 8.12727V8.97842C5.95735 9.34612 5.65928 9.64419 5.29158 9.64419H3.83277C3.46507 9.64419 3.16699 9.34612 3.16699 8.97842V8.12727C3.16699 7.75958 3.46507 7.4615 3.83277 7.4615ZM8.70842 7.4615H10.1672C10.3438 7.4615 10.5131 7.53164 10.638 7.6565C10.7629 7.78136 10.833 7.9507 10.833 8.12727V13H8.04267V8.12728C8.04267 7.95071 8.11281 7.78136 8.23767 7.65651C8.36252 7.53165 8.53185 7.4615 8.70842 7.4615Z" stroke="#C0C0C0" stroke-miterlimit="10"/>
</svg>
