<svg width="24" height="24" viewBox="0 0 24 24" fill="none" xmlns="http://www.w3.org/2000/svg">
    <path
        d="M13.4252 4.07499L14.1367 3.83782C14.135 3.83278 14.1333 3.82775 14.1315 3.82274L13.4252 4.07499ZM13.7252 4.97499L13.0137 5.21216C13.0166 5.22094 13.0197 5.22967 13.0229 5.23834L13.7252 4.97499ZM15.8252 5.87499L16.0885 6.57724C16.1131 6.56803 16.1371 6.55754 16.1606 6.54581L15.8252 5.87499ZM16.6252 5.47499L16.3109 4.79402C16.3038 4.7973 16.2968 4.80068 16.2898 4.80417L16.6252 5.47499ZM18.6252 7.47499L19.2764 7.8471C19.2871 7.82827 19.2971 7.80898 19.3062 7.78929L18.6252 7.47499ZM18.2252 8.17499L17.574 7.80289C17.5671 7.81494 17.5606 7.82717 17.5544 7.83958L18.2252 8.17499ZM19.1252 10.275L19.3624 9.56348L19.1252 10.275ZM20.0252 10.575L20.2944 9.87498C20.2838 9.87091 20.2731 9.86707 20.2624 9.86348L20.0252 10.575ZM20.0252 13.475L20.2624 14.1865C20.2731 14.1829 20.2838 14.1791 20.2944 14.175L20.0252 13.475ZM19.1252 13.775L18.888 13.0635C18.8792 13.0664 18.8705 13.0695 18.8619 13.0727L19.1252 13.775ZM18.2252 15.875L17.5229 16.1383C17.5322 16.1629 17.5426 16.1869 17.5544 16.2104L18.2252 15.875ZM18.6252 16.675L19.3062 16.3607C19.3029 16.3536 19.2995 16.3466 19.296 16.3396L18.6252 16.675ZM16.6252 18.675L16.2898 19.3458C16.2968 19.3493 16.3038 19.3527 16.3109 19.356L16.6252 18.675ZM13.7252 19.175L14.4367 19.4122L13.7252 19.175ZM13.4252 20.075L14.1252 20.3442C14.1293 20.3336 14.1331 20.3229 14.1367 20.3122L13.4252 20.075ZM10.5252 20.075L9.81368 20.3122C9.81727 20.3229 9.82111 20.3336 9.82519 20.3442L10.5252 20.075ZM10.2252 19.175L9.51368 19.4122L10.2252 19.175ZM8.1252 18.275L8.46061 18.9458H8.46061L8.1252 18.275ZM7.3252 18.675L7.63949 19.356C7.64658 19.3527 7.65362 19.3493 7.6606 19.3458L7.3252 18.675ZM5.3252 16.675L4.65437 16.3396C4.65088 16.3466 4.6475 16.3536 4.64423 16.3607L5.3252 16.675ZM5.7252 15.875L6.39602 16.2104H6.39602L5.7252 15.875ZM4.8252 13.775L4.58802 14.4865H4.58802L4.8252 13.775ZM3.9252 13.475L3.65596 14.175C3.66656 14.1791 3.67725 14.1829 3.68802 14.1865L3.9252 13.475ZM3.9252 10.575L3.68802 9.86348C3.67725 9.86707 3.66656 9.87091 3.65596 9.87498L3.9252 10.575ZM4.8252 10.275L5.06237 10.9865C5.07115 10.9836 5.07987 10.9805 5.08854 10.9772L4.8252 10.275ZM5.7252 8.17499L6.42744 7.91165C6.41823 7.8871 6.40774 7.86304 6.39602 7.83958L5.7252 8.17499ZM5.3252 7.37499L4.64423 7.68929C4.6475 7.69638 4.65088 7.70342 4.65437 7.7104L5.3252 7.37499ZM7.3252 5.37499L7.66061 4.70417C7.65362 4.70068 7.64658 4.6973 7.63949 4.69402L7.3252 5.37499ZM10.2252 4.87499L9.51368 4.63782V4.63782L10.2252 4.87499ZM10.5252 3.97499L9.82519 3.70576C9.82111 3.71636 9.81727 3.72705 9.81368 3.73782L10.5252 3.97499ZM14.0752 12.075C14.0752 13.2072 13.1574 14.125 12.0252 14.125V15.625C13.9858 15.625 15.5752 14.0356 15.5752 12.075H14.0752ZM12.0252 14.125C10.893 14.125 9.9752 13.2072 9.9752 12.075H8.4752C8.4752 14.0356 10.0646 15.625 12.0252 15.625V14.125ZM9.9752 12.075C9.9752 10.9428 10.893 10.025 12.0252 10.025L12.0252 8.52499C10.0646 8.52499 8.4752 10.1144 8.4752 12.075H9.9752ZM12.0252 10.025C13.1574 10.025 14.0752 10.9428 14.0752 12.075H15.5752C15.5752 10.1144 13.9858 8.52499 12.0252 8.52499L12.0252 10.025ZM12.7137 4.31216L13.0137 5.21216L14.4367 4.73782L14.1367 3.83782L12.7137 4.31216ZM13.0229 5.23834C13.4828 6.46472 14.9404 7.00779 16.0885 6.57724L15.5619 5.17275C15.11 5.34219 14.5675 5.08527 14.4274 4.71165L13.0229 5.23834ZM16.1606 6.54581L16.9606 6.14581L16.2898 4.80417L15.4898 5.20417L16.1606 6.54581ZM16.9395 6.15596C17.6064 5.84817 18.252 6.49381 17.9442 7.1607L19.3062 7.78929C20.1984 5.85618 18.244 3.90182 16.3109 4.79402L16.9395 6.15596ZM17.974 7.10289L17.574 7.80289L18.8764 8.5471L19.2764 7.8471L17.974 7.10289ZM17.5544 7.83958C16.9473 9.05378 17.5614 10.5443 18.888 10.9865L19.3624 9.56348C18.889 9.40569 18.7031 8.89621 18.896 8.5104L17.5544 7.83958ZM18.888 10.9865L19.788 11.2865L20.2624 9.86348L19.3624 9.56348L18.888 10.9865ZM19.756 11.275C20.4149 11.5285 20.4149 12.5215 19.756 12.775L20.2944 14.175C22.2354 13.4285 22.2354 10.6215 20.2944 9.87498L19.756 11.275ZM19.788 12.7635L18.888 13.0635L19.3624 14.4865L20.2624 14.1865L19.788 12.7635ZM18.8619 13.0727C17.6355 13.5326 17.0924 14.9902 17.5229 16.1383L18.9274 15.6117C18.758 15.1598 19.0149 14.6173 19.3885 14.4772L18.8619 13.0727ZM17.5544 16.2104L17.9544 17.0104L19.296 16.3396L18.896 15.5396L17.5544 16.2104ZM17.9442 16.9893C18.252 17.6562 17.6064 18.3018 16.9395 17.994L16.3109 19.356C18.244 20.2482 20.1984 18.2938 19.3062 16.3607L17.9442 16.9893ZM16.9606 18.0042L16.1606 17.6042L15.4898 18.9458L16.2898 19.3458L16.9606 18.0042ZM16.1606 17.6042C14.9464 16.9971 13.4559 17.6112 13.0137 18.9378L14.4367 19.4122C14.5945 18.9388 15.104 18.7529 15.4898 18.9458L16.1606 17.6042ZM13.0137 18.9378L12.7137 19.8378L14.1367 20.3122L14.4367 19.4122L13.0137 18.9378ZM12.7252 19.8058C12.4717 20.4647 11.4787 20.4647 11.2252 19.8058L9.82519 20.3442C10.5717 22.2852 13.3787 22.2852 14.1252 20.3442L12.7252 19.8058ZM11.2367 19.8378L10.9367 18.9378L9.51368 19.4122L9.81368 20.3122L11.2367 19.8378ZM10.9367 18.9378C10.4945 17.6112 9.00398 16.9971 7.78979 17.6042L8.46061 18.9458C8.84641 18.7529 9.35589 18.9388 9.51368 19.4122L10.9367 18.9378ZM7.78979 17.6042L6.98979 18.0042L7.6606 19.3458L8.46061 18.9458L7.78979 17.6042ZM7.0109 17.994C6.34401 18.3018 5.69837 17.6562 6.00616 16.9893L4.64423 16.3607C3.75202 18.2938 5.70638 20.2482 7.63949 19.356L7.0109 17.994ZM5.99602 17.0104L6.39602 16.2104L5.05437 15.5396L4.65437 16.3396L5.99602 17.0104ZM6.39602 16.2104C7.00311 14.9962 6.389 13.5057 5.06237 13.0635L4.58802 14.4865C5.06139 14.6443 5.24728 15.1538 5.05437 15.5396L6.39602 16.2104ZM5.06237 13.0635L4.16237 12.7635L3.68802 14.1865L4.58802 14.4865L5.06237 13.0635ZM4.19443 12.775C3.53545 12.5215 3.53545 11.5285 4.19443 11.275L3.65596 9.87498C1.71494 10.6215 1.71494 13.4285 3.65596 14.175L4.19443 12.775ZM4.16237 11.2865L5.06237 10.9865L4.58802 9.56348L3.68802 9.86348L4.16237 11.2865ZM5.08854 10.9772C6.31492 10.5173 6.858 9.05979 6.42744 7.91165L5.02295 8.43834C5.1924 8.89019 4.93547 9.43264 4.56185 9.57275L5.08854 10.9772ZM6.39602 7.83958L5.99602 7.03958L4.65437 7.7104L5.05437 8.5104L6.39602 7.83958ZM6.00616 7.0607C5.69837 6.39381 6.34401 5.74817 7.0109 6.05596L7.63949 4.69402C5.70638 3.80182 3.75202 5.75618 4.64423 7.68929L6.00616 7.0607ZM6.98979 6.04581L7.78979 6.44581L8.46061 5.10417L7.66061 4.70417L6.98979 6.04581ZM7.78979 6.44581C9.00398 7.05291 10.4945 6.4388 10.9367 5.11216L9.51368 4.63782C9.3559 5.11119 8.84641 5.29708 8.46061 5.10417L7.78979 6.44581ZM10.9367 5.11216L11.2367 4.21216L9.81368 3.73782L9.51368 4.63782L10.9367 5.11216ZM11.2252 4.24423C11.4664 3.61704 12.4444 3.55868 12.7189 4.32725L14.1315 3.82274C13.406 1.7913 10.584 1.73295 9.82519 3.70576L11.2252 4.24423Z"
        fill="white" />
</svg>
