<svg width="15" height="14" viewBox="0 0 15 14" fill="none" xmlns="http://www.w3.org/2000/svg">
<mask id="path-1-inside-1_1217_10326" fill="white">
<path d="M7.84648 13.5672L7.83948 13.5683L7.79806 13.5888L7.78639 13.5911L7.77823 13.5888L7.73681 13.5678C7.73059 13.5662 7.72592 13.5674 7.72281 13.5713L7.72048 13.5771L7.71056 13.8268L7.71348 13.8384L7.71931 13.846L7.77998 13.8892L7.78873 13.8915L7.79573 13.8892L7.85639 13.846L7.86339 13.8367L7.86573 13.8268L7.85581 13.5777C7.85426 13.5714 7.85114 13.5679 7.84648 13.5672ZM8.00048 13.5013L7.99231 13.5024L7.88498 13.5567L7.87914 13.5625L7.87739 13.5689L7.88789 13.8198L7.89081 13.8268L7.89548 13.8314L8.01273 13.8851C8.02012 13.887 8.02576 13.8855 8.02964 13.8804L8.03198 13.8723L8.01214 13.5141C8.0102 13.5067 8.00631 13.5024 8.00048 13.5013ZM7.58339 13.5024C7.58082 13.5009 7.57775 13.5004 7.57482 13.501C7.57188 13.5017 7.56931 13.5034 7.56764 13.5059L7.56414 13.5141L7.54431 13.8723C7.5447 13.8793 7.54801 13.8839 7.55423 13.8863L7.56298 13.8851L7.68023 13.8308L7.68606 13.8262L7.68781 13.8198L7.69831 13.5689L7.69656 13.5619L7.69073 13.5561L7.58339 13.5024Z"/>
</mask>
<path d="M7.84648 13.5672L7.94238 12.9918L7.84646 12.9758L7.75054 12.9918L7.84648 13.5672ZM7.83948 13.5683L7.74354 12.9929L7.6587 13.0071L7.58156 13.0451L7.83948 13.5683ZM7.79806 13.5888L7.91246 14.1608L7.98742 14.1458L8.05598 14.112L7.79806 13.5888ZM7.78639 13.5911L7.62615 14.152L7.76212 14.1908L7.90079 14.1631L7.78639 13.5911ZM7.77823 13.5888L7.51443 14.109L7.56426 14.1343L7.61798 14.1496L7.77823 13.5888ZM7.73681 13.5678L8.00061 13.0475L7.94202 13.0178L7.87829 13.0018L7.73681 13.5678ZM7.72281 13.5713L7.2673 13.2068L7.2133 13.2744L7.18119 13.3546L7.72281 13.5713ZM7.72048 13.5771L7.17886 13.3605L7.14159 13.4536L7.1376 13.5539L7.72048 13.5771ZM7.71056 13.8268L7.12769 13.8036L7.12437 13.8871L7.14464 13.9682L7.71056 13.8268ZM7.71348 13.8384L7.14756 13.9799L7.17703 14.0978L7.25111 14.1941L7.71348 13.8384ZM7.71931 13.846L7.25695 14.2017L7.31009 14.2708L7.38112 14.3213L7.71931 13.846ZM7.77998 13.8892L7.44179 14.3645L7.52775 14.4256L7.62969 14.4528L7.77998 13.8892ZM7.78873 13.8915L7.63844 14.4551L7.80734 14.5002L7.97318 14.4449L7.78873 13.8915ZM7.79573 13.8892L7.98018 14.4426L8.06289 14.415L8.13392 14.3645L7.79573 13.8892ZM7.85639 13.846L8.19458 14.3213L8.26858 14.2687L8.32307 14.196L7.85639 13.846ZM7.86339 13.8367L8.33007 14.1867L8.40328 14.089L8.43122 13.9703L7.86339 13.8367ZM7.86573 13.8268L8.43356 13.9604L8.45176 13.883L8.4486 13.8035L7.86573 13.8268ZM7.85581 13.5777L8.43868 13.5545L8.43629 13.4945L8.42173 13.4362L7.85581 13.5777ZM8.00048 13.5013L8.11488 12.9292L8.01692 12.9097L7.91803 12.9238L8.00048 13.5013ZM7.99231 13.5024L7.90986 12.9249L7.81484 12.9385L7.72917 12.9818L7.99231 13.5024ZM7.88498 13.5567L7.62184 13.0361L7.53852 13.0782L7.4725 13.1442L7.88498 13.5567ZM7.87914 13.5625L7.46667 13.15L7.35711 13.2596L7.31636 13.409L7.87914 13.5625ZM7.87739 13.5689L7.31461 13.4155L7.29078 13.5028L7.29457 13.5933L7.87739 13.5689ZM7.88789 13.8198L7.30507 13.8442L7.30942 13.9481L7.34944 14.0441L7.88789 13.8198ZM7.89081 13.8268L7.35236 14.0511L7.39673 14.1576L7.47831 14.2392L7.89081 13.8268ZM7.89548 13.8314L7.48297 14.2439L7.55722 14.3181L7.6527 14.3618L7.89548 13.8314ZM8.01273 13.8851L7.76995 14.4155L7.81566 14.4364L7.86427 14.4492L8.01273 13.8851ZM8.02964 13.8804L8.49201 14.2361L8.55993 14.1478L8.59054 14.0407L8.02964 13.8804ZM8.03198 13.8723L8.59287 14.0325L8.61985 13.9381L8.61442 13.84L8.03198 13.8723ZM8.01214 13.5141L8.59459 13.4818L8.59132 13.4228L8.57627 13.3656L8.01214 13.5141ZM7.58339 13.5024L7.28106 14.0013L7.30132 14.0136L7.32252 14.0242L7.58339 13.5024ZM7.56764 13.5059L7.08248 13.1821L7.05265 13.2267L7.03148 13.2761L7.56764 13.5059ZM7.56414 13.5141L7.02798 13.2843L6.9874 13.379L6.9817 13.4818L7.56414 13.5141ZM7.54431 13.8723L6.96187 13.84L6.96008 13.8723L6.96188 13.9046L7.54431 13.8723ZM7.55423 13.8863L7.34941 14.4324L7.48637 14.4838L7.63136 14.4645L7.55423 13.8863ZM7.56298 13.8851L7.64011 14.4633L7.72772 14.4516L7.80793 14.4145L7.56298 13.8851ZM7.68023 13.8308L7.92518 14.3602L7.98938 14.3305L8.04461 14.2864L7.68023 13.8308ZM7.68606 13.8262L8.05045 14.2817L8.19885 14.163L8.24885 13.9796L7.68606 13.8262ZM7.68781 13.8198L8.2506 13.9732L8.26789 13.9098L8.27063 13.8442L7.68781 13.8198ZM7.69831 13.5689L8.28113 13.5933L8.28466 13.5091L8.26422 13.4274L7.69831 13.5689ZM7.69656 13.5619L8.26247 13.4204L8.22328 13.2637L8.10904 13.1494L7.69656 13.5619ZM7.69073 13.5561L8.10321 13.1436L8.03627 13.0767L7.9516 13.0343L7.69073 13.5561ZM7.84648 13.5672L7.75054 12.9918L7.74354 12.9929L7.83948 13.5683L7.93541 14.1437L7.94241 14.1426L7.84648 13.5672ZM7.83948 13.5683L7.58156 13.0451L7.54014 13.0655L7.79806 13.5888L8.05598 14.112L8.0974 14.0916L7.83948 13.5683ZM7.79806 13.5888L7.68367 13.0167L7.672 13.0191L7.78639 13.5911L7.90079 14.1631L7.91246 14.1608L7.79806 13.5888ZM7.78639 13.5911L7.94664 13.0302L7.93847 13.0279L7.77823 13.5888L7.61798 14.1496L7.62615 14.152L7.78639 13.5911ZM7.77823 13.5888L8.04203 13.0685L8.00061 13.0475L7.73681 13.5678L7.47301 14.088L7.51443 14.109L7.77823 13.5888ZM7.73681 13.5678L7.87829 13.0018C7.81206 12.9853 7.70821 12.9713 7.58721 13.0015C7.45633 13.0342 7.34564 13.1089 7.2673 13.2068L7.72281 13.5713L8.17832 13.9357C8.10309 14.0297 7.99629 14.1019 7.87008 14.1334C7.75375 14.1625 7.65534 14.1487 7.59533 14.1337L7.73681 13.5678ZM7.72281 13.5713L7.18119 13.3546L7.17886 13.3605L7.72048 13.5771L8.2621 13.7937L8.26443 13.7879L7.72281 13.5713ZM7.72048 13.5771L7.1376 13.5539L7.12769 13.8036L7.71056 13.8268L8.29344 13.8499L8.30335 13.6002L7.72048 13.5771ZM7.71056 13.8268L7.14464 13.9682L7.14756 13.9799L7.71348 13.8384L8.27939 13.6969L8.27648 13.6853L7.71056 13.8268ZM7.71348 13.8384L7.25111 14.1941L7.25695 14.2017L7.71931 13.846L8.18168 13.4903L8.17584 13.4828L7.71348 13.8384ZM7.71931 13.846L7.38112 14.3213L7.44179 14.3645L7.77998 13.8892L8.11817 13.4139L8.0575 13.3707L7.71931 13.846ZM7.77998 13.8892L7.62969 14.4528L7.63844 14.4551L7.78873 13.8915L7.93902 13.3279L7.93027 13.3255L7.77998 13.8892ZM7.78873 13.8915L7.97318 14.4449L7.98018 14.4426L7.79573 13.8892L7.61128 13.3358L7.60427 13.3381L7.78873 13.8915ZM7.79573 13.8892L8.13392 14.3645L8.19458 14.3213L7.85639 13.846L7.51821 13.3707L7.45754 13.4139L7.79573 13.8892ZM7.85639 13.846L8.32307 14.196L8.33007 14.1867L7.86339 13.8367L7.39672 13.4867L7.38972 13.496L7.85639 13.846ZM7.86339 13.8367L8.43122 13.9703L8.43356 13.9604L7.86573 13.8268L7.2979 13.6932L7.29557 13.7031L7.86339 13.8367ZM7.86573 13.8268L8.4486 13.8035L8.43868 13.5545L7.85581 13.5777L7.27294 13.6009L7.28286 13.85L7.86573 13.8268ZM7.85581 13.5777L8.42173 13.4362C8.38774 13.3002 8.25969 13.0447 7.94238 12.9918L7.84648 13.5672L7.75058 14.1426C7.6229 14.1213 7.50433 14.0569 7.41632 13.9579C7.33657 13.8682 7.30393 13.7753 7.28989 13.7192L7.85581 13.5777ZM8.00048 13.5013L7.91803 12.9238L7.90986 12.9249L7.99231 13.5024L8.07476 14.0799L8.08293 14.0787L8.00048 13.5013ZM7.99231 13.5024L7.72917 12.9818L7.62184 13.0361L7.88498 13.5567L8.14811 14.0773L8.25545 14.023L7.99231 13.5024ZM7.88498 13.5567L7.4725 13.1442L7.46667 13.15L7.87914 13.5625L8.29162 13.975L8.29746 13.9692L7.88498 13.5567ZM7.87914 13.5625L7.31636 13.409L7.31461 13.4155L7.87739 13.5689L8.44018 13.7224L8.44193 13.716L7.87914 13.5625ZM7.87739 13.5689L7.29457 13.5933L7.30507 13.8442L7.88789 13.8198L8.47072 13.7954L8.46022 13.5445L7.87739 13.5689ZM7.88789 13.8198L7.34944 14.0441L7.35236 14.0511L7.89081 13.8268L8.42927 13.6024L8.42635 13.5954L7.88789 13.8198ZM7.89081 13.8268L7.47831 14.2392L7.48297 14.2439L7.89548 13.8314L8.30798 13.419L8.30332 13.4143L7.89081 13.8268ZM7.89548 13.8314L7.6527 14.3618L7.76995 14.4155L8.01273 13.8851L8.2555 13.3547L8.13825 13.301L7.89548 13.8314ZM8.01273 13.8851L7.86427 14.4492C7.93783 14.4686 8.04961 14.483 8.17761 14.4477C8.31376 14.4102 8.4202 14.3294 8.49201 14.2361L8.02964 13.8804L7.56728 13.5248C7.6352 13.4365 7.73688 13.359 7.86739 13.323C7.98975 13.2893 8.09501 13.3035 8.16118 13.321L8.01273 13.8851ZM8.02964 13.8804L8.59054 14.0407L8.59287 14.0325L8.03198 13.8723L7.47109 13.712L7.46875 13.7202L8.02964 13.8804ZM8.03198 13.8723L8.61442 13.84L8.59459 13.4818L8.01214 13.5141L7.4297 13.5463L7.44954 13.9045L8.03198 13.8723ZM8.01214 13.5141L8.57627 13.3656C8.53681 13.2157 8.4045 12.9872 8.11488 12.9292L8.00048 13.5013L7.88608 14.0733C7.77059 14.0502 7.66062 13.9907 7.57615 13.8977C7.49794 13.8117 7.46355 13.7216 7.44802 13.6625L8.01214 13.5141ZM7.58339 13.5024L7.88573 13.0036C7.75456 12.9241 7.59784 12.8983 7.44827 12.9316L7.57482 13.501L7.70136 14.0705C7.55766 14.1024 7.40709 14.0777 7.28106 14.0013L7.58339 13.5024ZM7.57482 13.501L7.44827 12.9316C7.29867 12.9648 7.16761 13.0545 7.08248 13.1821L7.56764 13.5059L8.05281 13.8298C7.97101 13.9523 7.8451 14.0385 7.70136 14.0705L7.57482 13.501ZM7.56764 13.5059L7.03148 13.2761L7.02798 13.2843L7.56414 13.5141L8.1003 13.7439L8.10381 13.7357L7.56764 13.5059ZM7.56414 13.5141L6.9817 13.4818L6.96187 13.84L7.54431 13.8723L8.12675 13.9045L8.14659 13.5463L7.56414 13.5141ZM7.54431 13.8723L6.96188 13.9046C6.96678 13.9929 6.993 14.108 7.07107 14.2182C7.15059 14.3304 7.2552 14.3971 7.34941 14.4324L7.55423 13.8863L7.75905 13.3401C7.84703 13.3731 7.94688 13.4362 8.0231 13.5438C8.09786 13.6494 8.12223 13.7586 8.12675 13.8399L7.54431 13.8723ZM7.55423 13.8863L7.63136 14.4645L7.64011 14.4633L7.56298 13.8851L7.48585 13.3069L7.4771 13.308L7.55423 13.8863ZM7.56298 13.8851L7.80793 14.4145L7.92518 14.3602L7.68023 13.8308L7.43528 13.3014L7.31803 13.3557L7.56298 13.8851ZM7.68023 13.8308L8.04461 14.2864L8.05045 14.2817L7.68606 13.8262L7.32168 13.3706L7.31584 13.3753L7.68023 13.8308ZM7.68606 13.8262L8.24885 13.9796L8.2506 13.9732L7.68781 13.8198L7.12502 13.6663L7.12327 13.6727L7.68606 13.8262ZM7.68781 13.8198L8.27063 13.8442L8.28113 13.5933L7.69831 13.5689L7.11549 13.5445L7.10499 13.7954L7.68781 13.8198ZM7.69831 13.5689L8.26422 13.4274L8.26247 13.4204L7.69656 13.5619L7.13065 13.7034L7.1324 13.7104L7.69831 13.5689ZM7.69656 13.5619L8.10904 13.1494L8.10321 13.1436L7.69073 13.5561L7.27825 13.9686L7.28408 13.9744L7.69656 13.5619ZM7.69073 13.5561L7.9516 13.0343L7.84427 12.9807L7.58339 13.5024L7.32252 14.0242L7.42985 14.0778L7.69073 13.5561Z" fill="url(#paint0_linear_1217_10326)" mask="url(#path-1-inside-1_1217_10326)"/>
<path d="M11.8176 7.59253C11.8149 7.91265 11.6463 8.23068 11.3068 8.38062L11.2277 8.41089L9.85077 8.88159C9.49558 9.00288 9.17063 9.19921 8.89764 9.45679C8.62458 9.71445 8.40944 10.0281 8.26776 10.3757L8.26483 10.3835L8.21796 10.5095L8.21503 10.5173L7.7453 11.8943C7.6118 12.285 7.26955 12.4811 6.92596 12.4851L7.19257 11.7058L7.66327 10.3298C7.81385 9.88853 8.05875 9.48517 8.38104 9.14819C8.70326 8.81131 9.09447 8.54776 9.5285 8.37769L9.66718 8.32886L9.6662 8.32788L11.0392 7.85913L11.8176 7.59253ZM2.79413 7.85913L4.1701 8.32983H4.17108C4.61216 8.48041 5.01491 8.72548 5.35175 9.04761C5.6868 9.36807 5.94916 9.75702 6.11932 10.1882V10.1892L6.1701 10.3289V10.3298L6.64081 11.7058L6.90546 12.4841C6.58389 12.4806 6.26434 12.3099 6.11639 11.9666L6.08417 11.8835L5.61835 10.5173C5.49705 10.1622 5.30071 9.83715 5.04315 9.56421C4.78565 9.29135 4.47259 9.07697 4.12518 8.9353L4.11737 8.93237L3.99139 8.88452L3.9826 8.88159L2.60663 8.41187C2.21598 8.27845 2.0181 7.93681 2.01385 7.59351L2.79413 7.85913ZM6.90643 2.68042L6.64081 3.46069L6.1701 4.83765C6.01951 5.27882 5.77454 5.6824 5.45233 6.01929C5.13171 6.35441 4.74215 6.6158 4.31073 6.78589L4.1701 6.83765L2.79413 7.30737L2.01483 7.573C2.01808 7.25117 2.19051 6.93104 2.53436 6.78296L2.53339 6.78198L2.60565 6.75464L2.60663 6.75562L3.9826 6.28491C4.33774 6.16356 4.66281 5.96733 4.93573 5.70972C5.20854 5.45218 5.42302 5.13916 5.56464 4.79175H5.56561L5.56854 4.78394L5.61542 4.65796L5.61835 4.64917L6.08807 3.27222C6.22141 2.88209 6.5631 2.68472 6.90643 2.68042ZM6.92596 2.6814C7.24586 2.68423 7.56404 2.85377 7.71405 3.19312L7.74725 3.28101L8.21503 4.65015C8.33641 5.00516 8.53267 5.33044 8.79022 5.60327C9.04767 5.87592 9.36095 6.08963 9.70819 6.2312V6.23218L9.71698 6.23511L9.84296 6.28198L9.85077 6.28491L11.2277 6.75562C11.6177 6.88896 11.8141 7.22977 11.8185 7.573L11.0392 7.30737L9.66229 6.83765L9.49921 6.77612C9.12176 6.62395 8.7765 6.40092 8.48163 6.1189C8.14651 5.79838 7.8842 5.40958 7.71405 4.97827L7.66132 4.83276L7.19257 3.46069L6.92596 2.6814ZM11.5832 1.45874C11.6377 1.45874 11.6912 1.47385 11.7375 1.50269C11.7828 1.53093 11.8189 1.5713 11.843 1.6189L11.8654 1.67261L12.0637 2.25464L12.1096 2.39038L12.2453 2.43628L12.8439 2.64038H12.8449C12.8995 2.65897 12.9475 2.69326 12.9826 2.73901C13.0177 2.78486 13.0385 2.84056 13.0422 2.89819C13.0458 2.95577 13.0321 3.01333 13.0031 3.06323C12.9744 3.1126 12.9312 3.1511 12.8801 3.17651L12.8381 3.19312L12.2453 3.39624L12.1105 3.44312L12.0637 3.57886L11.8596 4.17749C11.841 4.23205 11.8067 4.28012 11.7609 4.31519C11.7151 4.35027 11.6594 4.3711 11.6017 4.37476C11.5442 4.37836 11.4866 4.36466 11.4367 4.33569C11.3875 4.307 11.3478 4.26461 11.3224 4.21362L11.3068 4.17651L11.1037 3.57886L11.0568 3.44312L10.9211 3.39722L10.3224 3.19312C10.2679 3.17459 10.2198 3.14014 10.1848 3.09448C10.1496 3.04863 10.1289 2.99294 10.1252 2.9353C10.1215 2.87772 10.1343 2.82017 10.1633 2.77026C10.1917 2.72131 10.2339 2.68147 10.2844 2.65601L10.3283 2.63843L10.9211 2.43726L11.0568 2.39038L11.1027 2.25464L11.3068 1.65601C11.3265 1.59838 11.3637 1.54786 11.4133 1.51245C11.4381 1.49473 11.4656 1.48158 11.4943 1.47241L11.5832 1.45874Z" fill="#B6BCCB" stroke="url(#paint1_linear_1217_10326)" stroke-width="0.583333"/>
<defs>
<linearGradient id="paint0_linear_1217_10326" x1="7.55265" y1="13.6403" x2="8.03569" y2="13.6489" gradientUnits="userSpaceOnUse">
<stop stop-color="#1DB29C"/>
<stop offset="0.474243" stop-color="#36A0DD"/>
<stop offset="1" stop-color="#A170EA"/>
</linearGradient>
<linearGradient id="paint1_linear_1217_10326" x1="1.92036" y1="5.31375" x2="13.4239" y2="5.47868" gradientUnits="userSpaceOnUse">
<stop stop-color="#1DB29C"/>
<stop offset="0.474243" stop-color="#36A0DD"/>
<stop offset="1" stop-color="#A170EA"/>
</linearGradient>
</defs>
</svg>
