<svg width="24" height="24" viewBox="0 0 24 24" fill="none" xmlns="http://www.w3.org/2000/svg">
<path d="M5.9999 8.35C5.58569 8.35 5.2499 8.68579 5.2499 9.1C5.2499 9.51421 5.58569 9.85 5.9999 9.85V8.35ZM13.9999 9.85C14.4141 9.85 14.7499 9.51421 14.7499 9.1C14.7499 8.68579 14.4141 8.35 13.9999 8.35V9.85ZM5.9999 11.65C5.58569 11.65 5.2499 11.9858 5.2499 12.4C5.2499 12.8142 5.58569 13.15 5.9999 13.15V11.65ZM13.9999 13.15C14.4141 13.15 14.7499 12.8142 14.7499 12.4C14.7499 11.9858 14.4141 11.65 13.9999 11.65V13.15ZM5.9999 14.85C5.58569 14.85 5.2499 15.1858 5.2499 15.6C5.2499 16.0142 5.58569 16.35 5.9999 16.35V14.85ZM12.0999 16.35C12.5141 16.35 12.8499 16.0142 12.8499 15.6C12.8499 15.1858 12.5141 14.85 12.0999 14.85V16.35ZM7.7999 2V1.25C7.38569 1.25 7.0499 1.58579 7.0499 2H7.7999ZM12.2999 2H13.0499C13.0499 1.58579 12.7141 1.25 12.2999 1.25V2ZM12.2999 4.6V5.35C12.7141 5.35 13.0499 5.01421 13.0499 4.6H12.2999ZM7.7999 4.6H7.0499C7.0499 5.01421 7.38569 5.35 7.7999 5.35V4.6ZM16.2499 10.3C16.2499 10.7142 16.5857 11.05 16.9999 11.05C17.4141 11.05 17.7499 10.7142 17.7499 10.3H16.2499ZM14.3999 2.35C13.9857 2.35 13.6499 2.68579 13.6499 3.1C13.6499 3.51421 13.9857 3.85 14.3999 3.85V2.35ZM5.4999 3.85C5.91412 3.85 6.2499 3.51421 6.2499 3.1C6.2499 2.68579 5.91412 2.35 5.4999 2.35V3.85ZM8.7999 19.75C9.21412 19.75 9.5499 19.4142 9.5499 19C9.5499 18.5858 9.21412 18.25 8.7999 18.25V19.75ZM12.0999 19.5L11.5696 18.9697L11.3776 19.1617L11.353 19.4321L12.0999 19.5ZM18.4999 13.1L17.9696 12.5697L18.4999 13.1ZM20.6999 15.3L20.1696 14.7697L20.6999 15.3ZM14.2999 21.7L14.406 22.4425L14.6535 22.4071L14.8302 22.2303L14.2999 21.7ZM12.1999 22V22.75H12.2532L12.306 22.7425L12.1999 22ZM11.8999 21.7L11.153 21.6321L11.1499 21.666V21.7H11.8999ZM5.9999 9.1V9.85H13.9999V9.1V8.35H5.9999V9.1ZM5.9999 12.4V13.15H13.9999V12.4V11.65H5.9999V12.4ZM5.9999 15.6V16.35H12.0999V15.6V14.85H5.9999V15.6ZM7.7999 2V2.75H12.2999V2V1.25H7.7999V2ZM12.2999 2H11.5499V4.6H12.2999H13.0499V2H12.2999ZM12.2999 4.6V3.85H7.7999V4.6V5.35H12.2999V4.6ZM7.7999 4.6H8.5499V2H7.7999H7.0499V4.6H7.7999ZM16.9999 10.3H17.7499V4.9H16.9999H16.2499V10.3H16.9999ZM16.9999 4.9H17.7499C17.7499 3.48579 16.6141 2.35 15.1999 2.35V3.1V3.85C15.7857 3.85 16.2499 4.31421 16.2499 4.9H16.9999ZM15.1999 3.1V2.35H14.3999V3.1V3.85H15.1999V3.1ZM5.4999 3.1V2.35H4.6999V3.1V3.85H5.4999V3.1ZM4.6999 3.1V2.35C3.28569 2.35 2.1499 3.48579 2.1499 4.9H2.8999H3.6499C3.6499 4.31421 4.11412 3.85 4.6999 3.85V3.1ZM2.8999 4.9H2.1499V17.2H2.8999H3.6499V4.9H2.8999ZM2.8999 17.2H2.1499C2.1499 18.6142 3.28569 19.75 4.6999 19.75V19V18.25C4.11412 18.25 3.6499 17.7858 3.6499 17.2H2.8999ZM4.6999 19V19.75H8.7999V19V18.25H4.6999V19ZM17.5999 14L17.082 14.5425L19.282 16.6425L19.7999 16.1L20.3178 15.5575L18.1178 13.4575L17.5999 14ZM12.0999 19.5L12.6302 20.0303L19.0302 13.6303L18.4999 13.1L17.9696 12.5697L11.5696 18.9697L12.0999 19.5ZM18.4999 13.1L19.0302 13.6303C19.1373 13.5232 19.3625 13.5232 19.4696 13.6303L19.9999 13.1L20.5302 12.5697C19.8373 11.8768 18.6625 11.8768 17.9696 12.5697L18.4999 13.1ZM19.9999 13.1L19.4696 13.6303L20.1696 14.3303L20.6999 13.8L21.2302 13.2697L20.5302 12.5697L19.9999 13.1ZM20.6999 13.8L20.1696 14.3303C20.2767 14.4374 20.2767 14.6626 20.1696 14.7697L20.6999 15.3L21.2302 15.8303C21.9231 15.1374 21.9231 13.9626 21.2302 13.2697L20.6999 13.8ZM20.6999 15.3L20.1696 14.7697L13.7696 21.1697L14.2999 21.7L14.8302 22.2303L21.2302 15.8303L20.6999 15.3ZM14.2999 21.7L14.1938 20.9575L12.0938 21.2575L12.1999 22L12.306 22.7425L14.406 22.4425L14.2999 21.7ZM12.1999 22V21.25C12.2155 21.25 12.365 21.2544 12.5052 21.3947C12.6455 21.5349 12.6499 21.6844 12.6499 21.7H11.8999H11.1499C11.1499 21.9156 11.2043 22.2151 11.4446 22.4553C11.6848 22.6956 11.9843 22.75 12.1999 22.75V22ZM11.8999 21.7L12.6468 21.7679L12.8468 19.5679L12.0999 19.5L11.353 19.4321L11.153 21.6321L11.8999 21.7Z" fill="#B6BCCB"/>
</svg>
