<svg width="74" height="91" viewBox="0 0 74 91" fill="none" xmlns="http://www.w3.org/2000/svg">
<path fill-rule="evenodd" clip-rule="evenodd" d="M31.6332 74.6472C28.9977 72.0445 26.0984 69.1817 22.4458 68.5658C15.4984 67.3943 4.87622 75.7591 1.51327 69.5681C-2.0141 63.0743 11.5715 57.9575 12.7179 50.657C13.3898 46.3778 7.44297 43.6836 6.23063 39.5251C4.8278 34.7132 1.08149 27.6007 5.13789 24.6566C10.4636 20.7912 18.0888 26.5968 24.6545 26.1531C27.5987 25.9542 31.0429 25.1884 32.7621 22.79C37.5426 16.1204 35.2162 -2.10067 42.96 0.614355C51.7932 3.71139 39.3868 23.8258 47.7436 28.0426C55.8934 32.155 63.1737 11.5328 71.5923 15.0622C78.1739 17.8216 67.3429 28.5214 64.5339 35.0819C63.0274 38.6004 60.2998 41.397 58.8075 44.9216C57.8824 47.1065 57.9859 49.5364 57.4365 51.8446C56.8384 54.3574 57.015 57.2386 55.3967 59.2518C53.7842 61.2577 49.4814 60.3871 48.6199 62.8122C45.4973 71.6033 52.045 84.9042 44.3905 90.2373C38.8337 94.1088 36.452 79.406 31.6332 74.6472Z" fill="#7C2815" fill-opacity="0.4"/>
</svg>
