<svg width="16" height="16" viewBox="0 0 16 16" fill="none" xmlns="http://www.w3.org/2000/svg">
<g clip-path="url(#clip0_6060_15772)">
<path d="M2.35963 2.87196C2.08761 2.87196 1.82673 2.98002 1.63439 3.17236C1.44204 3.36471 1.33398 3.62558 1.33398 3.8976L1.33398 13.6412C1.33398 13.9132 1.44204 14.1741 1.63439 14.3664C1.82673 14.5588 2.08761 14.6668 2.35963 14.6668L13.6417 14.6668C13.9137 14.6668 14.1746 14.5588 14.3669 14.3664C14.5593 14.1741 14.6673 13.9132 14.6673 13.6412L14.6673 3.8976C14.6673 3.62558 14.5593 3.36471 14.3669 3.17236C14.1746 2.98002 13.9137 2.87196 13.6417 2.87196L11.5904 2.87196M4.41091 1.3335L4.41091 4.41042M11.5904 1.3335L11.5904 4.41042M4.41091 2.87196L9.53911 2.87196" stroke="#72C3EE" stroke-linecap="round" stroke-linejoin="round"/>
<path d="M8.25616 5.59202L9.1136 7.31818C9.1325 7.36207 9.16284 7.40007 9.20145 7.42822C9.24006 7.45636 9.28552 7.47362 9.33309 7.47818L11.2387 7.76741C11.2934 7.7743 11.345 7.79667 11.3873 7.83187C11.4297 7.86708 11.4612 7.91366 11.478 7.96614C11.4948 8.01861 11.4963 8.0748 11.4822 8.12808C11.4682 8.18136 11.4392 8.22952 11.3987 8.2669L9.99155 9.60331C9.97036 9.64327 9.95927 9.68781 9.95927 9.73305C9.95927 9.77828 9.97036 9.82283 9.99155 9.86279L10.2613 11.7582C10.2729 11.813 10.2683 11.87 10.2482 11.9222C10.228 11.9745 10.1931 12.0197 10.1477 12.0526C10.1023 12.0854 10.0484 12.1043 9.99243 12.107C9.93648 12.1097 9.88095 12.0961 9.83258 12.0679L8.13616 11.1695C8.09233 11.1496 8.04478 11.1394 7.99668 11.1394C7.94857 11.1394 7.90102 11.1496 7.85719 11.1695L6.16078 12.0679C6.11235 12.0957 6.05694 12.1089 6.0012 12.1059C5.94546 12.103 5.89175 12.084 5.8465 12.0513C5.80126 12.0187 5.7664 11.9736 5.7461 11.9216C5.7258 11.8696 5.72093 11.8129 5.73206 11.7582L6.05001 9.86279C6.06406 9.81886 6.06692 9.77212 6.05832 9.7268C6.04973 9.68149 6.02995 9.63904 6.00078 9.60331L4.59565 8.25664C4.55821 8.21891 4.53189 8.17159 4.51958 8.11988C4.50727 8.06818 4.50945 8.01407 4.52588 7.96352C4.5423 7.91297 4.57234 7.86792 4.6127 7.83333C4.65305 7.79873 4.70216 7.77592 4.75463 7.76741L6.66027 7.48843C6.70783 7.48388 6.7533 7.46662 6.79191 7.43847C6.83052 7.41033 6.86086 7.37232 6.87975 7.32843L7.73822 5.60228C7.7611 5.55333 7.79724 5.51177 7.84254 5.48231C7.88784 5.45285 7.94049 5.43667 7.99451 5.4356C8.04854 5.43454 8.10178 5.44862 8.14821 5.47627C8.19463 5.50392 8.23136 5.54402 8.25616 5.59202Z" stroke="#72C3EE" stroke-linecap="round" stroke-linejoin="round"/>
</g>
<defs>
<clipPath id="clip0_6060_15772">
<rect width="16" height="16" fill="white"/>
</clipPath>
</defs>
</svg>
