<svg width="13" height="12" viewBox="0 0 13 12" fill="none" xmlns="http://www.w3.org/2000/svg">
    <path
        d="M7.78626 0.798213L8.91959 3.13155C9.05293 3.39821 9.31959 3.59821 9.58626 3.59821L12.1863 3.99821C12.9196 4.13155 13.1863 4.99821 12.6529 5.53155L10.7863 7.33155C10.5863 7.53155 10.4529 7.79821 10.5196 8.13155L10.9863 10.6649C11.1196 11.3982 10.3196 11.9315 9.65293 11.5982L7.31959 10.3982C7.05293 10.2649 6.71959 10.2649 6.45293 10.3982L4.11959 11.5982C3.45292 11.9315 2.71959 11.3982 2.78626 10.6649L3.25292 8.13155C3.38626 7.79821 3.31959 7.46488 3.11959 7.26488L1.25292 5.46488C0.719591 4.93155 0.986258 4.06488 1.71959 3.93155L4.31959 3.53155C4.58626 3.46488 4.85293 3.33155 4.98626 3.06488L6.11959 0.731547C6.45293 0.131547 7.45293 0.131547 7.78626 0.798213Z"
        fill="#1282CD" />
</svg>
