<svg width="16" height="16" viewBox="0 0 16 16" fill="none" xmlns="http://www.w3.org/2000/svg">
<g clip-path="url(#clip0_5993_28829)">
<path d="M2.35963 2.87171C2.08761 2.87171 1.82673 2.97977 1.63439 3.17212C1.44204 3.36446 1.33398 3.62534 1.33398 3.89735V13.6409C1.33398 13.913 1.44204 14.1738 1.63439 14.3662C1.82673 14.5585 2.08761 14.6666 2.35963 14.6666H13.6417C13.9137 14.6666 14.1746 14.5585 14.3669 14.3662C14.5593 14.1738 14.6673 13.913 14.6673 13.6409V3.89735C14.6673 3.62534 14.5593 3.36446 14.3669 3.17212C14.1746 2.97977 13.9137 2.87171 13.6417 2.87171H11.5904M4.41091 1.33325V4.41017M11.5904 1.33325V4.41017M4.41091 2.87171H9.53911" stroke="#B6BCCB" stroke-width="1.53846" stroke-linecap="round" stroke-linejoin="round"/>
<path d="M8.25616 5.59178L9.1136 7.31793C9.1325 7.36182 9.16284 7.39983 9.20145 7.42797C9.24006 7.45612 9.28552 7.47337 9.33309 7.47793L11.2387 7.76716C11.2934 7.77406 11.345 7.79642 11.3873 7.83163C11.4297 7.86683 11.4612 7.91342 11.478 7.96589C11.4948 8.01837 11.4963 8.07455 11.4822 8.12783C11.4682 8.18112 11.4392 8.22928 11.3987 8.26665L9.99155 9.60306C9.97036 9.64302 9.95927 9.68757 9.95927 9.73281C9.95927 9.77804 9.97036 9.82259 9.99155 9.86255L10.2613 11.7579C10.2729 11.8127 10.2683 11.8697 10.2482 11.922C10.228 11.9742 10.1931 12.0195 10.1477 12.0523C10.1023 12.0851 10.0484 12.104 9.99243 12.1068C9.93648 12.1095 9.88095 12.0959 9.83258 12.0677L8.13616 11.1692C8.09233 11.1494 8.04478 11.1391 7.99668 11.1391C7.94857 11.1391 7.90102 11.1494 7.85719 11.1692L6.16078 12.0677C6.11235 12.0954 6.05694 12.1086 6.0012 12.1057C5.94546 12.1027 5.89175 12.0838 5.8465 12.0511C5.80126 12.0184 5.7664 11.9734 5.7461 11.9214C5.7258 11.8694 5.72093 11.8126 5.73206 11.7579L6.05001 9.86255C6.06406 9.81862 6.06692 9.77187 6.05832 9.72656C6.04973 9.68124 6.02995 9.63879 6.00078 9.60306L4.59565 8.2564C4.55821 8.21867 4.53189 8.17135 4.51958 8.11964C4.50727 8.06793 4.50945 8.01383 4.52588 7.96328C4.5423 7.91273 4.57234 7.86768 4.6127 7.83308C4.65305 7.79848 4.70216 7.77568 4.75463 7.76716L6.66027 7.48819C6.70783 7.48363 6.7533 7.46638 6.79191 7.43823C6.83052 7.41008 6.86086 7.37208 6.87975 7.32819L7.73822 5.60204C7.7611 5.55309 7.79724 5.51153 7.84254 5.48207C7.88784 5.45261 7.94049 5.43643 7.99451 5.43536C8.04854 5.43429 8.10178 5.44838 8.14821 5.47603C8.19463 5.50367 8.23136 5.54377 8.25616 5.59178Z" stroke="#B6BCCB" stroke-width="1.53846" stroke-linecap="round" stroke-linejoin="round"/>
</g>
<defs>
<clipPath id="clip0_5993_28829">
<rect width="16" height="16" fill="white"/>
</clipPath>
</defs>
</svg>
