<svg width="24" height="24" viewBox="0 0 24 24" fill="none" xmlns="http://www.w3.org/2000/svg">
<rect width="24" height="24" rx="12" fill="#2F6FBE" fill-opacity="0.25"/>
<rect x="0.5" y="0.5" width="23" height="23" rx="11.5" stroke="white" stroke-opacity="0.1"/>
<g clip-path="url(#clip0_3301_27336)">
<path d="M6.35963 6.87196C6.08761 6.87196 5.82673 6.98002 5.63439 7.17236C5.44204 7.36471 5.33398 7.62558 5.33398 7.8976L5.33398 17.6412C5.33398 17.9132 5.44204 18.1741 5.63439 18.3664C5.82673 18.5588 6.08761 18.6668 6.35963 18.6668L17.6417 18.6668C17.9137 18.6668 18.1746 18.5588 18.3669 18.3664C18.5593 18.1741 18.6673 17.9132 18.6673 17.6412L18.6673 7.8976C18.6673 7.62558 18.5593 7.36471 18.3669 7.17236C18.1746 6.98002 17.9137 6.87196 17.6417 6.87196H15.5904M8.41091 5.3335V8.41042M15.5904 5.3335L15.5904 8.41042M8.41091 6.87196L13.5391 6.87196" stroke="#72C3EE" stroke-linecap="round" stroke-linejoin="round"/>
<path d="M12.2562 9.59202L13.1136 11.3182C13.1325 11.3621 13.1628 11.4001 13.2014 11.4282C13.2401 11.4564 13.2855 11.4736 13.3331 11.4782L15.2387 11.7674C15.2934 11.7743 15.345 11.7967 15.3873 11.8319C15.4297 11.8671 15.4612 11.9137 15.478 11.9661C15.4948 12.0186 15.4963 12.0748 15.4822 12.1281C15.4682 12.1814 15.4392 12.2295 15.3987 12.2669L13.9915 13.6033C13.9704 13.6433 13.9593 13.6878 13.9593 13.733C13.9593 13.7783 13.9704 13.8228 13.9915 13.8628L14.2613 15.7582C14.2729 15.813 14.2683 15.87 14.2482 15.9222C14.228 15.9745 14.1931 16.0197 14.1477 16.0526C14.1023 16.0854 14.0484 16.1043 13.9924 16.107C13.9365 16.1097 13.881 16.0961 13.8326 16.0679L12.1362 15.1695C12.0923 15.1496 12.0448 15.1394 11.9967 15.1394C11.9486 15.1394 11.901 15.1496 11.8572 15.1695L10.1608 16.0679C10.1123 16.0957 10.0569 16.1089 10.0012 16.1059C9.94546 16.103 9.89175 16.084 9.8465 16.0513C9.80126 16.0187 9.7664 15.9736 9.7461 15.9216C9.7258 15.8696 9.72093 15.8129 9.73206 15.7582L10.05 13.8628C10.0641 13.8189 10.0669 13.7721 10.0583 13.7268C10.0497 13.6815 10.0299 13.639 10.0008 13.6033L8.59565 12.2566C8.55821 12.2189 8.53189 12.1716 8.51958 12.1199C8.50727 12.0682 8.50945 12.0141 8.52588 11.9635C8.5423 11.913 8.57234 11.8679 8.6127 11.8333C8.65305 11.7987 8.70216 11.7759 8.75463 11.7674L10.6603 11.4884C10.7078 11.4839 10.7533 11.4666 10.7919 11.4385C10.8305 11.4103 10.8609 11.3723 10.8798 11.3284L11.7382 9.60228C11.7611 9.55333 11.7972 9.51177 11.8425 9.48231C11.8878 9.45285 11.9405 9.43667 11.9945 9.4356C12.0485 9.43454 12.1018 9.44862 12.1482 9.47627C12.1946 9.50392 12.2314 9.54402 12.2562 9.59202Z" stroke="#72C3EE" stroke-linecap="round" stroke-linejoin="round"/>
</g>
<defs>
<clipPath id="clip0_3301_27336">
<rect width="16" height="16" fill="white" transform="translate(4 4)"/>
</clipPath>
</defs>
</svg>
