<svg width="24" height="24" viewBox="0 0 24 24" fill="none" xmlns="http://www.w3.org/2000/svg">
<path d="M15.1167 14.7896L22 7.90666M10.012 9.63866L16.8718 2.77853M13.6427 9.5176L18.5967 4.56366M15.3606 11.1L20.3146 6.14611M3.42975 19.7198L7.6294 15.5201M5.52954 21.0993L9.57812 17.0507M17.1261 21.2215L12.8176 16.7589C12.6885 16.6274 12.5341 16.523 12.3642 16.4517C12.1943 16.3804 12.0118 16.3437 11.8275 16.3437C11.6433 16.3437 11.4608 16.3804 11.2909 16.4517C11.1209 16.523 10.9669 16.6274 10.8378 16.7589C10.7136 16.8737 10.5679 16.9627 10.409 17.0207C10.2502 17.0787 10.0814 17.1046 9.91243 17.0968C9.74349 17.0891 9.57778 17.0478 9.42493 16.9755C9.27207 16.9031 9.13511 16.8011 9.022 16.6754L3.5373 11.191C2.5528 10.2065 2 8.8709 2 7.47859C2 6.08628 2.55309 4.751 3.53759 3.76647L19.4903 19.7198" stroke="#C0C0C0" stroke-width="1.5" stroke-linecap="round" stroke-linejoin="round"/>
</svg>
