<svg width="24" height="24" viewBox="0 0 24 24" fill="none" xmlns="http://www.w3.org/2000/svg">
<path fill-rule="evenodd" clip-rule="evenodd" d="M2.75 7.49994C2.75 7.08198 3.05114 6.74994 3.6 6.74994L6.30002 6.74994H8.40002L9.1 6.74994L14.9 6.74994H15.6L17.7 6.74994L20.4 6.74994C20.9489 6.74994 21.25 7.08198 21.25 7.49994C21.25 7.85011 20.9154 8.24994 20.4 8.24994L15 8.24994H14H10H9L3.6 8.24994C3.08461 8.24994 2.75 7.85011 2.75 7.49994ZM3.6 5.24994L6.30002 5.24994L8.40002 5.24994H9.1L14.9 5.24994H15.6L17.7 5.24994L20.4 5.24994C21.6511 5.24994 22.75 6.13279 22.75 7.49994C22.75 8.73653 21.6846 9.74994 20.4 9.74994L15 9.74994H14.75V12.8595C14.2505 13.0227 13.7651 13.2405 13.3015 13.5109C13.2843 13.521 13.2671 13.5311 13.25 13.5413L13.25 9.74994H10.75L10.75 15.8799C10.6521 16.0198 10.5579 16.1632 10.4677 16.3099C10.1628 16.8099 9.99995 17.3982 9.99995 18C9.99995 18.2543 10.029 18.5061 10.0856 18.7499H10L7.25 18.7499C6.83579 18.7499 6.5 18.4142 6.5 17.9999C6.5 17.5857 6.83579 17.2499 7.25 17.2499H9.25L9.25 9.74994H9L3.6 9.74994C2.31539 9.74994 1.25 8.73653 1.25 7.49994C1.25 6.13279 2.34886 5.24994 3.6 5.24994Z" fill="#B6BCCB"/>
<path fill-rule="evenodd" clip-rule="evenodd" d="M13.8299 14.4968C14.8061 13.9784 15.8947 13.7075 17 13.7078C18.1053 13.7075 19.1939 13.9784 20.1701 14.4968C21.1463 15.0152 21.9804 15.7653 22.5991 16.6813C22.8605 17.0715 23 17.5306 23 18.0003C23 18.47 22.8605 18.9292 22.5991 19.3194C21.9801 20.2351 21.146 20.985 20.1698 21.5034C19.1937 22.0218 18.1053 22.2929 17 22.2929C15.8947 22.2929 14.8063 22.0218 13.8302 21.5034C12.854 20.985 12.0199 20.2351 11.4009 19.3194C11.1395 18.9292 11 18.47 11 18.0003C11 17.5306 11.1395 17.0715 11.4009 16.6813C12.0196 15.7653 12.8537 15.0152 13.8299 14.4968ZM15.4582 18.0001C15.4582 17.1486 16.1485 16.4584 17 16.4584C17.8514 16.4584 18.5417 17.1486 18.5417 18.0001C18.5417 18.8516 17.8514 19.5419 17 19.5419C16.1485 19.5419 15.4582 18.8516 15.4582 18.0001ZM17 15.4584C15.5962 15.4584 14.4582 16.5963 14.4582 18.0001C14.4582 19.4039 15.5962 20.5419 17 20.5419C18.4037 20.5419 19.5417 19.4039 19.5417 18.0001C19.5417 16.5963 18.4037 15.4584 17 15.4584Z" fill="#B6BCCB"/>
</svg>
