<svg width="16" height="16" viewBox="0 0 16 16" fill="none" xmlns="http://www.w3.org/2000/svg">
<path fill-rule="evenodd" clip-rule="evenodd" d="M6.16163 12.5H6.66683H9.3335H11.1668C11.443 12.5 11.6668 12.2761 11.6668 12C11.6668 11.7238 11.443 11.5 11.1668 11.5H9.8335V8.82811L8.8335 9.82811V11.5H7.16683V11.4948L6.16163 12.5ZM7.54187 6.49997H7.16683V6.87501L6.16683 7.87501V6.49997H6.00016H2.40016C1.54375 6.49997 0.833496 5.82436 0.833496 4.99997C0.833496 4.08854 1.56607 3.49997 2.40016 3.49997H4.20018H5.60018H6.06683H9.9335H10.4001H10.5419L9.54187 4.49997H6.06683H5.60018H4.20018H2.40016C2.03426 4.49997 1.8335 4.72133 1.8335 4.99997C1.8335 5.23342 2.05657 5.49997 2.40016 5.49997H6.00016H6.66683H8.54187L7.54187 6.49997ZM13.1616 5.49997L12.1616 6.49997H13.6002C14.4566 6.49997 15.1668 5.82436 15.1668 4.99997C15.1668 4.56007 14.9962 4.19538 14.7258 3.93578L14.0183 4.64326C14.1158 4.7336 14.1668 4.8595 14.1668 4.99997C14.1668 5.23342 13.9438 5.49997 13.6002 5.49997H13.1616Z" fill="#B6BCCB"/>
<rect x="1.3335" y="14.4179" width="19.4472" height="1" rx="0.5" transform="rotate(-45 1.3335 14.4179)" fill="#B6BCCB"/>
</svg>
