<svg width="24" height="24" viewBox="0 0 24 24" fill="none" xmlns="http://www.w3.org/2000/svg">
<path d="M9.4071 20.4767L3.51839 14.5879C3.15354 14.1696 2.96877 13.624 3.00432 13.0701C3.03988 12.5161 3.29287 11.9986 3.7082 11.6304L11.6282 3.71036C11.8542 3.47848 12.1257 3.29576 12.4256 3.17364C12.7256 3.05152 13.0475 2.99263 13.3712 3.00066L19.0081 3.25253C19.4647 3.26329 19.8996 3.44949 20.2226 3.77248C20.5456 4.09546 20.7317 4.53042 20.7425 4.98705L20.9943 10.6239C21.0024 10.9477 20.9435 11.2696 20.8214 11.5695C20.6993 11.8694 20.5165 12.1409 20.2846 12.3669L12.3646 20.2869C11.9964 20.7022 11.4789 20.9552 10.9249 20.9907C10.371 21.0263 9.82544 20.8415 9.4071 20.4767Z" stroke="#B6BCCB" stroke-width="1.5" stroke-miterlimit="10"/>
<path d="M16.2268 9.24479C17.0423 9.24479 17.7034 8.5837 17.7034 7.7682C17.7034 6.9527 17.0423 6.29161 16.2268 6.29161C15.4113 6.29161 14.7502 6.9527 14.7502 7.7682C14.7502 8.5837 15.4113 9.24479 16.2268 9.24479Z" stroke="#B6BCCB" stroke-width="1.5" stroke-miterlimit="10"/>
</svg>
