<svg width="25" height="24" viewBox="0 0 25 24" fill="none" xmlns="http://www.w3.org/2000/svg">
<path d="M12.4982 16.5937V8.12365C12.4982 6.14983 11.3275 4.55078 9.44646 4.55078L3.5 4.55082V16.5937H9.807M15.3643 16.6008C14.9902 16.6006 14.6198 16.6742 14.2741 16.8173C13.9285 16.9603 13.6144 17.1701 13.3499 17.4347C13.0854 17.6992 12.8756 18.0132 12.7325 18.3589C12.5894 18.7045 12.5158 19.075 12.516 19.4491C12.5162 19.075 12.4426 18.7045 12.2996 18.3589C12.1565 18.0132 11.9467 17.6992 11.6822 17.4347C11.4176 17.1701 11.1036 16.9603 10.7579 16.8173C10.4123 16.6742 10.0418 16.6006 9.66772 16.6008M6.26656 12.3948H9.30369M6.26656 8.64978H9.30369M12.4982 18.5568V7.9488C12.4782 7.06805 12.8087 6.21539 13.4171 5.57822C14.0255 4.94105 14.862 4.5715 15.7427 4.5508H21.5V16.5937H15.3679M18.624 12.3948H15.6134M18.6155 8.64978H15.607" stroke="#B6BCCB" stroke-width="1.5" stroke-linecap="round" stroke-linejoin="round"/>
</svg>
