<svg width="99" height="26" viewBox="0 0 99 26" fill="none" xmlns="http://www.w3.org/2000/svg">
    <path
        d="M80.6505 8.09721C79.1456 7.98281 77.6444 8.35552 76.3719 9.16736C74.8817 10.1822 74.3174 11.6066 74.5055 13.3668C74.6235 14.7986 75.5973 16.0127 76.9657 16.4407C78.0686 16.8577 79.2415 17.0939 80.3812 17.4149C81.1189 17.5773 81.8456 17.795 82.5538 18.0644C83.4759 18.4777 83.557 19.5331 82.7308 20.1346C82.362 20.4077 81.9267 20.5848 81.4693 20.6439C80.8128 20.725 80.1489 20.6881 79.5071 20.5368C78.5628 20.2527 77.637 19.9058 76.737 19.4999C75.8407 19.1235 75.0293 19.3117 74.5719 20.0645C74.133 20.7878 74.2879 21.5664 75.0956 22.1347C75.612 22.4853 76.1727 22.7694 76.7628 22.9761C78.3932 23.548 80.1304 23.7399 81.8419 23.5443C83.0997 23.441 84.3058 22.9945 85.3275 22.2528C87.5812 20.5885 87.6254 16.4629 84.7189 15.116C83.7783 14.7174 82.8083 14.3927 81.8197 14.1417C80.9013 13.876 79.9571 13.71 79.0423 13.4406C78.5628 13.3631 78.1977 12.972 78.1571 12.4885C78.1423 11.9719 78.4485 11.5033 78.9317 11.3151C79.5956 10.9239 80.3812 10.7984 81.1374 10.9571C82.1517 11.2302 83.1402 11.5844 84.1398 11.9129C84.8148 12.149 85.5636 11.8833 85.9398 11.2782C86.3013 10.7209 86.1722 9.9829 85.6447 9.58066C85.2722 9.25593 84.8517 8.99023 84.4017 8.79465C83.2103 8.29648 81.9341 8.06031 80.6505 8.09721ZM31.0293 16.2119V19.8837C31.0293 19.9501 31.0293 20.0165 31.033 20.0829C31.1105 21.8321 32.0289 23.0019 33.7219 23.43C34.7842 23.6956 35.8944 23.6883 36.953 23.4041C37.9489 23.1421 38.3473 22.607 38.2772 21.7251C38.2071 20.8136 37.676 20.3486 36.6137 20.2675C35.3633 20.1678 34.9059 19.6955 34.8985 18.4556C34.8875 16.7027 34.8875 14.9499 34.8985 13.1971C34.9059 11.5475 34.7178 11.6878 36.3555 11.673C37.3846 11.6619 38.0264 11.0752 38.0706 10.1563C38.0928 9.25593 37.4178 8.49206 36.5252 8.3998C36.2301 8.3629 35.9313 8.35921 35.6325 8.38873C35.083 8.4404 34.8764 8.23374 34.8838 7.66546C34.9207 6.94218 34.869 6.2189 34.7326 5.50669C34.4965 4.49189 33.6777 4.04907 32.608 4.20037C31.7228 4.31476 31.0515 5.06387 31.0404 5.96059C31.0183 6.42186 31.0367 6.88682 31.033 7.3481C31.0256 8.30386 31.0256 8.30386 30.1035 8.38873C29.1703 8.47361 28.5802 8.92381 28.4363 9.66554C28.2076 10.8427 28.842 11.6177 30.0961 11.6804C31.0183 11.7284 31.0256 11.7284 31.033 12.6435C31.033 13.8318 31.0293 15.0237 31.0293 16.2119ZM0.400146 15.8724C0.543997 15.1344 0.695225 14.3964 0.835388 13.6583C1.11202 12.1859 1.503 10.7578 2.41037 9.529C2.69438 9.14522 2.74233 8.83525 2.34398 8.5142C2.22226 8.40349 2.1116 8.27803 2.01939 8.14149C1.02719 6.88313 1.00506 5.72441 1.94931 4.42178C2.56898 3.59517 3.37306 2.93094 4.29887 2.47705C9.81316 -0.375472 15.4233 -0.585812 21.0593 2.06005C22.1179 2.59882 23.0843 3.29996 23.9327 4.13394C24.8843 5.03435 25.4118 6.29639 25.3823 7.60641C25.4376 8.34445 25.1314 9.06404 24.5597 9.53269C24.3864 9.66923 24.1245 9.78363 24.4269 10.0493C25.3896 10.8981 25.5187 12.0826 25.5445 13.2266C25.6109 15.9684 25.5851 18.7176 25.563 21.4594C25.5372 22.0535 25.4597 22.6439 25.3269 23.2233C25.2163 24.0462 24.5487 24.6846 23.7224 24.7547C22.6786 24.906 21.6237 24.9577 20.5688 24.9097C18.529 24.7547 16.5041 24.382 14.4643 24.2639C13.0775 24.2197 11.6943 24.2935 10.3185 24.478C8.51481 24.6735 6.72959 25.0352 4.92592 25.2086C2.47676 25.4411 1.56571 24.7584 0.982927 22.3487C0.791126 21.5516 0.750553 20.7177 0.632521 19.9058C0.569817 19.4888 0.481293 19.0718 0.403835 18.6585V15.8724H0.400146ZM3.13331 17.0238C3.13331 17.2231 3.12962 17.4223 3.13331 17.6179C3.11856 18.7471 3.39151 19.8578 3.93003 20.8505C4.42428 21.8727 5.56771 22.4078 6.67057 22.1273C7.19065 22.0388 7.70703 21.928 8.21604 21.7989C10.6357 21.1937 13.0627 20.8394 15.5635 21.2491C16.9946 21.4852 18.4368 21.6919 19.8827 21.7878C22.2581 21.9465 22.9626 21.0129 23.1876 19.4076C23.5343 17.1529 23.5417 14.8576 23.2171 12.5956C23.0474 11.4885 22.7819 10.3814 21.845 9.59912C21.7823 9.48841 21.7786 9.35187 21.8413 9.23748C22.6897 8.3629 22.4056 7.48095 21.8524 6.62482C21.2475 5.70965 20.3991 4.979 19.4032 4.51772C17.6512 3.6616 15.7442 3.16711 13.7967 3.06379C11.3845 2.88297 8.9685 3.30734 6.76278 4.29631C5.87017 4.66902 5.11403 5.30373 4.58658 6.11558C4.17347 6.77981 3.97429 7.60641 4.52018 8.14887C5.29845 8.92381 5.10296 9.4921 4.546 10.2006C4.36896 10.4811 4.23248 10.7837 4.14027 11.101C3.39888 13.0015 3.25872 15.0126 3.13331 17.0238ZM98.1007 22.4299C97.4958 23.2381 96.5147 23.6735 95.5077 23.5739C94.818 23.5813 94.1282 23.5259 93.4495 23.4078C91.7565 23.013 90.8197 21.7989 90.8049 20.0497C90.7828 17.5995 90.8012 15.1529 90.7975 12.7026C90.7938 11.7284 90.7865 11.7284 89.8164 11.6804C88.7873 11.6287 88.2303 11.1416 88.1566 10.2264C88.0385 9.34449 88.6582 8.53265 89.5434 8.41456C89.5619 8.41087 89.5803 8.41087 89.5988 8.40718C89.975 8.33707 90.5393 8.39242 90.6832 8.1747C90.886 7.86473 90.7828 7.35179 90.7975 6.92373C90.8086 6.59161 90.7865 6.25949 90.8049 5.93107C90.8123 4.95686 91.609 4.17453 92.5827 4.1856C93.6967 4.14132 94.4381 4.75389 94.534 5.83881C94.5782 6.3333 94.5487 6.83147 94.5561 7.32596C94.5708 8.37397 94.5708 8.35921 95.5852 8.39242C95.9798 8.38873 96.3708 8.44409 96.747 8.55848C97.577 8.84263 98.0233 9.74672 97.7392 10.5807C97.7097 10.6693 97.6729 10.7505 97.6286 10.8316C97.4183 11.3335 96.9315 11.6656 96.3856 11.673C96.0204 11.6804 95.6589 11.6988 95.2938 11.6804C94.7921 11.6546 94.5598 11.8797 94.5635 12.3778C94.5745 14.4296 94.5303 16.4813 94.6114 18.5294C94.6594 19.7951 95.1426 20.2232 96.4298 20.2527C97.3077 20.2748 97.7024 20.821 98.1007 21.4372V22.4299ZM55.2368 14.0827C54.6762 10.9977 51.9836 7.99019 47.5759 7.96805C46.6021 8.09721 45.6357 8.28541 44.6841 8.54003C40.612 9.89802 38.9264 14.2746 40.1104 18.3449C40.9808 21.3376 43.7398 23.703 47.8451 23.6034C52.9205 23.4816 56.1811 19.2932 55.2368 14.0827ZM48.4316 20.1235C46.8455 20.5627 45.1673 19.8542 44.3743 18.4113C43.3378 16.7323 43.4042 14.5956 44.5439 12.983C45.9529 10.8649 49.1693 10.9018 50.6152 13.0015C51.1832 13.8576 51.4857 14.865 51.4783 15.8946C51.4525 18.0238 50.2463 19.6992 48.4316 20.1235Z"
        fill="white" />
    <path
        d="M80.6505 8.09721C79.1456 7.98281 77.6444 8.35552 76.3719 9.16736C74.8817 10.1822 74.3174 11.6066 74.5055 13.3668C74.6235 14.7986 75.5973 16.0127 76.9657 16.4407C78.0686 16.8577 79.2415 17.0939 80.3812 17.4149C81.1189 17.5773 81.8456 17.795 82.5538 18.0644C83.4759 18.4777 83.557 19.5331 82.7308 20.1346C82.362 20.4077 81.9267 20.5848 81.4693 20.6439C80.8128 20.725 80.1489 20.6881 79.5071 20.5368C78.5628 20.2527 77.637 19.9058 76.737 19.4999C75.8407 19.1235 75.0293 19.3117 74.5719 20.0645C74.133 20.7878 74.2879 21.5664 75.0956 22.1347C75.612 22.4853 76.1727 22.7694 76.7628 22.9761C78.3932 23.548 80.1304 23.7399 81.8419 23.5443C83.0997 23.441 84.3058 22.9945 85.3275 22.2528C87.5812 20.5885 87.6254 16.4629 84.7189 15.116C83.7783 14.7174 82.8083 14.3927 81.8197 14.1417C80.9013 13.876 79.9571 13.71 79.0423 13.4406C78.5628 13.3631 78.1977 12.972 78.1571 12.4885C78.1423 11.9719 78.4485 11.5033 78.9317 11.3151C79.5956 10.9239 80.3812 10.7984 81.1374 10.9571C82.1517 11.2302 83.1402 11.5844 84.1398 11.9129C84.8148 12.149 85.5636 11.8833 85.9398 11.2782C86.3013 10.7209 86.1722 9.9829 85.6447 9.58066C85.2722 9.25593 84.8517 8.99023 84.4017 8.79465C83.2103 8.29648 81.9341 8.06031 80.6505 8.09721ZM31.0293 16.2119V19.8837C31.0293 19.9501 31.0293 20.0165 31.033 20.0829C31.1105 21.8321 32.0289 23.0019 33.7219 23.43C34.7842 23.6956 35.8944 23.6883 36.953 23.4041C37.9489 23.1421 38.3473 22.607 38.2772 21.7251C38.2071 20.8136 37.676 20.3486 36.6137 20.2675C35.3633 20.1678 34.9059 19.6955 34.8985 18.4556C34.8875 16.7027 34.8875 14.9499 34.8985 13.1971C34.9059 11.5475 34.7178 11.6878 36.3555 11.673C37.3846 11.6619 38.0264 11.0752 38.0706 10.1563C38.0928 9.25593 37.4178 8.49206 36.5252 8.3998C36.2301 8.3629 35.9313 8.35921 35.6325 8.38873C35.083 8.4404 34.8764 8.23374 34.8838 7.66546C34.9207 6.94218 34.869 6.2189 34.7326 5.50669C34.4965 4.49189 33.6777 4.04907 32.608 4.20037C31.7228 4.31476 31.0515 5.06387 31.0404 5.96059C31.0183 6.42186 31.0367 6.88682 31.033 7.3481C31.0256 8.30386 31.0256 8.30386 30.1035 8.38873C29.1703 8.47361 28.5802 8.92381 28.4363 9.66554C28.2076 10.8427 28.842 11.6177 30.0961 11.6804C31.0183 11.7284 31.0256 11.7284 31.033 12.6435C31.033 13.8318 31.0293 15.0237 31.0293 16.2119ZM0.400146 15.8724C0.543997 15.1344 0.695225 14.3964 0.835388 13.6583C1.11202 12.1859 1.503 10.7578 2.41037 9.529C2.69438 9.14522 2.74233 8.83525 2.34398 8.5142C2.22226 8.40349 2.1116 8.27803 2.01939 8.14149C1.02719 6.88313 1.00506 5.72441 1.94931 4.42178C2.56898 3.59517 3.37306 2.93094 4.29887 2.47705C9.81316 -0.375472 15.4233 -0.585812 21.0593 2.06005C22.1179 2.59882 23.0843 3.29996 23.9327 4.13394C24.8843 5.03435 25.4118 6.29639 25.3823 7.60641C25.4376 8.34445 25.1314 9.06404 24.5597 9.53269C24.3864 9.66923 24.1245 9.78363 24.4269 10.0493C25.3896 10.8981 25.5187 12.0826 25.5445 13.2266C25.6109 15.9684 25.5851 18.7176 25.563 21.4594C25.5372 22.0535 25.4597 22.6439 25.3269 23.2233C25.2163 24.0462 24.5487 24.6846 23.7224 24.7547C22.6786 24.906 21.6237 24.9577 20.5688 24.9097C18.529 24.7547 16.5041 24.382 14.4643 24.2639C13.0775 24.2197 11.6943 24.2935 10.3185 24.478C8.51481 24.6735 6.72959 25.0352 4.92592 25.2086C2.47676 25.4411 1.56571 24.7584 0.982927 22.3487C0.791126 21.5516 0.750553 20.7177 0.632521 19.9058C0.569817 19.4888 0.481293 19.0718 0.403835 18.6585V15.8724H0.400146ZM3.13331 17.0238C3.13331 17.2231 3.12962 17.4223 3.13331 17.6179C3.11856 18.7471 3.39151 19.8578 3.93003 20.8505C4.42428 21.8727 5.56771 22.4078 6.67057 22.1273C7.19065 22.0388 7.70703 21.928 8.21604 21.7989C10.6357 21.1937 13.0627 20.8394 15.5635 21.2491C16.9946 21.4852 18.4368 21.6919 19.8827 21.7878C22.2581 21.9465 22.9626 21.0129 23.1876 19.4076C23.5343 17.1529 23.5417 14.8576 23.2171 12.5956C23.0474 11.4885 22.7819 10.3814 21.845 9.59912C21.7823 9.48841 21.7786 9.35187 21.8413 9.23748C22.6897 8.3629 22.4056 7.48095 21.8524 6.62482C21.2475 5.70965 20.3991 4.979 19.4032 4.51772C17.6512 3.6616 15.7442 3.16711 13.7967 3.06379C11.3845 2.88297 8.9685 3.30734 6.76278 4.29631C5.87017 4.66902 5.11403 5.30373 4.58658 6.11558C4.17347 6.77981 3.97429 7.60641 4.52018 8.14887C5.29845 8.92381 5.10296 9.4921 4.546 10.2006C4.36896 10.4811 4.23248 10.7837 4.14027 11.101C3.39888 13.0015 3.25872 15.0126 3.13331 17.0238ZM98.1007 22.4299C97.4958 23.2381 96.5147 23.6735 95.5077 23.5739C94.818 23.5813 94.1282 23.5259 93.4495 23.4078C91.7565 23.013 90.8197 21.7989 90.8049 20.0497C90.7828 17.5995 90.8012 15.1529 90.7975 12.7026C90.7938 11.7284 90.7865 11.7284 89.8164 11.6804C88.7873 11.6287 88.2303 11.1416 88.1566 10.2264C88.0385 9.34449 88.6582 8.53265 89.5434 8.41456C89.5619 8.41087 89.5803 8.41087 89.5988 8.40718C89.975 8.33707 90.5393 8.39242 90.6832 8.1747C90.886 7.86473 90.7828 7.35179 90.7975 6.92373C90.8086 6.59161 90.7865 6.25949 90.8049 5.93107C90.8123 4.95686 91.609 4.17453 92.5827 4.1856C93.6967 4.14132 94.4381 4.75389 94.534 5.83881C94.5782 6.3333 94.5487 6.83147 94.5561 7.32596C94.5708 8.37397 94.5708 8.35921 95.5852 8.39242C95.9798 8.38873 96.3708 8.44409 96.747 8.55848C97.577 8.84263 98.0233 9.74672 97.7392 10.5807C97.7097 10.6693 97.6729 10.7505 97.6286 10.8316C97.4183 11.3335 96.9315 11.6656 96.3856 11.673C96.0204 11.6804 95.6589 11.6988 95.2938 11.6804C94.7921 11.6546 94.5598 11.8797 94.5635 12.3778C94.5745 14.4296 94.5303 16.4813 94.6114 18.5294C94.6594 19.7951 95.1426 20.2232 96.4298 20.2527C97.3077 20.2748 97.7024 20.821 98.1007 21.4372V22.4299ZM55.2368 14.0827C54.6762 10.9977 51.9836 7.99019 47.5759 7.96805C46.6021 8.09721 45.6357 8.28541 44.6841 8.54003C40.612 9.89802 38.9264 14.2746 40.1104 18.3449C40.9808 21.3376 43.7398 23.703 47.8451 23.6034C52.9205 23.4816 56.1811 19.2932 55.2368 14.0827ZM48.4316 20.1235C46.8455 20.5627 45.1673 19.8542 44.3743 18.4113C43.3378 16.7323 43.4042 14.5956 44.5439 12.983C45.9529 10.8649 49.1693 10.9018 50.6152 13.0015C51.1832 13.8576 51.4857 14.865 51.4783 15.8946C51.4525 18.0238 50.2463 19.6992 48.4316 20.1235Z"
        fill="white" />
    <path
        d="M80.6505 8.09729C81.9341 8.06408 83.2103 8.30025 84.3943 8.79105C84.848 8.98663 85.2684 9.25232 85.6373 9.57706C86.1647 9.9756 86.2938 10.7173 85.9324 11.2745C85.5561 11.8834 84.8074 12.1454 84.1324 11.9093C83.1365 11.5808 82.1443 11.2266 81.13 10.9535C80.3775 10.7948 79.5882 10.9203 78.9243 11.3114C78.4447 11.4996 78.1349 11.9683 78.1497 12.4849C78.1902 12.9683 78.5591 13.3595 79.0349 13.437C79.9497 13.7064 80.8976 13.8724 81.8123 14.1381C82.8009 14.3891 83.7709 14.7138 84.7115 15.1123C87.6217 16.463 87.5738 20.5886 85.3201 22.2492C84.2984 22.9909 83.0922 23.4374 81.8308 23.5407C80.1156 23.7363 78.3784 23.5444 76.7517 22.9724C76.1616 22.7658 75.6009 22.4817 75.0845 22.1311C74.2768 21.5628 74.1255 20.7879 74.5608 20.0609C75.0182 19.3044 75.8333 19.1162 76.7259 19.4963C77.6259 19.9022 78.5517 20.2491 79.496 20.5332C80.1378 20.6845 80.8017 20.7214 81.4582 20.6402C81.9156 20.5812 82.3509 20.4078 82.7197 20.131C83.5459 19.5295 83.4648 18.4741 82.5427 18.0608C81.8345 17.7914 81.1115 17.5737 80.3701 17.4113C79.2304 17.0903 78.0575 16.8504 76.9546 16.4371C75.5862 16.0091 74.6124 14.7913 74.4944 13.3632C74.3063 11.5993 74.8706 10.1786 76.3608 9.16376C77.6443 8.35561 79.1456 7.97921 80.6505 8.09729ZM31.0293 16.212C31.0293 15.0201 31.033 13.8318 31.0256 12.6399C31.0182 11.7247 31.0108 11.7247 30.0887 11.6768C28.8383 11.614 28.2002 10.8391 28.4289 9.66193C28.5728 8.9202 29.1629 8.47 30.0961 8.38513C31.0182 8.30025 31.0182 8.30025 31.0256 7.34449C31.0293 6.88322 31.0108 6.41826 31.033 5.95698C31.0477 5.06396 31.7153 4.31485 32.6006 4.20045C33.6702 4.04915 34.4891 4.49198 34.7251 5.50678C34.8616 6.21899 34.9133 6.94226 34.8764 7.66554C34.869 8.23383 35.0756 8.44048 35.6251 8.38882C35.9202 8.3593 36.219 8.36299 36.5178 8.39989C37.4141 8.49214 38.0854 9.2597 38.0669 10.1564C38.0227 11.0753 37.3772 11.662 36.3518 11.6731C34.7141 11.6878 34.9022 11.5476 34.8948 13.1971C34.8874 14.95 34.8874 16.7028 34.8948 18.4557C34.9022 19.6956 35.3633 20.1679 36.61 20.2675C37.6722 20.3524 38.2034 20.8137 38.2735 21.7252C38.3436 22.6071 37.9415 23.1422 36.9493 23.4042C35.8907 23.6883 34.7805 23.6957 33.7182 23.43C32.0252 23.002 31.1067 21.8322 31.0293 20.083C31.0256 20.0166 31.0256 19.9502 31.0256 19.8838L31.0293 16.212ZM71.2338 17.404C71.2338 16.0829 71.2522 14.7581 71.2301 13.437C71.1895 10.7616 69.8174 8.96818 67.2318 8.36299C64.9006 7.80208 62.4515 8.02718 60.2605 9.00508C59.7552 9.24494 59.3015 9.58075 58.9253 9.99405C58.431 10.5919 58.5159 11.4812 59.1134 11.9757C59.5228 12.3152 60.0909 12.3927 60.5777 12.1786C60.8507 12.0679 61.0941 11.8834 61.3634 11.758C62.7318 11.0568 64.3326 10.9498 65.7822 11.4664C66.5973 11.71 67.2023 12.4001 67.3387 13.2377C67.4051 13.8946 67.4125 14.5588 67.3682 15.2194C67.3609 15.5994 67.1691 15.5773 66.9293 15.3743C66.8592 15.3042 66.7818 15.2415 66.7043 15.1825C64.8047 13.8355 62.3482 13.5625 60.2015 14.4518C59.0323 14.8872 58.1286 15.8356 57.7524 17.0239C56.8192 19.548 58.1101 22.3525 60.6331 23.2861C61.1568 23.478 61.7064 23.5813 62.2634 23.5887C63.9748 23.6588 65.5461 23.3046 66.8703 22.1643C67.2059 21.8765 67.3719 21.9392 67.4973 22.3193C67.6559 22.8396 68.0801 23.2345 68.6076 23.3562C70.0719 23.7437 71.1969 22.9023 71.2264 21.382C71.2522 20.0498 71.2338 18.725 71.2338 17.404ZM67.383 18.6402C67.383 19.9244 67.1506 20.2675 66.081 20.7104C65.0777 21.1643 63.9379 21.2159 62.8941 20.8543C61.9794 20.5738 61.3449 19.7435 61.3228 18.7878C61.3597 17.8357 61.9941 17.0091 62.9052 16.725C63.9748 16.3486 65.1551 16.4113 66.1769 16.9058C66.9773 17.249 67.6486 17.7324 67.383 18.6402Z"
        fill="white" />
</svg>
