<svg width="32" height="10" viewBox="0 0 32 10" fill="none" xmlns="http://www.w3.org/2000/svg">
<g clip-path="url(#clip0_1586_40342)">
<path fill-rule="evenodd" clip-rule="evenodd" d="M8.23391 4.92879C8.29244 5.46199 8.30545 6.00819 8.30545 6.54789C8.30545 6.61292 8.30545 6.67144 8.31196 6.73646L8.31193 6.73862C8.30543 7.31015 8.29879 7.8946 8.17537 8.4531C8.0508 9.01975 7.37152 9.00798 6.92577 9.00025C6.90605 8.99991 6.88679 8.99958 6.86805 8.9993C6.44027 8.99267 6.01587 8.93702 5.59227 8.88148C5.18504 8.82808 4.77855 8.77478 4.37049 8.76522C3.9128 8.75013 3.4551 8.81282 3.00041 8.87509C2.86712 8.89334 2.73409 8.91156 2.60139 8.92778C2.44071 8.94737 2.27649 8.97699 2.11087 9.00687C1.72673 9.07616 1.33502 9.14682 0.962363 9.09684C0.305452 8.9993 0.116834 8.14099 0.0648016 7.56877C-0.0197512 6.63893 -0.0782878 5.89765 0.246915 4.74673C0.357485 4.36308 0.52659 4.07698 0.754233 3.75836C0.754233 3.75836 0.637159 3.62831 0.585127 3.57629C0.474558 3.45925 0.376997 3.3227 0.31846 3.17314C0.0908179 2.56192 0.604639 2.01571 1.05342 1.73611C2.76399 0.663212 5.13147 0.585183 6.89407 1.52803C7.38187 1.78813 7.88269 2.18478 8.09082 2.74398C8.25342 3.17314 8.28594 3.75836 7.83716 3.99895C7.80742 4.01679 7.74506 4.01831 7.69979 4.0085C8.07394 4.10649 8.1953 4.56855 8.23391 4.92879ZM6.1461 7.9069C6.55586 7.94591 7.14122 7.99793 7.34935 7.52326C7.38187 7.45823 7.40139 7.3802 7.41439 7.30868C7.53147 6.60642 7.55748 5.89115 7.47944 5.18239C7.43391 4.74022 7.32334 4.1225 6.89407 3.91442C7.59 3.51127 6.84854 2.69196 6.4648 2.45788C5.23553 1.6971 3.4144 1.63857 2.11358 2.23029C1.74285 2.39936 1.05992 2.88704 1.33309 3.46575C1.38067 3.56952 1.45412 3.63017 1.5286 3.69165C1.56613 3.72264 1.60392 3.75384 1.63879 3.79087C1.62578 3.77787 1.41765 3.99895 1.27456 4.36959C1.177 4.62318 1.08594 4.88328 1.04041 5.15638C0.968867 5.57253 0.903826 6.05371 0.91033 6.48287C0.916834 6.97705 0.988379 7.56227 1.38513 7.9069C1.68964 8.16241 2.12599 8.04522 2.49273 7.94673C2.56466 7.92741 2.6339 7.90882 2.69895 7.89389C3.22578 7.77685 3.76561 7.66631 4.31196 7.68582C4.6658 7.69699 5.01538 7.75081 5.36436 7.80454C5.62477 7.84463 5.88484 7.88467 6.1461 7.9069ZM10.01 7.22376C10.01 8.09508 10.4913 8.56326 11.3954 8.56326C12.2344 8.56326 12.423 8.29666 12.423 7.98454C12.423 7.66592 12.2214 7.42533 11.8571 7.42533H11.7466C11.5384 7.42533 11.2978 7.26928 11.2978 6.88563V4.67481H11.8051C12.0978 4.67481 12.3514 4.42122 12.3514 4.11561C12.3514 3.80349 12.0978 3.5499 11.8051 3.5499H11.2978V2.78911C11.2978 2.43798 11.0181 2.15188 10.6604 2.15188C10.2897 2.15188 10.0035 2.43148 10.0035 2.78911V3.5499H9.69129C9.3856 3.5499 9.13194 3.80349 9.13194 4.0961C9.13194 4.42122 9.3856 4.67481 9.69129 4.67481H10.01V7.22376ZM12.8653 5.98829C12.8653 7.38631 13.8344 8.56325 15.4474 8.56325C17.0669 8.56325 18.036 7.38631 18.0425 5.98829C18.0425 4.60328 17.0669 3.42634 15.4474 3.42634C13.8409 3.42634 12.8653 4.60328 12.8653 5.98829ZM14.1986 5.98829C14.1986 5.22751 14.6474 4.57077 15.4474 4.57077C16.2474 4.57077 16.7027 5.23401 16.7027 5.98829C16.7027 6.76208 16.2474 7.41882 15.4474 7.41882C14.6474 7.41882 14.1986 6.75558 14.1986 5.98829ZM22.4848 8.50473H22.5889C22.9336 8.50473 23.2133 8.21862 23.2133 7.86099V5.27953C23.2133 3.87501 22.1856 3.42634 21.0734 3.42634C20.5076 3.42634 19.4149 3.62792 19.1092 4.1156C19.0702 4.18712 19.0376 4.27816 19.0376 4.36919C19.0376 4.6683 19.2913 4.86338 19.5254 4.86338C19.61 4.86338 19.688 4.83086 19.7596 4.79185C20.0913 4.57077 20.4685 4.47973 20.8523 4.47973C21.5027 4.47973 21.9254 4.80485 21.9254 5.29904V5.96879C21.6002 5.58514 21.0279 5.37056 20.3775 5.37056C19.597 5.37056 18.6734 5.80622 18.6734 6.95065C18.6734 8.04306 19.597 8.56975 20.3775 8.56975C21.0149 8.56975 21.5937 8.33566 21.9254 7.93902C21.9254 8.4267 22.3807 8.50473 22.4848 8.50473ZM20.8913 6.23538C21.3076 6.23538 21.7108 6.37193 21.9254 6.65804V7.27577C21.7108 7.55537 21.3076 7.69843 20.8913 7.69843C20.384 7.69843 19.9677 7.43183 19.9677 6.97666C19.9677 6.49548 20.384 6.23538 20.8913 6.23538ZM26.2506 8.56326C25.6132 8.56326 24.5921 8.34868 24.2864 7.91302C24.2279 7.83499 24.1953 7.74395 24.1953 7.63991C24.1953 7.3343 24.4555 7.10021 24.7352 7.10021C24.8262 7.10021 24.9173 7.11972 24.9953 7.17174C25.3791 7.39282 25.8864 7.56839 26.3092 7.56839C26.8685 7.56839 27.1287 7.34731 27.1287 7.04169C27.1287 6.72154 26.6776 6.63039 26.1308 6.5199C25.2894 6.34987 24.2213 6.13403 24.2213 4.96742C24.2213 4.14812 24.9433 3.42635 26.2246 3.42635C26.862 3.42635 27.7335 3.62793 28.0067 4.02457C28.0587 4.0961 28.0848 4.18713 28.0848 4.27817C28.0848 4.55127 27.8441 4.76585 27.5774 4.76585C27.4994 4.76585 27.4083 4.74634 27.3368 4.70733C27.0246 4.52526 26.6278 4.41472 26.2311 4.41472C25.7628 4.41472 25.4636 4.6293 25.4636 4.9024C25.4636 5.17776 25.8774 5.26255 26.392 5.36802C27.2385 5.54149 28.3579 5.77089 28.3579 6.99618C28.3709 7.88701 27.61 8.56326 26.2506 8.56326ZM30.9661 8.56326C30.062 8.56326 29.5807 8.09508 29.5807 7.22376V4.67481H29.2685C28.9628 4.67481 28.7092 4.42122 28.7092 4.0961C28.7092 3.80349 28.9628 3.5499 29.2685 3.5499H29.5807V2.78911C29.5807 2.43148 29.8669 2.15188 30.2376 2.15188C30.5953 2.15188 30.875 2.43798 30.875 2.78911V3.5499H31.3823C31.675 3.5499 31.9287 3.80349 31.9287 4.11561C31.9287 4.42122 31.675 4.67481 31.3823 4.67481H30.875V6.88563C30.875 7.26928 31.1157 7.42533 31.3238 7.42533H31.4344C31.7986 7.42533 32.0002 7.66592 32.0002 7.98454C31.9937 8.29666 31.8051 8.56326 30.9661 8.56326Z" fill="#FF4C00"/>
</g>
<defs>
<clipPath id="clip0_1586_40342">
<rect width="32" height="8.25806" fill="white" transform="translate(0 0.870926)"/>
</clipPath>
</defs>
</svg>
