<svg width="95" height="71" viewBox="0 0 95 71" fill="none" xmlns="http://www.w3.org/2000/svg">
    <g clip-path="url(#clip0_530_8652)">
        <mask id="mask0_530_8652" style="mask-type:luminance" maskUnits="userSpaceOnUse" x="0" y="0"
            width="95" height="71">
            <path d="M0 0H95V71H0V0Z" fill="white" />
        </mask>
        <g mask="url(#mask0_530_8652)">
            <path fill-rule="evenodd" clip-rule="evenodd" d="M0 0V71H95V0H0Z" fill="#2E42A5" />
            <mask id="mask1_530_8652" style="mask-type:luminance" maskUnits="userSpaceOnUse" x="0"
                y="0" width="95" height="71">
                <path fill-rule="evenodd" clip-rule="evenodd" d="M0 0V71H95V0H0Z" fill="white" />
            </mask>
            <g mask="url(#mask1_530_8652)">
                <mask id="mask2_530_8652" style="mask-type:luminance" maskUnits="userSpaceOnUse"
                    x="0" y="0" width="95" height="71">
                    <path d="M0 0H95V71H0V0Z" fill="white" />
                </mask>
                <g mask="url(#mask2_530_8652)">
                    <path
                        d="M-10.5781 65.9278L10.3269 74.7377L95.4743 9.57864L106.502 -3.5134L84.1465 -6.45801L49.4168 21.6209L21.463 40.5397L-10.5781 65.9278Z"
                        fill="white" />
                    <path
                        d="M-7.7168 72.1006L2.93334 77.2133L102.54 -4.72949H87.587L-7.7168 72.1006Z"
                        fill="#F50100" />
                    <path
                        d="M105.58 65.9278L84.6743 74.7377L-0.473111 9.57864L-11.5 -3.5134L10.8549 -6.45801L45.5844 21.6209L73.5382 40.5397L105.58 65.9278Z"
                        fill="white" />
                    <path
                        d="M104.864 70.358L94.2145 75.4706L51.8006 40.3869L39.2256 36.4667L-12.5625 -3.46826H2.39151L54.1507 35.5189L67.899 40.2194L104.864 70.358Z"
                        fill="#F50100" />
                    <path fill-rule="evenodd" clip-rule="evenodd"
                        d="M58.7155 -5.91602H36.2851V23.6673H-5.85547V47.334H36.2851V76.9173H58.7155V47.334H101.019V23.6673H58.7155V-5.91602Z"
                        fill="#F50100" />
                    <mask id="mask3_530_8652" style="mask-type:luminance" maskUnits="userSpaceOnUse"
                        x="-6" y="-6" width="108" height="83">
                        <path fill-rule="evenodd" clip-rule="evenodd"
                            d="M58.7116 -5.91602H36.2812V23.6673H-5.85938V47.334H36.2812V76.9173H58.7116V47.334H101.016V23.6673H58.7116V-5.91602Z"
                            fill="white" />
                    </mask>
                    <g mask="url(#mask3_530_8652)">
                        <path
                            d="M36.2832 -5.91636V-11.833H30.3457V-5.91636H36.2832ZM58.7135 -5.91636H64.6511V-11.833H58.7135V-5.91636ZM36.2832 23.667V29.5836H42.2206V23.667H36.2832ZM-5.85744 23.667V17.7503H-11.7949V23.667H-5.85744ZM-5.85744 47.3336H-11.7949V53.2503H-5.85744V47.3336ZM36.2832 47.3336H42.2206V41.417H36.2832V47.3336ZM36.2832 76.9169H30.3457V82.8337H36.2832V76.9169ZM58.7135 76.9169V82.8337H64.6511V76.9169H58.7135ZM58.7135 47.3336V41.417H52.776V47.3336H58.7135ZM101.018 47.3336V53.2503H106.955V47.3336H101.018ZM101.018 23.667H106.955V17.7503H101.018V23.667ZM58.7135 23.667H52.776V29.5836H58.7135V23.667ZM36.2832 0.000299412H58.7135V-11.833H36.2832V0.000299412ZM42.2206 23.667V-5.91636H30.3457V23.667H42.2206ZM-5.85744 29.5836H36.2832V17.7503H-5.85744V29.5836ZM0.0800512 47.3336V23.667H-11.7949V47.3336H0.0800512ZM36.2832 41.417H-5.85744V53.2503H36.2832V41.417ZM42.2206 76.9169V47.3336H30.3457V76.9169H42.2206ZM58.7135 71.0003H36.2832V82.8337H58.7135V71.0003ZM52.776 47.3336V76.9169H64.6511V47.3336H52.776ZM101.018 41.417H58.7135V53.2503H101.018V41.417ZM95.0801 23.667V47.3336H106.955V23.667H95.0801ZM58.7135 29.5836H101.018V17.7503H58.7135V29.5836ZM52.776 -5.91636V23.667H64.6511V-5.91636H52.776Z"
                            fill="white" />
                    </g>
                </g>
            </g>
        </g>
    </g>
    <defs>
        <clipPath id="clip0_530_8652">
            <rect width="95" height="71.0001" fill="white" />
        </clipPath>
    </defs>
</svg>
