<svg width="95" height="71" viewBox="0 0 95 71" fill="none" xmlns="http://www.w3.org/2000/svg">
    <g clip-path="url(#clip0_530_8688)">
        <mask id="mask0_530_8688" style="mask-type:luminance" maskUnits="userSpaceOnUse" x="0" y="0"
            width="95" height="71">
            <path d="M0 0H95V71H0V0Z" fill="white" />
        </mask>
        <g mask="url(#mask0_530_8688)">
            <path fill-rule="evenodd" clip-rule="evenodd"
                d="M0 0H135.368V5.46369H0V0ZM0 10.9273H135.368V16.391H0V10.9273ZM0 21.8408H135.368V27.3184H0V21.8408ZM0 32.7682H135.368V38.2318H0V32.7682ZM0 43.6954H135.368V49.1592H0V43.6954ZM0 54.6089H135.368V60.0727H0V54.6089ZM0 65.5362H135.368V71H0V65.5362Z"
                fill="#BD3D44" />
            <path fill-rule="evenodd" clip-rule="evenodd"
                d="M0 5.46338H135.369V10.9271H0V5.46338ZM0 16.3907H135.369V21.8405H0V16.3907ZM0 27.3042H135.369V32.7679H0V27.3042ZM0 38.2315H135.369V43.6952H0V38.2315ZM0 49.159H135.369V54.6225H0V49.159ZM0 60.0725H135.369V65.536H0V60.0725Z"
                fill="white" />
            <path fill-rule="evenodd" clip-rule="evenodd" d="M0 0H54.1445V38.2318H0V0Z"
                fill="#192F5D" />
            <path fill-rule="evenodd" clip-rule="evenodd"
                d="M4.50917 1.63623L5.01013 3.14775H6.59648L5.31627 4.07684L5.80331 5.60223L4.50917 4.65927L3.22897 5.58839L3.716 4.07684L2.42188 3.14775H4.03607L4.50917 1.63623ZM13.5402 1.63623L14.0273 3.14775H15.6275L14.3334 4.07684L14.8204 5.60223L13.5402 4.65927L12.2461 5.58839L12.7332 4.07684L11.4529 3.14775H13.0393L13.5402 1.63623ZM22.5574 1.63623L23.0583 3.14775H24.6308L23.3506 4.07684L23.8376 5.60223L22.5435 4.65927L21.2632 5.58839L21.7503 4.07684L20.4561 3.14775H22.0564L22.5574 1.63623ZM31.5884 1.63623L32.0755 3.14775H33.6757L32.3816 4.07684L32.8825 5.60223L31.5884 4.65927L30.2943 5.58839L30.7953 4.07684L29.5011 3.14775H31.0875L31.5884 1.63623ZM40.6056 1.63623L41.1067 3.14775H42.6928L41.4127 4.07684L41.8995 5.60223L40.6056 4.65927L39.3254 5.58839L39.8123 4.07684L38.5322 3.14775H40.1187L40.6056 1.63623ZM49.6365 1.63623L50.1238 3.14775H51.7237L50.4297 4.07684L50.9309 5.60223L49.6365 4.65927L48.3425 5.58839L48.8433 4.07684L47.5493 3.14775H49.1496L49.6365 1.63623ZM9.03168 5.46358L9.51872 6.9751H11.119L9.82485 7.90421L10.298 9.41572L9.04558 8.48661L7.75144 9.41572L8.21064 7.90421L6.95827 6.9751H8.54461L9.03168 5.46358ZM18.0488 5.46358L18.5498 6.9751H20.1361L18.842 7.90421L19.3429 9.41572L18.0488 8.48661L16.7547 9.41572L17.2556 7.90421L15.9615 6.9751H17.5618L18.0488 5.46358ZM27.0799 5.46358L27.5669 6.9751H29.1672L27.873 7.90421L28.3601 9.41572L27.0799 8.48661L25.7857 9.41572L26.2728 7.90421L24.9926 6.9751H26.5789L27.0799 5.46358ZM36.097 5.46358L36.5979 6.9751H38.1843L36.8902 7.90421L37.3911 9.41572L36.097 8.48661L34.8168 9.41572L35.3038 7.90421L34.0097 6.9751H35.6239L36.097 5.46358ZM45.128 5.46358L45.6152 6.9751H47.2152L45.9212 7.90421L46.4081 9.41572L45.128 8.48661L43.834 9.41572L44.3209 7.90421L43.0407 6.9751H44.6272L45.128 5.46358ZM4.50917 9.27703L5.01013 10.8163H6.59648L5.31627 11.7454L5.80331 13.2569L4.50917 12.314L3.22897 13.2569L3.716 11.7315L2.42188 10.8024H4.03607L4.50917 9.27703ZM13.5402 9.27703L14.0273 10.8024H15.6275L14.3334 11.7315L14.8204 13.2431L13.5402 12.3001L12.2461 13.2431L12.7332 11.7177L11.4529 10.7886H13.0393L13.5402 9.27703ZM22.5574 9.27703L23.0583 10.8024H24.6308L23.3506 11.7315L23.8376 13.2431L22.5435 12.3001L21.2632 13.2431L21.7503 11.7177L20.4561 10.7886H22.0564L22.5574 9.27703ZM31.5884 9.27703L32.0755 10.8024H33.6757L32.3816 11.7315L32.8825 13.2431L31.5884 12.3001L30.2943 13.2431L30.7953 11.7177L29.5011 10.7886H31.0875L31.5884 9.27703ZM40.6056 9.27703L41.1067 10.8024H42.6928L41.4127 11.7315L41.8995 13.2431L40.6056 12.3001L39.3254 13.2431L39.8123 11.7177L38.5322 10.7886H40.1187L40.6056 9.27703ZM49.6365 9.27703L50.1238 10.8024H51.7237L50.4297 11.7315L50.9309 13.2431L49.6365 12.3001L48.3425 13.2431L48.8433 11.7177L47.5493 10.7886H49.1496L49.6365 9.27703ZM9.03168 13.1044L9.51872 14.6159H11.119L9.82485 15.545L10.3119 17.0704L9.03168 16.1274L7.73754 17.0565L8.22458 15.545L6.94437 14.6159H8.53072L9.03168 13.1044ZM18.0488 13.1044L18.5498 14.6159H20.1361L18.842 15.545L19.3429 17.0704L18.0488 16.1274L16.7547 17.0565L17.2556 15.545L15.9615 14.6159H17.5618L18.0488 13.1044ZM27.0799 13.1044L27.5669 14.6159H29.1672L27.873 15.545L28.3601 17.0704L27.0799 16.1274L25.7857 17.0565L26.2728 15.545L24.9926 14.6159H26.5789L27.0799 13.1044ZM36.097 13.1044L36.5979 14.6159H38.1843L36.9041 15.545L37.3911 17.0704L36.097 16.1274L34.8168 17.0565L35.3038 15.545L34.0097 14.6159H35.6239L36.097 13.1044ZM45.128 13.1044L45.6152 14.6159H47.2152L45.9212 15.545L46.4081 17.0704L45.128 16.1274L43.834 17.0565L44.3209 15.545L43.0407 14.6159H44.6272L45.128 13.1044ZM4.50917 16.9317L5.01013 18.4433H6.59648L5.31627 19.3724L5.80331 20.8978L4.50917 19.9548L3.22897 20.8839L3.716 19.3724L2.42188 18.4433H4.03607L4.50917 16.9317ZM13.5402 16.9317L14.0273 18.4433H15.6275L14.3334 19.3724L14.8204 20.8839L13.5402 19.9548L12.2461 20.8839L12.7332 19.3724L11.4529 18.4433H13.0393L13.5402 16.9317ZM22.5574 16.9317L23.0583 18.4433H24.6308L23.3506 19.3724L23.8376 20.8978L22.5435 19.9548L21.2632 20.8839L21.7503 19.3724L20.4561 18.4433H22.0564L22.5574 16.9317ZM31.5884 16.9317L32.0755 18.4433H33.6757L32.3816 19.3724L32.8825 20.8978L31.5884 19.9548L30.2943 20.8839L30.7953 19.3724L29.5011 18.4433H31.0875L31.5884 16.9317ZM40.6056 16.9317L41.1067 18.4433H42.6928L41.4127 19.3724L41.8995 20.8978L40.6056 19.9548L39.3254 20.8839L39.8123 19.3724L38.5322 18.4433H40.1187L40.6056 16.9317ZM49.6365 16.9317L50.1238 18.4433H51.7237L50.4297 19.3724L50.9309 20.8978L49.6365 19.9548L48.3425 20.8839L48.8433 19.3724L47.5493 18.4433H49.1496L49.6365 16.9317ZM9.03168 20.7591L9.51872 22.2706H11.119L9.82485 23.1997L10.3119 24.7112L9.03168 23.7683L7.73754 24.7112L8.22458 23.1859L6.94437 22.2567H8.53072L9.03168 20.7591ZM18.0488 20.7591L18.5498 22.2706H20.1361L18.842 23.1997L19.3429 24.7112L18.0488 23.7683L16.7547 24.7112L17.2556 23.1859L15.9615 22.2567H17.5618L18.0488 20.7591ZM27.0799 20.7591L27.5669 22.2706H29.1672L27.873 23.1997L28.3601 24.7112L27.0799 23.7683L25.7857 24.7112L26.2728 23.1859L24.9926 22.2567H26.5789L27.0799 20.7591ZM36.097 20.7591L36.5979 22.2706H38.1843L36.9041 23.1997L37.3911 24.7112L36.097 23.7683L34.8168 24.7112L35.3038 23.1859L34.0097 22.2567H35.6239L36.097 20.7591ZM45.128 20.7591L45.6152 22.2706H47.2152L45.9212 23.1997L46.4081 24.7112L45.128 23.7683L43.834 24.7112L44.3209 23.1859L43.0407 22.2567H44.6272L45.128 20.7591ZM4.50917 24.5726L5.01013 26.098H6.59648L5.31627 27.027L5.80331 28.5247L4.50917 27.5956L3.22897 28.5247L3.716 27.0132L2.42188 26.0841H4.03607L4.50917 24.5726ZM13.5402 24.5726L14.0273 26.098H15.6275L14.3334 27.027L14.8344 28.5247L13.5402 27.5956L12.2461 28.5247L12.7471 27.0132L11.4529 26.0841H13.0393L13.5402 24.5726ZM22.5574 24.5726L23.0583 26.098H24.6308L23.3506 27.027L23.8376 28.5247L22.5435 27.5956L21.2632 28.5247L21.7503 27.0132L20.4561 26.0841H22.0564L22.5574 24.5726ZM31.5884 24.5726L32.0755 26.098H33.6757L32.3816 27.027L32.8825 28.5247L31.5884 27.5956L30.2943 28.5247L30.7953 27.0132L29.5011 26.0841H31.0875L31.5884 24.5726ZM40.6056 24.5726L41.1067 26.098H42.6928L41.4127 27.027L41.8995 28.5247L40.6056 27.5956L39.3254 28.5247L39.8123 27.0132L38.5322 26.0841H40.1187L40.6056 24.5726ZM49.6365 24.5726L50.1238 26.098H51.7237L50.4297 27.027L50.9309 28.5247L49.6365 27.5956L48.3425 28.5247L48.8433 27.0132L47.5493 26.0841H49.1496L49.6365 24.5726ZM9.03168 28.3999L9.51872 29.9114H11.119L9.82485 30.8405L10.3119 32.3659L9.03168 31.423L7.73754 32.352L8.22458 30.8405L6.94437 29.9114H8.53072L9.03168 28.3999ZM18.0488 28.3999L18.5498 29.9114H20.1361L18.842 30.8405L19.3429 32.3659L18.0488 31.423L16.7547 32.352L17.2556 30.8405L15.9615 29.9114H17.5618L18.0488 28.3999ZM27.0799 28.3999L27.5669 29.9114H29.1672L27.873 30.8405L28.3601 32.3659L27.0799 31.423L25.7857 32.352L26.2728 30.8405L24.9926 29.9114H26.5789L27.0799 28.3999ZM36.097 28.3999L36.5979 29.9114H38.1843L36.9041 30.8405L37.3911 32.3659L36.097 31.423L34.8168 32.352L35.3038 30.8405L34.0097 29.9114H35.6239L36.097 28.3999ZM45.128 28.3999L45.6152 29.9114H47.2152L45.9212 30.8405L46.4081 32.3659L45.128 31.423L43.834 32.352L44.3209 30.8405L43.0407 29.9114H44.6272L45.128 28.3999ZM4.50917 32.2272L5.01013 33.7388H6.59648L5.31627 34.6679L5.80331 36.1794L4.50917 35.2503L3.22897 36.1794L3.716 34.654L2.42188 33.7249H4.03607L4.50917 32.2272ZM13.5402 32.2272L14.0273 33.7388H15.6275L14.3334 34.6679L14.8344 36.1794L13.5402 35.2503L12.2461 36.1794L12.7471 34.654L11.4529 33.7249H13.0393L13.5402 32.2272ZM22.5574 32.2272L23.0583 33.7388H24.6308L23.3784 34.6679L23.8654 36.1794L22.5713 35.2503L21.2911 36.1794L21.7781 34.654L20.484 33.7249H22.0842L22.5574 32.2272ZM31.5884 32.2272L32.0755 33.7388H33.6757L32.3816 34.6679L32.8825 36.1794L31.5884 35.2503L30.2943 36.1794L30.7953 34.654L29.5011 33.7249H31.0875L31.5884 32.2272ZM40.6056 32.2272L41.1067 33.7388H42.6928L41.4127 34.6679L41.8995 36.1794L40.6056 35.2503L39.3254 36.1794L39.8123 34.654L38.5322 33.7249H40.1187L40.6056 32.2272ZM49.6365 32.2272L50.1238 33.7388H51.7237L50.4297 34.6679L50.9309 36.1794L49.6365 35.2503L48.3425 36.1794L48.8433 34.654L47.5493 33.7249H49.1496L49.6365 32.2272Z"
                fill="white" />
        </g>
        <mask id="mask1_530_8688" style="mask-type:alpha" maskUnits="userSpaceOnUse" x="0" y="0"
            width="95" height="71">
            <path d="M95 0L0 71H95V0Z" fill="white" />
        </mask>
        <g mask="url(#mask1_530_8688)">
            <mask id="mask2_530_8688" style="mask-type:luminance" maskUnits="userSpaceOnUse" x="0"
                y="0" width="95" height="71">
                <path d="M0 0H95V70.9976H0V0Z" fill="white" />
            </mask>
            <g mask="url(#mask2_530_8688)">
                <path fill-rule="evenodd" clip-rule="evenodd" d="M23.75 0H71.2499V70.9976H23.75V0Z"
                    fill="#F7FCFF" />
                <path fill-rule="evenodd" clip-rule="evenodd"
                    d="M47.4299 20.708L47.4999 56.2069H45.7203L46.812 47.4218C38.8259 48.8537 35.1627 49.2083 35.823 48.4864C36.4832 47.7638 37.0037 46.7402 37.384 45.4153L26.7188 38.3252C27.8403 38.3112 28.8573 38.0337 29.7697 37.493C30.682 36.9522 30.226 35.0785 28.4011 31.8715L33.7858 32.6521L35.823 30.4459L39.8857 34.683H41.7116L39.8857 24.978L43.1592 26.7999L47.4299 20.708ZM47.4299 20.708L51.841 26.7999L55.1142 24.978L53.2882 34.683H55.1142L59.177 30.4459L61.214 32.6521L66.5989 31.8715C64.7741 35.0785 64.3181 36.9522 65.2301 37.493C66.1425 38.0337 67.1598 38.3112 68.2812 38.3252L57.6158 45.4153C57.9962 46.7402 58.5168 47.7638 59.177 48.4864C59.8373 49.2083 56.1742 48.8537 48.1879 47.4218L49.2796 56.2069H47.4999L47.4299 20.708Z"
                    fill="#E31D1C" />
                <path fill-rule="evenodd" clip-rule="evenodd" d="M71.25 0H95V70.9976H71.25V0Z"
                    fill="#E31D1C" />
                <path fill-rule="evenodd" clip-rule="evenodd" d="M0 0H23.75V70.9976H0V0Z"
                    fill="#E31D1C" />
            </g>
        </g>
    </g>
    <defs>
        <clipPath id="clip0_530_8688">
            <rect width="95" height="71" fill="white" />
        </clipPath>
    </defs>
</svg>
