<svg width="14" height="14" viewBox="0 0 14 14" fill="none" xmlns="http://www.w3.org/2000/svg">
    <path
        d="M10.6 11.5C10.36 9.7 8.8 8.32 6.94 8.32C5.08 8.32 3.58 9.7 3.28 11.5M9.04 5.92C9.04 7.04666 8.12666 7.96 7 7.96C5.87334 7.96 4.96 7.04666 4.96 5.92C4.96 4.79334 5.87334 3.88 7 3.88C8.12666 3.88 9.04 4.79334 9.04 5.92ZM13 7C13 10.3137 10.3137 13 7 13C3.68629 13 1 10.3137 1 7C1 3.68629 3.68629 1 7 1C10.3137 1 13 3.68629 13 7Z"
        stroke="white" stroke-width="1.5" stroke-miterlimit="10" stroke-linecap="round" stroke-linejoin="round" />
</svg>
