<svg width="16" height="16" viewBox="0 0 16 16" fill="none" xmlns="http://www.w3.org/2000/svg">
    <g clip-path="url(#clip0_139_8645)">
        <path
            d="M12.0332 13.0332C11.7665 11.0332 10.0332 9.49991 7.96655 9.49991C5.89988 9.49991 4.23321 11.0332 3.89988 13.0332M10.2999 6.83324C10.2999 8.08509 9.28506 9.09991 8.03321 9.09991C6.78137 9.09991 5.76655 8.08509 5.76655 6.83324C5.76655 5.5814 6.78137 4.56658 8.03321 4.56658C9.28506 4.56658 10.2999 5.5814 10.2999 6.83324ZM14.6999 8.03324C14.6999 11.7151 11.7151 14.6999 8.03321 14.6999C4.35131 14.6999 1.36655 11.7151 1.36655 8.03324C1.36655 4.35135 4.35131 1.36658 8.03321 1.36658C11.7151 1.36658 14.6999 4.35135 14.6999 8.03324Z"
            stroke="white" stroke-miterlimit="10" stroke-linecap="round" stroke-linejoin="round" />
    </g>
    <defs>
        <clipPath id="clip0_139_8645">
            <rect width="16" height="16" fill="white" />
        </clipPath>
    </defs>
</svg>
