<svg width="24" height="24" viewBox="0 0 24 24" fill="none" xmlns="http://www.w3.org/2000/svg">
<mask id="path-1-inside-1_1_86115" fill="white">
<path fill-rule="evenodd" clip-rule="evenodd" d="M16.3939 2.02101L16.4599 2.03901C17.5599 2.33401 18.4309 2.56701 19.1159 2.81501C19.8169 3.06801 20.3889 3.35701 20.8599 3.79801C21.5454 4.44054 22.0249 5.27192 22.2379 6.18701C22.3849 6.81501 22.3499 7.45501 22.2179 8.18801C22.0909 8.90601 21.8579 9.77701 21.5629 10.876L21.0269 12.875C20.7329 13.974 20.4989 14.845 20.2519 15.531C19.9979 16.231 19.7089 16.803 19.2679 17.274C18.6463 17.9377 17.8474 18.409 16.9659 18.632C16.7076 19.2241 16.3313 19.7573 15.8599 20.199C15.3889 20.64 14.8169 20.929 14.1159 21.183C13.4309 21.431 12.5599 21.664 11.4609 21.959L11.3939 21.977C10.2939 22.271 9.42389 22.504 8.70589 22.633C7.97289 22.764 7.33289 22.799 6.70389 22.653C5.78892 22.4393 4.95788 21.9591 4.31589 21.273C3.87589 20.803 3.58589 20.231 3.33189 19.53C3.08489 18.845 2.85189 17.974 2.55689 16.874L2.02089 14.876C1.72689 13.776 1.49289 12.906 1.36489 12.188C1.23389 11.455 1.19889 10.815 1.34489 10.186C1.55858 9.27104 2.03883 8.44 2.72489 7.79801C3.19489 7.35801 3.76689 7.06801 4.46789 6.81401C5.15289 6.56701 6.02389 6.33401 7.12289 6.03901L7.15689 6.02901L7.90789 5.82901C8.29989 4.43001 8.64389 3.44101 9.31589 2.72401C9.95801 2.03832 10.789 1.55843 11.7039 1.34501C12.3329 1.19901 12.9719 1.23401 13.7059 1.36501C14.4229 1.49301 15.2939 1.72701 16.3939 2.02101ZM7.45489 7.50301C6.36189 7.79601 5.57889 8.00801 4.97689 8.22501C4.36689 8.44501 4.00989 8.64901 3.74989 8.89301C3.28054 9.33232 2.95202 9.90097 2.80589 10.527C2.72589 10.875 2.72689 11.287 2.84189 11.924C2.95689 12.571 3.17389 13.381 3.47889 14.521L3.99689 16.453C4.30189 17.593 4.51989 18.403 4.74289 19.02C4.96289 19.63 5.16689 19.988 5.41089 20.248C5.8502 20.7174 6.41884 21.0459 7.04489 21.192C7.39189 21.272 7.80489 21.27 8.44189 21.156C9.08889 21.041 9.89889 20.824 11.0389 20.519C12.1789 20.213 12.9889 19.996 13.6069 19.772C14.2159 19.552 14.5739 19.348 14.8339 19.105C14.9719 18.975 15.0972 18.8353 15.2099 18.686C15.0244 18.6595 14.8396 18.6279 14.6559 18.591C13.9839 18.457 13.1759 18.241 12.1809 17.974L12.1229 17.959C11.0239 17.664 10.1529 17.431 9.46789 17.183C8.76689 16.93 8.19489 16.641 7.72389 16.2C7.03803 15.5576 6.55812 14.7262 6.34489 13.811C6.19889 13.183 6.23389 12.543 6.36489 11.81C6.49289 11.092 6.72689 10.221 7.02089 9.12201L7.45489 7.50301ZM13.4419 2.84201C12.8039 2.72701 12.3919 2.72501 12.0449 2.80601C11.4188 2.95214 10.8502 3.28066 10.4109 3.75001C9.97489 4.21501 9.70589 4.93501 9.23989 6.64301L8.99689 7.54501L8.47889 9.47701C8.17389 10.617 7.95689 11.427 7.84189 12.074C7.72689 12.711 7.72489 13.124 7.80589 13.471C7.95202 14.0971 8.28054 14.6657 8.74989 15.105C9.00989 15.349 9.36789 15.552 9.97689 15.773C10.5949 15.996 11.4049 16.213 12.5449 16.519C13.5699 16.794 14.3299 16.997 14.9479 17.119C15.5629 17.242 15.9809 17.272 16.3229 17.23C16.3976 17.22 16.4696 17.2073 16.5389 17.192C17.1649 17.0459 17.7336 16.7174 18.1729 16.248C18.4169 15.988 18.6209 15.63 18.8409 15.021C19.0639 14.403 19.2809 13.593 19.5869 12.453L20.1049 10.521C20.4099 9.38101 20.6269 8.57101 20.7419 7.92401C20.8559 7.28701 20.8589 6.87401 20.7779 6.52701C20.6318 5.90097 20.3032 5.33232 19.8339 4.89301C19.5739 4.64901 19.2159 4.44601 18.6069 4.22501C17.9879 4.00201 17.1789 3.78501 16.0389 3.47901C14.8989 3.17401 14.0889 2.95701 13.4419 2.84201ZM11.0519 9.80601C11.0774 9.71086 11.1214 9.62166 11.1814 9.54353C11.2414 9.46539 11.3162 9.39984 11.4016 9.35062C11.4869 9.30141 11.5811 9.26948 11.6788 9.25668C11.7765 9.24388 11.8757 9.25045 11.9709 9.27601L16.8009 10.57C16.9877 10.6262 17.1453 10.7529 17.2402 10.9233C17.3351 11.0938 17.3599 11.2944 17.3092 11.4828C17.2586 11.6712 17.1366 11.8325 16.9691 11.9324C16.8016 12.0323 16.6017 12.063 16.4119 12.018L11.5819 10.724C11.3899 10.6725 11.2263 10.5468 11.1269 10.3747C11.0276 10.2026 11.0006 9.99802 11.0519 9.80601ZM10.2749 12.704C10.3004 12.6087 10.3445 12.5195 10.4045 12.4412C10.4646 12.363 10.5395 12.2974 10.625 12.2482C10.7104 12.199 10.8047 12.1671 10.9025 12.1543C11.0003 12.1416 11.0997 12.1483 11.1949 12.174L14.0919 12.95C14.284 13.0015 14.4479 13.1271 14.5474 13.2994C14.6469 13.4716 14.6738 13.6764 14.6224 13.8685C14.5709 14.0607 14.4453 14.2245 14.273 14.324C14.1008 14.4235 13.896 14.4505 13.7039 14.399L10.8059 13.622C10.6139 13.5705 10.4503 13.4448 10.3509 13.2727C10.2516 13.1006 10.2246 12.896 10.2759 12.704"/>
</mask>
<path fill-rule="evenodd" clip-rule="evenodd" d="M16.3939 2.02101L16.4599 2.03901C17.5599 2.33401 18.4309 2.56701 19.1159 2.81501C19.8169 3.06801 20.3889 3.35701 20.8599 3.79801C21.5454 4.44054 22.0249 5.27192 22.2379 6.18701C22.3849 6.81501 22.3499 7.45501 22.2179 8.18801C22.0909 8.90601 21.8579 9.77701 21.5629 10.876L21.0269 12.875C20.7329 13.974 20.4989 14.845 20.2519 15.531C19.9979 16.231 19.7089 16.803 19.2679 17.274C18.6463 17.9377 17.8474 18.409 16.9659 18.632C16.7076 19.2241 16.3313 19.7573 15.8599 20.199C15.3889 20.64 14.8169 20.929 14.1159 21.183C13.4309 21.431 12.5599 21.664 11.4609 21.959L11.3939 21.977C10.2939 22.271 9.42389 22.504 8.70589 22.633C7.97289 22.764 7.33289 22.799 6.70389 22.653C5.78892 22.4393 4.95788 21.9591 4.31589 21.273C3.87589 20.803 3.58589 20.231 3.33189 19.53C3.08489 18.845 2.85189 17.974 2.55689 16.874L2.02089 14.876C1.72689 13.776 1.49289 12.906 1.36489 12.188C1.23389 11.455 1.19889 10.815 1.34489 10.186C1.55858 9.27104 2.03883 8.44 2.72489 7.79801C3.19489 7.35801 3.76689 7.06801 4.46789 6.81401C5.15289 6.56701 6.02389 6.33401 7.12289 6.03901L7.15689 6.02901L7.90789 5.82901C8.29989 4.43001 8.64389 3.44101 9.31589 2.72401C9.95801 2.03832 10.789 1.55843 11.7039 1.34501C12.3329 1.19901 12.9719 1.23401 13.7059 1.36501C14.4229 1.49301 15.2939 1.72701 16.3939 2.02101ZM7.45489 7.50301C6.36189 7.79601 5.57889 8.00801 4.97689 8.22501C4.36689 8.44501 4.00989 8.64901 3.74989 8.89301C3.28054 9.33232 2.95202 9.90097 2.80589 10.527C2.72589 10.875 2.72689 11.287 2.84189 11.924C2.95689 12.571 3.17389 13.381 3.47889 14.521L3.99689 16.453C4.30189 17.593 4.51989 18.403 4.74289 19.02C4.96289 19.63 5.16689 19.988 5.41089 20.248C5.8502 20.7174 6.41884 21.0459 7.04489 21.192C7.39189 21.272 7.80489 21.27 8.44189 21.156C9.08889 21.041 9.89889 20.824 11.0389 20.519C12.1789 20.213 12.9889 19.996 13.6069 19.772C14.2159 19.552 14.5739 19.348 14.8339 19.105C14.9719 18.975 15.0972 18.8353 15.2099 18.686C15.0244 18.6595 14.8396 18.6279 14.6559 18.591C13.9839 18.457 13.1759 18.241 12.1809 17.974L12.1229 17.959C11.0239 17.664 10.1529 17.431 9.46789 17.183C8.76689 16.93 8.19489 16.641 7.72389 16.2C7.03803 15.5576 6.55812 14.7262 6.34489 13.811C6.19889 13.183 6.23389 12.543 6.36489 11.81C6.49289 11.092 6.72689 10.221 7.02089 9.12201L7.45489 7.50301ZM13.4419 2.84201C12.8039 2.72701 12.3919 2.72501 12.0449 2.80601C11.4188 2.95214 10.8502 3.28066 10.4109 3.75001C9.97489 4.21501 9.70589 4.93501 9.23989 6.64301L8.99689 7.54501L8.47889 9.47701C8.17389 10.617 7.95689 11.427 7.84189 12.074C7.72689 12.711 7.72489 13.124 7.80589 13.471C7.95202 14.0971 8.28054 14.6657 8.74989 15.105C9.00989 15.349 9.36789 15.552 9.97689 15.773C10.5949 15.996 11.4049 16.213 12.5449 16.519C13.5699 16.794 14.3299 16.997 14.9479 17.119C15.5629 17.242 15.9809 17.272 16.3229 17.23C16.3976 17.22 16.4696 17.2073 16.5389 17.192C17.1649 17.0459 17.7336 16.7174 18.1729 16.248C18.4169 15.988 18.6209 15.63 18.8409 15.021C19.0639 14.403 19.2809 13.593 19.5869 12.453L20.1049 10.521C20.4099 9.38101 20.6269 8.57101 20.7419 7.92401C20.8559 7.28701 20.8589 6.87401 20.7779 6.52701C20.6318 5.90097 20.3032 5.33232 19.8339 4.89301C19.5739 4.64901 19.2159 4.44601 18.6069 4.22501C17.9879 4.00201 17.1789 3.78501 16.0389 3.47901C14.8989 3.17401 14.0889 2.95701 13.4419 2.84201ZM11.0519 9.80601C11.0774 9.71086 11.1214 9.62166 11.1814 9.54353C11.2414 9.46539 11.3162 9.39984 11.4016 9.35062C11.4869 9.30141 11.5811 9.26948 11.6788 9.25668C11.7765 9.24388 11.8757 9.25045 11.9709 9.27601L16.8009 10.57C16.9877 10.6262 17.1453 10.7529 17.2402 10.9233C17.3351 11.0938 17.3599 11.2944 17.3092 11.4828C17.2586 11.6712 17.1366 11.8325 16.9691 11.9324C16.8016 12.0323 16.6017 12.063 16.4119 12.018L11.5819 10.724C11.3899 10.6725 11.2263 10.5468 11.1269 10.3747C11.0276 10.2026 11.0006 9.99802 11.0519 9.80601ZM10.2749 12.704C10.3004 12.6087 10.3445 12.5195 10.4045 12.4412C10.4646 12.363 10.5395 12.2974 10.625 12.2482C10.7104 12.199 10.8047 12.1671 10.9025 12.1543C11.0003 12.1416 11.0997 12.1483 11.1949 12.174L14.0919 12.95C14.284 13.0015 14.4479 13.1271 14.5474 13.2994C14.6469 13.4716 14.6738 13.6764 14.6224 13.8685C14.5709 14.0607 14.4453 14.2245 14.273 14.324C14.1008 14.4235 13.896 14.4505 13.7039 14.399L10.8059 13.622C10.6139 13.5705 10.4503 13.4448 10.3509 13.2727C10.2516 13.1006 10.2246 12.896 10.2759 12.704" fill="#B6BCCB"/>
<path d="M16.3939 2.02101L16.657 1.05623L16.6521 1.05492L16.3939 2.02101ZM16.4599 2.03901L16.1968 3.00378L16.2009 3.00488L16.4599 2.03901ZM19.1159 2.81501L18.7755 3.75528L18.7764 3.75562L19.1159 2.81501ZM20.8599 3.79801L21.5438 3.06841L21.5434 3.06804L20.8599 3.79801ZM22.2379 6.18701L21.2639 6.41367L21.2642 6.41493L22.2379 6.18701ZM22.2179 8.18801L21.2337 8.01078L21.2332 8.01383L22.2179 8.18801ZM21.5629 10.876L20.5971 10.6168L20.597 10.617L21.5629 10.876ZM21.0269 12.875L20.061 12.616L20.0609 12.6166L21.0269 12.875ZM20.2519 15.531L21.1919 15.8721L21.1928 15.8698L20.2519 15.531ZM19.2679 17.274L19.9978 17.9576L19.9979 17.9575L19.2679 17.274ZM16.9659 18.632L16.7206 17.6626L16.2453 17.7828L16.0493 18.2322L16.9659 18.632ZM15.8599 20.199L16.5434 20.929L16.5436 20.9287L15.8599 20.199ZM14.1159 21.183L14.4563 22.1233L14.4566 22.1232L14.1159 21.183ZM11.4609 21.959L11.2016 20.9932L11.2014 20.9933L11.4609 21.959ZM11.3939 21.977L11.6521 22.9431L11.6533 22.9428L11.3939 21.977ZM8.70589 22.633L8.88182 23.6174L8.88272 23.6173L8.70589 22.633ZM6.70389 22.653L6.47646 23.6268L6.47779 23.6271L6.70389 22.653ZM4.31589 21.273L5.04606 20.5897L5.04591 20.5896L4.31589 21.273ZM3.33189 19.53L2.39118 19.8692L2.3917 19.8707L3.33189 19.53ZM2.55689 16.874L3.52276 16.615L3.52274 16.6149L2.55689 16.874ZM2.02089 14.876L1.0548 15.1342L1.05504 15.1351L2.02089 14.876ZM1.36489 12.188L2.34937 12.0125L2.34929 12.0121L1.36489 12.188ZM1.34489 10.186L0.371094 9.95858L0.370785 9.95991L1.34489 10.186ZM2.72489 7.79801L3.40816 8.52818L3.40831 8.52803L2.72489 7.79801ZM4.46789 6.81401L4.12868 5.8733L4.12722 5.87383L4.46789 6.81401ZM7.12289 6.03901L7.38214 7.00482L7.39364 7.00173L7.40506 6.99837L7.12289 6.03901ZM7.15689 6.02901L6.89955 5.06269L6.88709 5.06601L6.87472 5.06965L7.15689 6.02901ZM7.90789 5.82901L8.16523 6.79533L8.7168 6.64844L8.8708 6.09882L7.90789 5.82901ZM9.31589 2.72401L10.0455 3.40785L10.0458 3.40755L9.31589 2.72401ZM11.7039 1.34501L11.4778 0.370907L11.4767 0.371158L11.7039 1.34501ZM13.7059 1.36501L13.8816 0.380575L13.8816 0.380567L13.7059 1.36501ZM7.45489 7.50301L8.42079 7.76194L8.86937 6.08852L7.19596 6.53711L7.45489 7.50301ZM4.97689 8.22501L4.63778 7.28426L4.63762 7.28432L4.97689 8.22501ZM3.74989 8.89301L4.43325 9.62309L4.4342 9.6222L3.74989 8.89301ZM2.80589 10.527L1.83206 10.2997L1.83131 10.303L2.80589 10.527ZM2.84189 11.924L3.82646 11.749L3.82598 11.7463L2.84189 11.924ZM3.47889 14.521L2.51286 14.7795L2.513 14.78L3.47889 14.521ZM3.99689 16.453L4.96291 16.1946L4.96277 16.194L3.99689 16.453ZM4.74289 19.02L5.68358 18.6807L5.68335 18.6801L4.74289 19.02ZM5.41089 20.248L6.14097 19.5646L6.14008 19.5637L5.41089 20.248ZM7.04489 21.192L6.81758 22.1658L6.82023 22.1664L7.04489 21.192ZM8.44189 21.156L8.26689 20.1714L8.26572 20.1717L8.44189 21.156ZM11.0389 20.519L11.2973 21.485L11.2981 21.4848L11.0389 20.519ZM13.6069 19.772L13.2671 18.8315L13.2661 18.8319L13.6069 19.772ZM14.8339 19.105L15.5167 19.8356L15.5196 19.8329L14.8339 19.105ZM15.2099 18.686L16.0082 19.2883L17.0289 17.9354L15.3511 17.696L15.2099 18.686ZM14.6559 18.591L14.8525 17.6105L14.8514 17.6103L14.6559 18.591ZM12.1809 17.974L12.4401 17.0081L12.4313 17.0059L12.1809 17.974ZM12.1229 17.959L11.8636 18.9249L11.8725 18.9272L12.1229 17.959ZM9.46789 17.183L9.80831 16.2427L9.80737 16.2424L9.46789 17.183ZM7.72389 16.2L7.04029 16.9299L7.04041 16.93L7.72389 16.2ZM6.34489 13.811L5.37086 14.0375L5.37097 14.0379L6.34489 13.811ZM6.36489 11.81L7.34929 11.9859L7.34937 11.9855L6.36489 11.81ZM7.02089 9.12201L6.05499 8.86309L6.05486 8.86358L7.02089 9.12201ZM13.4419 2.84201L13.2645 3.82615L13.2669 3.82658L13.4419 2.84201ZM12.0449 2.80601L12.2722 3.77983L12.2722 3.77983L12.0449 2.80601ZM10.4109 3.75001L11.1404 4.434L11.141 4.43337L10.4109 3.75001ZM9.23989 6.64301L8.27515 6.3798L8.27431 6.38288L9.23989 6.64301ZM8.99689 7.54501L8.03131 7.28488L8.031 7.28604L8.99689 7.54501ZM8.47889 9.47701L7.513 9.21804L7.51287 9.21856L8.47889 9.47701ZM7.84189 12.074L8.82598 12.2517L8.82646 12.249L7.84189 12.074ZM7.80589 13.471L8.77971 13.2437L8.77971 13.2437L7.80589 13.471ZM8.74989 15.105L9.4342 14.3758L9.43325 14.3749L8.74989 15.105ZM9.97689 15.773L9.63577 16.713L9.63747 16.7136L9.97689 15.773ZM12.5449 16.519L12.2856 17.4848L12.2858 17.4849L12.5449 16.519ZM14.9479 17.119L15.144 16.1384L15.1416 16.1379L14.9479 17.119ZM16.3229 17.23L16.4448 18.2226L16.4556 18.2212L16.3229 17.23ZM16.5389 17.192L16.7548 18.1685L16.7662 18.1658L16.5389 17.192ZM18.1729 16.248L17.4437 15.5637L17.4428 15.5646L18.1729 16.248ZM18.8409 15.021L19.7814 15.3608L19.7815 15.3604L18.8409 15.021ZM19.5869 12.453L20.5527 12.7123L20.5528 12.712L19.5869 12.453ZM20.1049 10.521L21.0708 10.78L21.0709 10.7795L20.1049 10.521ZM20.7419 7.92401L19.7575 7.74785L19.7573 7.74901L20.7419 7.92401ZM20.7779 6.52701L19.8041 6.75432L19.8041 6.75433L20.7779 6.52701ZM19.8339 4.89301L19.1496 5.6222L19.1505 5.62309L19.8339 4.89301ZM18.6069 4.22501L18.948 3.28499L18.9458 3.2842L18.6069 4.22501ZM16.0389 3.47901L16.2981 2.5132L16.2973 2.51299L16.0389 3.47901ZM11.0519 9.80601L10.086 9.54693L10.0858 9.54778L11.0519 9.80601ZM11.9709 9.27601L11.7114 10.2418L11.7121 10.2419L11.9709 9.27601ZM16.8009 10.57L17.0888 9.61236L17.0743 9.608L17.0597 9.60407L16.8009 10.57ZM16.4119 12.018L16.1531 12.9839L16.1671 12.9877L16.1812 12.991L16.4119 12.018ZM11.5819 10.724L11.3225 11.6898L11.3231 11.6899L11.5819 10.724ZM11.1949 12.174L10.9342 13.1394L10.9361 13.14L11.1949 12.174ZM14.0919 12.95L13.8331 13.916L13.8332 13.916L14.0919 12.95ZM13.7039 14.399L13.4449 15.3649L13.4452 15.365L13.7039 14.399ZM10.8059 13.622L10.5465 14.5878L10.5469 14.5879L10.8059 13.622ZM16.3939 2.02101L16.1308 2.98577L16.1968 3.00377L16.4599 2.03901L16.723 1.07425L16.657 1.05625L16.3939 2.02101ZM16.4599 2.03901L16.2009 3.00488C17.3172 3.30426 18.1399 3.52519 18.7755 3.75528L19.1159 2.81501L19.4563 1.87474C18.7218 1.60883 17.8026 1.36376 16.7189 1.07314L16.4599 2.03901ZM19.1159 2.81501L18.7764 3.75562C19.417 3.98681 19.8461 4.2187 20.1764 4.52798L20.8599 3.79801L21.5434 3.06804C20.9317 2.49532 20.2168 2.14922 19.4554 1.8744L19.1159 2.81501ZM20.8599 3.79801L20.176 4.52762C20.7172 5.03487 21.0958 5.69123 21.2639 6.41367L22.2379 6.18701L23.2119 5.96035C22.9541 4.85261 22.3736 3.8462 21.5438 3.06841L20.8599 3.79801ZM22.2379 6.18701L21.2642 6.41493C21.3672 6.8551 21.3541 7.3425 21.2337 8.01078L22.2179 8.18801L23.2021 8.36524C23.3457 7.56752 23.4025 6.77492 23.2116 5.95909L22.2379 6.18701ZM22.2179 8.18801L21.2332 8.01383C21.1155 8.67931 20.8961 9.50262 20.5971 10.6168L21.5629 10.876L22.5287 11.1353C22.8196 10.0514 23.0663 9.13271 23.2026 8.36219L22.2179 8.18801ZM21.5629 10.876L20.597 10.617L20.061 12.616L21.0269 12.875L21.9928 13.134L22.5288 11.135L21.5629 10.876ZM21.0269 12.875L20.0609 12.6166C19.763 13.73 19.5406 14.5547 19.311 15.1922L20.2519 15.531L21.1928 15.8698C21.4572 15.1354 21.7028 14.2181 21.9929 13.1334L21.0269 12.875ZM20.2519 15.531L19.3119 15.1899C19.0794 15.8306 18.8474 16.26 18.5379 16.5905L19.2679 17.274L19.9979 17.9575C20.5704 17.346 20.9164 16.6314 21.1919 15.8721L20.2519 15.531ZM19.2679 17.274L18.538 16.5904C18.0473 17.1144 17.4165 17.4865 16.7206 17.6626L16.9659 18.632L17.2111 19.6015C18.2782 19.3315 19.2454 18.761 19.9978 17.9576L19.2679 17.274ZM16.9659 18.632L16.0493 18.2322C15.8454 18.6996 15.5483 19.1206 15.1761 19.4693L15.8599 20.199L16.5436 20.9287C17.1143 20.394 17.5698 19.7486 17.8825 19.0318L16.9659 18.632ZM15.8599 20.199L15.1764 19.469C14.846 19.7784 14.4167 20.0104 13.7752 20.2428L14.1159 21.183L14.4566 22.1232C15.2171 21.8476 15.9318 21.5016 16.5434 20.929L15.8599 20.199ZM14.1159 21.183L13.7755 20.2427C13.1399 20.4729 12.3172 20.6938 11.2016 20.9932L11.4609 21.959L11.7201 22.9248C12.8026 22.6343 13.7219 22.3892 14.4563 22.1233L14.1159 21.183ZM11.4609 21.959L11.2014 20.9933L11.1344 21.0113L11.3939 21.977L11.6533 22.9428L11.7203 22.9248L11.4609 21.959ZM11.3939 21.977L11.1357 21.0109C10.0199 21.3091 9.1965 21.5289 8.52905 21.6488L8.70589 22.633L8.88272 23.6173C9.65128 23.4792 10.5679 23.2329 11.6521 22.9431L11.3939 21.977ZM8.70589 22.633L8.52996 21.6486C7.86106 21.7682 7.37249 21.7816 6.92999 21.6789L6.70389 22.653L6.47779 23.6271C7.29329 23.8164 8.08471 23.7599 8.88182 23.6174L8.70589 22.633ZM6.70389 22.653L6.93132 21.6792C6.20898 21.5105 5.55289 21.1314 5.04606 20.5897L4.31589 21.273L3.58572 21.9563C4.36287 22.7868 5.36886 23.3681 6.47646 23.6268L6.70389 22.653ZM4.31589 21.273L5.04591 20.5896C4.7371 20.2597 4.50419 19.83 4.27207 19.1893L3.33189 19.53L2.3917 19.8707C2.66758 20.6321 3.01467 21.3463 3.58587 21.9564L4.31589 21.273ZM3.33189 19.53L4.2726 19.1908C4.04318 18.5546 3.82208 17.7311 3.52276 16.615L2.55689 16.874L1.59102 17.133C1.8817 18.2169 2.1266 19.1355 2.39118 19.8692L3.33189 19.53ZM2.55689 16.874L3.52274 16.6149L2.98674 14.6169L2.02089 14.876L1.05504 15.1351L1.59104 17.1331L2.55689 16.874ZM2.02089 14.876L2.98698 14.6178C2.68839 13.5006 2.46816 12.6788 2.34937 12.0125L1.36489 12.188L0.38041 12.3635C0.517619 13.1332 0.765386 14.0514 1.0548 15.1342L2.02089 14.876ZM1.36489 12.188L2.34929 12.0121C2.22975 11.3432 2.21628 10.8546 2.31899 10.4121L1.34489 10.186L0.370785 9.95991C0.181495 10.7754 0.238029 11.5668 0.380486 12.3639L1.36489 12.188ZM1.34489 10.186L2.31868 10.4134C2.48739 9.6911 2.86653 9.03501 3.40816 8.52818L2.72489 7.79801L2.04162 7.06784C1.21113 7.84499 0.629774 8.85099 0.371094 9.95858L1.34489 10.186ZM2.72489 7.79801L3.40831 8.52803C3.73817 8.21923 4.16794 7.98632 4.80855 7.7542L4.46789 6.81401L4.12722 5.87383C3.36584 6.14971 2.6516 6.49679 2.04146 7.06799L2.72489 7.79801ZM4.46789 6.81401L4.80709 7.75472C5.44343 7.52527 6.26684 7.3042 7.38214 7.00482L7.12289 6.03901L6.86364 5.0732C5.78094 5.36383 4.86235 5.60875 4.12868 5.8733L4.46789 6.81401ZM7.12289 6.03901L7.40506 6.99837L7.43906 6.98837L7.15689 6.02901L6.87472 5.06965L6.84072 5.07965L7.12289 6.03901ZM7.15689 6.02901L7.41423 6.99533L8.16523 6.79533L7.90789 5.82901L7.65055 4.86269L6.89955 5.06269L7.15689 6.02901ZM7.90789 5.82901L8.8708 6.09882C9.26858 4.67921 9.56263 3.92308 10.0455 3.40785L9.31589 2.72401L8.58626 2.04017C7.72515 2.95894 7.3312 4.18081 6.94497 5.5592L7.90789 5.82901ZM9.31589 2.72401L10.0458 3.40755C10.5527 2.86621 11.2088 2.48735 11.9311 2.31886L11.7039 1.34501L11.4767 0.371158C10.3693 0.629502 9.36328 1.21042 8.58597 2.04047L9.31589 2.72401ZM11.7039 1.34501L11.93 2.31911C12.3724 2.21642 12.86 2.22985 13.5302 2.34945L13.7059 1.36501L13.8816 0.380567C13.0838 0.238176 12.2933 0.181606 11.4778 0.370907L11.7039 1.34501ZM13.7059 1.36501L13.5301 2.34945C14.1957 2.46826 15.0188 2.68859 16.1357 2.9871L16.3939 2.02101L16.6521 1.05492C15.569 0.765433 14.6501 0.51776 13.8816 0.380575L13.7059 1.36501ZM7.45489 7.50301L7.19596 6.53711C6.11768 6.82617 5.28819 7.04981 4.63778 7.28426L4.97689 8.22501L5.316 9.16576C5.86958 8.96621 6.6061 8.76585 7.71382 8.46891L7.45489 7.50301ZM4.97689 8.22501L4.63762 7.28432C3.96589 7.52658 3.46606 7.78798 3.06557 8.16382L3.74989 8.89301L4.4342 9.6222C4.55372 9.51004 4.76788 9.36344 5.31615 9.1657L4.97689 8.22501ZM3.74989 8.89301L3.06653 8.16293C2.45276 8.73742 2.02316 9.48103 1.83207 10.2997L2.80589 10.527L3.77971 10.7543C3.88088 10.3209 4.10832 9.92723 4.43325 9.62309L3.74989 8.89301ZM2.80589 10.527L1.83131 10.303C1.70899 10.8351 1.73057 11.3969 1.8578 12.1017L2.84189 11.924L3.82598 11.7463C3.72321 11.1771 3.74279 10.915 3.78047 10.7511L2.80589 10.527ZM2.84189 11.924L1.85732 12.099C1.98162 12.7983 2.21271 13.6576 2.51287 14.7795L3.47889 14.521L4.44491 14.2626C4.13507 13.1044 3.93216 12.3437 3.82646 11.749L2.84189 11.924ZM3.47889 14.521L2.513 14.78L3.031 16.712L3.99689 16.453L4.96277 16.194L4.44477 14.262L3.47889 14.521ZM3.99689 16.453L3.03086 16.7115C3.3315 17.8351 3.56154 18.6934 3.80243 19.3599L4.74289 19.02L5.68335 18.6801C5.47824 18.1126 5.27228 17.3509 4.96291 16.1946L3.99689 16.453ZM4.74289 19.02L3.8022 19.3593C4.04416 20.0302 4.30548 20.5314 4.6817 20.9323L5.41089 20.248L6.14008 19.5637C6.0283 19.4446 5.88162 19.2299 5.68358 18.6807L4.74289 19.02ZM5.41089 20.248L4.68081 20.9314C5.25529 21.5451 5.9989 21.9747 6.81758 22.1658L7.04489 21.192L7.2722 20.2182C6.83879 20.117 6.44511 19.8896 6.14097 19.5646L5.41089 20.248ZM7.04489 21.192L6.82023 22.1664C7.35266 22.2892 7.91625 22.266 8.61805 22.1404L8.44189 21.156L8.26572 20.1717C7.69353 20.2741 7.43112 20.2548 7.26954 20.2176L7.04489 21.192ZM8.44189 21.156L8.61689 22.1406C9.31621 22.0163 10.1755 21.7852 11.2973 21.485L11.0389 20.519L10.7804 19.553C9.62232 19.8628 8.86157 20.0657 8.26689 20.1714L8.44189 21.156ZM11.0389 20.519L11.2981 21.4848C12.4199 21.1837 13.2797 20.9543 13.9477 20.7122L13.6069 19.772L13.2661 18.8319C12.6981 19.0377 11.9379 19.2423 10.7796 19.5532L11.0389 20.519ZM13.6069 19.772L13.9466 20.7125C14.6165 20.4705 15.1166 20.2095 15.5167 19.8356L14.8339 19.105L14.1511 18.3744C14.0311 18.4865 13.8152 18.6335 13.2671 18.8315L13.6069 19.772ZM14.8339 19.105L15.5196 19.8329C15.698 19.6648 15.8611 19.4832 16.0082 19.2883L15.2099 18.686L14.4116 18.0837C14.3333 18.1875 14.2457 18.2852 14.1482 18.3771L14.8339 19.105ZM15.2099 18.686L15.3511 17.696C15.1842 17.6722 15.0179 17.6437 14.8525 17.6105L14.6559 18.591L14.4592 19.5715C14.6614 19.612 14.8646 19.6469 15.0686 19.676L15.2099 18.686ZM14.6559 18.591L14.8514 17.6103C14.2184 17.4841 13.4456 17.278 12.4401 17.0082L12.1809 17.974L11.9217 18.9398C12.9062 19.204 13.7493 19.4299 14.4603 19.5717L14.6559 18.591ZM12.1809 17.974L12.4313 17.0059L12.3733 16.9909L12.1229 17.959L11.8725 18.9272L11.9305 18.9422L12.1809 17.974ZM12.1229 17.959L12.3821 16.9932C11.2666 16.6938 10.4439 16.4729 9.80831 16.2427L9.46789 17.183L9.12747 18.1233C9.86186 18.3892 10.7812 18.6343 11.8636 18.9248L12.1229 17.959ZM9.46789 17.183L9.80737 16.2424C9.16682 16.0112 8.73769 15.7793 8.40737 15.47L7.72389 16.2L7.04041 16.93C7.65209 17.5027 8.36696 17.8488 9.12841 18.1236L9.46789 17.183ZM7.72389 16.2L8.40749 15.4702C7.86602 14.963 7.48714 14.3066 7.3188 13.5841L6.34489 13.811L5.37097 14.0379C5.62909 15.1458 6.21003 16.1522 7.04029 16.9299L7.72389 16.2ZM6.34489 13.811L7.31891 13.5846C7.21634 13.1434 7.22972 12.655 7.34929 11.9859L6.36489 11.81L5.38049 11.6341C5.23806 12.431 5.18144 13.2227 5.37086 14.0375L6.34489 13.811ZM6.36489 11.81L7.34937 11.9855C7.46816 11.3192 7.68846 10.4961 7.98692 9.38044L7.02089 9.12201L6.05486 8.86358C5.76532 9.9459 5.51762 10.8648 5.38041 11.6345L6.36489 11.81ZM7.02089 9.12201L7.98679 9.38094L8.42079 7.76194L7.45489 7.50301L6.48899 7.24409L6.05499 8.86309L7.02089 9.12201ZM13.4419 2.84201L13.6193 1.85787C12.9164 1.73117 12.3521 1.70743 11.8176 1.83219L12.0449 2.80601L12.2722 3.77983C12.4317 3.7426 12.6914 3.72285 13.2645 3.82615L13.4419 2.84201ZM12.0449 2.80601L11.8176 1.83219C10.9989 2.02329 10.2553 2.45289 9.68081 3.06665L10.4109 3.75001L11.141 4.43337C11.4451 4.10844 11.8388 3.881 12.2722 3.77983L12.0449 2.80601ZM10.4109 3.75001L9.6814 3.06602C9.04372 3.74611 8.72463 4.73235 8.27515 6.3798L9.23989 6.64301L10.2046 6.90622C10.6871 5.13768 10.9061 4.68391 11.1404 4.434L10.4109 3.75001ZM9.23989 6.64301L8.27431 6.38288L8.03131 7.28488L8.99689 7.54501L9.96246 7.80514L10.2055 6.90314L9.23989 6.64301ZM8.99689 7.54501L8.031 7.28604L7.513 9.21804L8.47889 9.47701L9.44477 9.73598L9.96277 7.80398L8.99689 7.54501ZM8.47889 9.47701L7.51287 9.21856C7.21271 10.3404 6.98162 11.1997 6.85732 11.899L7.84189 12.074L8.82646 12.249C8.93216 11.6543 9.13507 10.8936 9.44491 9.73546L8.47889 9.47701ZM7.84189 12.074L6.8578 11.8963C6.73102 12.5986 6.70732 13.1639 6.83207 13.6983L7.80589 13.471L8.77971 13.2437C8.74246 13.0841 8.72276 12.8234 8.82598 12.2517L7.84189 12.074ZM7.80589 13.471L6.83207 13.6983C7.02316 14.517 7.45276 15.2606 8.06653 15.8351L8.74989 15.105L9.43325 14.3749C9.10831 14.0708 8.88088 13.6771 8.77971 13.2437L7.80589 13.471ZM8.74989 15.105L8.06557 15.8342C8.46686 16.2108 8.96846 16.4709 9.63577 16.713L9.97689 15.773L10.318 14.833C9.76732 14.6332 9.55291 14.4872 9.4342 14.3758L8.74989 15.105ZM9.97689 15.773L9.63747 16.7136C10.3046 16.9544 11.1636 17.1836 12.2856 17.4848L12.5449 16.519L12.8041 15.5532C11.6462 15.2424 10.8851 15.0376 10.3163 14.8324L9.97689 15.773ZM12.5449 16.519L12.2858 17.4849C13.2987 17.7566 14.0958 17.9701 14.7542 18.1001L14.9479 17.119L15.1416 16.1379C14.564 16.0239 13.841 15.8314 12.804 15.5532L12.5449 16.519ZM14.9479 17.119L14.7518 18.0996C15.4105 18.2313 15.949 18.2834 16.4448 18.2226L16.3229 17.23L16.201 16.2375C16.0128 16.2606 15.7153 16.2527 15.144 16.1384L14.9479 17.119ZM16.3229 17.23L16.4556 18.2212C16.5565 18.2076 16.6564 18.1902 16.7548 18.1684L16.5389 17.192L16.323 16.2156C16.2827 16.2245 16.2386 16.2324 16.1901 16.2389L16.3229 17.23ZM16.5389 17.192L16.7662 18.1658C17.5849 17.9747 18.3285 17.5451 18.903 16.9314L18.1729 16.248L17.4428 15.5646C17.1387 15.8896 16.745 16.117 16.3116 16.2182L16.5389 17.192ZM18.1729 16.248L18.9021 16.9323C19.2782 16.5316 19.5395 16.0305 19.7814 15.3608L18.8409 15.021L17.9004 14.6813C17.7023 15.2295 17.5556 15.4444 17.4437 15.5637L18.1729 16.248ZM18.8409 15.021L19.7815 15.3604C20.0223 14.6933 20.2515 13.8343 20.5527 12.7123L19.5869 12.453L18.6211 12.1938C18.3103 13.3517 18.1055 14.1128 17.9003 14.6816L18.8409 15.021ZM19.5869 12.453L20.5528 12.712L21.0708 10.78L20.1049 10.521L19.139 10.262L18.621 12.194L19.5869 12.453ZM20.1049 10.521L21.0709 10.7795C21.3711 9.65758 21.6022 8.79833 21.7265 8.09901L20.7419 7.92401L19.7573 7.74901C19.6516 8.34369 19.4487 9.10444 19.1389 10.2626L20.1049 10.521ZM20.7419 7.92401L21.7262 8.10018C21.8515 7.40059 21.8766 6.83493 21.7517 6.29969L20.7779 6.52701L19.8041 6.75433C19.8411 6.9131 19.8603 7.17343 19.7575 7.74785L20.7419 7.92401ZM20.7779 6.52701L21.7517 6.2997C21.5606 5.48103 21.131 4.73742 20.5173 4.16293L19.8339 4.89301L19.1505 5.62309C19.4755 5.92723 19.7029 6.32091 19.8041 6.75432L20.7779 6.52701ZM19.8339 4.89301L20.5182 4.16382C20.1169 3.78723 19.6153 3.52715 18.948 3.28499L18.6069 4.22501L18.2658 5.16503C18.8165 5.36487 19.0309 5.51079 19.1496 5.6222L19.8339 4.89301ZM18.6069 4.22501L18.9458 3.2842C18.278 3.04362 17.4206 2.8145 16.2981 2.5132L16.0389 3.47901L15.7796 4.44482C16.9371 4.75552 17.6978 4.9604 18.268 5.16582L18.6069 4.22501ZM16.0389 3.47901L16.2973 2.51299C15.1755 2.21283 14.3162 1.98174 13.6169 1.85744L13.4419 2.84201L13.2669 3.82658C13.8616 3.93228 14.6223 4.13519 15.7804 4.44503L16.0389 3.47901ZM11.0519 9.80601L12.0177 10.0651C12.0092 10.0968 11.9946 10.1265 11.9746 10.1526L11.1814 9.54353L10.3883 8.93447C10.2483 9.11679 10.1456 9.3249 10.086 9.54693L11.0519 9.80601ZM11.1814 9.54353L11.9746 10.1526C11.9546 10.1786 11.9296 10.2005 11.9012 10.2169L11.4016 9.35062L10.902 8.48436C10.7029 8.5992 10.5283 8.75215 10.3883 8.93447L11.1814 9.54353ZM11.4016 9.35062L11.9012 10.2169C11.8727 10.2333 11.8413 10.2439 11.8088 10.2482L11.6788 9.25668L11.5489 8.26516C11.3209 8.29503 11.1011 8.36952 10.902 8.48436L11.4016 9.35062ZM11.6788 9.25668L11.8088 10.2482C11.7762 10.2525 11.7431 10.2503 11.7114 10.2418L11.9709 9.27601L12.2304 8.31026C12.0084 8.25061 11.7768 8.23529 11.5489 8.26516L11.6788 9.25668ZM11.9709 9.27601L11.7121 10.2419L16.5421 11.5359L16.8009 10.57L17.0597 9.60407L12.2297 8.31007L11.9709 9.27601ZM16.8009 10.57L16.5129 11.5277C16.4507 11.5089 16.3982 11.4667 16.3665 11.4099L17.2402 10.9233L18.1138 10.4368C17.8924 10.0391 17.5247 9.74342 17.0888 9.61236L16.8009 10.57ZM17.2402 10.9233L16.3665 11.4099C16.3349 11.3531 16.3266 11.2862 16.3435 11.2234L17.3092 11.4828L18.275 11.7423C18.3931 11.3027 18.3353 10.8344 18.1138 10.4368L17.2402 10.9233ZM17.3092 11.4828L16.3435 11.2234C16.3604 11.1606 16.401 11.1068 16.4569 11.0735L16.9691 11.9324L17.4813 12.7912C17.8722 12.5581 18.1569 12.1818 18.275 11.7423L17.3092 11.4828ZM16.9691 11.9324L16.4569 11.0735C16.5127 11.0402 16.5793 11.03 16.6426 11.045L16.4119 12.018L16.1812 12.991C16.624 13.096 17.0904 13.0244 17.4813 12.7912L16.9691 11.9324ZM16.4119 12.018L16.6707 11.0521L11.8407 9.75807L11.5819 10.724L11.3231 11.6899L16.1531 12.9839L16.4119 12.018ZM11.5819 10.724L11.8413 9.75824C11.9053 9.77543 11.9598 9.81731 11.993 9.87469L11.1269 10.3747L10.2609 10.8747C10.4928 11.2763 10.8746 11.5695 11.3225 11.6898L11.5819 10.724ZM11.1269 10.3747L11.993 9.87469C12.0261 9.93206 12.0351 10.0002 12.018 10.0642L11.0519 9.80601L10.0858 9.54778C9.96605 9.99581 10.029 10.4731 10.2609 10.8747L11.1269 10.3747ZM10.2749 12.704L11.2408 12.9628C11.2323 12.9945 11.2176 13.0243 11.1976 13.0503L10.4045 12.4412L9.61144 11.8321C9.47128 12.0146 9.36848 12.223 9.30894 12.4453L10.2749 12.704ZM10.4045 12.4412L11.1976 13.0503C11.1776 13.0764 11.1526 13.0983 11.1241 13.1147L10.625 12.2482L10.1258 11.3817C9.92639 11.4966 9.75161 11.6496 9.61144 11.8321L10.4045 12.4412ZM10.625 12.2482L11.1241 13.1147C11.0957 13.1311 11.0642 13.1417 11.0316 13.146L10.9025 12.1543L10.7735 11.1627C10.5453 11.1924 10.3252 11.2668 10.1258 11.3817L10.625 12.2482ZM10.9025 12.1543L11.0316 13.146C10.999 13.1502 10.9659 13.148 10.9342 13.1394L11.1949 12.174L11.4556 11.2086C11.2335 11.1486 11.0016 11.133 10.7735 11.1627L10.9025 12.1543ZM11.1949 12.174L10.9361 13.14L13.8331 13.916L14.0919 12.95L14.3506 11.9841L11.4536 11.2081L11.1949 12.174ZM14.0919 12.95L13.8332 13.916C13.7692 13.8988 13.7146 13.8569 13.6814 13.7995L14.5474 13.2994L15.4133 12.7992C15.1812 12.3973 14.7989 12.1041 14.3505 11.984L14.0919 12.95ZM14.5474 13.2994L13.6814 13.7995C13.6483 13.7421 13.6393 13.6739 13.6564 13.6099L14.6224 13.8685L15.5884 14.1272C15.7084 13.6788 15.6454 13.2012 15.4133 12.7992L14.5474 13.2994ZM14.6224 13.8685L13.6564 13.6099C13.6736 13.5458 13.7155 13.4912 13.7729 13.458L14.273 14.324L14.7732 15.1899C15.1751 14.9578 15.4683 14.5755 15.5884 14.1272L14.6224 13.8685ZM14.273 14.324L13.7729 13.458C13.8303 13.4249 13.8985 13.4159 13.9625 13.433L13.7039 14.399L13.4452 15.365C13.8936 15.485 14.3712 15.4221 14.7732 15.1899L14.273 14.324ZM13.7039 14.399L13.9629 13.4331L11.0649 12.6561L10.8059 13.622L10.5469 14.5879L13.4449 15.3649L13.7039 14.399ZM10.8059 13.622L11.0653 12.6562C11.1293 12.6734 11.1838 12.7153 11.217 12.7727L10.3509 13.2727L9.4849 13.7727C9.71678 14.1743 10.0986 14.4675 10.5465 14.5878L10.8059 13.622ZM10.3509 13.2727L11.217 12.7727C11.2501 12.8301 11.2591 12.8982 11.242 12.9622L10.2759 12.704L9.30981 12.4458C9.19005 12.8938 9.25303 13.3711 9.4849 13.7727L10.3509 13.2727Z" fill="#B6BCCB" mask="url(#path-1-inside-1_1_86115)"/>
</svg>
