<svg width="19" height="19" viewBox="0 0 19 19" fill="none" xmlns="http://www.w3.org/2000/svg">
    <path
        d="M18.3985 8.02148C17.2448 6.30671 15.5926 4.98733 13.6651 4.24154C11.7376 3.49574 9.62761 3.35946 7.62018 3.85111L9.96082 6.19531C9.97443 6.19457 9.9859 6.18743 9.9997 6.18743C11.0105 6.18853 11.9797 6.59053 12.6945 7.30526C13.4093 8.02 13.8115 8.98908 13.8127 9.99993C13.8127 10.0156 13.8047 10.0287 13.8038 10.0441L17.1825 13.4278C17.6318 12.9835 18.0389 12.4984 18.3985 11.9788C18.7906 11.3934 18.9999 10.7047 18.9999 10.0001C18.9999 9.29556 18.7906 8.60687 18.3985 8.02148Z"
        fill="#9AA6DB" />
    <path
        d="M18.4494 17.3666L2.19745 1.09075C2.05694 0.94998 1.86627 0.870791 1.66738 0.870606C1.46848 0.87042 1.27766 0.949252 1.13689 1.08976C0.996122 1.23027 0.916934 1.42094 0.916748 1.61983C0.916563 1.81873 0.995395 2.00955 1.1359 2.15032L4.31269 5.33178C3.24608 6.04776 2.32584 6.96065 1.60132 8.02148C1.20924 8.60687 0.999912 9.29555 0.999912 10.0001C0.999912 10.7047 1.20924 11.3934 1.60132 11.9787C2.5294 13.3527 3.78048 14.4778 5.2448 15.2554C6.70912 16.0331 8.34191 16.4394 9.9999 16.4389C11.5221 16.4396 13.0244 16.0934 14.3928 15.4267L17.3879 18.4262C17.4574 18.4961 17.5401 18.5516 17.6311 18.5895C17.7221 18.6275 17.8197 18.6471 17.9182 18.6473C18.0168 18.6474 18.1145 18.6282 18.2056 18.5906C18.2968 18.553 18.3796 18.4977 18.4494 18.4281C18.5191 18.3584 18.5745 18.2757 18.6123 18.1847C18.65 18.0936 18.6695 17.996 18.6695 17.8974C18.6695 17.7988 18.6501 17.7012 18.6123 17.6101C18.5745 17.519 18.5192 17.4363 18.4494 17.3666ZM9.9997 13.8129C9.30748 13.8129 8.62834 13.6244 8.03511 13.2677C7.44189 12.9109 6.95697 12.3994 6.63238 11.788C6.30778 11.1767 6.15576 10.4884 6.19261 9.79719C6.22946 9.10595 6.4538 8.43779 6.84156 7.86437L7.9409 8.96526C7.71882 9.39781 7.63966 9.88966 7.7148 10.37C7.78995 10.8504 8.01553 11.2946 8.35909 11.6387C8.70266 11.9828 9.14651 12.209 9.62679 12.2848C10.1071 12.3607 10.599 12.2822 11.0319 12.0608L12.1315 13.162C11.5023 13.5879 10.7595 13.8147 9.9997 13.8129Z"
        fill="#9AA6DB" />
</svg>
