<svg width="24" height="24" viewBox="0 0 24 24" fill="none" xmlns="http://www.w3.org/2000/svg">
    <path fill-rule="evenodd" clip-rule="evenodd"
        d="M3.6 10.1001C5.4 7.40007 8.5 5.60007 12 5.60007C15.5 5.60007 18.6 7.40007 20.4 10.1001C21.2 11.3001 21.2 12.9001 20.4 14.1001C18.6 16.8001 15.5 18.6001 12 18.6001C8.5 18.6001 5.4 16.8001 3.6 14.1001C2.8 12.9001 2.8 11.3001 3.6 10.1001ZM9.6499 12.0001C9.6499 10.7022 10.702 9.65005 11.9999 9.65005C13.2978 9.65005 14.3499 10.7022 14.3499 12.0001C14.3499 13.2979 13.2978 14.3501 11.9999 14.3501C10.702 14.3501 9.6499 13.2979 9.6499 12.0001ZM11.9999 8.15005C9.87361 8.15005 8.1499 9.87376 8.1499 12.0001C8.1499 14.1264 9.87361 15.8501 11.9999 15.8501C14.1262 15.8501 15.8499 14.1264 15.8499 12.0001C15.8499 9.87376 14.1262 8.15005 11.9999 8.15005Z"
        fill="#C0C0C0" />
</svg>
