<svg width="16" height="16" viewBox="0 0 16 16" fill="none" xmlns="http://www.w3.org/2000/svg">
<path d="M6.68491 3.08223C7.28542 2.0837 8.68662 2.0837 9.28713 3.08223L11.9561 7.34263L14.4248 11.3368C15.0921 12.3353 14.2914 13.6667 13.0904 13.6667H7.95266H2.88167C1.68065 13.6667 0.946691 12.3353 1.5472 11.3368L4.01597 7.34263L6.68491 3.08223Z" stroke="#C0C0C0" stroke-miterlimit="10" stroke-linecap="round" stroke-linejoin="round"/>
<path d="M7.95264 5.67841V8.674" stroke="#C0C0C0" stroke-miterlimit="10" stroke-linecap="round" stroke-linejoin="round"/>
<path d="M7.95264 11.7112C8.32114 11.7112 8.61987 11.4132 8.61987 11.0455C8.61987 10.6779 8.32114 10.3799 7.95264 10.3799C7.58413 10.3799 7.2854 10.6779 7.2854 11.0455C7.2854 11.4132 7.58413 11.7112 7.95264 11.7112Z" fill="#C0C0C0"/>
</svg>
