<svg width="24" height="24" viewBox="0 0 24 24" fill="none" xmlns="http://www.w3.org/2000/svg">
    <path
        d="M10.0288 4.6123C10.9288 3.1123 13.0288 3.1123 13.9288 4.6123L17.9288 11.0123L21.6288 17.0123C22.6288 18.5123 21.4288 20.5123 19.6288 20.5123H11.9288H4.32877C2.52877 20.5123 1.42877 18.5123 2.32877 17.0123L6.02877 11.0123L10.0288 4.6123Z"
        stroke="#C0C0C0" stroke-width="1.5" stroke-miterlimit="10" stroke-linecap="round" stroke-linejoin="round" />
    <path d="M11.9287 8.5127V13.0127" stroke="#C0C0C0" stroke-width="1.5" stroke-miterlimit="10" stroke-linecap="round" stroke-linejoin="round" />
    <path
        d="M12.4287 16.5752C12.4287 16.8513 12.2049 17.0752 11.9287 17.0752C11.6526 17.0752 11.4287 16.8513 11.4287 16.5752C11.4287 16.2991 11.6526 16.0752 11.9287 16.0752C12.2049 16.0752 12.4287 16.2991 12.4287 16.5752Z"
        fill="#C0C0C0" stroke="#C0C0C0" />
</svg>
