<svg width="24" height="24" viewBox="0 0 24 24" fill="none" xmlns="http://www.w3.org/2000/svg">
<path d="M10.0288 4.6116C10.9288 3.1116 13.0288 3.1116 13.9288 4.6116L17.9288 11.0116L21.6288 17.0116C22.6288 18.5116 21.4288 20.5116 19.6288 20.5116H11.9288H4.32877C2.52877 20.5116 1.42877 18.5116 2.32877 17.0116L6.02877 11.0116L10.0288 4.6116Z" stroke="#FF8A8A" stroke-width="1.5" stroke-miterlimit="10" stroke-linecap="round" stroke-linejoin="round"/>
<path d="M11.9288 8.5116V13.0116" stroke="#FF8A8A" stroke-width="1.5" stroke-miterlimit="10" stroke-linecap="round" stroke-linejoin="round"/>
<path d="M11.9287 17.5741C12.481 17.5741 12.9287 17.1264 12.9287 16.5741C12.9287 16.0218 12.481 15.5741 11.9287 15.5741C11.3764 15.5741 10.9287 16.0218 10.9287 16.5741C10.9287 17.1264 11.3764 17.5741 11.9287 17.5741Z" fill="#FF8A8A"/>
</svg>
