<svg width="16" height="16" viewBox="0 0 16 16" fill="none" xmlns="http://www.w3.org/2000/svg">
<path d="M10.9282 2.85722C10.9282 2.38362 10.7403 1.92908 10.4054 1.5942C10.0705 1.25935 9.61597 1.07141 9.1424 1.07141C8.66896 1.07147 8.21484 1.25947 7.88003 1.5942C7.54514 1.92908 7.35659 2.38362 7.35659 2.85722C7.35662 3.33075 7.54521 3.78473 7.88003 4.11959C8.21486 4.45442 8.66888 4.64296 9.1424 4.64303C9.616 4.64303 10.0705 4.45447 10.4054 4.11959C10.7402 3.78474 10.9282 3.33071 10.9282 2.85722ZM6.28498 6.92883C6.56112 6.92855 6.78535 7.15204 6.78563 7.42818C6.78583 7.70417 6.56224 7.9284 6.28628 7.92883C5.65449 7.92947 5.03413 8.10115 4.49201 8.42558C3.95004 8.74999 3.50595 9.21493 3.20685 9.77128C2.90774 10.3277 2.76442 10.9547 2.79279 11.5857C2.82121 12.2168 3.0204 12.8286 3.36831 13.3559C3.71625 13.8832 4.2003 14.3068 4.76935 14.5812C5.33844 14.8556 5.97144 14.9707 6.60073 14.9145C7.22994 14.8583 7.8321 14.6329 8.34357 14.2622C8.8551 13.8914 9.25657 13.389 9.50568 12.8084C9.61455 12.5547 9.90884 12.4372 10.1626 12.546C10.4164 12.6549 10.5338 12.9492 10.425 13.2029C10.1047 13.9494 9.58844 14.5953 8.93081 15.0721C8.27313 15.5488 7.49836 15.8384 6.68927 15.9106C5.88027 15.9828 5.06673 15.835 4.33511 15.4822C3.60342 15.1294 2.98105 14.5847 2.53367 13.9067C2.08633 13.2287 1.83063 12.4421 1.79409 11.6307C1.75762 10.8193 1.94146 10.0133 2.32599 9.29797C2.71062 8.58251 3.28197 7.98463 3.97899 7.5675C4.67599 7.1504 5.4727 6.92966 6.28498 6.92883ZM11.9282 2.85722C11.9282 3.59593 11.6347 4.30423 11.1125 4.82662C10.7094 5.22965 10.1954 5.49592 9.6424 5.5968L9.6424 9.21399L12.5714 9.21399C13.0071 9.21405 13.4249 9.38772 13.7329 9.69576C14.0409 10.0038 14.214 10.4216 14.214 10.8572L14.214 15.4288C14.2139 15.7048 13.9901 15.9288 13.714 15.9288C13.438 15.9288 13.2142 15.7048 13.214 15.4288L13.214 10.8572C13.214 10.6868 13.1463 10.5233 13.0259 10.4028C12.9054 10.2823 12.7418 10.2141 12.5714 10.214L9.1424 10.214C8.86636 10.2139 8.6424 9.99006 8.6424 9.71399L8.6424 5.5968C8.08954 5.49585 7.57592 5.22955 7.173 4.82662C6.65064 4.30423 6.35662 3.59597 6.35659 2.85722C6.35659 2.1184 6.65057 1.40959 7.173 0.887166C7.69535 0.3649 8.40374 0.0714721 9.1424 0.0714111C9.88118 0.0714111 10.59 0.364786 11.1125 0.887166C11.6349 1.40959 11.9282 2.1184 11.9282 2.85722Z" fill="white"/>
</svg>
