<svg width="64" height="64" viewBox="0 0 64 64" fill="none" xmlns="http://www.w3.org/2000/svg">
<path d="M25.3994 24.953C20.4808 26.2435 16.0476 28.9455 12.6465 32.7257" stroke="#5069C3" stroke-width="3" stroke-linecap="round" stroke-linejoin="round"/>
<path d="M51.3532 32.7257C48.9818 30.0865 46.0949 27.9609 42.8706 26.4802C39.6462 24.9994 36.1527 24.1948 32.6055 24.116" stroke="#5069C3" stroke-width="3" stroke-linecap="round" stroke-linejoin="round"/>
<path d="M38.0871 37.5717C35.487 36.2262 32.5143 35.7806 29.634 36.3046C26.7537 36.8287 24.1284 38.2928 22.1689 40.4679" stroke="#5069C3" stroke-width="3" stroke-linecap="round" stroke-linejoin="round"/>
<path d="M15.6944 15.1943C11.2636 17.3277 7.29132 20.3047 4 23.9585" stroke="#5069C3" stroke-width="3" stroke-linecap="round" stroke-linejoin="round"/>
<path d="M60.0001 23.9586C55.2425 18.6819 49.0919 14.8555 42.2559 12.9198C35.4199 10.984 28.1762 11.0175 21.3584 13.0164" stroke="#5069C3" stroke-width="3" stroke-linecap="round" stroke-linejoin="round"/>
<path d="M10.2002 9.69995L53.8002 53.2999" stroke="#5069C3" stroke-width="3" stroke-linecap="round" stroke-linejoin="round"/>
<path d="M32.0001 52.4441C33.5346 52.4441 34.7786 51.2002 34.7786 49.6657C34.7786 48.1312 33.5346 46.8872 32.0001 46.8872C30.4656 46.8872 29.2217 48.1312 29.2217 49.6657C29.2217 51.2002 30.4656 52.4441 32.0001 52.4441Z" fill="#FF4C00"/>
</svg>
