<svg width="20" height="20" viewBox="0 0 20 20" fill="none" xmlns="http://www.w3.org/2000/svg">
<g id="Zoom_Default">
<g id="Vector">
<mask id="path-1-inside-1_2167_477" fill="white">
<path d="M7.06998 3.29756C6.95664 3.41339 6.89273 3.56872 6.89172 3.73077C6.8907 3.89283 6.95268 4.04894 7.06456 4.16617C7.17645 4.28341 7.3295 4.3526 7.49142 4.35916C7.65334 4.36571 7.81148 4.30912 7.93248 4.20131L9.57498 2.63381C9.69144 2.52281 9.84622 2.46099 10.0071 2.46122C10.168 2.46145 10.3226 2.52372 10.4387 2.63506L12.0687 4.20006C12.1272 4.26035 12.1972 4.30824 12.2745 4.34087C12.3519 4.37351 12.4351 4.39022 12.519 4.39001C12.603 4.3898 12.6861 4.37267 12.7633 4.33964C12.8405 4.30662 12.9102 4.25837 12.9684 4.19779C13.0265 4.13721 13.0719 4.06553 13.1017 3.98704C13.1315 3.90855 13.1452 3.82485 13.142 3.74094C13.1388 3.65704 13.1187 3.57464 13.0829 3.49868C13.0471 3.42271 12.9964 3.35474 12.9337 3.29881L11.3037 1.73381C10.9552 1.39905 10.4909 1.21179 10.0076 1.21109C9.52435 1.21039 9.05948 1.39631 8.70998 1.73006L7.06998 3.29756ZM4.20373 7.93131C4.31154 7.81032 4.36813 7.65218 4.36158 7.49025C4.35502 7.32833 4.28583 7.17528 4.16859 7.06339C4.05136 6.95151 3.89525 6.88954 3.73319 6.89055C3.57114 6.89156 3.41581 6.95547 3.29998 7.06881L1.73623 8.70256C1.40271 9.05146 1.21658 9.51553 1.21658 9.99819C1.21658 10.4808 1.40271 10.9449 1.73623 11.2938L3.29998 12.9313C3.3567 12.9907 3.42454 13.0382 3.49965 13.0714C3.57476 13.1045 3.65565 13.1225 3.73771 13.1243C3.81978 13.1262 3.9014 13.1119 3.97793 13.0822C4.05446 13.0525 4.12439 13.008 4.18373 12.9513C4.24307 12.8946 4.29066 12.8267 4.32378 12.7516C4.3569 12.6765 4.3749 12.5956 4.37676 12.5136C4.37862 12.4315 4.36429 12.3499 4.3346 12.2734C4.30492 12.1968 4.26045 12.1269 4.20373 12.0676L2.63998 10.4301C2.52917 10.3138 2.46736 10.1594 2.46736 9.99881C2.46736 9.83822 2.52917 9.6838 2.63998 9.56756L4.20373 7.93131ZM7.93248 15.7976C7.87382 15.7376 7.80369 15.6901 7.72627 15.6578C7.64886 15.6255 7.56573 15.6092 7.48186 15.6097C7.39798 15.6102 7.31507 15.6276 7.23806 15.6608C7.16106 15.6941 7.09153 15.7425 7.03362 15.8032C6.97571 15.8638 6.93061 15.9356 6.901 16.014C6.87139 16.0925 6.85788 16.1761 6.86127 16.26C6.86466 16.3438 6.88489 16.426 6.92075 16.5019C6.9566 16.5777 7.00736 16.6455 7.06998 16.7013L8.71248 18.2713C9.06227 18.6056 9.52775 18.7918 10.0116 18.7909C10.4955 18.7899 10.9602 18.602 11.3087 18.2663L12.9337 16.6988C12.9964 16.6428 13.0471 16.5748 13.0828 16.4987C13.1185 16.4227 13.1386 16.3403 13.1417 16.2563C13.1449 16.1724 13.1311 16.0886 13.1011 16.0101C13.0712 15.9316 13.0257 15.86 12.9675 15.7995C12.9092 15.7389 12.8393 15.6908 12.762 15.6579C12.6848 15.6249 12.6016 15.6079 12.5176 15.6079C12.4336 15.6078 12.3504 15.6247 12.2731 15.6575C12.1958 15.6903 12.1258 15.7384 12.0675 15.7988L10.4425 17.3663C10.3262 17.4784 10.1711 17.5411 10.0096 17.5414C9.84812 17.5416 9.69281 17.4793 9.57623 17.3676L7.93248 15.7976ZM16.7025 7.06631C16.6456 7.00705 16.5776 6.95958 16.5024 6.9266C16.4272 6.89361 16.3462 6.87577 16.264 6.87409C16.1819 6.87241 16.1003 6.88691 16.0238 6.91679C15.9472 6.94666 15.8774 6.99131 15.8181 7.04819C15.7588 7.10507 15.7114 7.17306 15.6784 7.24829C15.6454 7.32351 15.6276 7.4045 15.6259 7.48662C15.6242 7.56874 15.6387 7.65039 15.6686 7.72691C15.6985 7.80342 15.7431 7.8733 15.8 7.93256L17.3725 9.57006C17.4844 9.68648 17.5469 9.8417 17.5469 10.0032C17.5469 10.1647 17.4844 10.3199 17.3725 10.4363L15.8 12.0663C15.6849 12.1857 15.622 12.3458 15.6251 12.5116C15.6281 12.6773 15.6969 12.835 15.8162 12.9501C15.9356 13.0651 16.0957 13.128 16.2615 13.125C16.4272 13.1219 16.5849 13.0532 16.7 12.9338L18.2712 11.3038C18.6075 10.9546 18.7955 10.4888 18.7957 10.0041C18.7959 9.51931 18.6084 9.0533 18.2725 8.70381L16.7025 7.06631ZM8.12498 6.25006C7.6277 6.25006 7.15079 6.44761 6.79915 6.79924C6.44752 7.15087 6.24998 7.62778 6.24998 8.12506L6.24998 11.8751C6.24998 12.3723 6.44752 12.8493 6.79915 13.2009C7.15079 13.5525 7.6277 13.7501 8.12498 13.7501L11.875 13.7501C12.3723 13.7501 12.8492 13.5525 13.2008 13.2009C13.5524 12.8493 13.75 12.3723 13.75 11.8751L13.75 8.12506C13.75 7.62778 13.5524 7.15087 13.2008 6.79924C12.8492 6.44761 12.3723 6.25006 11.875 6.25006L8.12498 6.25006ZM7.49998 8.12506C7.49998 7.9593 7.56583 7.80033 7.68304 7.68312C7.80025 7.56591 7.95922 7.50006 8.12498 7.50006L11.875 7.50006C12.0407 7.50006 12.1997 7.56591 12.3169 7.68312C12.4341 7.80033 12.5 7.9593 12.5 8.12506L12.5 11.8751C12.5 12.0408 12.4341 12.1998 12.3169 12.317C12.1997 12.4342 12.0407 12.5001 11.875 12.5001L8.12498 12.5001C7.95922 12.5001 7.80025 12.4342 7.68304 12.317C7.56583 12.1998 7.49998 12.0408 7.49998 11.8751L7.49998 8.12506Z"/>
</mask>
<path d="M7.06998 3.29756C6.95664 3.41339 6.89273 3.56872 6.89172 3.73077C6.8907 3.89283 6.95268 4.04894 7.06456 4.16617C7.17645 4.28341 7.3295 4.3526 7.49142 4.35916C7.65334 4.36571 7.81148 4.30912 7.93248 4.20131L9.57498 2.63381C9.69144 2.52281 9.84622 2.46099 10.0071 2.46122C10.168 2.46145 10.3226 2.52372 10.4387 2.63506L12.0687 4.20006C12.1272 4.26035 12.1972 4.30824 12.2745 4.34087C12.3519 4.37351 12.4351 4.39022 12.519 4.39001C12.603 4.3898 12.6861 4.37267 12.7633 4.33964C12.8405 4.30662 12.9102 4.25837 12.9684 4.19779C13.0265 4.13721 13.0719 4.06553 13.1017 3.98704C13.1315 3.90855 13.1452 3.82485 13.142 3.74094C13.1388 3.65704 13.1187 3.57464 13.0829 3.49868C13.0471 3.42271 12.9964 3.35474 12.9337 3.29881L11.3037 1.73381C10.9552 1.39905 10.4909 1.21179 10.0076 1.21109C9.52435 1.21039 9.05948 1.39631 8.70998 1.73006L7.06998 3.29756ZM4.20373 7.93131C4.31154 7.81032 4.36813 7.65218 4.36158 7.49025C4.35502 7.32833 4.28583 7.17528 4.16859 7.06339C4.05136 6.95151 3.89525 6.88954 3.73319 6.89055C3.57114 6.89156 3.41581 6.95547 3.29998 7.06881L1.73623 8.70256C1.40271 9.05146 1.21658 9.51553 1.21658 9.99819C1.21658 10.4808 1.40271 10.9449 1.73623 11.2938L3.29998 12.9313C3.3567 12.9907 3.42454 13.0382 3.49965 13.0714C3.57476 13.1045 3.65565 13.1225 3.73771 13.1243C3.81978 13.1262 3.9014 13.1119 3.97793 13.0822C4.05446 13.0525 4.12439 13.008 4.18373 12.9513C4.24307 12.8946 4.29066 12.8267 4.32378 12.7516C4.3569 12.6765 4.3749 12.5956 4.37676 12.5136C4.37862 12.4315 4.36429 12.3499 4.3346 12.2734C4.30492 12.1968 4.26045 12.1269 4.20373 12.0676L2.63998 10.4301C2.52917 10.3138 2.46736 10.1594 2.46736 9.99881C2.46736 9.83822 2.52917 9.6838 2.63998 9.56756L4.20373 7.93131ZM7.93248 15.7976C7.87382 15.7376 7.80369 15.6901 7.72627 15.6578C7.64886 15.6255 7.56573 15.6092 7.48186 15.6097C7.39798 15.6102 7.31507 15.6276 7.23806 15.6608C7.16106 15.6941 7.09153 15.7425 7.03362 15.8032C6.97571 15.8638 6.93061 15.9356 6.901 16.014C6.87139 16.0925 6.85788 16.1761 6.86127 16.26C6.86466 16.3438 6.88489 16.426 6.92075 16.5019C6.9566 16.5777 7.00736 16.6455 7.06998 16.7013L8.71248 18.2713C9.06227 18.6056 9.52775 18.7918 10.0116 18.7909C10.4955 18.7899 10.9602 18.602 11.3087 18.2663L12.9337 16.6988C12.9964 16.6428 13.0471 16.5748 13.0828 16.4987C13.1185 16.4227 13.1386 16.3403 13.1417 16.2563C13.1449 16.1724 13.1311 16.0886 13.1011 16.0101C13.0712 15.9316 13.0257 15.86 12.9675 15.7995C12.9092 15.7389 12.8393 15.6908 12.762 15.6579C12.6848 15.6249 12.6016 15.6079 12.5176 15.6079C12.4336 15.6078 12.3504 15.6247 12.2731 15.6575C12.1958 15.6903 12.1258 15.7384 12.0675 15.7988L10.4425 17.3663C10.3262 17.4784 10.1711 17.5411 10.0096 17.5414C9.84812 17.5416 9.69281 17.4793 9.57623 17.3676L7.93248 15.7976ZM16.7025 7.06631C16.6456 7.00705 16.5776 6.95958 16.5024 6.9266C16.4272 6.89361 16.3462 6.87577 16.264 6.87409C16.1819 6.87241 16.1003 6.88691 16.0238 6.91679C15.9472 6.94666 15.8774 6.99131 15.8181 7.04819C15.7588 7.10507 15.7114 7.17306 15.6784 7.24829C15.6454 7.32351 15.6276 7.4045 15.6259 7.48662C15.6242 7.56874 15.6387 7.65039 15.6686 7.72691C15.6985 7.80342 15.7431 7.8733 15.8 7.93256L17.3725 9.57006C17.4844 9.68648 17.5469 9.8417 17.5469 10.0032C17.5469 10.1647 17.4844 10.3199 17.3725 10.4363L15.8 12.0663C15.6849 12.1857 15.622 12.3458 15.6251 12.5116C15.6281 12.6773 15.6969 12.835 15.8162 12.9501C15.9356 13.0651 16.0957 13.128 16.2615 13.125C16.4272 13.1219 16.5849 13.0532 16.7 12.9338L18.2712 11.3038C18.6075 10.9546 18.7955 10.4888 18.7957 10.0041C18.7959 9.51931 18.6084 9.0533 18.2725 8.70381L16.7025 7.06631ZM8.12498 6.25006C7.6277 6.25006 7.15079 6.44761 6.79915 6.79924C6.44752 7.15087 6.24998 7.62778 6.24998 8.12506L6.24998 11.8751C6.24998 12.3723 6.44752 12.8493 6.79915 13.2009C7.15079 13.5525 7.6277 13.7501 8.12498 13.7501L11.875 13.7501C12.3723 13.7501 12.8492 13.5525 13.2008 13.2009C13.5524 12.8493 13.75 12.3723 13.75 11.8751L13.75 8.12506C13.75 7.62778 13.5524 7.15087 13.2008 6.79924C12.8492 6.44761 12.3723 6.25006 11.875 6.25006L8.12498 6.25006ZM7.49998 8.12506C7.49998 7.9593 7.56583 7.80033 7.68304 7.68312C7.80025 7.56591 7.95922 7.50006 8.12498 7.50006L11.875 7.50006C12.0407 7.50006 12.1997 7.56591 12.3169 7.68312C12.4341 7.80033 12.5 7.9593 12.5 8.12506L12.5 11.8751C12.5 12.0408 12.4341 12.1998 12.3169 12.317C12.1997 12.4342 12.0407 12.5001 11.875 12.5001L8.12498 12.5001C7.95922 12.5001 7.80025 12.4342 7.68304 12.317C7.56583 12.1998 7.49998 12.0408 7.49998 11.8751L7.49998 8.12506Z" fill="#B6BCCB" stroke="white" stroke-width="3" mask="url(#path-1-inside-1_2167_477)"/>
</g>
</g>
</svg>
