<svg width="22" height="22" viewBox="0 0 22 22" fill="none" xmlns="http://www.w3.org/2000/svg">
<path d="M17 18.5C16.6 15.5 14 13.2 10.9 13.2C7.8 13.2 5.3 15.5 4.8 18.5M14.4 9.2C14.4 11.0778 12.8778 12.6 11 12.6C9.12223 12.6 7.6 11.0778 7.6 9.2C7.6 7.32223 9.12223 5.8 11 5.8C12.8778 5.8 14.4 7.32223 14.4 9.2ZM21 11C21 16.5228 16.5228 21 11 21C5.47715 21 1 16.5228 1 11C1 5.47715 5.47715 1 11 1C16.5228 1 21 5.47715 21 11Z" stroke="#E5E5E5" stroke-width="1.5" stroke-miterlimit="10" stroke-linecap="round" stroke-linejoin="round"/>
</svg>
