<svg width="16" height="18" viewBox="0 0 16 18" fill="none" xmlns="http://www.w3.org/2000/svg">
<path fill-rule="evenodd" clip-rule="evenodd" d="M5.83358 2.03345C5.83358 1.7573 5.60972 1.53345 5.33358 1.53345C5.05744 1.53345 4.83358 1.7573 4.83358 2.03345V2.80011H3.33358C2.3241 2.80011 1.50024 3.62397 1.50024 4.63345V6.96678V12.6334C1.50024 13.6429 2.3241 14.4668 3.33358 14.4668H8.54772C8.19883 14.1215 7.89157 13.7908 7.63191 13.4668H3.33358C2.87639 13.4668 2.50024 13.0906 2.50024 12.6334V7.46678H13.5002V8.66957C13.8345 8.67789 14.1733 8.74882 14.5002 8.89303V6.96678V4.63345C14.5002 3.62397 13.6764 2.80011 12.6669 2.80011H11.1669V2.03345C11.1669 1.7573 10.9431 1.53345 10.6669 1.53345C10.3908 1.53345 10.1669 1.7573 10.1669 2.03345V2.80011H5.83358V2.03345ZM3.33358 3.80011H4.83358V4.70011C4.83358 4.97626 5.05744 5.20011 5.33358 5.20011C5.60972 5.20011 5.83358 4.97626 5.83358 4.70011V3.80011H10.1669V4.70011C10.1669 4.97626 10.3908 5.20011 10.6669 5.20011C10.9431 5.20011 11.1669 4.97626 11.1669 4.70011V3.80011H12.6669C13.1241 3.80011 13.5002 4.17626 13.5002 4.63345V6.46678H2.50024V4.63345C2.50024 4.17626 2.87639 3.80011 3.33358 3.80011Z" fill="#C0C0C0"/>
<path fill-rule="evenodd" clip-rule="evenodd" d="M11.3352 9.97978C12.0196 9.17867 13.2874 8.852 14.3141 9.552C14.8585 9.92534 15.2007 10.5553 15.2241 11.2164C15.2746 12.7253 13.9407 13.9348 11.8991 15.7859L11.8563 15.8248C11.5607 16.097 11.1057 16.097 10.8102 15.8287L10.7713 15.7937L10.7478 15.7723C8.71937 13.9294 7.39206 12.7234 7.44629 11.2203C7.46963 10.5553 7.81185 9.92534 8.35629 9.552C9.38296 8.84811 10.6507 9.17867 11.3352 9.97978ZM11.284 15.1534L11.3206 15.1168C13.0642 13.5381 14.2144 12.4941 14.2144 11.4355C14.2144 10.7029 13.665 10.1534 12.9324 10.1534C12.3682 10.1534 11.8188 10.5161 11.6283 11.0179H10.9433C10.7492 10.5161 10.1997 10.1534 9.63565 10.1534C8.90305 10.1534 8.3536 10.7029 8.3536 11.4355C8.3536 12.4941 9.50378 13.5381 11.2474 15.1168L11.284 15.1534Z" fill="#C0C0C0"/>
</svg>
