<svg width="16" height="16" viewBox="0 0 16 16" fill="none" xmlns="http://www.w3.org/2000/svg">
<path d="M2.00024 6.66671C2.00024 6.31309 2.14072 5.97395 2.39077 5.7239C2.64082 5.47385 2.97996 5.33337 3.33358 5.33337H12.6669C13.0205 5.33337 13.3597 5.47385 13.6097 5.7239C13.8598 5.97395 14.0002 6.31309 14.0002 6.66671V12.6667C14.0002 13.0203 13.8598 13.3595 13.6097 13.6095C13.3597 13.8596 13.0205 14 12.6669 14H3.33358C2.97996 14 2.64082 13.8596 2.39077 13.6095C2.14072 13.3595 2.00024 13.0203 2.00024 12.6667V6.66671Z" stroke="#C0C0C0" stroke-linecap="round" stroke-linejoin="round"/>
<path d="M2.00024 8L3.94291 9.554C4.73424 10.1873 5.87624 10.124 6.59291 9.40733C6.77771 9.22249 6.99711 9.07586 7.23858 8.97582C7.48005 8.87578 7.73887 8.82428 8.00024 8.82428C8.26162 8.82428 8.52044 8.87578 8.76191 8.97582C9.00338 9.07586 9.22278 9.22249 9.40758 9.40733V9.40733C9.75387 9.75353 10.2156 9.9599 10.7046 9.98696C11.1935 10.014 11.6752 9.85987 12.0576 9.554L14.0002 8" stroke="#C0C0C0" stroke-linecap="round"/>
<path d="M8.00024 4.66671C7.64662 4.66671 7.30748 4.52623 7.05743 4.27618C6.80739 4.02613 6.66691 3.687 6.66691 3.33337C6.66691 2.74937 7.11824 2.28271 7.51558 1.85537L8.00024 1.33337L8.48491 1.85537C8.88224 2.28271 9.33358 2.74937 9.33358 3.33337C9.33358 3.687 9.1931 4.02613 8.94305 4.27618C8.693 4.52623 8.35387 4.66671 8.00024 4.66671Z" stroke="#C0C0C0" stroke-linecap="round" stroke-linejoin="round"/>
</svg>
