<svg width="16" height="16" viewBox="0 0 16 16" fill="none" xmlns="http://www.w3.org/2000/svg">
<g clip-path="url(#clip0_3887_168393)">
<path d="M2.03359 7.26667H14.0336M12.6336 14H3.30025C2.56692 14 1.96692 13.4 1.96692 12.6667V5.46667C1.96692 4.73333 2.56692 4.13333 3.30025 4.13333H12.6336C13.3669 4.13333 13.9669 4.73333 13.9669 5.46667V12.6667C14.0336 13.4 13.4336 14 12.6336 14ZM8.23359 9.6H7.76692C7.23359 9.6 6.76692 9.13333 6.76692 8.6V7.26667H9.30025V8.6C9.23359 9.13333 8.83359 9.6 8.23359 9.6ZM10.0336 2H6.03359C5.50025 2 5.03359 2.46667 5.03359 3V4.13333H11.0336V2.93333C11.0336 2.4 10.5669 2 10.0336 2Z" stroke="#C0C0C0" stroke-miterlimit="10" stroke-linejoin="round"/>
</g>
<defs>
<clipPath id="clip0_3887_168393">
<rect width="16" height="16" fill="white" transform="translate(0.000244141)"/>
</clipPath>
</defs>
</svg>
