<svg width="16" height="16" viewBox="0 0 16 16" fill="none" xmlns="http://www.w3.org/2000/svg">
<g clip-path="url(#clip0_3887_168399)">
<g clip-path="url(#clip1_3887_168399)">
<path d="M8.62036 6.86408C8.80791 6.2122 9.11439 5.60064 9.52435 5.06021C9.85692 4.61853 10.2878 4.12026 10.1679 3.52204C10.0441 2.90488 9.36406 2.78345 8.83444 2.77612C8.58943 2.77272 8.19006 2.83051 8.07805 3.08599C7.93142 3.4206 8.34422 3.70074 8.62975 3.71991C8.79679 3.72885 8.96343 3.69593 9.11453 3.62417C9.26563 3.5524 9.39643 3.44404 9.49505 3.30893C9.79087 2.86361 9.82773 2.20135 9.64969 1.70538C9.40887 1.03452 9.06945 0.494626 8.29563 0.503517C7.91473 0.507893 7.19564 0.797154 7.32358 1.29097C7.50587 1.99436 8.61225 1.84183 9.10332 1.67625C9.45812 1.5594 9.78227 1.36459 10.052 1.10613C10.3217 0.847674 10.5301 0.532129 10.6619 0.182617" stroke="#C0C0C0" stroke-width="0.5" stroke-linecap="round" stroke-linejoin="round"/>
<path d="M9.20737 7.60886C9.83079 7.34152 10.3994 6.9612 10.8845 6.48707C11.2813 6.10205 11.722 5.61243 12.3305 5.65686C12.9582 5.70269 13.1635 6.36232 13.2368 6.8869C13.2707 7.12958 13.2631 7.53304 13.0236 7.67602C12.7099 7.86321 12.3805 7.48855 12.3258 7.20763C12.2962 7.04301 12.308 6.87357 12.3604 6.7147C12.4128 6.55583 12.504 6.41255 12.6258 6.29786C13.0307 5.94883 13.6832 5.82972 14.1975 5.94455C14.8932 6.09987 15.4712 6.36934 15.5588 7.13823C15.6019 7.51671 15.4046 8.26625 14.8987 8.20086C14.178 8.10766 14.1915 6.9909 14.2945 6.48302C14.3663 6.11642 14.5191 5.77052 14.742 5.47071C14.9648 5.1709 15.2519 4.92478 15.5823 4.7504" stroke="#C0C0C0" stroke-width="0.5" stroke-linecap="round" stroke-linejoin="round"/>
<path d="M3.21669 6.10498L4.49387 7.98307C5.31805 9.19519 6.37987 10.2273 7.61492 11.0167L9.34718 12.1239" stroke="#C0C0C0"/>
<path d="M2.32254 9.28955L3.0718 10.293C3.71342 11.1523 4.48807 11.9036 5.36651 12.5188L6.15263 13.0692" stroke="#C0C0C0"/>
<path d="M1.3984 11.8914L1.9106 12.5579C2.34654 13.1253 2.86557 13.6237 3.45018 14.0363" stroke="#C0C0C0"/>
<path d="M12.5886 10.9633C13.1291 10.4228 11.7463 8.16352 9.49997 5.91717C7.25362 3.67082 4.99438 2.28802 4.45381 2.82859C3.91324 3.36915 5.29604 5.62839 7.54239 7.87475C9.78874 10.1211 12.048 11.5039 12.5886 10.9633Z" stroke="#C0C0C0"/>
<path d="M12.5186 11.0332L6.40632 13.0781L1.24502 14.8048C0.853799 14.9357 0.481328 14.5632 0.612213 14.172L2.33896 9.01069L4.38386 2.89844" stroke="#C0C0C0"/>
</g>
</g>
<defs>
<clipPath id="clip0_3887_168399">
<rect width="16" height="16" fill="white" transform="translate(0.000244141)"/>
</clipPath>
<clipPath id="clip1_3887_168399">
<rect width="16" height="15.4388" fill="white" transform="translate(0.000244141)"/>
</clipPath>
</defs>
</svg>
