<svg width="16" height="16" viewBox="0 0 16 16" fill="none" xmlns="http://www.w3.org/2000/svg">
<g clip-path="url(#clip0_3887_168390)">
<path fill-rule="evenodd" clip-rule="evenodd" d="M2.85416 15.854C2.78423 15.9241 2.69506 15.9719 2.59795 15.9912C2.50084 16.0106 2.40017 16.0007 2.3087 15.9628C2.21723 15.9249 2.13907 15.8606 2.08414 15.7783C2.02921 15.6959 1.99999 15.599 2.00016 15.5V14H0.500162C0.401142 14.0002 0.304298 13.9709 0.221909 13.916C0.13952 13.8611 0.0752956 13.7829 0.0373781 13.6915C-0.000539448 13.6 -0.0104426 13.4993 0.00892423 13.4022C0.028291 13.3051 0.0760555 13.2159 0.146162 13.146L1.64616 11.646C1.69268 11.5996 1.74789 11.5628 1.80863 11.5378C1.86937 11.5127 1.93446 11.4999 2.00016 11.5H3.79316L4.32316 10.97C3.55216 10.168 2.99516 9.39 2.61916 8.65C1.82116 7.075 1.84416 5.654 2.40616 4.558C3.42616 2.565 6.18016 1.809 8.00016 3.233C9.25016 2.253 10.9442 2.305 12.2122 3.081L13.2922 2L12.1472 0.854C12.0771 0.784131 12.0294 0.695051 12.01 0.598036C11.9906 0.501021 12.0004 0.400432 12.0382 0.308999C12.076 0.217567 12.14 0.139402 12.2223 0.0843973C12.3045 0.0293926 12.4012 2.10149e-05 12.5002 0L15.5002 0C15.6328 0 15.7599 0.0526784 15.8537 0.146447C15.9475 0.240215 16.0002 0.367392 16.0002 0.5V3.5C16.0003 3.59902 15.9711 3.69586 15.9162 3.77825C15.8613 3.86064 15.7831 3.92487 15.6916 3.96278C15.6002 4.0007 15.4995 4.0106 15.4024 3.99124C15.3053 3.97187 15.2161 3.92411 15.1462 3.854L14.0002 2.707L12.9942 3.713C13.2302 3.961 13.4342 4.244 13.5942 4.558C14.1562 5.654 14.1792 7.075 13.3812 8.65C12.5882 10.213 10.9862 11.938 8.27616 13.73L8.00016 13.912L7.72416 13.73C6.7772 13.1131 5.87951 12.4237 5.03916 11.668L4.50016 12.208V14C4.50028 14.0657 4.48745 14.1308 4.46239 14.1915C4.43734 14.2523 4.40056 14.3075 4.35416 14.354L2.85416 15.854ZM5.74716 10.96C6.45644 11.5951 7.20928 12.1799 8.00016 12.71C10.4562 11.044 11.8272 9.503 12.4892 8.198C13.1682 6.858 13.0962 5.778 12.7042 5.013C11.8872 3.418 9.61716 2.959 8.35816 4.252L8.00016 4.62L7.64216 4.252C6.38316 2.959 4.11216 3.418 3.29616 5.013C2.90416 5.779 2.83216 6.858 3.51116 8.198C3.83416 8.834 4.32616 9.528 5.03016 10.263L6.89616 8.396C6.99005 8.30211 7.11739 8.24937 7.25016 8.24937C7.38294 8.24937 7.51028 8.30211 7.60416 8.396C7.69805 8.48989 7.75079 8.61722 7.75079 8.75C7.75079 8.88278 7.69805 9.01011 7.60416 9.104L5.74716 10.96Z" fill="#C0C0C0"/>
</g>
<defs>
<clipPath id="clip0_3887_168390">
<rect width="16" height="16" fill="white" transform="translate(0.000244141)"/>
</clipPath>
</defs>
</svg>
