<svg width="16" height="16" viewBox="0 0 16 16" fill="none" xmlns="http://www.w3.org/2000/svg">
<g clip-path="url(#clip0_3887_168396)">
<path d="M10.5336 7.13325C9.93358 6.39992 9.06691 5.93325 8.00024 5.93325C7.00024 5.93325 6.13358 6.39992 5.53358 7.13325M7.06691 13.6666C6.46691 12.9333 5.60024 12.4666 4.53358 12.4666C3.53358 12.4666 2.60024 12.9333 2.00024 13.6666M14.0002 13.6666C13.4002 12.9333 12.5336 12.4666 11.4669 12.4666C10.4669 12.4666 9.53358 12.9333 8.93358 13.6666M9.86691 4.13325C9.86691 5.12736 9.06102 5.93325 8.06691 5.93325C7.0728 5.93325 6.26691 5.12736 6.26691 4.13325C6.26691 3.13914 7.0728 2.33325 8.06691 2.33325C9.06102 2.33325 9.86691 3.13914 9.86691 4.13325ZM6.33358 10.5999C6.33358 11.594 5.52769 12.3999 4.53358 12.3999C3.53946 12.3999 2.73358 11.594 2.73358 10.5999C2.73358 9.60581 3.53946 8.79992 4.53358 8.79992C5.52769 8.79992 6.33358 9.60581 6.33358 10.5999ZM13.3336 10.5999C13.3336 11.594 12.5277 12.3999 11.5336 12.3999C10.5395 12.3999 9.73358 11.594 9.73358 10.5999C9.73358 9.60581 10.5395 8.79992 11.5336 8.79992C12.5277 8.79992 13.3336 9.60581 13.3336 10.5999Z" stroke="#C0C0C0" stroke-miterlimit="10" stroke-linecap="round" stroke-linejoin="round"/>
</g>
<defs>
<clipPath id="clip0_3887_168396">
<rect width="16" height="16" fill="white" transform="translate(0.000244141)"/>
</clipPath>
</defs>
</svg>
