<svg width="290" height="42" viewBox="0 0 290 42" fill="none" xmlns="http://www.w3.org/2000/svg">
<g clip-path="url(#clip0_3733_56011)">
<path fill-rule="evenodd" clip-rule="evenodd" d="M21.4725 42C33.0554 42 42.4453 32.6101 42.4453 21.0272C42.4453 9.44457 33.0554 0.0546722 21.4725 0.0546722C9.8899 0.0546722 0.5 9.44457 0.5 21.0272C0.5 32.6101 9.8899 42 21.4725 42ZM27.2703 28.9966C28.5244 29.1048 30.3115 29.259 30.9446 27.8094C31.0315 27.6103 31.0988 27.3804 31.1434 27.1153C31.504 24.9708 31.5663 22.768 31.3349 20.6035C31.1908 19.2508 30.8577 17.3474 29.5427 16.7182C31.6745 15.4755 29.3939 12.9794 28.2189 12.2549C24.4451 9.92865 18.8667 9.74942 14.8821 11.5612C13.7441 12.0786 11.6608 13.5776 12.4946 15.3514C12.6427 15.6662 12.8663 15.8525 13.0959 16.0437C13.2111 16.1396 13.3278 16.2368 13.4371 16.3521C13.4038 16.317 12.7593 16.9941 12.3212 18.1237C12.016 18.9101 11.7358 19.7103 11.6047 20.5449C11.4016 21.8378 11.2017 23.3104 11.2155 24.6203C11.2318 26.1301 11.449 27.9278 12.6699 28.9822C13.5819 29.7697 14.9034 29.4169 16.0227 29.1181C16.2552 29.056 16.4789 28.9963 16.6885 28.9496C18.3164 28.5864 19.9696 28.2653 21.6405 28.3156C22.7253 28.3485 23.7969 28.5145 24.8688 28.6805C25.6619 28.8033 26.4552 28.9262 27.254 28.9952L27.2703 28.9966ZM33.654 19.8591C33.8296 21.5022 33.8745 23.1753 33.8687 24.8314C33.8679 25.0179 33.8669 25.204 33.8647 25.3897L33.8636 25.5C33.8467 27.2222 33.8295 28.9776 33.4555 30.6607C33.0741 32.3765 31.0327 32.3486 29.6703 32.33C29.5958 32.329 29.5233 32.328 29.4532 32.3273C28.1264 32.3147 26.8057 32.1424 25.4851 31.9701C24.2587 31.8101 23.0323 31.6501 21.8009 31.618C20.4222 31.5819 19.044 31.7685 17.6711 31.9543C17.2427 32.0123 16.8148 32.0702 16.3876 32.1213C15.8958 32.18 15.3905 32.271 14.8798 32.3631C13.7052 32.5747 12.502 32.7916 11.3672 32.6318C11.3639 32.6315 11.3606 32.6311 11.3574 32.6304C9.35913 32.3429 8.7838 29.7139 8.61508 27.9528C8.34172 25.1044 8.17625 22.8259 9.17194 19.2805C9.50323 18.1005 10.0166 17.2287 10.7238 16.2558C10.724 16.2557 10.6787 16.208 10.6132 16.139C10.4924 16.0118 10.303 15.8124 10.2035 15.7051C9.86711 15.343 9.55899 14.9368 9.38447 14.4686C8.6922 12.6109 10.2668 10.9352 11.6333 10.0771C16.8851 6.77973 24.1352 6.53679 29.5517 9.43261C31.0594 10.2386 32.583 11.4504 33.2231 13.163C33.7115 14.4694 33.8176 16.2746 32.4389 17.0089C32.3382 17.0625 32.1097 17.0585 31.974 17.0245C33.1608 17.3149 33.5345 18.7425 33.654 19.8591Z" fill="white"/>
</g>
<path d="M68.958 12.648L59.466 12.648V7.986L83.742 7.986V12.648L74.25 12.648V36H68.958V12.648ZM80.5558 26.13C80.5558 24.702 80.8078 23.358 81.3118 22.098C81.8438 20.81 82.5718 19.69 83.4958 18.738C84.4198 17.786 85.5258 17.03 86.8138 16.47C88.1298 15.91 89.5718 15.63 91.1398 15.63C92.7078 15.63 94.1358 15.91 95.4238 16.47C96.7398 17.03 97.8598 17.786 98.7838 18.738C99.7078 19.69 100.422 20.81 100.926 22.098C101.458 23.358 101.724 24.702 101.724 26.13C101.724 27.558 101.458 28.916 100.926 30.204C100.422 31.464 99.7078 32.584 98.7838 33.564C97.8598 34.516 96.7398 35.272 95.4238 35.832C94.1358 36.392 92.7078 36.672 91.1398 36.672C89.5718 36.672 88.1298 36.392 86.8138 35.832C85.5258 35.272 84.4198 34.516 83.4958 33.564C82.5718 32.584 81.8438 31.464 81.3118 30.204C80.8078 28.916 80.5558 27.558 80.5558 26.13ZM91.1398 32.388C92.0918 32.388 92.9178 32.206 93.6178 31.842C94.3178 31.45 94.8918 30.946 95.3398 30.33C95.8158 29.714 96.1658 29.042 96.3898 28.314C96.6138 27.586 96.7258 26.858 96.7258 26.13C96.7258 25.43 96.6138 24.716 96.3898 23.988C96.1658 23.232 95.8158 22.56 95.3398 21.972C94.8918 21.356 94.3178 20.866 93.6178 20.502C92.9178 20.11 92.0918 19.914 91.1398 19.914C90.1878 19.914 89.3618 20.11 88.6618 20.502C87.9618 20.866 87.3738 21.356 86.8978 21.972C86.4498 22.56 86.1138 23.232 85.8898 23.988C85.6658 24.716 85.5538 25.43 85.5538 26.13C85.5538 26.858 85.6658 27.586 85.8898 28.314C86.1138 29.042 86.4498 29.714 86.8978 30.33C87.3738 30.946 87.9618 31.45 88.6618 31.842C89.3618 32.206 90.1878 32.388 91.1398 32.388ZM117.513 34.152C116.981 34.796 116.169 35.37 115.077 35.874C113.985 36.378 112.767 36.63 111.423 36.63C110.611 36.63 109.799 36.504 108.987 36.252C108.203 36 107.475 35.622 106.803 35.118C106.159 34.586 105.627 33.914 105.207 33.102C104.815 32.29 104.619 31.338 104.619 30.246C104.619 29.126 104.829 28.132 105.249 27.264C105.669 26.368 106.257 25.626 107.013 25.038C107.769 24.422 108.679 23.96 109.743 23.652C110.807 23.344 111.983 23.19 113.271 23.19C113.663 23.19 114.097 23.204 114.573 23.232C115.049 23.232 115.511 23.246 115.959 23.274C116.463 23.302 116.981 23.33 117.513 23.358V22.896C117.513 21.916 117.121 21.146 116.337 20.586C115.553 20.026 114.531 19.746 113.271 19.746C111.871 19.746 110.751 19.928 109.911 20.292C109.071 20.656 108.329 21.048 107.685 21.468L105.417 18.108C105.809 17.828 106.257 17.548 106.761 17.268C107.265 16.96 107.853 16.694 108.525 16.47C109.197 16.218 109.967 16.022 110.835 15.882C111.731 15.714 112.767 15.63 113.943 15.63C115.203 15.63 116.337 15.812 117.345 16.176C118.381 16.512 119.263 17.002 119.991 17.646C120.719 18.262 121.279 19.018 121.671 19.914C122.063 20.782 122.259 21.734 122.259 22.77V36H117.639L117.513 34.152ZM117.513 27.096C117.009 27.068 116.519 27.04 116.043 27.012C115.651 26.984 115.231 26.97 114.783 26.97C114.363 26.942 113.999 26.928 113.691 26.928C112.095 26.928 110.975 27.25 110.331 27.894C109.687 28.51 109.365 29.224 109.365 30.036C109.365 30.876 109.659 31.534 110.247 32.01C110.863 32.486 111.759 32.724 112.935 32.724C113.523 32.724 114.083 32.626 114.615 32.43C115.175 32.234 115.665 31.968 116.085 31.632C116.505 31.296 116.841 30.904 117.093 30.456C117.373 30.008 117.513 29.532 117.513 29.028V27.096ZM129.259 30.372C129.875 30.988 130.645 31.506 131.569 31.926C132.521 32.318 133.599 32.514 134.803 32.514C135.867 32.514 136.721 32.374 137.365 32.094C138.009 31.814 138.331 31.352 138.331 30.708C138.331 30.428 138.275 30.176 138.163 29.952C138.051 29.7 137.813 29.462 137.449 29.238C137.085 29.014 136.581 28.79 135.937 28.566C135.293 28.342 134.425 28.104 133.333 27.852C132.661 27.684 131.961 27.46 131.233 27.18C130.505 26.9 129.819 26.522 129.175 26.046C128.559 25.542 128.041 24.954 127.621 24.282C127.229 23.582 127.033 22.756 127.033 21.804C127.033 20.824 127.271 19.956 127.747 19.2C128.223 18.416 128.839 17.772 129.595 17.268C130.379 16.736 131.247 16.33 132.199 16.05C133.179 15.77 134.159 15.63 135.139 15.63C136.875 15.63 138.345 15.812 139.549 16.176C140.781 16.54 141.887 17.086 142.867 17.814L140.305 21.3C139.773 20.908 139.073 20.558 138.205 20.25C137.337 19.914 136.315 19.746 135.139 19.746C133.963 19.746 133.137 19.928 132.661 20.292C132.213 20.628 131.989 21.048 131.989 21.552C131.989 22.168 132.367 22.658 133.123 23.022C133.907 23.358 135.111 23.722 136.735 24.114C137.743 24.338 138.639 24.618 139.423 24.954C140.235 25.29 140.921 25.71 141.481 26.214C142.069 26.718 142.517 27.32 142.825 28.02C143.133 28.692 143.287 29.504 143.287 30.456C143.287 31.408 143.063 32.276 142.615 33.06C142.167 33.816 141.551 34.46 140.767 34.992C140.011 35.524 139.115 35.93 138.079 36.21C137.071 36.518 135.993 36.672 134.845 36.672C132.997 36.672 131.331 36.42 129.847 35.916C128.363 35.384 127.173 34.614 126.277 33.606L129.259 30.372ZM149.18 20.334H145.82V16.302H149.18V9.918L154.136 9.918V16.302L159.428 16.302V20.334L154.136 20.334V28.944C154.136 30.064 154.318 30.932 154.682 31.548C155.074 32.136 155.69 32.43 156.53 32.43C157.314 32.43 157.93 32.318 158.378 32.094C158.854 31.87 159.302 31.604 159.722 31.296L161.822 34.362C160.842 35.174 159.876 35.748 158.924 36.084C157.972 36.448 156.908 36.63 155.732 36.63C154.528 36.63 153.506 36.448 152.666 36.084C151.826 35.748 151.14 35.258 150.608 34.614C150.104 33.97 149.74 33.2 149.516 32.304C149.292 31.38 149.18 30.372 149.18 29.28V20.334ZM180.408 12.648L170.916 12.648V7.986L195.192 7.986V12.648H185.7V36H180.408V12.648ZM205.384 34.152C204.852 34.796 204.04 35.37 202.948 35.874C201.856 36.378 200.638 36.63 199.294 36.63C198.482 36.63 197.67 36.504 196.858 36.252C196.074 36 195.346 35.622 194.674 35.118C194.03 34.586 193.498 33.914 193.078 33.102C192.686 32.29 192.49 31.338 192.49 30.246C192.49 29.126 192.7 28.132 193.12 27.264C193.54 26.368 194.128 25.626 194.884 25.038C195.64 24.422 196.55 23.96 197.614 23.652C198.678 23.344 199.854 23.19 201.142 23.19C201.534 23.19 201.968 23.204 202.444 23.232C202.92 23.232 203.382 23.246 203.83 23.274C204.334 23.302 204.852 23.33 205.384 23.358V22.896C205.384 21.916 204.992 21.146 204.208 20.586C203.424 20.026 202.402 19.746 201.142 19.746C199.742 19.746 198.622 19.928 197.782 20.292C196.942 20.656 196.2 21.048 195.556 21.468L193.288 18.108C193.68 17.828 194.128 17.548 194.632 17.268C195.136 16.96 195.724 16.694 196.396 16.47C197.068 16.218 197.838 16.022 198.706 15.882C199.602 15.714 200.638 15.63 201.814 15.63C203.074 15.63 204.208 15.812 205.216 16.176C206.252 16.512 207.134 17.002 207.862 17.646C208.59 18.262 209.15 19.018 209.542 19.914C209.934 20.782 210.13 21.734 210.13 22.77V36H205.51L205.384 34.152ZM205.384 27.096C204.88 27.068 204.39 27.04 203.914 27.012C203.522 26.984 203.102 26.97 202.654 26.97C202.234 26.942 201.87 26.928 201.562 26.928C199.966 26.928 198.846 27.25 198.202 27.894C197.558 28.51 197.236 29.224 197.236 30.036C197.236 30.876 197.53 31.534 198.118 32.01C198.734 32.486 199.63 32.724 200.806 32.724C201.394 32.724 201.954 32.626 202.486 32.43C203.046 32.234 203.536 31.968 203.956 31.632C204.376 31.296 204.712 30.904 204.964 30.456C205.244 30.008 205.384 29.532 205.384 29.028V27.096ZM215.114 7.986L220.07 7.986V17.646C220.406 17.31 221.05 16.932 222.002 16.512C222.954 16.092 224.102 15.882 225.446 15.882C226.874 15.882 228.134 16.148 229.226 16.68C230.346 17.212 231.298 17.926 232.082 18.822C232.866 19.718 233.454 20.782 233.846 22.014C234.266 23.246 234.476 24.548 234.476 25.92C234.476 27.404 234.21 28.804 233.678 30.12C233.174 31.408 232.432 32.542 231.452 33.522C230.5 34.474 229.338 35.244 227.966 35.832C226.594 36.392 225.054 36.672 223.346 36.672C221.638 36.672 220.056 36.532 218.6 36.252C217.172 35.972 216.01 35.678 215.114 35.37V7.986ZM220.07 31.968C220.462 32.108 220.868 32.22 221.288 32.304C221.708 32.36 222.366 32.388 223.262 32.388C224.27 32.388 225.152 32.22 225.908 31.884C226.664 31.52 227.308 31.044 227.84 30.456C228.372 29.868 228.764 29.196 229.016 28.44C229.296 27.656 229.436 26.858 229.436 26.046C229.436 25.29 229.338 24.562 229.142 23.862C228.974 23.162 228.694 22.546 228.302 22.014C227.91 21.454 227.406 21.02 226.79 20.712C226.202 20.376 225.488 20.208 224.648 20.208C223.136 20.208 221.988 20.6 221.204 21.384C220.448 22.14 220.07 23.19 220.07 24.534V31.968ZM238.611 7.986L243.567 7.986V36H238.611V7.986ZM267.177 33.144C267.093 33.228 266.855 33.466 266.463 33.858C266.099 34.222 265.553 34.614 264.825 35.034C264.125 35.454 263.215 35.832 262.095 36.168C261.003 36.504 259.687 36.672 258.147 36.672C256.579 36.672 255.151 36.406 253.863 35.874C252.575 35.342 251.469 34.614 250.545 33.69C249.649 32.738 248.949 31.604 248.445 30.288C247.969 28.972 247.731 27.516 247.731 25.92C247.731 24.464 247.969 23.12 248.445 21.888C248.949 20.628 249.635 19.536 250.503 18.612C251.399 17.688 252.449 16.96 253.653 16.428C254.885 15.896 256.243 15.63 257.727 15.63C259.519 15.63 261.031 15.966 262.263 16.638C263.523 17.282 264.531 18.136 265.287 19.2C266.043 20.264 266.589 21.468 266.925 22.812C267.261 24.156 267.429 25.528 267.429 26.928V27.642H252.729C252.729 28.37 252.883 29.028 253.191 29.616C253.527 30.204 253.947 30.708 254.451 31.128C254.983 31.548 255.571 31.87 256.215 32.094C256.887 32.318 257.545 32.43 258.189 32.43C259.141 32.43 259.967 32.346 260.667 32.178C261.395 31.982 262.011 31.772 262.515 31.548C263.019 31.296 263.425 31.044 263.733 30.792C264.069 30.512 264.321 30.288 264.489 30.12L267.177 33.144ZM262.347 24.072C262.347 23.568 262.249 23.064 262.053 22.56C261.857 22.056 261.563 21.608 261.171 21.216C260.807 20.796 260.331 20.46 259.743 20.208C259.155 19.928 258.483 19.788 257.727 19.788C256.915 19.788 256.187 19.928 255.543 20.208C254.927 20.46 254.409 20.796 253.989 21.216C253.569 21.608 253.247 22.056 253.023 22.56C252.799 23.064 252.687 23.568 252.687 24.072H262.347ZM273.47 30.372C274.086 30.988 274.856 31.506 275.78 31.926C276.732 32.318 277.81 32.514 279.014 32.514C280.078 32.514 280.932 32.374 281.576 32.094C282.22 31.814 282.542 31.352 282.542 30.708C282.542 30.428 282.486 30.176 282.374 29.952C282.262 29.7 282.024 29.462 281.66 29.238C281.296 29.014 280.792 28.79 280.148 28.566C279.504 28.342 278.636 28.104 277.544 27.852C276.872 27.684 276.172 27.46 275.444 27.18C274.716 26.9 274.03 26.522 273.386 26.046C272.77 25.542 272.252 24.954 271.832 24.282C271.44 23.582 271.244 22.756 271.244 21.804C271.244 20.824 271.482 19.956 271.958 19.2C272.434 18.416 273.05 17.772 273.806 17.268C274.59 16.736 275.458 16.33 276.41 16.05C277.39 15.77 278.37 15.63 279.35 15.63C281.086 15.63 282.556 15.812 283.76 16.176C284.992 16.54 286.098 17.086 287.078 17.814L284.516 21.3C283.984 20.908 283.284 20.558 282.416 20.25C281.548 19.914 280.526 19.746 279.35 19.746C278.174 19.746 277.348 19.928 276.872 20.292C276.424 20.628 276.2 21.048 276.2 21.552C276.2 22.168 276.578 22.658 277.334 23.022C278.118 23.358 279.322 23.722 280.946 24.114C281.954 24.338 282.85 24.618 283.634 24.954C284.446 25.29 285.132 25.71 285.692 26.214C286.28 26.718 286.728 27.32 287.036 28.02C287.344 28.692 287.498 29.504 287.498 30.456C287.498 31.408 287.274 32.276 286.826 33.06C286.378 33.816 285.762 34.46 284.978 34.992C284.222 35.524 283.326 35.93 282.29 36.21C281.282 36.518 280.204 36.672 279.056 36.672C277.208 36.672 275.542 36.42 274.058 35.916C272.574 35.384 271.384 34.614 270.488 33.606L273.47 30.372Z" fill="white"/>
<defs>
<clipPath id="clip0_3733_56011">
<rect width="42" height="42" fill="white" transform="translate(0.5)"/>
</clipPath>
</defs>
</svg>
